ISO-10303-21;
HEADER;
FILE_DESCRIPTION(('FreeCAD Model'),'2;1');
FILE_NAME('Open CASCADE Shape Model','2026-02-22T22:51:39',(''),(''),
  'Open CASCADE STEP processor 7.8','FreeCAD','Unknown');
FILE_SCHEMA(('AUTOMOTIVE_DESIGN { 1 0 10303 214 1 1 1 1 }'));
ENDSEC;
DATA;
#1 = APPLICATION_PROTOCOL_DEFINITION('international standard',
  'automotive_design',2000,#2);
#2 = APPLICATION_CONTEXT(
  'core data for automotive mechanical design processes');
#3 = SHAPE_DEFINITION_REPRESENTATION(#4,#10);
#4 = PRODUCT_DEFINITION_SHAPE('','',#5);
#5 = PRODUCT_DEFINITION('design','',#6,#9);
#6 = PRODUCT_DEFINITION_FORMATION('','',#7);
#7 = PRODUCT('Grill','Grill','',(#8));
#8 = PRODUCT_CONTEXT('',#2,'mechanical');
#9 = PRODUCT_DEFINITION_CONTEXT('part definition',#2,'design');
#10 = ADVANCED_BREP_SHAPE_REPRESENTATION('',(#11,#15),#1236);
#11 = AXIS2_PLACEMENT_3D('',#12,#13,#14);
#12 = CARTESIAN_POINT('',(0.,0.,0.));
#13 = DIRECTION('',(0.,0.,1.));
#14 = DIRECTION('',(1.,0.,-0.));
#15 = MANIFOLD_SOLID_BREP('',#16);
#16 = CLOSED_SHELL('',(#17,#65,#96,#120,#408,#696,#713,#726,#748,#760,
    #782,#799,#816,#828,#845,#867,#884,#901,#913,#935,#952,#969,#981,
    #1003,#1020,#1037,#1049,#1071,#1088,#1105,#1117,#1139,#1156,#1173,
    #1185,#1207,#1219));
#17 = ADVANCED_FACE('',(#18),#60,.F.);
#18 = FACE_BOUND('',#19,.F.);
#19 = EDGE_LOOP('',(#20,#30,#38,#46,#54));
#20 = ORIENTED_EDGE('',*,*,#21,.T.);
#21 = EDGE_CURVE('',#22,#24,#26,.T.);
#22 = VERTEX_POINT('',#23);
#23 = CARTESIAN_POINT('',(-50.,-32.08880986429,-2.174577892002));
#24 = VERTEX_POINT('',#25);
#25 = CARTESIAN_POINT('',(-50.,-32.08890645688,-2.174552010097));
#26 = LINE('',#27,#28);
#27 = CARTESIAN_POINT('',(-50.,-32.08880986429,-2.174577892002));
#28 = VECTOR('',#29,1.);
#29 = DIRECTION('',(0.,-0.965925826289,0.258819045103));
#30 = ORIENTED_EDGE('',*,*,#31,.T.);
#31 = EDGE_CURVE('',#24,#32,#34,.T.);
#32 = VERTEX_POINT('',#33);
#33 = CARTESIAN_POINT('',(-50.,-35.0901853909,-1.784753934418));
#34 = LINE('',#35,#36);
#35 = CARTESIAN_POINT('',(-50.,-32.83917704239,-2.077108874387));
#36 = VECTOR('',#37,1.);
#37 = DIRECTION('',(0.,-0.991671162383,0.128795596578));
#38 = ORIENTED_EDGE('',*,*,#39,.T.);
#39 = EDGE_CURVE('',#32,#40,#42,.T.);
#40 = VERTEX_POINT('',#41);
#41 = CARTESIAN_POINT('',(-50.,-39.90414920011,-19.75071145618));
#42 = LINE('',#43,#44);
#43 = CARTESIAN_POINT('',(-50.,-34.98658734316,-1.398120756694));
#44 = VECTOR('',#45,1.);
#45 = DIRECTION('',(0.,-0.258819045103,-0.965925826289));
#46 = ORIENTED_EDGE('',*,*,#47,.F.);
#47 = EDGE_CURVE('',#48,#40,#50,.T.);
#48 = VERTEX_POINT('',#49);
#49 = CARTESIAN_POINT('',(-50.,-37.00637172124,-20.52716859149));
#50 = LINE('',#51,#52);
#51 = CARTESIAN_POINT('',(-50.,-37.00637172124,-20.52716859149));
#52 = VECTOR('',#53,1.);
#53 = DIRECTION('',(0.,-0.965925826289,0.258819045103));
#54 = ORIENTED_EDGE('',*,*,#55,.F.);
#55 = EDGE_CURVE('',#22,#48,#56,.T.);
#56 = LINE('',#57,#58);
#57 = CARTESIAN_POINT('',(-50.,-32.08880986429,-2.174577892002));
#58 = VECTOR('',#59,1.);
#59 = DIRECTION('',(0.,-0.258819045103,-0.965925826289));
#60 = PLANE('',#61);
#61 = AXIS2_PLACEMENT_3D('',#62,#63,#64);
#62 = CARTESIAN_POINT('',(-50.,-32.08880986429,-2.174577892002));
#63 = DIRECTION('',(1.,0.,0.));
#64 = DIRECTION('',(0.,-0.258819045103,-0.965925826289));
#65 = ADVANCED_FACE('',(#66),#91,.F.);
#66 = FACE_BOUND('',#67,.F.);
#67 = EDGE_LOOP('',(#68,#78,#84,#85));
#68 = ORIENTED_EDGE('',*,*,#69,.T.);
#69 = EDGE_CURVE('',#70,#72,#74,.T.);
#70 = VERTEX_POINT('',#71);
#71 = CARTESIAN_POINT('',(50.,-32.08880986429,-2.174577892002));
#72 = VERTEX_POINT('',#73);
#73 = CARTESIAN_POINT('',(50.,-32.08890645688,-2.174552010097));
#74 = LINE('',#75,#76);
#75 = CARTESIAN_POINT('',(50.,-32.08880986429,-2.174577892002));
#76 = VECTOR('',#77,1.);
#77 = DIRECTION('',(0.,-0.965925826289,0.258819045103));
#78 = ORIENTED_EDGE('',*,*,#79,.T.);
#79 = EDGE_CURVE('',#72,#24,#80,.T.);
#80 = LINE('',#81,#82);
#81 = CARTESIAN_POINT('',(50.,-32.08890645688,-2.174552010097));
#82 = VECTOR('',#83,1.);
#83 = DIRECTION('',(-1.,0.,0.));
#84 = ORIENTED_EDGE('',*,*,#21,.F.);
#85 = ORIENTED_EDGE('',*,*,#86,.F.);
#86 = EDGE_CURVE('',#70,#22,#87,.T.);
#87 = LINE('',#88,#89);
#88 = CARTESIAN_POINT('',(50.,-32.08880986429,-2.174577892002));
#89 = VECTOR('',#90,1.);
#90 = DIRECTION('',(-1.,0.,0.));
#91 = PLANE('',#92);
#92 = AXIS2_PLACEMENT_3D('',#93,#94,#95);
#93 = CARTESIAN_POINT('',(50.,-32.08880986429,-2.174577892002));
#94 = DIRECTION('',(0.,-0.258819045103,-0.965925826289));
#95 = DIRECTION('',(-1.,0.,0.));
#96 = ADVANCED_FACE('',(#97),#115,.F.);
#97 = FACE_BOUND('',#98,.T.);
#98 = EDGE_LOOP('',(#99,#107,#108,#109));
#99 = ORIENTED_EDGE('',*,*,#100,.F.);
#100 = EDGE_CURVE('',#72,#101,#103,.T.);
#101 = VERTEX_POINT('',#102);
#102 = CARTESIAN_POINT('',(50.,-35.0901853909,-1.784753934418));
#103 = LINE('',#104,#105);
#104 = CARTESIAN_POINT('',(50.,-34.08514810085,-1.915285487886));
#105 = VECTOR('',#106,1.);
#106 = DIRECTION('',(0.,-0.991671162383,0.128795596578));
#107 = ORIENTED_EDGE('',*,*,#79,.T.);
#108 = ORIENTED_EDGE('',*,*,#31,.T.);
#109 = ORIENTED_EDGE('',*,*,#110,.F.);
#110 = EDGE_CURVE('',#101,#32,#111,.T.);
#111 = LINE('',#112,#113);
#112 = CARTESIAN_POINT('',(50.,-35.0901853909,-1.784753934418));
#113 = VECTOR('',#114,1.);
#114 = DIRECTION('',(-1.,0.,0.));
#115 = PLANE('',#116);
#116 = AXIS2_PLACEMENT_3D('',#117,#118,#119);
#117 = CARTESIAN_POINT('',(50.,-33.58954592389,-1.979652972258));
#118 = DIRECTION('',(-1.E-17,-0.128795596578,-0.991671162383));
#119 = DIRECTION('',(1.,-2.599504448364E-18,-9.746371216987E-18));
#120 = ADVANCED_FACE('',(#121,#139,#158,#192,#203,#237,#271,#305,#339,
    #373,#392),#403,.F.);
#121 = FACE_BOUND('',#122,.F.);
#122 = EDGE_LOOP('',(#123,#124,#132,#138));
#123 = ORIENTED_EDGE('',*,*,#55,.T.);
#124 = ORIENTED_EDGE('',*,*,#125,.T.);
#125 = EDGE_CURVE('',#48,#126,#128,.T.);
#126 = VERTEX_POINT('',#127);
#127 = CARTESIAN_POINT('',(50.,-37.00637172124,-20.52716859149));
#128 = LINE('',#129,#130);
#129 = CARTESIAN_POINT('',(-50.,-37.00637172124,-20.52716859149));
#130 = VECTOR('',#131,1.);
#131 = DIRECTION('',(1.,0.,0.));
#132 = ORIENTED_EDGE('',*,*,#133,.T.);
#133 = EDGE_CURVE('',#126,#70,#134,.T.);
#134 = LINE('',#135,#136);
#135 = CARTESIAN_POINT('',(50.,-37.00637172124,-20.52716859149));
#136 = VECTOR('',#137,1.);
#137 = DIRECTION('',(0.,0.258819045103,0.965925826289));
#138 = ORIENTED_EDGE('',*,*,#86,.T.);
#139 = FACE_BOUND('',#140,.F.);
#140 = EDGE_LOOP('',(#141,#152));
#141 = ORIENTED_EDGE('',*,*,#142,.F.);
#142 = EDGE_CURVE('',#143,#145,#147,.T.);
#143 = VERTEX_POINT('',#144);
#144 = CARTESIAN_POINT('',(-29.,-33.1240860447,-6.038281197158));
#145 = VERTEX_POINT('',#146);
#146 = CARTESIAN_POINT('',(-29.,-35.97109554083,-16.66346528633));
#147 = CIRCLE('',#148,5.5);
#148 = AXIS2_PLACEMENT_3D('',#149,#150,#151);
#149 = CARTESIAN_POINT('',(-29.,-34.54759079277,-11.35087324174));
#150 = DIRECTION('',(0.,-0.965925826289,0.258819045103));
#151 = DIRECTION('',(1.,0.,0.));
#152 = ORIENTED_EDGE('',*,*,#153,.T.);
#153 = EDGE_CURVE('',#143,#145,#154,.T.);
#154 = LINE('',#155,#156);
#155 = CARTESIAN_POINT('',(-29.,-33.83583841874,-8.694577219453));
#156 = VECTOR('',#157,1.);
#157 = DIRECTION('',(0.,-0.258819045103,-0.965925826289));
#158 = FACE_BOUND('',#159,.F.);
#159 = EDGE_LOOP('',(#160,#170,#178,#186));
#160 = ORIENTED_EDGE('',*,*,#161,.F.);
#161 = EDGE_CURVE('',#162,#164,#166,.T.);
#162 = VERTEX_POINT('',#163);
#163 = CARTESIAN_POINT('',(-25.,-33.1240860447,-6.038281197158));
#164 = VERTEX_POINT('',#165);
#165 = CARTESIAN_POINT('',(-25.,-35.97109554083,-16.66346528633));
#166 = LINE('',#167,#168);
#167 = CARTESIAN_POINT('',(-25.,-33.83583841874,-8.694577219453));
#168 = VECTOR('',#169,1.);
#169 = DIRECTION('',(0.,-0.258819045103,-0.965925826289));
#170 = ORIENTED_EDGE('',*,*,#171,.F.);
#171 = EDGE_CURVE('',#172,#162,#174,.T.);
#172 = VERTEX_POINT('',#173);
#173 = CARTESIAN_POINT('',(-20.,-33.1240860447,-6.038281197158));
#174 = LINE('',#175,#176);
#175 = CARTESIAN_POINT('',(-10.,-33.1240860447,-6.038281197158));
#176 = VECTOR('',#177,1.);
#177 = DIRECTION('',(-1.,0.,0.));
#178 = ORIENTED_EDGE('',*,*,#179,.F.);
#179 = EDGE_CURVE('',#180,#172,#182,.T.);
#180 = VERTEX_POINT('',#181);
#181 = CARTESIAN_POINT('',(-20.,-35.97109554083,-16.66346528633));
#182 = LINE('',#183,#184);
#183 = CARTESIAN_POINT('',(-20.,-35.2593431668,-14.00716926404));
#184 = VECTOR('',#185,1.);
#185 = DIRECTION('',(0.,0.258819045103,0.965925826289));
#186 = ORIENTED_EDGE('',*,*,#187,.F.);
#187 = EDGE_CURVE('',#164,#180,#188,.T.);
#188 = LINE('',#189,#190);
#189 = CARTESIAN_POINT('',(-12.5,-35.97109554083,-16.66346528633));
#190 = VECTOR('',#191,1.);
#191 = DIRECTION('',(1.,0.,0.));
#192 = FACE_BOUND('',#193,.F.);
#193 = EDGE_LOOP('',(#194));
#194 = ORIENTED_EDGE('',*,*,#195,.F.);
#195 = EDGE_CURVE('',#196,#196,#198,.T.);
#196 = VERTEX_POINT('',#197);
#197 = CARTESIAN_POINT('',(-41.1,-34.15936222511,-9.901984502314));
#198 = CIRCLE('',#199,1.4);
#199 = AXIS2_PLACEMENT_3D('',#200,#201,#202);
#200 = CARTESIAN_POINT('',(-42.5,-34.15936222511,-9.901984502314));
#201 = DIRECTION('',(0.,-0.965925826289,0.258819045103));
#202 = DIRECTION('',(1.,0.,0.));
#203 = FACE_BOUND('',#204,.F.);
#204 = EDGE_LOOP('',(#205,#215,#223,#231));
#205 = ORIENTED_EDGE('',*,*,#206,.F.);
#206 = EDGE_CURVE('',#207,#209,#211,.T.);
#207 = VERTEX_POINT('',#208);
#208 = CARTESIAN_POINT('',(-16.,-33.1240860447,-6.038281197158));
#209 = VERTEX_POINT('',#210);
#210 = CARTESIAN_POINT('',(-16.,-35.97109554083,-16.66346528633));
#211 = LINE('',#212,#213);
#212 = CARTESIAN_POINT('',(-16.,-33.83583841874,-8.694577219453));
#213 = VECTOR('',#214,1.);
#214 = DIRECTION('',(0.,-0.258819045103,-0.965925826289));
#215 = ORIENTED_EDGE('',*,*,#216,.F.);
#216 = EDGE_CURVE('',#217,#207,#219,.T.);
#217 = VERTEX_POINT('',#218);
#218 = CARTESIAN_POINT('',(-11.,-33.1240860447,-6.038281197158));
#219 = LINE('',#220,#221);
#220 = CARTESIAN_POINT('',(-5.5,-33.1240860447,-6.038281197158));
#221 = VECTOR('',#222,1.);
#222 = DIRECTION('',(-1.,0.,0.));
#223 = ORIENTED_EDGE('',*,*,#224,.F.);
#224 = EDGE_CURVE('',#225,#217,#227,.T.);
#225 = VERTEX_POINT('',#226);
#226 = CARTESIAN_POINT('',(-11.,-35.97109554083,-16.66346528633));
#227 = LINE('',#228,#229);
#228 = CARTESIAN_POINT('',(-11.,-35.2593431668,-14.00716926404));
#229 = VECTOR('',#230,1.);
#230 = DIRECTION('',(0.,0.258819045103,0.965925826289));
#231 = ORIENTED_EDGE('',*,*,#232,.F.);
#232 = EDGE_CURVE('',#209,#225,#233,.T.);
#233 = LINE('',#234,#235);
#234 = CARTESIAN_POINT('',(-8.,-35.97109554083,-16.66346528633));
#235 = VECTOR('',#236,1.);
#236 = DIRECTION('',(1.,0.,0.));
#237 = FACE_BOUND('',#238,.F.);
#238 = EDGE_LOOP('',(#239,#249,#257,#265));
#239 = ORIENTED_EDGE('',*,*,#240,.F.);
#240 = EDGE_CURVE('',#241,#243,#245,.T.);
#241 = VERTEX_POINT('',#242);
#242 = CARTESIAN_POINT('',(-7.,-33.1240860447,-6.038281197158));
#243 = VERTEX_POINT('',#244);
#244 = CARTESIAN_POINT('',(-7.,-35.97109554083,-16.66346528633));
#245 = LINE('',#246,#247);
#246 = CARTESIAN_POINT('',(-7.,-33.83583841874,-8.694577219453));
#247 = VECTOR('',#248,1.);
#248 = DIRECTION('',(0.,-0.258819045103,-0.965925826289));
#249 = ORIENTED_EDGE('',*,*,#250,.F.);
#250 = EDGE_CURVE('',#251,#241,#253,.T.);
#251 = VERTEX_POINT('',#252);
#252 = CARTESIAN_POINT('',(-2.,-33.1240860447,-6.038281197158));
#253 = LINE('',#254,#255);
#254 = CARTESIAN_POINT('',(-1.,-33.1240860447,-6.038281197158));
#255 = VECTOR('',#256,1.);
#256 = DIRECTION('',(-1.,0.,0.));
#257 = ORIENTED_EDGE('',*,*,#258,.F.);
#258 = EDGE_CURVE('',#259,#251,#261,.T.);
#259 = VERTEX_POINT('',#260);
#260 = CARTESIAN_POINT('',(-2.,-35.97109554083,-16.66346528633));
#261 = LINE('',#262,#263);
#262 = CARTESIAN_POINT('',(-2.,-35.2593431668,-14.00716926404));
#263 = VECTOR('',#264,1.);
#264 = DIRECTION('',(0.,0.258819045103,0.965925826289));
#265 = ORIENTED_EDGE('',*,*,#266,.F.);
#266 = EDGE_CURVE('',#243,#259,#267,.T.);
#267 = LINE('',#268,#269);
#268 = CARTESIAN_POINT('',(-3.5,-35.97109554083,-16.66346528633));
#269 = VECTOR('',#270,1.);
#270 = DIRECTION('',(1.,0.,0.));
#271 = FACE_BOUND('',#272,.F.);
#272 = EDGE_LOOP('',(#273,#283,#291,#299));
#273 = ORIENTED_EDGE('',*,*,#274,.F.);
#274 = EDGE_CURVE('',#275,#277,#279,.T.);
#275 = VERTEX_POINT('',#276);
#276 = CARTESIAN_POINT('',(2.,-33.1240860447,-6.038281197158));
#277 = VERTEX_POINT('',#278);
#278 = CARTESIAN_POINT('',(2.,-35.97109554083,-16.66346528633));
#279 = LINE('',#280,#281);
#280 = CARTESIAN_POINT('',(2.,-33.83583841874,-8.694577219453));
#281 = VECTOR('',#282,1.);
#282 = DIRECTION('',(0.,-0.258819045103,-0.965925826289));
#283 = ORIENTED_EDGE('',*,*,#284,.F.);
#284 = EDGE_CURVE('',#285,#275,#287,.T.);
#285 = VERTEX_POINT('',#286);
#286 = CARTESIAN_POINT('',(7.,-33.1240860447,-6.038281197158));
#287 = LINE('',#288,#289);
#288 = CARTESIAN_POINT('',(3.5,-33.1240860447,-6.038281197158));
#289 = VECTOR('',#290,1.);
#290 = DIRECTION('',(-1.,0.,0.));
#291 = ORIENTED_EDGE('',*,*,#292,.F.);
#292 = EDGE_CURVE('',#293,#285,#295,.T.);
#293 = VERTEX_POINT('',#294);
#294 = CARTESIAN_POINT('',(7.,-35.97109554083,-16.66346528633));
#295 = LINE('',#296,#297);
#296 = CARTESIAN_POINT('',(7.,-35.2593431668,-14.00716926404));
#297 = VECTOR('',#298,1.);
#298 = DIRECTION('',(0.,0.258819045103,0.965925826289));
#299 = ORIENTED_EDGE('',*,*,#300,.F.);
#300 = EDGE_CURVE('',#277,#293,#301,.T.);
#301 = LINE('',#302,#303);
#302 = CARTESIAN_POINT('',(1.,-35.97109554083,-16.66346528633));
#303 = VECTOR('',#304,1.);
#304 = DIRECTION('',(1.,0.,0.));
#305 = FACE_BOUND('',#306,.F.);
#306 = EDGE_LOOP('',(#307,#317,#325,#333));
#307 = ORIENTED_EDGE('',*,*,#308,.F.);
#308 = EDGE_CURVE('',#309,#311,#313,.T.);
#309 = VERTEX_POINT('',#310);
#310 = CARTESIAN_POINT('',(11.,-33.1240860447,-6.038281197158));
#311 = VERTEX_POINT('',#312);
#312 = CARTESIAN_POINT('',(11.,-35.97109554083,-16.66346528633));
#313 = LINE('',#314,#315);
#314 = CARTESIAN_POINT('',(11.,-33.83583841874,-8.694577219453));
#315 = VECTOR('',#316,1.);
#316 = DIRECTION('',(0.,-0.258819045103,-0.965925826289));
#317 = ORIENTED_EDGE('',*,*,#318,.F.);
#318 = EDGE_CURVE('',#319,#309,#321,.T.);
#319 = VERTEX_POINT('',#320);
#320 = CARTESIAN_POINT('',(16.,-33.1240860447,-6.038281197158));
#321 = LINE('',#322,#323);
#322 = CARTESIAN_POINT('',(8.,-33.1240860447,-6.038281197158));
#323 = VECTOR('',#324,1.);
#324 = DIRECTION('',(-1.,0.,0.));
#325 = ORIENTED_EDGE('',*,*,#326,.F.);
#326 = EDGE_CURVE('',#327,#319,#329,.T.);
#327 = VERTEX_POINT('',#328);
#328 = CARTESIAN_POINT('',(16.,-35.97109554083,-16.66346528633));
#329 = LINE('',#330,#331);
#330 = CARTESIAN_POINT('',(16.,-35.2593431668,-14.00716926404));
#331 = VECTOR('',#332,1.);
#332 = DIRECTION('',(0.,0.258819045103,0.965925826289));
#333 = ORIENTED_EDGE('',*,*,#334,.F.);
#334 = EDGE_CURVE('',#311,#327,#335,.T.);
#335 = LINE('',#336,#337);
#336 = CARTESIAN_POINT('',(5.5,-35.97109554083,-16.66346528633));
#337 = VECTOR('',#338,1.);
#338 = DIRECTION('',(1.,0.,0.));
#339 = FACE_BOUND('',#340,.F.);
#340 = EDGE_LOOP('',(#341,#351,#359,#367));
#341 = ORIENTED_EDGE('',*,*,#342,.F.);
#342 = EDGE_CURVE('',#343,#345,#347,.T.);
#343 = VERTEX_POINT('',#344);
#344 = CARTESIAN_POINT('',(20.,-33.1240860447,-6.038281197158));
#345 = VERTEX_POINT('',#346);
#346 = CARTESIAN_POINT('',(20.,-35.97109554083,-16.66346528633));
#347 = LINE('',#348,#349);
#348 = CARTESIAN_POINT('',(20.,-33.83583841874,-8.694577219453));
#349 = VECTOR('',#350,1.);
#350 = DIRECTION('',(0.,-0.258819045103,-0.965925826289));
#351 = ORIENTED_EDGE('',*,*,#352,.F.);
#352 = EDGE_CURVE('',#353,#343,#355,.T.);
#353 = VERTEX_POINT('',#354);
#354 = CARTESIAN_POINT('',(25.,-33.1240860447,-6.038281197158));
#355 = LINE('',#356,#357);
#356 = CARTESIAN_POINT('',(12.5,-33.1240860447,-6.038281197158));
#357 = VECTOR('',#358,1.);
#358 = DIRECTION('',(-1.,0.,0.));
#359 = ORIENTED_EDGE('',*,*,#360,.F.);
#360 = EDGE_CURVE('',#361,#353,#363,.T.);
#361 = VERTEX_POINT('',#362);
#362 = CARTESIAN_POINT('',(25.,-35.97109554083,-16.66346528633));
#363 = LINE('',#364,#365);
#364 = CARTESIAN_POINT('',(25.,-35.2593431668,-14.00716926404));
#365 = VECTOR('',#366,1.);
#366 = DIRECTION('',(0.,0.258819045103,0.965925826289));
#367 = ORIENTED_EDGE('',*,*,#368,.F.);
#368 = EDGE_CURVE('',#345,#361,#369,.T.);
#369 = LINE('',#370,#371);
#370 = CARTESIAN_POINT('',(10.,-35.97109554083,-16.66346528633));
#371 = VECTOR('',#372,1.);
#372 = DIRECTION('',(1.,0.,0.));
#373 = FACE_BOUND('',#374,.F.);
#374 = EDGE_LOOP('',(#375,#385));
#375 = ORIENTED_EDGE('',*,*,#376,.F.);
#376 = EDGE_CURVE('',#377,#379,#381,.T.);
#377 = VERTEX_POINT('',#378);
#378 = CARTESIAN_POINT('',(29.,-33.1240860447,-6.038281197158));
#379 = VERTEX_POINT('',#380);
#380 = CARTESIAN_POINT('',(29.,-35.97109554083,-16.66346528633));
#381 = LINE('',#382,#383);
#382 = CARTESIAN_POINT('',(29.,-33.83583841874,-8.694577219453));
#383 = VECTOR('',#384,1.);
#384 = DIRECTION('',(0.,-0.258819045103,-0.965925826289));
#385 = ORIENTED_EDGE('',*,*,#386,.F.);
#386 = EDGE_CURVE('',#379,#377,#387,.T.);
#387 = CIRCLE('',#388,5.5);
#388 = AXIS2_PLACEMENT_3D('',#389,#390,#391);
#389 = CARTESIAN_POINT('',(29.,-34.54759079277,-11.35087324174));
#390 = DIRECTION('',(0.,-0.965925826289,0.258819045103));
#391 = DIRECTION('',(1.,0.,0.));
#392 = FACE_BOUND('',#393,.F.);
#393 = EDGE_LOOP('',(#394));
#394 = ORIENTED_EDGE('',*,*,#395,.F.);
#395 = EDGE_CURVE('',#396,#396,#398,.T.);
#396 = VERTEX_POINT('',#397);
#397 = CARTESIAN_POINT('',(43.9,-34.15936222511,-9.901984502314));
#398 = CIRCLE('',#399,1.4);
#399 = AXIS2_PLACEMENT_3D('',#400,#401,#402);
#400 = CARTESIAN_POINT('',(42.5,-34.15936222511,-9.901984502314));
#401 = DIRECTION('',(0.,-0.965925826289,0.258819045103));
#402 = DIRECTION('',(1.,0.,0.));
#403 = PLANE('',#404);
#404 = AXIS2_PLACEMENT_3D('',#405,#406,#407);
#405 = CARTESIAN_POINT('',(0.,-34.54759079277,-11.35087324174));
#406 = DIRECTION('',(0.,-0.965925826289,0.258819045103));
#407 = DIRECTION('',(1.,0.,0.));
#408 = ADVANCED_FACE('',(#409,#427,#446,#480,#491,#525,#559,#593,#627,
    #661,#680),#691,.T.);
#409 = FACE_BOUND('',#410,.T.);
#410 = EDGE_LOOP('',(#411,#412,#420,#426));
#411 = ORIENTED_EDGE('',*,*,#39,.T.);
#412 = ORIENTED_EDGE('',*,*,#413,.T.);
#413 = EDGE_CURVE('',#40,#414,#416,.T.);
#414 = VERTEX_POINT('',#415);
#415 = CARTESIAN_POINT('',(50.,-39.90414920011,-19.75071145618));
#416 = LINE('',#417,#418);
#417 = CARTESIAN_POINT('',(-50.,-39.90414920011,-19.75071145618));
#418 = VECTOR('',#419,1.);
#419 = DIRECTION('',(1.,0.,0.));
#420 = ORIENTED_EDGE('',*,*,#421,.T.);
#421 = EDGE_CURVE('',#414,#101,#422,.T.);
#422 = LINE('',#423,#424);
#423 = CARTESIAN_POINT('',(50.,-39.90414920011,-19.75071145618));
#424 = VECTOR('',#425,1.);
#425 = DIRECTION('',(0.,0.258819045103,0.965925826289));
#426 = ORIENTED_EDGE('',*,*,#110,.T.);
#427 = FACE_BOUND('',#428,.T.);
#428 = EDGE_LOOP('',(#429,#440));
#429 = ORIENTED_EDGE('',*,*,#430,.F.);
#430 = EDGE_CURVE('',#431,#433,#435,.T.);
#431 = VERTEX_POINT('',#432);
#432 = CARTESIAN_POINT('',(-29.,-36.02186352357,-5.26182406185));
#433 = VERTEX_POINT('',#434);
#434 = CARTESIAN_POINT('',(-29.,-38.8688730197,-15.88700815103));
#435 = CIRCLE('',#436,5.5);
#436 = AXIS2_PLACEMENT_3D('',#437,#438,#439);
#437 = CARTESIAN_POINT('',(-29.,-37.44536827164,-10.57441610644));
#438 = DIRECTION('',(0.,-0.965925826289,0.258819045103));
#439 = DIRECTION('',(1.,0.,0.));
#440 = ORIENTED_EDGE('',*,*,#441,.T.);
#441 = EDGE_CURVE('',#431,#433,#442,.T.);
#442 = LINE('',#443,#444);
#443 = CARTESIAN_POINT('',(-29.,-36.02186352357,-5.26182406185));
#444 = VECTOR('',#445,1.);
#445 = DIRECTION('',(0.,-0.258819045103,-0.965925826289));
#446 = FACE_BOUND('',#447,.T.);
#447 = EDGE_LOOP('',(#448,#458,#466,#474));
#448 = ORIENTED_EDGE('',*,*,#449,.F.);
#449 = EDGE_CURVE('',#450,#452,#454,.T.);
#450 = VERTEX_POINT('',#451);
#451 = CARTESIAN_POINT('',(-25.,-36.02186352357,-5.26182406185));
#452 = VERTEX_POINT('',#453);
#453 = CARTESIAN_POINT('',(-25.,-38.8688730197,-15.88700815103));
#454 = LINE('',#455,#456);
#455 = CARTESIAN_POINT('',(-25.,-36.02186352357,-5.26182406185));
#456 = VECTOR('',#457,1.);
#457 = DIRECTION('',(0.,-0.258819045103,-0.965925826289));
#458 = ORIENTED_EDGE('',*,*,#459,.F.);
#459 = EDGE_CURVE('',#460,#450,#462,.T.);
#460 = VERTEX_POINT('',#461);
#461 = CARTESIAN_POINT('',(-20.,-36.02186352357,-5.26182406185));
#462 = LINE('',#463,#464);
#463 = CARTESIAN_POINT('',(-20.,-36.02186352357,-5.26182406185));
#464 = VECTOR('',#465,1.);
#465 = DIRECTION('',(-1.,0.,0.));
#466 = ORIENTED_EDGE('',*,*,#467,.F.);
#467 = EDGE_CURVE('',#468,#460,#470,.T.);
#468 = VERTEX_POINT('',#469);
#469 = CARTESIAN_POINT('',(-20.,-38.8688730197,-15.88700815103));
#470 = LINE('',#471,#472);
#471 = CARTESIAN_POINT('',(-20.,-38.8688730197,-15.88700815103));
#472 = VECTOR('',#473,1.);
#473 = DIRECTION('',(0.,0.258819045103,0.965925826289));
#474 = ORIENTED_EDGE('',*,*,#475,.F.);
#475 = EDGE_CURVE('',#452,#468,#476,.T.);
#476 = LINE('',#477,#478);
#477 = CARTESIAN_POINT('',(-25.,-38.8688730197,-15.88700815103));
#478 = VECTOR('',#479,1.);
#479 = DIRECTION('',(1.,0.,0.));
#480 = FACE_BOUND('',#481,.T.);
#481 = EDGE_LOOP('',(#482));
#482 = ORIENTED_EDGE('',*,*,#483,.F.);
#483 = EDGE_CURVE('',#484,#484,#486,.T.);
#484 = VERTEX_POINT('',#485);
#485 = CARTESIAN_POINT('',(-41.1,-37.05713970398,-9.125527367007));
#486 = CIRCLE('',#487,1.4);
#487 = AXIS2_PLACEMENT_3D('',#488,#489,#490);
#488 = CARTESIAN_POINT('',(-42.5,-37.05713970398,-9.125527367007));
#489 = DIRECTION('',(0.,-0.965925826289,0.258819045103));
#490 = DIRECTION('',(1.,0.,0.));
#491 = FACE_BOUND('',#492,.T.);
#492 = EDGE_LOOP('',(#493,#503,#511,#519));
#493 = ORIENTED_EDGE('',*,*,#494,.F.);
#494 = EDGE_CURVE('',#495,#497,#499,.T.);
#495 = VERTEX_POINT('',#496);
#496 = CARTESIAN_POINT('',(-16.,-36.02186352357,-5.26182406185));
#497 = VERTEX_POINT('',#498);
#498 = CARTESIAN_POINT('',(-16.,-38.8688730197,-15.88700815103));
#499 = LINE('',#500,#501);
#500 = CARTESIAN_POINT('',(-16.,-36.02186352357,-5.26182406185));
#501 = VECTOR('',#502,1.);
#502 = DIRECTION('',(0.,-0.258819045103,-0.965925826289));
#503 = ORIENTED_EDGE('',*,*,#504,.F.);
#504 = EDGE_CURVE('',#505,#495,#507,.T.);
#505 = VERTEX_POINT('',#506);
#506 = CARTESIAN_POINT('',(-11.,-36.02186352357,-5.26182406185));
#507 = LINE('',#508,#509);
#508 = CARTESIAN_POINT('',(-11.,-36.02186352357,-5.26182406185));
#509 = VECTOR('',#510,1.);
#510 = DIRECTION('',(-1.,0.,0.));
#511 = ORIENTED_EDGE('',*,*,#512,.F.);
#512 = EDGE_CURVE('',#513,#505,#515,.T.);
#513 = VERTEX_POINT('',#514);
#514 = CARTESIAN_POINT('',(-11.,-38.8688730197,-15.88700815103));
#515 = LINE('',#516,#517);
#516 = CARTESIAN_POINT('',(-11.,-38.8688730197,-15.88700815103));
#517 = VECTOR('',#518,1.);
#518 = DIRECTION('',(0.,0.258819045103,0.965925826289));
#519 = ORIENTED_EDGE('',*,*,#520,.F.);
#520 = EDGE_CURVE('',#497,#513,#521,.T.);
#521 = LINE('',#522,#523);
#522 = CARTESIAN_POINT('',(-16.,-38.8688730197,-15.88700815103));
#523 = VECTOR('',#524,1.);
#524 = DIRECTION('',(1.,0.,0.));
#525 = FACE_BOUND('',#526,.T.);
#526 = EDGE_LOOP('',(#527,#537,#545,#553));
#527 = ORIENTED_EDGE('',*,*,#528,.F.);
#528 = EDGE_CURVE('',#529,#531,#533,.T.);
#529 = VERTEX_POINT('',#530);
#530 = CARTESIAN_POINT('',(-7.,-36.02186352357,-5.26182406185));
#531 = VERTEX_POINT('',#532);
#532 = CARTESIAN_POINT('',(-7.,-38.8688730197,-15.88700815103));
#533 = LINE('',#534,#535);
#534 = CARTESIAN_POINT('',(-7.,-36.02186352357,-5.26182406185));
#535 = VECTOR('',#536,1.);
#536 = DIRECTION('',(0.,-0.258819045103,-0.965925826289));
#537 = ORIENTED_EDGE('',*,*,#538,.F.);
#538 = EDGE_CURVE('',#539,#529,#541,.T.);
#539 = VERTEX_POINT('',#540);
#540 = CARTESIAN_POINT('',(-2.,-36.02186352357,-5.26182406185));
#541 = LINE('',#542,#543);
#542 = CARTESIAN_POINT('',(-2.,-36.02186352357,-5.26182406185));
#543 = VECTOR('',#544,1.);
#544 = DIRECTION('',(-1.,0.,0.));
#545 = ORIENTED_EDGE('',*,*,#546,.F.);
#546 = EDGE_CURVE('',#547,#539,#549,.T.);
#547 = VERTEX_POINT('',#548);
#548 = CARTESIAN_POINT('',(-2.,-38.8688730197,-15.88700815103));
#549 = LINE('',#550,#551);
#550 = CARTESIAN_POINT('',(-2.,-38.8688730197,-15.88700815103));
#551 = VECTOR('',#552,1.);
#552 = DIRECTION('',(0.,0.258819045103,0.965925826289));
#553 = ORIENTED_EDGE('',*,*,#554,.F.);
#554 = EDGE_CURVE('',#531,#547,#555,.T.);
#555 = LINE('',#556,#557);
#556 = CARTESIAN_POINT('',(-7.,-38.8688730197,-15.88700815103));
#557 = VECTOR('',#558,1.);
#558 = DIRECTION('',(1.,0.,0.));
#559 = FACE_BOUND('',#560,.T.);
#560 = EDGE_LOOP('',(#561,#571,#579,#587));
#561 = ORIENTED_EDGE('',*,*,#562,.F.);
#562 = EDGE_CURVE('',#563,#565,#567,.T.);
#563 = VERTEX_POINT('',#564);
#564 = CARTESIAN_POINT('',(2.,-36.02186352357,-5.26182406185));
#565 = VERTEX_POINT('',#566);
#566 = CARTESIAN_POINT('',(2.,-38.8688730197,-15.88700815103));
#567 = LINE('',#568,#569);
#568 = CARTESIAN_POINT('',(2.,-36.02186352357,-5.26182406185));
#569 = VECTOR('',#570,1.);
#570 = DIRECTION('',(0.,-0.258819045103,-0.965925826289));
#571 = ORIENTED_EDGE('',*,*,#572,.F.);
#572 = EDGE_CURVE('',#573,#563,#575,.T.);
#573 = VERTEX_POINT('',#574);
#574 = CARTESIAN_POINT('',(7.,-36.02186352357,-5.26182406185));
#575 = LINE('',#576,#577);
#576 = CARTESIAN_POINT('',(7.,-36.02186352357,-5.26182406185));
#577 = VECTOR('',#578,1.);
#578 = DIRECTION('',(-1.,0.,0.));
#579 = ORIENTED_EDGE('',*,*,#580,.F.);
#580 = EDGE_CURVE('',#581,#573,#583,.T.);
#581 = VERTEX_POINT('',#582);
#582 = CARTESIAN_POINT('',(7.,-38.8688730197,-15.88700815103));
#583 = LINE('',#584,#585);
#584 = CARTESIAN_POINT('',(7.,-38.8688730197,-15.88700815103));
#585 = VECTOR('',#586,1.);
#586 = DIRECTION('',(0.,0.258819045103,0.965925826289));
#587 = ORIENTED_EDGE('',*,*,#588,.F.);
#588 = EDGE_CURVE('',#565,#581,#589,.T.);
#589 = LINE('',#590,#591);
#590 = CARTESIAN_POINT('',(2.,-38.8688730197,-15.88700815103));
#591 = VECTOR('',#592,1.);
#592 = DIRECTION('',(1.,0.,0.));
#593 = FACE_BOUND('',#594,.T.);
#594 = EDGE_LOOP('',(#595,#605,#613,#621));
#595 = ORIENTED_EDGE('',*,*,#596,.F.);
#596 = EDGE_CURVE('',#597,#599,#601,.T.);
#597 = VERTEX_POINT('',#598);
#598 = CARTESIAN_POINT('',(11.,-36.02186352357,-5.26182406185));
#599 = VERTEX_POINT('',#600);
#600 = CARTESIAN_POINT('',(11.,-38.8688730197,-15.88700815103));
#601 = LINE('',#602,#603);
#602 = CARTESIAN_POINT('',(11.,-36.02186352357,-5.26182406185));
#603 = VECTOR('',#604,1.);
#604 = DIRECTION('',(0.,-0.258819045103,-0.965925826289));
#605 = ORIENTED_EDGE('',*,*,#606,.F.);
#606 = EDGE_CURVE('',#607,#597,#609,.T.);
#607 = VERTEX_POINT('',#608);
#608 = CARTESIAN_POINT('',(16.,-36.02186352357,-5.26182406185));
#609 = LINE('',#610,#611);
#610 = CARTESIAN_POINT('',(16.,-36.02186352357,-5.26182406185));
#611 = VECTOR('',#612,1.);
#612 = DIRECTION('',(-1.,0.,0.));
#613 = ORIENTED_EDGE('',*,*,#614,.F.);
#614 = EDGE_CURVE('',#615,#607,#617,.T.);
#615 = VERTEX_POINT('',#616);
#616 = CARTESIAN_POINT('',(16.,-38.8688730197,-15.88700815103));
#617 = LINE('',#618,#619);
#618 = CARTESIAN_POINT('',(16.,-38.8688730197,-15.88700815103));
#619 = VECTOR('',#620,1.);
#620 = DIRECTION('',(0.,0.258819045103,0.965925826289));
#621 = ORIENTED_EDGE('',*,*,#622,.F.);
#622 = EDGE_CURVE('',#599,#615,#623,.T.);
#623 = LINE('',#624,#625);
#624 = CARTESIAN_POINT('',(11.,-38.8688730197,-15.88700815103));
#625 = VECTOR('',#626,1.);
#626 = DIRECTION('',(1.,0.,0.));
#627 = FACE_BOUND('',#628,.T.);
#628 = EDGE_LOOP('',(#629,#639,#647,#655));
#629 = ORIENTED_EDGE('',*,*,#630,.F.);
#630 = EDGE_CURVE('',#631,#633,#635,.T.);
#631 = VERTEX_POINT('',#632);
#632 = CARTESIAN_POINT('',(20.,-36.02186352357,-5.26182406185));
#633 = VERTEX_POINT('',#634);
#634 = CARTESIAN_POINT('',(20.,-38.8688730197,-15.88700815103));
#635 = LINE('',#636,#637);
#636 = CARTESIAN_POINT('',(20.,-36.02186352357,-5.26182406185));
#637 = VECTOR('',#638,1.);
#638 = DIRECTION('',(0.,-0.258819045103,-0.965925826289));
#639 = ORIENTED_EDGE('',*,*,#640,.F.);
#640 = EDGE_CURVE('',#641,#631,#643,.T.);
#641 = VERTEX_POINT('',#642);
#642 = CARTESIAN_POINT('',(25.,-36.02186352357,-5.26182406185));
#643 = LINE('',#644,#645);
#644 = CARTESIAN_POINT('',(25.,-36.02186352357,-5.26182406185));
#645 = VECTOR('',#646,1.);
#646 = DIRECTION('',(-1.,0.,0.));
#647 = ORIENTED_EDGE('',*,*,#648,.F.);
#648 = EDGE_CURVE('',#649,#641,#651,.T.);
#649 = VERTEX_POINT('',#650);
#650 = CARTESIAN_POINT('',(25.,-38.8688730197,-15.88700815103));
#651 = LINE('',#652,#653);
#652 = CARTESIAN_POINT('',(25.,-38.8688730197,-15.88700815103));
#653 = VECTOR('',#654,1.);
#654 = DIRECTION('',(0.,0.258819045103,0.965925826289));
#655 = ORIENTED_EDGE('',*,*,#656,.F.);
#656 = EDGE_CURVE('',#633,#649,#657,.T.);
#657 = LINE('',#658,#659);
#658 = CARTESIAN_POINT('',(20.,-38.8688730197,-15.88700815103));
#659 = VECTOR('',#660,1.);
#660 = DIRECTION('',(1.,0.,0.));
#661 = FACE_BOUND('',#662,.T.);
#662 = EDGE_LOOP('',(#663,#673));
#663 = ORIENTED_EDGE('',*,*,#664,.F.);
#664 = EDGE_CURVE('',#665,#667,#669,.T.);
#665 = VERTEX_POINT('',#666);
#666 = CARTESIAN_POINT('',(29.,-36.02186352357,-5.26182406185));
#667 = VERTEX_POINT('',#668);
#668 = CARTESIAN_POINT('',(29.,-38.8688730197,-15.88700815103));
#669 = LINE('',#670,#671);
#670 = CARTESIAN_POINT('',(29.,-36.02186352357,-5.26182406185));
#671 = VECTOR('',#672,1.);
#672 = DIRECTION('',(0.,-0.258819045103,-0.965925826289));
#673 = ORIENTED_EDGE('',*,*,#674,.F.);
#674 = EDGE_CURVE('',#667,#665,#675,.T.);
#675 = CIRCLE('',#676,5.5);
#676 = AXIS2_PLACEMENT_3D('',#677,#678,#679);
#677 = CARTESIAN_POINT('',(29.,-37.44536827164,-10.57441610644));
#678 = DIRECTION('',(0.,-0.965925826289,0.258819045103));
#679 = DIRECTION('',(1.,0.,0.));
#680 = FACE_BOUND('',#681,.T.);
#681 = EDGE_LOOP('',(#682));
#682 = ORIENTED_EDGE('',*,*,#683,.F.);
#683 = EDGE_CURVE('',#684,#684,#686,.T.);
#684 = VERTEX_POINT('',#685);
#685 = CARTESIAN_POINT('',(43.9,-37.05713970398,-9.125527367007));
#686 = CIRCLE('',#687,1.4);
#687 = AXIS2_PLACEMENT_3D('',#688,#689,#690);
#688 = CARTESIAN_POINT('',(42.5,-37.05713970398,-9.125527367007));
#689 = DIRECTION('',(0.,-0.965925826289,0.258819045103));
#690 = DIRECTION('',(1.,0.,0.));
#691 = PLANE('',#692);
#692 = AXIS2_PLACEMENT_3D('',#693,#694,#695);
#693 = CARTESIAN_POINT('',(0.,-37.44536827164,-10.57441610644));
#694 = DIRECTION('',(0.,-0.965925826289,0.258819045103));
#695 = DIRECTION('',(1.,0.,0.));
#696 = ADVANCED_FACE('',(#697),#708,.F.);
#697 = FACE_BOUND('',#698,.F.);
#698 = EDGE_LOOP('',(#699,#700,#701,#707));
#699 = ORIENTED_EDGE('',*,*,#47,.T.);
#700 = ORIENTED_EDGE('',*,*,#413,.T.);
#701 = ORIENTED_EDGE('',*,*,#702,.F.);
#702 = EDGE_CURVE('',#126,#414,#703,.T.);
#703 = LINE('',#704,#705);
#704 = CARTESIAN_POINT('',(50.,-37.00637172124,-20.52716859149));
#705 = VECTOR('',#706,1.);
#706 = DIRECTION('',(0.,-0.965925826289,0.258819045103));
#707 = ORIENTED_EDGE('',*,*,#125,.F.);
#708 = PLANE('',#709);
#709 = AXIS2_PLACEMENT_3D('',#710,#711,#712);
#710 = CARTESIAN_POINT('',(-50.,-37.00637172124,-20.52716859149));
#711 = DIRECTION('',(0.,0.258819045103,0.965925826289));
#712 = DIRECTION('',(1.,0.,0.));
#713 = ADVANCED_FACE('',(#714),#721,.F.);
#714 = FACE_BOUND('',#715,.F.);
#715 = EDGE_LOOP('',(#716,#717,#718,#719,#720));
#716 = ORIENTED_EDGE('',*,*,#69,.F.);
#717 = ORIENTED_EDGE('',*,*,#133,.F.);
#718 = ORIENTED_EDGE('',*,*,#702,.T.);
#719 = ORIENTED_EDGE('',*,*,#421,.T.);
#720 = ORIENTED_EDGE('',*,*,#100,.F.);
#721 = PLANE('',#722);
#722 = AXIS2_PLACEMENT_3D('',#723,#724,#725);
#723 = CARTESIAN_POINT('',(50.,-37.00637172124,-20.52716859149));
#724 = DIRECTION('',(-1.,0.,0.));
#725 = DIRECTION('',(0.,0.258819045103,0.965925826289));
#726 = ADVANCED_FACE('',(#727),#743,.F.);
#727 = FACE_BOUND('',#728,.F.);
#728 = EDGE_LOOP('',(#729,#730,#736,#737));
#729 = ORIENTED_EDGE('',*,*,#430,.F.);
#730 = ORIENTED_EDGE('',*,*,#731,.T.);
#731 = EDGE_CURVE('',#431,#143,#732,.T.);
#732 = LINE('',#733,#734);
#733 = CARTESIAN_POINT('',(-29.,-36.02186352357,-5.26182406185));
#734 = VECTOR('',#735,1.);
#735 = DIRECTION('',(-0.,0.965925826289,-0.258819045103));
#736 = ORIENTED_EDGE('',*,*,#142,.T.);
#737 = ORIENTED_EDGE('',*,*,#738,.F.);
#738 = EDGE_CURVE('',#433,#145,#739,.T.);
#739 = LINE('',#740,#741);
#740 = CARTESIAN_POINT('',(-29.,-38.8688730197,-15.88700815103));
#741 = VECTOR('',#742,1.);
#742 = DIRECTION('',(-0.,0.965925826289,-0.258819045103));
#743 = CYLINDRICAL_SURFACE('',#744,5.5);
#744 = AXIS2_PLACEMENT_3D('',#745,#746,#747);
#745 = CARTESIAN_POINT('',(-29.,-37.44536827164,-10.57441610644));
#746 = DIRECTION('',(0.,-0.965925826289,0.258819045103));
#747 = DIRECTION('',(1.,0.,0.));
#748 = ADVANCED_FACE('',(#749),#755,.T.);
#749 = FACE_BOUND('',#750,.T.);
#750 = EDGE_LOOP('',(#751,#752,#753,#754));
#751 = ORIENTED_EDGE('',*,*,#441,.F.);
#752 = ORIENTED_EDGE('',*,*,#731,.T.);
#753 = ORIENTED_EDGE('',*,*,#153,.T.);
#754 = ORIENTED_EDGE('',*,*,#738,.F.);
#755 = PLANE('',#756);
#756 = AXIS2_PLACEMENT_3D('',#757,#758,#759);
#757 = CARTESIAN_POINT('',(-29.,-36.02186352357,-5.26182406185));
#758 = DIRECTION('',(-1.,0.,0.));
#759 = DIRECTION('',(0.,-0.258819045103,-0.965925826289));
#760 = ADVANCED_FACE('',(#761),#777,.F.);
#761 = FACE_BOUND('',#762,.F.);
#762 = EDGE_LOOP('',(#763,#764,#770,#771));
#763 = ORIENTED_EDGE('',*,*,#449,.F.);
#764 = ORIENTED_EDGE('',*,*,#765,.T.);
#765 = EDGE_CURVE('',#450,#162,#766,.T.);
#766 = LINE('',#767,#768);
#767 = CARTESIAN_POINT('',(-25.,-36.02186352357,-5.26182406185));
#768 = VECTOR('',#769,1.);
#769 = DIRECTION('',(-0.,0.965925826289,-0.258819045103));
#770 = ORIENTED_EDGE('',*,*,#161,.T.);
#771 = ORIENTED_EDGE('',*,*,#772,.F.);
#772 = EDGE_CURVE('',#452,#164,#773,.T.);
#773 = LINE('',#774,#775);
#774 = CARTESIAN_POINT('',(-25.,-38.8688730197,-15.88700815103));
#775 = VECTOR('',#776,1.);
#776 = DIRECTION('',(-0.,0.965925826289,-0.258819045103));
#777 = PLANE('',#778);
#778 = AXIS2_PLACEMENT_3D('',#779,#780,#781);
#779 = CARTESIAN_POINT('',(-25.,-36.02186352357,-5.26182406185));
#780 = DIRECTION('',(-1.,0.,0.));
#781 = DIRECTION('',(0.,-0.258819045103,-0.965925826289));
#782 = ADVANCED_FACE('',(#783),#794,.F.);
#783 = FACE_BOUND('',#784,.F.);
#784 = EDGE_LOOP('',(#785,#786,#787,#788));
#785 = ORIENTED_EDGE('',*,*,#475,.F.);
#786 = ORIENTED_EDGE('',*,*,#772,.T.);
#787 = ORIENTED_EDGE('',*,*,#187,.T.);
#788 = ORIENTED_EDGE('',*,*,#789,.F.);
#789 = EDGE_CURVE('',#468,#180,#790,.T.);
#790 = LINE('',#791,#792);
#791 = CARTESIAN_POINT('',(-20.,-38.8688730197,-15.88700815103));
#792 = VECTOR('',#793,1.);
#793 = DIRECTION('',(-0.,0.965925826289,-0.258819045103));
#794 = PLANE('',#795);
#795 = AXIS2_PLACEMENT_3D('',#796,#797,#798);
#796 = CARTESIAN_POINT('',(-25.,-38.8688730197,-15.88700815103));
#797 = DIRECTION('',(0.,-0.258819045103,-0.965925826289));
#798 = DIRECTION('',(1.,0.,0.));
#799 = ADVANCED_FACE('',(#800),#811,.F.);
#800 = FACE_BOUND('',#801,.F.);
#801 = EDGE_LOOP('',(#802,#803,#804,#805));
#802 = ORIENTED_EDGE('',*,*,#467,.F.);
#803 = ORIENTED_EDGE('',*,*,#789,.T.);
#804 = ORIENTED_EDGE('',*,*,#179,.T.);
#805 = ORIENTED_EDGE('',*,*,#806,.F.);
#806 = EDGE_CURVE('',#460,#172,#807,.T.);
#807 = LINE('',#808,#809);
#808 = CARTESIAN_POINT('',(-20.,-36.02186352357,-5.26182406185));
#809 = VECTOR('',#810,1.);
#810 = DIRECTION('',(-0.,0.965925826289,-0.258819045103));
#811 = PLANE('',#812);
#812 = AXIS2_PLACEMENT_3D('',#813,#814,#815);
#813 = CARTESIAN_POINT('',(-20.,-38.8688730197,-15.88700815103));
#814 = DIRECTION('',(1.,0.,0.));
#815 = DIRECTION('',(0.,0.258819045103,0.965925826289));
#816 = ADVANCED_FACE('',(#817),#823,.F.);
#817 = FACE_BOUND('',#818,.F.);
#818 = EDGE_LOOP('',(#819,#820,#821,#822));
#819 = ORIENTED_EDGE('',*,*,#459,.F.);
#820 = ORIENTED_EDGE('',*,*,#806,.T.);
#821 = ORIENTED_EDGE('',*,*,#171,.T.);
#822 = ORIENTED_EDGE('',*,*,#765,.F.);
#823 = PLANE('',#824);
#824 = AXIS2_PLACEMENT_3D('',#825,#826,#827);
#825 = CARTESIAN_POINT('',(-20.,-36.02186352357,-5.26182406185));
#826 = DIRECTION('',(0.,0.258819045103,0.965925826289));
#827 = DIRECTION('',(-1.,0.,0.));
#828 = ADVANCED_FACE('',(#829),#840,.F.);
#829 = FACE_BOUND('',#830,.F.);
#830 = EDGE_LOOP('',(#831,#832,#838,#839));
#831 = ORIENTED_EDGE('',*,*,#483,.F.);
#832 = ORIENTED_EDGE('',*,*,#833,.T.);
#833 = EDGE_CURVE('',#484,#196,#834,.T.);
#834 = LINE('',#835,#836);
#835 = CARTESIAN_POINT('',(-41.1,-37.05713970398,-9.125527367007));
#836 = VECTOR('',#837,1.);
#837 = DIRECTION('',(0.,0.965925826289,-0.258819045103));
#838 = ORIENTED_EDGE('',*,*,#195,.T.);
#839 = ORIENTED_EDGE('',*,*,#833,.F.);
#840 = CYLINDRICAL_SURFACE('',#841,1.4);
#841 = AXIS2_PLACEMENT_3D('',#842,#843,#844);
#842 = CARTESIAN_POINT('',(-42.5,-37.05713970398,-9.125527367007));
#843 = DIRECTION('',(0.,-0.965925826289,0.258819045103));
#844 = DIRECTION('',(1.,0.,0.));
#845 = ADVANCED_FACE('',(#846),#862,.F.);
#846 = FACE_BOUND('',#847,.F.);
#847 = EDGE_LOOP('',(#848,#849,#855,#856));
#848 = ORIENTED_EDGE('',*,*,#494,.F.);
#849 = ORIENTED_EDGE('',*,*,#850,.T.);
#850 = EDGE_CURVE('',#495,#207,#851,.T.);
#851 = LINE('',#852,#853);
#852 = CARTESIAN_POINT('',(-16.,-36.02186352357,-5.26182406185));
#853 = VECTOR('',#854,1.);
#854 = DIRECTION('',(-0.,0.965925826289,-0.258819045103));
#855 = ORIENTED_EDGE('',*,*,#206,.T.);
#856 = ORIENTED_EDGE('',*,*,#857,.F.);
#857 = EDGE_CURVE('',#497,#209,#858,.T.);
#858 = LINE('',#859,#860);
#859 = CARTESIAN_POINT('',(-16.,-38.8688730197,-15.88700815103));
#860 = VECTOR('',#861,1.);
#861 = DIRECTION('',(-0.,0.965925826289,-0.258819045103));
#862 = PLANE('',#863);
#863 = AXIS2_PLACEMENT_3D('',#864,#865,#866);
#864 = CARTESIAN_POINT('',(-16.,-36.02186352357,-5.26182406185));
#865 = DIRECTION('',(-1.,0.,0.));
#866 = DIRECTION('',(0.,-0.258819045103,-0.965925826289));
#867 = ADVANCED_FACE('',(#868),#879,.F.);
#868 = FACE_BOUND('',#869,.F.);
#869 = EDGE_LOOP('',(#870,#871,#872,#873));
#870 = ORIENTED_EDGE('',*,*,#520,.F.);
#871 = ORIENTED_EDGE('',*,*,#857,.T.);
#872 = ORIENTED_EDGE('',*,*,#232,.T.);
#873 = ORIENTED_EDGE('',*,*,#874,.F.);
#874 = EDGE_CURVE('',#513,#225,#875,.T.);
#875 = LINE('',#876,#877);
#876 = CARTESIAN_POINT('',(-11.,-38.8688730197,-15.88700815103));
#877 = VECTOR('',#878,1.);
#878 = DIRECTION('',(-0.,0.965925826289,-0.258819045103));
#879 = PLANE('',#880);
#880 = AXIS2_PLACEMENT_3D('',#881,#882,#883);
#881 = CARTESIAN_POINT('',(-16.,-38.8688730197,-15.88700815103));
#882 = DIRECTION('',(0.,-0.258819045103,-0.965925826289));
#883 = DIRECTION('',(1.,0.,0.));
#884 = ADVANCED_FACE('',(#885),#896,.F.);
#885 = FACE_BOUND('',#886,.F.);
#886 = EDGE_LOOP('',(#887,#888,#889,#890));
#887 = ORIENTED_EDGE('',*,*,#512,.F.);
#888 = ORIENTED_EDGE('',*,*,#874,.T.);
#889 = ORIENTED_EDGE('',*,*,#224,.T.);
#890 = ORIENTED_EDGE('',*,*,#891,.F.);
#891 = EDGE_CURVE('',#505,#217,#892,.T.);
#892 = LINE('',#893,#894);
#893 = CARTESIAN_POINT('',(-11.,-36.02186352357,-5.26182406185));
#894 = VECTOR('',#895,1.);
#895 = DIRECTION('',(-0.,0.965925826289,-0.258819045103));
#896 = PLANE('',#897);
#897 = AXIS2_PLACEMENT_3D('',#898,#899,#900);
#898 = CARTESIAN_POINT('',(-11.,-38.8688730197,-15.88700815103));
#899 = DIRECTION('',(1.,0.,0.));
#900 = DIRECTION('',(0.,0.258819045103,0.965925826289));
#901 = ADVANCED_FACE('',(#902),#908,.F.);
#902 = FACE_BOUND('',#903,.F.);
#903 = EDGE_LOOP('',(#904,#905,#906,#907));
#904 = ORIENTED_EDGE('',*,*,#504,.F.);
#905 = ORIENTED_EDGE('',*,*,#891,.T.);
#906 = ORIENTED_EDGE('',*,*,#216,.T.);
#907 = ORIENTED_EDGE('',*,*,#850,.F.);
#908 = PLANE('',#909);
#909 = AXIS2_PLACEMENT_3D('',#910,#911,#912);
#910 = CARTESIAN_POINT('',(-11.,-36.02186352357,-5.26182406185));
#911 = DIRECTION('',(0.,0.258819045103,0.965925826289));
#912 = DIRECTION('',(-1.,0.,0.));
#913 = ADVANCED_FACE('',(#914),#930,.F.);
#914 = FACE_BOUND('',#915,.F.);
#915 = EDGE_LOOP('',(#916,#917,#923,#924));
#916 = ORIENTED_EDGE('',*,*,#528,.F.);
#917 = ORIENTED_EDGE('',*,*,#918,.T.);
#918 = EDGE_CURVE('',#529,#241,#919,.T.);
#919 = LINE('',#920,#921);
#920 = CARTESIAN_POINT('',(-7.,-36.02186352357,-5.26182406185));
#921 = VECTOR('',#922,1.);
#922 = DIRECTION('',(-0.,0.965925826289,-0.258819045103));
#923 = ORIENTED_EDGE('',*,*,#240,.T.);
#924 = ORIENTED_EDGE('',*,*,#925,.F.);
#925 = EDGE_CURVE('',#531,#243,#926,.T.);
#926 = LINE('',#927,#928);
#927 = CARTESIAN_POINT('',(-7.,-38.8688730197,-15.88700815103));
#928 = VECTOR('',#929,1.);
#929 = DIRECTION('',(-0.,0.965925826289,-0.258819045103));
#930 = PLANE('',#931);
#931 = AXIS2_PLACEMENT_3D('',#932,#933,#934);
#932 = CARTESIAN_POINT('',(-7.,-36.02186352357,-5.26182406185));
#933 = DIRECTION('',(-1.,0.,0.));
#934 = DIRECTION('',(0.,-0.258819045103,-0.965925826289));
#935 = ADVANCED_FACE('',(#936),#947,.F.);
#936 = FACE_BOUND('',#937,.F.);
#937 = EDGE_LOOP('',(#938,#939,#940,#941));
#938 = ORIENTED_EDGE('',*,*,#554,.F.);
#939 = ORIENTED_EDGE('',*,*,#925,.T.);
#940 = ORIENTED_EDGE('',*,*,#266,.T.);
#941 = ORIENTED_EDGE('',*,*,#942,.F.);
#942 = EDGE_CURVE('',#547,#259,#943,.T.);
#943 = LINE('',#944,#945);
#944 = CARTESIAN_POINT('',(-2.,-38.8688730197,-15.88700815103));
#945 = VECTOR('',#946,1.);
#946 = DIRECTION('',(-0.,0.965925826289,-0.258819045103));
#947 = PLANE('',#948);
#948 = AXIS2_PLACEMENT_3D('',#949,#950,#951);
#949 = CARTESIAN_POINT('',(-7.,-38.8688730197,-15.88700815103));
#950 = DIRECTION('',(0.,-0.258819045103,-0.965925826289));
#951 = DIRECTION('',(1.,0.,0.));
#952 = ADVANCED_FACE('',(#953),#964,.F.);
#953 = FACE_BOUND('',#954,.F.);
#954 = EDGE_LOOP('',(#955,#956,#957,#958));
#955 = ORIENTED_EDGE('',*,*,#546,.F.);
#956 = ORIENTED_EDGE('',*,*,#942,.T.);
#957 = ORIENTED_EDGE('',*,*,#258,.T.);
#958 = ORIENTED_EDGE('',*,*,#959,.F.);
#959 = EDGE_CURVE('',#539,#251,#960,.T.);
#960 = LINE('',#961,#962);
#961 = CARTESIAN_POINT('',(-2.,-36.02186352357,-5.26182406185));
#962 = VECTOR('',#963,1.);
#963 = DIRECTION('',(-0.,0.965925826289,-0.258819045103));
#964 = PLANE('',#965);
#965 = AXIS2_PLACEMENT_3D('',#966,#967,#968);
#966 = CARTESIAN_POINT('',(-2.,-38.8688730197,-15.88700815103));
#967 = DIRECTION('',(1.,0.,0.));
#968 = DIRECTION('',(0.,0.258819045103,0.965925826289));
#969 = ADVANCED_FACE('',(#970),#976,.F.);
#970 = FACE_BOUND('',#971,.F.);
#971 = EDGE_LOOP('',(#972,#973,#974,#975));
#972 = ORIENTED_EDGE('',*,*,#538,.F.);
#973 = ORIENTED_EDGE('',*,*,#959,.T.);
#974 = ORIENTED_EDGE('',*,*,#250,.T.);
#975 = ORIENTED_EDGE('',*,*,#918,.F.);
#976 = PLANE('',#977);
#977 = AXIS2_PLACEMENT_3D('',#978,#979,#980);
#978 = CARTESIAN_POINT('',(-2.,-36.02186352357,-5.26182406185));
#979 = DIRECTION('',(0.,0.258819045103,0.965925826289));
#980 = DIRECTION('',(-1.,0.,0.));
#981 = ADVANCED_FACE('',(#982),#998,.F.);
#982 = FACE_BOUND('',#983,.F.);
#983 = EDGE_LOOP('',(#984,#985,#991,#992));
#984 = ORIENTED_EDGE('',*,*,#562,.F.);
#985 = ORIENTED_EDGE('',*,*,#986,.T.);
#986 = EDGE_CURVE('',#563,#275,#987,.T.);
#987 = LINE('',#988,#989);
#988 = CARTESIAN_POINT('',(2.,-36.02186352357,-5.26182406185));
#989 = VECTOR('',#990,1.);
#990 = DIRECTION('',(-0.,0.965925826289,-0.258819045103));
#991 = ORIENTED_EDGE('',*,*,#274,.T.);
#992 = ORIENTED_EDGE('',*,*,#993,.F.);
#993 = EDGE_CURVE('',#565,#277,#994,.T.);
#994 = LINE('',#995,#996);
#995 = CARTESIAN_POINT('',(2.,-38.8688730197,-15.88700815103));
#996 = VECTOR('',#997,1.);
#997 = DIRECTION('',(-0.,0.965925826289,-0.258819045103));
#998 = PLANE('',#999);
#999 = AXIS2_PLACEMENT_3D('',#1000,#1001,#1002);
#1000 = CARTESIAN_POINT('',(2.,-36.02186352357,-5.26182406185));
#1001 = DIRECTION('',(-1.,0.,0.));
#1002 = DIRECTION('',(0.,-0.258819045103,-0.965925826289));
#1003 = ADVANCED_FACE('',(#1004),#1015,.F.);
#1004 = FACE_BOUND('',#1005,.F.);
#1005 = EDGE_LOOP('',(#1006,#1007,#1008,#1009));
#1006 = ORIENTED_EDGE('',*,*,#588,.F.);
#1007 = ORIENTED_EDGE('',*,*,#993,.T.);
#1008 = ORIENTED_EDGE('',*,*,#300,.T.);
#1009 = ORIENTED_EDGE('',*,*,#1010,.F.);
#1010 = EDGE_CURVE('',#581,#293,#1011,.T.);
#1011 = LINE('',#1012,#1013);
#1012 = CARTESIAN_POINT('',(7.,-38.8688730197,-15.88700815103));
#1013 = VECTOR('',#1014,1.);
#1014 = DIRECTION('',(-0.,0.965925826289,-0.258819045103));
#1015 = PLANE('',#1016);
#1016 = AXIS2_PLACEMENT_3D('',#1017,#1018,#1019);
#1017 = CARTESIAN_POINT('',(2.,-38.8688730197,-15.88700815103));
#1018 = DIRECTION('',(0.,-0.258819045103,-0.965925826289));
#1019 = DIRECTION('',(1.,0.,0.));
#1020 = ADVANCED_FACE('',(#1021),#1032,.F.);
#1021 = FACE_BOUND('',#1022,.F.);
#1022 = EDGE_LOOP('',(#1023,#1024,#1025,#1026));
#1023 = ORIENTED_EDGE('',*,*,#580,.F.);
#1024 = ORIENTED_EDGE('',*,*,#1010,.T.);
#1025 = ORIENTED_EDGE('',*,*,#292,.T.);
#1026 = ORIENTED_EDGE('',*,*,#1027,.F.);
#1027 = EDGE_CURVE('',#573,#285,#1028,.T.);
#1028 = LINE('',#1029,#1030);
#1029 = CARTESIAN_POINT('',(7.,-36.02186352357,-5.26182406185));
#1030 = VECTOR('',#1031,1.);
#1031 = DIRECTION('',(-0.,0.965925826289,-0.258819045103));
#1032 = PLANE('',#1033);
#1033 = AXIS2_PLACEMENT_3D('',#1034,#1035,#1036);
#1034 = CARTESIAN_POINT('',(7.,-38.8688730197,-15.88700815103));
#1035 = DIRECTION('',(1.,0.,0.));
#1036 = DIRECTION('',(0.,0.258819045103,0.965925826289));
#1037 = ADVANCED_FACE('',(#1038),#1044,.F.);
#1038 = FACE_BOUND('',#1039,.F.);
#1039 = EDGE_LOOP('',(#1040,#1041,#1042,#1043));
#1040 = ORIENTED_EDGE('',*,*,#572,.F.);
#1041 = ORIENTED_EDGE('',*,*,#1027,.T.);
#1042 = ORIENTED_EDGE('',*,*,#284,.T.);
#1043 = ORIENTED_EDGE('',*,*,#986,.F.);
#1044 = PLANE('',#1045);
#1045 = AXIS2_PLACEMENT_3D('',#1046,#1047,#1048);
#1046 = CARTESIAN_POINT('',(7.,-36.02186352357,-5.26182406185));
#1047 = DIRECTION('',(0.,0.258819045103,0.965925826289));
#1048 = DIRECTION('',(-1.,0.,0.));
#1049 = ADVANCED_FACE('',(#1050),#1066,.F.);
#1050 = FACE_BOUND('',#1051,.F.);
#1051 = EDGE_LOOP('',(#1052,#1053,#1059,#1060));
#1052 = ORIENTED_EDGE('',*,*,#596,.F.);
#1053 = ORIENTED_EDGE('',*,*,#1054,.T.);
#1054 = EDGE_CURVE('',#597,#309,#1055,.T.);
#1055 = LINE('',#1056,#1057);
#1056 = CARTESIAN_POINT('',(11.,-36.02186352357,-5.26182406185));
#1057 = VECTOR('',#1058,1.);
#1058 = DIRECTION('',(-0.,0.965925826289,-0.258819045103));
#1059 = ORIENTED_EDGE('',*,*,#308,.T.);
#1060 = ORIENTED_EDGE('',*,*,#1061,.F.);
#1061 = EDGE_CURVE('',#599,#311,#1062,.T.);
#1062 = LINE('',#1063,#1064);
#1063 = CARTESIAN_POINT('',(11.,-38.8688730197,-15.88700815103));
#1064 = VECTOR('',#1065,1.);
#1065 = DIRECTION('',(-0.,0.965925826289,-0.258819045103));
#1066 = PLANE('',#1067);
#1067 = AXIS2_PLACEMENT_3D('',#1068,#1069,#1070);
#1068 = CARTESIAN_POINT('',(11.,-36.02186352357,-5.26182406185));
#1069 = DIRECTION('',(-1.,0.,0.));
#1070 = DIRECTION('',(0.,-0.258819045103,-0.965925826289));
#1071 = ADVANCED_FACE('',(#1072),#1083,.F.);
#1072 = FACE_BOUND('',#1073,.F.);
#1073 = EDGE_LOOP('',(#1074,#1075,#1076,#1077));
#1074 = ORIENTED_EDGE('',*,*,#622,.F.);
#1075 = ORIENTED_EDGE('',*,*,#1061,.T.);
#1076 = ORIENTED_EDGE('',*,*,#334,.T.);
#1077 = ORIENTED_EDGE('',*,*,#1078,.F.);
#1078 = EDGE_CURVE('',#615,#327,#1079,.T.);
#1079 = LINE('',#1080,#1081);
#1080 = CARTESIAN_POINT('',(16.,-38.8688730197,-15.88700815103));
#1081 = VECTOR('',#1082,1.);
#1082 = DIRECTION('',(-0.,0.965925826289,-0.258819045103));
#1083 = PLANE('',#1084);
#1084 = AXIS2_PLACEMENT_3D('',#1085,#1086,#1087);
#1085 = CARTESIAN_POINT('',(11.,-38.8688730197,-15.88700815103));
#1086 = DIRECTION('',(0.,-0.258819045103,-0.965925826289));
#1087 = DIRECTION('',(1.,0.,0.));
#1088 = ADVANCED_FACE('',(#1089),#1100,.F.);
#1089 = FACE_BOUND('',#1090,.F.);
#1090 = EDGE_LOOP('',(#1091,#1092,#1093,#1094));
#1091 = ORIENTED_EDGE('',*,*,#614,.F.);
#1092 = ORIENTED_EDGE('',*,*,#1078,.T.);
#1093 = ORIENTED_EDGE('',*,*,#326,.T.);
#1094 = ORIENTED_EDGE('',*,*,#1095,.F.);
#1095 = EDGE_CURVE('',#607,#319,#1096,.T.);
#1096 = LINE('',#1097,#1098);
#1097 = CARTESIAN_POINT('',(16.,-36.02186352357,-5.26182406185));
#1098 = VECTOR('',#1099,1.);
#1099 = DIRECTION('',(-0.,0.965925826289,-0.258819045103));
#1100 = PLANE('',#1101);
#1101 = AXIS2_PLACEMENT_3D('',#1102,#1103,#1104);
#1102 = CARTESIAN_POINT('',(16.,-38.8688730197,-15.88700815103));
#1103 = DIRECTION('',(1.,0.,0.));
#1104 = DIRECTION('',(0.,0.258819045103,0.965925826289));
#1105 = ADVANCED_FACE('',(#1106),#1112,.F.);
#1106 = FACE_BOUND('',#1107,.F.);
#1107 = EDGE_LOOP('',(#1108,#1109,#1110,#1111));
#1108 = ORIENTED_EDGE('',*,*,#606,.F.);
#1109 = ORIENTED_EDGE('',*,*,#1095,.T.);
#1110 = ORIENTED_EDGE('',*,*,#318,.T.);
#1111 = ORIENTED_EDGE('',*,*,#1054,.F.);
#1112 = PLANE('',#1113);
#1113 = AXIS2_PLACEMENT_3D('',#1114,#1115,#1116);
#1114 = CARTESIAN_POINT('',(16.,-36.02186352357,-5.26182406185));
#1115 = DIRECTION('',(0.,0.258819045103,0.965925826289));
#1116 = DIRECTION('',(-1.,0.,0.));
#1117 = ADVANCED_FACE('',(#1118),#1134,.F.);
#1118 = FACE_BOUND('',#1119,.F.);
#1119 = EDGE_LOOP('',(#1120,#1121,#1127,#1128));
#1120 = ORIENTED_EDGE('',*,*,#630,.F.);
#1121 = ORIENTED_EDGE('',*,*,#1122,.T.);
#1122 = EDGE_CURVE('',#631,#343,#1123,.T.);
#1123 = LINE('',#1124,#1125);
#1124 = CARTESIAN_POINT('',(20.,-36.02186352357,-5.26182406185));
#1125 = VECTOR('',#1126,1.);
#1126 = DIRECTION('',(-0.,0.965925826289,-0.258819045103));
#1127 = ORIENTED_EDGE('',*,*,#342,.T.);
#1128 = ORIENTED_EDGE('',*,*,#1129,.F.);
#1129 = EDGE_CURVE('',#633,#345,#1130,.T.);
#1130 = LINE('',#1131,#1132);
#1131 = CARTESIAN_POINT('',(20.,-38.8688730197,-15.88700815103));
#1132 = VECTOR('',#1133,1.);
#1133 = DIRECTION('',(-0.,0.965925826289,-0.258819045103));
#1134 = PLANE('',#1135);
#1135 = AXIS2_PLACEMENT_3D('',#1136,#1137,#1138);
#1136 = CARTESIAN_POINT('',(20.,-36.02186352357,-5.26182406185));
#1137 = DIRECTION('',(-1.,0.,0.));
#1138 = DIRECTION('',(0.,-0.258819045103,-0.965925826289));
#1139 = ADVANCED_FACE('',(#1140),#1151,.F.);
#1140 = FACE_BOUND('',#1141,.F.);
#1141 = EDGE_LOOP('',(#1142,#1143,#1144,#1145));
#1142 = ORIENTED_EDGE('',*,*,#656,.F.);
#1143 = ORIENTED_EDGE('',*,*,#1129,.T.);
#1144 = ORIENTED_EDGE('',*,*,#368,.T.);
#1145 = ORIENTED_EDGE('',*,*,#1146,.F.);
#1146 = EDGE_CURVE('',#649,#361,#1147,.T.);
#1147 = LINE('',#1148,#1149);
#1148 = CARTESIAN_POINT('',(25.,-38.8688730197,-15.88700815103));
#1149 = VECTOR('',#1150,1.);
#1150 = DIRECTION('',(-0.,0.965925826289,-0.258819045103));
#1151 = PLANE('',#1152);
#1152 = AXIS2_PLACEMENT_3D('',#1153,#1154,#1155);
#1153 = CARTESIAN_POINT('',(20.,-38.8688730197,-15.88700815103));
#1154 = DIRECTION('',(0.,-0.258819045103,-0.965925826289));
#1155 = DIRECTION('',(1.,0.,0.));
#1156 = ADVANCED_FACE('',(#1157),#1168,.F.);
#1157 = FACE_BOUND('',#1158,.F.);
#1158 = EDGE_LOOP('',(#1159,#1160,#1161,#1162));
#1159 = ORIENTED_EDGE('',*,*,#648,.F.);
#1160 = ORIENTED_EDGE('',*,*,#1146,.T.);
#1161 = ORIENTED_EDGE('',*,*,#360,.T.);
#1162 = ORIENTED_EDGE('',*,*,#1163,.F.);
#1163 = EDGE_CURVE('',#641,#353,#1164,.T.);
#1164 = LINE('',#1165,#1166);
#1165 = CARTESIAN_POINT('',(25.,-36.02186352357,-5.26182406185));
#1166 = VECTOR('',#1167,1.);
#1167 = DIRECTION('',(-0.,0.965925826289,-0.258819045103));
#1168 = PLANE('',#1169);
#1169 = AXIS2_PLACEMENT_3D('',#1170,#1171,#1172);
#1170 = CARTESIAN_POINT('',(25.,-38.8688730197,-15.88700815103));
#1171 = DIRECTION('',(1.,0.,0.));
#1172 = DIRECTION('',(0.,0.258819045103,0.965925826289));
#1173 = ADVANCED_FACE('',(#1174),#1180,.F.);
#1174 = FACE_BOUND('',#1175,.F.);
#1175 = EDGE_LOOP('',(#1176,#1177,#1178,#1179));
#1176 = ORIENTED_EDGE('',*,*,#640,.F.);
#1177 = ORIENTED_EDGE('',*,*,#1163,.T.);
#1178 = ORIENTED_EDGE('',*,*,#352,.T.);
#1179 = ORIENTED_EDGE('',*,*,#1122,.F.);
#1180 = PLANE('',#1181);
#1181 = AXIS2_PLACEMENT_3D('',#1182,#1183,#1184);
#1182 = CARTESIAN_POINT('',(25.,-36.02186352357,-5.26182406185));
#1183 = DIRECTION('',(0.,0.258819045103,0.965925826289));
#1184 = DIRECTION('',(-1.,0.,0.));
#1185 = ADVANCED_FACE('',(#1186),#1202,.F.);
#1186 = FACE_BOUND('',#1187,.F.);
#1187 = EDGE_LOOP('',(#1188,#1189,#1195,#1196));
#1188 = ORIENTED_EDGE('',*,*,#664,.F.);
#1189 = ORIENTED_EDGE('',*,*,#1190,.T.);
#1190 = EDGE_CURVE('',#665,#377,#1191,.T.);
#1191 = LINE('',#1192,#1193);
#1192 = CARTESIAN_POINT('',(29.,-36.02186352357,-5.26182406185));
#1193 = VECTOR('',#1194,1.);
#1194 = DIRECTION('',(-0.,0.965925826289,-0.258819045103));
#1195 = ORIENTED_EDGE('',*,*,#376,.T.);
#1196 = ORIENTED_EDGE('',*,*,#1197,.F.);
#1197 = EDGE_CURVE('',#667,#379,#1198,.T.);
#1198 = LINE('',#1199,#1200);
#1199 = CARTESIAN_POINT('',(29.,-38.8688730197,-15.88700815103));
#1200 = VECTOR('',#1201,1.);
#1201 = DIRECTION('',(-0.,0.965925826289,-0.258819045103));
#1202 = PLANE('',#1203);
#1203 = AXIS2_PLACEMENT_3D('',#1204,#1205,#1206);
#1204 = CARTESIAN_POINT('',(29.,-36.02186352357,-5.26182406185));
#1205 = DIRECTION('',(-1.,0.,0.));
#1206 = DIRECTION('',(0.,-0.258819045103,-0.965925826289));
#1207 = ADVANCED_FACE('',(#1208),#1214,.F.);
#1208 = FACE_BOUND('',#1209,.F.);
#1209 = EDGE_LOOP('',(#1210,#1211,#1212,#1213));
#1210 = ORIENTED_EDGE('',*,*,#674,.F.);
#1211 = ORIENTED_EDGE('',*,*,#1197,.T.);
#1212 = ORIENTED_EDGE('',*,*,#386,.T.);
#1213 = ORIENTED_EDGE('',*,*,#1190,.F.);
#1214 = CYLINDRICAL_SURFACE('',#1215,5.5);
#1215 = AXIS2_PLACEMENT_3D('',#1216,#1217,#1218);
#1216 = CARTESIAN_POINT('',(29.,-37.44536827164,-10.57441610644));
#1217 = DIRECTION('',(0.,-0.965925826289,0.258819045103));
#1218 = DIRECTION('',(1.,0.,0.));
#1219 = ADVANCED_FACE('',(#1220),#1231,.F.);
#1220 = FACE_BOUND('',#1221,.F.);
#1221 = EDGE_LOOP('',(#1222,#1223,#1229,#1230));
#1222 = ORIENTED_EDGE('',*,*,#683,.F.);
#1223 = ORIENTED_EDGE('',*,*,#1224,.T.);
#1224 = EDGE_CURVE('',#684,#396,#1225,.T.);
#1225 = LINE('',#1226,#1227);
#1226 = CARTESIAN_POINT('',(43.9,-37.05713970398,-9.125527367007));
#1227 = VECTOR('',#1228,1.);
#1228 = DIRECTION('',(0.,0.965925826289,-0.258819045103));
#1229 = ORIENTED_EDGE('',*,*,#395,.T.);
#1230 = ORIENTED_EDGE('',*,*,#1224,.F.);
#1231 = CYLINDRICAL_SURFACE('',#1232,1.4);
#1232 = AXIS2_PLACEMENT_3D('',#1233,#1234,#1235);
#1233 = CARTESIAN_POINT('',(42.5,-37.05713970398,-9.125527367007));
#1234 = DIRECTION('',(0.,-0.965925826289,0.258819045103));
#1235 = DIRECTION('',(1.,0.,0.));
#1236 = ( GEOMETRIC_REPRESENTATION_CONTEXT(3) 
GLOBAL_UNCERTAINTY_ASSIGNED_CONTEXT((#1240)) 
GLOBAL_UNIT_ASSIGNED_CONTEXT((#1237,#1238,#1239)) REPRESENTATION_CONTEXT
('Context #1','3D Context with UNIT and UNCERTAINTY') );
#1237 = ( LENGTH_UNIT() NAMED_UNIT(*) SI_UNIT(.MILLI.,.METRE.) );
#1238 = ( NAMED_UNIT(*) PLANE_ANGLE_UNIT() SI_UNIT($,.RADIAN.) );
#1239 = ( NAMED_UNIT(*) SI_UNIT($,.STERADIAN.) SOLID_ANGLE_UNIT() );
#1240 = UNCERTAINTY_MEASURE_WITH_UNIT(LENGTH_MEASURE(2.E-05),#1237,
  'distance_accuracy_value','confusion accuracy');
#1241 = PRODUCT_RELATED_PRODUCT_CATEGORY('part',$,(#7));
#1242 = MECHANICAL_DESIGN_GEOMETRIC_PRESENTATION_REPRESENTATION('',(
    #1243),#1236);
#1243 = STYLED_ITEM('color',(#1244),#15);
#1244 = PRESENTATION_STYLE_ASSIGNMENT((#1245,#1251));
#1245 = SURFACE_STYLE_USAGE(.BOTH.,#1246);
#1246 = SURFACE_SIDE_STYLE('',(#1247));
#1247 = SURFACE_STYLE_FILL_AREA(#1248);
#1248 = FILL_AREA_STYLE('',(#1249));
#1249 = FILL_AREA_STYLE_COLOUR('',#1250);
#1250 = COLOUR_RGB('',0.447058818107,0.474509808674,0.501960817233);
#1251 = CURVE_STYLE('',#1252,POSITIVE_LENGTH_MEASURE(0.1),#1253);
#1252 = DRAUGHTING_PRE_DEFINED_CURVE_FONT('continuous');
#1253 = COLOUR_RGB('',9.803921802644E-02,9.803921802644E-02,
  9.803921802644E-02);
ENDSEC;
END-ISO-10303-21;
