ISO-10303-21;
HEADER;
FILE_DESCRIPTION(('FreeCAD Model'),'2;1');
FILE_NAME('Open CASCADE Shape Model','2026-02-22T22:48:02',(''),(''),
  'Open CASCADE STEP processor 7.8','FreeCAD','Unknown');
FILE_SCHEMA(('AUTOMOTIVE_DESIGN { 1 0 10303 214 1 1 1 1 }'));
ENDSEC;
DATA;
#1 = APPLICATION_PROTOCOL_DEFINITION('international standard',
  'automotive_design',2000,#2);
#2 = APPLICATION_CONTEXT(
  'core data for automotive mechanical design processes');
#3 = SHAPE_DEFINITION_REPRESENTATION(#4,#10);
#4 = PRODUCT_DEFINITION_SHAPE('','',#5);
#5 = PRODUCT_DEFINITION('design','',#6,#9);
#6 = PRODUCT_DEFINITION_FORMATION('','',#7);
#7 = PRODUCT('Left','Left','',(#8));
#8 = PRODUCT_CONTEXT('',#2,'mechanical');
#9 = PRODUCT_DEFINITION_CONTEXT('part definition',#2,'design');
#10 = ADVANCED_BREP_SHAPE_REPRESENTATION('',(#11,#15),#2013);
#11 = AXIS2_PLACEMENT_3D('',#12,#13,#14);
#12 = CARTESIAN_POINT('',(0.,0.,0.));
#13 = DIRECTION('',(0.,0.,1.));
#14 = DIRECTION('',(1.,0.,-0.));
#15 = MANIFOLD_SOLID_BREP('',#16);
#16 = CLOSED_SHELL('',(#17,#59,#90,#121,#430,#867,#884,#901,#918,#935,
    #1020,#1037,#1122,#1139,#1156,#1168,#1190,#1207,#1219,#1241,#1258,
    #1275,#1287,#1309,#1326,#1338,#1360,#1377,#1389,#1411,#1428,#1440,
    #1462,#1479,#1491,#1513,#1530,#1542,#1564,#1581,#1593,#1617,#1652,
    #1669,#1693,#1717,#1752,#1787,#1804,#1821,#1845,#1869,#1897,#1909,
    #1921,#1938,#1955,#1967,#1979,#1996));
#17 = ADVANCED_FACE('',(#18),#54,.F.);
#18 = FACE_BOUND('',#19,.T.);
#19 = EDGE_LOOP('',(#20,#30,#39,#47));
#20 = ORIENTED_EDGE('',*,*,#21,.T.);
#21 = EDGE_CURVE('',#22,#24,#26,.T.);
#22 = VERTEX_POINT('',#23);
#23 = CARTESIAN_POINT('',(28.345678683002,14.85,0.));
#24 = VERTEX_POINT('',#25);
#25 = CARTESIAN_POINT('',(28.345678683002,14.85,3.));
#26 = LINE('',#27,#28);
#27 = CARTESIAN_POINT('',(28.345678683002,14.85,0.));
#28 = VECTOR('',#29,1.);
#29 = DIRECTION('',(0.,0.,1.));
#30 = ORIENTED_EDGE('',*,*,#31,.T.);
#31 = EDGE_CURVE('',#24,#32,#34,.T.);
#32 = VERTEX_POINT('',#33);
#33 = CARTESIAN_POINT('',(-30.8504457018,8.5,3.));
#34 = CIRCLE('',#35,32.);
#35 = AXIS2_PLACEMENT_3D('',#36,#37,#38);
#36 = CARTESIAN_POINT('',(0.,0.,3.));
#37 = DIRECTION('',(0.,0.,1.));
#38 = DIRECTION('',(1.,0.,0.));
#39 = ORIENTED_EDGE('',*,*,#40,.F.);
#40 = EDGE_CURVE('',#41,#32,#43,.T.);
#41 = VERTEX_POINT('',#42);
#42 = CARTESIAN_POINT('',(-30.8504457018,8.5,0.));
#43 = LINE('',#44,#45);
#44 = CARTESIAN_POINT('',(-30.8504457018,8.5,0.));
#45 = VECTOR('',#46,1.);
#46 = DIRECTION('',(0.,0.,1.));
#47 = ORIENTED_EDGE('',*,*,#48,.F.);
#48 = EDGE_CURVE('',#22,#41,#49,.T.);
#49 = CIRCLE('',#50,32.);
#50 = AXIS2_PLACEMENT_3D('',#51,#52,#53);
#51 = CARTESIAN_POINT('',(0.,0.,0.));
#52 = DIRECTION('',(0.,0.,1.));
#53 = DIRECTION('',(1.,0.,0.));
#54 = CYLINDRICAL_SURFACE('',#55,32.);
#55 = AXIS2_PLACEMENT_3D('',#56,#57,#58);
#56 = CARTESIAN_POINT('',(0.,0.,0.));
#57 = DIRECTION('',(-0.,-0.,-1.));
#58 = DIRECTION('',(1.,0.,0.));
#59 = ADVANCED_FACE('',(#60),#85,.F.);
#60 = FACE_BOUND('',#61,.F.);
#61 = EDGE_LOOP('',(#62,#63,#71,#79));
#62 = ORIENTED_EDGE('',*,*,#21,.T.);
#63 = ORIENTED_EDGE('',*,*,#64,.T.);
#64 = EDGE_CURVE('',#24,#65,#67,.T.);
#65 = VERTEX_POINT('',#66);
#66 = CARTESIAN_POINT('',(31.345678683002,14.85,3.));
#67 = LINE('',#68,#69);
#68 = CARTESIAN_POINT('',(28.345678683002,14.85,3.));
#69 = VECTOR('',#70,1.);
#70 = DIRECTION('',(1.,0.,0.));
#71 = ORIENTED_EDGE('',*,*,#72,.F.);
#72 = EDGE_CURVE('',#73,#65,#75,.T.);
#73 = VERTEX_POINT('',#74);
#74 = CARTESIAN_POINT('',(31.345678683002,14.85,0.));
#75 = LINE('',#76,#77);
#76 = CARTESIAN_POINT('',(31.345678683002,14.85,0.));
#77 = VECTOR('',#78,1.);
#78 = DIRECTION('',(0.,0.,1.));
#79 = ORIENTED_EDGE('',*,*,#80,.F.);
#80 = EDGE_CURVE('',#22,#73,#81,.T.);
#81 = LINE('',#82,#83);
#82 = CARTESIAN_POINT('',(28.345678683002,14.85,0.));
#83 = VECTOR('',#84,1.);
#84 = DIRECTION('',(1.,0.,0.));
#85 = PLANE('',#86);
#86 = AXIS2_PLACEMENT_3D('',#87,#88,#89);
#87 = CARTESIAN_POINT('',(28.345678683002,14.85,0.));
#88 = DIRECTION('',(0.,1.,0.));
#89 = DIRECTION('',(1.,0.,0.));
#90 = ADVANCED_FACE('',(#91),#116,.F.);
#91 = FACE_BOUND('',#92,.F.);
#92 = EDGE_LOOP('',(#93,#103,#109,#110));
#93 = ORIENTED_EDGE('',*,*,#94,.T.);
#94 = EDGE_CURVE('',#95,#97,#99,.T.);
#95 = VERTEX_POINT('',#96);
#96 = CARTESIAN_POINT('',(-32.00432131699,3.35,0.));
#97 = VERTEX_POINT('',#98);
#98 = CARTESIAN_POINT('',(-32.00432131699,3.35,3.));
#99 = LINE('',#100,#101);
#100 = CARTESIAN_POINT('',(-32.00432131699,3.35,0.));
#101 = VECTOR('',#102,1.);
#102 = DIRECTION('',(0.,0.,1.));
#103 = ORIENTED_EDGE('',*,*,#104,.T.);
#104 = EDGE_CURVE('',#97,#32,#105,.T.);
#105 = LINE('',#106,#107);
#106 = CARTESIAN_POINT('',(-32.00432131699,3.35,3.));
#107 = VECTOR('',#108,1.);
#108 = DIRECTION('',(0.2186330251,0.975807153251,0.));
#109 = ORIENTED_EDGE('',*,*,#40,.F.);
#110 = ORIENTED_EDGE('',*,*,#111,.F.);
#111 = EDGE_CURVE('',#95,#41,#112,.T.);
#112 = LINE('',#113,#114);
#113 = CARTESIAN_POINT('',(-32.00432131699,3.35,0.));
#114 = VECTOR('',#115,1.);
#115 = DIRECTION('',(0.2186330251,0.975807153251,0.));
#116 = PLANE('',#117);
#117 = AXIS2_PLACEMENT_3D('',#118,#119,#120);
#118 = CARTESIAN_POINT('',(-32.00432131699,3.35,0.));
#119 = DIRECTION('',(-0.975807153251,0.2186330251,0.));
#120 = DIRECTION('',(0.2186330251,0.975807153251,0.));
#121 = ADVANCED_FACE('',(#122,#205,#231,#267,#293,#319,#346,#372,#399),
  #425,.F.);
#122 = FACE_BOUND('',#123,.F.);
#123 = EDGE_LOOP('',(#124,#125,#126,#134,#142,#150,#158,#166,#174,#182,
    #190,#198,#204));
#124 = ORIENTED_EDGE('',*,*,#48,.F.);
#125 = ORIENTED_EDGE('',*,*,#80,.T.);
#126 = ORIENTED_EDGE('',*,*,#127,.T.);
#127 = EDGE_CURVE('',#73,#128,#130,.T.);
#128 = VERTEX_POINT('',#129);
#129 = CARTESIAN_POINT('',(31.345678683002,31.35,0.));
#130 = LINE('',#131,#132);
#131 = CARTESIAN_POINT('',(31.345678683002,14.85,0.));
#132 = VECTOR('',#133,1.);
#133 = DIRECTION('',(0.,1.,0.));
#134 = ORIENTED_EDGE('',*,*,#135,.T.);
#135 = EDGE_CURVE('',#128,#136,#138,.T.);
#136 = VERTEX_POINT('',#137);
#137 = CARTESIAN_POINT('',(28.345678683002,31.35,0.));
#138 = LINE('',#139,#140);
#139 = CARTESIAN_POINT('',(31.345678683002,31.35,0.));
#140 = VECTOR('',#141,1.);
#141 = DIRECTION('',(-1.,0.,0.));
#142 = ORIENTED_EDGE('',*,*,#143,.T.);
#143 = EDGE_CURVE('',#136,#144,#146,.T.);
#144 = VERTEX_POINT('',#145);
#145 = CARTESIAN_POINT('',(28.345678683002,72.85,0.));
#146 = LINE('',#147,#148);
#147 = CARTESIAN_POINT('',(28.345678683002,31.35,0.));
#148 = VECTOR('',#149,1.);
#149 = DIRECTION('',(0.,1.,0.));
#150 = ORIENTED_EDGE('',*,*,#151,.T.);
#151 = EDGE_CURVE('',#144,#152,#154,.T.);
#152 = VERTEX_POINT('',#153);
#153 = CARTESIAN_POINT('',(-57.15432131699,39.35,0.));
#154 = LINE('',#155,#156);
#155 = CARTESIAN_POINT('',(28.345678683002,72.85,0.));
#156 = VECTOR('',#157,1.);
#157 = DIRECTION('',(-0.931082019294,-0.364809913992,0.));
#158 = ORIENTED_EDGE('',*,*,#159,.T.);
#159 = EDGE_CURVE('',#152,#160,#162,.T.);
#160 = VERTEX_POINT('',#161);
#161 = CARTESIAN_POINT('',(-57.15432131699,-12.15,0.));
#162 = LINE('',#163,#164);
#163 = CARTESIAN_POINT('',(-57.15432131699,39.35,0.));
#164 = VECTOR('',#165,1.);
#165 = DIRECTION('',(0.,-1.,0.));
#166 = ORIENTED_EDGE('',*,*,#167,.T.);
#167 = EDGE_CURVE('',#160,#168,#170,.T.);
#168 = VERTEX_POINT('',#169);
#169 = CARTESIAN_POINT('',(-34.65432131699,-12.15,0.));
#170 = LINE('',#171,#172);
#171 = CARTESIAN_POINT('',(-57.15432131699,-12.15,0.));
#172 = VECTOR('',#173,1.);
#173 = DIRECTION('',(1.,0.,0.));
#174 = ORIENTED_EDGE('',*,*,#175,.T.);
#175 = EDGE_CURVE('',#168,#176,#178,.T.);
#176 = VERTEX_POINT('',#177);
#177 = CARTESIAN_POINT('',(-33.03432131699,-2.65,0.));
#178 = LINE('',#179,#180);
#179 = CARTESIAN_POINT('',(-34.65432131699,-12.15,0.));
#180 = VECTOR('',#181,1.);
#181 = DIRECTION('',(0.168099725401,0.985769994634,0.));
#182 = ORIENTED_EDGE('',*,*,#183,.T.);
#183 = EDGE_CURVE('',#176,#184,#186,.T.);
#184 = VERTEX_POINT('',#185);
#185 = CARTESIAN_POINT('',(-35.15432131699,-2.65,0.));
#186 = LINE('',#187,#188);
#187 = CARTESIAN_POINT('',(-33.03432131699,-2.65,0.));
#188 = VECTOR('',#189,1.);
#189 = DIRECTION('',(-1.,0.,0.));
#190 = ORIENTED_EDGE('',*,*,#191,.T.);
#191 = EDGE_CURVE('',#184,#192,#194,.T.);
#192 = VERTEX_POINT('',#193);
#193 = CARTESIAN_POINT('',(-35.15432131699,3.35,0.));
#194 = LINE('',#195,#196);
#195 = CARTESIAN_POINT('',(-35.15432131699,-2.65,0.));
#196 = VECTOR('',#197,1.);
#197 = DIRECTION('',(0.,1.,0.));
#198 = ORIENTED_EDGE('',*,*,#199,.T.);
#199 = EDGE_CURVE('',#192,#95,#200,.T.);
#200 = LINE('',#201,#202);
#201 = CARTESIAN_POINT('',(-35.15432131699,3.35,0.));
#202 = VECTOR('',#203,1.);
#203 = DIRECTION('',(1.,0.,0.));
#204 = ORIENTED_EDGE('',*,*,#111,.T.);
#205 = FACE_BOUND('',#206,.F.);
#206 = EDGE_LOOP('',(#207,#217,#225));
#207 = ORIENTED_EDGE('',*,*,#208,.F.);
#208 = EDGE_CURVE('',#209,#211,#213,.T.);
#209 = VERTEX_POINT('',#210);
#210 = CARTESIAN_POINT('',(-52.15432131699,7.85,0.));
#211 = VERTEX_POINT('',#212);
#212 = CARTESIAN_POINT('',(-52.15432131699,-7.164948905142,0.));
#213 = LINE('',#214,#215);
#214 = CARTESIAN_POINT('',(-52.15432131699,19.013805019726,0.));
#215 = VECTOR('',#216,1.);
#216 = DIRECTION('',(0.,-1.,0.));
#217 = ORIENTED_EDGE('',*,*,#218,.F.);
#218 = EDGE_CURVE('',#219,#209,#221,.T.);
#219 = VERTEX_POINT('',#220);
#220 = CARTESIAN_POINT('',(-37.65432131699,7.85,0.));
#221 = LINE('',#222,#223);
#222 = CARTESIAN_POINT('',(-25.62717295212,7.85,0.));
#223 = VECTOR('',#224,1.);
#224 = DIRECTION('',(-1.,0.,0.));
#225 = ORIENTED_EDGE('',*,*,#226,.F.);
#226 = EDGE_CURVE('',#211,#219,#227,.T.);
#227 = LINE('',#228,#229);
#228 = CARTESIAN_POINT('',(-33.52201630018,12.129058530201,0.));
#229 = VECTOR('',#230,1.);
#230 = DIRECTION('',(0.694664131316,0.719334237099,0.));
#231 = FACE_BOUND('',#232,.F.);
#232 = EDGE_LOOP('',(#233,#244,#252,#261));
#233 = ORIENTED_EDGE('',*,*,#234,.F.);
#234 = EDGE_CURVE('',#235,#237,#239,.T.);
#235 = VERTEX_POINT('',#236);
#236 = CARTESIAN_POINT('',(-52.90432131699,14.45,0.));
#237 = VERTEX_POINT('',#238);
#238 = CARTESIAN_POINT('',(-52.90432131699,11.25,0.));
#239 = CIRCLE('',#240,1.6);
#240 = AXIS2_PLACEMENT_3D('',#241,#242,#243);
#241 = CARTESIAN_POINT('',(-52.90432131699,12.85,0.));
#242 = DIRECTION('',(0.,0.,1.));
#243 = DIRECTION('',(1.,0.,0.));
#244 = ORIENTED_EDGE('',*,*,#245,.T.);
#245 = EDGE_CURVE('',#235,#246,#248,.T.);
#246 = VERTEX_POINT('',#247);
#247 = CARTESIAN_POINT('',(-51.15432131699,14.45,0.));
#248 = LINE('',#249,#250);
#249 = CARTESIAN_POINT('',(-33.25217295212,14.45,0.));
#250 = VECTOR('',#251,1.);
#251 = DIRECTION('',(1.,0.,0.));
#252 = ORIENTED_EDGE('',*,*,#253,.F.);
#253 = EDGE_CURVE('',#254,#246,#256,.T.);
#254 = VERTEX_POINT('',#255);
#255 = CARTESIAN_POINT('',(-51.15432131699,11.25,0.));
#256 = CIRCLE('',#257,1.6);
#257 = AXIS2_PLACEMENT_3D('',#258,#259,#260);
#258 = CARTESIAN_POINT('',(-51.15432131699,12.85,0.));
#259 = DIRECTION('',(0.,0.,1.));
#260 = DIRECTION('',(1.,0.,0.));
#261 = ORIENTED_EDGE('',*,*,#262,.F.);
#262 = EDGE_CURVE('',#237,#254,#263,.T.);
#263 = LINE('',#264,#265);
#264 = CARTESIAN_POINT('',(-33.25217295212,11.25,0.));
#265 = VECTOR('',#266,1.);
#266 = DIRECTION('',(1.,0.,0.));
#267 = FACE_BOUND('',#268,.F.);
#268 = EDGE_LOOP('',(#269,#279,#287));
#269 = ORIENTED_EDGE('',*,*,#270,.F.);
#270 = EDGE_CURVE('',#271,#273,#275,.T.);
#271 = VERTEX_POINT('',#272);
#272 = CARTESIAN_POINT('',(-52.15432131699,34.864948905142,0.));
#273 = VERTEX_POINT('',#274);
#274 = CARTESIAN_POINT('',(-52.15432131699,19.85,0.));
#275 = LINE('',#276,#277);
#276 = CARTESIAN_POINT('',(-52.15432131699,32.521279472297,0.));
#277 = VECTOR('',#278,1.);
#278 = DIRECTION('',(0.,-1.,0.));
#279 = ORIENTED_EDGE('',*,*,#280,.F.);
#280 = EDGE_CURVE('',#281,#271,#283,.T.);
#281 = VERTEX_POINT('',#282);
#282 = CARTESIAN_POINT('',(-37.65432131699,19.85,0.));
#283 = LINE('',#284,#285);
#284 = CARTESIAN_POINT('',(-34.4308527129,16.512054042225,0.));
#285 = VECTOR('',#286,1.);
#286 = DIRECTION('',(-0.694664131316,0.719334237099,0.));
#287 = ORIENTED_EDGE('',*,*,#288,.F.);
#288 = EDGE_CURVE('',#273,#281,#289,.T.);
#289 = LINE('',#290,#291);
#290 = CARTESIAN_POINT('',(-32.87717295212,19.85,0.));
#291 = VECTOR('',#292,1.);
#292 = DIRECTION('',(1.,0.,0.));
#293 = FACE_BOUND('',#294,.F.);
#294 = EDGE_LOOP('',(#295,#305,#313));
#295 = ORIENTED_EDGE('',*,*,#296,.T.);
#296 = EDGE_CURVE('',#297,#299,#301,.T.);
#297 = VERTEX_POINT('',#298);
#298 = CARTESIAN_POINT('',(-32.09533126287,21.527868423306,0.));
#299 = VERTEX_POINT('',#300);
#300 = CARTESIAN_POINT('',(-47.49891122052,36.688998475104,0.));
#301 = LINE('',#302,#303);
#302 = CARTESIAN_POINT('',(-29.5603168991,19.032754783626,0.));
#303 = VECTOR('',#304,1.);
#304 = DIRECTION('',(-0.712693376263,0.701475695538,0.));
#305 = ORIENTED_EDGE('',*,*,#306,.T.);
#306 = EDGE_CURVE('',#299,#307,#309,.T.);
#307 = VERTEX_POINT('',#308);
#308 = CARTESIAN_POINT('',(-31.09126138131,43.11772677468,0.));
#309 = LINE('',#310,#311);
#310 = CARTESIAN_POINT('',(-33.91106113549,42.012892952867,0.));
#311 = VECTOR('',#312,1.);
#312 = DIRECTION('',(0.931082019294,0.364809913992,0.));
#313 = ORIENTED_EDGE('',*,*,#314,.T.);
#314 = EDGE_CURVE('',#307,#297,#315,.T.);
#315 = LINE('',#316,#317);
#316 = CARTESIAN_POINT('',(-31.37263737074,37.067482795699,0.));
#317 = VECTOR('',#318,1.);
#318 = DIRECTION('',(-4.645634040006E-02,-0.998920321365,0.));
#319 = FACE_BOUND('',#320,.F.);
#320 = EDGE_LOOP('',(#321,#331,#339));
#321 = ORIENTED_EDGE('',*,*,#322,.F.);
#322 = EDGE_CURVE('',#323,#325,#327,.T.);
#323 = VERTEX_POINT('',#324);
#324 = CARTESIAN_POINT('',(-26.43585128484,44.941776344642,0.));
#325 = VERTEX_POINT('',#326);
#326 = CARTESIAN_POINT('',(-27.36793832859,24.899717902862,0.));
#327 = LINE('',#328,#329);
#328 = CARTESIAN_POINT('',(-26.76457449627,37.873455999644,-4.4E-16));
#329 = VECTOR('',#330,1.);
#330 = DIRECTION('',(-4.645634040006E-02,-0.998920321365,0.));
#331 = ORIENTED_EDGE('',*,*,#332,.F.);
#332 = EDGE_CURVE('',#333,#323,#335,.T.);
#333 = VERTEX_POINT('',#334);
#334 = CARTESIAN_POINT('',(-13.83894572916,34.314480632895,0.));
#335 = LINE('',#336,#337);
#336 = CARTESIAN_POINT('',(-12.74970981701,33.395553989596,-4.4E-16));
#337 = VECTOR('',#338,1.);
#338 = DIRECTION('',(-0.764331655487,0.644823324967,0.));
#339 = ORIENTED_EDGE('',*,*,#340,.T.);
#340 = EDGE_CURVE('',#333,#325,#341,.T.);
#341 = CIRCLE('',#342,37.);
#342 = AXIS2_PLACEMENT_3D('',#343,#344,#345);
#343 = CARTESIAN_POINT('',(0.,0.,0.));
#344 = DIRECTION('',(0.,0.,1.));
#345 = DIRECTION('',(1.,0.,-0.));
#346 = FACE_BOUND('',#347,.F.);
#347 = EDGE_LOOP('',(#348,#358,#366));
#348 = ORIENTED_EDGE('',*,*,#349,.T.);
#349 = EDGE_CURVE('',#350,#352,#354,.T.);
#350 = VERTEX_POINT('',#351);
#351 = CARTESIAN_POINT('',(-8.913116961651,35.910393287017,0.));
#352 = VERTEX_POINT('',#353);
#353 = CARTESIAN_POINT('',(-21.78044118837,46.765825914604,0.));
#354 = LINE('',#355,#356);
#355 = CARTESIAN_POINT('',(-8.869442863437,35.873547924113,-4.4E-16));
#356 = VECTOR('',#357,1.);
#357 = DIRECTION('',(-0.764331655488,0.644823324965,0.));
#358 = ORIENTED_EDGE('',*,*,#359,.T.);
#359 = EDGE_CURVE('',#352,#360,#362,.T.);
#360 = VERTEX_POINT('',#361);
#361 = CARTESIAN_POINT('',(-5.372791349155,53.19455421418,0.));
#362 = LINE('',#363,#364);
#363 = CARTESIAN_POINT('',(-21.05182611941,47.051306672617,0.));
#364 = VECTOR('',#365,1.);
#365 = DIRECTION('',(0.931082019294,0.364809913992,0.));
#366 = ORIENTED_EDGE('',*,*,#367,.T.);
#367 = EDGE_CURVE('',#360,#350,#368,.T.);
#368 = LINE('',#369,#370);
#369 = CARTESIAN_POINT('',(-7.800799652242,41.34081790955,0.));
#370 = VECTOR('',#371,1.);
#371 = DIRECTION('',(-0.200664386535,-0.979660045106,0.));
#372 = FACE_BOUND('',#373,.F.);
#373 = EDGE_LOOP('',(#374,#384,#392));
#374 = ORIENTED_EDGE('',*,*,#375,.F.);
#375 = EDGE_CURVE('',#376,#378,#380,.T.);
#376 = VERTEX_POINT('',#377);
#377 = CARTESIAN_POINT('',(-0.717381252684,55.018603784142,0.));
#378 = VERTEX_POINT('',#379);
#379 = CARTESIAN_POINT('',(-4.463491177932,36.729786910688,0.));
#380 = LINE('',#381,#382);
#381 = CARTESIAN_POINT('',(-3.418405844162,41.831979496558,0.));
#382 = VECTOR('',#383,1.);
#383 = DIRECTION('',(-0.200664386534,-0.979660045106,0.));
#384 = ORIENTED_EDGE('',*,*,#385,.F.);
#385 = EDGE_CURVE('',#386,#376,#388,.T.);
#386 = VERTEX_POINT('',#387);
#387 = CARTESIAN_POINT('',(11.93043798227,35.023772634478,0.));
#388 = LINE('',#389,#390);
#389 = CARTESIAN_POINT('',(9.377124126009,39.060285054521,-4.4E-16));
#390 = VECTOR('',#391,1.);
#391 = DIRECTION('',(-0.534582189172,0.845116490799,0.));
#392 = ORIENTED_EDGE('',*,*,#393,.T.);
#393 = EDGE_CURVE('',#386,#378,#394,.T.);
#394 = CIRCLE('',#395,37.);
#395 = AXIS2_PLACEMENT_3D('',#396,#397,#398);
#396 = CARTESIAN_POINT('',(0.,0.,0.));
#397 = DIRECTION('',(0.,0.,1.));
#398 = DIRECTION('',(1.,0.,-0.));
#399 = FACE_BOUND('',#400,.F.);
#400 = EDGE_LOOP('',(#401,#411,#419));
#401 = ORIENTED_EDGE('',*,*,#402,.T.);
#402 = EDGE_CURVE('',#403,#405,#407,.T.);
#403 = VERTEX_POINT('',#404);
#404 = CARTESIAN_POINT('',(20.345678683002,30.903937595847,0.));
#405 = VERTEX_POINT('',#406);
#406 = CARTESIAN_POINT('',(3.938028843787,56.842653354104,0.));
#407 = LINE('',#408,#409);
#408 = CARTESIAN_POINT('',(15.65928076856,38.312624679251,0.));
#409 = VECTOR('',#410,1.);
#410 = DIRECTION('',(-0.534582189172,0.845116490799,0.));
#411 = ORIENTED_EDGE('',*,*,#412,.T.);
#412 = EDGE_CURVE('',#405,#413,#415,.T.);
#413 = VERTEX_POINT('',#414);
#414 = CARTESIAN_POINT('',(20.345678683002,63.27138165368,0.));
#415 = LINE('',#416,#417);
#416 = CARTESIAN_POINT('',(-8.192591103333,52.089720392367,0.));
#417 = VECTOR('',#418,1.);
#418 = DIRECTION('',(0.931082019294,0.364809913992,0.));
#419 = ORIENTED_EDGE('',*,*,#420,.T.);
#420 = EDGE_CURVE('',#413,#403,#421,.T.);
#421 = LINE('',#422,#423);
#422 = CARTESIAN_POINT('',(20.345678683002,46.724495846566,0.));
#423 = VECTOR('',#424,1.);
#424 = DIRECTION('',(0.,-1.,0.));
#425 = PLANE('',#426);
#426 = AXIS2_PLACEMENT_3D('',#427,#428,#429);
#427 = CARTESIAN_POINT('',(-13.60002458724,30.177610039452,0.));
#428 = DIRECTION('',(0.,0.,1.));
#429 = DIRECTION('',(1.,0.,0.));
#430 = ADVANCED_FACE('',(#431,#642,#668,#704,#730,#756,#783,#809,#836),
  #862,.T.);
#431 = FACE_BOUND('',#432,.T.);
#432 = EDGE_LOOP('',(#433,#434,#435,#443,#451,#459,#467,#475,#483,#491,
    #499,#507,#515,#523,#531,#539,#547,#555,#563,#571,#579,#587,#595,
    #603,#611,#619,#627,#635,#641));
#433 = ORIENTED_EDGE('',*,*,#31,.F.);
#434 = ORIENTED_EDGE('',*,*,#64,.T.);
#435 = ORIENTED_EDGE('',*,*,#436,.T.);
#436 = EDGE_CURVE('',#65,#437,#439,.T.);
#437 = VERTEX_POINT('',#438);
#438 = CARTESIAN_POINT('',(31.345678683002,31.35,3.));
#439 = LINE('',#440,#441);
#440 = CARTESIAN_POINT('',(31.345678683002,14.85,3.));
#441 = VECTOR('',#442,1.);
#442 = DIRECTION('',(0.,1.,0.));
#443 = ORIENTED_EDGE('',*,*,#444,.T.);
#444 = EDGE_CURVE('',#437,#445,#447,.T.);
#445 = VERTEX_POINT('',#446);
#446 = CARTESIAN_POINT('',(28.345678683002,31.35,3.));
#447 = LINE('',#448,#449);
#448 = CARTESIAN_POINT('',(31.345678683002,31.35,3.));
#449 = VECTOR('',#450,1.);
#450 = DIRECTION('',(-1.,0.,0.));
#451 = ORIENTED_EDGE('',*,*,#452,.T.);
#452 = EDGE_CURVE('',#445,#453,#455,.T.);
#453 = VERTEX_POINT('',#454);
#454 = CARTESIAN_POINT('',(28.345678683002,31.45,3.));
#455 = LINE('',#456,#457);
#456 = CARTESIAN_POINT('',(28.345678683002,31.35,3.));
#457 = VECTOR('',#458,1.);
#458 = DIRECTION('',(0.,1.,0.));
#459 = ORIENTED_EDGE('',*,*,#460,.F.);
#460 = EDGE_CURVE('',#461,#453,#463,.T.);
#461 = VERTEX_POINT('',#462);
#462 = CARTESIAN_POINT('',(25.345678683002,31.45,3.));
#463 = LINE('',#464,#465);
#464 = CARTESIAN_POINT('',(25.345678683002,31.45,3.));
#465 = VECTOR('',#466,1.);
#466 = DIRECTION('',(1.,0.,0.));
#467 = ORIENTED_EDGE('',*,*,#468,.F.);
#468 = EDGE_CURVE('',#469,#461,#471,.T.);
#469 = VERTEX_POINT('',#470);
#470 = CARTESIAN_POINT('',(25.345678683002,41.45,3.));
#471 = LINE('',#472,#473);
#472 = CARTESIAN_POINT('',(25.345678683002,41.45,3.));
#473 = VECTOR('',#474,1.);
#474 = DIRECTION('',(0.,-1.,0.));
#475 = ORIENTED_EDGE('',*,*,#476,.F.);
#476 = EDGE_CURVE('',#477,#469,#479,.T.);
#477 = VERTEX_POINT('',#478);
#478 = CARTESIAN_POINT('',(28.345678683002,41.45,3.));
#479 = LINE('',#480,#481);
#480 = CARTESIAN_POINT('',(28.345678683002,41.45,3.));
#481 = VECTOR('',#482,1.);
#482 = DIRECTION('',(-1.,0.,0.));
#483 = ORIENTED_EDGE('',*,*,#484,.T.);
#484 = EDGE_CURVE('',#477,#485,#487,.T.);
#485 = VERTEX_POINT('',#486);
#486 = CARTESIAN_POINT('',(28.345678683002,54.85,3.));
#487 = LINE('',#488,#489);
#488 = CARTESIAN_POINT('',(28.345678683002,31.35,3.));
#489 = VECTOR('',#490,1.);
#490 = DIRECTION('',(0.,1.,0.));
#491 = ORIENTED_EDGE('',*,*,#492,.F.);
#492 = EDGE_CURVE('',#493,#485,#495,.T.);
#493 = VERTEX_POINT('',#494);
#494 = CARTESIAN_POINT('',(25.345678683002,54.85,3.));
#495 = LINE('',#496,#497);
#496 = CARTESIAN_POINT('',(25.345678683002,54.85,3.));
#497 = VECTOR('',#498,1.);
#498 = DIRECTION('',(1.,0.,0.));
#499 = ORIENTED_EDGE('',*,*,#500,.F.);
#500 = EDGE_CURVE('',#501,#493,#503,.T.);
#501 = VERTEX_POINT('',#502);
#502 = CARTESIAN_POINT('',(25.345678683002,64.85,3.));
#503 = LINE('',#504,#505);
#504 = CARTESIAN_POINT('',(25.345678683002,64.85,3.));
#505 = VECTOR('',#506,1.);
#506 = DIRECTION('',(0.,-1.,0.));
#507 = ORIENTED_EDGE('',*,*,#508,.F.);
#508 = EDGE_CURVE('',#509,#501,#511,.T.);
#509 = VERTEX_POINT('',#510);
#510 = CARTESIAN_POINT('',(28.345678683002,64.85,3.));
#511 = LINE('',#512,#513);
#512 = CARTESIAN_POINT('',(28.345678683002,64.85,3.));
#513 = VECTOR('',#514,1.);
#514 = DIRECTION('',(-1.,0.,0.));
#515 = ORIENTED_EDGE('',*,*,#516,.T.);
#516 = EDGE_CURVE('',#509,#517,#519,.T.);
#517 = VERTEX_POINT('',#518);
#518 = CARTESIAN_POINT('',(28.345678683002,72.85,3.));
#519 = LINE('',#520,#521);
#520 = CARTESIAN_POINT('',(28.345678683002,31.35,3.));
#521 = VECTOR('',#522,1.);
#522 = DIRECTION('',(0.,1.,0.));
#523 = ORIENTED_EDGE('',*,*,#524,.T.);
#524 = EDGE_CURVE('',#517,#525,#527,.T.);
#525 = VERTEX_POINT('',#526);
#526 = CARTESIAN_POINT('',(16.241612432178,68.107471118098,3.));
#527 = LINE('',#528,#529);
#528 = CARTESIAN_POINT('',(28.345678683002,72.85,3.));
#529 = VECTOR('',#530,1.);
#530 = DIRECTION('',(-0.931082019294,-0.364809913992,0.));
#531 = ORIENTED_EDGE('',*,*,#532,.F.);
#532 = EDGE_CURVE('',#533,#525,#535,.T.);
#533 = VERTEX_POINT('',#534);
#534 = CARTESIAN_POINT('',(17.700852088142,64.38314304092,3.));
#535 = LINE('',#536,#537);
#536 = CARTESIAN_POINT('',(17.700852088142,64.38314304092,3.));
#537 = VECTOR('',#538,1.);
#538 = DIRECTION('',(-0.364809913991,0.931082019295,0.));
#539 = ORIENTED_EDGE('',*,*,#540,.F.);
#540 = EDGE_CURVE('',#541,#533,#543,.T.);
#541 = VERTEX_POINT('',#542);
#542 = CARTESIAN_POINT('',(10.25219593379,61.46466372898,3.));
#543 = LINE('',#544,#545);
#544 = CARTESIAN_POINT('',(10.25219593379,61.46466372898,3.));
#545 = VECTOR('',#546,1.);
#546 = DIRECTION('',(0.931082019294,0.364809913993,0.));
#547 = ORIENTED_EDGE('',*,*,#548,.F.);
#548 = EDGE_CURVE('',#549,#541,#551,.T.);
#549 = VERTEX_POINT('',#550);
#550 = CARTESIAN_POINT('',(8.792956277821,65.188991806157,3.));
#551 = LINE('',#552,#553);
#552 = CARTESIAN_POINT('',(8.792956277821,65.188991806157,3.));
#553 = VECTOR('',#554,1.);
#554 = DIRECTION('',(0.364809913992,-0.931082019294,0.));
#555 = ORIENTED_EDGE('',*,*,#556,.T.);
#556 = EDGE_CURVE('',#549,#557,#559,.T.);
#557 = VERTEX_POINT('',#558);
#558 = CARTESIAN_POINT('',(-37.60159891182,47.011008193841,3.));
#559 = LINE('',#560,#561);
#560 = CARTESIAN_POINT('',(28.345678683002,72.85,3.));
#561 = VECTOR('',#562,1.);
#562 = DIRECTION('',(-0.931082019294,-0.364809913992,0.));
#563 = ORIENTED_EDGE('',*,*,#564,.F.);
#564 = EDGE_CURVE('',#565,#557,#567,.T.);
#565 = VERTEX_POINT('',#566);
#566 = CARTESIAN_POINT('',(-36.14235925585,43.286680116665,3.));
#567 = LINE('',#568,#569);
#568 = CARTESIAN_POINT('',(-36.14235925585,43.286680116665,3.));
#569 = VECTOR('',#570,1.);
#570 = DIRECTION('',(-0.364809913992,0.931082019294,0.));
#571 = ORIENTED_EDGE('',*,*,#572,.F.);
#572 = EDGE_CURVE('',#573,#565,#575,.T.);
#573 = VERTEX_POINT('',#574);
#574 = CARTESIAN_POINT('',(-43.5910154102,40.368200804725,3.));
#575 = LINE('',#576,#577);
#576 = CARTESIAN_POINT('',(-43.5910154102,40.368200804725,3.));
#577 = VECTOR('',#578,1.);
#578 = DIRECTION('',(0.931082019294,0.364809913992,0.));
#579 = ORIENTED_EDGE('',*,*,#580,.F.);
#580 = EDGE_CURVE('',#581,#573,#583,.T.);
#581 = VERTEX_POINT('',#582);
#582 = CARTESIAN_POINT('',(-45.05025506617,44.092528881902,3.));
#583 = LINE('',#584,#585);
#584 = CARTESIAN_POINT('',(-45.05025506617,44.092528881902,3.));
#585 = VECTOR('',#586,1.);
#586 = DIRECTION('',(0.364809913992,-0.931082019294,0.));
#587 = ORIENTED_EDGE('',*,*,#588,.T.);
#588 = EDGE_CURVE('',#581,#589,#591,.T.);
#589 = VERTEX_POINT('',#590);
#590 = CARTESIAN_POINT('',(-57.15432131699,39.35,3.));
#591 = LINE('',#592,#593);
#592 = CARTESIAN_POINT('',(28.345678683002,72.85,3.));
#593 = VECTOR('',#594,1.);
#594 = DIRECTION('',(-0.931082019294,-0.364809913992,0.));
#595 = ORIENTED_EDGE('',*,*,#596,.T.);
#596 = EDGE_CURVE('',#589,#597,#599,.T.);
#597 = VERTEX_POINT('',#598);
#598 = CARTESIAN_POINT('',(-57.15432131699,-12.15,3.));
#599 = LINE('',#600,#601);
#600 = CARTESIAN_POINT('',(-57.15432131699,39.35,3.));
#601 = VECTOR('',#602,1.);
#602 = DIRECTION('',(0.,-1.,0.));
#603 = ORIENTED_EDGE('',*,*,#604,.T.);
#604 = EDGE_CURVE('',#597,#605,#607,.T.);
#605 = VERTEX_POINT('',#606);
#606 = CARTESIAN_POINT('',(-34.65432131699,-12.15,3.));
#607 = LINE('',#608,#609);
#608 = CARTESIAN_POINT('',(-57.15432131699,-12.15,3.));
#609 = VECTOR('',#610,1.);
#610 = DIRECTION('',(1.,0.,0.));
#611 = ORIENTED_EDGE('',*,*,#612,.T.);
#612 = EDGE_CURVE('',#605,#613,#615,.T.);
#613 = VERTEX_POINT('',#614);
#614 = CARTESIAN_POINT('',(-33.03432131699,-2.65,3.));
#615 = LINE('',#616,#617);
#616 = CARTESIAN_POINT('',(-34.65432131699,-12.15,3.));
#617 = VECTOR('',#618,1.);
#618 = DIRECTION('',(0.168099725401,0.985769994634,0.));
#619 = ORIENTED_EDGE('',*,*,#620,.T.);
#620 = EDGE_CURVE('',#613,#621,#623,.T.);
#621 = VERTEX_POINT('',#622);
#622 = CARTESIAN_POINT('',(-35.15432131699,-2.65,3.));
#623 = LINE('',#624,#625);
#624 = CARTESIAN_POINT('',(-33.03432131699,-2.65,3.));
#625 = VECTOR('',#626,1.);
#626 = DIRECTION('',(-1.,0.,0.));
#627 = ORIENTED_EDGE('',*,*,#628,.T.);
#628 = EDGE_CURVE('',#621,#629,#631,.T.);
#629 = VERTEX_POINT('',#630);
#630 = CARTESIAN_POINT('',(-35.15432131699,3.35,3.));
#631 = LINE('',#632,#633);
#632 = CARTESIAN_POINT('',(-35.15432131699,-2.65,3.));
#633 = VECTOR('',#634,1.);
#634 = DIRECTION('',(0.,1.,0.));
#635 = ORIENTED_EDGE('',*,*,#636,.T.);
#636 = EDGE_CURVE('',#629,#97,#637,.T.);
#637 = LINE('',#638,#639);
#638 = CARTESIAN_POINT('',(-35.15432131699,3.35,3.));
#639 = VECTOR('',#640,1.);
#640 = DIRECTION('',(1.,0.,0.));
#641 = ORIENTED_EDGE('',*,*,#104,.T.);
#642 = FACE_BOUND('',#643,.T.);
#643 = EDGE_LOOP('',(#644,#654,#662));
#644 = ORIENTED_EDGE('',*,*,#645,.F.);
#645 = EDGE_CURVE('',#646,#648,#650,.T.);
#646 = VERTEX_POINT('',#647);
#647 = CARTESIAN_POINT('',(-52.15432131699,7.85,3.));
#648 = VERTEX_POINT('',#649);
#649 = CARTESIAN_POINT('',(-52.15432131699,-7.164948905142,3.));
#650 = LINE('',#651,#652);
#651 = CARTESIAN_POINT('',(-52.15432131699,7.85,3.));
#652 = VECTOR('',#653,1.);
#653 = DIRECTION('',(0.,-1.,0.));
#654 = ORIENTED_EDGE('',*,*,#655,.F.);
#655 = EDGE_CURVE('',#656,#646,#658,.T.);
#656 = VERTEX_POINT('',#657);
#657 = CARTESIAN_POINT('',(-37.65432131699,7.85,3.));
#658 = LINE('',#659,#660);
#659 = CARTESIAN_POINT('',(-37.65432131699,7.85,3.));
#660 = VECTOR('',#661,1.);
#661 = DIRECTION('',(-1.,0.,0.));
#662 = ORIENTED_EDGE('',*,*,#663,.F.);
#663 = EDGE_CURVE('',#648,#656,#664,.T.);
#664 = LINE('',#665,#666);
#665 = CARTESIAN_POINT('',(-52.15432131699,-7.164948905142,3.));
#666 = VECTOR('',#667,1.);
#667 = DIRECTION('',(0.694664131316,0.719334237099,0.));
#668 = FACE_BOUND('',#669,.T.);
#669 = EDGE_LOOP('',(#670,#681,#689,#698));
#670 = ORIENTED_EDGE('',*,*,#671,.F.);
#671 = EDGE_CURVE('',#672,#674,#676,.T.);
#672 = VERTEX_POINT('',#673);
#673 = CARTESIAN_POINT('',(-52.90432131699,14.45,3.));
#674 = VERTEX_POINT('',#675);
#675 = CARTESIAN_POINT('',(-52.90432131699,11.25,3.));
#676 = CIRCLE('',#677,1.6);
#677 = AXIS2_PLACEMENT_3D('',#678,#679,#680);
#678 = CARTESIAN_POINT('',(-52.90432131699,12.85,3.));
#679 = DIRECTION('',(0.,0.,1.));
#680 = DIRECTION('',(1.,0.,0.));
#681 = ORIENTED_EDGE('',*,*,#682,.T.);
#682 = EDGE_CURVE('',#672,#683,#685,.T.);
#683 = VERTEX_POINT('',#684);
#684 = CARTESIAN_POINT('',(-51.15432131699,14.45,3.));
#685 = LINE('',#686,#687);
#686 = CARTESIAN_POINT('',(-52.90432131699,14.45,3.));
#687 = VECTOR('',#688,1.);
#688 = DIRECTION('',(1.,0.,0.));
#689 = ORIENTED_EDGE('',*,*,#690,.F.);
#690 = EDGE_CURVE('',#691,#683,#693,.T.);
#691 = VERTEX_POINT('',#692);
#692 = CARTESIAN_POINT('',(-51.15432131699,11.25,3.));
#693 = CIRCLE('',#694,1.6);
#694 = AXIS2_PLACEMENT_3D('',#695,#696,#697);
#695 = CARTESIAN_POINT('',(-51.15432131699,12.85,3.));
#696 = DIRECTION('',(0.,0.,1.));
#697 = DIRECTION('',(1.,0.,0.));
#698 = ORIENTED_EDGE('',*,*,#699,.F.);
#699 = EDGE_CURVE('',#674,#691,#700,.T.);
#700 = LINE('',#701,#702);
#701 = CARTESIAN_POINT('',(-52.90432131699,11.25,3.));
#702 = VECTOR('',#703,1.);
#703 = DIRECTION('',(1.,0.,0.));
#704 = FACE_BOUND('',#705,.T.);
#705 = EDGE_LOOP('',(#706,#716,#724));
#706 = ORIENTED_EDGE('',*,*,#707,.F.);
#707 = EDGE_CURVE('',#708,#710,#712,.T.);
#708 = VERTEX_POINT('',#709);
#709 = CARTESIAN_POINT('',(-52.15432131699,34.864948905142,3.));
#710 = VERTEX_POINT('',#711);
#711 = CARTESIAN_POINT('',(-52.15432131699,19.85,3.));
#712 = LINE('',#713,#714);
#713 = CARTESIAN_POINT('',(-52.15432131699,34.864948905142,3.));
#714 = VECTOR('',#715,1.);
#715 = DIRECTION('',(0.,-1.,0.));
#716 = ORIENTED_EDGE('',*,*,#717,.F.);
#717 = EDGE_CURVE('',#718,#708,#720,.T.);
#718 = VERTEX_POINT('',#719);
#719 = CARTESIAN_POINT('',(-37.65432131699,19.85,3.));
#720 = LINE('',#721,#722);
#721 = CARTESIAN_POINT('',(-37.65432131699,19.85,3.));
#722 = VECTOR('',#723,1.);
#723 = DIRECTION('',(-0.694664131316,0.719334237099,0.));
#724 = ORIENTED_EDGE('',*,*,#725,.F.);
#725 = EDGE_CURVE('',#710,#718,#726,.T.);
#726 = LINE('',#727,#728);
#727 = CARTESIAN_POINT('',(-52.15432131699,19.85,3.));
#728 = VECTOR('',#729,1.);
#729 = DIRECTION('',(1.,0.,0.));
#730 = FACE_BOUND('',#731,.T.);
#731 = EDGE_LOOP('',(#732,#742,#750));
#732 = ORIENTED_EDGE('',*,*,#733,.T.);
#733 = EDGE_CURVE('',#734,#736,#738,.T.);
#734 = VERTEX_POINT('',#735);
#735 = CARTESIAN_POINT('',(-32.09533126287,21.527868423306,3.));
#736 = VERTEX_POINT('',#737);
#737 = CARTESIAN_POINT('',(-47.49891122052,36.688998475104,3.));
#738 = LINE('',#739,#740);
#739 = CARTESIAN_POINT('',(-32.09533126287,21.527868423306,3.));
#740 = VECTOR('',#741,1.);
#741 = DIRECTION('',(-0.712693376263,0.701475695538,0.));
#742 = ORIENTED_EDGE('',*,*,#743,.T.);
#743 = EDGE_CURVE('',#736,#744,#746,.T.);
#744 = VERTEX_POINT('',#745);
#745 = CARTESIAN_POINT('',(-31.09126138131,43.11772677468,3.));
#746 = LINE('',#747,#748);
#747 = CARTESIAN_POINT('',(-47.49891122052,36.688998475104,3.));
#748 = VECTOR('',#749,1.);
#749 = DIRECTION('',(0.931082019294,0.364809913992,0.));
#750 = ORIENTED_EDGE('',*,*,#751,.T.);
#751 = EDGE_CURVE('',#744,#734,#752,.T.);
#752 = LINE('',#753,#754);
#753 = CARTESIAN_POINT('',(-31.09126138131,43.11772677468,3.));
#754 = VECTOR('',#755,1.);
#755 = DIRECTION('',(-4.645634040006E-02,-0.998920321365,0.));
#756 = FACE_BOUND('',#757,.T.);
#757 = EDGE_LOOP('',(#758,#768,#776));
#758 = ORIENTED_EDGE('',*,*,#759,.F.);
#759 = EDGE_CURVE('',#760,#762,#764,.T.);
#760 = VERTEX_POINT('',#761);
#761 = CARTESIAN_POINT('',(-26.43585128484,44.941776344642,3.));
#762 = VERTEX_POINT('',#763);
#763 = CARTESIAN_POINT('',(-27.36793832859,24.899717902862,3.));
#764 = LINE('',#765,#766);
#765 = CARTESIAN_POINT('',(-26.43585128484,44.941776344642,3.));
#766 = VECTOR('',#767,1.);
#767 = DIRECTION('',(-4.645634040006E-02,-0.998920321365,0.));
#768 = ORIENTED_EDGE('',*,*,#769,.F.);
#769 = EDGE_CURVE('',#770,#760,#772,.T.);
#770 = VERTEX_POINT('',#771);
#771 = CARTESIAN_POINT('',(-13.83894572916,34.314480632895,3.));
#772 = LINE('',#773,#774);
#773 = CARTESIAN_POINT('',(-13.83894572916,34.314480632895,3.));
#774 = VECTOR('',#775,1.);
#775 = DIRECTION('',(-0.764331655487,0.644823324967,0.));
#776 = ORIENTED_EDGE('',*,*,#777,.T.);
#777 = EDGE_CURVE('',#770,#762,#778,.T.);
#778 = CIRCLE('',#779,37.);
#779 = AXIS2_PLACEMENT_3D('',#780,#781,#782);
#780 = CARTESIAN_POINT('',(0.,0.,3.));
#781 = DIRECTION('',(0.,0.,1.));
#782 = DIRECTION('',(1.,0.,0.));
#783 = FACE_BOUND('',#784,.T.);
#784 = EDGE_LOOP('',(#785,#795,#803));
#785 = ORIENTED_EDGE('',*,*,#786,.T.);
#786 = EDGE_CURVE('',#787,#789,#791,.T.);
#787 = VERTEX_POINT('',#788);
#788 = CARTESIAN_POINT('',(-8.913116961651,35.910393287017,3.));
#789 = VERTEX_POINT('',#790);
#790 = CARTESIAN_POINT('',(-21.78044118837,46.765825914604,3.));
#791 = LINE('',#792,#793);
#792 = CARTESIAN_POINT('',(-8.913116961651,35.910393287017,3.));
#793 = VECTOR('',#794,1.);
#794 = DIRECTION('',(-0.764331655488,0.644823324965,0.));
#795 = ORIENTED_EDGE('',*,*,#796,.T.);
#796 = EDGE_CURVE('',#789,#797,#799,.T.);
#797 = VERTEX_POINT('',#798);
#798 = CARTESIAN_POINT('',(-5.372791349155,53.19455421418,3.));
#799 = LINE('',#800,#801);
#800 = CARTESIAN_POINT('',(-21.78044118837,46.765825914604,3.));
#801 = VECTOR('',#802,1.);
#802 = DIRECTION('',(0.931082019294,0.364809913992,0.));
#803 = ORIENTED_EDGE('',*,*,#804,.T.);
#804 = EDGE_CURVE('',#797,#787,#805,.T.);
#805 = LINE('',#806,#807);
#806 = CARTESIAN_POINT('',(-5.372791349155,53.19455421418,3.));
#807 = VECTOR('',#808,1.);
#808 = DIRECTION('',(-0.200664386535,-0.979660045106,0.));
#809 = FACE_BOUND('',#810,.T.);
#810 = EDGE_LOOP('',(#811,#821,#829));
#811 = ORIENTED_EDGE('',*,*,#812,.F.);
#812 = EDGE_CURVE('',#813,#815,#817,.T.);
#813 = VERTEX_POINT('',#814);
#814 = CARTESIAN_POINT('',(-0.717381252684,55.018603784142,3.));
#815 = VERTEX_POINT('',#816);
#816 = CARTESIAN_POINT('',(-4.463491177932,36.729786910688,3.));
#817 = LINE('',#818,#819);
#818 = CARTESIAN_POINT('',(-0.717381252684,55.018603784142,3.));
#819 = VECTOR('',#820,1.);
#820 = DIRECTION('',(-0.200664386534,-0.979660045106,0.));
#821 = ORIENTED_EDGE('',*,*,#822,.F.);
#822 = EDGE_CURVE('',#823,#813,#825,.T.);
#823 = VERTEX_POINT('',#824);
#824 = CARTESIAN_POINT('',(11.93043798227,35.023772634478,3.));
#825 = LINE('',#826,#827);
#826 = CARTESIAN_POINT('',(11.930437982289,35.023772634478,3.));
#827 = VECTOR('',#828,1.);
#828 = DIRECTION('',(-0.534582189172,0.845116490799,0.));
#829 = ORIENTED_EDGE('',*,*,#830,.T.);
#830 = EDGE_CURVE('',#823,#815,#831,.T.);
#831 = CIRCLE('',#832,37.);
#832 = AXIS2_PLACEMENT_3D('',#833,#834,#835);
#833 = CARTESIAN_POINT('',(0.,0.,3.));
#834 = DIRECTION('',(0.,0.,1.));
#835 = DIRECTION('',(1.,0.,0.));
#836 = FACE_BOUND('',#837,.T.);
#837 = EDGE_LOOP('',(#838,#848,#856));
#838 = ORIENTED_EDGE('',*,*,#839,.T.);
#839 = EDGE_CURVE('',#840,#842,#844,.T.);
#840 = VERTEX_POINT('',#841);
#841 = CARTESIAN_POINT('',(20.345678683002,30.903937595847,3.));
#842 = VERTEX_POINT('',#843);
#843 = CARTESIAN_POINT('',(3.938028843787,56.842653354104,3.));
#844 = LINE('',#845,#846);
#845 = CARTESIAN_POINT('',(20.345678683002,30.903937595847,3.));
#846 = VECTOR('',#847,1.);
#847 = DIRECTION('',(-0.534582189172,0.845116490799,0.));
#848 = ORIENTED_EDGE('',*,*,#849,.T.);
#849 = EDGE_CURVE('',#842,#850,#852,.T.);
#850 = VERTEX_POINT('',#851);
#851 = CARTESIAN_POINT('',(20.345678683002,63.27138165368,3.));
#852 = LINE('',#853,#854);
#853 = CARTESIAN_POINT('',(3.938028843787,56.842653354104,3.));
#854 = VECTOR('',#855,1.);
#855 = DIRECTION('',(0.931082019294,0.364809913992,0.));
#856 = ORIENTED_EDGE('',*,*,#857,.T.);
#857 = EDGE_CURVE('',#850,#840,#858,.T.);
#858 = LINE('',#859,#860);
#859 = CARTESIAN_POINT('',(20.345678683002,63.27138165368,3.));
#860 = VECTOR('',#861,1.);
#861 = DIRECTION('',(0.,-1.,0.));
#862 = PLANE('',#863);
#863 = AXIS2_PLACEMENT_3D('',#864,#865,#866);
#864 = CARTESIAN_POINT('',(-13.60002458724,30.177610039452,3.));
#865 = DIRECTION('',(0.,0.,1.));
#866 = DIRECTION('',(1.,0.,0.));
#867 = ADVANCED_FACE('',(#868),#879,.F.);
#868 = FACE_BOUND('',#869,.F.);
#869 = EDGE_LOOP('',(#870,#871,#872,#878));
#870 = ORIENTED_EDGE('',*,*,#72,.T.);
#871 = ORIENTED_EDGE('',*,*,#436,.T.);
#872 = ORIENTED_EDGE('',*,*,#873,.F.);
#873 = EDGE_CURVE('',#128,#437,#874,.T.);
#874 = LINE('',#875,#876);
#875 = CARTESIAN_POINT('',(31.345678683002,31.35,0.));
#876 = VECTOR('',#877,1.);
#877 = DIRECTION('',(0.,0.,1.));
#878 = ORIENTED_EDGE('',*,*,#127,.F.);
#879 = PLANE('',#880);
#880 = AXIS2_PLACEMENT_3D('',#881,#882,#883);
#881 = CARTESIAN_POINT('',(31.345678683002,14.85,0.));
#882 = DIRECTION('',(-1.,0.,0.));
#883 = DIRECTION('',(0.,1.,0.));
#884 = ADVANCED_FACE('',(#885),#896,.F.);
#885 = FACE_BOUND('',#886,.F.);
#886 = EDGE_LOOP('',(#887,#893,#894,#895));
#887 = ORIENTED_EDGE('',*,*,#888,.T.);
#888 = EDGE_CURVE('',#192,#629,#889,.T.);
#889 = LINE('',#890,#891);
#890 = CARTESIAN_POINT('',(-35.15432131699,3.35,0.));
#891 = VECTOR('',#892,1.);
#892 = DIRECTION('',(0.,0.,1.));
#893 = ORIENTED_EDGE('',*,*,#636,.T.);
#894 = ORIENTED_EDGE('',*,*,#94,.F.);
#895 = ORIENTED_EDGE('',*,*,#199,.F.);
#896 = PLANE('',#897);
#897 = AXIS2_PLACEMENT_3D('',#898,#899,#900);
#898 = CARTESIAN_POINT('',(-35.15432131699,3.35,0.));
#899 = DIRECTION('',(0.,1.,0.));
#900 = DIRECTION('',(1.,0.,0.));
#901 = ADVANCED_FACE('',(#902),#913,.F.);
#902 = FACE_BOUND('',#903,.F.);
#903 = EDGE_LOOP('',(#904,#905,#906,#912));
#904 = ORIENTED_EDGE('',*,*,#873,.T.);
#905 = ORIENTED_EDGE('',*,*,#444,.T.);
#906 = ORIENTED_EDGE('',*,*,#907,.F.);
#907 = EDGE_CURVE('',#136,#445,#908,.T.);
#908 = LINE('',#909,#910);
#909 = CARTESIAN_POINT('',(28.345678683002,31.35,0.));
#910 = VECTOR('',#911,1.);
#911 = DIRECTION('',(0.,0.,1.));
#912 = ORIENTED_EDGE('',*,*,#135,.F.);
#913 = PLANE('',#914);
#914 = AXIS2_PLACEMENT_3D('',#915,#916,#917);
#915 = CARTESIAN_POINT('',(31.345678683002,31.35,0.));
#916 = DIRECTION('',(0.,-1.,0.));
#917 = DIRECTION('',(-1.,0.,0.));
#918 = ADVANCED_FACE('',(#919),#930,.F.);
#919 = FACE_BOUND('',#920,.F.);
#920 = EDGE_LOOP('',(#921,#927,#928,#929));
#921 = ORIENTED_EDGE('',*,*,#922,.T.);
#922 = EDGE_CURVE('',#184,#621,#923,.T.);
#923 = LINE('',#924,#925);
#924 = CARTESIAN_POINT('',(-35.15432131699,-2.65,0.));
#925 = VECTOR('',#926,1.);
#926 = DIRECTION('',(0.,0.,1.));
#927 = ORIENTED_EDGE('',*,*,#628,.T.);
#928 = ORIENTED_EDGE('',*,*,#888,.F.);
#929 = ORIENTED_EDGE('',*,*,#191,.F.);
#930 = PLANE('',#931);
#931 = AXIS2_PLACEMENT_3D('',#932,#933,#934);
#932 = CARTESIAN_POINT('',(-35.15432131699,-2.65,0.));
#933 = DIRECTION('',(-1.,0.,0.));
#934 = DIRECTION('',(0.,1.,0.));
#935 = ADVANCED_FACE('',(#936,#993,#1004),#1015,.T.);
#936 = FACE_BOUND('',#937,.T.);
#937 = EDGE_LOOP('',(#938,#939,#940,#946,#947,#955,#963,#969,#970,#978,
    #986,#992));
#938 = ORIENTED_EDGE('',*,*,#907,.F.);
#939 = ORIENTED_EDGE('',*,*,#143,.T.);
#940 = ORIENTED_EDGE('',*,*,#941,.T.);
#941 = EDGE_CURVE('',#144,#517,#942,.T.);
#942 = LINE('',#943,#944);
#943 = CARTESIAN_POINT('',(28.345678683002,72.85,0.));
#944 = VECTOR('',#945,1.);
#945 = DIRECTION('',(0.,0.,1.));
#946 = ORIENTED_EDGE('',*,*,#516,.F.);
#947 = ORIENTED_EDGE('',*,*,#948,.T.);
#948 = EDGE_CURVE('',#509,#949,#951,.T.);
#949 = VERTEX_POINT('',#950);
#950 = CARTESIAN_POINT('',(28.345678683002,64.85,12.));
#951 = LINE('',#952,#953);
#952 = CARTESIAN_POINT('',(28.345678683002,64.85,3.));
#953 = VECTOR('',#954,1.);
#954 = DIRECTION('',(0.,0.,1.));
#955 = ORIENTED_EDGE('',*,*,#956,.F.);
#956 = EDGE_CURVE('',#957,#949,#959,.T.);
#957 = VERTEX_POINT('',#958);
#958 = CARTESIAN_POINT('',(28.345678683002,54.85,12.));
#959 = LINE('',#960,#961);
#960 = CARTESIAN_POINT('',(28.345678683002,54.85,12.));
#961 = VECTOR('',#962,1.);
#962 = DIRECTION('',(0.,1.,0.));
#963 = ORIENTED_EDGE('',*,*,#964,.F.);
#964 = EDGE_CURVE('',#485,#957,#965,.T.);
#965 = LINE('',#966,#967);
#966 = CARTESIAN_POINT('',(28.345678683002,54.85,3.));
#967 = VECTOR('',#968,1.);
#968 = DIRECTION('',(0.,0.,1.));
#969 = ORIENTED_EDGE('',*,*,#484,.F.);
#970 = ORIENTED_EDGE('',*,*,#971,.T.);
#971 = EDGE_CURVE('',#477,#972,#974,.T.);
#972 = VERTEX_POINT('',#973);
#973 = CARTESIAN_POINT('',(28.345678683002,41.45,12.));
#974 = LINE('',#975,#976);
#975 = CARTESIAN_POINT('',(28.345678683002,41.45,3.));
#976 = VECTOR('',#977,1.);
#977 = DIRECTION('',(0.,0.,1.));
#978 = ORIENTED_EDGE('',*,*,#979,.F.);
#979 = EDGE_CURVE('',#980,#972,#982,.T.);
#980 = VERTEX_POINT('',#981);
#981 = CARTESIAN_POINT('',(28.345678683002,31.45,12.));
#982 = LINE('',#983,#984);
#983 = CARTESIAN_POINT('',(28.345678683002,31.45,12.));
#984 = VECTOR('',#985,1.);
#985 = DIRECTION('',(0.,1.,0.));
#986 = ORIENTED_EDGE('',*,*,#987,.F.);
#987 = EDGE_CURVE('',#453,#980,#988,.T.);
#988 = LINE('',#989,#990);
#989 = CARTESIAN_POINT('',(28.345678683002,31.45,3.));
#990 = VECTOR('',#991,1.);
#991 = DIRECTION('',(0.,0.,1.));
#992 = ORIENTED_EDGE('',*,*,#452,.F.);
#993 = FACE_BOUND('',#994,.T.);
#994 = EDGE_LOOP('',(#995));
#995 = ORIENTED_EDGE('',*,*,#996,.F.);
#996 = EDGE_CURVE('',#997,#997,#999,.T.);
#997 = VERTEX_POINT('',#998);
#998 = CARTESIAN_POINT('',(28.345678683002,61.25,7.5));
#999 = CIRCLE('',#1000,1.4);
#1000 = AXIS2_PLACEMENT_3D('',#1001,#1002,#1003);
#1001 = CARTESIAN_POINT('',(28.345678683002,59.85,7.5));
#1002 = DIRECTION('',(1.,0.,0.));
#1003 = DIRECTION('',(0.,1.,0.));
#1004 = FACE_BOUND('',#1005,.T.);
#1005 = EDGE_LOOP('',(#1006));
#1006 = ORIENTED_EDGE('',*,*,#1007,.F.);
#1007 = EDGE_CURVE('',#1008,#1008,#1010,.T.);
#1008 = VERTEX_POINT('',#1009);
#1009 = CARTESIAN_POINT('',(28.345678683002,37.85,7.5));
#1010 = CIRCLE('',#1011,1.4);
#1011 = AXIS2_PLACEMENT_3D('',#1012,#1013,#1014);
#1012 = CARTESIAN_POINT('',(28.345678683002,36.45,7.5));
#1013 = DIRECTION('',(1.,0.,0.));
#1014 = DIRECTION('',(0.,1.,0.));
#1015 = PLANE('',#1016);
#1016 = AXIS2_PLACEMENT_3D('',#1017,#1018,#1019);
#1017 = CARTESIAN_POINT('',(28.345678683002,50.9624,4.668));
#1018 = DIRECTION('',(1.,0.,0.));
#1019 = DIRECTION('',(0.,0.,1.));
#1020 = ADVANCED_FACE('',(#1021),#1032,.F.);
#1021 = FACE_BOUND('',#1022,.F.);
#1022 = EDGE_LOOP('',(#1023,#1029,#1030,#1031));
#1023 = ORIENTED_EDGE('',*,*,#1024,.T.);
#1024 = EDGE_CURVE('',#176,#613,#1025,.T.);
#1025 = LINE('',#1026,#1027);
#1026 = CARTESIAN_POINT('',(-33.03432131699,-2.65,0.));
#1027 = VECTOR('',#1028,1.);
#1028 = DIRECTION('',(0.,0.,1.));
#1029 = ORIENTED_EDGE('',*,*,#620,.T.);
#1030 = ORIENTED_EDGE('',*,*,#922,.F.);
#1031 = ORIENTED_EDGE('',*,*,#183,.F.);
#1032 = PLANE('',#1033);
#1033 = AXIS2_PLACEMENT_3D('',#1034,#1035,#1036);
#1034 = CARTESIAN_POINT('',(-33.03432131699,-2.65,0.));
#1035 = DIRECTION('',(0.,-1.,0.));
#1036 = DIRECTION('',(-1.,0.,0.));
#1037 = ADVANCED_FACE('',(#1038,#1095,#1106),#1117,.T.);
#1038 = FACE_BOUND('',#1039,.T.);
#1039 = EDGE_LOOP('',(#1040,#1041,#1042,#1048,#1049,#1057,#1065,#1071,
    #1072,#1080,#1088,#1094));
#1040 = ORIENTED_EDGE('',*,*,#941,.F.);
#1041 = ORIENTED_EDGE('',*,*,#151,.T.);
#1042 = ORIENTED_EDGE('',*,*,#1043,.T.);
#1043 = EDGE_CURVE('',#152,#589,#1044,.T.);
#1044 = LINE('',#1045,#1046);
#1045 = CARTESIAN_POINT('',(-57.15432131699,39.35,0.));
#1046 = VECTOR('',#1047,1.);
#1047 = DIRECTION('',(0.,0.,1.));
#1048 = ORIENTED_EDGE('',*,*,#588,.F.);
#1049 = ORIENTED_EDGE('',*,*,#1050,.T.);
#1050 = EDGE_CURVE('',#581,#1051,#1053,.T.);
#1051 = VERTEX_POINT('',#1052);
#1052 = CARTESIAN_POINT('',(-45.05025506617,44.092528881902,11.));
#1053 = LINE('',#1054,#1055);
#1054 = CARTESIAN_POINT('',(-45.05025506617,44.092528881902,3.));
#1055 = VECTOR('',#1056,1.);
#1056 = DIRECTION('',(0.,0.,1.));
#1057 = ORIENTED_EDGE('',*,*,#1058,.F.);
#1058 = EDGE_CURVE('',#1059,#1051,#1061,.T.);
#1059 = VERTEX_POINT('',#1060);
#1060 = CARTESIAN_POINT('',(-37.60159891182,47.011008193841,11.));
#1061 = LINE('',#1062,#1063);
#1062 = CARTESIAN_POINT('',(-37.60159891182,47.011008193841,11.));
#1063 = VECTOR('',#1064,1.);
#1064 = DIRECTION('',(-0.931082019294,-0.364809913992,0.));
#1065 = ORIENTED_EDGE('',*,*,#1066,.F.);
#1066 = EDGE_CURVE('',#557,#1059,#1067,.T.);
#1067 = LINE('',#1068,#1069);
#1068 = CARTESIAN_POINT('',(-37.60159891182,47.011008193841,3.));
#1069 = VECTOR('',#1070,1.);
#1070 = DIRECTION('',(0.,0.,1.));
#1071 = ORIENTED_EDGE('',*,*,#556,.F.);
#1072 = ORIENTED_EDGE('',*,*,#1073,.T.);
#1073 = EDGE_CURVE('',#549,#1074,#1076,.T.);
#1074 = VERTEX_POINT('',#1075);
#1075 = CARTESIAN_POINT('',(8.792956277821,65.188991806157,11.));
#1076 = LINE('',#1077,#1078);
#1077 = CARTESIAN_POINT('',(8.792956277821,65.188991806157,3.));
#1078 = VECTOR('',#1079,1.);
#1079 = DIRECTION('',(0.,0.,1.));
#1080 = ORIENTED_EDGE('',*,*,#1081,.F.);
#1081 = EDGE_CURVE('',#1082,#1074,#1084,.T.);
#1082 = VERTEX_POINT('',#1083);
#1083 = CARTESIAN_POINT('',(16.241612432178,68.107471118098,11.));
#1084 = LINE('',#1085,#1086);
#1085 = CARTESIAN_POINT('',(16.241612432178,68.107471118098,11.));
#1086 = VECTOR('',#1087,1.);
#1087 = DIRECTION('',(-0.931082019294,-0.364809913992,0.));
#1088 = ORIENTED_EDGE('',*,*,#1089,.F.);
#1089 = EDGE_CURVE('',#525,#1082,#1090,.T.);
#1090 = LINE('',#1091,#1092);
#1091 = CARTESIAN_POINT('',(16.241612432178,68.107471118098,3.));
#1092 = VECTOR('',#1093,1.);
#1093 = DIRECTION('',(0.,0.,1.));
#1094 = ORIENTED_EDGE('',*,*,#524,.F.);
#1095 = FACE_BOUND('',#1096,.T.);
#1096 = EDGE_LOOP('',(#1097));
#1097 = ORIENTED_EDGE('',*,*,#1098,.F.);
#1098 = EDGE_CURVE('',#1099,#1099,#1101,.T.);
#1099 = VERTEX_POINT('',#1100);
#1100 = CARTESIAN_POINT('',(-42.62944181601,45.041034658282,7.));
#1101 = CIRCLE('',#1102,1.4);
#1102 = AXIS2_PLACEMENT_3D('',#1103,#1104,#1105);
#1103 = CARTESIAN_POINT('',(-41.32592698899,45.551768537871,7.));
#1104 = DIRECTION('',(-0.364809913992,0.931082019294,0.));
#1105 = DIRECTION('',(-0.931082019294,-0.364809913992,0.));
#1106 = FACE_BOUND('',#1107,.T.);
#1107 = EDGE_LOOP('',(#1108));
#1108 = ORIENTED_EDGE('',*,*,#1109,.F.);
#1109 = EDGE_CURVE('',#1110,#1110,#1112,.T.);
#1110 = VERTEX_POINT('',#1111);
#1111 = CARTESIAN_POINT('',(11.213769527988,66.137497582538,7.));
#1112 = CIRCLE('',#1113,1.4);
#1113 = AXIS2_PLACEMENT_3D('',#1114,#1115,#1116);
#1114 = CARTESIAN_POINT('',(12.517284355,66.648231462128,7.));
#1115 = DIRECTION('',(-0.364809913992,0.931082019294,0.));
#1116 = DIRECTION('',(-0.931082019294,-0.364809913992,0.));
#1117 = PLANE('',#1118);
#1118 = AXIS2_PLACEMENT_3D('',#1119,#1120,#1121);
#1119 = CARTESIAN_POINT('',(-14.40432131699,56.1,2.871486589209));
#1120 = DIRECTION('',(-0.364809913992,0.931082019294,4.E-16));
#1121 = DIRECTION('',(0.931082019294,0.364809913992,0.));
#1122 = ADVANCED_FACE('',(#1123),#1134,.F.);
#1123 = FACE_BOUND('',#1124,.F.);
#1124 = EDGE_LOOP('',(#1125,#1131,#1132,#1133));
#1125 = ORIENTED_EDGE('',*,*,#1126,.T.);
#1126 = EDGE_CURVE('',#168,#605,#1127,.T.);
#1127 = LINE('',#1128,#1129);
#1128 = CARTESIAN_POINT('',(-34.65432131699,-12.15,0.));
#1129 = VECTOR('',#1130,1.);
#1130 = DIRECTION('',(0.,0.,1.));
#1131 = ORIENTED_EDGE('',*,*,#612,.T.);
#1132 = ORIENTED_EDGE('',*,*,#1024,.F.);
#1133 = ORIENTED_EDGE('',*,*,#175,.F.);
#1134 = PLANE('',#1135);
#1135 = AXIS2_PLACEMENT_3D('',#1136,#1137,#1138);
#1136 = CARTESIAN_POINT('',(-34.65432131699,-12.15,0.));
#1137 = DIRECTION('',(-0.985769994634,0.168099725401,0.));
#1138 = DIRECTION('',(0.168099725401,0.985769994634,0.));
#1139 = ADVANCED_FACE('',(#1140),#1151,.F.);
#1140 = FACE_BOUND('',#1141,.F.);
#1141 = EDGE_LOOP('',(#1142,#1143,#1144,#1150));
#1142 = ORIENTED_EDGE('',*,*,#1043,.T.);
#1143 = ORIENTED_EDGE('',*,*,#596,.T.);
#1144 = ORIENTED_EDGE('',*,*,#1145,.F.);
#1145 = EDGE_CURVE('',#160,#597,#1146,.T.);
#1146 = LINE('',#1147,#1148);
#1147 = CARTESIAN_POINT('',(-57.15432131699,-12.15,0.));
#1148 = VECTOR('',#1149,1.);
#1149 = DIRECTION('',(0.,0.,1.));
#1150 = ORIENTED_EDGE('',*,*,#159,.F.);
#1151 = PLANE('',#1152);
#1152 = AXIS2_PLACEMENT_3D('',#1153,#1154,#1155);
#1153 = CARTESIAN_POINT('',(-57.15432131699,39.35,0.));
#1154 = DIRECTION('',(1.,0.,0.));
#1155 = DIRECTION('',(0.,-1.,0.));
#1156 = ADVANCED_FACE('',(#1157),#1163,.F.);
#1157 = FACE_BOUND('',#1158,.F.);
#1158 = EDGE_LOOP('',(#1159,#1160,#1161,#1162));
#1159 = ORIENTED_EDGE('',*,*,#1145,.T.);
#1160 = ORIENTED_EDGE('',*,*,#604,.T.);
#1161 = ORIENTED_EDGE('',*,*,#1126,.F.);
#1162 = ORIENTED_EDGE('',*,*,#167,.F.);
#1163 = PLANE('',#1164);
#1164 = AXIS2_PLACEMENT_3D('',#1165,#1166,#1167);
#1165 = CARTESIAN_POINT('',(-57.15432131699,-12.15,0.));
#1166 = DIRECTION('',(0.,1.,0.));
#1167 = DIRECTION('',(1.,0.,0.));
#1168 = ADVANCED_FACE('',(#1169),#1185,.F.);
#1169 = FACE_BOUND('',#1170,.F.);
#1170 = EDGE_LOOP('',(#1171,#1172,#1178,#1179));
#1171 = ORIENTED_EDGE('',*,*,#645,.F.);
#1172 = ORIENTED_EDGE('',*,*,#1173,.T.);
#1173 = EDGE_CURVE('',#646,#209,#1174,.T.);
#1174 = LINE('',#1175,#1176);
#1175 = CARTESIAN_POINT('',(-52.15432131699,7.85,3.));
#1176 = VECTOR('',#1177,1.);
#1177 = DIRECTION('',(-0.,-0.,-1.));
#1178 = ORIENTED_EDGE('',*,*,#208,.T.);
#1179 = ORIENTED_EDGE('',*,*,#1180,.F.);
#1180 = EDGE_CURVE('',#648,#211,#1181,.T.);
#1181 = LINE('',#1182,#1183);
#1182 = CARTESIAN_POINT('',(-52.15432131699,-7.164948905142,3.));
#1183 = VECTOR('',#1184,1.);
#1184 = DIRECTION('',(-0.,-0.,-1.));
#1185 = PLANE('',#1186);
#1186 = AXIS2_PLACEMENT_3D('',#1187,#1188,#1189);
#1187 = CARTESIAN_POINT('',(-52.15432131699,7.85,3.));
#1188 = DIRECTION('',(-1.,0.,0.));
#1189 = DIRECTION('',(0.,-1.,0.));
#1190 = ADVANCED_FACE('',(#1191),#1202,.F.);
#1191 = FACE_BOUND('',#1192,.F.);
#1192 = EDGE_LOOP('',(#1193,#1194,#1195,#1196));
#1193 = ORIENTED_EDGE('',*,*,#663,.F.);
#1194 = ORIENTED_EDGE('',*,*,#1180,.T.);
#1195 = ORIENTED_EDGE('',*,*,#226,.T.);
#1196 = ORIENTED_EDGE('',*,*,#1197,.F.);
#1197 = EDGE_CURVE('',#656,#219,#1198,.T.);
#1198 = LINE('',#1199,#1200);
#1199 = CARTESIAN_POINT('',(-37.65432131699,7.85,3.));
#1200 = VECTOR('',#1201,1.);
#1201 = DIRECTION('',(-0.,-0.,-1.));
#1202 = PLANE('',#1203);
#1203 = AXIS2_PLACEMENT_3D('',#1204,#1205,#1206);
#1204 = CARTESIAN_POINT('',(-52.15432131699,-7.164948905142,3.));
#1205 = DIRECTION('',(0.719334237099,-0.694664131316,0.));
#1206 = DIRECTION('',(0.694664131316,0.719334237099,0.));
#1207 = ADVANCED_FACE('',(#1208),#1214,.F.);
#1208 = FACE_BOUND('',#1209,.F.);
#1209 = EDGE_LOOP('',(#1210,#1211,#1212,#1213));
#1210 = ORIENTED_EDGE('',*,*,#655,.F.);
#1211 = ORIENTED_EDGE('',*,*,#1197,.T.);
#1212 = ORIENTED_EDGE('',*,*,#218,.T.);
#1213 = ORIENTED_EDGE('',*,*,#1173,.F.);
#1214 = PLANE('',#1215);
#1215 = AXIS2_PLACEMENT_3D('',#1216,#1217,#1218);
#1216 = CARTESIAN_POINT('',(-37.65432131699,7.85,3.));
#1217 = DIRECTION('',(0.,1.,0.));
#1218 = DIRECTION('',(-1.,0.,0.));
#1219 = ADVANCED_FACE('',(#1220),#1236,.F.);
#1220 = FACE_BOUND('',#1221,.F.);
#1221 = EDGE_LOOP('',(#1222,#1223,#1229,#1230));
#1222 = ORIENTED_EDGE('',*,*,#671,.F.);
#1223 = ORIENTED_EDGE('',*,*,#1224,.T.);
#1224 = EDGE_CURVE('',#672,#235,#1225,.T.);
#1225 = LINE('',#1226,#1227);
#1226 = CARTESIAN_POINT('',(-52.90432131699,14.45,3.));
#1227 = VECTOR('',#1228,1.);
#1228 = DIRECTION('',(-0.,-0.,-1.));
#1229 = ORIENTED_EDGE('',*,*,#234,.T.);
#1230 = ORIENTED_EDGE('',*,*,#1231,.F.);
#1231 = EDGE_CURVE('',#674,#237,#1232,.T.);
#1232 = LINE('',#1233,#1234);
#1233 = CARTESIAN_POINT('',(-52.90432131699,11.25,3.));
#1234 = VECTOR('',#1235,1.);
#1235 = DIRECTION('',(-0.,-0.,-1.));
#1236 = CYLINDRICAL_SURFACE('',#1237,1.6);
#1237 = AXIS2_PLACEMENT_3D('',#1238,#1239,#1240);
#1238 = CARTESIAN_POINT('',(-52.90432131699,12.85,3.));
#1239 = DIRECTION('',(0.,0.,1.));
#1240 = DIRECTION('',(1.,0.,0.));
#1241 = ADVANCED_FACE('',(#1242),#1253,.T.);
#1242 = FACE_BOUND('',#1243,.T.);
#1243 = EDGE_LOOP('',(#1244,#1245,#1246,#1247));
#1244 = ORIENTED_EDGE('',*,*,#682,.F.);
#1245 = ORIENTED_EDGE('',*,*,#1224,.T.);
#1246 = ORIENTED_EDGE('',*,*,#245,.T.);
#1247 = ORIENTED_EDGE('',*,*,#1248,.F.);
#1248 = EDGE_CURVE('',#683,#246,#1249,.T.);
#1249 = LINE('',#1250,#1251);
#1250 = CARTESIAN_POINT('',(-51.15432131699,14.45,3.));
#1251 = VECTOR('',#1252,1.);
#1252 = DIRECTION('',(-0.,-0.,-1.));
#1253 = PLANE('',#1254);
#1254 = AXIS2_PLACEMENT_3D('',#1255,#1256,#1257);
#1255 = CARTESIAN_POINT('',(-52.90432131699,14.45,3.));
#1256 = DIRECTION('',(0.,-1.,0.));
#1257 = DIRECTION('',(1.,0.,0.));
#1258 = ADVANCED_FACE('',(#1259),#1270,.F.);
#1259 = FACE_BOUND('',#1260,.F.);
#1260 = EDGE_LOOP('',(#1261,#1262,#1263,#1264));
#1261 = ORIENTED_EDGE('',*,*,#699,.F.);
#1262 = ORIENTED_EDGE('',*,*,#1231,.T.);
#1263 = ORIENTED_EDGE('',*,*,#262,.T.);
#1264 = ORIENTED_EDGE('',*,*,#1265,.F.);
#1265 = EDGE_CURVE('',#691,#254,#1266,.T.);
#1266 = LINE('',#1267,#1268);
#1267 = CARTESIAN_POINT('',(-51.15432131699,11.25,3.));
#1268 = VECTOR('',#1269,1.);
#1269 = DIRECTION('',(-0.,-0.,-1.));
#1270 = PLANE('',#1271);
#1271 = AXIS2_PLACEMENT_3D('',#1272,#1273,#1274);
#1272 = CARTESIAN_POINT('',(-52.90432131699,11.25,3.));
#1273 = DIRECTION('',(0.,-1.,0.));
#1274 = DIRECTION('',(1.,0.,0.));
#1275 = ADVANCED_FACE('',(#1276),#1282,.F.);
#1276 = FACE_BOUND('',#1277,.F.);
#1277 = EDGE_LOOP('',(#1278,#1279,#1280,#1281));
#1278 = ORIENTED_EDGE('',*,*,#690,.F.);
#1279 = ORIENTED_EDGE('',*,*,#1265,.T.);
#1280 = ORIENTED_EDGE('',*,*,#253,.T.);
#1281 = ORIENTED_EDGE('',*,*,#1248,.F.);
#1282 = CYLINDRICAL_SURFACE('',#1283,1.6);
#1283 = AXIS2_PLACEMENT_3D('',#1284,#1285,#1286);
#1284 = CARTESIAN_POINT('',(-51.15432131699,12.85,3.));
#1285 = DIRECTION('',(0.,0.,1.));
#1286 = DIRECTION('',(1.,0.,0.));
#1287 = ADVANCED_FACE('',(#1288),#1304,.F.);
#1288 = FACE_BOUND('',#1289,.F.);
#1289 = EDGE_LOOP('',(#1290,#1291,#1297,#1298));
#1290 = ORIENTED_EDGE('',*,*,#707,.F.);
#1291 = ORIENTED_EDGE('',*,*,#1292,.T.);
#1292 = EDGE_CURVE('',#708,#271,#1293,.T.);
#1293 = LINE('',#1294,#1295);
#1294 = CARTESIAN_POINT('',(-52.15432131699,34.864948905142,3.));
#1295 = VECTOR('',#1296,1.);
#1296 = DIRECTION('',(-0.,-0.,-1.));
#1297 = ORIENTED_EDGE('',*,*,#270,.T.);
#1298 = ORIENTED_EDGE('',*,*,#1299,.F.);
#1299 = EDGE_CURVE('',#710,#273,#1300,.T.);
#1300 = LINE('',#1301,#1302);
#1301 = CARTESIAN_POINT('',(-52.15432131699,19.85,3.));
#1302 = VECTOR('',#1303,1.);
#1303 = DIRECTION('',(-0.,-0.,-1.));
#1304 = PLANE('',#1305);
#1305 = AXIS2_PLACEMENT_3D('',#1306,#1307,#1308);
#1306 = CARTESIAN_POINT('',(-52.15432131699,34.864948905142,3.));
#1307 = DIRECTION('',(-1.,0.,0.));
#1308 = DIRECTION('',(0.,-1.,0.));
#1309 = ADVANCED_FACE('',(#1310),#1321,.F.);
#1310 = FACE_BOUND('',#1311,.F.);
#1311 = EDGE_LOOP('',(#1312,#1313,#1314,#1315));
#1312 = ORIENTED_EDGE('',*,*,#725,.F.);
#1313 = ORIENTED_EDGE('',*,*,#1299,.T.);
#1314 = ORIENTED_EDGE('',*,*,#288,.T.);
#1315 = ORIENTED_EDGE('',*,*,#1316,.F.);
#1316 = EDGE_CURVE('',#718,#281,#1317,.T.);
#1317 = LINE('',#1318,#1319);
#1318 = CARTESIAN_POINT('',(-37.65432131699,19.85,3.));
#1319 = VECTOR('',#1320,1.);
#1320 = DIRECTION('',(-0.,-0.,-1.));
#1321 = PLANE('',#1322);
#1322 = AXIS2_PLACEMENT_3D('',#1323,#1324,#1325);
#1323 = CARTESIAN_POINT('',(-52.15432131699,19.85,3.));
#1324 = DIRECTION('',(0.,-1.,0.));
#1325 = DIRECTION('',(1.,0.,0.));
#1326 = ADVANCED_FACE('',(#1327),#1333,.F.);
#1327 = FACE_BOUND('',#1328,.F.);
#1328 = EDGE_LOOP('',(#1329,#1330,#1331,#1332));
#1329 = ORIENTED_EDGE('',*,*,#717,.F.);
#1330 = ORIENTED_EDGE('',*,*,#1316,.T.);
#1331 = ORIENTED_EDGE('',*,*,#280,.T.);
#1332 = ORIENTED_EDGE('',*,*,#1292,.F.);
#1333 = PLANE('',#1334);
#1334 = AXIS2_PLACEMENT_3D('',#1335,#1336,#1337);
#1335 = CARTESIAN_POINT('',(-37.65432131699,19.85,3.));
#1336 = DIRECTION('',(0.719334237099,0.694664131316,0.));
#1337 = DIRECTION('',(-0.694664131316,0.719334237099,0.));
#1338 = ADVANCED_FACE('',(#1339),#1355,.T.);
#1339 = FACE_BOUND('',#1340,.T.);
#1340 = EDGE_LOOP('',(#1341,#1342,#1348,#1349));
#1341 = ORIENTED_EDGE('',*,*,#733,.F.);
#1342 = ORIENTED_EDGE('',*,*,#1343,.T.);
#1343 = EDGE_CURVE('',#734,#297,#1344,.T.);
#1344 = LINE('',#1345,#1346);
#1345 = CARTESIAN_POINT('',(-32.09533126287,21.527868423306,3.));
#1346 = VECTOR('',#1347,1.);
#1347 = DIRECTION('',(-0.,-0.,-1.));
#1348 = ORIENTED_EDGE('',*,*,#296,.T.);
#1349 = ORIENTED_EDGE('',*,*,#1350,.F.);
#1350 = EDGE_CURVE('',#736,#299,#1351,.T.);
#1351 = LINE('',#1352,#1353);
#1352 = CARTESIAN_POINT('',(-47.49891122052,36.688998475104,3.));
#1353 = VECTOR('',#1354,1.);
#1354 = DIRECTION('',(-0.,-0.,-1.));
#1355 = PLANE('',#1356);
#1356 = AXIS2_PLACEMENT_3D('',#1357,#1358,#1359);
#1357 = CARTESIAN_POINT('',(-32.09533126287,21.527868423306,3.));
#1358 = DIRECTION('',(0.701475695538,0.712693376263,0.));
#1359 = DIRECTION('',(-0.712693376263,0.701475695538,0.));
#1360 = ADVANCED_FACE('',(#1361),#1372,.T.);
#1361 = FACE_BOUND('',#1362,.T.);
#1362 = EDGE_LOOP('',(#1363,#1364,#1370,#1371));
#1363 = ORIENTED_EDGE('',*,*,#751,.F.);
#1364 = ORIENTED_EDGE('',*,*,#1365,.T.);
#1365 = EDGE_CURVE('',#744,#307,#1366,.T.);
#1366 = LINE('',#1367,#1368);
#1367 = CARTESIAN_POINT('',(-31.09126138131,43.11772677468,3.));
#1368 = VECTOR('',#1369,1.);
#1369 = DIRECTION('',(-0.,-0.,-1.));
#1370 = ORIENTED_EDGE('',*,*,#314,.T.);
#1371 = ORIENTED_EDGE('',*,*,#1343,.F.);
#1372 = PLANE('',#1373);
#1373 = AXIS2_PLACEMENT_3D('',#1374,#1375,#1376);
#1374 = CARTESIAN_POINT('',(-31.09126138131,43.11772677468,3.));
#1375 = DIRECTION('',(-0.998920321365,4.645634040006E-02,0.));
#1376 = DIRECTION('',(-4.645634040006E-02,-0.998920321365,0.));
#1377 = ADVANCED_FACE('',(#1378),#1384,.T.);
#1378 = FACE_BOUND('',#1379,.T.);
#1379 = EDGE_LOOP('',(#1380,#1381,#1382,#1383));
#1380 = ORIENTED_EDGE('',*,*,#743,.F.);
#1381 = ORIENTED_EDGE('',*,*,#1350,.T.);
#1382 = ORIENTED_EDGE('',*,*,#306,.T.);
#1383 = ORIENTED_EDGE('',*,*,#1365,.F.);
#1384 = PLANE('',#1385);
#1385 = AXIS2_PLACEMENT_3D('',#1386,#1387,#1388);
#1386 = CARTESIAN_POINT('',(-47.49891122052,36.688998475104,3.));
#1387 = DIRECTION('',(0.364809913992,-0.931082019294,0.));
#1388 = DIRECTION('',(0.931082019294,0.364809913992,0.));
#1389 = ADVANCED_FACE('',(#1390),#1406,.F.);
#1390 = FACE_BOUND('',#1391,.F.);
#1391 = EDGE_LOOP('',(#1392,#1393,#1399,#1400));
#1392 = ORIENTED_EDGE('',*,*,#759,.F.);
#1393 = ORIENTED_EDGE('',*,*,#1394,.T.);
#1394 = EDGE_CURVE('',#760,#323,#1395,.T.);
#1395 = LINE('',#1396,#1397);
#1396 = CARTESIAN_POINT('',(-26.43585128484,44.941776344642,3.));
#1397 = VECTOR('',#1398,1.);
#1398 = DIRECTION('',(-0.,-0.,-1.));
#1399 = ORIENTED_EDGE('',*,*,#322,.T.);
#1400 = ORIENTED_EDGE('',*,*,#1401,.F.);
#1401 = EDGE_CURVE('',#762,#325,#1402,.T.);
#1402 = LINE('',#1403,#1404);
#1403 = CARTESIAN_POINT('',(-27.36793832859,24.899717902862,3.));
#1404 = VECTOR('',#1405,1.);
#1405 = DIRECTION('',(-0.,-0.,-1.));
#1406 = PLANE('',#1407);
#1407 = AXIS2_PLACEMENT_3D('',#1408,#1409,#1410);
#1408 = CARTESIAN_POINT('',(-26.43585128484,44.941776344642,3.));
#1409 = DIRECTION('',(-0.998920321365,4.645634040006E-02,0.));
#1410 = DIRECTION('',(-4.645634040006E-02,-0.998920321365,0.));
#1411 = ADVANCED_FACE('',(#1412),#1423,.T.);
#1412 = FACE_BOUND('',#1413,.T.);
#1413 = EDGE_LOOP('',(#1414,#1415,#1421,#1422));
#1414 = ORIENTED_EDGE('',*,*,#777,.F.);
#1415 = ORIENTED_EDGE('',*,*,#1416,.T.);
#1416 = EDGE_CURVE('',#770,#333,#1417,.T.);
#1417 = LINE('',#1418,#1419);
#1418 = CARTESIAN_POINT('',(-13.83894572916,34.314480632895,3.));
#1419 = VECTOR('',#1420,1.);
#1420 = DIRECTION('',(-0.,-0.,-1.));
#1421 = ORIENTED_EDGE('',*,*,#340,.T.);
#1422 = ORIENTED_EDGE('',*,*,#1401,.F.);
#1423 = CYLINDRICAL_SURFACE('',#1424,37.);
#1424 = AXIS2_PLACEMENT_3D('',#1425,#1426,#1427);
#1425 = CARTESIAN_POINT('',(0.,0.,3.));
#1426 = DIRECTION('',(0.,0.,1.));
#1427 = DIRECTION('',(1.,0.,-0.));
#1428 = ADVANCED_FACE('',(#1429),#1435,.F.);
#1429 = FACE_BOUND('',#1430,.F.);
#1430 = EDGE_LOOP('',(#1431,#1432,#1433,#1434));
#1431 = ORIENTED_EDGE('',*,*,#769,.F.);
#1432 = ORIENTED_EDGE('',*,*,#1416,.T.);
#1433 = ORIENTED_EDGE('',*,*,#332,.T.);
#1434 = ORIENTED_EDGE('',*,*,#1394,.F.);
#1435 = PLANE('',#1436);
#1436 = AXIS2_PLACEMENT_3D('',#1437,#1438,#1439);
#1437 = CARTESIAN_POINT('',(-13.83894572916,34.314480632895,3.));
#1438 = DIRECTION('',(0.644823324967,0.764331655487,0.));
#1439 = DIRECTION('',(-0.764331655487,0.644823324967,0.));
#1440 = ADVANCED_FACE('',(#1441),#1457,.T.);
#1441 = FACE_BOUND('',#1442,.T.);
#1442 = EDGE_LOOP('',(#1443,#1444,#1450,#1451));
#1443 = ORIENTED_EDGE('',*,*,#786,.F.);
#1444 = ORIENTED_EDGE('',*,*,#1445,.T.);
#1445 = EDGE_CURVE('',#787,#350,#1446,.T.);
#1446 = LINE('',#1447,#1448);
#1447 = CARTESIAN_POINT('',(-8.913116961651,35.910393287017,3.));
#1448 = VECTOR('',#1449,1.);
#1449 = DIRECTION('',(-0.,-0.,-1.));
#1450 = ORIENTED_EDGE('',*,*,#349,.T.);
#1451 = ORIENTED_EDGE('',*,*,#1452,.F.);
#1452 = EDGE_CURVE('',#789,#352,#1453,.T.);
#1453 = LINE('',#1454,#1455);
#1454 = CARTESIAN_POINT('',(-21.78044118837,46.765825914604,3.));
#1455 = VECTOR('',#1456,1.);
#1456 = DIRECTION('',(-0.,-0.,-1.));
#1457 = PLANE('',#1458);
#1458 = AXIS2_PLACEMENT_3D('',#1459,#1460,#1461);
#1459 = CARTESIAN_POINT('',(-8.913116961651,35.910393287017,3.));
#1460 = DIRECTION('',(0.644823324965,0.764331655488,0.));
#1461 = DIRECTION('',(-0.764331655488,0.644823324965,0.));
#1462 = ADVANCED_FACE('',(#1463),#1474,.T.);
#1463 = FACE_BOUND('',#1464,.T.);
#1464 = EDGE_LOOP('',(#1465,#1466,#1472,#1473));
#1465 = ORIENTED_EDGE('',*,*,#804,.F.);
#1466 = ORIENTED_EDGE('',*,*,#1467,.T.);
#1467 = EDGE_CURVE('',#797,#360,#1468,.T.);
#1468 = LINE('',#1469,#1470);
#1469 = CARTESIAN_POINT('',(-5.372791349155,53.19455421418,3.));
#1470 = VECTOR('',#1471,1.);
#1471 = DIRECTION('',(-0.,-0.,-1.));
#1472 = ORIENTED_EDGE('',*,*,#367,.T.);
#1473 = ORIENTED_EDGE('',*,*,#1445,.F.);
#1474 = PLANE('',#1475);
#1475 = AXIS2_PLACEMENT_3D('',#1476,#1477,#1478);
#1476 = CARTESIAN_POINT('',(-5.372791349155,53.19455421418,3.));
#1477 = DIRECTION('',(-0.979660045106,0.200664386535,0.));
#1478 = DIRECTION('',(-0.200664386535,-0.979660045106,0.));
#1479 = ADVANCED_FACE('',(#1480),#1486,.T.);
#1480 = FACE_BOUND('',#1481,.T.);
#1481 = EDGE_LOOP('',(#1482,#1483,#1484,#1485));
#1482 = ORIENTED_EDGE('',*,*,#796,.F.);
#1483 = ORIENTED_EDGE('',*,*,#1452,.T.);
#1484 = ORIENTED_EDGE('',*,*,#359,.T.);
#1485 = ORIENTED_EDGE('',*,*,#1467,.F.);
#1486 = PLANE('',#1487);
#1487 = AXIS2_PLACEMENT_3D('',#1488,#1489,#1490);
#1488 = CARTESIAN_POINT('',(-21.78044118837,46.765825914604,3.));
#1489 = DIRECTION('',(0.364809913992,-0.931082019294,0.));
#1490 = DIRECTION('',(0.931082019294,0.364809913992,0.));
#1491 = ADVANCED_FACE('',(#1492),#1508,.F.);
#1492 = FACE_BOUND('',#1493,.F.);
#1493 = EDGE_LOOP('',(#1494,#1495,#1501,#1502));
#1494 = ORIENTED_EDGE('',*,*,#812,.F.);
#1495 = ORIENTED_EDGE('',*,*,#1496,.T.);
#1496 = EDGE_CURVE('',#813,#376,#1497,.T.);
#1497 = LINE('',#1498,#1499);
#1498 = CARTESIAN_POINT('',(-0.717381252684,55.018603784142,3.));
#1499 = VECTOR('',#1500,1.);
#1500 = DIRECTION('',(-0.,-0.,-1.));
#1501 = ORIENTED_EDGE('',*,*,#375,.T.);
#1502 = ORIENTED_EDGE('',*,*,#1503,.F.);
#1503 = EDGE_CURVE('',#815,#378,#1504,.T.);
#1504 = LINE('',#1505,#1506);
#1505 = CARTESIAN_POINT('',(-4.463491177932,36.729786910688,3.));
#1506 = VECTOR('',#1507,1.);
#1507 = DIRECTION('',(-0.,-0.,-1.));
#1508 = PLANE('',#1509);
#1509 = AXIS2_PLACEMENT_3D('',#1510,#1511,#1512);
#1510 = CARTESIAN_POINT('',(-0.717381252684,55.018603784142,3.));
#1511 = DIRECTION('',(-0.979660045106,0.200664386534,0.));
#1512 = DIRECTION('',(-0.200664386534,-0.979660045106,0.));
#1513 = ADVANCED_FACE('',(#1514),#1525,.T.);
#1514 = FACE_BOUND('',#1515,.T.);
#1515 = EDGE_LOOP('',(#1516,#1517,#1523,#1524));
#1516 = ORIENTED_EDGE('',*,*,#830,.F.);
#1517 = ORIENTED_EDGE('',*,*,#1518,.T.);
#1518 = EDGE_CURVE('',#823,#386,#1519,.T.);
#1519 = LINE('',#1520,#1521);
#1520 = CARTESIAN_POINT('',(11.93043798227,35.023772634478,3.));
#1521 = VECTOR('',#1522,1.);
#1522 = DIRECTION('',(-0.,-0.,-1.));
#1523 = ORIENTED_EDGE('',*,*,#393,.T.);
#1524 = ORIENTED_EDGE('',*,*,#1503,.F.);
#1525 = CYLINDRICAL_SURFACE('',#1526,37.);
#1526 = AXIS2_PLACEMENT_3D('',#1527,#1528,#1529);
#1527 = CARTESIAN_POINT('',(0.,0.,3.));
#1528 = DIRECTION('',(0.,0.,1.));
#1529 = DIRECTION('',(1.,0.,-0.));
#1530 = ADVANCED_FACE('',(#1531),#1537,.F.);
#1531 = FACE_BOUND('',#1532,.F.);
#1532 = EDGE_LOOP('',(#1533,#1534,#1535,#1536));
#1533 = ORIENTED_EDGE('',*,*,#822,.F.);
#1534 = ORIENTED_EDGE('',*,*,#1518,.T.);
#1535 = ORIENTED_EDGE('',*,*,#385,.T.);
#1536 = ORIENTED_EDGE('',*,*,#1496,.F.);
#1537 = PLANE('',#1538);
#1538 = AXIS2_PLACEMENT_3D('',#1539,#1540,#1541);
#1539 = CARTESIAN_POINT('',(11.930437982289,35.023772634478,3.));
#1540 = DIRECTION('',(0.845116490799,0.534582189172,0.));
#1541 = DIRECTION('',(-0.534582189172,0.845116490799,0.));
#1542 = ADVANCED_FACE('',(#1543),#1559,.T.);
#1543 = FACE_BOUND('',#1544,.T.);
#1544 = EDGE_LOOP('',(#1545,#1546,#1552,#1553));
#1545 = ORIENTED_EDGE('',*,*,#839,.F.);
#1546 = ORIENTED_EDGE('',*,*,#1547,.T.);
#1547 = EDGE_CURVE('',#840,#403,#1548,.T.);
#1548 = LINE('',#1549,#1550);
#1549 = CARTESIAN_POINT('',(20.345678683002,30.903937595847,3.));
#1550 = VECTOR('',#1551,1.);
#1551 = DIRECTION('',(-0.,-0.,-1.));
#1552 = ORIENTED_EDGE('',*,*,#402,.T.);
#1553 = ORIENTED_EDGE('',*,*,#1554,.F.);
#1554 = EDGE_CURVE('',#842,#405,#1555,.T.);
#1555 = LINE('',#1556,#1557);
#1556 = CARTESIAN_POINT('',(3.938028843787,56.842653354104,3.));
#1557 = VECTOR('',#1558,1.);
#1558 = DIRECTION('',(-0.,-0.,-1.));
#1559 = PLANE('',#1560);
#1560 = AXIS2_PLACEMENT_3D('',#1561,#1562,#1563);
#1561 = CARTESIAN_POINT('',(20.345678683002,30.903937595847,3.));
#1562 = DIRECTION('',(0.845116490799,0.534582189172,0.));
#1563 = DIRECTION('',(-0.534582189172,0.845116490799,0.));
#1564 = ADVANCED_FACE('',(#1565),#1576,.T.);
#1565 = FACE_BOUND('',#1566,.T.);
#1566 = EDGE_LOOP('',(#1567,#1568,#1574,#1575));
#1567 = ORIENTED_EDGE('',*,*,#857,.F.);
#1568 = ORIENTED_EDGE('',*,*,#1569,.T.);
#1569 = EDGE_CURVE('',#850,#413,#1570,.T.);
#1570 = LINE('',#1571,#1572);
#1571 = CARTESIAN_POINT('',(20.345678683002,63.27138165368,3.));
#1572 = VECTOR('',#1573,1.);
#1573 = DIRECTION('',(-0.,-0.,-1.));
#1574 = ORIENTED_EDGE('',*,*,#420,.T.);
#1575 = ORIENTED_EDGE('',*,*,#1547,.F.);
#1576 = PLANE('',#1577);
#1577 = AXIS2_PLACEMENT_3D('',#1578,#1579,#1580);
#1578 = CARTESIAN_POINT('',(20.345678683002,63.27138165368,3.));
#1579 = DIRECTION('',(-1.,0.,0.));
#1580 = DIRECTION('',(0.,-1.,0.));
#1581 = ADVANCED_FACE('',(#1582),#1588,.T.);
#1582 = FACE_BOUND('',#1583,.T.);
#1583 = EDGE_LOOP('',(#1584,#1585,#1586,#1587));
#1584 = ORIENTED_EDGE('',*,*,#849,.F.);
#1585 = ORIENTED_EDGE('',*,*,#1554,.T.);
#1586 = ORIENTED_EDGE('',*,*,#412,.T.);
#1587 = ORIENTED_EDGE('',*,*,#1569,.F.);
#1588 = PLANE('',#1589);
#1589 = AXIS2_PLACEMENT_3D('',#1590,#1591,#1592);
#1590 = CARTESIAN_POINT('',(3.938028843787,56.842653354104,3.));
#1591 = DIRECTION('',(0.364809913992,-0.931082019294,0.));
#1592 = DIRECTION('',(0.931082019294,0.364809913992,0.));
#1593 = ADVANCED_FACE('',(#1594),#1612,.F.);
#1594 = FACE_BOUND('',#1595,.F.);
#1595 = EDGE_LOOP('',(#1596,#1604,#1610,#1611));
#1596 = ORIENTED_EDGE('',*,*,#1597,.T.);
#1597 = EDGE_CURVE('',#461,#1598,#1600,.T.);
#1598 = VERTEX_POINT('',#1599);
#1599 = CARTESIAN_POINT('',(25.345678683002,31.45,12.));
#1600 = LINE('',#1601,#1602);
#1601 = CARTESIAN_POINT('',(25.345678683002,31.45,3.));
#1602 = VECTOR('',#1603,1.);
#1603 = DIRECTION('',(0.,0.,1.));
#1604 = ORIENTED_EDGE('',*,*,#1605,.T.);
#1605 = EDGE_CURVE('',#1598,#980,#1606,.T.);
#1606 = LINE('',#1607,#1608);
#1607 = CARTESIAN_POINT('',(25.345678683002,31.45,12.));
#1608 = VECTOR('',#1609,1.);
#1609 = DIRECTION('',(1.,0.,0.));
#1610 = ORIENTED_EDGE('',*,*,#987,.F.);
#1611 = ORIENTED_EDGE('',*,*,#460,.F.);
#1612 = PLANE('',#1613);
#1613 = AXIS2_PLACEMENT_3D('',#1614,#1615,#1616);
#1614 = CARTESIAN_POINT('',(25.345678683002,31.45,3.));
#1615 = DIRECTION('',(0.,1.,0.));
#1616 = DIRECTION('',(1.,0.,0.));
#1617 = ADVANCED_FACE('',(#1618,#1636),#1647,.F.);
#1618 = FACE_BOUND('',#1619,.F.);
#1619 = EDGE_LOOP('',(#1620,#1628,#1634,#1635));
#1620 = ORIENTED_EDGE('',*,*,#1621,.T.);
#1621 = EDGE_CURVE('',#469,#1622,#1624,.T.);
#1622 = VERTEX_POINT('',#1623);
#1623 = CARTESIAN_POINT('',(25.345678683002,41.45,12.));
#1624 = LINE('',#1625,#1626);
#1625 = CARTESIAN_POINT('',(25.345678683002,41.45,3.));
#1626 = VECTOR('',#1627,1.);
#1627 = DIRECTION('',(0.,0.,1.));
#1628 = ORIENTED_EDGE('',*,*,#1629,.T.);
#1629 = EDGE_CURVE('',#1622,#1598,#1630,.T.);
#1630 = LINE('',#1631,#1632);
#1631 = CARTESIAN_POINT('',(25.345678683002,41.45,12.));
#1632 = VECTOR('',#1633,1.);
#1633 = DIRECTION('',(0.,-1.,0.));
#1634 = ORIENTED_EDGE('',*,*,#1597,.F.);
#1635 = ORIENTED_EDGE('',*,*,#468,.F.);
#1636 = FACE_BOUND('',#1637,.F.);
#1637 = EDGE_LOOP('',(#1638));
#1638 = ORIENTED_EDGE('',*,*,#1639,.F.);
#1639 = EDGE_CURVE('',#1640,#1640,#1642,.T.);
#1640 = VERTEX_POINT('',#1641);
#1641 = CARTESIAN_POINT('',(25.345678683002,37.85,7.5));
#1642 = CIRCLE('',#1643,1.4);
#1643 = AXIS2_PLACEMENT_3D('',#1644,#1645,#1646);
#1644 = CARTESIAN_POINT('',(25.345678683002,36.45,7.5));
#1645 = DIRECTION('',(1.,0.,0.));
#1646 = DIRECTION('',(0.,1.,0.));
#1647 = PLANE('',#1648);
#1648 = AXIS2_PLACEMENT_3D('',#1649,#1650,#1651);
#1649 = CARTESIAN_POINT('',(25.345678683002,41.45,3.));
#1650 = DIRECTION('',(1.,0.,0.));
#1651 = DIRECTION('',(0.,-1.,0.));
#1652 = ADVANCED_FACE('',(#1653),#1664,.F.);
#1653 = FACE_BOUND('',#1654,.F.);
#1654 = EDGE_LOOP('',(#1655,#1656,#1662,#1663));
#1655 = ORIENTED_EDGE('',*,*,#971,.T.);
#1656 = ORIENTED_EDGE('',*,*,#1657,.T.);
#1657 = EDGE_CURVE('',#972,#1622,#1658,.T.);
#1658 = LINE('',#1659,#1660);
#1659 = CARTESIAN_POINT('',(28.345678683002,41.45,12.));
#1660 = VECTOR('',#1661,1.);
#1661 = DIRECTION('',(-1.,0.,0.));
#1662 = ORIENTED_EDGE('',*,*,#1621,.F.);
#1663 = ORIENTED_EDGE('',*,*,#476,.F.);
#1664 = PLANE('',#1665);
#1665 = AXIS2_PLACEMENT_3D('',#1666,#1667,#1668);
#1666 = CARTESIAN_POINT('',(28.345678683002,41.45,3.));
#1667 = DIRECTION('',(0.,-1.,0.));
#1668 = DIRECTION('',(-1.,0.,0.));
#1669 = ADVANCED_FACE('',(#1670),#1688,.F.);
#1670 = FACE_BOUND('',#1671,.F.);
#1671 = EDGE_LOOP('',(#1672,#1680,#1686,#1687));
#1672 = ORIENTED_EDGE('',*,*,#1673,.T.);
#1673 = EDGE_CURVE('',#493,#1674,#1676,.T.);
#1674 = VERTEX_POINT('',#1675);
#1675 = CARTESIAN_POINT('',(25.345678683002,54.85,12.));
#1676 = LINE('',#1677,#1678);
#1677 = CARTESIAN_POINT('',(25.345678683002,54.85,3.));
#1678 = VECTOR('',#1679,1.);
#1679 = DIRECTION('',(0.,0.,1.));
#1680 = ORIENTED_EDGE('',*,*,#1681,.T.);
#1681 = EDGE_CURVE('',#1674,#957,#1682,.T.);
#1682 = LINE('',#1683,#1684);
#1683 = CARTESIAN_POINT('',(25.345678683002,54.85,12.));
#1684 = VECTOR('',#1685,1.);
#1685 = DIRECTION('',(1.,0.,0.));
#1686 = ORIENTED_EDGE('',*,*,#964,.F.);
#1687 = ORIENTED_EDGE('',*,*,#492,.F.);
#1688 = PLANE('',#1689);
#1689 = AXIS2_PLACEMENT_3D('',#1690,#1691,#1692);
#1690 = CARTESIAN_POINT('',(25.345678683002,54.85,3.));
#1691 = DIRECTION('',(0.,1.,0.));
#1692 = DIRECTION('',(1.,0.,0.));
#1693 = ADVANCED_FACE('',(#1694),#1712,.F.);
#1694 = FACE_BOUND('',#1695,.F.);
#1695 = EDGE_LOOP('',(#1696,#1697,#1705,#1711));
#1696 = ORIENTED_EDGE('',*,*,#1050,.T.);
#1697 = ORIENTED_EDGE('',*,*,#1698,.T.);
#1698 = EDGE_CURVE('',#1051,#1699,#1701,.T.);
#1699 = VERTEX_POINT('',#1700);
#1700 = CARTESIAN_POINT('',(-43.5910154102,40.368200804725,11.));
#1701 = LINE('',#1702,#1703);
#1702 = CARTESIAN_POINT('',(-45.05025506617,44.092528881902,11.));
#1703 = VECTOR('',#1704,1.);
#1704 = DIRECTION('',(0.364809913992,-0.931082019294,0.));
#1705 = ORIENTED_EDGE('',*,*,#1706,.F.);
#1706 = EDGE_CURVE('',#573,#1699,#1707,.T.);
#1707 = LINE('',#1708,#1709);
#1708 = CARTESIAN_POINT('',(-43.5910154102,40.368200804725,3.));
#1709 = VECTOR('',#1710,1.);
#1710 = DIRECTION('',(0.,0.,1.));
#1711 = ORIENTED_EDGE('',*,*,#580,.F.);
#1712 = PLANE('',#1713);
#1713 = AXIS2_PLACEMENT_3D('',#1714,#1715,#1716);
#1714 = CARTESIAN_POINT('',(-45.05025506617,44.092528881902,3.));
#1715 = DIRECTION('',(0.931082019294,0.364809913992,0.));
#1716 = DIRECTION('',(0.364809913992,-0.931082019294,0.));
#1717 = ADVANCED_FACE('',(#1718,#1736),#1747,.F.);
#1718 = FACE_BOUND('',#1719,.F.);
#1719 = EDGE_LOOP('',(#1720,#1728,#1734,#1735));
#1720 = ORIENTED_EDGE('',*,*,#1721,.T.);
#1721 = EDGE_CURVE('',#501,#1722,#1724,.T.);
#1722 = VERTEX_POINT('',#1723);
#1723 = CARTESIAN_POINT('',(25.345678683002,64.85,12.));
#1724 = LINE('',#1725,#1726);
#1725 = CARTESIAN_POINT('',(25.345678683002,64.85,3.));
#1726 = VECTOR('',#1727,1.);
#1727 = DIRECTION('',(0.,0.,1.));
#1728 = ORIENTED_EDGE('',*,*,#1729,.T.);
#1729 = EDGE_CURVE('',#1722,#1674,#1730,.T.);
#1730 = LINE('',#1731,#1732);
#1731 = CARTESIAN_POINT('',(25.345678683002,64.85,12.));
#1732 = VECTOR('',#1733,1.);
#1733 = DIRECTION('',(0.,-1.,0.));
#1734 = ORIENTED_EDGE('',*,*,#1673,.F.);
#1735 = ORIENTED_EDGE('',*,*,#500,.F.);
#1736 = FACE_BOUND('',#1737,.F.);
#1737 = EDGE_LOOP('',(#1738));
#1738 = ORIENTED_EDGE('',*,*,#1739,.F.);
#1739 = EDGE_CURVE('',#1740,#1740,#1742,.T.);
#1740 = VERTEX_POINT('',#1741);
#1741 = CARTESIAN_POINT('',(25.345678683002,61.25,7.5));
#1742 = CIRCLE('',#1743,1.4);
#1743 = AXIS2_PLACEMENT_3D('',#1744,#1745,#1746);
#1744 = CARTESIAN_POINT('',(25.345678683002,59.85,7.5));
#1745 = DIRECTION('',(1.,0.,0.));
#1746 = DIRECTION('',(0.,1.,0.));
#1747 = PLANE('',#1748);
#1748 = AXIS2_PLACEMENT_3D('',#1749,#1750,#1751);
#1749 = CARTESIAN_POINT('',(25.345678683002,64.85,3.));
#1750 = DIRECTION('',(1.,0.,0.));
#1751 = DIRECTION('',(0.,-1.,0.));
#1752 = ADVANCED_FACE('',(#1753,#1771),#1782,.F.);
#1753 = FACE_BOUND('',#1754,.F.);
#1754 = EDGE_LOOP('',(#1755,#1756,#1764,#1770));
#1755 = ORIENTED_EDGE('',*,*,#1706,.T.);
#1756 = ORIENTED_EDGE('',*,*,#1757,.T.);
#1757 = EDGE_CURVE('',#1699,#1758,#1760,.T.);
#1758 = VERTEX_POINT('',#1759);
#1759 = CARTESIAN_POINT('',(-36.14235925585,43.286680116665,11.));
#1760 = LINE('',#1761,#1762);
#1761 = CARTESIAN_POINT('',(-43.5910154102,40.368200804725,11.));
#1762 = VECTOR('',#1763,1.);
#1763 = DIRECTION('',(0.931082019294,0.364809913992,0.));
#1764 = ORIENTED_EDGE('',*,*,#1765,.F.);
#1765 = EDGE_CURVE('',#565,#1758,#1766,.T.);
#1766 = LINE('',#1767,#1768);
#1767 = CARTESIAN_POINT('',(-36.14235925585,43.286680116665,3.));
#1768 = VECTOR('',#1769,1.);
#1769 = DIRECTION('',(0.,0.,1.));
#1770 = ORIENTED_EDGE('',*,*,#572,.F.);
#1771 = FACE_BOUND('',#1772,.F.);
#1772 = EDGE_LOOP('',(#1773));
#1773 = ORIENTED_EDGE('',*,*,#1774,.F.);
#1774 = EDGE_CURVE('',#1775,#1775,#1777,.T.);
#1775 = VERTEX_POINT('',#1776);
#1776 = CARTESIAN_POINT('',(-41.17020216004,41.316706581105,7.));
#1777 = CIRCLE('',#1778,1.4);
#1778 = AXIS2_PLACEMENT_3D('',#1779,#1780,#1781);
#1779 = CARTESIAN_POINT('',(-39.86668733302,41.827440460695,7.));
#1780 = DIRECTION('',(-0.364809913992,0.931082019294,2.1E-16));
#1781 = DIRECTION('',(-0.931082019294,-0.364809913992,0.));
#1782 = PLANE('',#1783);
#1783 = AXIS2_PLACEMENT_3D('',#1784,#1785,#1786);
#1784 = CARTESIAN_POINT('',(-43.5910154102,40.368200804725,3.));
#1785 = DIRECTION('',(-0.364809913992,0.931082019294,0.));
#1786 = DIRECTION('',(0.931082019294,0.364809913992,0.));
#1787 = ADVANCED_FACE('',(#1788),#1799,.F.);
#1788 = FACE_BOUND('',#1789,.F.);
#1789 = EDGE_LOOP('',(#1790,#1791,#1797,#1798));
#1790 = ORIENTED_EDGE('',*,*,#948,.T.);
#1791 = ORIENTED_EDGE('',*,*,#1792,.T.);
#1792 = EDGE_CURVE('',#949,#1722,#1793,.T.);
#1793 = LINE('',#1794,#1795);
#1794 = CARTESIAN_POINT('',(28.345678683002,64.85,12.));
#1795 = VECTOR('',#1796,1.);
#1796 = DIRECTION('',(-1.,0.,0.));
#1797 = ORIENTED_EDGE('',*,*,#1721,.F.);
#1798 = ORIENTED_EDGE('',*,*,#508,.F.);
#1799 = PLANE('',#1800);
#1800 = AXIS2_PLACEMENT_3D('',#1801,#1802,#1803);
#1801 = CARTESIAN_POINT('',(28.345678683002,64.85,3.));
#1802 = DIRECTION('',(0.,-1.,0.));
#1803 = DIRECTION('',(-1.,0.,0.));
#1804 = ADVANCED_FACE('',(#1805),#1816,.F.);
#1805 = FACE_BOUND('',#1806,.F.);
#1806 = EDGE_LOOP('',(#1807,#1808,#1814,#1815));
#1807 = ORIENTED_EDGE('',*,*,#1765,.T.);
#1808 = ORIENTED_EDGE('',*,*,#1809,.T.);
#1809 = EDGE_CURVE('',#1758,#1059,#1810,.T.);
#1810 = LINE('',#1811,#1812);
#1811 = CARTESIAN_POINT('',(-36.14235925585,43.286680116665,11.));
#1812 = VECTOR('',#1813,1.);
#1813 = DIRECTION('',(-0.364809913992,0.931082019294,0.));
#1814 = ORIENTED_EDGE('',*,*,#1066,.F.);
#1815 = ORIENTED_EDGE('',*,*,#564,.F.);
#1816 = PLANE('',#1817);
#1817 = AXIS2_PLACEMENT_3D('',#1818,#1819,#1820);
#1818 = CARTESIAN_POINT('',(-36.14235925585,43.286680116665,3.));
#1819 = DIRECTION('',(-0.931082019294,-0.364809913992,0.));
#1820 = DIRECTION('',(-0.364809913992,0.931082019294,0.));
#1821 = ADVANCED_FACE('',(#1822),#1840,.F.);
#1822 = FACE_BOUND('',#1823,.F.);
#1823 = EDGE_LOOP('',(#1824,#1825,#1833,#1839));
#1824 = ORIENTED_EDGE('',*,*,#1073,.T.);
#1825 = ORIENTED_EDGE('',*,*,#1826,.T.);
#1826 = EDGE_CURVE('',#1074,#1827,#1829,.T.);
#1827 = VERTEX_POINT('',#1828);
#1828 = CARTESIAN_POINT('',(10.25219593379,61.46466372898,11.));
#1829 = LINE('',#1830,#1831);
#1830 = CARTESIAN_POINT('',(8.792956277821,65.188991806157,11.));
#1831 = VECTOR('',#1832,1.);
#1832 = DIRECTION('',(0.364809913992,-0.931082019294,0.));
#1833 = ORIENTED_EDGE('',*,*,#1834,.F.);
#1834 = EDGE_CURVE('',#541,#1827,#1835,.T.);
#1835 = LINE('',#1836,#1837);
#1836 = CARTESIAN_POINT('',(10.25219593379,61.46466372898,3.));
#1837 = VECTOR('',#1838,1.);
#1838 = DIRECTION('',(0.,0.,1.));
#1839 = ORIENTED_EDGE('',*,*,#548,.F.);
#1840 = PLANE('',#1841);
#1841 = AXIS2_PLACEMENT_3D('',#1842,#1843,#1844);
#1842 = CARTESIAN_POINT('',(8.792956277821,65.188991806157,3.));
#1843 = DIRECTION('',(0.931082019294,0.364809913992,0.));
#1844 = DIRECTION('',(0.364809913992,-0.931082019294,0.));
#1845 = ADVANCED_FACE('',(#1846),#1864,.F.);
#1846 = FACE_BOUND('',#1847,.F.);
#1847 = EDGE_LOOP('',(#1848,#1856,#1862,#1863));
#1848 = ORIENTED_EDGE('',*,*,#1849,.T.);
#1849 = EDGE_CURVE('',#533,#1850,#1852,.T.);
#1850 = VERTEX_POINT('',#1851);
#1851 = CARTESIAN_POINT('',(17.700852088142,64.38314304092,11.));
#1852 = LINE('',#1853,#1854);
#1853 = CARTESIAN_POINT('',(17.700852088142,64.38314304092,3.));
#1854 = VECTOR('',#1855,1.);
#1855 = DIRECTION('',(0.,0.,1.));
#1856 = ORIENTED_EDGE('',*,*,#1857,.T.);
#1857 = EDGE_CURVE('',#1850,#1082,#1858,.T.);
#1858 = LINE('',#1859,#1860);
#1859 = CARTESIAN_POINT('',(17.700852088142,64.38314304092,11.));
#1860 = VECTOR('',#1861,1.);
#1861 = DIRECTION('',(-0.364809913991,0.931082019295,0.));
#1862 = ORIENTED_EDGE('',*,*,#1089,.F.);
#1863 = ORIENTED_EDGE('',*,*,#532,.F.);
#1864 = PLANE('',#1865);
#1865 = AXIS2_PLACEMENT_3D('',#1866,#1867,#1868);
#1866 = CARTESIAN_POINT('',(17.700852088142,64.38314304092,3.));
#1867 = DIRECTION('',(-0.931082019295,-0.364809913991,0.));
#1868 = DIRECTION('',(-0.364809913991,0.931082019295,0.));
#1869 = ADVANCED_FACE('',(#1870,#1881),#1892,.F.);
#1870 = FACE_BOUND('',#1871,.F.);
#1871 = EDGE_LOOP('',(#1872,#1873,#1879,#1880));
#1872 = ORIENTED_EDGE('',*,*,#1834,.T.);
#1873 = ORIENTED_EDGE('',*,*,#1874,.T.);
#1874 = EDGE_CURVE('',#1827,#1850,#1875,.T.);
#1875 = LINE('',#1876,#1877);
#1876 = CARTESIAN_POINT('',(10.25219593379,61.46466372898,11.));
#1877 = VECTOR('',#1878,1.);
#1878 = DIRECTION('',(0.931082019294,0.364809913993,0.));
#1879 = ORIENTED_EDGE('',*,*,#1849,.F.);
#1880 = ORIENTED_EDGE('',*,*,#540,.F.);
#1881 = FACE_BOUND('',#1882,.F.);
#1882 = EDGE_LOOP('',(#1883));
#1883 = ORIENTED_EDGE('',*,*,#1884,.F.);
#1884 = EDGE_CURVE('',#1885,#1885,#1887,.T.);
#1885 = VERTEX_POINT('',#1886);
#1886 = CARTESIAN_POINT('',(12.673009183958,62.413169505362,7.));
#1887 = CIRCLE('',#1888,1.4);
#1888 = AXIS2_PLACEMENT_3D('',#1889,#1890,#1891);
#1889 = CARTESIAN_POINT('',(13.97652401097,62.923903384951,7.));
#1890 = DIRECTION('',(-0.364809913992,0.931082019294,2.1E-16));
#1891 = DIRECTION('',(-0.931082019294,-0.364809913992,0.));
#1892 = PLANE('',#1893);
#1893 = AXIS2_PLACEMENT_3D('',#1894,#1895,#1896);
#1894 = CARTESIAN_POINT('',(10.25219593379,61.46466372898,3.));
#1895 = DIRECTION('',(-0.364809913993,0.931082019294,0.));
#1896 = DIRECTION('',(0.931082019294,0.364809913993,0.));
#1897 = ADVANCED_FACE('',(#1898),#1904,.T.);
#1898 = FACE_BOUND('',#1899,.T.);
#1899 = EDGE_LOOP('',(#1900,#1901,#1902,#1903));
#1900 = ORIENTED_EDGE('',*,*,#1657,.T.);
#1901 = ORIENTED_EDGE('',*,*,#1629,.T.);
#1902 = ORIENTED_EDGE('',*,*,#1605,.T.);
#1903 = ORIENTED_EDGE('',*,*,#979,.T.);
#1904 = PLANE('',#1905);
#1905 = AXIS2_PLACEMENT_3D('',#1906,#1907,#1908);
#1906 = CARTESIAN_POINT('',(26.845678683002,48.15,12.));
#1907 = DIRECTION('',(0.,0.,1.));
#1908 = DIRECTION('',(1.,0.,0.));
#1909 = ADVANCED_FACE('',(#1910),#1916,.T.);
#1910 = FACE_BOUND('',#1911,.T.);
#1911 = EDGE_LOOP('',(#1912,#1913,#1914,#1915));
#1912 = ORIENTED_EDGE('',*,*,#1792,.T.);
#1913 = ORIENTED_EDGE('',*,*,#1729,.T.);
#1914 = ORIENTED_EDGE('',*,*,#1681,.T.);
#1915 = ORIENTED_EDGE('',*,*,#956,.T.);
#1916 = PLANE('',#1917);
#1917 = AXIS2_PLACEMENT_3D('',#1918,#1919,#1920);
#1918 = CARTESIAN_POINT('',(26.845678683002,48.15,12.));
#1919 = DIRECTION('',(0.,0.,1.));
#1920 = DIRECTION('',(1.,0.,0.));
#1921 = ADVANCED_FACE('',(#1922),#1933,.F.);
#1922 = FACE_BOUND('',#1923,.F.);
#1923 = EDGE_LOOP('',(#1924,#1925,#1931,#1932));
#1924 = ORIENTED_EDGE('',*,*,#996,.F.);
#1925 = ORIENTED_EDGE('',*,*,#1926,.T.);
#1926 = EDGE_CURVE('',#997,#1740,#1927,.T.);
#1927 = LINE('',#1928,#1929);
#1928 = CARTESIAN_POINT('',(28.345678683002,61.25,7.5));
#1929 = VECTOR('',#1930,1.);
#1930 = DIRECTION('',(-1.,-0.,-0.));
#1931 = ORIENTED_EDGE('',*,*,#1739,.T.);
#1932 = ORIENTED_EDGE('',*,*,#1926,.F.);
#1933 = CYLINDRICAL_SURFACE('',#1934,1.4);
#1934 = AXIS2_PLACEMENT_3D('',#1935,#1936,#1937);
#1935 = CARTESIAN_POINT('',(28.345678683002,59.85,7.5));
#1936 = DIRECTION('',(1.,0.,0.));
#1937 = DIRECTION('',(0.,1.,0.));
#1938 = ADVANCED_FACE('',(#1939),#1950,.F.);
#1939 = FACE_BOUND('',#1940,.F.);
#1940 = EDGE_LOOP('',(#1941,#1942,#1948,#1949));
#1941 = ORIENTED_EDGE('',*,*,#1007,.F.);
#1942 = ORIENTED_EDGE('',*,*,#1943,.T.);
#1943 = EDGE_CURVE('',#1008,#1640,#1944,.T.);
#1944 = LINE('',#1945,#1946);
#1945 = CARTESIAN_POINT('',(28.345678683002,37.85,7.5));
#1946 = VECTOR('',#1947,1.);
#1947 = DIRECTION('',(-1.,-0.,-0.));
#1948 = ORIENTED_EDGE('',*,*,#1639,.T.);
#1949 = ORIENTED_EDGE('',*,*,#1943,.F.);
#1950 = CYLINDRICAL_SURFACE('',#1951,1.4);
#1951 = AXIS2_PLACEMENT_3D('',#1952,#1953,#1954);
#1952 = CARTESIAN_POINT('',(28.345678683002,36.45,7.5));
#1953 = DIRECTION('',(1.,0.,0.));
#1954 = DIRECTION('',(0.,1.,0.));
#1955 = ADVANCED_FACE('',(#1956),#1962,.T.);
#1956 = FACE_BOUND('',#1957,.T.);
#1957 = EDGE_LOOP('',(#1958,#1959,#1960,#1961));
#1958 = ORIENTED_EDGE('',*,*,#1826,.T.);
#1959 = ORIENTED_EDGE('',*,*,#1874,.T.);
#1960 = ORIENTED_EDGE('',*,*,#1857,.T.);
#1961 = ORIENTED_EDGE('',*,*,#1081,.T.);
#1962 = PLANE('',#1963);
#1963 = AXIS2_PLACEMENT_3D('',#1964,#1965,#1966);
#1964 = CARTESIAN_POINT('',(-13.67470148901,54.237835961412,11.));
#1965 = DIRECTION('',(0.,0.,1.));
#1966 = DIRECTION('',(1.,0.,0.));
#1967 = ADVANCED_FACE('',(#1968),#1974,.T.);
#1968 = FACE_BOUND('',#1969,.T.);
#1969 = EDGE_LOOP('',(#1970,#1971,#1972,#1973));
#1970 = ORIENTED_EDGE('',*,*,#1698,.T.);
#1971 = ORIENTED_EDGE('',*,*,#1757,.T.);
#1972 = ORIENTED_EDGE('',*,*,#1809,.T.);
#1973 = ORIENTED_EDGE('',*,*,#1058,.T.);
#1974 = PLANE('',#1975);
#1975 = AXIS2_PLACEMENT_3D('',#1976,#1977,#1978);
#1976 = CARTESIAN_POINT('',(-13.67470148901,54.237835961412,11.));
#1977 = DIRECTION('',(0.,0.,1.));
#1978 = DIRECTION('',(1.,0.,0.));
#1979 = ADVANCED_FACE('',(#1980),#1991,.F.);
#1980 = FACE_BOUND('',#1981,.F.);
#1981 = EDGE_LOOP('',(#1982,#1983,#1989,#1990));
#1982 = ORIENTED_EDGE('',*,*,#1098,.F.);
#1983 = ORIENTED_EDGE('',*,*,#1984,.T.);
#1984 = EDGE_CURVE('',#1099,#1775,#1985,.T.);
#1985 = LINE('',#1986,#1987);
#1986 = CARTESIAN_POINT('',(-42.62944181601,45.041034658282,7.));
#1987 = VECTOR('',#1988,1.);
#1988 = DIRECTION('',(0.364809913992,-0.931082019294,0.));
#1989 = ORIENTED_EDGE('',*,*,#1774,.T.);
#1990 = ORIENTED_EDGE('',*,*,#1984,.F.);
#1991 = CYLINDRICAL_SURFACE('',#1992,1.4);
#1992 = AXIS2_PLACEMENT_3D('',#1993,#1994,#1995);
#1993 = CARTESIAN_POINT('',(-41.32592698899,45.551768537871,7.));
#1994 = DIRECTION('',(-0.364809913992,0.931082019294,2.1E-16));
#1995 = DIRECTION('',(-0.931082019294,-0.364809913992,0.));
#1996 = ADVANCED_FACE('',(#1997),#2008,.F.);
#1997 = FACE_BOUND('',#1998,.F.);
#1998 = EDGE_LOOP('',(#1999,#2000,#2006,#2007));
#1999 = ORIENTED_EDGE('',*,*,#1109,.F.);
#2000 = ORIENTED_EDGE('',*,*,#2001,.T.);
#2001 = EDGE_CURVE('',#1110,#1885,#2002,.T.);
#2002 = LINE('',#2003,#2004);
#2003 = CARTESIAN_POINT('',(11.213769527988,66.137497582538,7.));
#2004 = VECTOR('',#2005,1.);
#2005 = DIRECTION('',(0.364809913992,-0.931082019294,0.));
#2006 = ORIENTED_EDGE('',*,*,#1884,.T.);
#2007 = ORIENTED_EDGE('',*,*,#2001,.F.);
#2008 = CYLINDRICAL_SURFACE('',#2009,1.4);
#2009 = AXIS2_PLACEMENT_3D('',#2010,#2011,#2012);
#2010 = CARTESIAN_POINT('',(12.517284355,66.648231462128,7.));
#2011 = DIRECTION('',(-0.364809913992,0.931082019294,2.1E-16));
#2012 = DIRECTION('',(-0.931082019294,-0.364809913992,0.));
#2013 = ( GEOMETRIC_REPRESENTATION_CONTEXT(3) 
GLOBAL_UNCERTAINTY_ASSIGNED_CONTEXT((#2017)) 
GLOBAL_UNIT_ASSIGNED_CONTEXT((#2014,#2015,#2016)) REPRESENTATION_CONTEXT
('Context #1','3D Context with UNIT and UNCERTAINTY') );
#2014 = ( LENGTH_UNIT() NAMED_UNIT(*) SI_UNIT(.MILLI.,.METRE.) );
#2015 = ( NAMED_UNIT(*) PLANE_ANGLE_UNIT() SI_UNIT($,.RADIAN.) );
#2016 = ( NAMED_UNIT(*) SI_UNIT($,.STERADIAN.) SOLID_ANGLE_UNIT() );
#2017 = UNCERTAINTY_MEASURE_WITH_UNIT(LENGTH_MEASURE(1.E-05),#2014,
  'distance_accuracy_value','confusion accuracy');
#2018 = PRODUCT_RELATED_PRODUCT_CATEGORY('part',$,(#7));
#2019 = MECHANICAL_DESIGN_GEOMETRIC_PRESENTATION_REPRESENTATION('',(
    #2020),#2013);
#2020 = STYLED_ITEM('color',(#2021),#15);
#2021 = PRESENTATION_STYLE_ASSIGNMENT((#2022,#2028));
#2022 = SURFACE_STYLE_USAGE(.BOTH.,#2023);
#2023 = SURFACE_SIDE_STYLE('',(#2024));
#2024 = SURFACE_STYLE_FILL_AREA(#2025);
#2025 = FILL_AREA_STYLE('',(#2026));
#2026 = FILL_AREA_STYLE_COLOUR('',#2027);
#2027 = COLOUR_RGB('',0.447058818107,0.474509808674,0.501960817233);
#2028 = CURVE_STYLE('',#2029,POSITIVE_LENGTH_MEASURE(0.1),#2030);
#2029 = DRAUGHTING_PRE_DEFINED_CURVE_FONT('continuous');
#2030 = COLOUR_RGB('',9.803921802644E-02,9.803921802644E-02,
  9.803921802644E-02);
ENDSEC;
END-ISO-10303-21;
