ISO-10303-21;
HEADER;
FILE_DESCRIPTION(('FreeCAD Model'),'2;1');
FILE_NAME('Open CASCADE Shape Model','2026-02-22T22:43:07',(''),(''),
  'Open CASCADE STEP processor 7.8','FreeCAD','Unknown');
FILE_SCHEMA(('AUTOMOTIVE_DESIGN { 1 0 10303 214 1 1 1 1 }'));
ENDSEC;
DATA;
#1 = APPLICATION_PROTOCOL_DEFINITION('international standard',
  'automotive_design',2000,#2);
#2 = APPLICATION_CONTEXT(
  'core data for automotive mechanical design processes');
#3 = SHAPE_DEFINITION_REPRESENTATION(#4,#10);
#4 = PRODUCT_DEFINITION_SHAPE('','',#5);
#5 = PRODUCT_DEFINITION('design','',#6,#9);
#6 = PRODUCT_DEFINITION_FORMATION('','',#7);
#7 = PRODUCT('Sketch012','Sketch012','',(#8));
#8 = PRODUCT_CONTEXT('',#2,'mechanical');
#9 = PRODUCT_DEFINITION_CONTEXT('part definition',#2,'design');
#10 = SHAPE_REPRESENTATION('',(#11,#15,#44,#201,#210,#219,#228,#237,#246
    ,#275,#304,#313,#322,#331,#340,#349,#358,#367,#376,#405,#434,#443,
    #452,#461,#470,#479,#488,#497,#506,#515,#544),#573);
#11 = AXIS2_PLACEMENT_3D('',#12,#13,#14);
#12 = CARTESIAN_POINT('',(0.,0.,0.));
#13 = DIRECTION('',(0.,0.,1.));
#14 = DIRECTION('',(1.,0.,-0.));
#15 = GEOMETRIC_CURVE_SET('',(#16,#23,#30,#37));
#16 = TRIMMED_CURVE('',#17,(#21,PARAMETER_VALUE(0.)),(#22,
    PARAMETER_VALUE(25.)),.T.,.PARAMETER.);
#17 = LINE('',#18,#19);
#18 = CARTESIAN_POINT('',(-10.,12.5,0.));
#19 = VECTOR('',#20,1.);
#20 = DIRECTION('',(0.,-1.,0.));
#21 = CARTESIAN_POINT('',(-10.,12.5,0.));
#22 = CARTESIAN_POINT('',(-10.,-12.5,0.));
#23 = TRIMMED_CURVE('',#24,(#28,PARAMETER_VALUE(0.)),(#29,
    PARAMETER_VALUE(20.)),.T.,.PARAMETER.);
#24 = LINE('',#25,#26);
#25 = CARTESIAN_POINT('',(-10.,-12.5,0.));
#26 = VECTOR('',#27,1.);
#27 = DIRECTION('',(1.,0.,0.));
#28 = CARTESIAN_POINT('',(-10.,-12.5,0.));
#29 = CARTESIAN_POINT('',(10.,-12.5,0.));
#30 = TRIMMED_CURVE('',#31,(#35,PARAMETER_VALUE(0.)),(#36,
    PARAMETER_VALUE(25.)),.T.,.PARAMETER.);
#31 = LINE('',#32,#33);
#32 = CARTESIAN_POINT('',(10.,-12.5,0.));
#33 = VECTOR('',#34,1.);
#34 = DIRECTION('',(0.,1.,0.));
#35 = CARTESIAN_POINT('',(10.,-12.5,0.));
#36 = CARTESIAN_POINT('',(10.,12.5,0.));
#37 = TRIMMED_CURVE('',#38,(#42,PARAMETER_VALUE(0.)),(#43,
    PARAMETER_VALUE(20.)),.T.,.PARAMETER.);
#38 = LINE('',#39,#40);
#39 = CARTESIAN_POINT('',(10.,12.5,0.));
#40 = VECTOR('',#41,1.);
#41 = DIRECTION('',(-1.,0.,0.));
#42 = CARTESIAN_POINT('',(10.,12.5,0.));
#43 = CARTESIAN_POINT('',(-10.,12.5,0.));
#44 = GEOMETRIC_CURVE_SET('',(#45,#52,#59,#66,#73,#80,#88,#95,#102,#109,
    #116,#123,#130,#137,#144,#151,#158,#166,#173,#180,#187,#194));
#45 = TRIMMED_CURVE('',#46,(#50,PARAMETER_VALUE(0.)),(#51,
    PARAMETER_VALUE(29.)),.T.,.PARAMETER.);
#46 = LINE('',#47,#48);
#47 = CARTESIAN_POINT('',(0.,70.,0.));
#48 = VECTOR('',#49,1.);
#49 = DIRECTION('',(-1.,0.,0.));
#50 = CARTESIAN_POINT('',(0.,70.,0.));
#51 = CARTESIAN_POINT('',(-29.,70.,0.));
#52 = TRIMMED_CURVE('',#53,(#57,PARAMETER_VALUE(0.)),(#58,
    PARAMETER_VALUE(23.)),.T.,.PARAMETER.);
#53 = LINE('',#54,#55);
#54 = CARTESIAN_POINT('',(-29.,70.,0.));
#55 = VECTOR('',#56,1.);
#56 = DIRECTION('',(0.,-1.,0.));
#57 = CARTESIAN_POINT('',(-29.,70.,0.));
#58 = CARTESIAN_POINT('',(-29.,47.,0.));
#59 = TRIMMED_CURVE('',#60,(#64,PARAMETER_VALUE(0.)),(#65,
    PARAMETER_VALUE(66.)),.T.,.PARAMETER.);
#60 = LINE('',#61,#62);
#61 = CARTESIAN_POINT('',(-29.,47.,0.));
#62 = VECTOR('',#63,1.);
#63 = DIRECTION('',(-1.,0.,0.));
#64 = CARTESIAN_POINT('',(-29.,47.,0.));
#65 = CARTESIAN_POINT('',(-95.,47.,0.));
#66 = TRIMMED_CURVE('',#67,(#71,PARAMETER_VALUE(0.)),(#72,
    PARAMETER_VALUE(23.)),.T.,.PARAMETER.);
#67 = LINE('',#68,#69);
#68 = CARTESIAN_POINT('',(-95.,47.,0.));
#69 = VECTOR('',#70,1.);
#70 = DIRECTION('',(0.,1.,0.));
#71 = CARTESIAN_POINT('',(-95.,47.,0.));
#72 = CARTESIAN_POINT('',(-95.,70.,0.));
#73 = TRIMMED_CURVE('',#74,(#78,PARAMETER_VALUE(0.)),(#79,
    PARAMETER_VALUE(18.)),.T.,.PARAMETER.);
#74 = LINE('',#75,#76);
#75 = CARTESIAN_POINT('',(-95.,70.,0.));
#76 = VECTOR('',#77,1.);
#77 = DIRECTION('',(-1.,0.,0.));
#78 = CARTESIAN_POINT('',(-95.,70.,0.));
#79 = CARTESIAN_POINT('',(-113.,70.,0.));
#80 = TRIMMED_CURVE('',#81,(#86,PARAMETER_VALUE(2.907677233278)),(#87,
    PARAMETER_VALUE(3.375508073902)),.T.,.PARAMETER.);
#81 = CIRCLE('',#82,302.);
#82 = AXIS2_PLACEMENT_3D('',#83,#84,#85);
#83 = CARTESIAN_POINT('',(180.77542443165,-2.898E-14,0.));
#84 = DIRECTION('',(0.,0.,1.));
#85 = DIRECTION('',(1.,0.,-0.));
#86 = CARTESIAN_POINT('',(-113.,70.,0.));
#87 = CARTESIAN_POINT('',(-113.,-70.,0.));
#88 = TRIMMED_CURVE('',#89,(#93,PARAMETER_VALUE(0.)),(#94,
    PARAMETER_VALUE(18.)),.T.,.PARAMETER.);
#89 = LINE('',#90,#91);
#90 = CARTESIAN_POINT('',(-95.,-70.,0.));
#91 = VECTOR('',#92,1.);
#92 = DIRECTION('',(-1.,0.,0.));
#93 = CARTESIAN_POINT('',(-95.,-70.,0.));
#94 = CARTESIAN_POINT('',(-113.,-70.,0.));
#95 = TRIMMED_CURVE('',#96,(#100,PARAMETER_VALUE(0.)),(#101,
    PARAMETER_VALUE(23.)),.T.,.PARAMETER.);
#96 = LINE('',#97,#98);
#97 = CARTESIAN_POINT('',(-95.,-47.,0.));
#98 = VECTOR('',#99,1.);
#99 = DIRECTION('',(0.,-1.,0.));
#100 = CARTESIAN_POINT('',(-95.,-47.,0.));
#101 = CARTESIAN_POINT('',(-95.,-70.,0.));
#102 = TRIMMED_CURVE('',#103,(#107,PARAMETER_VALUE(0.)),(#108,
    PARAMETER_VALUE(66.)),.T.,.PARAMETER.);
#103 = LINE('',#104,#105);
#104 = CARTESIAN_POINT('',(-29.,-47.,0.));
#105 = VECTOR('',#106,1.);
#106 = DIRECTION('',(-1.,0.,0.));
#107 = CARTESIAN_POINT('',(-29.,-47.,0.));
#108 = CARTESIAN_POINT('',(-95.,-47.,0.));
#109 = TRIMMED_CURVE('',#110,(#114,PARAMETER_VALUE(0.)),(#115,
    PARAMETER_VALUE(23.)),.T.,.PARAMETER.);
#110 = LINE('',#111,#112);
#111 = CARTESIAN_POINT('',(-29.,-70.,0.));
#112 = VECTOR('',#113,1.);
#113 = DIRECTION('',(0.,1.,0.));
#114 = CARTESIAN_POINT('',(-29.,-70.,0.));
#115 = CARTESIAN_POINT('',(-29.,-47.,0.));
#116 = TRIMMED_CURVE('',#117,(#121,PARAMETER_VALUE(0.)),(#122,
    PARAMETER_VALUE(29.)),.T.,.PARAMETER.);
#117 = LINE('',#118,#119);
#118 = CARTESIAN_POINT('',(0.,-70.,0.));
#119 = VECTOR('',#120,1.);
#120 = DIRECTION('',(-1.,0.,0.));
#121 = CARTESIAN_POINT('',(0.,-70.,0.));
#122 = CARTESIAN_POINT('',(-29.,-70.,0.));
#123 = TRIMMED_CURVE('',#124,(#128,PARAMETER_VALUE(0.)),(#129,
    PARAMETER_VALUE(29.)),.T.,.PARAMETER.);
#124 = LINE('',#125,#126);
#125 = CARTESIAN_POINT('',(0.,-70.,0.));
#126 = VECTOR('',#127,1.);
#127 = DIRECTION('',(1.,0.,0.));
#128 = CARTESIAN_POINT('',(0.,-70.,0.));
#129 = CARTESIAN_POINT('',(29.,-70.,0.));
#130 = TRIMMED_CURVE('',#131,(#135,PARAMETER_VALUE(0.)),(#136,
    PARAMETER_VALUE(23.)),.T.,.PARAMETER.);
#131 = LINE('',#132,#133);
#132 = CARTESIAN_POINT('',(29.,-70.,0.));
#133 = VECTOR('',#134,1.);
#134 = DIRECTION('',(0.,1.,0.));
#135 = CARTESIAN_POINT('',(29.,-70.,0.));
#136 = CARTESIAN_POINT('',(29.,-47.,0.));
#137 = TRIMMED_CURVE('',#138,(#142,PARAMETER_VALUE(0.)),(#143,
    PARAMETER_VALUE(66.)),.T.,.PARAMETER.);
#138 = LINE('',#139,#140);
#139 = CARTESIAN_POINT('',(29.,-47.,0.));
#140 = VECTOR('',#141,1.);
#141 = DIRECTION('',(1.,0.,0.));
#142 = CARTESIAN_POINT('',(29.,-47.,0.));
#143 = CARTESIAN_POINT('',(95.,-47.,0.));
#144 = TRIMMED_CURVE('',#145,(#149,PARAMETER_VALUE(0.)),(#150,
    PARAMETER_VALUE(23.)),.T.,.PARAMETER.);
#145 = LINE('',#146,#147);
#146 = CARTESIAN_POINT('',(95.,-47.,0.));
#147 = VECTOR('',#148,1.);
#148 = DIRECTION('',(0.,-1.,0.));
#149 = CARTESIAN_POINT('',(95.,-47.,0.));
#150 = CARTESIAN_POINT('',(95.,-70.,0.));
#151 = TRIMMED_CURVE('',#152,(#156,PARAMETER_VALUE(0.)),(#157,
    PARAMETER_VALUE(18.)),.T.,.PARAMETER.);
#152 = LINE('',#153,#154);
#153 = CARTESIAN_POINT('',(95.,-70.,0.));
#154 = VECTOR('',#155,1.);
#155 = DIRECTION('',(1.,0.,0.));
#156 = CARTESIAN_POINT('',(95.,-70.,0.));
#157 = CARTESIAN_POINT('',(113.,-70.,0.));
#158 = TRIMMED_CURVE('',#159,(#164,PARAMETER_VALUE(6.049269886868)),(
    #165,PARAMETER_VALUE(6.517100727492)),.T.,.PARAMETER.);
#159 = CIRCLE('',#160,302.);
#160 = AXIS2_PLACEMENT_3D('',#161,#162,#163);
#161 = CARTESIAN_POINT('',(-180.7754244316,-2.898E-14,0.));
#162 = DIRECTION('',(0.,0.,1.));
#163 = DIRECTION('',(1.,0.,-0.));
#164 = CARTESIAN_POINT('',(113.,-70.,0.));
#165 = CARTESIAN_POINT('',(113.,70.,0.));
#166 = TRIMMED_CURVE('',#167,(#171,PARAMETER_VALUE(0.)),(#172,
    PARAMETER_VALUE(18.)),.T.,.PARAMETER.);
#167 = LINE('',#168,#169);
#168 = CARTESIAN_POINT('',(95.,70.,0.));
#169 = VECTOR('',#170,1.);
#170 = DIRECTION('',(1.,0.,0.));
#171 = CARTESIAN_POINT('',(95.,70.,0.));
#172 = CARTESIAN_POINT('',(113.,70.,0.));
#173 = TRIMMED_CURVE('',#174,(#178,PARAMETER_VALUE(0.)),(#179,
    PARAMETER_VALUE(23.)),.T.,.PARAMETER.);
#174 = LINE('',#175,#176);
#175 = CARTESIAN_POINT('',(95.,47.,0.));
#176 = VECTOR('',#177,1.);
#177 = DIRECTION('',(0.,1.,0.));
#178 = CARTESIAN_POINT('',(95.,47.,0.));
#179 = CARTESIAN_POINT('',(95.,70.,0.));
#180 = TRIMMED_CURVE('',#181,(#185,PARAMETER_VALUE(0.)),(#186,
    PARAMETER_VALUE(66.)),.T.,.PARAMETER.);
#181 = LINE('',#182,#183);
#182 = CARTESIAN_POINT('',(29.,47.,0.));
#183 = VECTOR('',#184,1.);
#184 = DIRECTION('',(1.,0.,0.));
#185 = CARTESIAN_POINT('',(29.,47.,0.));
#186 = CARTESIAN_POINT('',(95.,47.,0.));
#187 = TRIMMED_CURVE('',#188,(#192,PARAMETER_VALUE(0.)),(#193,
    PARAMETER_VALUE(23.)),.T.,.PARAMETER.);
#188 = LINE('',#189,#190);
#189 = CARTESIAN_POINT('',(29.,70.,0.));
#190 = VECTOR('',#191,1.);
#191 = DIRECTION('',(0.,-1.,0.));
#192 = CARTESIAN_POINT('',(29.,70.,0.));
#193 = CARTESIAN_POINT('',(29.,47.,0.));
#194 = TRIMMED_CURVE('',#195,(#199,PARAMETER_VALUE(0.)),(#200,
    PARAMETER_VALUE(29.)),.T.,.PARAMETER.);
#195 = LINE('',#196,#197);
#196 = CARTESIAN_POINT('',(0.,70.,0.));
#197 = VECTOR('',#198,1.);
#198 = DIRECTION('',(1.,0.,0.));
#199 = CARTESIAN_POINT('',(0.,70.,0.));
#200 = CARTESIAN_POINT('',(29.,70.,0.));
#201 = GEOMETRIC_CURVE_SET('',(#202));
#202 = TRIMMED_CURVE('',#203,(#208,PARAMETER_VALUE(0.)),(#209,
    PARAMETER_VALUE(6.28318530718)),.T.,.PARAMETER.);
#203 = CIRCLE('',#204,1.5);
#204 = AXIS2_PLACEMENT_3D('',#205,#206,#207);
#205 = CARTESIAN_POINT('',(-86.5,25.5,0.));
#206 = DIRECTION('',(0.,0.,1.));
#207 = DIRECTION('',(1.,0.,-0.));
#208 = CARTESIAN_POINT('',(-85.,25.5,0.));
#209 = CARTESIAN_POINT('',(-85.,25.5,0.));
#210 = GEOMETRIC_CURVE_SET('',(#211));
#211 = TRIMMED_CURVE('',#212,(#217,PARAMETER_VALUE(0.)),(#218,
    PARAMETER_VALUE(6.28318530718)),.T.,.PARAMETER.);
#212 = CIRCLE('',#213,1.5);
#213 = AXIS2_PLACEMENT_3D('',#214,#215,#216);
#214 = CARTESIAN_POINT('',(-78.5,25.5,0.));
#215 = DIRECTION('',(0.,0.,1.));
#216 = DIRECTION('',(1.,0.,-0.));
#217 = CARTESIAN_POINT('',(-77.,25.5,0.));
#218 = CARTESIAN_POINT('',(-77.,25.5,0.));
#219 = GEOMETRIC_CURVE_SET('',(#220));
#220 = TRIMMED_CURVE('',#221,(#226,PARAMETER_VALUE(0.)),(#227,
    PARAMETER_VALUE(6.28318530718)),.T.,.PARAMETER.);
#221 = CIRCLE('',#222,1.5);
#222 = AXIS2_PLACEMENT_3D('',#223,#224,#225);
#223 = CARTESIAN_POINT('',(-86.5,-25.5,0.));
#224 = DIRECTION('',(0.,0.,1.));
#225 = DIRECTION('',(1.,0.,-0.));
#226 = CARTESIAN_POINT('',(-85.,-25.5,0.));
#227 = CARTESIAN_POINT('',(-85.,-25.5,0.));
#228 = GEOMETRIC_CURVE_SET('',(#229));
#229 = TRIMMED_CURVE('',#230,(#235,PARAMETER_VALUE(0.)),(#236,
    PARAMETER_VALUE(6.28318530718)),.T.,.PARAMETER.);
#230 = CIRCLE('',#231,1.5);
#231 = AXIS2_PLACEMENT_3D('',#232,#233,#234);
#232 = CARTESIAN_POINT('',(-78.5,-25.5,0.));
#233 = DIRECTION('',(0.,0.,1.));
#234 = DIRECTION('',(1.,0.,-0.));
#235 = CARTESIAN_POINT('',(-77.,-25.5,0.));
#236 = CARTESIAN_POINT('',(-77.,-25.5,0.));
#237 = GEOMETRIC_CURVE_SET('',(#238));
#238 = TRIMMED_CURVE('',#239,(#244,PARAMETER_VALUE(0.)),(#245,
    PARAMETER_VALUE(6.28318530718)),.T.,.PARAMETER.);
#239 = CIRCLE('',#240,1.5);
#240 = AXIS2_PLACEMENT_3D('',#241,#242,#243);
#241 = CARTESIAN_POINT('',(-17.,64.,0.));
#242 = DIRECTION('',(0.,0.,1.));
#243 = DIRECTION('',(1.,0.,-0.));
#244 = CARTESIAN_POINT('',(-15.5,64.,0.));
#245 = CARTESIAN_POINT('',(-15.5,64.,0.));
#246 = GEOMETRIC_CURVE_SET('',(#247,#254,#261,#268));
#247 = TRIMMED_CURVE('',#248,(#252,PARAMETER_VALUE(0.)),(#253,
    PARAMETER_VALUE(5.)),.T.,.PARAMETER.);
#248 = LINE('',#249,#250);
#249 = CARTESIAN_POINT('',(-72.5,22.,0.));
#250 = VECTOR('',#251,1.);
#251 = DIRECTION('',(0.,-1.,0.));
#252 = CARTESIAN_POINT('',(-72.5,22.,0.));
#253 = CARTESIAN_POINT('',(-72.5,17.,0.));
#254 = TRIMMED_CURVE('',#255,(#259,PARAMETER_VALUE(0.)),(#260,
    PARAMETER_VALUE(21.)),.T.,.PARAMETER.);
#255 = LINE('',#256,#257);
#256 = CARTESIAN_POINT('',(-72.5,17.,0.));
#257 = VECTOR('',#258,1.);
#258 = DIRECTION('',(1.,0.,0.));
#259 = CARTESIAN_POINT('',(-72.5,17.,0.));
#260 = CARTESIAN_POINT('',(-51.5,17.,0.));
#261 = TRIMMED_CURVE('',#262,(#266,PARAMETER_VALUE(0.)),(#267,
    PARAMETER_VALUE(5.)),.T.,.PARAMETER.);
#262 = LINE('',#263,#264);
#263 = CARTESIAN_POINT('',(-51.5,17.,0.));
#264 = VECTOR('',#265,1.);
#265 = DIRECTION('',(0.,1.,0.));
#266 = CARTESIAN_POINT('',(-51.5,17.,0.));
#267 = CARTESIAN_POINT('',(-51.5,22.,0.));
#268 = TRIMMED_CURVE('',#269,(#273,PARAMETER_VALUE(0.)),(#274,
    PARAMETER_VALUE(21.)),.T.,.PARAMETER.);
#269 = LINE('',#270,#271);
#270 = CARTESIAN_POINT('',(-51.5,22.,0.));
#271 = VECTOR('',#272,1.);
#272 = DIRECTION('',(-1.,0.,0.));
#273 = CARTESIAN_POINT('',(-51.5,22.,0.));
#274 = CARTESIAN_POINT('',(-72.5,22.,0.));
#275 = GEOMETRIC_CURVE_SET('',(#276,#283,#290,#297));
#276 = TRIMMED_CURVE('',#277,(#281,PARAMETER_VALUE(0.)),(#282,
    PARAMETER_VALUE(5.)),.T.,.PARAMETER.);
#277 = LINE('',#278,#279);
#278 = CARTESIAN_POINT('',(-72.5,-17.,0.));
#279 = VECTOR('',#280,1.);
#280 = DIRECTION('',(0.,-1.,0.));
#281 = CARTESIAN_POINT('',(-72.5,-17.,0.));
#282 = CARTESIAN_POINT('',(-72.5,-22.,0.));
#283 = TRIMMED_CURVE('',#284,(#288,PARAMETER_VALUE(0.)),(#289,
    PARAMETER_VALUE(21.)),.T.,.PARAMETER.);
#284 = LINE('',#285,#286);
#285 = CARTESIAN_POINT('',(-72.5,-22.,0.));
#286 = VECTOR('',#287,1.);
#287 = DIRECTION('',(1.,0.,0.));
#288 = CARTESIAN_POINT('',(-72.5,-22.,0.));
#289 = CARTESIAN_POINT('',(-51.5,-22.,0.));
#290 = TRIMMED_CURVE('',#291,(#295,PARAMETER_VALUE(0.)),(#296,
    PARAMETER_VALUE(5.)),.T.,.PARAMETER.);
#291 = LINE('',#292,#293);
#292 = CARTESIAN_POINT('',(-51.5,-22.,0.));
#293 = VECTOR('',#294,1.);
#294 = DIRECTION('',(0.,1.,0.));
#295 = CARTESIAN_POINT('',(-51.5,-22.,0.));
#296 = CARTESIAN_POINT('',(-51.5,-17.,0.));
#297 = TRIMMED_CURVE('',#298,(#302,PARAMETER_VALUE(0.)),(#303,
    PARAMETER_VALUE(21.)),.T.,.PARAMETER.);
#298 = LINE('',#299,#300);
#299 = CARTESIAN_POINT('',(-51.5,-17.,0.));
#300 = VECTOR('',#301,1.);
#301 = DIRECTION('',(-1.,0.,0.));
#302 = CARTESIAN_POINT('',(-51.5,-17.,0.));
#303 = CARTESIAN_POINT('',(-72.5,-17.,0.));
#304 = GEOMETRIC_CURVE_SET('',(#305));
#305 = TRIMMED_CURVE('',#306,(#311,PARAMETER_VALUE(0.)),(#312,
    PARAMETER_VALUE(6.28318530718)),.T.,.PARAMETER.);
#306 = CIRCLE('',#307,1.5);
#307 = AXIS2_PLACEMENT_3D('',#308,#309,#310);
#308 = CARTESIAN_POINT('',(-36.5,31.5,0.));
#309 = DIRECTION('',(0.,0.,1.));
#310 = DIRECTION('',(1.,0.,-0.));
#311 = CARTESIAN_POINT('',(-35.,31.5,0.));
#312 = CARTESIAN_POINT('',(-35.,31.5,0.));
#313 = GEOMETRIC_CURVE_SET('',(#314));
#314 = TRIMMED_CURVE('',#315,(#320,PARAMETER_VALUE(0.)),(#321,
    PARAMETER_VALUE(6.28318530718)),.T.,.PARAMETER.);
#315 = CIRCLE('',#316,1.5);
#316 = AXIS2_PLACEMENT_3D('',#317,#318,#319);
#317 = CARTESIAN_POINT('',(-36.5,0.,0.));
#318 = DIRECTION('',(0.,0.,1.));
#319 = DIRECTION('',(1.,0.,-0.));
#320 = CARTESIAN_POINT('',(-35.,0.,0.));
#321 = CARTESIAN_POINT('',(-35.,0.,0.));
#322 = GEOMETRIC_CURVE_SET('',(#323));
#323 = TRIMMED_CURVE('',#324,(#329,PARAMETER_VALUE(0.)),(#330,
    PARAMETER_VALUE(6.28318530718)),.T.,.PARAMETER.);
#324 = CIRCLE('',#325,1.5);
#325 = AXIS2_PLACEMENT_3D('',#326,#327,#328);
#326 = CARTESIAN_POINT('',(-36.5,-31.5,0.));
#327 = DIRECTION('',(0.,0.,1.));
#328 = DIRECTION('',(1.,0.,-0.));
#329 = CARTESIAN_POINT('',(-35.,-31.5,0.));
#330 = CARTESIAN_POINT('',(-35.,-31.5,0.));
#331 = GEOMETRIC_CURVE_SET('',(#332));
#332 = TRIMMED_CURVE('',#333,(#338,PARAMETER_VALUE(0.)),(#339,
    PARAMETER_VALUE(6.28318530718)),.T.,.PARAMETER.);
#333 = CIRCLE('',#334,1.5);
#334 = AXIS2_PLACEMENT_3D('',#335,#336,#337);
#335 = CARTESIAN_POINT('',(86.5,25.5,0.));
#336 = DIRECTION('',(0.,0.,1.));
#337 = DIRECTION('',(1.,0.,-0.));
#338 = CARTESIAN_POINT('',(88.,25.5,0.));
#339 = CARTESIAN_POINT('',(88.,25.5,0.));
#340 = GEOMETRIC_CURVE_SET('',(#341));
#341 = TRIMMED_CURVE('',#342,(#347,PARAMETER_VALUE(0.)),(#348,
    PARAMETER_VALUE(6.28318530718)),.T.,.PARAMETER.);
#342 = CIRCLE('',#343,1.5);
#343 = AXIS2_PLACEMENT_3D('',#344,#345,#346);
#344 = CARTESIAN_POINT('',(78.5,25.5,0.));
#345 = DIRECTION('',(0.,0.,1.));
#346 = DIRECTION('',(1.,0.,-0.));
#347 = CARTESIAN_POINT('',(80.,25.5,0.));
#348 = CARTESIAN_POINT('',(80.,25.5,0.));
#349 = GEOMETRIC_CURVE_SET('',(#350));
#350 = TRIMMED_CURVE('',#351,(#356,PARAMETER_VALUE(0.)),(#357,
    PARAMETER_VALUE(6.28318530718)),.T.,.PARAMETER.);
#351 = CIRCLE('',#352,1.5);
#352 = AXIS2_PLACEMENT_3D('',#353,#354,#355);
#353 = CARTESIAN_POINT('',(86.5,-25.5,0.));
#354 = DIRECTION('',(0.,0.,1.));
#355 = DIRECTION('',(1.,0.,-0.));
#356 = CARTESIAN_POINT('',(88.,-25.5,0.));
#357 = CARTESIAN_POINT('',(88.,-25.5,0.));
#358 = GEOMETRIC_CURVE_SET('',(#359));
#359 = TRIMMED_CURVE('',#360,(#365,PARAMETER_VALUE(0.)),(#366,
    PARAMETER_VALUE(6.28318530718)),.T.,.PARAMETER.);
#360 = CIRCLE('',#361,1.5);
#361 = AXIS2_PLACEMENT_3D('',#362,#363,#364);
#362 = CARTESIAN_POINT('',(78.5,-25.5,0.));
#363 = DIRECTION('',(0.,0.,1.));
#364 = DIRECTION('',(1.,0.,-0.));
#365 = CARTESIAN_POINT('',(80.,-25.5,0.));
#366 = CARTESIAN_POINT('',(80.,-25.5,0.));
#367 = GEOMETRIC_CURVE_SET('',(#368));
#368 = TRIMMED_CURVE('',#369,(#374,PARAMETER_VALUE(0.)),(#375,
    PARAMETER_VALUE(6.28318530718)),.T.,.PARAMETER.);
#369 = CIRCLE('',#370,1.5);
#370 = AXIS2_PLACEMENT_3D('',#371,#372,#373);
#371 = CARTESIAN_POINT('',(17.,64.,0.));
#372 = DIRECTION('',(0.,0.,1.));
#373 = DIRECTION('',(1.,0.,-0.));
#374 = CARTESIAN_POINT('',(18.5,64.,0.));
#375 = CARTESIAN_POINT('',(18.5,64.,0.));
#376 = GEOMETRIC_CURVE_SET('',(#377,#384,#391,#398));
#377 = TRIMMED_CURVE('',#378,(#382,PARAMETER_VALUE(0.)),(#383,
    PARAMETER_VALUE(5.)),.T.,.PARAMETER.);
#378 = LINE('',#379,#380);
#379 = CARTESIAN_POINT('',(72.5,22.,0.));
#380 = VECTOR('',#381,1.);
#381 = DIRECTION('',(0.,-1.,0.));
#382 = CARTESIAN_POINT('',(72.5,22.,0.));
#383 = CARTESIAN_POINT('',(72.5,17.,0.));
#384 = TRIMMED_CURVE('',#385,(#389,PARAMETER_VALUE(0.)),(#390,
    PARAMETER_VALUE(21.)),.T.,.PARAMETER.);
#385 = LINE('',#386,#387);
#386 = CARTESIAN_POINT('',(72.5,17.,0.));
#387 = VECTOR('',#388,1.);
#388 = DIRECTION('',(-1.,0.,0.));
#389 = CARTESIAN_POINT('',(72.5,17.,0.));
#390 = CARTESIAN_POINT('',(51.5,17.,0.));
#391 = TRIMMED_CURVE('',#392,(#396,PARAMETER_VALUE(0.)),(#397,
    PARAMETER_VALUE(5.)),.T.,.PARAMETER.);
#392 = LINE('',#393,#394);
#393 = CARTESIAN_POINT('',(51.5,17.,0.));
#394 = VECTOR('',#395,1.);
#395 = DIRECTION('',(0.,1.,0.));
#396 = CARTESIAN_POINT('',(51.5,17.,0.));
#397 = CARTESIAN_POINT('',(51.5,22.,0.));
#398 = TRIMMED_CURVE('',#399,(#403,PARAMETER_VALUE(0.)),(#404,
    PARAMETER_VALUE(21.)),.T.,.PARAMETER.);
#399 = LINE('',#400,#401);
#400 = CARTESIAN_POINT('',(51.5,22.,0.));
#401 = VECTOR('',#402,1.);
#402 = DIRECTION('',(1.,0.,0.));
#403 = CARTESIAN_POINT('',(51.5,22.,0.));
#404 = CARTESIAN_POINT('',(72.5,22.,0.));
#405 = GEOMETRIC_CURVE_SET('',(#406,#413,#420,#427));
#406 = TRIMMED_CURVE('',#407,(#411,PARAMETER_VALUE(0.)),(#412,
    PARAMETER_VALUE(5.)),.T.,.PARAMETER.);
#407 = LINE('',#408,#409);
#408 = CARTESIAN_POINT('',(72.5,-17.,0.));
#409 = VECTOR('',#410,1.);
#410 = DIRECTION('',(0.,-1.,0.));
#411 = CARTESIAN_POINT('',(72.5,-17.,0.));
#412 = CARTESIAN_POINT('',(72.5,-22.,0.));
#413 = TRIMMED_CURVE('',#414,(#418,PARAMETER_VALUE(0.)),(#419,
    PARAMETER_VALUE(21.)),.T.,.PARAMETER.);
#414 = LINE('',#415,#416);
#415 = CARTESIAN_POINT('',(72.5,-22.,0.));
#416 = VECTOR('',#417,1.);
#417 = DIRECTION('',(-1.,0.,0.));
#418 = CARTESIAN_POINT('',(72.5,-22.,0.));
#419 = CARTESIAN_POINT('',(51.5,-22.,0.));
#420 = TRIMMED_CURVE('',#421,(#425,PARAMETER_VALUE(0.)),(#426,
    PARAMETER_VALUE(5.)),.T.,.PARAMETER.);
#421 = LINE('',#422,#423);
#422 = CARTESIAN_POINT('',(51.5,-22.,0.));
#423 = VECTOR('',#424,1.);
#424 = DIRECTION('',(0.,1.,0.));
#425 = CARTESIAN_POINT('',(51.5,-22.,0.));
#426 = CARTESIAN_POINT('',(51.5,-17.,0.));
#427 = TRIMMED_CURVE('',#428,(#432,PARAMETER_VALUE(0.)),(#433,
    PARAMETER_VALUE(21.)),.T.,.PARAMETER.);
#428 = LINE('',#429,#430);
#429 = CARTESIAN_POINT('',(51.5,-17.,0.));
#430 = VECTOR('',#431,1.);
#431 = DIRECTION('',(1.,0.,0.));
#432 = CARTESIAN_POINT('',(51.5,-17.,0.));
#433 = CARTESIAN_POINT('',(72.5,-17.,0.));
#434 = GEOMETRIC_CURVE_SET('',(#435));
#435 = TRIMMED_CURVE('',#436,(#441,PARAMETER_VALUE(0.)),(#442,
    PARAMETER_VALUE(6.28318530718)),.T.,.PARAMETER.);
#436 = CIRCLE('',#437,1.5);
#437 = AXIS2_PLACEMENT_3D('',#438,#439,#440);
#438 = CARTESIAN_POINT('',(36.5,31.5,0.));
#439 = DIRECTION('',(0.,0.,1.));
#440 = DIRECTION('',(1.,0.,-0.));
#441 = CARTESIAN_POINT('',(38.,31.5,0.));
#442 = CARTESIAN_POINT('',(38.,31.5,0.));
#443 = GEOMETRIC_CURVE_SET('',(#444));
#444 = TRIMMED_CURVE('',#445,(#450,PARAMETER_VALUE(0.)),(#451,
    PARAMETER_VALUE(6.28318530718)),.T.,.PARAMETER.);
#445 = CIRCLE('',#446,1.5);
#446 = AXIS2_PLACEMENT_3D('',#447,#448,#449);
#447 = CARTESIAN_POINT('',(36.5,0.,0.));
#448 = DIRECTION('',(0.,0.,1.));
#449 = DIRECTION('',(1.,0.,-0.));
#450 = CARTESIAN_POINT('',(38.,0.,0.));
#451 = CARTESIAN_POINT('',(38.,0.,0.));
#452 = GEOMETRIC_CURVE_SET('',(#453));
#453 = TRIMMED_CURVE('',#454,(#459,PARAMETER_VALUE(0.)),(#460,
    PARAMETER_VALUE(6.28318530718)),.T.,.PARAMETER.);
#454 = CIRCLE('',#455,1.5);
#455 = AXIS2_PLACEMENT_3D('',#456,#457,#458);
#456 = CARTESIAN_POINT('',(36.5,-31.5,0.));
#457 = DIRECTION('',(0.,0.,1.));
#458 = DIRECTION('',(1.,0.,-0.));
#459 = CARTESIAN_POINT('',(38.,-31.5,0.));
#460 = CARTESIAN_POINT('',(38.,-31.5,0.));
#461 = GEOMETRIC_CURVE_SET('',(#462));
#462 = TRIMMED_CURVE('',#463,(#468,PARAMETER_VALUE(0.)),(#469,
    PARAMETER_VALUE(6.28318530718)),.T.,.PARAMETER.);
#463 = CIRCLE('',#464,1.5);
#464 = AXIS2_PLACEMENT_3D('',#465,#466,#467);
#465 = CARTESIAN_POINT('',(-108.22,0.,0.));
#466 = DIRECTION('',(0.,0.,1.));
#467 = DIRECTION('',(1.,0.,-0.));
#468 = CARTESIAN_POINT('',(-106.72,0.,0.));
#469 = CARTESIAN_POINT('',(-106.72,0.,0.));
#470 = GEOMETRIC_CURVE_SET('',(#471));
#471 = TRIMMED_CURVE('',#472,(#477,PARAMETER_VALUE(0.)),(#478,
    PARAMETER_VALUE(6.28318530718)),.T.,.PARAMETER.);
#472 = CIRCLE('',#473,1.5);
#473 = AXIS2_PLACEMENT_3D('',#474,#475,#476);
#474 = CARTESIAN_POINT('',(-61.22,0.,0.));
#475 = DIRECTION('',(0.,0.,1.));
#476 = DIRECTION('',(1.,0.,-0.));
#477 = CARTESIAN_POINT('',(-59.72,0.,0.));
#478 = CARTESIAN_POINT('',(-59.72,0.,0.));
#479 = GEOMETRIC_CURVE_SET('',(#480));
#480 = TRIMMED_CURVE('',#481,(#486,PARAMETER_VALUE(0.)),(#487,
    PARAMETER_VALUE(6.28318530718)),.T.,.PARAMETER.);
#481 = CIRCLE('',#482,1.5);
#482 = AXIS2_PLACEMENT_3D('',#483,#484,#485);
#483 = CARTESIAN_POINT('',(61.5,0.,0.));
#484 = DIRECTION('',(0.,0.,1.));
#485 = DIRECTION('',(1.,0.,-0.));
#486 = CARTESIAN_POINT('',(63.,0.,0.));
#487 = CARTESIAN_POINT('',(63.,0.,0.));
#488 = GEOMETRIC_CURVE_SET('',(#489));
#489 = TRIMMED_CURVE('',#490,(#495,PARAMETER_VALUE(0.)),(#496,
    PARAMETER_VALUE(6.28318530718)),.T.,.PARAMETER.);
#490 = CIRCLE('',#491,1.5);
#491 = AXIS2_PLACEMENT_3D('',#492,#493,#494);
#492 = CARTESIAN_POINT('',(101.5,0.,0.));
#493 = DIRECTION('',(0.,0.,1.));
#494 = DIRECTION('',(1.,0.,-0.));
#495 = CARTESIAN_POINT('',(103.,0.,0.));
#496 = CARTESIAN_POINT('',(103.,0.,0.));
#497 = GEOMETRIC_CURVE_SET('',(#498));
#498 = TRIMMED_CURVE('',#499,(#504,PARAMETER_VALUE(0.)),(#505,
    PARAMETER_VALUE(6.28318530718)),.T.,.PARAMETER.);
#499 = CIRCLE('',#500,1.5);
#500 = AXIS2_PLACEMENT_3D('',#501,#502,#503);
#501 = CARTESIAN_POINT('',(112.5,18.,0.));
#502 = DIRECTION('',(0.,0.,1.));
#503 = DIRECTION('',(1.,0.,-0.));
#504 = CARTESIAN_POINT('',(114.,18.,0.));
#505 = CARTESIAN_POINT('',(114.,18.,0.));
#506 = GEOMETRIC_CURVE_SET('',(#507));
#507 = TRIMMED_CURVE('',#508,(#513,PARAMETER_VALUE(0.)),(#514,
    PARAMETER_VALUE(6.28318530718)),.T.,.PARAMETER.);
#508 = CIRCLE('',#509,1.5);
#509 = AXIS2_PLACEMENT_3D('',#510,#511,#512);
#510 = CARTESIAN_POINT('',(112.5,-18.,0.));
#511 = DIRECTION('',(0.,0.,1.));
#512 = DIRECTION('',(1.,0.,-0.));
#513 = CARTESIAN_POINT('',(114.,-18.,0.));
#514 = CARTESIAN_POINT('',(114.,-18.,0.));
#515 = GEOMETRIC_CURVE_SET('',(#516,#523,#530,#537));
#516 = TRIMMED_CURVE('',#517,(#521,PARAMETER_VALUE(0.)),(#522,
    PARAMETER_VALUE(14.5)),.T.,.PARAMETER.);
#517 = LINE('',#518,#519);
#518 = CARTESIAN_POINT('',(101.,26.75,0.));
#519 = VECTOR('',#520,1.);
#520 = DIRECTION('',(0.,-1.,0.));
#521 = CARTESIAN_POINT('',(101.,26.75,0.));
#522 = CARTESIAN_POINT('',(101.,12.25,0.));
#523 = TRIMMED_CURVE('',#524,(#528,PARAMETER_VALUE(0.)),(#529,
    PARAMETER_VALUE(6.5)),.T.,.PARAMETER.);
#524 = LINE('',#525,#526);
#525 = CARTESIAN_POINT('',(101.,12.25,0.));
#526 = VECTOR('',#527,1.);
#527 = DIRECTION('',(1.,0.,0.));
#528 = CARTESIAN_POINT('',(101.,12.25,0.));
#529 = CARTESIAN_POINT('',(107.5,12.25,0.));
#530 = TRIMMED_CURVE('',#531,(#535,PARAMETER_VALUE(0.)),(#536,
    PARAMETER_VALUE(14.5)),.T.,.PARAMETER.);
#531 = LINE('',#532,#533);
#532 = CARTESIAN_POINT('',(107.5,12.25,0.));
#533 = VECTOR('',#534,1.);
#534 = DIRECTION('',(0.,1.,0.));
#535 = CARTESIAN_POINT('',(107.5,12.25,0.));
#536 = CARTESIAN_POINT('',(107.5,26.75,0.));
#537 = TRIMMED_CURVE('',#538,(#542,PARAMETER_VALUE(0.)),(#543,
    PARAMETER_VALUE(6.5)),.T.,.PARAMETER.);
#538 = LINE('',#539,#540);
#539 = CARTESIAN_POINT('',(107.5,26.75,0.));
#540 = VECTOR('',#541,1.);
#541 = DIRECTION('',(-1.,0.,0.));
#542 = CARTESIAN_POINT('',(107.5,26.75,0.));
#543 = CARTESIAN_POINT('',(101.,26.75,0.));
#544 = GEOMETRIC_CURVE_SET('',(#545,#552,#559,#566));
#545 = TRIMMED_CURVE('',#546,(#550,PARAMETER_VALUE(0.)),(#551,
    PARAMETER_VALUE(14.499999999995)),.T.,.PARAMETER.);
#546 = LINE('',#547,#548);
#547 = CARTESIAN_POINT('',(101.,-12.25,0.));
#548 = VECTOR('',#549,1.);
#549 = DIRECTION('',(0.,-1.,0.));
#550 = CARTESIAN_POINT('',(101.,-12.25,0.));
#551 = CARTESIAN_POINT('',(101.,-26.74999999999,0.));
#552 = TRIMMED_CURVE('',#553,(#557,PARAMETER_VALUE(0.)),(#558,
    PARAMETER_VALUE(6.5)),.T.,.PARAMETER.);
#553 = LINE('',#554,#555);
#554 = CARTESIAN_POINT('',(101.,-26.74999999999,0.));
#555 = VECTOR('',#556,1.);
#556 = DIRECTION('',(1.,0.,0.));
#557 = CARTESIAN_POINT('',(101.,-26.74999999999,0.));
#558 = CARTESIAN_POINT('',(107.5,-26.74999999999,0.));
#559 = TRIMMED_CURVE('',#560,(#564,PARAMETER_VALUE(0.)),(#565,
    PARAMETER_VALUE(14.499999999995)),.T.,.PARAMETER.);
#560 = LINE('',#561,#562);
#561 = CARTESIAN_POINT('',(107.5,-26.74999999999,0.));
#562 = VECTOR('',#563,1.);
#563 = DIRECTION('',(0.,1.,0.));
#564 = CARTESIAN_POINT('',(107.5,-26.74999999999,0.));
#565 = CARTESIAN_POINT('',(107.5,-12.25,0.));
#566 = TRIMMED_CURVE('',#567,(#571,PARAMETER_VALUE(0.)),(#572,
    PARAMETER_VALUE(6.5)),.T.,.PARAMETER.);
#567 = LINE('',#568,#569);
#568 = CARTESIAN_POINT('',(107.5,-12.25,0.));
#569 = VECTOR('',#570,1.);
#570 = DIRECTION('',(-1.,0.,0.));
#571 = CARTESIAN_POINT('',(107.5,-12.25,0.));
#572 = CARTESIAN_POINT('',(101.,-12.25,0.));
#573 = ( GEOMETRIC_REPRESENTATION_CONTEXT(3) 
GLOBAL_UNCERTAINTY_ASSIGNED_CONTEXT((#577)) GLOBAL_UNIT_ASSIGNED_CONTEXT
((#574,#575,#576)) REPRESENTATION_CONTEXT('Context #1',
  '3D Context with UNIT and UNCERTAINTY') );
#574 = ( LENGTH_UNIT() NAMED_UNIT(*) SI_UNIT(.MILLI.,.METRE.) );
#575 = ( NAMED_UNIT(*) PLANE_ANGLE_UNIT() SI_UNIT($,.RADIAN.) );
#576 = ( NAMED_UNIT(*) SI_UNIT($,.STERADIAN.) SOLID_ANGLE_UNIT() );
#577 = UNCERTAINTY_MEASURE_WITH_UNIT(LENGTH_MEASURE(1.E-07),#574,
  'distance_accuracy_value','confusion accuracy');
#578 = PRODUCT_RELATED_PRODUCT_CATEGORY('part',$,(#7));
#579 = MECHANICAL_DESIGN_GEOMETRIC_PRESENTATION_REPRESENTATION('',(#580,
    #591,#600,#609,#618,#627,#636,#645,#654,#663,#672,#681,#690,#699,
    #708,#717,#726,#735,#744,#753,#762,#771,#780,#789,#798,#807,#816,
    #825,#834,#843),#573);
#580 = STYLED_ITEM('color',(#581),#15);
#581 = PRESENTATION_STYLE_ASSIGNMENT((#582,#588));
#582 = SURFACE_STYLE_USAGE(.BOTH.,#583);
#583 = SURFACE_SIDE_STYLE('',(#584));
#584 = SURFACE_STYLE_FILL_AREA(#585);
#585 = FILL_AREA_STYLE('',(#586));
#586 = FILL_AREA_STYLE_COLOUR('',#587);
#587 = COLOUR_RGB('',0.447058818107,0.474509808674,0.501960817233);
#588 = CURVE_STYLE('',#589,POSITIVE_LENGTH_MEASURE(0.1),#590);
#589 = DRAUGHTING_PRE_DEFINED_CURVE_FONT('continuous');
#590 = COLOUR_RGB('',0.945098040599,0.952941189437,0.960784305148);
#591 = STYLED_ITEM('color',(#592),#44);
#592 = PRESENTATION_STYLE_ASSIGNMENT((#593,#598));
#593 = SURFACE_STYLE_USAGE(.BOTH.,#594);
#594 = SURFACE_SIDE_STYLE('',(#595));
#595 = SURFACE_STYLE_FILL_AREA(#596);
#596 = FILL_AREA_STYLE('',(#597));
#597 = FILL_AREA_STYLE_COLOUR('',#587);
#598 = CURVE_STYLE('',#599,POSITIVE_LENGTH_MEASURE(0.1),#590);
#599 = DRAUGHTING_PRE_DEFINED_CURVE_FONT('continuous');
#600 = STYLED_ITEM('color',(#601),#201);
#601 = PRESENTATION_STYLE_ASSIGNMENT((#602,#607));
#602 = SURFACE_STYLE_USAGE(.BOTH.,#603);
#603 = SURFACE_SIDE_STYLE('',(#604));
#604 = SURFACE_STYLE_FILL_AREA(#605);
#605 = FILL_AREA_STYLE('',(#606));
#606 = FILL_AREA_STYLE_COLOUR('',#587);
#607 = CURVE_STYLE('',#608,POSITIVE_LENGTH_MEASURE(0.1),#590);
#608 = DRAUGHTING_PRE_DEFINED_CURVE_FONT('continuous');
#609 = STYLED_ITEM('color',(#610),#210);
#610 = PRESENTATION_STYLE_ASSIGNMENT((#611,#616));
#611 = SURFACE_STYLE_USAGE(.BOTH.,#612);
#612 = SURFACE_SIDE_STYLE('',(#613));
#613 = SURFACE_STYLE_FILL_AREA(#614);
#614 = FILL_AREA_STYLE('',(#615));
#615 = FILL_AREA_STYLE_COLOUR('',#587);
#616 = CURVE_STYLE('',#617,POSITIVE_LENGTH_MEASURE(0.1),#590);
#617 = DRAUGHTING_PRE_DEFINED_CURVE_FONT('continuous');
#618 = STYLED_ITEM('color',(#619),#219);
#619 = PRESENTATION_STYLE_ASSIGNMENT((#620,#625));
#620 = SURFACE_STYLE_USAGE(.BOTH.,#621);
#621 = SURFACE_SIDE_STYLE('',(#622));
#622 = SURFACE_STYLE_FILL_AREA(#623);
#623 = FILL_AREA_STYLE('',(#624));
#624 = FILL_AREA_STYLE_COLOUR('',#587);
#625 = CURVE_STYLE('',#626,POSITIVE_LENGTH_MEASURE(0.1),#590);
#626 = DRAUGHTING_PRE_DEFINED_CURVE_FONT('continuous');
#627 = STYLED_ITEM('color',(#628),#228);
#628 = PRESENTATION_STYLE_ASSIGNMENT((#629,#634));
#629 = SURFACE_STYLE_USAGE(.BOTH.,#630);
#630 = SURFACE_SIDE_STYLE('',(#631));
#631 = SURFACE_STYLE_FILL_AREA(#632);
#632 = FILL_AREA_STYLE('',(#633));
#633 = FILL_AREA_STYLE_COLOUR('',#587);
#634 = CURVE_STYLE('',#635,POSITIVE_LENGTH_MEASURE(0.1),#590);
#635 = DRAUGHTING_PRE_DEFINED_CURVE_FONT('continuous');
#636 = STYLED_ITEM('color',(#637),#237);
#637 = PRESENTATION_STYLE_ASSIGNMENT((#638,#643));
#638 = SURFACE_STYLE_USAGE(.BOTH.,#639);
#639 = SURFACE_SIDE_STYLE('',(#640));
#640 = SURFACE_STYLE_FILL_AREA(#641);
#641 = FILL_AREA_STYLE('',(#642));
#642 = FILL_AREA_STYLE_COLOUR('',#587);
#643 = CURVE_STYLE('',#644,POSITIVE_LENGTH_MEASURE(0.1),#590);
#644 = DRAUGHTING_PRE_DEFINED_CURVE_FONT('continuous');
#645 = STYLED_ITEM('color',(#646),#246);
#646 = PRESENTATION_STYLE_ASSIGNMENT((#647,#652));
#647 = SURFACE_STYLE_USAGE(.BOTH.,#648);
#648 = SURFACE_SIDE_STYLE('',(#649));
#649 = SURFACE_STYLE_FILL_AREA(#650);
#650 = FILL_AREA_STYLE('',(#651));
#651 = FILL_AREA_STYLE_COLOUR('',#587);
#652 = CURVE_STYLE('',#653,POSITIVE_LENGTH_MEASURE(0.1),#590);
#653 = DRAUGHTING_PRE_DEFINED_CURVE_FONT('continuous');
#654 = STYLED_ITEM('color',(#655),#275);
#655 = PRESENTATION_STYLE_ASSIGNMENT((#656,#661));
#656 = SURFACE_STYLE_USAGE(.BOTH.,#657);
#657 = SURFACE_SIDE_STYLE('',(#658));
#658 = SURFACE_STYLE_FILL_AREA(#659);
#659 = FILL_AREA_STYLE('',(#660));
#660 = FILL_AREA_STYLE_COLOUR('',#587);
#661 = CURVE_STYLE('',#662,POSITIVE_LENGTH_MEASURE(0.1),#590);
#662 = DRAUGHTING_PRE_DEFINED_CURVE_FONT('continuous');
#663 = STYLED_ITEM('color',(#664),#304);
#664 = PRESENTATION_STYLE_ASSIGNMENT((#665,#670));
#665 = SURFACE_STYLE_USAGE(.BOTH.,#666);
#666 = SURFACE_SIDE_STYLE('',(#667));
#667 = SURFACE_STYLE_FILL_AREA(#668);
#668 = FILL_AREA_STYLE('',(#669));
#669 = FILL_AREA_STYLE_COLOUR('',#587);
#670 = CURVE_STYLE('',#671,POSITIVE_LENGTH_MEASURE(0.1),#590);
#671 = DRAUGHTING_PRE_DEFINED_CURVE_FONT('continuous');
#672 = STYLED_ITEM('color',(#673),#313);
#673 = PRESENTATION_STYLE_ASSIGNMENT((#674,#679));
#674 = SURFACE_STYLE_USAGE(.BOTH.,#675);
#675 = SURFACE_SIDE_STYLE('',(#676));
#676 = SURFACE_STYLE_FILL_AREA(#677);
#677 = FILL_AREA_STYLE('',(#678));
#678 = FILL_AREA_STYLE_COLOUR('',#587);
#679 = CURVE_STYLE('',#680,POSITIVE_LENGTH_MEASURE(0.1),#590);
#680 = DRAUGHTING_PRE_DEFINED_CURVE_FONT('continuous');
#681 = STYLED_ITEM('color',(#682),#322);
#682 = PRESENTATION_STYLE_ASSIGNMENT((#683,#688));
#683 = SURFACE_STYLE_USAGE(.BOTH.,#684);
#684 = SURFACE_SIDE_STYLE('',(#685));
#685 = SURFACE_STYLE_FILL_AREA(#686);
#686 = FILL_AREA_STYLE('',(#687));
#687 = FILL_AREA_STYLE_COLOUR('',#587);
#688 = CURVE_STYLE('',#689,POSITIVE_LENGTH_MEASURE(0.1),#590);
#689 = DRAUGHTING_PRE_DEFINED_CURVE_FONT('continuous');
#690 = STYLED_ITEM('color',(#691),#331);
#691 = PRESENTATION_STYLE_ASSIGNMENT((#692,#697));
#692 = SURFACE_STYLE_USAGE(.BOTH.,#693);
#693 = SURFACE_SIDE_STYLE('',(#694));
#694 = SURFACE_STYLE_FILL_AREA(#695);
#695 = FILL_AREA_STYLE('',(#696));
#696 = FILL_AREA_STYLE_COLOUR('',#587);
#697 = CURVE_STYLE('',#698,POSITIVE_LENGTH_MEASURE(0.1),#590);
#698 = DRAUGHTING_PRE_DEFINED_CURVE_FONT('continuous');
#699 = STYLED_ITEM('color',(#700),#340);
#700 = PRESENTATION_STYLE_ASSIGNMENT((#701,#706));
#701 = SURFACE_STYLE_USAGE(.BOTH.,#702);
#702 = SURFACE_SIDE_STYLE('',(#703));
#703 = SURFACE_STYLE_FILL_AREA(#704);
#704 = FILL_AREA_STYLE('',(#705));
#705 = FILL_AREA_STYLE_COLOUR('',#587);
#706 = CURVE_STYLE('',#707,POSITIVE_LENGTH_MEASURE(0.1),#590);
#707 = DRAUGHTING_PRE_DEFINED_CURVE_FONT('continuous');
#708 = STYLED_ITEM('color',(#709),#349);
#709 = PRESENTATION_STYLE_ASSIGNMENT((#710,#715));
#710 = SURFACE_STYLE_USAGE(.BOTH.,#711);
#711 = SURFACE_SIDE_STYLE('',(#712));
#712 = SURFACE_STYLE_FILL_AREA(#713);
#713 = FILL_AREA_STYLE('',(#714));
#714 = FILL_AREA_STYLE_COLOUR('',#587);
#715 = CURVE_STYLE('',#716,POSITIVE_LENGTH_MEASURE(0.1),#590);
#716 = DRAUGHTING_PRE_DEFINED_CURVE_FONT('continuous');
#717 = STYLED_ITEM('color',(#718),#358);
#718 = PRESENTATION_STYLE_ASSIGNMENT((#719,#724));
#719 = SURFACE_STYLE_USAGE(.BOTH.,#720);
#720 = SURFACE_SIDE_STYLE('',(#721));
#721 = SURFACE_STYLE_FILL_AREA(#722);
#722 = FILL_AREA_STYLE('',(#723));
#723 = FILL_AREA_STYLE_COLOUR('',#587);
#724 = CURVE_STYLE('',#725,POSITIVE_LENGTH_MEASURE(0.1),#590);
#725 = DRAUGHTING_PRE_DEFINED_CURVE_FONT('continuous');
#726 = STYLED_ITEM('color',(#727),#367);
#727 = PRESENTATION_STYLE_ASSIGNMENT((#728,#733));
#728 = SURFACE_STYLE_USAGE(.BOTH.,#729);
#729 = SURFACE_SIDE_STYLE('',(#730));
#730 = SURFACE_STYLE_FILL_AREA(#731);
#731 = FILL_AREA_STYLE('',(#732));
#732 = FILL_AREA_STYLE_COLOUR('',#587);
#733 = CURVE_STYLE('',#734,POSITIVE_LENGTH_MEASURE(0.1),#590);
#734 = DRAUGHTING_PRE_DEFINED_CURVE_FONT('continuous');
#735 = STYLED_ITEM('color',(#736),#376);
#736 = PRESENTATION_STYLE_ASSIGNMENT((#737,#742));
#737 = SURFACE_STYLE_USAGE(.BOTH.,#738);
#738 = SURFACE_SIDE_STYLE('',(#739));
#739 = SURFACE_STYLE_FILL_AREA(#740);
#740 = FILL_AREA_STYLE('',(#741));
#741 = FILL_AREA_STYLE_COLOUR('',#587);
#742 = CURVE_STYLE('',#743,POSITIVE_LENGTH_MEASURE(0.1),#590);
#743 = DRAUGHTING_PRE_DEFINED_CURVE_FONT('continuous');
#744 = STYLED_ITEM('color',(#745),#405);
#745 = PRESENTATION_STYLE_ASSIGNMENT((#746,#751));
#746 = SURFACE_STYLE_USAGE(.BOTH.,#747);
#747 = SURFACE_SIDE_STYLE('',(#748));
#748 = SURFACE_STYLE_FILL_AREA(#749);
#749 = FILL_AREA_STYLE('',(#750));
#750 = FILL_AREA_STYLE_COLOUR('',#587);
#751 = CURVE_STYLE('',#752,POSITIVE_LENGTH_MEASURE(0.1),#590);
#752 = DRAUGHTING_PRE_DEFINED_CURVE_FONT('continuous');
#753 = STYLED_ITEM('color',(#754),#434);
#754 = PRESENTATION_STYLE_ASSIGNMENT((#755,#760));
#755 = SURFACE_STYLE_USAGE(.BOTH.,#756);
#756 = SURFACE_SIDE_STYLE('',(#757));
#757 = SURFACE_STYLE_FILL_AREA(#758);
#758 = FILL_AREA_STYLE('',(#759));
#759 = FILL_AREA_STYLE_COLOUR('',#587);
#760 = CURVE_STYLE('',#761,POSITIVE_LENGTH_MEASURE(0.1),#590);
#761 = DRAUGHTING_PRE_DEFINED_CURVE_FONT('continuous');
#762 = STYLED_ITEM('color',(#763),#443);
#763 = PRESENTATION_STYLE_ASSIGNMENT((#764,#769));
#764 = SURFACE_STYLE_USAGE(.BOTH.,#765);
#765 = SURFACE_SIDE_STYLE('',(#766));
#766 = SURFACE_STYLE_FILL_AREA(#767);
#767 = FILL_AREA_STYLE('',(#768));
#768 = FILL_AREA_STYLE_COLOUR('',#587);
#769 = CURVE_STYLE('',#770,POSITIVE_LENGTH_MEASURE(0.1),#590);
#770 = DRAUGHTING_PRE_DEFINED_CURVE_FONT('continuous');
#771 = STYLED_ITEM('color',(#772),#452);
#772 = PRESENTATION_STYLE_ASSIGNMENT((#773,#778));
#773 = SURFACE_STYLE_USAGE(.BOTH.,#774);
#774 = SURFACE_SIDE_STYLE('',(#775));
#775 = SURFACE_STYLE_FILL_AREA(#776);
#776 = FILL_AREA_STYLE('',(#777));
#777 = FILL_AREA_STYLE_COLOUR('',#587);
#778 = CURVE_STYLE('',#779,POSITIVE_LENGTH_MEASURE(0.1),#590);
#779 = DRAUGHTING_PRE_DEFINED_CURVE_FONT('continuous');
#780 = STYLED_ITEM('color',(#781),#461);
#781 = PRESENTATION_STYLE_ASSIGNMENT((#782,#787));
#782 = SURFACE_STYLE_USAGE(.BOTH.,#783);
#783 = SURFACE_SIDE_STYLE('',(#784));
#784 = SURFACE_STYLE_FILL_AREA(#785);
#785 = FILL_AREA_STYLE('',(#786));
#786 = FILL_AREA_STYLE_COLOUR('',#587);
#787 = CURVE_STYLE('',#788,POSITIVE_LENGTH_MEASURE(0.1),#590);
#788 = DRAUGHTING_PRE_DEFINED_CURVE_FONT('continuous');
#789 = STYLED_ITEM('color',(#790),#470);
#790 = PRESENTATION_STYLE_ASSIGNMENT((#791,#796));
#791 = SURFACE_STYLE_USAGE(.BOTH.,#792);
#792 = SURFACE_SIDE_STYLE('',(#793));
#793 = SURFACE_STYLE_FILL_AREA(#794);
#794 = FILL_AREA_STYLE('',(#795));
#795 = FILL_AREA_STYLE_COLOUR('',#587);
#796 = CURVE_STYLE('',#797,POSITIVE_LENGTH_MEASURE(0.1),#590);
#797 = DRAUGHTING_PRE_DEFINED_CURVE_FONT('continuous');
#798 = STYLED_ITEM('color',(#799),#479);
#799 = PRESENTATION_STYLE_ASSIGNMENT((#800,#805));
#800 = SURFACE_STYLE_USAGE(.BOTH.,#801);
#801 = SURFACE_SIDE_STYLE('',(#802));
#802 = SURFACE_STYLE_FILL_AREA(#803);
#803 = FILL_AREA_STYLE('',(#804));
#804 = FILL_AREA_STYLE_COLOUR('',#587);
#805 = CURVE_STYLE('',#806,POSITIVE_LENGTH_MEASURE(0.1),#590);
#806 = DRAUGHTING_PRE_DEFINED_CURVE_FONT('continuous');
#807 = STYLED_ITEM('color',(#808),#488);
#808 = PRESENTATION_STYLE_ASSIGNMENT((#809,#814));
#809 = SURFACE_STYLE_USAGE(.BOTH.,#810);
#810 = SURFACE_SIDE_STYLE('',(#811));
#811 = SURFACE_STYLE_FILL_AREA(#812);
#812 = FILL_AREA_STYLE('',(#813));
#813 = FILL_AREA_STYLE_COLOUR('',#587);
#814 = CURVE_STYLE('',#815,POSITIVE_LENGTH_MEASURE(0.1),#590);
#815 = DRAUGHTING_PRE_DEFINED_CURVE_FONT('continuous');
#816 = STYLED_ITEM('color',(#817),#497);
#817 = PRESENTATION_STYLE_ASSIGNMENT((#818,#823));
#818 = SURFACE_STYLE_USAGE(.BOTH.,#819);
#819 = SURFACE_SIDE_STYLE('',(#820));
#820 = SURFACE_STYLE_FILL_AREA(#821);
#821 = FILL_AREA_STYLE('',(#822));
#822 = FILL_AREA_STYLE_COLOUR('',#587);
#823 = CURVE_STYLE('',#824,POSITIVE_LENGTH_MEASURE(0.1),#590);
#824 = DRAUGHTING_PRE_DEFINED_CURVE_FONT('continuous');
#825 = STYLED_ITEM('color',(#826),#506);
#826 = PRESENTATION_STYLE_ASSIGNMENT((#827,#832));
#827 = SURFACE_STYLE_USAGE(.BOTH.,#828);
#828 = SURFACE_SIDE_STYLE('',(#829));
#829 = SURFACE_STYLE_FILL_AREA(#830);
#830 = FILL_AREA_STYLE('',(#831));
#831 = FILL_AREA_STYLE_COLOUR('',#587);
#832 = CURVE_STYLE('',#833,POSITIVE_LENGTH_MEASURE(0.1),#590);
#833 = DRAUGHTING_PRE_DEFINED_CURVE_FONT('continuous');
#834 = STYLED_ITEM('color',(#835),#515);
#835 = PRESENTATION_STYLE_ASSIGNMENT((#836,#841));
#836 = SURFACE_STYLE_USAGE(.BOTH.,#837);
#837 = SURFACE_SIDE_STYLE('',(#838));
#838 = SURFACE_STYLE_FILL_AREA(#839);
#839 = FILL_AREA_STYLE('',(#840));
#840 = FILL_AREA_STYLE_COLOUR('',#587);
#841 = CURVE_STYLE('',#842,POSITIVE_LENGTH_MEASURE(0.1),#590);
#842 = DRAUGHTING_PRE_DEFINED_CURVE_FONT('continuous');
#843 = STYLED_ITEM('color',(#844),#544);
#844 = PRESENTATION_STYLE_ASSIGNMENT((#845,#850));
#845 = SURFACE_STYLE_USAGE(.BOTH.,#846);
#846 = SURFACE_SIDE_STYLE('',(#847));
#847 = SURFACE_STYLE_FILL_AREA(#848);
#848 = FILL_AREA_STYLE('',(#849));
#849 = FILL_AREA_STYLE_COLOUR('',#587);
#850 = CURVE_STYLE('',#851,POSITIVE_LENGTH_MEASURE(0.1),#590);
#851 = DRAUGHTING_PRE_DEFINED_CURVE_FONT('continuous');
ENDSEC;
END-ISO-10303-21;
