ISO-10303-21;
HEADER;
FILE_DESCRIPTION(('FreeCAD Model'),'2;1');
FILE_NAME('Open CASCADE Shape Model','2026-02-22T22:51:11',(''),(''),
  'Open CASCADE STEP processor 7.8','FreeCAD','Unknown');
FILE_SCHEMA(('AUTOMOTIVE_DESIGN { 1 0 10303 214 1 1 1 1 }'));
ENDSEC;
DATA;
#1 = APPLICATION_PROTOCOL_DEFINITION('international standard',
  'automotive_design',2000,#2);
#2 = APPLICATION_CONTEXT(
  'core data for automotive mechanical design processes');
#3 = SHAPE_DEFINITION_REPRESENTATION(#4,#10);
#4 = PRODUCT_DEFINITION_SHAPE('','',#5);
#5 = PRODUCT_DEFINITION('design','',#6,#9);
#6 = PRODUCT_DEFINITION_FORMATION('','',#7);
#7 = PRODUCT('Right','Right','',(#8));
#8 = PRODUCT_CONTEXT('',#2,'mechanical');
#9 = PRODUCT_DEFINITION_CONTEXT('part definition',#2,'design');
#10 = ADVANCED_BREP_SHAPE_REPRESENTATION('',(#11,#15),#2266);
#11 = AXIS2_PLACEMENT_3D('',#12,#13,#14);
#12 = CARTESIAN_POINT('',(0.,0.,0.));
#13 = DIRECTION('',(0.,0.,1.));
#14 = DIRECTION('',(1.,0.,-0.));
#15 = MANIFOLD_SOLID_BREP('',#16);
#16 = CLOSED_SHELL('',(#17,#59,#90,#121,#388,#839,#856,#873,#890,#907,
    #924,#1009,#1026,#1043,#1060,#1144,#1188,#1259,#1281,#1298,#1315,
    #1332,#1344,#1366,#1383,#1400,#1412,#1434,#1451,#1468,#1485,#1497,
    #1519,#1536,#1553,#1570,#1582,#1606,#1641,#1658,#1682,#1717,#1734,
    #1758,#1793,#1810,#1834,#1869,#1886,#1910,#1945,#1962,#1986,#2021,
    #2056,#2073,#2085,#2097,#2114,#2131,#2143,#2155,#2172,#2189,#2203,
    #2220,#2232,#2249));
#17 = ADVANCED_FACE('',(#18),#54,.F.);
#18 = FACE_BOUND('',#19,.F.);
#19 = EDGE_LOOP('',(#20,#30,#39,#47));
#20 = ORIENTED_EDGE('',*,*,#21,.T.);
#21 = EDGE_CURVE('',#22,#24,#26,.T.);
#22 = VERTEX_POINT('',#23);
#23 = CARTESIAN_POINT('',(30.850445701805,-42.5,0.));
#24 = VERTEX_POINT('',#25);
#25 = CARTESIAN_POINT('',(30.850445701805,-42.5,3.));
#26 = LINE('',#27,#28);
#27 = CARTESIAN_POINT('',(30.850445701805,-42.5,0.));
#28 = VECTOR('',#29,1.);
#29 = DIRECTION('',(0.,0.,1.));
#30 = ORIENTED_EDGE('',*,*,#31,.T.);
#31 = EDGE_CURVE('',#24,#32,#34,.T.);
#32 = VERTEX_POINT('',#33);
#33 = CARTESIAN_POINT('',(-28.345678683,-48.85,3.));
#34 = CIRCLE('',#35,32.);
#35 = AXIS2_PLACEMENT_3D('',#36,#37,#38);
#36 = CARTESIAN_POINT('',(0.,-34.,3.));
#37 = DIRECTION('',(0.,0.,-1.));
#38 = DIRECTION('',(1.,0.,0.));
#39 = ORIENTED_EDGE('',*,*,#40,.F.);
#40 = EDGE_CURVE('',#41,#32,#43,.T.);
#41 = VERTEX_POINT('',#42);
#42 = CARTESIAN_POINT('',(-28.345678683,-48.85,0.));
#43 = LINE('',#44,#45);
#44 = CARTESIAN_POINT('',(-28.345678683,-48.85,0.));
#45 = VECTOR('',#46,1.);
#46 = DIRECTION('',(0.,0.,1.));
#47 = ORIENTED_EDGE('',*,*,#48,.F.);
#48 = EDGE_CURVE('',#22,#41,#49,.T.);
#49 = CIRCLE('',#50,32.);
#50 = AXIS2_PLACEMENT_3D('',#51,#52,#53);
#51 = CARTESIAN_POINT('',(0.,-34.,0.));
#52 = DIRECTION('',(0.,0.,-1.));
#53 = DIRECTION('',(1.,0.,0.));
#54 = CYLINDRICAL_SURFACE('',#55,32.);
#55 = AXIS2_PLACEMENT_3D('',#56,#57,#58);
#56 = CARTESIAN_POINT('',(0.,-34.,0.));
#57 = DIRECTION('',(0.,0.,-1.));
#58 = DIRECTION('',(1.,0.,0.));
#59 = ADVANCED_FACE('',(#60),#85,.T.);
#60 = FACE_BOUND('',#61,.F.);
#61 = EDGE_LOOP('',(#62,#72,#78,#79));
#62 = ORIENTED_EDGE('',*,*,#63,.T.);
#63 = EDGE_CURVE('',#64,#66,#68,.T.);
#64 = VERTEX_POINT('',#65);
#65 = CARTESIAN_POINT('',(32.204321316998,-37.35,0.));
#66 = VERTEX_POINT('',#67);
#67 = CARTESIAN_POINT('',(32.204321316998,-37.35,3.));
#68 = LINE('',#69,#70);
#69 = CARTESIAN_POINT('',(32.204321316998,-37.35,0.));
#70 = VECTOR('',#71,1.);
#71 = DIRECTION('',(0.,0.,1.));
#72 = ORIENTED_EDGE('',*,*,#73,.T.);
#73 = EDGE_CURVE('',#66,#24,#74,.T.);
#74 = LINE('',#75,#76);
#75 = CARTESIAN_POINT('',(32.204321316998,-37.35,3.));
#76 = VECTOR('',#77,1.);
#77 = DIRECTION('',(-0.254249595559,-0.967138636989,-0.));
#78 = ORIENTED_EDGE('',*,*,#21,.F.);
#79 = ORIENTED_EDGE('',*,*,#80,.F.);
#80 = EDGE_CURVE('',#64,#22,#81,.T.);
#81 = LINE('',#82,#83);
#82 = CARTESIAN_POINT('',(32.204321316998,-37.35,0.));
#83 = VECTOR('',#84,1.);
#84 = DIRECTION('',(-0.254249595559,-0.967138636989,-0.));
#85 = PLANE('',#86);
#86 = AXIS2_PLACEMENT_3D('',#87,#88,#89);
#87 = CARTESIAN_POINT('',(32.204321316998,-37.35,0.));
#88 = DIRECTION('',(-0.967138636989,0.254249595559,0.));
#89 = DIRECTION('',(0.254249595559,0.967138636989,0.));
#90 = ADVANCED_FACE('',(#91),#116,.T.);
#91 = FACE_BOUND('',#92,.F.);
#92 = EDGE_LOOP('',(#93,#94,#102,#110));
#93 = ORIENTED_EDGE('',*,*,#40,.T.);
#94 = ORIENTED_EDGE('',*,*,#95,.T.);
#95 = EDGE_CURVE('',#32,#96,#98,.T.);
#96 = VERTEX_POINT('',#97);
#97 = CARTESIAN_POINT('',(-31.345678683,-48.85,3.));
#98 = LINE('',#99,#100);
#99 = CARTESIAN_POINT('',(-28.345678683,-48.85,3.));
#100 = VECTOR('',#101,1.);
#101 = DIRECTION('',(-1.,-0.,-0.));
#102 = ORIENTED_EDGE('',*,*,#103,.F.);
#103 = EDGE_CURVE('',#104,#96,#106,.T.);
#104 = VERTEX_POINT('',#105);
#105 = CARTESIAN_POINT('',(-31.345678683,-48.85,0.));
#106 = LINE('',#107,#108);
#107 = CARTESIAN_POINT('',(-31.345678683,-48.85,0.));
#108 = VECTOR('',#109,1.);
#109 = DIRECTION('',(0.,0.,1.));
#110 = ORIENTED_EDGE('',*,*,#111,.F.);
#111 = EDGE_CURVE('',#41,#104,#112,.T.);
#112 = LINE('',#113,#114);
#113 = CARTESIAN_POINT('',(-28.345678683,-48.85,0.));
#114 = VECTOR('',#115,1.);
#115 = DIRECTION('',(-1.,-0.,-0.));
#116 = PLANE('',#117);
#117 = AXIS2_PLACEMENT_3D('',#118,#119,#120);
#118 = CARTESIAN_POINT('',(-28.345678683,-48.85,0.));
#119 = DIRECTION('',(0.,1.,0.));
#120 = DIRECTION('',(1.,0.,0.));
#121 = ADVANCED_FACE('',(#122,#221,#263,#299,#341),#383,.F.);
#122 = FACE_BOUND('',#123,.T.);
#123 = EDGE_LOOP('',(#124,#125,#126,#134,#142,#150,#158,#166,#174,#182,
    #190,#198,#206,#214,#220));
#124 = ORIENTED_EDGE('',*,*,#48,.F.);
#125 = ORIENTED_EDGE('',*,*,#80,.F.);
#126 = ORIENTED_EDGE('',*,*,#127,.F.);
#127 = EDGE_CURVE('',#128,#64,#130,.T.);
#128 = VERTEX_POINT('',#129);
#129 = CARTESIAN_POINT('',(35.804321316998,-37.35,0.));
#130 = LINE('',#131,#132);
#131 = CARTESIAN_POINT('',(35.804321316998,-37.35,0.));
#132 = VECTOR('',#133,1.);
#133 = DIRECTION('',(-1.,-0.,-0.));
#134 = ORIENTED_EDGE('',*,*,#135,.F.);
#135 = EDGE_CURVE('',#136,#128,#138,.T.);
#136 = VERTEX_POINT('',#137);
#137 = CARTESIAN_POINT('',(35.804321316998,-31.35,0.));
#138 = LINE('',#139,#140);
#139 = CARTESIAN_POINT('',(35.804321316998,-31.35,0.));
#140 = VECTOR('',#141,1.);
#141 = DIRECTION('',(-0.,-1.,-0.));
#142 = ORIENTED_EDGE('',*,*,#143,.F.);
#143 = EDGE_CURVE('',#144,#136,#146,.T.);
#144 = VERTEX_POINT('',#145);
#145 = CARTESIAN_POINT('',(33.304321316998,-31.35,0.));
#146 = LINE('',#147,#148);
#147 = CARTESIAN_POINT('',(33.304321316998,-31.35,0.));
#148 = VECTOR('',#149,1.);
#149 = DIRECTION('',(1.,0.,0.));
#150 = ORIENTED_EDGE('',*,*,#151,.F.);
#151 = EDGE_CURVE('',#152,#144,#154,.T.);
#152 = VERTEX_POINT('',#153);
#153 = CARTESIAN_POINT('',(34.604321316998,-21.85,0.));
#154 = LINE('',#155,#156);
#155 = CARTESIAN_POINT('',(34.604321316998,-21.85,0.));
#156 = VECTOR('',#157,1.);
#157 = DIRECTION('',(-0.135578586756,-0.990766595527,-0.));
#158 = ORIENTED_EDGE('',*,*,#159,.F.);
#159 = EDGE_CURVE('',#160,#152,#162,.T.);
#160 = VERTEX_POINT('',#161);
#161 = CARTESIAN_POINT('',(54.604321316998,-21.85,0.));
#162 = LINE('',#163,#164);
#163 = CARTESIAN_POINT('',(54.604321316998,-21.85,0.));
#164 = VECTOR('',#165,1.);
#165 = DIRECTION('',(-1.,-0.,-0.));
#166 = ORIENTED_EDGE('',*,*,#167,.F.);
#167 = EDGE_CURVE('',#168,#160,#170,.T.);
#168 = VERTEX_POINT('',#169);
#169 = CARTESIAN_POINT('',(54.604321316998,-67.85,0.));
#170 = LINE('',#171,#172);
#171 = CARTESIAN_POINT('',(54.604321316998,-67.85,0.));
#172 = VECTOR('',#173,1.);
#173 = DIRECTION('',(0.,1.,0.));
#174 = ORIENTED_EDGE('',*,*,#175,.F.);
#175 = EDGE_CURVE('',#176,#168,#178,.T.);
#176 = VERTEX_POINT('',#177);
#177 = CARTESIAN_POINT('',(-9.181008080642,-76.35,0.));
#178 = LINE('',#179,#180);
#179 = CARTESIAN_POINT('',(-9.181008080642,-76.35,0.));
#180 = VECTOR('',#181,1.);
#181 = DIRECTION('',(0.991237488052,0.1320917949,0.));
#182 = ORIENTED_EDGE('',*,*,#183,.F.);
#183 = EDGE_CURVE('',#184,#176,#186,.T.);
#184 = VERTEX_POINT('',#185);
#185 = CARTESIAN_POINT('',(-16.345678683,-106.85,0.));
#186 = LINE('',#187,#188);
#187 = CARTESIAN_POINT('',(-16.345678683,-106.85,0.));
#188 = VECTOR('',#189,1.);
#189 = DIRECTION('',(0.228682443365,0.973501073495,0.));
#190 = ORIENTED_EDGE('',*,*,#191,.F.);
#191 = EDGE_CURVE('',#192,#184,#194,.T.);
#192 = VERTEX_POINT('',#193);
#193 = CARTESIAN_POINT('',(-28.345678683,-106.85,0.));
#194 = LINE('',#195,#196);
#195 = CARTESIAN_POINT('',(-28.345678683,-106.85,0.));
#196 = VECTOR('',#197,1.);
#197 = DIRECTION('',(1.,0.,0.));
#198 = ORIENTED_EDGE('',*,*,#199,.F.);
#199 = EDGE_CURVE('',#200,#192,#202,.T.);
#200 = VERTEX_POINT('',#201);
#201 = CARTESIAN_POINT('',(-28.345678683,-65.35,0.));
#202 = LINE('',#203,#204);
#203 = CARTESIAN_POINT('',(-28.345678683,-65.35,0.));
#204 = VECTOR('',#205,1.);
#205 = DIRECTION('',(-0.,-1.,-0.));
#206 = ORIENTED_EDGE('',*,*,#207,.F.);
#207 = EDGE_CURVE('',#208,#200,#210,.T.);
#208 = VERTEX_POINT('',#209);
#209 = CARTESIAN_POINT('',(-31.345678683,-65.35,0.));
#210 = LINE('',#211,#212);
#211 = CARTESIAN_POINT('',(-31.345678683,-65.35,0.));
#212 = VECTOR('',#213,1.);
#213 = DIRECTION('',(1.,0.,0.));
#214 = ORIENTED_EDGE('',*,*,#215,.F.);
#215 = EDGE_CURVE('',#104,#208,#216,.T.);
#216 = LINE('',#217,#218);
#217 = CARTESIAN_POINT('',(-31.345678683,-48.85,0.));
#218 = VECTOR('',#219,1.);
#219 = DIRECTION('',(-0.,-1.,-0.));
#220 = ORIENTED_EDGE('',*,*,#111,.F.);
#221 = FACE_BOUND('',#222,.T.);
#222 = EDGE_LOOP('',(#223,#233,#241,#249,#257));
#223 = ORIENTED_EDGE('',*,*,#224,.T.);
#224 = EDGE_CURVE('',#225,#227,#229,.T.);
#225 = VERTEX_POINT('',#226);
#226 = CARTESIAN_POINT('',(38.604321316998,-29.35,0.));
#227 = VERTEX_POINT('',#228);
#228 = CARTESIAN_POINT('',(46.104321316998,-40.85,0.));
#229 = LINE('',#230,#231);
#230 = CARTESIAN_POINT('',(42.015323233361,-34.58020293842,-4.4E-16));
#231 = VECTOR('',#232,1.);
#232 = DIRECTION('',(0.546267780547,-0.837610596839,0.));
#233 = ORIENTED_EDGE('',*,*,#234,.T.);
#234 = EDGE_CURVE('',#227,#235,#237,.T.);
#235 = VERTEX_POINT('',#236);
#236 = CARTESIAN_POINT('',(50.104321316998,-40.85,0.));
#237 = LINE('',#238,#239);
#238 = CARTESIAN_POINT('',(28.107252053552,-40.85,0.));
#239 = VECTOR('',#240,1.);
#240 = DIRECTION('',(1.,0.,0.));
#241 = ORIENTED_EDGE('',*,*,#242,.T.);
#242 = EDGE_CURVE('',#235,#243,#245,.T.);
#243 = VERTEX_POINT('',#244);
#244 = CARTESIAN_POINT('',(50.104321316998,-26.35,0.));
#245 = LINE('',#246,#247);
#246 = CARTESIAN_POINT('',(50.104321316998,-51.84633631656,0.));
#247 = VECTOR('',#248,1.);
#248 = DIRECTION('',(0.,1.,0.));
#249 = ORIENTED_EDGE('',*,*,#250,.T.);
#250 = EDGE_CURVE('',#243,#251,#253,.T.);
#251 = VERTEX_POINT('',#252);
#252 = CARTESIAN_POINT('',(41.104321316998,-26.35,0.));
#253 = LINE('',#254,#255);
#254 = CARTESIAN_POINT('',(30.107252053552,-26.35,0.));
#255 = VECTOR('',#256,1.);
#256 = DIRECTION('',(-1.,-0.,-0.));
#257 = ORIENTED_EDGE('',*,*,#258,.T.);
#258 = EDGE_CURVE('',#251,#225,#259,.T.);
#259 = LINE('',#260,#261);
#260 = CARTESIAN_POINT('',(25.779455397605,-44.73983910327,0.));
#261 = VECTOR('',#262,1.);
#262 = DIRECTION('',(-0.640184399664,-0.768221279597,-0.));
#263 = FACE_BOUND('',#264,.T.);
#264 = EDGE_LOOP('',(#265,#276,#284,#293));
#265 = ORIENTED_EDGE('',*,*,#266,.F.);
#266 = EDGE_CURVE('',#267,#269,#271,.T.);
#267 = VERTEX_POINT('',#268);
#268 = CARTESIAN_POINT('',(48.724321316998,-48.45,0.));
#269 = VERTEX_POINT('',#270);
#270 = CARTESIAN_POINT('',(48.724321316998,-45.25,0.));
#271 = CIRCLE('',#272,1.6);
#272 = AXIS2_PLACEMENT_3D('',#273,#274,#275);
#273 = CARTESIAN_POINT('',(48.724321316998,-46.85,0.));
#274 = DIRECTION('',(0.,0.,-1.));
#275 = DIRECTION('',(1.,0.,0.));
#276 = ORIENTED_EDGE('',*,*,#277,.T.);
#277 = EDGE_CURVE('',#267,#278,#280,.T.);
#278 = VERTEX_POINT('',#279);
#279 = CARTESIAN_POINT('',(50.474321316998,-48.45,0.));
#280 = LINE('',#281,#282);
#281 = CARTESIAN_POINT('',(29.417252053552,-48.45,0.));
#282 = VECTOR('',#283,1.);
#283 = DIRECTION('',(1.,0.,0.));
#284 = ORIENTED_EDGE('',*,*,#285,.F.);
#285 = EDGE_CURVE('',#286,#278,#288,.T.);
#286 = VERTEX_POINT('',#287);
#287 = CARTESIAN_POINT('',(50.474321316998,-45.25,0.));
#288 = CIRCLE('',#289,1.6);
#289 = AXIS2_PLACEMENT_3D('',#290,#291,#292);
#290 = CARTESIAN_POINT('',(50.474321316998,-46.85,0.));
#291 = DIRECTION('',(0.,0.,-1.));
#292 = DIRECTION('',(1.,0.,0.));
#293 = ORIENTED_EDGE('',*,*,#294,.F.);
#294 = EDGE_CURVE('',#269,#286,#295,.T.);
#295 = LINE('',#296,#297);
#296 = CARTESIAN_POINT('',(29.417252053552,-45.25,0.));
#297 = VECTOR('',#298,1.);
#298 = DIRECTION('',(1.,0.,0.));
#299 = FACE_BOUND('',#300,.T.);
#300 = EDGE_LOOP('',(#301,#311,#319,#327,#335));
#301 = ORIENTED_EDGE('',*,*,#302,.F.);
#302 = EDGE_CURVE('',#303,#305,#307,.T.);
#303 = VERTEX_POINT('',#304);
#304 = CARTESIAN_POINT('',(50.104321316998,-52.90988779679,0.));
#305 = VERTEX_POINT('',#306);
#306 = CARTESIAN_POINT('',(50.104321316998,-63.90988779679,0.));
#307 = LINE('',#308,#309);
#308 = CARTESIAN_POINT('',(50.104321316998,-57.87628021495,0.));
#309 = VECTOR('',#310,1.);
#310 = DIRECTION('',(-0.,-1.,-0.));
#311 = ORIENTED_EDGE('',*,*,#312,.F.);
#312 = EDGE_CURVE('',#313,#303,#315,.T.);
#313 = VERTEX_POINT('',#314);
#314 = CARTESIAN_POINT('',(32.104321316998,-52.90988779679,0.));
#315 = LINE('',#316,#317);
#316 = CARTESIAN_POINT('',(21.107252053552,-52.90988779679,0.));
#317 = VECTOR('',#318,1.);
#318 = DIRECTION('',(1.,0.,0.));
#319 = ORIENTED_EDGE('',*,*,#320,.F.);
#320 = EDGE_CURVE('',#321,#313,#323,.T.);
#321 = VERTEX_POINT('',#322);
#322 = CARTESIAN_POINT('',(25.104321316998,-62.24137486453,0.));
#323 = LINE('',#324,#325);
#324 = CARTESIAN_POINT('',(22.260373442091,-66.03255526682,0.));
#325 = VECTOR('',#326,1.);
#326 = DIRECTION('',(0.600075967554,0.799943018699,0.));
#327 = ORIENTED_EDGE('',*,*,#328,.F.);
#328 = EDGE_CURVE('',#329,#321,#331,.T.);
#329 = VERTEX_POINT('',#330);
#330 = CARTESIAN_POINT('',(25.104321316998,-67.24137486453,0.));
#331 = LINE('',#332,#333);
#332 = CARTESIAN_POINT('',(25.104321316998,-65.04202374882,0.));
#333 = VECTOR('',#334,1.);
#334 = DIRECTION('',(0.,1.,0.));
#335 = ORIENTED_EDGE('',*,*,#336,.F.);
#336 = EDGE_CURVE('',#305,#329,#337,.T.);
#337 = LINE('',#338,#339);
#338 = CARTESIAN_POINT('',(30.526033318947,-66.51888032775,-4.4E-16));
#339 = VECTOR('',#340,1.);
#340 = DIRECTION('',(-0.991237488052,-0.1320917949,-0.));
#341 = FACE_BOUND('',#342,.T.);
#342 = EDGE_LOOP('',(#343,#353,#361,#369,#377));
#343 = ORIENTED_EDGE('',*,*,#344,.F.);
#344 = EDGE_CURVE('',#345,#347,#349,.T.);
#345 = VERTEX_POINT('',#346);
#346 = CARTESIAN_POINT('',(-23.845678683,-102.35,0.));
#347 = VERTEX_POINT('',#348);
#348 = CARTESIAN_POINT('',(-23.845678683,-64.85,0.));
#349 = LINE('',#350,#351);
#350 = CARTESIAN_POINT('',(-23.845678683,-82.59633631656,0.));
#351 = VECTOR('',#352,1.);
#352 = DIRECTION('',(0.,1.,0.));
#353 = ORIENTED_EDGE('',*,*,#354,.F.);
#354 = EDGE_CURVE('',#355,#345,#357,.T.);
#355 = VERTEX_POINT('',#356);
#356 = CARTESIAN_POINT('',(-19.91108718573,-102.35,0.));
#357 = LINE('',#358,#359);
#358 = CARTESIAN_POINT('',(-4.900452197813,-102.35,0.));
#359 = VECTOR('',#360,1.);
#360 = DIRECTION('',(-1.,-0.,-0.));
#361 = ORIENTED_EDGE('',*,*,#362,.F.);
#362 = EDGE_CURVE('',#363,#355,#365,.T.);
#363 = VERTEX_POINT('',#364);
#364 = CARTESIAN_POINT('',(-12.04169488477,-68.85,0.));
#365 = LINE('',#366,#367);
#366 = CARTESIAN_POINT('',(-10.79378792315,-63.5376605441,0.));
#367 = VECTOR('',#368,1.);
#368 = DIRECTION('',(-0.228682443365,-0.973501073495,-0.));
#369 = ORIENTED_EDGE('',*,*,#370,.F.);
#370 = EDGE_CURVE('',#371,#363,#373,.T.);
#371 = VERTEX_POINT('',#372);
#372 = CARTESIAN_POINT('',(-19.845678683,-64.85,0.));
#373 = LINE('',#374,#375);
#374 = CARTESIAN_POINT('',(-8.391409457105,-70.72098565145,-4.4E-16));
#375 = VECTOR('',#376,1.);
#376 = DIRECTION('',(0.889912037061,-0.456132180727,0.));
#377 = ORIENTED_EDGE('',*,*,#378,.F.);
#378 = EDGE_CURVE('',#347,#371,#379,.T.);
#379 = LINE('',#380,#381);
#380 = CARTESIAN_POINT('',(-6.867747946448,-64.85,0.));
#381 = VECTOR('',#382,1.);
#382 = DIRECTION('',(1.,0.,0.));
#383 = PLANE('',#384);
#384 = AXIS2_PLACEMENT_3D('',#385,#386,#387);
#385 = CARTESIAN_POINT('',(10.110182790106,-62.84267263311,0.));
#386 = DIRECTION('',(0.,0.,1.));
#387 = DIRECTION('',(-1.,-0.,-0.));
#388 = ADVANCED_FACE('',(#389,#672,#714,#750,#792),#834,.T.);
#389 = FACE_BOUND('',#390,.F.);
#390 = EDGE_LOOP('',(#391,#392,#393,#401,#409,#417,#425,#433,#441,#449,
    #457,#465,#473,#481,#489,#497,#505,#513,#521,#529,#537,#545,#553,
    #561,#569,#577,#585,#593,#601,#609,#617,#625,#633,#641,#649,#657,
    #665,#671));
#391 = ORIENTED_EDGE('',*,*,#31,.F.);
#392 = ORIENTED_EDGE('',*,*,#73,.F.);
#393 = ORIENTED_EDGE('',*,*,#394,.F.);
#394 = EDGE_CURVE('',#395,#66,#397,.T.);
#395 = VERTEX_POINT('',#396);
#396 = CARTESIAN_POINT('',(35.804321316998,-37.35,3.));
#397 = LINE('',#398,#399);
#398 = CARTESIAN_POINT('',(35.804321316998,-37.35,3.));
#399 = VECTOR('',#400,1.);
#400 = DIRECTION('',(-1.,-0.,-0.));
#401 = ORIENTED_EDGE('',*,*,#402,.F.);
#402 = EDGE_CURVE('',#403,#395,#405,.T.);
#403 = VERTEX_POINT('',#404);
#404 = CARTESIAN_POINT('',(35.804321316998,-31.35,3.));
#405 = LINE('',#406,#407);
#406 = CARTESIAN_POINT('',(35.804321316998,-31.35,3.));
#407 = VECTOR('',#408,1.);
#408 = DIRECTION('',(-0.,-1.,-0.));
#409 = ORIENTED_EDGE('',*,*,#410,.F.);
#410 = EDGE_CURVE('',#411,#403,#413,.T.);
#411 = VERTEX_POINT('',#412);
#412 = CARTESIAN_POINT('',(33.304321316998,-31.35,3.));
#413 = LINE('',#414,#415);
#414 = CARTESIAN_POINT('',(33.304321316998,-31.35,3.));
#415 = VECTOR('',#416,1.);
#416 = DIRECTION('',(1.,0.,0.));
#417 = ORIENTED_EDGE('',*,*,#418,.F.);
#418 = EDGE_CURVE('',#419,#411,#421,.T.);
#419 = VERTEX_POINT('',#420);
#420 = CARTESIAN_POINT('',(34.604321316998,-21.85,3.));
#421 = LINE('',#422,#423);
#422 = CARTESIAN_POINT('',(34.604321316998,-21.85,3.));
#423 = VECTOR('',#424,1.);
#424 = DIRECTION('',(-0.135578586756,-0.990766595527,-0.));
#425 = ORIENTED_EDGE('',*,*,#426,.F.);
#426 = EDGE_CURVE('',#427,#419,#429,.T.);
#427 = VERTEX_POINT('',#428);
#428 = CARTESIAN_POINT('',(54.604321316998,-21.85,3.));
#429 = LINE('',#430,#431);
#430 = CARTESIAN_POINT('',(54.604321316998,-21.85,3.));
#431 = VECTOR('',#432,1.);
#432 = DIRECTION('',(-1.,-0.,-0.));
#433 = ORIENTED_EDGE('',*,*,#434,.F.);
#434 = EDGE_CURVE('',#435,#427,#437,.T.);
#435 = VERTEX_POINT('',#436);
#436 = CARTESIAN_POINT('',(54.604321316998,-57.85,3.));
#437 = LINE('',#438,#439);
#438 = CARTESIAN_POINT('',(54.604321316998,-67.85,3.));
#439 = VECTOR('',#440,1.);
#440 = DIRECTION('',(0.,1.,0.));
#441 = ORIENTED_EDGE('',*,*,#442,.F.);
#442 = EDGE_CURVE('',#443,#435,#445,.T.);
#443 = VERTEX_POINT('',#444);
#444 = CARTESIAN_POINT('',(51.604321316998,-57.85,3.));
#445 = LINE('',#446,#447);
#446 = CARTESIAN_POINT('',(51.604321316998,-57.85,3.));
#447 = VECTOR('',#448,1.);
#448 = DIRECTION('',(1.,0.,0.));
#449 = ORIENTED_EDGE('',*,*,#450,.F.);
#450 = EDGE_CURVE('',#451,#443,#453,.T.);
#451 = VERTEX_POINT('',#452);
#452 = CARTESIAN_POINT('',(51.604321316998,-65.22325853119,3.));
#453 = LINE('',#454,#455);
#454 = CARTESIAN_POINT('',(51.604321316998,-65.22325853119,3.));
#455 = VECTOR('',#456,1.);
#456 = DIRECTION('',(0.,1.,0.));
#457 = ORIENTED_EDGE('',*,*,#458,.F.);
#458 = EDGE_CURVE('',#459,#451,#461,.T.);
#459 = VERTEX_POINT('',#460);
#460 = CARTESIAN_POINT('',(44.295671051775,-66.19720548484,3.));
#461 = LINE('',#462,#463);
#462 = CARTESIAN_POINT('',(44.295671051775,-66.19720548484,3.));
#463 = VECTOR('',#464,1.);
#464 = DIRECTION('',(0.991237488052,0.1320917949,0.));
#465 = ORIENTED_EDGE('',*,*,#466,.F.);
#466 = EDGE_CURVE('',#467,#459,#469,.T.);
#467 = VERTEX_POINT('',#468);
#468 = CARTESIAN_POINT('',(44.691946436476,-69.170917949,3.));
#469 = LINE('',#470,#471);
#470 = CARTESIAN_POINT('',(44.691946436476,-69.170917949,3.));
#471 = VECTOR('',#472,1.);
#472 = DIRECTION('',(-0.1320917949,0.991237488052,0.));
#473 = ORIENTED_EDGE('',*,*,#474,.F.);
#474 = EDGE_CURVE('',#475,#467,#477,.T.);
#475 = VERTEX_POINT('',#476);
#476 = CARTESIAN_POINT('',(10.643741680402,-73.70816410199,3.));
#477 = LINE('',#478,#479);
#478 = CARTESIAN_POINT('',(-9.181008080642,-76.35,3.));
#479 = VECTOR('',#480,1.);
#480 = DIRECTION('',(0.991237488052,0.1320917949,0.));
#481 = ORIENTED_EDGE('',*,*,#482,.F.);
#482 = EDGE_CURVE('',#483,#475,#485,.T.);
#483 = VERTEX_POINT('',#484);
#484 = CARTESIAN_POINT('',(10.247466295701,-70.73445163783,3.));
#485 = LINE('',#486,#487);
#486 = CARTESIAN_POINT('',(10.247466295701,-70.73445163783,3.));
#487 = VECTOR('',#488,1.);
#488 = DIRECTION('',(0.1320917949,-0.991237488052,0.));
#489 = ORIENTED_EDGE('',*,*,#490,.F.);
#490 = EDGE_CURVE('',#491,#483,#493,.T.);
#491 = VERTEX_POINT('',#492);
#492 = CARTESIAN_POINT('',(0.335091415179,-72.05536958684,3.));
#493 = LINE('',#494,#495);
#494 = CARTESIAN_POINT('',(0.335091415179,-72.05536958684,3.));
#495 = VECTOR('',#496,1.);
#496 = DIRECTION('',(0.991237488052,0.1320917949,0.));
#497 = ORIENTED_EDGE('',*,*,#498,.F.);
#498 = EDGE_CURVE('',#499,#491,#501,.T.);
#499 = VERTEX_POINT('',#500);
#500 = CARTESIAN_POINT('',(0.73136679988,-75.02908205099,3.));
#501 = LINE('',#502,#503);
#502 = CARTESIAN_POINT('',(0.73136679988,-75.02908205099,3.));
#503 = VECTOR('',#504,1.);
#504 = DIRECTION('',(-0.1320917949,0.991237488052,0.));
#505 = ORIENTED_EDGE('',*,*,#506,.F.);
#506 = EDGE_CURVE('',#507,#499,#509,.T.);
#507 = VERTEX_POINT('',#508);
#508 = CARTESIAN_POINT('',(-9.181008080642,-76.35,3.));
#509 = LINE('',#510,#511);
#510 = CARTESIAN_POINT('',(-9.181008080642,-76.35,3.));
#511 = VECTOR('',#512,1.);
#512 = DIRECTION('',(0.991237488052,0.1320917949,0.));
#513 = ORIENTED_EDGE('',*,*,#514,.F.);
#514 = EDGE_CURVE('',#515,#507,#517,.T.);
#515 = VERTEX_POINT('',#516);
#516 = CARTESIAN_POINT('',(-9.599546603729,-78.13171833188,3.));
#517 = LINE('',#518,#519);
#518 = CARTESIAN_POINT('',(-16.345678683,-106.85,3.));
#519 = VECTOR('',#520,1.);
#520 = DIRECTION('',(0.228682443365,0.973501073495,0.));
#521 = ORIENTED_EDGE('',*,*,#522,.F.);
#522 = EDGE_CURVE('',#523,#515,#525,.T.);
#523 = VERTEX_POINT('',#524);
#524 = CARTESIAN_POINT('',(-12.52004982421,-77.44567100179,3.));
#525 = LINE('',#526,#527);
#526 = CARTESIAN_POINT('',(-12.52004982421,-77.44567100179,3.));
#527 = VECTOR('',#528,1.);
#528 = DIRECTION('',(0.973501073495,-0.228682443365,0.));
#529 = ORIENTED_EDGE('',*,*,#530,.F.);
#530 = EDGE_CURVE('',#531,#523,#533,.T.);
#531 = VERTEX_POINT('',#532);
#532 = CARTESIAN_POINT('',(-14.80687425786,-87.18068173674,3.));
#533 = LINE('',#534,#535);
#534 = CARTESIAN_POINT('',(-14.80687425786,-87.18068173674,3.));
#535 = VECTOR('',#536,1.);
#536 = DIRECTION('',(0.228682443365,0.973501073495,0.));
#537 = ORIENTED_EDGE('',*,*,#538,.F.);
#538 = EDGE_CURVE('',#539,#531,#541,.T.);
#539 = VERTEX_POINT('',#540);
#540 = CARTESIAN_POINT('',(-11.88637103738,-87.86672906684,3.));
#541 = LINE('',#542,#543);
#542 = CARTESIAN_POINT('',(-11.88637103738,-87.86672906684,3.));
#543 = VECTOR('',#544,1.);
#544 = DIRECTION('',(-0.973501073495,0.228682443365,0.));
#545 = ORIENTED_EDGE('',*,*,#546,.F.);
#546 = EDGE_CURVE('',#547,#539,#549,.T.);
#547 = VERTEX_POINT('',#548);
#548 = CARTESIAN_POINT('',(-14.05885424935,-97.11498926504,3.));
#549 = LINE('',#550,#551);
#550 = CARTESIAN_POINT('',(-16.345678683,-106.85,3.));
#551 = VECTOR('',#552,1.);
#552 = DIRECTION('',(0.228682443365,0.973501073495,0.));
#553 = ORIENTED_EDGE('',*,*,#554,.F.);
#554 = EDGE_CURVE('',#555,#547,#557,.T.);
#555 = VERTEX_POINT('',#556);
#556 = CARTESIAN_POINT('',(-16.97935746983,-96.42894193495,3.));
#557 = LINE('',#558,#559);
#558 = CARTESIAN_POINT('',(-16.97935746983,-96.42894193495,3.));
#559 = VECTOR('',#560,1.);
#560 = DIRECTION('',(0.973501073495,-0.228682443365,0.));
#561 = ORIENTED_EDGE('',*,*,#562,.F.);
#562 = EDGE_CURVE('',#563,#555,#565,.T.);
#563 = VERTEX_POINT('',#564);
#564 = CARTESIAN_POINT('',(-19.26618190348,-106.1639526699,3.));
#565 = LINE('',#566,#567);
#566 = CARTESIAN_POINT('',(-19.26618190348,-106.1639526699,3.));
#567 = VECTOR('',#568,1.);
#568 = DIRECTION('',(0.228682443365,0.973501073495,0.));
#569 = ORIENTED_EDGE('',*,*,#570,.F.);
#570 = EDGE_CURVE('',#571,#563,#573,.T.);
#571 = VERTEX_POINT('',#572);
#572 = CARTESIAN_POINT('',(-16.345678683,-106.85,3.));
#573 = LINE('',#574,#575);
#574 = CARTESIAN_POINT('',(-16.345678683,-106.85,3.));
#575 = VECTOR('',#576,1.);
#576 = DIRECTION('',(-0.973501073495,0.228682443365,0.));
#577 = ORIENTED_EDGE('',*,*,#578,.F.);
#578 = EDGE_CURVE('',#579,#571,#581,.T.);
#579 = VERTEX_POINT('',#580);
#580 = CARTESIAN_POINT('',(-28.345678683,-106.85,3.));
#581 = LINE('',#582,#583);
#582 = CARTESIAN_POINT('',(-28.345678683,-106.85,3.));
#583 = VECTOR('',#584,1.);
#584 = DIRECTION('',(1.,0.,0.));
#585 = ORIENTED_EDGE('',*,*,#586,.F.);
#586 = EDGE_CURVE('',#587,#579,#589,.T.);
#587 = VERTEX_POINT('',#588);
#588 = CARTESIAN_POINT('',(-28.345678683,-98.85,3.));
#589 = LINE('',#590,#591);
#590 = CARTESIAN_POINT('',(-28.345678683,-65.35,3.));
#591 = VECTOR('',#592,1.);
#592 = DIRECTION('',(-0.,-1.,-0.));
#593 = ORIENTED_EDGE('',*,*,#594,.F.);
#594 = EDGE_CURVE('',#595,#587,#597,.T.);
#595 = VERTEX_POINT('',#596);
#596 = CARTESIAN_POINT('',(-25.345678683,-98.85,3.));
#597 = LINE('',#598,#599);
#598 = CARTESIAN_POINT('',(-25.345678683,-98.85,3.));
#599 = VECTOR('',#600,1.);
#600 = DIRECTION('',(-1.,-0.,-0.));
#601 = ORIENTED_EDGE('',*,*,#602,.F.);
#602 = EDGE_CURVE('',#603,#595,#605,.T.);
#603 = VERTEX_POINT('',#604);
#604 = CARTESIAN_POINT('',(-25.345678683,-88.85,3.));
#605 = LINE('',#606,#607);
#606 = CARTESIAN_POINT('',(-25.345678683,-88.85,3.));
#607 = VECTOR('',#608,1.);
#608 = DIRECTION('',(-0.,-1.,-0.));
#609 = ORIENTED_EDGE('',*,*,#610,.F.);
#610 = EDGE_CURVE('',#611,#603,#613,.T.);
#611 = VERTEX_POINT('',#612);
#612 = CARTESIAN_POINT('',(-28.345678683,-88.85,3.));
#613 = LINE('',#614,#615);
#614 = CARTESIAN_POINT('',(-28.345678683,-88.85,3.));
#615 = VECTOR('',#616,1.);
#616 = DIRECTION('',(1.,0.,0.));
#617 = ORIENTED_EDGE('',*,*,#618,.F.);
#618 = EDGE_CURVE('',#619,#611,#621,.T.);
#619 = VERTEX_POINT('',#620);
#620 = CARTESIAN_POINT('',(-28.345678683,-75.45,3.));
#621 = LINE('',#622,#623);
#622 = CARTESIAN_POINT('',(-28.345678683,-65.35,3.));
#623 = VECTOR('',#624,1.);
#624 = DIRECTION('',(-0.,-1.,-0.));
#625 = ORIENTED_EDGE('',*,*,#626,.F.);
#626 = EDGE_CURVE('',#627,#619,#629,.T.);
#627 = VERTEX_POINT('',#628);
#628 = CARTESIAN_POINT('',(-25.345678683,-75.45,3.));
#629 = LINE('',#630,#631);
#630 = CARTESIAN_POINT('',(-25.345678683,-75.45,3.));
#631 = VECTOR('',#632,1.);
#632 = DIRECTION('',(-1.,-0.,-0.));
#633 = ORIENTED_EDGE('',*,*,#634,.F.);
#634 = EDGE_CURVE('',#635,#627,#637,.T.);
#635 = VERTEX_POINT('',#636);
#636 = CARTESIAN_POINT('',(-25.345678683,-65.45,3.));
#637 = LINE('',#638,#639);
#638 = CARTESIAN_POINT('',(-25.345678683,-65.45,3.));
#639 = VECTOR('',#640,1.);
#640 = DIRECTION('',(-0.,-1.,-0.));
#641 = ORIENTED_EDGE('',*,*,#642,.F.);
#642 = EDGE_CURVE('',#643,#635,#645,.T.);
#643 = VERTEX_POINT('',#644);
#644 = CARTESIAN_POINT('',(-28.345678683,-65.45,3.));
#645 = LINE('',#646,#647);
#646 = CARTESIAN_POINT('',(-28.345678683,-65.45,3.));
#647 = VECTOR('',#648,1.);
#648 = DIRECTION('',(1.,0.,0.));
#649 = ORIENTED_EDGE('',*,*,#650,.F.);
#650 = EDGE_CURVE('',#651,#643,#653,.T.);
#651 = VERTEX_POINT('',#652);
#652 = CARTESIAN_POINT('',(-28.345678683,-65.35,3.));
#653 = LINE('',#654,#655);
#654 = CARTESIAN_POINT('',(-28.345678683,-65.35,3.));
#655 = VECTOR('',#656,1.);
#656 = DIRECTION('',(-0.,-1.,-0.));
#657 = ORIENTED_EDGE('',*,*,#658,.F.);
#658 = EDGE_CURVE('',#659,#651,#661,.T.);
#659 = VERTEX_POINT('',#660);
#660 = CARTESIAN_POINT('',(-31.345678683,-65.35,3.));
#661 = LINE('',#662,#663);
#662 = CARTESIAN_POINT('',(-31.345678683,-65.35,3.));
#663 = VECTOR('',#664,1.);
#664 = DIRECTION('',(1.,0.,0.));
#665 = ORIENTED_EDGE('',*,*,#666,.F.);
#666 = EDGE_CURVE('',#96,#659,#667,.T.);
#667 = LINE('',#668,#669);
#668 = CARTESIAN_POINT('',(-31.345678683,-48.85,3.));
#669 = VECTOR('',#670,1.);
#670 = DIRECTION('',(-0.,-1.,-0.));
#671 = ORIENTED_EDGE('',*,*,#95,.F.);
#672 = FACE_BOUND('',#673,.F.);
#673 = EDGE_LOOP('',(#674,#684,#692,#700,#708));
#674 = ORIENTED_EDGE('',*,*,#675,.T.);
#675 = EDGE_CURVE('',#676,#678,#680,.T.);
#676 = VERTEX_POINT('',#677);
#677 = CARTESIAN_POINT('',(38.604321316998,-29.35,3.));
#678 = VERTEX_POINT('',#679);
#679 = CARTESIAN_POINT('',(46.104321316998,-40.85,3.));
#680 = LINE('',#681,#682);
#681 = CARTESIAN_POINT('',(38.604321316998,-29.35,3.));
#682 = VECTOR('',#683,1.);
#683 = DIRECTION('',(0.546267780547,-0.837610596839,0.));
#684 = ORIENTED_EDGE('',*,*,#685,.T.);
#685 = EDGE_CURVE('',#678,#686,#688,.T.);
#686 = VERTEX_POINT('',#687);
#687 = CARTESIAN_POINT('',(50.104321316998,-40.85,3.));
#688 = LINE('',#689,#690);
#689 = CARTESIAN_POINT('',(46.104321316998,-40.85,3.));
#690 = VECTOR('',#691,1.);
#691 = DIRECTION('',(1.,0.,0.));
#692 = ORIENTED_EDGE('',*,*,#693,.T.);
#693 = EDGE_CURVE('',#686,#694,#696,.T.);
#694 = VERTEX_POINT('',#695);
#695 = CARTESIAN_POINT('',(50.104321316998,-26.35,3.));
#696 = LINE('',#697,#698);
#697 = CARTESIAN_POINT('',(50.104321316998,-40.85,3.));
#698 = VECTOR('',#699,1.);
#699 = DIRECTION('',(0.,1.,0.));
#700 = ORIENTED_EDGE('',*,*,#701,.T.);
#701 = EDGE_CURVE('',#694,#702,#704,.T.);
#702 = VERTEX_POINT('',#703);
#703 = CARTESIAN_POINT('',(41.104321316998,-26.35,3.));
#704 = LINE('',#705,#706);
#705 = CARTESIAN_POINT('',(50.104321316998,-26.35,3.));
#706 = VECTOR('',#707,1.);
#707 = DIRECTION('',(-1.,-0.,-0.));
#708 = ORIENTED_EDGE('',*,*,#709,.T.);
#709 = EDGE_CURVE('',#702,#676,#710,.T.);
#710 = LINE('',#711,#712);
#711 = CARTESIAN_POINT('',(41.104321316998,-26.35,3.));
#712 = VECTOR('',#713,1.);
#713 = DIRECTION('',(-0.640184399664,-0.768221279597,-0.));
#714 = FACE_BOUND('',#715,.F.);
#715 = EDGE_LOOP('',(#716,#727,#735,#744));
#716 = ORIENTED_EDGE('',*,*,#717,.F.);
#717 = EDGE_CURVE('',#718,#720,#722,.T.);
#718 = VERTEX_POINT('',#719);
#719 = CARTESIAN_POINT('',(48.724321316998,-48.45,3.));
#720 = VERTEX_POINT('',#721);
#721 = CARTESIAN_POINT('',(48.724321316998,-45.25,3.));
#722 = CIRCLE('',#723,1.6);
#723 = AXIS2_PLACEMENT_3D('',#724,#725,#726);
#724 = CARTESIAN_POINT('',(48.724321316998,-46.85,3.));
#725 = DIRECTION('',(0.,0.,-1.));
#726 = DIRECTION('',(1.,0.,0.));
#727 = ORIENTED_EDGE('',*,*,#728,.T.);
#728 = EDGE_CURVE('',#718,#729,#731,.T.);
#729 = VERTEX_POINT('',#730);
#730 = CARTESIAN_POINT('',(50.474321316998,-48.45,3.));
#731 = LINE('',#732,#733);
#732 = CARTESIAN_POINT('',(48.724321316998,-48.45,3.));
#733 = VECTOR('',#734,1.);
#734 = DIRECTION('',(1.,0.,0.));
#735 = ORIENTED_EDGE('',*,*,#736,.F.);
#736 = EDGE_CURVE('',#737,#729,#739,.T.);
#737 = VERTEX_POINT('',#738);
#738 = CARTESIAN_POINT('',(50.474321316998,-45.25,3.));
#739 = CIRCLE('',#740,1.6);
#740 = AXIS2_PLACEMENT_3D('',#741,#742,#743);
#741 = CARTESIAN_POINT('',(50.474321316998,-46.85,3.));
#742 = DIRECTION('',(0.,0.,-1.));
#743 = DIRECTION('',(1.,0.,0.));
#744 = ORIENTED_EDGE('',*,*,#745,.F.);
#745 = EDGE_CURVE('',#720,#737,#746,.T.);
#746 = LINE('',#747,#748);
#747 = CARTESIAN_POINT('',(48.724321316998,-45.25,3.));
#748 = VECTOR('',#749,1.);
#749 = DIRECTION('',(1.,0.,0.));
#750 = FACE_BOUND('',#751,.F.);
#751 = EDGE_LOOP('',(#752,#762,#770,#778,#786));
#752 = ORIENTED_EDGE('',*,*,#753,.F.);
#753 = EDGE_CURVE('',#754,#756,#758,.T.);
#754 = VERTEX_POINT('',#755);
#755 = CARTESIAN_POINT('',(50.104321316998,-52.90988779679,3.));
#756 = VERTEX_POINT('',#757);
#757 = CARTESIAN_POINT('',(50.104321316998,-63.90988779679,3.));
#758 = LINE('',#759,#760);
#759 = CARTESIAN_POINT('',(50.104321316998,-52.90988779679,3.));
#760 = VECTOR('',#761,1.);
#761 = DIRECTION('',(-0.,-1.,-0.));
#762 = ORIENTED_EDGE('',*,*,#763,.F.);
#763 = EDGE_CURVE('',#764,#754,#766,.T.);
#764 = VERTEX_POINT('',#765);
#765 = CARTESIAN_POINT('',(32.104321316998,-52.90988779679,3.));
#766 = LINE('',#767,#768);
#767 = CARTESIAN_POINT('',(32.104321316998,-52.90988779679,3.));
#768 = VECTOR('',#769,1.);
#769 = DIRECTION('',(1.,0.,0.));
#770 = ORIENTED_EDGE('',*,*,#771,.F.);
#771 = EDGE_CURVE('',#772,#764,#774,.T.);
#772 = VERTEX_POINT('',#773);
#773 = CARTESIAN_POINT('',(25.104321316998,-62.24137486453,3.));
#774 = LINE('',#775,#776);
#775 = CARTESIAN_POINT('',(25.104321316998,-62.24137486453,3.));
#776 = VECTOR('',#777,1.);
#777 = DIRECTION('',(0.600075967554,0.799943018699,0.));
#778 = ORIENTED_EDGE('',*,*,#779,.F.);
#779 = EDGE_CURVE('',#780,#772,#782,.T.);
#780 = VERTEX_POINT('',#781);
#781 = CARTESIAN_POINT('',(25.104321316998,-67.24137486453,3.));
#782 = LINE('',#783,#784);
#783 = CARTESIAN_POINT('',(25.104321316998,-67.24137486453,3.));
#784 = VECTOR('',#785,1.);
#785 = DIRECTION('',(0.,1.,0.));
#786 = ORIENTED_EDGE('',*,*,#787,.F.);
#787 = EDGE_CURVE('',#756,#780,#788,.T.);
#788 = LINE('',#789,#790);
#789 = CARTESIAN_POINT('',(50.104321316998,-63.90988779679,3.));
#790 = VECTOR('',#791,1.);
#791 = DIRECTION('',(-0.991237488052,-0.1320917949,-0.));
#792 = FACE_BOUND('',#793,.F.);
#793 = EDGE_LOOP('',(#794,#804,#812,#820,#828));
#794 = ORIENTED_EDGE('',*,*,#795,.F.);
#795 = EDGE_CURVE('',#796,#798,#800,.T.);
#796 = VERTEX_POINT('',#797);
#797 = CARTESIAN_POINT('',(-23.845678683,-102.35,3.));
#798 = VERTEX_POINT('',#799);
#799 = CARTESIAN_POINT('',(-23.845678683,-64.85,3.));
#800 = LINE('',#801,#802);
#801 = CARTESIAN_POINT('',(-23.845678683,-102.35,3.));
#802 = VECTOR('',#803,1.);
#803 = DIRECTION('',(0.,1.,0.));
#804 = ORIENTED_EDGE('',*,*,#805,.F.);
#805 = EDGE_CURVE('',#806,#796,#808,.T.);
#806 = VERTEX_POINT('',#807);
#807 = CARTESIAN_POINT('',(-19.91108718573,-102.35,3.));
#808 = LINE('',#809,#810);
#809 = CARTESIAN_POINT('',(-19.91108718573,-102.35,3.));
#810 = VECTOR('',#811,1.);
#811 = DIRECTION('',(-1.,-0.,-0.));
#812 = ORIENTED_EDGE('',*,*,#813,.F.);
#813 = EDGE_CURVE('',#814,#806,#816,.T.);
#814 = VERTEX_POINT('',#815);
#815 = CARTESIAN_POINT('',(-12.04169488477,-68.85,3.));
#816 = LINE('',#817,#818);
#817 = CARTESIAN_POINT('',(-12.04169488477,-68.85,3.));
#818 = VECTOR('',#819,1.);
#819 = DIRECTION('',(-0.228682443365,-0.973501073495,-0.));
#820 = ORIENTED_EDGE('',*,*,#821,.F.);
#821 = EDGE_CURVE('',#822,#814,#824,.T.);
#822 = VERTEX_POINT('',#823);
#823 = CARTESIAN_POINT('',(-19.845678683,-64.85,3.));
#824 = LINE('',#825,#826);
#825 = CARTESIAN_POINT('',(-19.845678683,-64.85,3.));
#826 = VECTOR('',#827,1.);
#827 = DIRECTION('',(0.889912037061,-0.456132180727,0.));
#828 = ORIENTED_EDGE('',*,*,#829,.F.);
#829 = EDGE_CURVE('',#798,#822,#830,.T.);
#830 = LINE('',#831,#832);
#831 = CARTESIAN_POINT('',(-23.845678683,-64.85,3.));
#832 = VECTOR('',#833,1.);
#833 = DIRECTION('',(1.,0.,0.));
#834 = PLANE('',#835);
#835 = AXIS2_PLACEMENT_3D('',#836,#837,#838);
#836 = CARTESIAN_POINT('',(10.110182790106,-62.84267263311,3.));
#837 = DIRECTION('',(0.,0.,1.));
#838 = DIRECTION('',(-1.,-0.,-0.));
#839 = ADVANCED_FACE('',(#840),#851,.T.);
#840 = FACE_BOUND('',#841,.F.);
#841 = EDGE_LOOP('',(#842,#848,#849,#850));
#842 = ORIENTED_EDGE('',*,*,#843,.T.);
#843 = EDGE_CURVE('',#128,#395,#844,.T.);
#844 = LINE('',#845,#846);
#845 = CARTESIAN_POINT('',(35.804321316998,-37.35,0.));
#846 = VECTOR('',#847,1.);
#847 = DIRECTION('',(0.,0.,1.));
#848 = ORIENTED_EDGE('',*,*,#394,.T.);
#849 = ORIENTED_EDGE('',*,*,#63,.F.);
#850 = ORIENTED_EDGE('',*,*,#127,.F.);
#851 = PLANE('',#852);
#852 = AXIS2_PLACEMENT_3D('',#853,#854,#855);
#853 = CARTESIAN_POINT('',(35.804321316998,-37.35,0.));
#854 = DIRECTION('',(0.,1.,0.));
#855 = DIRECTION('',(1.,0.,0.));
#856 = ADVANCED_FACE('',(#857),#868,.T.);
#857 = FACE_BOUND('',#858,.F.);
#858 = EDGE_LOOP('',(#859,#860,#861,#867));
#859 = ORIENTED_EDGE('',*,*,#103,.T.);
#860 = ORIENTED_EDGE('',*,*,#666,.T.);
#861 = ORIENTED_EDGE('',*,*,#862,.F.);
#862 = EDGE_CURVE('',#208,#659,#863,.T.);
#863 = LINE('',#864,#865);
#864 = CARTESIAN_POINT('',(-31.345678683,-65.35,0.));
#865 = VECTOR('',#866,1.);
#866 = DIRECTION('',(0.,0.,1.));
#867 = ORIENTED_EDGE('',*,*,#215,.F.);
#868 = PLANE('',#869);
#869 = AXIS2_PLACEMENT_3D('',#870,#871,#872);
#870 = CARTESIAN_POINT('',(-31.345678683,-48.85,0.));
#871 = DIRECTION('',(-1.,-0.,-0.));
#872 = DIRECTION('',(0.,1.,0.));
#873 = ADVANCED_FACE('',(#874),#885,.T.);
#874 = FACE_BOUND('',#875,.F.);
#875 = EDGE_LOOP('',(#876,#882,#883,#884));
#876 = ORIENTED_EDGE('',*,*,#877,.T.);
#877 = EDGE_CURVE('',#136,#403,#878,.T.);
#878 = LINE('',#879,#880);
#879 = CARTESIAN_POINT('',(35.804321316998,-31.35,0.));
#880 = VECTOR('',#881,1.);
#881 = DIRECTION('',(0.,0.,1.));
#882 = ORIENTED_EDGE('',*,*,#402,.T.);
#883 = ORIENTED_EDGE('',*,*,#843,.F.);
#884 = ORIENTED_EDGE('',*,*,#135,.F.);
#885 = PLANE('',#886);
#886 = AXIS2_PLACEMENT_3D('',#887,#888,#889);
#887 = CARTESIAN_POINT('',(35.804321316998,-31.35,0.));
#888 = DIRECTION('',(-1.,-0.,-0.));
#889 = DIRECTION('',(0.,1.,0.));
#890 = ADVANCED_FACE('',(#891),#902,.T.);
#891 = FACE_BOUND('',#892,.F.);
#892 = EDGE_LOOP('',(#893,#894,#895,#901));
#893 = ORIENTED_EDGE('',*,*,#862,.T.);
#894 = ORIENTED_EDGE('',*,*,#658,.T.);
#895 = ORIENTED_EDGE('',*,*,#896,.F.);
#896 = EDGE_CURVE('',#200,#651,#897,.T.);
#897 = LINE('',#898,#899);
#898 = CARTESIAN_POINT('',(-28.345678683,-65.35,0.));
#899 = VECTOR('',#900,1.);
#900 = DIRECTION('',(0.,0.,1.));
#901 = ORIENTED_EDGE('',*,*,#207,.F.);
#902 = PLANE('',#903);
#903 = AXIS2_PLACEMENT_3D('',#904,#905,#906);
#904 = CARTESIAN_POINT('',(-31.345678683,-65.35,0.));
#905 = DIRECTION('',(-0.,-1.,-0.));
#906 = DIRECTION('',(-1.,-0.,-0.));
#907 = ADVANCED_FACE('',(#908),#919,.T.);
#908 = FACE_BOUND('',#909,.F.);
#909 = EDGE_LOOP('',(#910,#916,#917,#918));
#910 = ORIENTED_EDGE('',*,*,#911,.T.);
#911 = EDGE_CURVE('',#144,#411,#912,.T.);
#912 = LINE('',#913,#914);
#913 = CARTESIAN_POINT('',(33.304321316998,-31.35,0.));
#914 = VECTOR('',#915,1.);
#915 = DIRECTION('',(0.,0.,1.));
#916 = ORIENTED_EDGE('',*,*,#410,.T.);
#917 = ORIENTED_EDGE('',*,*,#877,.F.);
#918 = ORIENTED_EDGE('',*,*,#143,.F.);
#919 = PLANE('',#920);
#920 = AXIS2_PLACEMENT_3D('',#921,#922,#923);
#921 = CARTESIAN_POINT('',(33.304321316998,-31.35,0.));
#922 = DIRECTION('',(-0.,-1.,-0.));
#923 = DIRECTION('',(-1.,-0.,-0.));
#924 = ADVANCED_FACE('',(#925,#982,#993),#1004,.T.);
#925 = FACE_BOUND('',#926,.F.);
#926 = EDGE_LOOP('',(#927,#928,#929,#937,#945,#951,#952,#960,#968,#974,
    #975,#981));
#927 = ORIENTED_EDGE('',*,*,#896,.T.);
#928 = ORIENTED_EDGE('',*,*,#650,.T.);
#929 = ORIENTED_EDGE('',*,*,#930,.T.);
#930 = EDGE_CURVE('',#643,#931,#933,.T.);
#931 = VERTEX_POINT('',#932);
#932 = CARTESIAN_POINT('',(-28.345678683,-65.45,12.));
#933 = LINE('',#934,#935);
#934 = CARTESIAN_POINT('',(-28.345678683,-65.45,3.));
#935 = VECTOR('',#936,1.);
#936 = DIRECTION('',(0.,0.,1.));
#937 = ORIENTED_EDGE('',*,*,#938,.F.);
#938 = EDGE_CURVE('',#939,#931,#941,.T.);
#939 = VERTEX_POINT('',#940);
#940 = CARTESIAN_POINT('',(-28.345678683,-75.45,12.));
#941 = LINE('',#942,#943);
#942 = CARTESIAN_POINT('',(-28.345678683,-75.45,12.));
#943 = VECTOR('',#944,1.);
#944 = DIRECTION('',(0.,1.,0.));
#945 = ORIENTED_EDGE('',*,*,#946,.F.);
#946 = EDGE_CURVE('',#619,#939,#947,.T.);
#947 = LINE('',#948,#949);
#948 = CARTESIAN_POINT('',(-28.345678683,-75.45,3.));
#949 = VECTOR('',#950,1.);
#950 = DIRECTION('',(0.,0.,1.));
#951 = ORIENTED_EDGE('',*,*,#618,.T.);
#952 = ORIENTED_EDGE('',*,*,#953,.T.);
#953 = EDGE_CURVE('',#611,#954,#956,.T.);
#954 = VERTEX_POINT('',#955);
#955 = CARTESIAN_POINT('',(-28.345678683,-88.85,12.));
#956 = LINE('',#957,#958);
#957 = CARTESIAN_POINT('',(-28.345678683,-88.85,3.));
#958 = VECTOR('',#959,1.);
#959 = DIRECTION('',(0.,0.,1.));
#960 = ORIENTED_EDGE('',*,*,#961,.F.);
#961 = EDGE_CURVE('',#962,#954,#964,.T.);
#962 = VERTEX_POINT('',#963);
#963 = CARTESIAN_POINT('',(-28.345678683,-98.85,12.));
#964 = LINE('',#965,#966);
#965 = CARTESIAN_POINT('',(-28.345678683,-98.85,12.));
#966 = VECTOR('',#967,1.);
#967 = DIRECTION('',(0.,1.,0.));
#968 = ORIENTED_EDGE('',*,*,#969,.F.);
#969 = EDGE_CURVE('',#587,#962,#970,.T.);
#970 = LINE('',#971,#972);
#971 = CARTESIAN_POINT('',(-28.345678683,-98.85,3.));
#972 = VECTOR('',#973,1.);
#973 = DIRECTION('',(0.,0.,1.));
#974 = ORIENTED_EDGE('',*,*,#586,.T.);
#975 = ORIENTED_EDGE('',*,*,#976,.F.);
#976 = EDGE_CURVE('',#192,#579,#977,.T.);
#977 = LINE('',#978,#979);
#978 = CARTESIAN_POINT('',(-28.345678683,-106.85,0.));
#979 = VECTOR('',#980,1.);
#980 = DIRECTION('',(0.,0.,1.));
#981 = ORIENTED_EDGE('',*,*,#199,.F.);
#982 = FACE_BOUND('',#983,.F.);
#983 = EDGE_LOOP('',(#984));
#984 = ORIENTED_EDGE('',*,*,#985,.F.);
#985 = EDGE_CURVE('',#986,#986,#988,.T.);
#986 = VERTEX_POINT('',#987);
#987 = CARTESIAN_POINT('',(-28.345678683,-92.45,7.5));
#988 = CIRCLE('',#989,1.4);
#989 = AXIS2_PLACEMENT_3D('',#990,#991,#992);
#990 = CARTESIAN_POINT('',(-28.345678683,-93.85,7.5));
#991 = DIRECTION('',(1.,-0.,0.));
#992 = DIRECTION('',(0.,1.,-0.));
#993 = FACE_BOUND('',#994,.F.);
#994 = EDGE_LOOP('',(#995));
#995 = ORIENTED_EDGE('',*,*,#996,.F.);
#996 = EDGE_CURVE('',#997,#997,#999,.T.);
#997 = VERTEX_POINT('',#998);
#998 = CARTESIAN_POINT('',(-28.345678683,-69.05,7.5));
#999 = CIRCLE('',#1000,1.4);
#1000 = AXIS2_PLACEMENT_3D('',#1001,#1002,#1003);
#1001 = CARTESIAN_POINT('',(-28.345678683,-70.45,7.5));
#1002 = DIRECTION('',(1.,-0.,0.));
#1003 = DIRECTION('',(0.,1.,-0.));
#1004 = PLANE('',#1005);
#1005 = AXIS2_PLACEMENT_3D('',#1006,#1007,#1008);
#1006 = CARTESIAN_POINT('',(-28.345678683,-84.9624,4.668));
#1007 = DIRECTION('',(-1.,0.,0.));
#1008 = DIRECTION('',(0.,0.,1.));
#1009 = ADVANCED_FACE('',(#1010),#1021,.T.);
#1010 = FACE_BOUND('',#1011,.F.);
#1011 = EDGE_LOOP('',(#1012,#1018,#1019,#1020));
#1012 = ORIENTED_EDGE('',*,*,#1013,.T.);
#1013 = EDGE_CURVE('',#152,#419,#1014,.T.);
#1014 = LINE('',#1015,#1016);
#1015 = CARTESIAN_POINT('',(34.604321316998,-21.85,0.));
#1016 = VECTOR('',#1017,1.);
#1017 = DIRECTION('',(0.,0.,1.));
#1018 = ORIENTED_EDGE('',*,*,#418,.T.);
#1019 = ORIENTED_EDGE('',*,*,#911,.F.);
#1020 = ORIENTED_EDGE('',*,*,#151,.F.);
#1021 = PLANE('',#1022);
#1022 = AXIS2_PLACEMENT_3D('',#1023,#1024,#1025);
#1023 = CARTESIAN_POINT('',(34.604321316998,-21.85,0.));
#1024 = DIRECTION('',(-0.990766595527,0.135578586756,0.));
#1025 = DIRECTION('',(0.135578586756,0.990766595527,0.));
#1026 = ADVANCED_FACE('',(#1027),#1038,.T.);
#1027 = FACE_BOUND('',#1028,.F.);
#1028 = EDGE_LOOP('',(#1029,#1030,#1031,#1037));
#1029 = ORIENTED_EDGE('',*,*,#976,.T.);
#1030 = ORIENTED_EDGE('',*,*,#578,.T.);
#1031 = ORIENTED_EDGE('',*,*,#1032,.F.);
#1032 = EDGE_CURVE('',#184,#571,#1033,.T.);
#1033 = LINE('',#1034,#1035);
#1034 = CARTESIAN_POINT('',(-16.345678683,-106.85,0.));
#1035 = VECTOR('',#1036,1.);
#1036 = DIRECTION('',(0.,0.,1.));
#1037 = ORIENTED_EDGE('',*,*,#191,.F.);
#1038 = PLANE('',#1039);
#1039 = AXIS2_PLACEMENT_3D('',#1040,#1041,#1042);
#1040 = CARTESIAN_POINT('',(-28.345678683,-106.85,0.));
#1041 = DIRECTION('',(-0.,-1.,-0.));
#1042 = DIRECTION('',(-1.,-0.,-0.));
#1043 = ADVANCED_FACE('',(#1044),#1055,.T.);
#1044 = FACE_BOUND('',#1045,.F.);
#1045 = EDGE_LOOP('',(#1046,#1052,#1053,#1054));
#1046 = ORIENTED_EDGE('',*,*,#1047,.T.);
#1047 = EDGE_CURVE('',#160,#427,#1048,.T.);
#1048 = LINE('',#1049,#1050);
#1049 = CARTESIAN_POINT('',(54.604321316998,-21.85,0.));
#1050 = VECTOR('',#1051,1.);
#1051 = DIRECTION('',(0.,0.,1.));
#1052 = ORIENTED_EDGE('',*,*,#426,.T.);
#1053 = ORIENTED_EDGE('',*,*,#1013,.F.);
#1054 = ORIENTED_EDGE('',*,*,#159,.F.);
#1055 = PLANE('',#1056);
#1056 = AXIS2_PLACEMENT_3D('',#1057,#1058,#1059);
#1057 = CARTESIAN_POINT('',(54.604321316998,-21.85,0.));
#1058 = DIRECTION('',(0.,1.,0.));
#1059 = DIRECTION('',(1.,0.,0.));
#1060 = ADVANCED_FACE('',(#1061,#1117,#1128),#1139,.T.);
#1061 = FACE_BOUND('',#1062,.F.);
#1062 = EDGE_LOOP('',(#1063,#1064,#1072,#1080,#1086,#1087,#1095,#1103,
    #1109,#1110,#1116));
#1063 = ORIENTED_EDGE('',*,*,#1032,.T.);
#1064 = ORIENTED_EDGE('',*,*,#1065,.T.);
#1065 = EDGE_CURVE('',#571,#1066,#1068,.T.);
#1066 = VERTEX_POINT('',#1067);
#1067 = CARTESIAN_POINT('',(-16.345678683,-106.85,12.));
#1068 = LINE('',#1069,#1070);
#1069 = CARTESIAN_POINT('',(-16.345678683,-106.85,3.));
#1070 = VECTOR('',#1071,1.);
#1071 = DIRECTION('',(0.,0.,1.));
#1072 = ORIENTED_EDGE('',*,*,#1073,.F.);
#1073 = EDGE_CURVE('',#1074,#1066,#1076,.T.);
#1074 = VERTEX_POINT('',#1075);
#1075 = CARTESIAN_POINT('',(-14.05885424935,-97.11498926504,12.));
#1076 = LINE('',#1077,#1078);
#1077 = CARTESIAN_POINT('',(-14.05885424935,-97.11498926504,12.));
#1078 = VECTOR('',#1079,1.);
#1079 = DIRECTION('',(-0.228682443365,-0.973501073495,-0.));
#1080 = ORIENTED_EDGE('',*,*,#1081,.F.);
#1081 = EDGE_CURVE('',#547,#1074,#1082,.T.);
#1082 = LINE('',#1083,#1084);
#1083 = CARTESIAN_POINT('',(-14.05885424935,-97.11498926504,3.));
#1084 = VECTOR('',#1085,1.);
#1085 = DIRECTION('',(0.,0.,1.));
#1086 = ORIENTED_EDGE('',*,*,#546,.T.);
#1087 = ORIENTED_EDGE('',*,*,#1088,.T.);
#1088 = EDGE_CURVE('',#539,#1089,#1091,.T.);
#1089 = VERTEX_POINT('',#1090);
#1090 = CARTESIAN_POINT('',(-11.88637103738,-87.86672906684,12.));
#1091 = LINE('',#1092,#1093);
#1092 = CARTESIAN_POINT('',(-11.88637103738,-87.86672906684,3.));
#1093 = VECTOR('',#1094,1.);
#1094 = DIRECTION('',(0.,0.,1.));
#1095 = ORIENTED_EDGE('',*,*,#1096,.F.);
#1096 = EDGE_CURVE('',#1097,#1089,#1099,.T.);
#1097 = VERTEX_POINT('',#1098);
#1098 = CARTESIAN_POINT('',(-9.599546603729,-78.13171833188,12.));
#1099 = LINE('',#1100,#1101);
#1100 = CARTESIAN_POINT('',(-9.599546603729,-78.13171833188,12.));
#1101 = VECTOR('',#1102,1.);
#1102 = DIRECTION('',(-0.228682443365,-0.973501073495,-0.));
#1103 = ORIENTED_EDGE('',*,*,#1104,.F.);
#1104 = EDGE_CURVE('',#515,#1097,#1105,.T.);
#1105 = LINE('',#1106,#1107);
#1106 = CARTESIAN_POINT('',(-9.599546603729,-78.13171833188,3.));
#1107 = VECTOR('',#1108,1.);
#1108 = DIRECTION('',(0.,0.,1.));
#1109 = ORIENTED_EDGE('',*,*,#514,.T.);
#1110 = ORIENTED_EDGE('',*,*,#1111,.F.);
#1111 = EDGE_CURVE('',#176,#507,#1112,.T.);
#1112 = LINE('',#1113,#1114);
#1113 = CARTESIAN_POINT('',(-9.181008080642,-76.35,0.));
#1114 = VECTOR('',#1115,1.);
#1115 = DIRECTION('',(0.,0.,1.));
#1116 = ORIENTED_EDGE('',*,*,#183,.F.);
#1117 = FACE_BOUND('',#1118,.F.);
#1118 = EDGE_LOOP('',(#1119));
#1119 = ORIENTED_EDGE('',*,*,#1120,.F.);
#1120 = EDGE_CURVE('',#1121,#1121,#1123,.T.);
#1121 = VERTEX_POINT('',#1122);
#1122 = CARTESIAN_POINT('',(-15.52242188688,-103.3453961354,7.5));
#1123 = CIRCLE('',#1124,1.4);
#1124 = AXIS2_PLACEMENT_3D('',#1125,#1126,#1127);
#1125 = CARTESIAN_POINT('',(-15.20226646617,-101.9824946325,7.5));
#1126 = DIRECTION('',(-0.973501073495,0.228682443365,-1.E-17));
#1127 = DIRECTION('',(-0.228682443365,-0.973501073495,2.E-17));
#1128 = FACE_BOUND('',#1129,.F.);
#1129 = EDGE_LOOP('',(#1130));
#1130 = ORIENTED_EDGE('',*,*,#1131,.F.);
#1131 = EDGE_CURVE('',#1132,#1132,#1134,.T.);
#1132 = VERTEX_POINT('',#1133);
#1133 = CARTESIAN_POINT('',(-11.06311424126,-84.36212520225,7.5));
#1134 = CIRCLE('',#1135,1.4);
#1135 = AXIS2_PLACEMENT_3D('',#1136,#1137,#1138);
#1136 = CARTESIAN_POINT('',(-10.74295882055,-82.99922369936,7.5));
#1137 = DIRECTION('',(-0.973501073495,0.228682443365,-1.E-17));
#1138 = DIRECTION('',(-0.228682443365,-0.973501073495,2.E-17));
#1139 = PLANE('',#1140);
#1140 = AXIS2_PLACEMENT_3D('',#1141,#1142,#1143);
#1141 = CARTESIAN_POINT('',(-12.8353256306,-91.9064284054,5.283664790511
    ));
#1142 = DIRECTION('',(0.973501073495,-0.228682443365,1.2E-16));
#1143 = DIRECTION('',(0.228682443365,0.973501073495,0.));
#1144 = ADVANCED_FACE('',(#1145,#1172),#1183,.T.);
#1145 = FACE_BOUND('',#1146,.F.);
#1146 = EDGE_LOOP('',(#1147,#1155,#1163,#1169,#1170,#1171));
#1147 = ORIENTED_EDGE('',*,*,#1148,.T.);
#1148 = EDGE_CURVE('',#168,#1149,#1151,.T.);
#1149 = VERTEX_POINT('',#1150);
#1150 = CARTESIAN_POINT('',(54.604321316998,-67.85,12.));
#1151 = LINE('',#1152,#1153);
#1152 = CARTESIAN_POINT('',(54.604321316998,-67.85,0.));
#1153 = VECTOR('',#1154,1.);
#1154 = DIRECTION('',(0.,0.,1.));
#1155 = ORIENTED_EDGE('',*,*,#1156,.F.);
#1156 = EDGE_CURVE('',#1157,#1149,#1159,.T.);
#1157 = VERTEX_POINT('',#1158);
#1158 = CARTESIAN_POINT('',(54.604321316998,-57.85,12.));
#1159 = LINE('',#1160,#1161);
#1160 = CARTESIAN_POINT('',(54.604321316998,-57.85,12.));
#1161 = VECTOR('',#1162,1.);
#1162 = DIRECTION('',(-0.,-1.,-0.));
#1163 = ORIENTED_EDGE('',*,*,#1164,.F.);
#1164 = EDGE_CURVE('',#435,#1157,#1165,.T.);
#1165 = LINE('',#1166,#1167);
#1166 = CARTESIAN_POINT('',(54.604321316998,-57.85,3.));
#1167 = VECTOR('',#1168,1.);
#1168 = DIRECTION('',(0.,0.,1.));
#1169 = ORIENTED_EDGE('',*,*,#434,.T.);
#1170 = ORIENTED_EDGE('',*,*,#1047,.F.);
#1171 = ORIENTED_EDGE('',*,*,#167,.F.);
#1172 = FACE_BOUND('',#1173,.F.);
#1173 = EDGE_LOOP('',(#1174));
#1174 = ORIENTED_EDGE('',*,*,#1175,.F.);
#1175 = EDGE_CURVE('',#1176,#1176,#1178,.T.);
#1176 = VERTEX_POINT('',#1177);
#1177 = CARTESIAN_POINT('',(54.604321316998,-64.25,7.5));
#1178 = CIRCLE('',#1179,1.4);
#1179 = AXIS2_PLACEMENT_3D('',#1180,#1181,#1182);
#1180 = CARTESIAN_POINT('',(54.604321316998,-62.85,7.5));
#1181 = DIRECTION('',(-1.,0.,0.));
#1182 = DIRECTION('',(-0.,-1.,-0.));
#1183 = PLANE('',#1184);
#1184 = AXIS2_PLACEMENT_3D('',#1185,#1186,#1187);
#1185 = CARTESIAN_POINT('',(54.604321316998,-47.64310344827,
    3.206896551724));
#1186 = DIRECTION('',(1.,0.,0.));
#1187 = DIRECTION('',(-0.,-0.,-1.));
#1188 = ADVANCED_FACE('',(#1189,#1232,#1243),#1254,.T.);
#1189 = FACE_BOUND('',#1190,.F.);
#1190 = EDGE_LOOP('',(#1191,#1192,#1193,#1201,#1209,#1215,#1216,#1224,
    #1230,#1231));
#1191 = ORIENTED_EDGE('',*,*,#1111,.T.);
#1192 = ORIENTED_EDGE('',*,*,#506,.T.);
#1193 = ORIENTED_EDGE('',*,*,#1194,.T.);
#1194 = EDGE_CURVE('',#499,#1195,#1197,.T.);
#1195 = VERTEX_POINT('',#1196);
#1196 = CARTESIAN_POINT('',(0.73136679988,-75.02908205099,12.));
#1197 = LINE('',#1198,#1199);
#1198 = CARTESIAN_POINT('',(0.73136679988,-75.02908205099,3.));
#1199 = VECTOR('',#1200,1.);
#1200 = DIRECTION('',(0.,0.,1.));
#1201 = ORIENTED_EDGE('',*,*,#1202,.F.);
#1202 = EDGE_CURVE('',#1203,#1195,#1205,.T.);
#1203 = VERTEX_POINT('',#1204);
#1204 = CARTESIAN_POINT('',(10.643741680402,-73.70816410199,12.));
#1205 = LINE('',#1206,#1207);
#1206 = CARTESIAN_POINT('',(10.643741680402,-73.70816410199,12.));
#1207 = VECTOR('',#1208,1.);
#1208 = DIRECTION('',(-0.991237488052,-0.1320917949,-0.));
#1209 = ORIENTED_EDGE('',*,*,#1210,.F.);
#1210 = EDGE_CURVE('',#475,#1203,#1211,.T.);
#1211 = LINE('',#1212,#1213);
#1212 = CARTESIAN_POINT('',(10.643741680402,-73.70816410199,3.));
#1213 = VECTOR('',#1214,1.);
#1214 = DIRECTION('',(0.,0.,1.));
#1215 = ORIENTED_EDGE('',*,*,#474,.T.);
#1216 = ORIENTED_EDGE('',*,*,#1217,.T.);
#1217 = EDGE_CURVE('',#467,#1218,#1220,.T.);
#1218 = VERTEX_POINT('',#1219);
#1219 = CARTESIAN_POINT('',(44.691946436476,-69.170917949,12.));
#1220 = LINE('',#1221,#1222);
#1221 = CARTESIAN_POINT('',(44.691946436476,-69.170917949,3.));
#1222 = VECTOR('',#1223,1.);
#1223 = DIRECTION('',(0.,0.,1.));
#1224 = ORIENTED_EDGE('',*,*,#1225,.F.);
#1225 = EDGE_CURVE('',#1149,#1218,#1226,.T.);
#1226 = LINE('',#1227,#1228);
#1227 = CARTESIAN_POINT('',(54.604321316998,-67.85,12.));
#1228 = VECTOR('',#1229,1.);
#1229 = DIRECTION('',(-0.991237488052,-0.1320917949,-0.));
#1230 = ORIENTED_EDGE('',*,*,#1148,.F.);
#1231 = ORIENTED_EDGE('',*,*,#175,.F.);
#1232 = FACE_BOUND('',#1233,.F.);
#1233 = EDGE_LOOP('',(#1234));
#1234 = ORIENTED_EDGE('',*,*,#1235,.F.);
#1235 = EDGE_CURVE('',#1236,#1236,#1238,.T.);
#1236 = VERTEX_POINT('',#1237);
#1237 = CARTESIAN_POINT('',(4.299821756868,-74.55355158935,7.5));
#1238 = CIRCLE('',#1239,1.4);
#1239 = AXIS2_PLACEMENT_3D('',#1240,#1241,#1242);
#1240 = CARTESIAN_POINT('',(5.687554240141,-74.36862307649,7.5));
#1241 = DIRECTION('',(-0.1320917949,0.991237488052,0.));
#1242 = DIRECTION('',(-0.991237488052,-0.1320917949,0.));
#1243 = FACE_BOUND('',#1244,.F.);
#1244 = EDGE_LOOP('',(#1245));
#1245 = ORIENTED_EDGE('',*,*,#1246,.F.);
#1246 = EDGE_CURVE('',#1247,#1247,#1249,.T.);
#1247 = VERTEX_POINT('',#1248);
#1248 = CARTESIAN_POINT('',(48.260401393464,-68.69538748736,7.5));
#1249 = CIRCLE('',#1250,1.4);
#1250 = AXIS2_PLACEMENT_3D('',#1251,#1252,#1253);
#1251 = CARTESIAN_POINT('',(49.648133876737,-68.5104589745,7.5));
#1252 = DIRECTION('',(-0.1320917949,0.991237488052,0.));
#1253 = DIRECTION('',(-0.991237488052,-0.1320917949,0.));
#1254 = PLANE('',#1255);
#1255 = AXIS2_PLACEMENT_3D('',#1256,#1257,#1258);
#1256 = CARTESIAN_POINT('',(23.756908178081,-71.96071031782,
    3.81988142045));
#1257 = DIRECTION('',(0.1320917949,-0.991237488052,-1.2E-16));
#1258 = DIRECTION('',(-0.991237488052,-0.1320917949,-0.));
#1259 = ADVANCED_FACE('',(#1260),#1276,.T.);
#1260 = FACE_BOUND('',#1261,.F.);
#1261 = EDGE_LOOP('',(#1262,#1263,#1269,#1270));
#1262 = ORIENTED_EDGE('',*,*,#675,.F.);
#1263 = ORIENTED_EDGE('',*,*,#1264,.T.);
#1264 = EDGE_CURVE('',#676,#225,#1265,.T.);
#1265 = LINE('',#1266,#1267);
#1266 = CARTESIAN_POINT('',(38.604321316998,-29.35,3.));
#1267 = VECTOR('',#1268,1.);
#1268 = DIRECTION('',(0.,0.,-1.));
#1269 = ORIENTED_EDGE('',*,*,#224,.T.);
#1270 = ORIENTED_EDGE('',*,*,#1271,.F.);
#1271 = EDGE_CURVE('',#678,#227,#1272,.T.);
#1272 = LINE('',#1273,#1274);
#1273 = CARTESIAN_POINT('',(46.104321316998,-40.85,3.));
#1274 = VECTOR('',#1275,1.);
#1275 = DIRECTION('',(0.,0.,-1.));
#1276 = PLANE('',#1277);
#1277 = AXIS2_PLACEMENT_3D('',#1278,#1279,#1280);
#1278 = CARTESIAN_POINT('',(38.604321316998,-29.35,3.));
#1279 = DIRECTION('',(0.837610596839,0.546267780547,0.));
#1280 = DIRECTION('',(-0.546267780547,0.837610596839,0.));
#1281 = ADVANCED_FACE('',(#1282),#1293,.T.);
#1282 = FACE_BOUND('',#1283,.F.);
#1283 = EDGE_LOOP('',(#1284,#1285,#1291,#1292));
#1284 = ORIENTED_EDGE('',*,*,#709,.F.);
#1285 = ORIENTED_EDGE('',*,*,#1286,.T.);
#1286 = EDGE_CURVE('',#702,#251,#1287,.T.);
#1287 = LINE('',#1288,#1289);
#1288 = CARTESIAN_POINT('',(41.104321316998,-26.35,3.));
#1289 = VECTOR('',#1290,1.);
#1290 = DIRECTION('',(0.,0.,-1.));
#1291 = ORIENTED_EDGE('',*,*,#258,.T.);
#1292 = ORIENTED_EDGE('',*,*,#1264,.F.);
#1293 = PLANE('',#1294);
#1294 = AXIS2_PLACEMENT_3D('',#1295,#1296,#1297);
#1295 = CARTESIAN_POINT('',(41.104321316998,-26.35,3.));
#1296 = DIRECTION('',(0.768221279597,-0.640184399664,0.));
#1297 = DIRECTION('',(0.640184399664,0.768221279597,0.));
#1298 = ADVANCED_FACE('',(#1299),#1310,.T.);
#1299 = FACE_BOUND('',#1300,.F.);
#1300 = EDGE_LOOP('',(#1301,#1302,#1303,#1304));
#1301 = ORIENTED_EDGE('',*,*,#685,.F.);
#1302 = ORIENTED_EDGE('',*,*,#1271,.T.);
#1303 = ORIENTED_EDGE('',*,*,#234,.T.);
#1304 = ORIENTED_EDGE('',*,*,#1305,.F.);
#1305 = EDGE_CURVE('',#686,#235,#1306,.T.);
#1306 = LINE('',#1307,#1308);
#1307 = CARTESIAN_POINT('',(50.104321316998,-40.85,3.));
#1308 = VECTOR('',#1309,1.);
#1309 = DIRECTION('',(0.,0.,-1.));
#1310 = PLANE('',#1311);
#1311 = AXIS2_PLACEMENT_3D('',#1312,#1313,#1314);
#1312 = CARTESIAN_POINT('',(46.104321316998,-40.85,3.));
#1313 = DIRECTION('',(0.,1.,0.));
#1314 = DIRECTION('',(-1.,-0.,-0.));
#1315 = ADVANCED_FACE('',(#1316),#1327,.T.);
#1316 = FACE_BOUND('',#1317,.F.);
#1317 = EDGE_LOOP('',(#1318,#1319,#1325,#1326));
#1318 = ORIENTED_EDGE('',*,*,#701,.F.);
#1319 = ORIENTED_EDGE('',*,*,#1320,.T.);
#1320 = EDGE_CURVE('',#694,#243,#1321,.T.);
#1321 = LINE('',#1322,#1323);
#1322 = CARTESIAN_POINT('',(50.104321316998,-26.35,3.));
#1323 = VECTOR('',#1324,1.);
#1324 = DIRECTION('',(0.,0.,-1.));
#1325 = ORIENTED_EDGE('',*,*,#250,.T.);
#1326 = ORIENTED_EDGE('',*,*,#1286,.F.);
#1327 = PLANE('',#1328);
#1328 = AXIS2_PLACEMENT_3D('',#1329,#1330,#1331);
#1329 = CARTESIAN_POINT('',(50.104321316998,-26.35,3.));
#1330 = DIRECTION('',(-0.,-1.,-0.));
#1331 = DIRECTION('',(1.,0.,0.));
#1332 = ADVANCED_FACE('',(#1333),#1339,.T.);
#1333 = FACE_BOUND('',#1334,.F.);
#1334 = EDGE_LOOP('',(#1335,#1336,#1337,#1338));
#1335 = ORIENTED_EDGE('',*,*,#693,.F.);
#1336 = ORIENTED_EDGE('',*,*,#1305,.T.);
#1337 = ORIENTED_EDGE('',*,*,#242,.T.);
#1338 = ORIENTED_EDGE('',*,*,#1320,.F.);
#1339 = PLANE('',#1340);
#1340 = AXIS2_PLACEMENT_3D('',#1341,#1342,#1343);
#1341 = CARTESIAN_POINT('',(50.104321316998,-40.85,3.));
#1342 = DIRECTION('',(-1.,-0.,-0.));
#1343 = DIRECTION('',(-0.,-1.,-0.));
#1344 = ADVANCED_FACE('',(#1345),#1361,.F.);
#1345 = FACE_BOUND('',#1346,.T.);
#1346 = EDGE_LOOP('',(#1347,#1348,#1354,#1355));
#1347 = ORIENTED_EDGE('',*,*,#717,.F.);
#1348 = ORIENTED_EDGE('',*,*,#1349,.T.);
#1349 = EDGE_CURVE('',#718,#267,#1350,.T.);
#1350 = LINE('',#1351,#1352);
#1351 = CARTESIAN_POINT('',(48.724321316998,-48.45,3.));
#1352 = VECTOR('',#1353,1.);
#1353 = DIRECTION('',(0.,0.,-1.));
#1354 = ORIENTED_EDGE('',*,*,#266,.T.);
#1355 = ORIENTED_EDGE('',*,*,#1356,.F.);
#1356 = EDGE_CURVE('',#720,#269,#1357,.T.);
#1357 = LINE('',#1358,#1359);
#1358 = CARTESIAN_POINT('',(48.724321316998,-45.25,3.));
#1359 = VECTOR('',#1360,1.);
#1360 = DIRECTION('',(0.,0.,-1.));
#1361 = CYLINDRICAL_SURFACE('',#1362,1.6);
#1362 = AXIS2_PLACEMENT_3D('',#1363,#1364,#1365);
#1363 = CARTESIAN_POINT('',(48.724321316998,-46.85,3.));
#1364 = DIRECTION('',(0.,0.,1.));
#1365 = DIRECTION('',(1.,0.,0.));
#1366 = ADVANCED_FACE('',(#1367),#1378,.F.);
#1367 = FACE_BOUND('',#1368,.T.);
#1368 = EDGE_LOOP('',(#1369,#1370,#1371,#1372));
#1369 = ORIENTED_EDGE('',*,*,#745,.F.);
#1370 = ORIENTED_EDGE('',*,*,#1356,.T.);
#1371 = ORIENTED_EDGE('',*,*,#294,.T.);
#1372 = ORIENTED_EDGE('',*,*,#1373,.F.);
#1373 = EDGE_CURVE('',#737,#286,#1374,.T.);
#1374 = LINE('',#1375,#1376);
#1375 = CARTESIAN_POINT('',(50.474321316998,-45.25,3.));
#1376 = VECTOR('',#1377,1.);
#1377 = DIRECTION('',(0.,0.,-1.));
#1378 = PLANE('',#1379);
#1379 = AXIS2_PLACEMENT_3D('',#1380,#1381,#1382);
#1380 = CARTESIAN_POINT('',(48.724321316998,-45.25,3.));
#1381 = DIRECTION('',(0.,1.,0.));
#1382 = DIRECTION('',(-1.,-0.,-0.));
#1383 = ADVANCED_FACE('',(#1384),#1395,.F.);
#1384 = FACE_BOUND('',#1385,.T.);
#1385 = EDGE_LOOP('',(#1386,#1387,#1388,#1389));
#1386 = ORIENTED_EDGE('',*,*,#736,.F.);
#1387 = ORIENTED_EDGE('',*,*,#1373,.T.);
#1388 = ORIENTED_EDGE('',*,*,#285,.T.);
#1389 = ORIENTED_EDGE('',*,*,#1390,.F.);
#1390 = EDGE_CURVE('',#729,#278,#1391,.T.);
#1391 = LINE('',#1392,#1393);
#1392 = CARTESIAN_POINT('',(50.474321316998,-48.45,3.));
#1393 = VECTOR('',#1394,1.);
#1394 = DIRECTION('',(0.,0.,-1.));
#1395 = CYLINDRICAL_SURFACE('',#1396,1.6);
#1396 = AXIS2_PLACEMENT_3D('',#1397,#1398,#1399);
#1397 = CARTESIAN_POINT('',(50.474321316998,-46.85,3.));
#1398 = DIRECTION('',(0.,0.,1.));
#1399 = DIRECTION('',(1.,0.,0.));
#1400 = ADVANCED_FACE('',(#1401),#1407,.T.);
#1401 = FACE_BOUND('',#1402,.F.);
#1402 = EDGE_LOOP('',(#1403,#1404,#1405,#1406));
#1403 = ORIENTED_EDGE('',*,*,#728,.F.);
#1404 = ORIENTED_EDGE('',*,*,#1349,.T.);
#1405 = ORIENTED_EDGE('',*,*,#277,.T.);
#1406 = ORIENTED_EDGE('',*,*,#1390,.F.);
#1407 = PLANE('',#1408);
#1408 = AXIS2_PLACEMENT_3D('',#1409,#1410,#1411);
#1409 = CARTESIAN_POINT('',(48.724321316998,-48.45,3.));
#1410 = DIRECTION('',(0.,1.,0.));
#1411 = DIRECTION('',(-1.,-0.,-0.));
#1412 = ADVANCED_FACE('',(#1413),#1429,.F.);
#1413 = FACE_BOUND('',#1414,.T.);
#1414 = EDGE_LOOP('',(#1415,#1416,#1422,#1423));
#1415 = ORIENTED_EDGE('',*,*,#753,.F.);
#1416 = ORIENTED_EDGE('',*,*,#1417,.T.);
#1417 = EDGE_CURVE('',#754,#303,#1418,.T.);
#1418 = LINE('',#1419,#1420);
#1419 = CARTESIAN_POINT('',(50.104321316998,-52.90988779679,3.));
#1420 = VECTOR('',#1421,1.);
#1421 = DIRECTION('',(0.,0.,-1.));
#1422 = ORIENTED_EDGE('',*,*,#302,.T.);
#1423 = ORIENTED_EDGE('',*,*,#1424,.F.);
#1424 = EDGE_CURVE('',#756,#305,#1425,.T.);
#1425 = LINE('',#1426,#1427);
#1426 = CARTESIAN_POINT('',(50.104321316998,-63.90988779679,3.));
#1427 = VECTOR('',#1428,1.);
#1428 = DIRECTION('',(0.,0.,-1.));
#1429 = PLANE('',#1430);
#1430 = AXIS2_PLACEMENT_3D('',#1431,#1432,#1433);
#1431 = CARTESIAN_POINT('',(50.104321316998,-52.90988779679,3.));
#1432 = DIRECTION('',(1.,0.,0.));
#1433 = DIRECTION('',(0.,1.,0.));
#1434 = ADVANCED_FACE('',(#1435),#1446,.F.);
#1435 = FACE_BOUND('',#1436,.T.);
#1436 = EDGE_LOOP('',(#1437,#1438,#1444,#1445));
#1437 = ORIENTED_EDGE('',*,*,#763,.F.);
#1438 = ORIENTED_EDGE('',*,*,#1439,.T.);
#1439 = EDGE_CURVE('',#764,#313,#1440,.T.);
#1440 = LINE('',#1441,#1442);
#1441 = CARTESIAN_POINT('',(32.104321316998,-52.90988779679,3.));
#1442 = VECTOR('',#1443,1.);
#1443 = DIRECTION('',(0.,0.,-1.));
#1444 = ORIENTED_EDGE('',*,*,#312,.T.);
#1445 = ORIENTED_EDGE('',*,*,#1417,.F.);
#1446 = PLANE('',#1447);
#1447 = AXIS2_PLACEMENT_3D('',#1448,#1449,#1450);
#1448 = CARTESIAN_POINT('',(32.104321316998,-52.90988779679,3.));
#1449 = DIRECTION('',(0.,1.,0.));
#1450 = DIRECTION('',(-1.,-0.,-0.));
#1451 = ADVANCED_FACE('',(#1452),#1463,.F.);
#1452 = FACE_BOUND('',#1453,.T.);
#1453 = EDGE_LOOP('',(#1454,#1455,#1456,#1457));
#1454 = ORIENTED_EDGE('',*,*,#787,.F.);
#1455 = ORIENTED_EDGE('',*,*,#1424,.T.);
#1456 = ORIENTED_EDGE('',*,*,#336,.T.);
#1457 = ORIENTED_EDGE('',*,*,#1458,.F.);
#1458 = EDGE_CURVE('',#780,#329,#1459,.T.);
#1459 = LINE('',#1460,#1461);
#1460 = CARTESIAN_POINT('',(25.104321316998,-67.24137486453,3.));
#1461 = VECTOR('',#1462,1.);
#1462 = DIRECTION('',(0.,0.,-1.));
#1463 = PLANE('',#1464);
#1464 = AXIS2_PLACEMENT_3D('',#1465,#1466,#1467);
#1465 = CARTESIAN_POINT('',(50.104321316998,-63.90988779679,3.));
#1466 = DIRECTION('',(0.1320917949,-0.991237488052,0.));
#1467 = DIRECTION('',(0.991237488052,0.1320917949,0.));
#1468 = ADVANCED_FACE('',(#1469),#1480,.F.);
#1469 = FACE_BOUND('',#1470,.T.);
#1470 = EDGE_LOOP('',(#1471,#1472,#1478,#1479));
#1471 = ORIENTED_EDGE('',*,*,#771,.F.);
#1472 = ORIENTED_EDGE('',*,*,#1473,.T.);
#1473 = EDGE_CURVE('',#772,#321,#1474,.T.);
#1474 = LINE('',#1475,#1476);
#1475 = CARTESIAN_POINT('',(25.104321316998,-62.24137486453,3.));
#1476 = VECTOR('',#1477,1.);
#1477 = DIRECTION('',(0.,0.,-1.));
#1478 = ORIENTED_EDGE('',*,*,#320,.T.);
#1479 = ORIENTED_EDGE('',*,*,#1439,.F.);
#1480 = PLANE('',#1481);
#1481 = AXIS2_PLACEMENT_3D('',#1482,#1483,#1484);
#1482 = CARTESIAN_POINT('',(25.104321316998,-62.24137486453,3.));
#1483 = DIRECTION('',(-0.799943018699,0.600075967554,0.));
#1484 = DIRECTION('',(-0.600075967554,-0.799943018699,-0.));
#1485 = ADVANCED_FACE('',(#1486),#1492,.F.);
#1486 = FACE_BOUND('',#1487,.T.);
#1487 = EDGE_LOOP('',(#1488,#1489,#1490,#1491));
#1488 = ORIENTED_EDGE('',*,*,#779,.F.);
#1489 = ORIENTED_EDGE('',*,*,#1458,.T.);
#1490 = ORIENTED_EDGE('',*,*,#328,.T.);
#1491 = ORIENTED_EDGE('',*,*,#1473,.F.);
#1492 = PLANE('',#1493);
#1493 = AXIS2_PLACEMENT_3D('',#1494,#1495,#1496);
#1494 = CARTESIAN_POINT('',(25.104321316998,-67.24137486453,3.));
#1495 = DIRECTION('',(-1.,-0.,-0.));
#1496 = DIRECTION('',(-0.,-1.,-0.));
#1497 = ADVANCED_FACE('',(#1498),#1514,.F.);
#1498 = FACE_BOUND('',#1499,.T.);
#1499 = EDGE_LOOP('',(#1500,#1501,#1507,#1508));
#1500 = ORIENTED_EDGE('',*,*,#795,.F.);
#1501 = ORIENTED_EDGE('',*,*,#1502,.T.);
#1502 = EDGE_CURVE('',#796,#345,#1503,.T.);
#1503 = LINE('',#1504,#1505);
#1504 = CARTESIAN_POINT('',(-23.845678683,-102.35,3.));
#1505 = VECTOR('',#1506,1.);
#1506 = DIRECTION('',(0.,0.,-1.));
#1507 = ORIENTED_EDGE('',*,*,#344,.T.);
#1508 = ORIENTED_EDGE('',*,*,#1509,.F.);
#1509 = EDGE_CURVE('',#798,#347,#1510,.T.);
#1510 = LINE('',#1511,#1512);
#1511 = CARTESIAN_POINT('',(-23.845678683,-64.85,3.));
#1512 = VECTOR('',#1513,1.);
#1513 = DIRECTION('',(0.,0.,-1.));
#1514 = PLANE('',#1515);
#1515 = AXIS2_PLACEMENT_3D('',#1516,#1517,#1518);
#1516 = CARTESIAN_POINT('',(-23.845678683,-102.35,3.));
#1517 = DIRECTION('',(-1.,-0.,-0.));
#1518 = DIRECTION('',(-0.,-1.,-0.));
#1519 = ADVANCED_FACE('',(#1520),#1531,.F.);
#1520 = FACE_BOUND('',#1521,.T.);
#1521 = EDGE_LOOP('',(#1522,#1523,#1529,#1530));
#1522 = ORIENTED_EDGE('',*,*,#805,.F.);
#1523 = ORIENTED_EDGE('',*,*,#1524,.T.);
#1524 = EDGE_CURVE('',#806,#355,#1525,.T.);
#1525 = LINE('',#1526,#1527);
#1526 = CARTESIAN_POINT('',(-19.91108718573,-102.35,3.));
#1527 = VECTOR('',#1528,1.);
#1528 = DIRECTION('',(0.,0.,-1.));
#1529 = ORIENTED_EDGE('',*,*,#354,.T.);
#1530 = ORIENTED_EDGE('',*,*,#1502,.F.);
#1531 = PLANE('',#1532);
#1532 = AXIS2_PLACEMENT_3D('',#1533,#1534,#1535);
#1533 = CARTESIAN_POINT('',(-19.91108718573,-102.35,3.));
#1534 = DIRECTION('',(-0.,-1.,-0.));
#1535 = DIRECTION('',(1.,0.,0.));
#1536 = ADVANCED_FACE('',(#1537),#1548,.F.);
#1537 = FACE_BOUND('',#1538,.T.);
#1538 = EDGE_LOOP('',(#1539,#1540,#1541,#1542));
#1539 = ORIENTED_EDGE('',*,*,#829,.F.);
#1540 = ORIENTED_EDGE('',*,*,#1509,.T.);
#1541 = ORIENTED_EDGE('',*,*,#378,.T.);
#1542 = ORIENTED_EDGE('',*,*,#1543,.F.);
#1543 = EDGE_CURVE('',#822,#371,#1544,.T.);
#1544 = LINE('',#1545,#1546);
#1545 = CARTESIAN_POINT('',(-19.845678683,-64.85,3.));
#1546 = VECTOR('',#1547,1.);
#1547 = DIRECTION('',(0.,0.,-1.));
#1548 = PLANE('',#1549);
#1549 = AXIS2_PLACEMENT_3D('',#1550,#1551,#1552);
#1550 = CARTESIAN_POINT('',(-23.845678683,-64.85,3.));
#1551 = DIRECTION('',(0.,1.,0.));
#1552 = DIRECTION('',(-1.,-0.,-0.));
#1553 = ADVANCED_FACE('',(#1554),#1565,.F.);
#1554 = FACE_BOUND('',#1555,.T.);
#1555 = EDGE_LOOP('',(#1556,#1557,#1563,#1564));
#1556 = ORIENTED_EDGE('',*,*,#813,.F.);
#1557 = ORIENTED_EDGE('',*,*,#1558,.T.);
#1558 = EDGE_CURVE('',#814,#363,#1559,.T.);
#1559 = LINE('',#1560,#1561);
#1560 = CARTESIAN_POINT('',(-12.04169488477,-68.85,3.));
#1561 = VECTOR('',#1562,1.);
#1562 = DIRECTION('',(0.,0.,-1.));
#1563 = ORIENTED_EDGE('',*,*,#362,.T.);
#1564 = ORIENTED_EDGE('',*,*,#1524,.F.);
#1565 = PLANE('',#1566);
#1566 = AXIS2_PLACEMENT_3D('',#1567,#1568,#1569);
#1567 = CARTESIAN_POINT('',(-12.04169488477,-68.85,3.));
#1568 = DIRECTION('',(0.973501073495,-0.228682443365,0.));
#1569 = DIRECTION('',(0.228682443365,0.973501073495,0.));
#1570 = ADVANCED_FACE('',(#1571),#1577,.F.);
#1571 = FACE_BOUND('',#1572,.T.);
#1572 = EDGE_LOOP('',(#1573,#1574,#1575,#1576));
#1573 = ORIENTED_EDGE('',*,*,#821,.F.);
#1574 = ORIENTED_EDGE('',*,*,#1543,.T.);
#1575 = ORIENTED_EDGE('',*,*,#370,.T.);
#1576 = ORIENTED_EDGE('',*,*,#1558,.F.);
#1577 = PLANE('',#1578);
#1578 = AXIS2_PLACEMENT_3D('',#1579,#1580,#1581);
#1579 = CARTESIAN_POINT('',(-19.845678683,-64.85,3.));
#1580 = DIRECTION('',(0.456132180727,0.889912037061,0.));
#1581 = DIRECTION('',(-0.889912037061,0.456132180727,0.));
#1582 = ADVANCED_FACE('',(#1583),#1601,.F.);
#1583 = FACE_BOUND('',#1584,.T.);
#1584 = EDGE_LOOP('',(#1585,#1586,#1594,#1600));
#1585 = ORIENTED_EDGE('',*,*,#930,.T.);
#1586 = ORIENTED_EDGE('',*,*,#1587,.T.);
#1587 = EDGE_CURVE('',#931,#1588,#1590,.T.);
#1588 = VERTEX_POINT('',#1589);
#1589 = CARTESIAN_POINT('',(-25.345678683,-65.45,12.));
#1590 = LINE('',#1591,#1592);
#1591 = CARTESIAN_POINT('',(-28.345678683,-65.45,12.));
#1592 = VECTOR('',#1593,1.);
#1593 = DIRECTION('',(1.,0.,0.));
#1594 = ORIENTED_EDGE('',*,*,#1595,.F.);
#1595 = EDGE_CURVE('',#635,#1588,#1596,.T.);
#1596 = LINE('',#1597,#1598);
#1597 = CARTESIAN_POINT('',(-25.345678683,-65.45,3.));
#1598 = VECTOR('',#1599,1.);
#1599 = DIRECTION('',(0.,0.,1.));
#1600 = ORIENTED_EDGE('',*,*,#642,.F.);
#1601 = PLANE('',#1602);
#1602 = AXIS2_PLACEMENT_3D('',#1603,#1604,#1605);
#1603 = CARTESIAN_POINT('',(-28.345678683,-65.45,3.));
#1604 = DIRECTION('',(-0.,-1.,-0.));
#1605 = DIRECTION('',(-1.,-0.,-0.));
#1606 = ADVANCED_FACE('',(#1607,#1625),#1636,.F.);
#1607 = FACE_BOUND('',#1608,.T.);
#1608 = EDGE_LOOP('',(#1609,#1610,#1618,#1624));
#1609 = ORIENTED_EDGE('',*,*,#1595,.T.);
#1610 = ORIENTED_EDGE('',*,*,#1611,.T.);
#1611 = EDGE_CURVE('',#1588,#1612,#1614,.T.);
#1612 = VERTEX_POINT('',#1613);
#1613 = CARTESIAN_POINT('',(-25.345678683,-75.45,12.));
#1614 = LINE('',#1615,#1616);
#1615 = CARTESIAN_POINT('',(-25.345678683,-65.45,12.));
#1616 = VECTOR('',#1617,1.);
#1617 = DIRECTION('',(-0.,-1.,-0.));
#1618 = ORIENTED_EDGE('',*,*,#1619,.F.);
#1619 = EDGE_CURVE('',#627,#1612,#1620,.T.);
#1620 = LINE('',#1621,#1622);
#1621 = CARTESIAN_POINT('',(-25.345678683,-75.45,3.));
#1622 = VECTOR('',#1623,1.);
#1623 = DIRECTION('',(0.,0.,1.));
#1624 = ORIENTED_EDGE('',*,*,#634,.F.);
#1625 = FACE_BOUND('',#1626,.T.);
#1626 = EDGE_LOOP('',(#1627));
#1627 = ORIENTED_EDGE('',*,*,#1628,.F.);
#1628 = EDGE_CURVE('',#1629,#1629,#1631,.T.);
#1629 = VERTEX_POINT('',#1630);
#1630 = CARTESIAN_POINT('',(-25.345678683,-69.05,7.5));
#1631 = CIRCLE('',#1632,1.4);
#1632 = AXIS2_PLACEMENT_3D('',#1633,#1634,#1635);
#1633 = CARTESIAN_POINT('',(-25.345678683,-70.45,7.5));
#1634 = DIRECTION('',(1.,0.,0.));
#1635 = DIRECTION('',(0.,1.,0.));
#1636 = PLANE('',#1637);
#1637 = AXIS2_PLACEMENT_3D('',#1638,#1639,#1640);
#1638 = CARTESIAN_POINT('',(-25.345678683,-65.45,3.));
#1639 = DIRECTION('',(-1.,-0.,-0.));
#1640 = DIRECTION('',(0.,1.,0.));
#1641 = ADVANCED_FACE('',(#1642),#1653,.F.);
#1642 = FACE_BOUND('',#1643,.T.);
#1643 = EDGE_LOOP('',(#1644,#1645,#1651,#1652));
#1644 = ORIENTED_EDGE('',*,*,#1619,.T.);
#1645 = ORIENTED_EDGE('',*,*,#1646,.T.);
#1646 = EDGE_CURVE('',#1612,#939,#1647,.T.);
#1647 = LINE('',#1648,#1649);
#1648 = CARTESIAN_POINT('',(-25.345678683,-75.45,12.));
#1649 = VECTOR('',#1650,1.);
#1650 = DIRECTION('',(-1.,-0.,-0.));
#1651 = ORIENTED_EDGE('',*,*,#946,.F.);
#1652 = ORIENTED_EDGE('',*,*,#626,.F.);
#1653 = PLANE('',#1654);
#1654 = AXIS2_PLACEMENT_3D('',#1655,#1656,#1657);
#1655 = CARTESIAN_POINT('',(-25.345678683,-75.45,3.));
#1656 = DIRECTION('',(0.,1.,0.));
#1657 = DIRECTION('',(1.,0.,0.));
#1658 = ADVANCED_FACE('',(#1659),#1677,.F.);
#1659 = FACE_BOUND('',#1660,.T.);
#1660 = EDGE_LOOP('',(#1661,#1662,#1670,#1676));
#1661 = ORIENTED_EDGE('',*,*,#953,.T.);
#1662 = ORIENTED_EDGE('',*,*,#1663,.T.);
#1663 = EDGE_CURVE('',#954,#1664,#1666,.T.);
#1664 = VERTEX_POINT('',#1665);
#1665 = CARTESIAN_POINT('',(-25.345678683,-88.85,12.));
#1666 = LINE('',#1667,#1668);
#1667 = CARTESIAN_POINT('',(-28.345678683,-88.85,12.));
#1668 = VECTOR('',#1669,1.);
#1669 = DIRECTION('',(1.,0.,0.));
#1670 = ORIENTED_EDGE('',*,*,#1671,.F.);
#1671 = EDGE_CURVE('',#603,#1664,#1672,.T.);
#1672 = LINE('',#1673,#1674);
#1673 = CARTESIAN_POINT('',(-25.345678683,-88.85,3.));
#1674 = VECTOR('',#1675,1.);
#1675 = DIRECTION('',(0.,0.,1.));
#1676 = ORIENTED_EDGE('',*,*,#610,.F.);
#1677 = PLANE('',#1678);
#1678 = AXIS2_PLACEMENT_3D('',#1679,#1680,#1681);
#1679 = CARTESIAN_POINT('',(-28.345678683,-88.85,3.));
#1680 = DIRECTION('',(-0.,-1.,-0.));
#1681 = DIRECTION('',(-1.,-0.,-0.));
#1682 = ADVANCED_FACE('',(#1683,#1701),#1712,.F.);
#1683 = FACE_BOUND('',#1684,.T.);
#1684 = EDGE_LOOP('',(#1685,#1686,#1694,#1700));
#1685 = ORIENTED_EDGE('',*,*,#1671,.T.);
#1686 = ORIENTED_EDGE('',*,*,#1687,.T.);
#1687 = EDGE_CURVE('',#1664,#1688,#1690,.T.);
#1688 = VERTEX_POINT('',#1689);
#1689 = CARTESIAN_POINT('',(-25.345678683,-98.85,12.));
#1690 = LINE('',#1691,#1692);
#1691 = CARTESIAN_POINT('',(-25.345678683,-88.85,12.));
#1692 = VECTOR('',#1693,1.);
#1693 = DIRECTION('',(-0.,-1.,-0.));
#1694 = ORIENTED_EDGE('',*,*,#1695,.F.);
#1695 = EDGE_CURVE('',#595,#1688,#1696,.T.);
#1696 = LINE('',#1697,#1698);
#1697 = CARTESIAN_POINT('',(-25.345678683,-98.85,3.));
#1698 = VECTOR('',#1699,1.);
#1699 = DIRECTION('',(0.,0.,1.));
#1700 = ORIENTED_EDGE('',*,*,#602,.F.);
#1701 = FACE_BOUND('',#1702,.T.);
#1702 = EDGE_LOOP('',(#1703));
#1703 = ORIENTED_EDGE('',*,*,#1704,.F.);
#1704 = EDGE_CURVE('',#1705,#1705,#1707,.T.);
#1705 = VERTEX_POINT('',#1706);
#1706 = CARTESIAN_POINT('',(-25.345678683,-92.45,7.5));
#1707 = CIRCLE('',#1708,1.4);
#1708 = AXIS2_PLACEMENT_3D('',#1709,#1710,#1711);
#1709 = CARTESIAN_POINT('',(-25.345678683,-93.85,7.5));
#1710 = DIRECTION('',(1.,0.,0.));
#1711 = DIRECTION('',(0.,1.,0.));
#1712 = PLANE('',#1713);
#1713 = AXIS2_PLACEMENT_3D('',#1714,#1715,#1716);
#1714 = CARTESIAN_POINT('',(-25.345678683,-88.85,3.));
#1715 = DIRECTION('',(-1.,-0.,-0.));
#1716 = DIRECTION('',(0.,1.,0.));
#1717 = ADVANCED_FACE('',(#1718),#1729,.F.);
#1718 = FACE_BOUND('',#1719,.T.);
#1719 = EDGE_LOOP('',(#1720,#1721,#1727,#1728));
#1720 = ORIENTED_EDGE('',*,*,#1695,.T.);
#1721 = ORIENTED_EDGE('',*,*,#1722,.T.);
#1722 = EDGE_CURVE('',#1688,#962,#1723,.T.);
#1723 = LINE('',#1724,#1725);
#1724 = CARTESIAN_POINT('',(-25.345678683,-98.85,12.));
#1725 = VECTOR('',#1726,1.);
#1726 = DIRECTION('',(-1.,-0.,-0.));
#1727 = ORIENTED_EDGE('',*,*,#969,.F.);
#1728 = ORIENTED_EDGE('',*,*,#594,.F.);
#1729 = PLANE('',#1730);
#1730 = AXIS2_PLACEMENT_3D('',#1731,#1732,#1733);
#1731 = CARTESIAN_POINT('',(-25.345678683,-98.85,3.));
#1732 = DIRECTION('',(0.,1.,0.));
#1733 = DIRECTION('',(1.,0.,0.));
#1734 = ADVANCED_FACE('',(#1735),#1753,.F.);
#1735 = FACE_BOUND('',#1736,.T.);
#1736 = EDGE_LOOP('',(#1737,#1738,#1746,#1752));
#1737 = ORIENTED_EDGE('',*,*,#1065,.T.);
#1738 = ORIENTED_EDGE('',*,*,#1739,.T.);
#1739 = EDGE_CURVE('',#1066,#1740,#1742,.T.);
#1740 = VERTEX_POINT('',#1741);
#1741 = CARTESIAN_POINT('',(-19.26618190348,-106.1639526699,12.));
#1742 = LINE('',#1743,#1744);
#1743 = CARTESIAN_POINT('',(-16.345678683,-106.85,12.));
#1744 = VECTOR('',#1745,1.);
#1745 = DIRECTION('',(-0.973501073495,0.228682443365,0.));
#1746 = ORIENTED_EDGE('',*,*,#1747,.F.);
#1747 = EDGE_CURVE('',#563,#1740,#1748,.T.);
#1748 = LINE('',#1749,#1750);
#1749 = CARTESIAN_POINT('',(-19.26618190348,-106.1639526699,3.));
#1750 = VECTOR('',#1751,1.);
#1751 = DIRECTION('',(0.,0.,1.));
#1752 = ORIENTED_EDGE('',*,*,#570,.F.);
#1753 = PLANE('',#1754);
#1754 = AXIS2_PLACEMENT_3D('',#1755,#1756,#1757);
#1755 = CARTESIAN_POINT('',(-16.345678683,-106.85,3.));
#1756 = DIRECTION('',(0.228682443365,0.973501073495,0.));
#1757 = DIRECTION('',(0.973501073495,-0.228682443365,0.));
#1758 = ADVANCED_FACE('',(#1759,#1777),#1788,.F.);
#1759 = FACE_BOUND('',#1760,.T.);
#1760 = EDGE_LOOP('',(#1761,#1762,#1770,#1776));
#1761 = ORIENTED_EDGE('',*,*,#1747,.T.);
#1762 = ORIENTED_EDGE('',*,*,#1763,.T.);
#1763 = EDGE_CURVE('',#1740,#1764,#1766,.T.);
#1764 = VERTEX_POINT('',#1765);
#1765 = CARTESIAN_POINT('',(-16.97935746983,-96.42894193495,12.));
#1766 = LINE('',#1767,#1768);
#1767 = CARTESIAN_POINT('',(-19.26618190348,-106.1639526699,12.));
#1768 = VECTOR('',#1769,1.);
#1769 = DIRECTION('',(0.228682443365,0.973501073495,0.));
#1770 = ORIENTED_EDGE('',*,*,#1771,.F.);
#1771 = EDGE_CURVE('',#555,#1764,#1772,.T.);
#1772 = LINE('',#1773,#1774);
#1773 = CARTESIAN_POINT('',(-16.97935746983,-96.42894193495,3.));
#1774 = VECTOR('',#1775,1.);
#1775 = DIRECTION('',(0.,0.,1.));
#1776 = ORIENTED_EDGE('',*,*,#562,.F.);
#1777 = FACE_BOUND('',#1778,.T.);
#1778 = EDGE_LOOP('',(#1779));
#1779 = ORIENTED_EDGE('',*,*,#1780,.F.);
#1780 = EDGE_CURVE('',#1781,#1781,#1783,.T.);
#1781 = VERTEX_POINT('',#1782);
#1782 = CARTESIAN_POINT('',(-18.44292510737,-102.6593488053,7.5));
#1783 = CIRCLE('',#1784,1.4);
#1784 = AXIS2_PLACEMENT_3D('',#1785,#1786,#1787);
#1785 = CARTESIAN_POINT('',(-18.12276968666,-101.2964473024,7.5));
#1786 = DIRECTION('',(-0.973501073495,0.228682443365,-5.E-17));
#1787 = DIRECTION('',(-0.228682443365,-0.973501073495,0.));
#1788 = PLANE('',#1789);
#1789 = AXIS2_PLACEMENT_3D('',#1790,#1791,#1792);
#1790 = CARTESIAN_POINT('',(-19.26618190348,-106.1639526699,3.));
#1791 = DIRECTION('',(0.973501073495,-0.228682443365,0.));
#1792 = DIRECTION('',(-0.228682443365,-0.973501073495,-0.));
#1793 = ADVANCED_FACE('',(#1794),#1805,.F.);
#1794 = FACE_BOUND('',#1795,.T.);
#1795 = EDGE_LOOP('',(#1796,#1797,#1803,#1804));
#1796 = ORIENTED_EDGE('',*,*,#1771,.T.);
#1797 = ORIENTED_EDGE('',*,*,#1798,.T.);
#1798 = EDGE_CURVE('',#1764,#1074,#1799,.T.);
#1799 = LINE('',#1800,#1801);
#1800 = CARTESIAN_POINT('',(-16.97935746983,-96.42894193495,12.));
#1801 = VECTOR('',#1802,1.);
#1802 = DIRECTION('',(0.973501073495,-0.228682443365,0.));
#1803 = ORIENTED_EDGE('',*,*,#1081,.F.);
#1804 = ORIENTED_EDGE('',*,*,#554,.F.);
#1805 = PLANE('',#1806);
#1806 = AXIS2_PLACEMENT_3D('',#1807,#1808,#1809);
#1807 = CARTESIAN_POINT('',(-16.97935746983,-96.42894193495,3.));
#1808 = DIRECTION('',(-0.228682443365,-0.973501073495,-0.));
#1809 = DIRECTION('',(-0.973501073495,0.228682443365,0.));
#1810 = ADVANCED_FACE('',(#1811),#1829,.F.);
#1811 = FACE_BOUND('',#1812,.T.);
#1812 = EDGE_LOOP('',(#1813,#1814,#1822,#1828));
#1813 = ORIENTED_EDGE('',*,*,#1088,.T.);
#1814 = ORIENTED_EDGE('',*,*,#1815,.T.);
#1815 = EDGE_CURVE('',#1089,#1816,#1818,.T.);
#1816 = VERTEX_POINT('',#1817);
#1817 = CARTESIAN_POINT('',(-14.80687425786,-87.18068173674,12.));
#1818 = LINE('',#1819,#1820);
#1819 = CARTESIAN_POINT('',(-11.88637103738,-87.86672906684,12.));
#1820 = VECTOR('',#1821,1.);
#1821 = DIRECTION('',(-0.973501073495,0.228682443365,0.));
#1822 = ORIENTED_EDGE('',*,*,#1823,.F.);
#1823 = EDGE_CURVE('',#531,#1816,#1824,.T.);
#1824 = LINE('',#1825,#1826);
#1825 = CARTESIAN_POINT('',(-14.80687425786,-87.18068173674,3.));
#1826 = VECTOR('',#1827,1.);
#1827 = DIRECTION('',(0.,0.,1.));
#1828 = ORIENTED_EDGE('',*,*,#538,.F.);
#1829 = PLANE('',#1830);
#1830 = AXIS2_PLACEMENT_3D('',#1831,#1832,#1833);
#1831 = CARTESIAN_POINT('',(-11.88637103738,-87.86672906684,3.));
#1832 = DIRECTION('',(0.228682443365,0.973501073495,0.));
#1833 = DIRECTION('',(0.973501073495,-0.228682443365,0.));
#1834 = ADVANCED_FACE('',(#1835,#1853),#1864,.F.);
#1835 = FACE_BOUND('',#1836,.T.);
#1836 = EDGE_LOOP('',(#1837,#1838,#1846,#1852));
#1837 = ORIENTED_EDGE('',*,*,#1823,.T.);
#1838 = ORIENTED_EDGE('',*,*,#1839,.T.);
#1839 = EDGE_CURVE('',#1816,#1840,#1842,.T.);
#1840 = VERTEX_POINT('',#1841);
#1841 = CARTESIAN_POINT('',(-12.52004982421,-77.44567100179,12.));
#1842 = LINE('',#1843,#1844);
#1843 = CARTESIAN_POINT('',(-14.80687425786,-87.18068173674,12.));
#1844 = VECTOR('',#1845,1.);
#1845 = DIRECTION('',(0.228682443365,0.973501073495,0.));
#1846 = ORIENTED_EDGE('',*,*,#1847,.F.);
#1847 = EDGE_CURVE('',#523,#1840,#1848,.T.);
#1848 = LINE('',#1849,#1850);
#1849 = CARTESIAN_POINT('',(-12.52004982421,-77.44567100179,3.));
#1850 = VECTOR('',#1851,1.);
#1851 = DIRECTION('',(0.,0.,1.));
#1852 = ORIENTED_EDGE('',*,*,#530,.F.);
#1853 = FACE_BOUND('',#1854,.T.);
#1854 = EDGE_LOOP('',(#1855));
#1855 = ORIENTED_EDGE('',*,*,#1856,.F.);
#1856 = EDGE_CURVE('',#1857,#1857,#1859,.T.);
#1857 = VERTEX_POINT('',#1858);
#1858 = CARTESIAN_POINT('',(-13.98361746175,-83.67607787216,7.5));
#1859 = CIRCLE('',#1860,1.4);
#1860 = AXIS2_PLACEMENT_3D('',#1861,#1862,#1863);
#1861 = CARTESIAN_POINT('',(-13.66346204104,-82.31317636926,7.5));
#1862 = DIRECTION('',(-0.973501073495,0.228682443365,-5.E-17));
#1863 = DIRECTION('',(-0.228682443365,-0.973501073495,0.));
#1864 = PLANE('',#1865);
#1865 = AXIS2_PLACEMENT_3D('',#1866,#1867,#1868);
#1866 = CARTESIAN_POINT('',(-14.80687425786,-87.18068173674,3.));
#1867 = DIRECTION('',(0.973501073495,-0.228682443365,0.));
#1868 = DIRECTION('',(-0.228682443365,-0.973501073495,-0.));
#1869 = ADVANCED_FACE('',(#1870),#1881,.F.);
#1870 = FACE_BOUND('',#1871,.T.);
#1871 = EDGE_LOOP('',(#1872,#1873,#1879,#1880));
#1872 = ORIENTED_EDGE('',*,*,#1847,.T.);
#1873 = ORIENTED_EDGE('',*,*,#1874,.T.);
#1874 = EDGE_CURVE('',#1840,#1097,#1875,.T.);
#1875 = LINE('',#1876,#1877);
#1876 = CARTESIAN_POINT('',(-12.52004982421,-77.44567100179,12.));
#1877 = VECTOR('',#1878,1.);
#1878 = DIRECTION('',(0.973501073495,-0.228682443365,0.));
#1879 = ORIENTED_EDGE('',*,*,#1104,.F.);
#1880 = ORIENTED_EDGE('',*,*,#522,.F.);
#1881 = PLANE('',#1882);
#1882 = AXIS2_PLACEMENT_3D('',#1883,#1884,#1885);
#1883 = CARTESIAN_POINT('',(-12.52004982421,-77.44567100179,3.));
#1884 = DIRECTION('',(-0.228682443365,-0.973501073495,-0.));
#1885 = DIRECTION('',(-0.973501073495,0.228682443365,0.));
#1886 = ADVANCED_FACE('',(#1887),#1905,.F.);
#1887 = FACE_BOUND('',#1888,.T.);
#1888 = EDGE_LOOP('',(#1889,#1890,#1898,#1904));
#1889 = ORIENTED_EDGE('',*,*,#1194,.T.);
#1890 = ORIENTED_EDGE('',*,*,#1891,.T.);
#1891 = EDGE_CURVE('',#1195,#1892,#1894,.T.);
#1892 = VERTEX_POINT('',#1893);
#1893 = CARTESIAN_POINT('',(0.335091415179,-72.05536958684,12.));
#1894 = LINE('',#1895,#1896);
#1895 = CARTESIAN_POINT('',(0.73136679988,-75.02908205099,12.));
#1896 = VECTOR('',#1897,1.);
#1897 = DIRECTION('',(-0.1320917949,0.991237488052,0.));
#1898 = ORIENTED_EDGE('',*,*,#1899,.F.);
#1899 = EDGE_CURVE('',#491,#1892,#1900,.T.);
#1900 = LINE('',#1901,#1902);
#1901 = CARTESIAN_POINT('',(0.335091415179,-72.05536958684,3.));
#1902 = VECTOR('',#1903,1.);
#1903 = DIRECTION('',(0.,0.,1.));
#1904 = ORIENTED_EDGE('',*,*,#498,.F.);
#1905 = PLANE('',#1906);
#1906 = AXIS2_PLACEMENT_3D('',#1907,#1908,#1909);
#1907 = CARTESIAN_POINT('',(0.73136679988,-75.02908205099,3.));
#1908 = DIRECTION('',(0.991237488052,0.1320917949,0.));
#1909 = DIRECTION('',(0.1320917949,-0.991237488052,0.));
#1910 = ADVANCED_FACE('',(#1911,#1929),#1940,.F.);
#1911 = FACE_BOUND('',#1912,.T.);
#1912 = EDGE_LOOP('',(#1913,#1914,#1922,#1928));
#1913 = ORIENTED_EDGE('',*,*,#1899,.T.);
#1914 = ORIENTED_EDGE('',*,*,#1915,.T.);
#1915 = EDGE_CURVE('',#1892,#1916,#1918,.T.);
#1916 = VERTEX_POINT('',#1917);
#1917 = CARTESIAN_POINT('',(10.247466295701,-70.73445163783,12.));
#1918 = LINE('',#1919,#1920);
#1919 = CARTESIAN_POINT('',(0.335091415179,-72.05536958684,12.));
#1920 = VECTOR('',#1921,1.);
#1921 = DIRECTION('',(0.991237488052,0.1320917949,0.));
#1922 = ORIENTED_EDGE('',*,*,#1923,.F.);
#1923 = EDGE_CURVE('',#483,#1916,#1924,.T.);
#1924 = LINE('',#1925,#1926);
#1925 = CARTESIAN_POINT('',(10.247466295701,-70.73445163783,3.));
#1926 = VECTOR('',#1927,1.);
#1927 = DIRECTION('',(0.,0.,1.));
#1928 = ORIENTED_EDGE('',*,*,#490,.F.);
#1929 = FACE_BOUND('',#1930,.T.);
#1930 = EDGE_LOOP('',(#1931));
#1931 = ORIENTED_EDGE('',*,*,#1932,.F.);
#1932 = EDGE_CURVE('',#1933,#1933,#1935,.T.);
#1933 = VERTEX_POINT('',#1934);
#1934 = CARTESIAN_POINT('',(3.903546372167,-71.57983912519,7.5));
#1935 = CIRCLE('',#1936,1.4);
#1936 = AXIS2_PLACEMENT_3D('',#1937,#1938,#1939);
#1937 = CARTESIAN_POINT('',(5.29127885544,-71.39491061233,7.5));
#1938 = DIRECTION('',(-0.1320917949,0.991237488052,0.));
#1939 = DIRECTION('',(-0.991237488052,-0.1320917949,-0.));
#1940 = PLANE('',#1941);
#1941 = AXIS2_PLACEMENT_3D('',#1942,#1943,#1944);
#1942 = CARTESIAN_POINT('',(0.335091415179,-72.05536958684,3.));
#1943 = DIRECTION('',(0.1320917949,-0.991237488052,0.));
#1944 = DIRECTION('',(-0.991237488052,-0.1320917949,-0.));
#1945 = ADVANCED_FACE('',(#1946),#1957,.F.);
#1946 = FACE_BOUND('',#1947,.T.);
#1947 = EDGE_LOOP('',(#1948,#1949,#1955,#1956));
#1948 = ORIENTED_EDGE('',*,*,#1923,.T.);
#1949 = ORIENTED_EDGE('',*,*,#1950,.T.);
#1950 = EDGE_CURVE('',#1916,#1203,#1951,.T.);
#1951 = LINE('',#1952,#1953);
#1952 = CARTESIAN_POINT('',(10.247466295701,-70.73445163783,12.));
#1953 = VECTOR('',#1954,1.);
#1954 = DIRECTION('',(0.1320917949,-0.991237488052,0.));
#1955 = ORIENTED_EDGE('',*,*,#1210,.F.);
#1956 = ORIENTED_EDGE('',*,*,#482,.F.);
#1957 = PLANE('',#1958);
#1958 = AXIS2_PLACEMENT_3D('',#1959,#1960,#1961);
#1959 = CARTESIAN_POINT('',(10.247466295701,-70.73445163783,3.));
#1960 = DIRECTION('',(-0.991237488052,-0.1320917949,-0.));
#1961 = DIRECTION('',(-0.1320917949,0.991237488052,0.));
#1962 = ADVANCED_FACE('',(#1963),#1981,.F.);
#1963 = FACE_BOUND('',#1964,.T.);
#1964 = EDGE_LOOP('',(#1965,#1966,#1974,#1980));
#1965 = ORIENTED_EDGE('',*,*,#1217,.T.);
#1966 = ORIENTED_EDGE('',*,*,#1967,.T.);
#1967 = EDGE_CURVE('',#1218,#1968,#1970,.T.);
#1968 = VERTEX_POINT('',#1969);
#1969 = CARTESIAN_POINT('',(44.295671051775,-66.19720548484,12.));
#1970 = LINE('',#1971,#1972);
#1971 = CARTESIAN_POINT('',(44.691946436476,-69.170917949,12.));
#1972 = VECTOR('',#1973,1.);
#1973 = DIRECTION('',(-0.1320917949,0.991237488052,0.));
#1974 = ORIENTED_EDGE('',*,*,#1975,.F.);
#1975 = EDGE_CURVE('',#459,#1968,#1976,.T.);
#1976 = LINE('',#1977,#1978);
#1977 = CARTESIAN_POINT('',(44.295671051775,-66.19720548484,3.));
#1978 = VECTOR('',#1979,1.);
#1979 = DIRECTION('',(0.,0.,1.));
#1980 = ORIENTED_EDGE('',*,*,#466,.F.);
#1981 = PLANE('',#1982);
#1982 = AXIS2_PLACEMENT_3D('',#1983,#1984,#1985);
#1983 = CARTESIAN_POINT('',(44.691946436476,-69.170917949,3.));
#1984 = DIRECTION('',(0.991237488052,0.1320917949,0.));
#1985 = DIRECTION('',(0.1320917949,-0.991237488052,0.));
#1986 = ADVANCED_FACE('',(#1987,#2005),#2016,.F.);
#1987 = FACE_BOUND('',#1988,.T.);
#1988 = EDGE_LOOP('',(#1989,#1990,#1998,#2004));
#1989 = ORIENTED_EDGE('',*,*,#1975,.T.);
#1990 = ORIENTED_EDGE('',*,*,#1991,.T.);
#1991 = EDGE_CURVE('',#1968,#1992,#1994,.T.);
#1992 = VERTEX_POINT('',#1993);
#1993 = CARTESIAN_POINT('',(51.604321316998,-65.22325853119,12.));
#1994 = LINE('',#1995,#1996);
#1995 = CARTESIAN_POINT('',(44.295671051775,-66.19720548484,12.));
#1996 = VECTOR('',#1997,1.);
#1997 = DIRECTION('',(0.991237488052,0.1320917949,0.));
#1998 = ORIENTED_EDGE('',*,*,#1999,.F.);
#1999 = EDGE_CURVE('',#451,#1992,#2000,.T.);
#2000 = LINE('',#2001,#2002);
#2001 = CARTESIAN_POINT('',(51.604321316998,-65.22325853119,3.));
#2002 = VECTOR('',#2003,1.);
#2003 = DIRECTION('',(0.,0.,1.));
#2004 = ORIENTED_EDGE('',*,*,#458,.F.);
#2005 = FACE_BOUND('',#2006,.T.);
#2006 = EDGE_LOOP('',(#2007));
#2007 = ORIENTED_EDGE('',*,*,#2008,.F.);
#2008 = EDGE_CURVE('',#2009,#2009,#2011,.T.);
#2009 = VERTEX_POINT('',#2010);
#2010 = CARTESIAN_POINT('',(47.864126008763,-65.7216750232,7.5));
#2011 = CIRCLE('',#2012,1.4);
#2012 = AXIS2_PLACEMENT_3D('',#2013,#2014,#2015);
#2013 = CARTESIAN_POINT('',(49.251858492036,-65.53674651034,7.5));
#2014 = DIRECTION('',(-0.1320917949,0.991237488052,0.));
#2015 = DIRECTION('',(-0.991237488052,-0.1320917949,-0.));
#2016 = PLANE('',#2017);
#2017 = AXIS2_PLACEMENT_3D('',#2018,#2019,#2020);
#2018 = CARTESIAN_POINT('',(44.295671051775,-66.19720548484,3.));
#2019 = DIRECTION('',(0.1320917949,-0.991237488052,0.));
#2020 = DIRECTION('',(-0.991237488052,-0.1320917949,-0.));
#2021 = ADVANCED_FACE('',(#2022,#2040),#2051,.F.);
#2022 = FACE_BOUND('',#2023,.T.);
#2023 = EDGE_LOOP('',(#2024,#2025,#2033,#2039));
#2024 = ORIENTED_EDGE('',*,*,#1999,.T.);
#2025 = ORIENTED_EDGE('',*,*,#2026,.T.);
#2026 = EDGE_CURVE('',#1992,#2027,#2029,.T.);
#2027 = VERTEX_POINT('',#2028);
#2028 = CARTESIAN_POINT('',(51.604321316998,-57.85,12.));
#2029 = LINE('',#2030,#2031);
#2030 = CARTESIAN_POINT('',(51.604321316998,-65.22325853119,12.));
#2031 = VECTOR('',#2032,1.);
#2032 = DIRECTION('',(0.,1.,0.));
#2033 = ORIENTED_EDGE('',*,*,#2034,.F.);
#2034 = EDGE_CURVE('',#443,#2027,#2035,.T.);
#2035 = LINE('',#2036,#2037);
#2036 = CARTESIAN_POINT('',(51.604321316998,-57.85,3.));
#2037 = VECTOR('',#2038,1.);
#2038 = DIRECTION('',(0.,0.,1.));
#2039 = ORIENTED_EDGE('',*,*,#450,.F.);
#2040 = FACE_BOUND('',#2041,.T.);
#2041 = EDGE_LOOP('',(#2042));
#2042 = ORIENTED_EDGE('',*,*,#2043,.F.);
#2043 = EDGE_CURVE('',#2044,#2044,#2046,.T.);
#2044 = VERTEX_POINT('',#2045);
#2045 = CARTESIAN_POINT('',(51.604321316998,-64.25,7.5));
#2046 = CIRCLE('',#2047,1.4);
#2047 = AXIS2_PLACEMENT_3D('',#2048,#2049,#2050);
#2048 = CARTESIAN_POINT('',(51.604321316998,-62.85,7.5));
#2049 = DIRECTION('',(-1.,0.,0.));
#2050 = DIRECTION('',(-0.,-1.,-0.));
#2051 = PLANE('',#2052);
#2052 = AXIS2_PLACEMENT_3D('',#2053,#2054,#2055);
#2053 = CARTESIAN_POINT('',(51.604321316998,-65.22325853119,3.));
#2054 = DIRECTION('',(1.,0.,0.));
#2055 = DIRECTION('',(-0.,-1.,-0.));
#2056 = ADVANCED_FACE('',(#2057),#2068,.F.);
#2057 = FACE_BOUND('',#2058,.T.);
#2058 = EDGE_LOOP('',(#2059,#2060,#2066,#2067));
#2059 = ORIENTED_EDGE('',*,*,#2034,.T.);
#2060 = ORIENTED_EDGE('',*,*,#2061,.T.);
#2061 = EDGE_CURVE('',#2027,#1157,#2062,.T.);
#2062 = LINE('',#2063,#2064);
#2063 = CARTESIAN_POINT('',(51.604321316998,-57.85,12.));
#2064 = VECTOR('',#2065,1.);
#2065 = DIRECTION('',(1.,0.,0.));
#2066 = ORIENTED_EDGE('',*,*,#1164,.F.);
#2067 = ORIENTED_EDGE('',*,*,#442,.F.);
#2068 = PLANE('',#2069);
#2069 = AXIS2_PLACEMENT_3D('',#2070,#2071,#2072);
#2070 = CARTESIAN_POINT('',(51.604321316998,-57.85,3.));
#2071 = DIRECTION('',(-0.,-1.,-0.));
#2072 = DIRECTION('',(-1.,-0.,-0.));
#2073 = ADVANCED_FACE('',(#2074),#2080,.T.);
#2074 = FACE_BOUND('',#2075,.F.);
#2075 = EDGE_LOOP('',(#2076,#2077,#2078,#2079));
#2076 = ORIENTED_EDGE('',*,*,#938,.T.);
#2077 = ORIENTED_EDGE('',*,*,#1587,.T.);
#2078 = ORIENTED_EDGE('',*,*,#1611,.T.);
#2079 = ORIENTED_EDGE('',*,*,#1646,.T.);
#2080 = PLANE('',#2081);
#2081 = AXIS2_PLACEMENT_3D('',#2082,#2083,#2084);
#2082 = CARTESIAN_POINT('',(-20.6392714683,-87.14891775044,12.));
#2083 = DIRECTION('',(0.,0.,1.));
#2084 = DIRECTION('',(-1.,-0.,-0.));
#2085 = ADVANCED_FACE('',(#2086),#2092,.T.);
#2086 = FACE_BOUND('',#2087,.F.);
#2087 = EDGE_LOOP('',(#2088,#2089,#2090,#2091));
#2088 = ORIENTED_EDGE('',*,*,#961,.T.);
#2089 = ORIENTED_EDGE('',*,*,#1663,.T.);
#2090 = ORIENTED_EDGE('',*,*,#1687,.T.);
#2091 = ORIENTED_EDGE('',*,*,#1722,.T.);
#2092 = PLANE('',#2093);
#2093 = AXIS2_PLACEMENT_3D('',#2094,#2095,#2096);
#2094 = CARTESIAN_POINT('',(-20.6392714683,-87.14891775044,12.));
#2095 = DIRECTION('',(0.,0.,1.));
#2096 = DIRECTION('',(-1.,-0.,-0.));
#2097 = ADVANCED_FACE('',(#2098),#2109,.F.);
#2098 = FACE_BOUND('',#2099,.T.);
#2099 = EDGE_LOOP('',(#2100,#2101,#2107,#2108));
#2100 = ORIENTED_EDGE('',*,*,#985,.F.);
#2101 = ORIENTED_EDGE('',*,*,#2102,.T.);
#2102 = EDGE_CURVE('',#986,#1705,#2103,.T.);
#2103 = LINE('',#2104,#2105);
#2104 = CARTESIAN_POINT('',(-28.345678683,-92.45,7.5));
#2105 = VECTOR('',#2106,1.);
#2106 = DIRECTION('',(1.,0.,0.));
#2107 = ORIENTED_EDGE('',*,*,#1704,.T.);
#2108 = ORIENTED_EDGE('',*,*,#2102,.F.);
#2109 = CYLINDRICAL_SURFACE('',#2110,1.4);
#2110 = AXIS2_PLACEMENT_3D('',#2111,#2112,#2113);
#2111 = CARTESIAN_POINT('',(-28.345678683,-93.85,7.5));
#2112 = DIRECTION('',(-1.,-0.,-0.));
#2113 = DIRECTION('',(0.,1.,0.));
#2114 = ADVANCED_FACE('',(#2115),#2126,.F.);
#2115 = FACE_BOUND('',#2116,.T.);
#2116 = EDGE_LOOP('',(#2117,#2118,#2124,#2125));
#2117 = ORIENTED_EDGE('',*,*,#996,.F.);
#2118 = ORIENTED_EDGE('',*,*,#2119,.T.);
#2119 = EDGE_CURVE('',#997,#1629,#2120,.T.);
#2120 = LINE('',#2121,#2122);
#2121 = CARTESIAN_POINT('',(-28.345678683,-69.05,7.5));
#2122 = VECTOR('',#2123,1.);
#2123 = DIRECTION('',(1.,0.,0.));
#2124 = ORIENTED_EDGE('',*,*,#1628,.T.);
#2125 = ORIENTED_EDGE('',*,*,#2119,.F.);
#2126 = CYLINDRICAL_SURFACE('',#2127,1.4);
#2127 = AXIS2_PLACEMENT_3D('',#2128,#2129,#2130);
#2128 = CARTESIAN_POINT('',(-28.345678683,-70.45,7.5));
#2129 = DIRECTION('',(-1.,-0.,-0.));
#2130 = DIRECTION('',(0.,1.,0.));
#2131 = ADVANCED_FACE('',(#2132),#2138,.T.);
#2132 = FACE_BOUND('',#2133,.F.);
#2133 = EDGE_LOOP('',(#2134,#2135,#2136,#2137));
#2134 = ORIENTED_EDGE('',*,*,#1739,.T.);
#2135 = ORIENTED_EDGE('',*,*,#1763,.T.);
#2136 = ORIENTED_EDGE('',*,*,#1798,.T.);
#2137 = ORIENTED_EDGE('',*,*,#1073,.T.);
#2138 = PLANE('',#2139);
#2139 = AXIS2_PLACEMENT_3D('',#2140,#2141,#2142);
#2140 = CARTESIAN_POINT('',(-20.6392714683,-87.14891775044,12.));
#2141 = DIRECTION('',(0.,0.,1.));
#2142 = DIRECTION('',(-1.,-0.,-0.));
#2143 = ADVANCED_FACE('',(#2144),#2150,.T.);
#2144 = FACE_BOUND('',#2145,.F.);
#2145 = EDGE_LOOP('',(#2146,#2147,#2148,#2149));
#2146 = ORIENTED_EDGE('',*,*,#1815,.T.);
#2147 = ORIENTED_EDGE('',*,*,#1839,.T.);
#2148 = ORIENTED_EDGE('',*,*,#1874,.T.);
#2149 = ORIENTED_EDGE('',*,*,#1096,.T.);
#2150 = PLANE('',#2151);
#2151 = AXIS2_PLACEMENT_3D('',#2152,#2153,#2154);
#2152 = CARTESIAN_POINT('',(-20.6392714683,-87.14891775044,12.));
#2153 = DIRECTION('',(0.,0.,1.));
#2154 = DIRECTION('',(-1.,-0.,-0.));
#2155 = ADVANCED_FACE('',(#2156),#2167,.F.);
#2156 = FACE_BOUND('',#2157,.T.);
#2157 = EDGE_LOOP('',(#2158,#2159,#2165,#2166));
#2158 = ORIENTED_EDGE('',*,*,#1120,.F.);
#2159 = ORIENTED_EDGE('',*,*,#2160,.T.);
#2160 = EDGE_CURVE('',#1121,#1781,#2161,.T.);
#2161 = LINE('',#2162,#2163);
#2162 = CARTESIAN_POINT('',(-15.52242188688,-103.3453961354,7.5));
#2163 = VECTOR('',#2164,1.);
#2164 = DIRECTION('',(-0.973501073495,0.228682443365,0.));
#2165 = ORIENTED_EDGE('',*,*,#1780,.T.);
#2166 = ORIENTED_EDGE('',*,*,#2160,.F.);
#2167 = CYLINDRICAL_SURFACE('',#2168,1.4);
#2168 = AXIS2_PLACEMENT_3D('',#2169,#2170,#2171);
#2169 = CARTESIAN_POINT('',(-15.20226646617,-101.9824946325,7.5));
#2170 = DIRECTION('',(0.973501073495,-0.228682443365,5.E-17));
#2171 = DIRECTION('',(-0.228682443365,-0.973501073495,0.));
#2172 = ADVANCED_FACE('',(#2173),#2184,.F.);
#2173 = FACE_BOUND('',#2174,.T.);
#2174 = EDGE_LOOP('',(#2175,#2176,#2182,#2183));
#2175 = ORIENTED_EDGE('',*,*,#1131,.F.);
#2176 = ORIENTED_EDGE('',*,*,#2177,.T.);
#2177 = EDGE_CURVE('',#1132,#1857,#2178,.T.);
#2178 = LINE('',#2179,#2180);
#2179 = CARTESIAN_POINT('',(-11.06311424126,-84.36212520225,7.5));
#2180 = VECTOR('',#2181,1.);
#2181 = DIRECTION('',(-0.973501073495,0.228682443365,0.));
#2182 = ORIENTED_EDGE('',*,*,#1856,.T.);
#2183 = ORIENTED_EDGE('',*,*,#2177,.F.);
#2184 = CYLINDRICAL_SURFACE('',#2185,1.4);
#2185 = AXIS2_PLACEMENT_3D('',#2186,#2187,#2188);
#2186 = CARTESIAN_POINT('',(-10.74295882055,-82.99922369936,7.5));
#2187 = DIRECTION('',(0.973501073495,-0.228682443365,5.E-17));
#2188 = DIRECTION('',(-0.228682443365,-0.973501073495,0.));
#2189 = ADVANCED_FACE('',(#2190),#2198,.T.);
#2190 = FACE_BOUND('',#2191,.F.);
#2191 = EDGE_LOOP('',(#2192,#2193,#2194,#2195,#2196,#2197));
#2192 = ORIENTED_EDGE('',*,*,#1967,.T.);
#2193 = ORIENTED_EDGE('',*,*,#1991,.T.);
#2194 = ORIENTED_EDGE('',*,*,#2026,.T.);
#2195 = ORIENTED_EDGE('',*,*,#2061,.T.);
#2196 = ORIENTED_EDGE('',*,*,#1156,.T.);
#2197 = ORIENTED_EDGE('',*,*,#1225,.T.);
#2198 = PLANE('',#2199);
#2199 = AXIS2_PLACEMENT_3D('',#2200,#2201,#2202);
#2200 = CARTESIAN_POINT('',(33.141556901464,-67.76917983714,12.));
#2201 = DIRECTION('',(0.,0.,1.));
#2202 = DIRECTION('',(-1.,-0.,-0.));
#2203 = ADVANCED_FACE('',(#2204),#2215,.F.);
#2204 = FACE_BOUND('',#2205,.T.);
#2205 = EDGE_LOOP('',(#2206,#2207,#2213,#2214));
#2206 = ORIENTED_EDGE('',*,*,#1175,.F.);
#2207 = ORIENTED_EDGE('',*,*,#2208,.T.);
#2208 = EDGE_CURVE('',#1176,#2044,#2209,.T.);
#2209 = LINE('',#2210,#2211);
#2210 = CARTESIAN_POINT('',(54.604321316998,-64.25,7.5));
#2211 = VECTOR('',#2212,1.);
#2212 = DIRECTION('',(-1.,0.,0.));
#2213 = ORIENTED_EDGE('',*,*,#2043,.T.);
#2214 = ORIENTED_EDGE('',*,*,#2208,.F.);
#2215 = CYLINDRICAL_SURFACE('',#2216,1.4);
#2216 = AXIS2_PLACEMENT_3D('',#2217,#2218,#2219);
#2217 = CARTESIAN_POINT('',(54.604321316998,-62.85,7.5));
#2218 = DIRECTION('',(1.,0.,0.));
#2219 = DIRECTION('',(0.,-1.,0.));
#2220 = ADVANCED_FACE('',(#2221),#2227,.T.);
#2221 = FACE_BOUND('',#2222,.F.);
#2222 = EDGE_LOOP('',(#2223,#2224,#2225,#2226));
#2223 = ORIENTED_EDGE('',*,*,#1891,.T.);
#2224 = ORIENTED_EDGE('',*,*,#1915,.T.);
#2225 = ORIENTED_EDGE('',*,*,#1950,.T.);
#2226 = ORIENTED_EDGE('',*,*,#1202,.T.);
#2227 = PLANE('',#2228);
#2228 = AXIS2_PLACEMENT_3D('',#2229,#2230,#2231);
#2229 = CARTESIAN_POINT('',(33.141556901464,-67.76917983714,12.));
#2230 = DIRECTION('',(0.,0.,1.));
#2231 = DIRECTION('',(-1.,-0.,-0.));
#2232 = ADVANCED_FACE('',(#2233),#2244,.F.);
#2233 = FACE_BOUND('',#2234,.T.);
#2234 = EDGE_LOOP('',(#2235,#2236,#2242,#2243));
#2235 = ORIENTED_EDGE('',*,*,#1235,.F.);
#2236 = ORIENTED_EDGE('',*,*,#2237,.T.);
#2237 = EDGE_CURVE('',#1236,#1933,#2238,.T.);
#2238 = LINE('',#2239,#2240);
#2239 = CARTESIAN_POINT('',(4.299821756868,-74.55355158935,7.5));
#2240 = VECTOR('',#2241,1.);
#2241 = DIRECTION('',(-0.1320917949,0.991237488052,0.));
#2242 = ORIENTED_EDGE('',*,*,#1932,.T.);
#2243 = ORIENTED_EDGE('',*,*,#2237,.F.);
#2244 = CYLINDRICAL_SURFACE('',#2245,1.4);
#2245 = AXIS2_PLACEMENT_3D('',#2246,#2247,#2248);
#2246 = CARTESIAN_POINT('',(5.687554240141,-74.36862307649,7.5));
#2247 = DIRECTION('',(0.1320917949,-0.991237488052,0.));
#2248 = DIRECTION('',(-0.991237488052,-0.1320917949,0.));
#2249 = ADVANCED_FACE('',(#2250),#2261,.F.);
#2250 = FACE_BOUND('',#2251,.T.);
#2251 = EDGE_LOOP('',(#2252,#2253,#2259,#2260));
#2252 = ORIENTED_EDGE('',*,*,#1246,.F.);
#2253 = ORIENTED_EDGE('',*,*,#2254,.T.);
#2254 = EDGE_CURVE('',#1247,#2009,#2255,.T.);
#2255 = LINE('',#2256,#2257);
#2256 = CARTESIAN_POINT('',(48.260401393464,-68.69538748736,7.5));
#2257 = VECTOR('',#2258,1.);
#2258 = DIRECTION('',(-0.1320917949,0.991237488052,0.));
#2259 = ORIENTED_EDGE('',*,*,#2008,.T.);
#2260 = ORIENTED_EDGE('',*,*,#2254,.F.);
#2261 = CYLINDRICAL_SURFACE('',#2262,1.4);
#2262 = AXIS2_PLACEMENT_3D('',#2263,#2264,#2265);
#2263 = CARTESIAN_POINT('',(49.648133876737,-68.5104589745,7.5));
#2264 = DIRECTION('',(0.1320917949,-0.991237488052,0.));
#2265 = DIRECTION('',(-0.991237488052,-0.1320917949,0.));
#2266 = ( GEOMETRIC_REPRESENTATION_CONTEXT(3) 
GLOBAL_UNCERTAINTY_ASSIGNED_CONTEXT((#2270)) 
GLOBAL_UNIT_ASSIGNED_CONTEXT((#2267,#2268,#2269)) REPRESENTATION_CONTEXT
('Context #1','3D Context with UNIT and UNCERTAINTY') );
#2267 = ( LENGTH_UNIT() NAMED_UNIT(*) SI_UNIT(.MILLI.,.METRE.) );
#2268 = ( NAMED_UNIT(*) PLANE_ANGLE_UNIT() SI_UNIT($,.RADIAN.) );
#2269 = ( NAMED_UNIT(*) SI_UNIT($,.STERADIAN.) SOLID_ANGLE_UNIT() );
#2270 = UNCERTAINTY_MEASURE_WITH_UNIT(LENGTH_MEASURE(1.E-05),#2267,
  'distance_accuracy_value','confusion accuracy');
#2271 = PRODUCT_RELATED_PRODUCT_CATEGORY('part',$,(#7));
#2272 = MECHANICAL_DESIGN_GEOMETRIC_PRESENTATION_REPRESENTATION('',(
    #2273),#2266);
#2273 = STYLED_ITEM('color',(#2274),#15);
#2274 = PRESENTATION_STYLE_ASSIGNMENT((#2275,#2281));
#2275 = SURFACE_STYLE_USAGE(.BOTH.,#2276);
#2276 = SURFACE_SIDE_STYLE('',(#2277));
#2277 = SURFACE_STYLE_FILL_AREA(#2278);
#2278 = FILL_AREA_STYLE('',(#2279));
#2279 = FILL_AREA_STYLE_COLOUR('',#2280);
#2280 = COLOUR_RGB('',0.447058818107,0.474509808674,0.501960817233);
#2281 = CURVE_STYLE('',#2282,POSITIVE_LENGTH_MEASURE(0.1),#2283);
#2282 = DRAUGHTING_PRE_DEFINED_CURVE_FONT('continuous');
#2283 = COLOUR_RGB('',9.803921802644E-02,9.803921802644E-02,
  9.803921802644E-02);
ENDSEC;
END-ISO-10303-21;
