ISO-10303-21;
HEADER;
FILE_DESCRIPTION(('FreeCAD Model'),'2;1');
FILE_NAME('Open CASCADE Shape Model','2026-02-22T22:50:25',(''),(''),
  'Open CASCADE STEP processor 7.8','FreeCAD','Unknown');
FILE_SCHEMA(('AUTOMOTIVE_DESIGN { 1 0 10303 214 1 1 1 1 }'));
ENDSEC;
DATA;
#1 = APPLICATION_PROTOCOL_DEFINITION('international standard',
  'automotive_design',2000,#2);
#2 = APPLICATION_CONTEXT(
  'core data for automotive mechanical design processes');
#3 = SHAPE_DEFINITION_REPRESENTATION(#4,#10);
#4 = PRODUCT_DEFINITION_SHAPE('','',#5);
#5 = PRODUCT_DEFINITION('design','',#6,#9);
#6 = PRODUCT_DEFINITION_FORMATION('','',#7);
#7 = PRODUCT('Right','Right','',(#8));
#8 = PRODUCT_CONTEXT('',#2,'mechanical');
#9 = PRODUCT_DEFINITION_CONTEXT('part definition',#2,'design');
#10 = ADVANCED_BREP_SHAPE_REPRESENTATION('',(#11,#15),#1292);
#11 = AXIS2_PLACEMENT_3D('',#12,#13,#14);
#12 = CARTESIAN_POINT('',(0.,0.,0.));
#13 = DIRECTION('',(0.,0.,1.));
#14 = DIRECTION('',(1.,0.,-0.));
#15 = MANIFOLD_SOLID_BREP('',#16);
#16 = CLOSED_SHELL('',(#17,#57,#174,#205,#333,#571,#583,#607,#631,#655,
    #672,#696,#713,#738,#763,#780,#836,#853,#870,#887,#904,#916,#938,
    #955,#972,#989,#1006,#1052,#1067,#1082,#1106,#1141,#1158,#1182,#1206
    ,#1234,#1246,#1263,#1275));
#17 = ADVANCED_FACE('',(#18),#52,.F.);
#18 = FACE_BOUND('',#19,.T.);
#19 = EDGE_LOOP('',(#20,#30,#38,#46));
#20 = ORIENTED_EDGE('',*,*,#21,.T.);
#21 = EDGE_CURVE('',#22,#24,#26,.T.);
#22 = VERTEX_POINT('',#23);
#23 = CARTESIAN_POINT('',(-32.,-44.7,0.));
#24 = VERTEX_POINT('',#25);
#25 = CARTESIAN_POINT('',(-32.,-44.7,3.));
#26 = LINE('',#27,#28);
#27 = CARTESIAN_POINT('',(-32.,-44.7,0.));
#28 = VECTOR('',#29,1.);
#29 = DIRECTION('',(0.,0.,1.));
#30 = ORIENTED_EDGE('',*,*,#31,.T.);
#31 = EDGE_CURVE('',#24,#32,#34,.T.);
#32 = VERTEX_POINT('',#33);
#33 = CARTESIAN_POINT('',(-32.,-3.3,3.));
#34 = LINE('',#35,#36);
#35 = CARTESIAN_POINT('',(-32.,-44.7,3.));
#36 = VECTOR('',#37,1.);
#37 = DIRECTION('',(0.,1.,0.));
#38 = ORIENTED_EDGE('',*,*,#39,.F.);
#39 = EDGE_CURVE('',#40,#32,#42,.T.);
#40 = VERTEX_POINT('',#41);
#41 = CARTESIAN_POINT('',(-32.,-3.3,0.));
#42 = LINE('',#43,#44);
#43 = CARTESIAN_POINT('',(-32.,-3.3,0.));
#44 = VECTOR('',#45,1.);
#45 = DIRECTION('',(0.,0.,1.));
#46 = ORIENTED_EDGE('',*,*,#47,.F.);
#47 = EDGE_CURVE('',#22,#40,#48,.T.);
#48 = LINE('',#49,#50);
#49 = CARTESIAN_POINT('',(-32.,-44.7,0.));
#50 = VECTOR('',#51,1.);
#51 = DIRECTION('',(0.,1.,0.));
#52 = PLANE('',#53);
#53 = AXIS2_PLACEMENT_3D('',#54,#55,#56);
#54 = CARTESIAN_POINT('',(-32.,-44.7,0.));
#55 = DIRECTION('',(1.,0.,0.));
#56 = DIRECTION('',(-0.,-1.,-0.));
#57 = ADVANCED_FACE('',(#58,#147,#158),#169,.T.);
#58 = FACE_BOUND('',#59,.F.);
#59 = EDGE_LOOP('',(#60,#70,#76,#77,#85,#93,#101,#109,#117,#125,#133,
    #141));
#60 = ORIENTED_EDGE('',*,*,#61,.F.);
#61 = EDGE_CURVE('',#62,#64,#66,.T.);
#62 = VERTEX_POINT('',#63);
#63 = CARTESIAN_POINT('',(32.,-44.7,0.));
#64 = VERTEX_POINT('',#65);
#65 = CARTESIAN_POINT('',(32.,-44.7,3.));
#66 = LINE('',#67,#68);
#67 = CARTESIAN_POINT('',(32.,-44.7,0.));
#68 = VECTOR('',#69,1.);
#69 = DIRECTION('',(0.,0.,1.));
#70 = ORIENTED_EDGE('',*,*,#71,.T.);
#71 = EDGE_CURVE('',#62,#22,#72,.T.);
#72 = LINE('',#73,#74);
#73 = CARTESIAN_POINT('',(32.,-44.7,0.));
#74 = VECTOR('',#75,1.);
#75 = DIRECTION('',(-1.,-0.,-0.));
#76 = ORIENTED_EDGE('',*,*,#21,.T.);
#77 = ORIENTED_EDGE('',*,*,#78,.F.);
#78 = EDGE_CURVE('',#79,#24,#81,.T.);
#79 = VERTEX_POINT('',#80);
#80 = CARTESIAN_POINT('',(-23.,-44.7,3.));
#81 = LINE('',#82,#83);
#82 = CARTESIAN_POINT('',(32.,-44.7,3.));
#83 = VECTOR('',#84,1.);
#84 = DIRECTION('',(-1.,-0.,-0.));
#85 = ORIENTED_EDGE('',*,*,#86,.T.);
#86 = EDGE_CURVE('',#79,#87,#89,.T.);
#87 = VERTEX_POINT('',#88);
#88 = CARTESIAN_POINT('',(-23.,-44.7,12.));
#89 = LINE('',#90,#91);
#90 = CARTESIAN_POINT('',(-23.,-44.7,3.));
#91 = VECTOR('',#92,1.);
#92 = DIRECTION('',(0.,0.,1.));
#93 = ORIENTED_EDGE('',*,*,#94,.F.);
#94 = EDGE_CURVE('',#95,#87,#97,.T.);
#95 = VERTEX_POINT('',#96);
#96 = CARTESIAN_POINT('',(-15.,-44.7,12.));
#97 = LINE('',#98,#99);
#98 = CARTESIAN_POINT('',(-15.,-44.7,12.));
#99 = VECTOR('',#100,1.);
#100 = DIRECTION('',(-1.,-0.,-0.));
#101 = ORIENTED_EDGE('',*,*,#102,.F.);
#102 = EDGE_CURVE('',#103,#95,#105,.T.);
#103 = VERTEX_POINT('',#104);
#104 = CARTESIAN_POINT('',(-15.,-44.7,3.));
#105 = LINE('',#106,#107);
#106 = CARTESIAN_POINT('',(-15.,-44.7,3.));
#107 = VECTOR('',#108,1.);
#108 = DIRECTION('',(0.,0.,1.));
#109 = ORIENTED_EDGE('',*,*,#110,.F.);
#110 = EDGE_CURVE('',#111,#103,#113,.T.);
#111 = VERTEX_POINT('',#112);
#112 = CARTESIAN_POINT('',(15.,-44.7,3.));
#113 = LINE('',#114,#115);
#114 = CARTESIAN_POINT('',(32.,-44.7,3.));
#115 = VECTOR('',#116,1.);
#116 = DIRECTION('',(-1.,-0.,-0.));
#117 = ORIENTED_EDGE('',*,*,#118,.T.);
#118 = EDGE_CURVE('',#111,#119,#121,.T.);
#119 = VERTEX_POINT('',#120);
#120 = CARTESIAN_POINT('',(15.,-44.7,12.));
#121 = LINE('',#122,#123);
#122 = CARTESIAN_POINT('',(15.,-44.7,3.));
#123 = VECTOR('',#124,1.);
#124 = DIRECTION('',(0.,0.,1.));
#125 = ORIENTED_EDGE('',*,*,#126,.F.);
#126 = EDGE_CURVE('',#127,#119,#129,.T.);
#127 = VERTEX_POINT('',#128);
#128 = CARTESIAN_POINT('',(23.,-44.7,12.));
#129 = LINE('',#130,#131);
#130 = CARTESIAN_POINT('',(23.,-44.7,12.));
#131 = VECTOR('',#132,1.);
#132 = DIRECTION('',(-1.,-0.,-0.));
#133 = ORIENTED_EDGE('',*,*,#134,.F.);
#134 = EDGE_CURVE('',#135,#127,#137,.T.);
#135 = VERTEX_POINT('',#136);
#136 = CARTESIAN_POINT('',(23.,-44.7,3.));
#137 = LINE('',#138,#139);
#138 = CARTESIAN_POINT('',(23.,-44.7,3.));
#139 = VECTOR('',#140,1.);
#140 = DIRECTION('',(0.,0.,1.));
#141 = ORIENTED_EDGE('',*,*,#142,.F.);
#142 = EDGE_CURVE('',#64,#135,#143,.T.);
#143 = LINE('',#144,#145);
#144 = CARTESIAN_POINT('',(32.,-44.7,3.));
#145 = VECTOR('',#146,1.);
#146 = DIRECTION('',(-1.,-0.,-0.));
#147 = FACE_BOUND('',#148,.F.);
#148 = EDGE_LOOP('',(#149));
#149 = ORIENTED_EDGE('',*,*,#150,.F.);
#150 = EDGE_CURVE('',#151,#151,#153,.T.);
#151 = VERTEX_POINT('',#152);
#152 = CARTESIAN_POINT('',(-20.4,-44.7,7.5));
#153 = CIRCLE('',#154,1.4);
#154 = AXIS2_PLACEMENT_3D('',#155,#156,#157);
#155 = CARTESIAN_POINT('',(-19.,-44.7,7.5));
#156 = DIRECTION('',(0.,1.,-0.));
#157 = DIRECTION('',(-1.,0.,0.));
#158 = FACE_BOUND('',#159,.F.);
#159 = EDGE_LOOP('',(#160));
#160 = ORIENTED_EDGE('',*,*,#161,.F.);
#161 = EDGE_CURVE('',#162,#162,#164,.T.);
#162 = VERTEX_POINT('',#163);
#163 = CARTESIAN_POINT('',(17.6,-44.7,7.5));
#164 = CIRCLE('',#165,1.4);
#165 = AXIS2_PLACEMENT_3D('',#166,#167,#168);
#166 = CARTESIAN_POINT('',(19.,-44.7,7.5));
#167 = DIRECTION('',(0.,1.,-0.));
#168 = DIRECTION('',(-1.,0.,0.));
#169 = PLANE('',#170);
#170 = AXIS2_PLACEMENT_3D('',#171,#172,#173);
#171 = CARTESIAN_POINT('',(0.,-44.7,3.617647058824));
#172 = DIRECTION('',(0.,-1.,3.E-16));
#173 = DIRECTION('',(-0.,-3.E-16,-1.));
#174 = ADVANCED_FACE('',(#175),#200,.F.);
#175 = FACE_BOUND('',#176,.T.);
#176 = EDGE_LOOP('',(#177,#178,#186,#194));
#177 = ORIENTED_EDGE('',*,*,#39,.T.);
#178 = ORIENTED_EDGE('',*,*,#179,.T.);
#179 = EDGE_CURVE('',#32,#180,#182,.T.);
#180 = VERTEX_POINT('',#181);
#181 = CARTESIAN_POINT('',(32.,-3.3,3.));
#182 = LINE('',#183,#184);
#183 = CARTESIAN_POINT('',(-32.,-3.3,3.));
#184 = VECTOR('',#185,1.);
#185 = DIRECTION('',(1.,0.,0.));
#186 = ORIENTED_EDGE('',*,*,#187,.F.);
#187 = EDGE_CURVE('',#188,#180,#190,.T.);
#188 = VERTEX_POINT('',#189);
#189 = CARTESIAN_POINT('',(32.,-3.3,0.));
#190 = LINE('',#191,#192);
#191 = CARTESIAN_POINT('',(32.,-3.3,0.));
#192 = VECTOR('',#193,1.);
#193 = DIRECTION('',(0.,0.,1.));
#194 = ORIENTED_EDGE('',*,*,#195,.F.);
#195 = EDGE_CURVE('',#40,#188,#196,.T.);
#196 = LINE('',#197,#198);
#197 = CARTESIAN_POINT('',(-32.,-3.3,0.));
#198 = VECTOR('',#199,1.);
#199 = DIRECTION('',(1.,0.,0.));
#200 = PLANE('',#201);
#201 = AXIS2_PLACEMENT_3D('',#202,#203,#204);
#202 = CARTESIAN_POINT('',(-32.,-3.3,0.));
#203 = DIRECTION('',(-0.,-1.,-0.));
#204 = DIRECTION('',(-1.,-0.,-0.));
#205 = ADVANCED_FACE('',(#206,#217,#228,#278),#328,.F.);
#206 = FACE_BOUND('',#207,.T.);
#207 = EDGE_LOOP('',(#208,#209,#210,#216));
#208 = ORIENTED_EDGE('',*,*,#47,.T.);
#209 = ORIENTED_EDGE('',*,*,#195,.T.);
#210 = ORIENTED_EDGE('',*,*,#211,.T.);
#211 = EDGE_CURVE('',#188,#62,#212,.T.);
#212 = LINE('',#213,#214);
#213 = CARTESIAN_POINT('',(32.,-3.3,0.));
#214 = VECTOR('',#215,1.);
#215 = DIRECTION('',(-0.,-1.,-0.));
#216 = ORIENTED_EDGE('',*,*,#71,.T.);
#217 = FACE_BOUND('',#218,.T.);
#218 = EDGE_LOOP('',(#219));
#219 = ORIENTED_EDGE('',*,*,#220,.F.);
#220 = EDGE_CURVE('',#221,#221,#223,.T.);
#221 = VERTEX_POINT('',#222);
#222 = CARTESIAN_POINT('',(1.6,-7.8,0.));
#223 = CIRCLE('',#224,1.6);
#224 = AXIS2_PLACEMENT_3D('',#225,#226,#227);
#225 = CARTESIAN_POINT('',(0.,-7.8,0.));
#226 = DIRECTION('',(0.,0.,-1.));
#227 = DIRECTION('',(1.,0.,0.));
#228 = FACE_BOUND('',#229,.T.);
#229 = EDGE_LOOP('',(#230,#240,#248,#256,#264,#272));
#230 = ORIENTED_EDGE('',*,*,#231,.F.);
#231 = EDGE_CURVE('',#232,#234,#236,.T.);
#232 = VERTEX_POINT('',#233);
#233 = CARTESIAN_POINT('',(-25.9,-37.2,0.));
#234 = VERTEX_POINT('',#235);
#235 = CARTESIAN_POINT('',(-25.9,-17.2,0.));
#236 = LINE('',#237,#238);
#237 = CARTESIAN_POINT('',(-25.9,-37.2,0.));
#238 = VECTOR('',#239,1.);
#239 = DIRECTION('',(0.,1.,0.));
#240 = ORIENTED_EDGE('',*,*,#241,.F.);
#241 = EDGE_CURVE('',#242,#232,#244,.T.);
#242 = VERTEX_POINT('',#243);
#243 = CARTESIAN_POINT('',(-10.9,-37.2,0.));
#244 = LINE('',#245,#246);
#245 = CARTESIAN_POINT('',(-10.9,-37.2,0.));
#246 = VECTOR('',#247,1.);
#247 = DIRECTION('',(-1.,-0.,-0.));
#248 = ORIENTED_EDGE('',*,*,#249,.F.);
#249 = EDGE_CURVE('',#250,#242,#252,.T.);
#250 = VERTEX_POINT('',#251);
#251 = CARTESIAN_POINT('',(-3.,-31.2,0.));
#252 = LINE('',#253,#254);
#253 = CARTESIAN_POINT('',(-3.,-31.2,0.));
#254 = VECTOR('',#255,1.);
#255 = DIRECTION('',(-0.796356401327,-0.604827646578,-0.));
#256 = ORIENTED_EDGE('',*,*,#257,.F.);
#257 = EDGE_CURVE('',#258,#250,#260,.T.);
#258 = VERTEX_POINT('',#259);
#259 = CARTESIAN_POINT('',(-3.,-11.2,0.));
#260 = LINE('',#261,#262);
#261 = CARTESIAN_POINT('',(-3.,-11.2,0.));
#262 = VECTOR('',#263,1.);
#263 = DIRECTION('',(-0.,-1.,-0.));
#264 = ORIENTED_EDGE('',*,*,#265,.F.);
#265 = EDGE_CURVE('',#266,#258,#268,.T.);
#266 = VERTEX_POINT('',#267);
#267 = CARTESIAN_POINT('',(-18.,-11.2,0.));
#268 = LINE('',#269,#270);
#269 = CARTESIAN_POINT('',(-18.,-11.2,0.));
#270 = VECTOR('',#271,1.);
#271 = DIRECTION('',(1.,0.,0.));
#272 = ORIENTED_EDGE('',*,*,#273,.F.);
#273 = EDGE_CURVE('',#234,#266,#274,.T.);
#274 = LINE('',#275,#276);
#275 = CARTESIAN_POINT('',(-25.9,-17.2,0.));
#276 = VECTOR('',#277,1.);
#277 = DIRECTION('',(0.796356401327,0.604827646578,0.));
#278 = FACE_BOUND('',#279,.T.);
#279 = EDGE_LOOP('',(#280,#290,#298,#306,#314,#322));
#280 = ORIENTED_EDGE('',*,*,#281,.F.);
#281 = EDGE_CURVE('',#282,#284,#286,.T.);
#282 = VERTEX_POINT('',#283);
#283 = CARTESIAN_POINT('',(3.,-37.2,0.));
#284 = VERTEX_POINT('',#285);
#285 = CARTESIAN_POINT('',(3.,-17.2,0.));
#286 = LINE('',#287,#288);
#287 = CARTESIAN_POINT('',(3.,-37.2,0.));
#288 = VECTOR('',#289,1.);
#289 = DIRECTION('',(0.,1.,0.));
#290 = ORIENTED_EDGE('',*,*,#291,.F.);
#291 = EDGE_CURVE('',#292,#282,#294,.T.);
#292 = VERTEX_POINT('',#293);
#293 = CARTESIAN_POINT('',(18.,-37.2,0.));
#294 = LINE('',#295,#296);
#295 = CARTESIAN_POINT('',(18.,-37.2,0.));
#296 = VECTOR('',#297,1.);
#297 = DIRECTION('',(-1.,-0.,-0.));
#298 = ORIENTED_EDGE('',*,*,#299,.F.);
#299 = EDGE_CURVE('',#300,#292,#302,.T.);
#300 = VERTEX_POINT('',#301);
#301 = CARTESIAN_POINT('',(25.9,-31.2,0.));
#302 = LINE('',#303,#304);
#303 = CARTESIAN_POINT('',(25.9,-31.2,0.));
#304 = VECTOR('',#305,1.);
#305 = DIRECTION('',(-0.796356401327,-0.604827646578,-0.));
#306 = ORIENTED_EDGE('',*,*,#307,.F.);
#307 = EDGE_CURVE('',#308,#300,#310,.T.);
#308 = VERTEX_POINT('',#309);
#309 = CARTESIAN_POINT('',(25.9,-11.2,0.));
#310 = LINE('',#311,#312);
#311 = CARTESIAN_POINT('',(25.9,-11.2,0.));
#312 = VECTOR('',#313,1.);
#313 = DIRECTION('',(-0.,-1.,-0.));
#314 = ORIENTED_EDGE('',*,*,#315,.F.);
#315 = EDGE_CURVE('',#316,#308,#318,.T.);
#316 = VERTEX_POINT('',#317);
#317 = CARTESIAN_POINT('',(10.9,-11.2,0.));
#318 = LINE('',#319,#320);
#319 = CARTESIAN_POINT('',(10.9,-11.2,0.));
#320 = VECTOR('',#321,1.);
#321 = DIRECTION('',(1.,0.,0.));
#322 = ORIENTED_EDGE('',*,*,#323,.F.);
#323 = EDGE_CURVE('',#284,#316,#324,.T.);
#324 = LINE('',#325,#326);
#325 = CARTESIAN_POINT('',(3.,-17.2,0.));
#326 = VECTOR('',#327,1.);
#327 = DIRECTION('',(0.796356401327,0.604827646578,0.));
#328 = PLANE('',#329);
#329 = AXIS2_PLACEMENT_3D('',#330,#331,#332);
#330 = CARTESIAN_POINT('',(0.,-24.09203052234,0.));
#331 = DIRECTION('',(0.,0.,1.));
#332 = DIRECTION('',(-1.,-0.,-0.));
#333 = ADVANCED_FACE('',(#334,#391,#402,#484),#566,.T.);
#334 = FACE_BOUND('',#335,.F.);
#335 = EDGE_LOOP('',(#336,#337,#338,#339,#345,#346,#354,#362,#368,#369,
    #377,#385));
#336 = ORIENTED_EDGE('',*,*,#78,.T.);
#337 = ORIENTED_EDGE('',*,*,#31,.T.);
#338 = ORIENTED_EDGE('',*,*,#179,.T.);
#339 = ORIENTED_EDGE('',*,*,#340,.T.);
#340 = EDGE_CURVE('',#180,#64,#341,.T.);
#341 = LINE('',#342,#343);
#342 = CARTESIAN_POINT('',(32.,-3.3,3.));
#343 = VECTOR('',#344,1.);
#344 = DIRECTION('',(-0.,-1.,-0.));
#345 = ORIENTED_EDGE('',*,*,#142,.T.);
#346 = ORIENTED_EDGE('',*,*,#347,.F.);
#347 = EDGE_CURVE('',#348,#135,#350,.T.);
#348 = VERTEX_POINT('',#349);
#349 = CARTESIAN_POINT('',(23.,-41.69999999998,3.));
#350 = LINE('',#351,#352);
#351 = CARTESIAN_POINT('',(23.,-41.69999999998,3.));
#352 = VECTOR('',#353,1.);
#353 = DIRECTION('',(-0.,-1.,-0.));
#354 = ORIENTED_EDGE('',*,*,#355,.F.);
#355 = EDGE_CURVE('',#356,#348,#358,.T.);
#356 = VERTEX_POINT('',#357);
#357 = CARTESIAN_POINT('',(15.,-41.69999999998,3.));
#358 = LINE('',#359,#360);
#359 = CARTESIAN_POINT('',(15.,-41.69999999998,3.));
#360 = VECTOR('',#361,1.);
#361 = DIRECTION('',(1.,0.,0.));
#362 = ORIENTED_EDGE('',*,*,#363,.F.);
#363 = EDGE_CURVE('',#111,#356,#364,.T.);
#364 = LINE('',#365,#366);
#365 = CARTESIAN_POINT('',(15.,-44.7,3.));
#366 = VECTOR('',#367,1.);
#367 = DIRECTION('',(0.,1.,0.));
#368 = ORIENTED_EDGE('',*,*,#110,.T.);
#369 = ORIENTED_EDGE('',*,*,#370,.F.);
#370 = EDGE_CURVE('',#371,#103,#373,.T.);
#371 = VERTEX_POINT('',#372);
#372 = CARTESIAN_POINT('',(-15.,-41.69999999998,3.));
#373 = LINE('',#374,#375);
#374 = CARTESIAN_POINT('',(-15.,-41.69999999998,3.));
#375 = VECTOR('',#376,1.);
#376 = DIRECTION('',(-0.,-1.,-0.));
#377 = ORIENTED_EDGE('',*,*,#378,.F.);
#378 = EDGE_CURVE('',#379,#371,#381,.T.);
#379 = VERTEX_POINT('',#380);
#380 = CARTESIAN_POINT('',(-23.,-41.69999999998,3.));
#381 = LINE('',#382,#383);
#382 = CARTESIAN_POINT('',(-23.,-41.69999999998,3.));
#383 = VECTOR('',#384,1.);
#384 = DIRECTION('',(1.,0.,0.));
#385 = ORIENTED_EDGE('',*,*,#386,.F.);
#386 = EDGE_CURVE('',#79,#379,#387,.T.);
#387 = LINE('',#388,#389);
#388 = CARTESIAN_POINT('',(-23.,-44.7,3.));
#389 = VECTOR('',#390,1.);
#390 = DIRECTION('',(0.,1.,0.));
#391 = FACE_BOUND('',#392,.F.);
#392 = EDGE_LOOP('',(#393));
#393 = ORIENTED_EDGE('',*,*,#394,.F.);
#394 = EDGE_CURVE('',#395,#395,#397,.T.);
#395 = VERTEX_POINT('',#396);
#396 = CARTESIAN_POINT('',(1.6,-7.8,3.));
#397 = CIRCLE('',#398,1.6);
#398 = AXIS2_PLACEMENT_3D('',#399,#400,#401);
#399 = CARTESIAN_POINT('',(0.,-7.8,3.));
#400 = DIRECTION('',(0.,0.,-1.));
#401 = DIRECTION('',(1.,0.,0.));
#402 = FACE_BOUND('',#403,.F.);
#403 = EDGE_LOOP('',(#404,#414,#422,#430,#438,#446,#454,#462,#470,#478)
  );
#404 = ORIENTED_EDGE('',*,*,#405,.F.);
#405 = EDGE_CURVE('',#406,#408,#410,.T.);
#406 = VERTEX_POINT('',#407);
#407 = CARTESIAN_POINT('',(-25.9,-37.2,3.));
#408 = VERTEX_POINT('',#409);
#409 = CARTESIAN_POINT('',(-25.9,-36.7,3.));
#410 = LINE('',#411,#412);
#411 = CARTESIAN_POINT('',(-25.9,-37.2,3.));
#412 = VECTOR('',#413,1.);
#413 = DIRECTION('',(0.,1.,0.));
#414 = ORIENTED_EDGE('',*,*,#415,.F.);
#415 = EDGE_CURVE('',#416,#406,#418,.T.);
#416 = VERTEX_POINT('',#417);
#417 = CARTESIAN_POINT('',(-10.9,-37.2,3.));
#418 = LINE('',#419,#420);
#419 = CARTESIAN_POINT('',(-10.9,-37.2,3.));
#420 = VECTOR('',#421,1.);
#421 = DIRECTION('',(-1.,-0.,-0.));
#422 = ORIENTED_EDGE('',*,*,#423,.F.);
#423 = EDGE_CURVE('',#424,#416,#426,.T.);
#424 = VERTEX_POINT('',#425);
#425 = CARTESIAN_POINT('',(-3.,-31.2,3.));
#426 = LINE('',#427,#428);
#427 = CARTESIAN_POINT('',(-3.,-31.2,3.));
#428 = VECTOR('',#429,1.);
#429 = DIRECTION('',(-0.796356401327,-0.604827646578,-0.));
#430 = ORIENTED_EDGE('',*,*,#431,.F.);
#431 = EDGE_CURVE('',#432,#424,#434,.T.);
#432 = VERTEX_POINT('',#433);
#433 = CARTESIAN_POINT('',(-3.,-11.2,3.));
#434 = LINE('',#435,#436);
#435 = CARTESIAN_POINT('',(-3.,-11.2,3.));
#436 = VECTOR('',#437,1.);
#437 = DIRECTION('',(-0.,-1.,-0.));
#438 = ORIENTED_EDGE('',*,*,#439,.F.);
#439 = EDGE_CURVE('',#440,#432,#442,.T.);
#440 = VERTEX_POINT('',#441);
#441 = CARTESIAN_POINT('',(-18.,-11.2,3.));
#442 = LINE('',#443,#444);
#443 = CARTESIAN_POINT('',(-18.,-11.2,3.));
#444 = VECTOR('',#445,1.);
#445 = DIRECTION('',(1.,0.,0.));
#446 = ORIENTED_EDGE('',*,*,#447,.F.);
#447 = EDGE_CURVE('',#448,#440,#450,.T.);
#448 = VERTEX_POINT('',#449);
#449 = CARTESIAN_POINT('',(-25.9,-17.2,3.));
#450 = LINE('',#451,#452);
#451 = CARTESIAN_POINT('',(-25.9,-17.2,3.));
#452 = VECTOR('',#453,1.);
#453 = DIRECTION('',(0.796356401327,0.604827646578,0.));
#454 = ORIENTED_EDGE('',*,*,#455,.F.);
#455 = EDGE_CURVE('',#456,#448,#458,.T.);
#456 = VERTEX_POINT('',#457);
#457 = CARTESIAN_POINT('',(-25.9,-26.7,3.));
#458 = LINE('',#459,#460);
#459 = CARTESIAN_POINT('',(-25.9,-37.2,3.));
#460 = VECTOR('',#461,1.);
#461 = DIRECTION('',(0.,1.,0.));
#462 = ORIENTED_EDGE('',*,*,#463,.F.);
#463 = EDGE_CURVE('',#464,#456,#466,.T.);
#464 = VERTEX_POINT('',#465);
#465 = CARTESIAN_POINT('',(-28.9,-26.7,3.));
#466 = LINE('',#467,#468);
#467 = CARTESIAN_POINT('',(-28.9,-26.7,3.));
#468 = VECTOR('',#469,1.);
#469 = DIRECTION('',(1.,0.,0.));
#470 = ORIENTED_EDGE('',*,*,#471,.F.);
#471 = EDGE_CURVE('',#472,#464,#474,.T.);
#472 = VERTEX_POINT('',#473);
#473 = CARTESIAN_POINT('',(-28.9,-36.7,3.));
#474 = LINE('',#475,#476);
#475 = CARTESIAN_POINT('',(-28.9,-36.7,3.));
#476 = VECTOR('',#477,1.);
#477 = DIRECTION('',(0.,1.,0.));
#478 = ORIENTED_EDGE('',*,*,#479,.F.);
#479 = EDGE_CURVE('',#408,#472,#480,.T.);
#480 = LINE('',#481,#482);
#481 = CARTESIAN_POINT('',(-25.9,-36.7,3.));
#482 = VECTOR('',#483,1.);
#483 = DIRECTION('',(-1.,-0.,-0.));
#484 = FACE_BOUND('',#485,.F.);
#485 = EDGE_LOOP('',(#486,#496,#504,#512,#520,#528,#536,#544,#552,#560)
  );
#486 = ORIENTED_EDGE('',*,*,#487,.F.);
#487 = EDGE_CURVE('',#488,#490,#492,.T.);
#488 = VERTEX_POINT('',#489);
#489 = CARTESIAN_POINT('',(3.,-37.2,3.));
#490 = VERTEX_POINT('',#491);
#491 = CARTESIAN_POINT('',(3.,-17.2,3.));
#492 = LINE('',#493,#494);
#493 = CARTESIAN_POINT('',(3.,-37.2,3.));
#494 = VECTOR('',#495,1.);
#495 = DIRECTION('',(0.,1.,0.));
#496 = ORIENTED_EDGE('',*,*,#497,.F.);
#497 = EDGE_CURVE('',#498,#488,#500,.T.);
#498 = VERTEX_POINT('',#499);
#499 = CARTESIAN_POINT('',(18.,-37.2,3.));
#500 = LINE('',#501,#502);
#501 = CARTESIAN_POINT('',(18.,-37.2,3.));
#502 = VECTOR('',#503,1.);
#503 = DIRECTION('',(-1.,-0.,-0.));
#504 = ORIENTED_EDGE('',*,*,#505,.F.);
#505 = EDGE_CURVE('',#506,#498,#508,.T.);
#506 = VERTEX_POINT('',#507);
#507 = CARTESIAN_POINT('',(25.9,-31.2,3.));
#508 = LINE('',#509,#510);
#509 = CARTESIAN_POINT('',(25.9,-31.2,3.));
#510 = VECTOR('',#511,1.);
#511 = DIRECTION('',(-0.796356401327,-0.604827646578,-0.));
#512 = ORIENTED_EDGE('',*,*,#513,.F.);
#513 = EDGE_CURVE('',#514,#506,#516,.T.);
#514 = VERTEX_POINT('',#515);
#515 = CARTESIAN_POINT('',(25.9,-36.7,3.));
#516 = LINE('',#517,#518);
#517 = CARTESIAN_POINT('',(25.9,-36.7,3.));
#518 = VECTOR('',#519,1.);
#519 = DIRECTION('',(0.,1.,0.));
#520 = ORIENTED_EDGE('',*,*,#521,.F.);
#521 = EDGE_CURVE('',#522,#514,#524,.T.);
#522 = VERTEX_POINT('',#523);
#523 = CARTESIAN_POINT('',(28.900000000071,-36.7,3.));
#524 = LINE('',#525,#526);
#525 = CARTESIAN_POINT('',(28.900000000071,-36.7,3.));
#526 = VECTOR('',#527,1.);
#527 = DIRECTION('',(-1.,-0.,-0.));
#528 = ORIENTED_EDGE('',*,*,#529,.F.);
#529 = EDGE_CURVE('',#530,#522,#532,.T.);
#530 = VERTEX_POINT('',#531);
#531 = CARTESIAN_POINT('',(28.900000000071,-26.7,3.));
#532 = LINE('',#533,#534);
#533 = CARTESIAN_POINT('',(28.900000000071,-26.7,3.));
#534 = VECTOR('',#535,1.);
#535 = DIRECTION('',(-0.,-1.,-0.));
#536 = ORIENTED_EDGE('',*,*,#537,.F.);
#537 = EDGE_CURVE('',#538,#530,#540,.T.);
#538 = VERTEX_POINT('',#539);
#539 = CARTESIAN_POINT('',(25.9,-26.7,3.));
#540 = LINE('',#541,#542);
#541 = CARTESIAN_POINT('',(25.9,-26.7,3.));
#542 = VECTOR('',#543,1.);
#543 = DIRECTION('',(1.,0.,0.));
#544 = ORIENTED_EDGE('',*,*,#545,.F.);
#545 = EDGE_CURVE('',#546,#538,#548,.T.);
#546 = VERTEX_POINT('',#547);
#547 = CARTESIAN_POINT('',(25.9,-11.2,3.));
#548 = LINE('',#549,#550);
#549 = CARTESIAN_POINT('',(25.9,-11.2,3.));
#550 = VECTOR('',#551,1.);
#551 = DIRECTION('',(-0.,-1.,-0.));
#552 = ORIENTED_EDGE('',*,*,#553,.F.);
#553 = EDGE_CURVE('',#554,#546,#556,.T.);
#554 = VERTEX_POINT('',#555);
#555 = CARTESIAN_POINT('',(10.9,-11.2,3.));
#556 = LINE('',#557,#558);
#557 = CARTESIAN_POINT('',(10.9,-11.2,3.));
#558 = VECTOR('',#559,1.);
#559 = DIRECTION('',(1.,0.,0.));
#560 = ORIENTED_EDGE('',*,*,#561,.F.);
#561 = EDGE_CURVE('',#490,#554,#562,.T.);
#562 = LINE('',#563,#564);
#563 = CARTESIAN_POINT('',(3.,-17.2,3.));
#564 = VECTOR('',#565,1.);
#565 = DIRECTION('',(0.796356401327,0.604827646578,0.));
#566 = PLANE('',#567);
#567 = AXIS2_PLACEMENT_3D('',#568,#569,#570);
#568 = CARTESIAN_POINT('',(0.,-24.09203052234,3.));
#569 = DIRECTION('',(0.,0.,1.));
#570 = DIRECTION('',(-1.,-0.,-0.));
#571 = ADVANCED_FACE('',(#572),#578,.F.);
#572 = FACE_BOUND('',#573,.T.);
#573 = EDGE_LOOP('',(#574,#575,#576,#577));
#574 = ORIENTED_EDGE('',*,*,#187,.T.);
#575 = ORIENTED_EDGE('',*,*,#340,.T.);
#576 = ORIENTED_EDGE('',*,*,#61,.F.);
#577 = ORIENTED_EDGE('',*,*,#211,.F.);
#578 = PLANE('',#579);
#579 = AXIS2_PLACEMENT_3D('',#580,#581,#582);
#580 = CARTESIAN_POINT('',(32.,-3.3,0.));
#581 = DIRECTION('',(-1.,-0.,-0.));
#582 = DIRECTION('',(0.,1.,0.));
#583 = ADVANCED_FACE('',(#584),#602,.F.);
#584 = FACE_BOUND('',#585,.T.);
#585 = EDGE_LOOP('',(#586,#594,#600,#601));
#586 = ORIENTED_EDGE('',*,*,#587,.T.);
#587 = EDGE_CURVE('',#348,#588,#590,.T.);
#588 = VERTEX_POINT('',#589);
#589 = CARTESIAN_POINT('',(23.,-41.69999999998,12.));
#590 = LINE('',#591,#592);
#591 = CARTESIAN_POINT('',(23.,-41.69999999998,3.));
#592 = VECTOR('',#593,1.);
#593 = DIRECTION('',(0.,0.,1.));
#594 = ORIENTED_EDGE('',*,*,#595,.T.);
#595 = EDGE_CURVE('',#588,#127,#596,.T.);
#596 = LINE('',#597,#598);
#597 = CARTESIAN_POINT('',(23.,-41.69999999998,12.));
#598 = VECTOR('',#599,1.);
#599 = DIRECTION('',(-0.,-1.,-0.));
#600 = ORIENTED_EDGE('',*,*,#134,.F.);
#601 = ORIENTED_EDGE('',*,*,#347,.F.);
#602 = PLANE('',#603);
#603 = AXIS2_PLACEMENT_3D('',#604,#605,#606);
#604 = CARTESIAN_POINT('',(23.,-41.69999999998,3.));
#605 = DIRECTION('',(-1.,-0.,-0.));
#606 = DIRECTION('',(0.,1.,0.));
#607 = ADVANCED_FACE('',(#608),#626,.T.);
#608 = FACE_BOUND('',#609,.F.);
#609 = EDGE_LOOP('',(#610,#618,#624,#625));
#610 = ORIENTED_EDGE('',*,*,#611,.T.);
#611 = EDGE_CURVE('',#119,#612,#614,.T.);
#612 = VERTEX_POINT('',#613);
#613 = CARTESIAN_POINT('',(15.,-41.69999999998,12.));
#614 = LINE('',#615,#616);
#615 = CARTESIAN_POINT('',(15.,-44.7,12.));
#616 = VECTOR('',#617,1.);
#617 = DIRECTION('',(0.,1.,0.));
#618 = ORIENTED_EDGE('',*,*,#619,.T.);
#619 = EDGE_CURVE('',#612,#588,#620,.T.);
#620 = LINE('',#621,#622);
#621 = CARTESIAN_POINT('',(15.,-41.69999999998,12.));
#622 = VECTOR('',#623,1.);
#623 = DIRECTION('',(1.,0.,0.));
#624 = ORIENTED_EDGE('',*,*,#595,.T.);
#625 = ORIENTED_EDGE('',*,*,#126,.T.);
#626 = PLANE('',#627);
#627 = AXIS2_PLACEMENT_3D('',#628,#629,#630);
#628 = CARTESIAN_POINT('',(4.983036E-11,-36.97083333332,12.));
#629 = DIRECTION('',(0.,0.,1.));
#630 = DIRECTION('',(-1.,-0.,-0.));
#631 = ADVANCED_FACE('',(#632),#650,.F.);
#632 = FACE_BOUND('',#633,.T.);
#633 = EDGE_LOOP('',(#634,#635,#643,#649));
#634 = ORIENTED_EDGE('',*,*,#86,.T.);
#635 = ORIENTED_EDGE('',*,*,#636,.T.);
#636 = EDGE_CURVE('',#87,#637,#639,.T.);
#637 = VERTEX_POINT('',#638);
#638 = CARTESIAN_POINT('',(-23.,-41.69999999998,12.));
#639 = LINE('',#640,#641);
#640 = CARTESIAN_POINT('',(-23.,-44.7,12.));
#641 = VECTOR('',#642,1.);
#642 = DIRECTION('',(0.,1.,0.));
#643 = ORIENTED_EDGE('',*,*,#644,.F.);
#644 = EDGE_CURVE('',#379,#637,#645,.T.);
#645 = LINE('',#646,#647);
#646 = CARTESIAN_POINT('',(-23.,-41.69999999998,3.));
#647 = VECTOR('',#648,1.);
#648 = DIRECTION('',(0.,0.,1.));
#649 = ORIENTED_EDGE('',*,*,#386,.F.);
#650 = PLANE('',#651);
#651 = AXIS2_PLACEMENT_3D('',#652,#653,#654);
#652 = CARTESIAN_POINT('',(-23.,-44.7,3.));
#653 = DIRECTION('',(1.,0.,0.));
#654 = DIRECTION('',(-0.,-1.,-0.));
#655 = ADVANCED_FACE('',(#656),#667,.F.);
#656 = FACE_BOUND('',#657,.T.);
#657 = EDGE_LOOP('',(#658,#659,#660,#666));
#658 = ORIENTED_EDGE('',*,*,#118,.T.);
#659 = ORIENTED_EDGE('',*,*,#611,.T.);
#660 = ORIENTED_EDGE('',*,*,#661,.F.);
#661 = EDGE_CURVE('',#356,#612,#662,.T.);
#662 = LINE('',#663,#664);
#663 = CARTESIAN_POINT('',(15.,-41.69999999998,3.));
#664 = VECTOR('',#665,1.);
#665 = DIRECTION('',(0.,0.,1.));
#666 = ORIENTED_EDGE('',*,*,#363,.F.);
#667 = PLANE('',#668);
#668 = AXIS2_PLACEMENT_3D('',#669,#670,#671);
#669 = CARTESIAN_POINT('',(15.,-44.7,3.));
#670 = DIRECTION('',(1.,0.,0.));
#671 = DIRECTION('',(-0.,-1.,-0.));
#672 = ADVANCED_FACE('',(#673),#691,.T.);
#673 = FACE_BOUND('',#674,.F.);
#674 = EDGE_LOOP('',(#675,#676,#684,#690));
#675 = ORIENTED_EDGE('',*,*,#636,.T.);
#676 = ORIENTED_EDGE('',*,*,#677,.T.);
#677 = EDGE_CURVE('',#637,#678,#680,.T.);
#678 = VERTEX_POINT('',#679);
#679 = CARTESIAN_POINT('',(-15.,-41.69999999998,12.));
#680 = LINE('',#681,#682);
#681 = CARTESIAN_POINT('',(-23.,-41.69999999998,12.));
#682 = VECTOR('',#683,1.);
#683 = DIRECTION('',(1.,0.,0.));
#684 = ORIENTED_EDGE('',*,*,#685,.T.);
#685 = EDGE_CURVE('',#678,#95,#686,.T.);
#686 = LINE('',#687,#688);
#687 = CARTESIAN_POINT('',(-15.,-41.69999999998,12.));
#688 = VECTOR('',#689,1.);
#689 = DIRECTION('',(-0.,-1.,-0.));
#690 = ORIENTED_EDGE('',*,*,#94,.T.);
#691 = PLANE('',#692);
#692 = AXIS2_PLACEMENT_3D('',#693,#694,#695);
#693 = CARTESIAN_POINT('',(4.983036E-11,-36.97083333332,12.));
#694 = DIRECTION('',(0.,0.,1.));
#695 = DIRECTION('',(-1.,-0.,-0.));
#696 = ADVANCED_FACE('',(#697),#708,.F.);
#697 = FACE_BOUND('',#698,.T.);
#698 = EDGE_LOOP('',(#699,#705,#706,#707));
#699 = ORIENTED_EDGE('',*,*,#700,.T.);
#700 = EDGE_CURVE('',#371,#678,#701,.T.);
#701 = LINE('',#702,#703);
#702 = CARTESIAN_POINT('',(-15.,-41.69999999998,3.));
#703 = VECTOR('',#704,1.);
#704 = DIRECTION('',(0.,0.,1.));
#705 = ORIENTED_EDGE('',*,*,#685,.T.);
#706 = ORIENTED_EDGE('',*,*,#102,.F.);
#707 = ORIENTED_EDGE('',*,*,#370,.F.);
#708 = PLANE('',#709);
#709 = AXIS2_PLACEMENT_3D('',#710,#711,#712);
#710 = CARTESIAN_POINT('',(-15.,-41.69999999998,3.));
#711 = DIRECTION('',(-1.,-0.,-0.));
#712 = DIRECTION('',(0.,1.,0.));
#713 = ADVANCED_FACE('',(#714),#733,.F.);
#714 = FACE_BOUND('',#715,.T.);
#715 = EDGE_LOOP('',(#716,#717,#725,#732));
#716 = ORIENTED_EDGE('',*,*,#150,.F.);
#717 = ORIENTED_EDGE('',*,*,#718,.T.);
#718 = EDGE_CURVE('',#151,#719,#721,.T.);
#719 = VERTEX_POINT('',#720);
#720 = CARTESIAN_POINT('',(-20.4,-41.69999999998,7.5));
#721 = LINE('',#722,#723);
#722 = CARTESIAN_POINT('',(-20.4,-44.7,7.5));
#723 = VECTOR('',#724,1.);
#724 = DIRECTION('',(0.,1.,2.2E-16));
#725 = ORIENTED_EDGE('',*,*,#726,.T.);
#726 = EDGE_CURVE('',#719,#719,#727,.T.);
#727 = CIRCLE('',#728,1.4);
#728 = AXIS2_PLACEMENT_3D('',#729,#730,#731);
#729 = CARTESIAN_POINT('',(-19.,-41.69999999998,7.5));
#730 = DIRECTION('',(-0.,1.,2.2E-16));
#731 = DIRECTION('',(-1.,-0.,-0.));
#732 = ORIENTED_EDGE('',*,*,#718,.F.);
#733 = CYLINDRICAL_SURFACE('',#734,1.4);
#734 = AXIS2_PLACEMENT_3D('',#735,#736,#737);
#735 = CARTESIAN_POINT('',(-19.,-44.7,7.5));
#736 = DIRECTION('',(-0.,-1.,-2.2E-16));
#737 = DIRECTION('',(-1.,-0.,-0.));
#738 = ADVANCED_FACE('',(#739),#758,.F.);
#739 = FACE_BOUND('',#740,.T.);
#740 = EDGE_LOOP('',(#741,#742,#750,#757));
#741 = ORIENTED_EDGE('',*,*,#161,.F.);
#742 = ORIENTED_EDGE('',*,*,#743,.T.);
#743 = EDGE_CURVE('',#162,#744,#746,.T.);
#744 = VERTEX_POINT('',#745);
#745 = CARTESIAN_POINT('',(17.6,-41.69999999998,7.5));
#746 = LINE('',#747,#748);
#747 = CARTESIAN_POINT('',(17.6,-44.7,7.5));
#748 = VECTOR('',#749,1.);
#749 = DIRECTION('',(0.,1.,2.2E-16));
#750 = ORIENTED_EDGE('',*,*,#751,.T.);
#751 = EDGE_CURVE('',#744,#744,#752,.T.);
#752 = CIRCLE('',#753,1.4);
#753 = AXIS2_PLACEMENT_3D('',#754,#755,#756);
#754 = CARTESIAN_POINT('',(19.,-41.69999999998,7.5));
#755 = DIRECTION('',(-0.,1.,2.2E-16));
#756 = DIRECTION('',(-1.,-0.,-0.));
#757 = ORIENTED_EDGE('',*,*,#743,.F.);
#758 = CYLINDRICAL_SURFACE('',#759,1.4);
#759 = AXIS2_PLACEMENT_3D('',#760,#761,#762);
#760 = CARTESIAN_POINT('',(19.,-44.7,7.5));
#761 = DIRECTION('',(-0.,-1.,-2.2E-16));
#762 = DIRECTION('',(-1.,-0.,-0.));
#763 = ADVANCED_FACE('',(#764),#775,.F.);
#764 = FACE_BOUND('',#765,.T.);
#765 = EDGE_LOOP('',(#766,#767,#773,#774));
#766 = ORIENTED_EDGE('',*,*,#394,.F.);
#767 = ORIENTED_EDGE('',*,*,#768,.T.);
#768 = EDGE_CURVE('',#395,#221,#769,.T.);
#769 = LINE('',#770,#771);
#770 = CARTESIAN_POINT('',(1.6,-7.8,3.));
#771 = VECTOR('',#772,1.);
#772 = DIRECTION('',(0.,0.,-1.));
#773 = ORIENTED_EDGE('',*,*,#220,.T.);
#774 = ORIENTED_EDGE('',*,*,#768,.F.);
#775 = CYLINDRICAL_SURFACE('',#776,1.6);
#776 = AXIS2_PLACEMENT_3D('',#777,#778,#779);
#777 = CARTESIAN_POINT('',(0.,-7.8,3.));
#778 = DIRECTION('',(0.,0.,1.));
#779 = DIRECTION('',(1.,0.,0.));
#780 = ADVANCED_FACE('',(#781,#820),#831,.T.);
#781 = FACE_BOUND('',#782,.F.);
#782 = EDGE_LOOP('',(#783,#789,#790,#798,#806,#812,#813,#819));
#783 = ORIENTED_EDGE('',*,*,#784,.T.);
#784 = EDGE_CURVE('',#232,#406,#785,.T.);
#785 = LINE('',#786,#787);
#786 = CARTESIAN_POINT('',(-25.9,-37.2,0.));
#787 = VECTOR('',#788,1.);
#788 = DIRECTION('',(0.,0.,1.));
#789 = ORIENTED_EDGE('',*,*,#405,.T.);
#790 = ORIENTED_EDGE('',*,*,#791,.T.);
#791 = EDGE_CURVE('',#408,#792,#794,.T.);
#792 = VERTEX_POINT('',#793);
#793 = CARTESIAN_POINT('',(-25.9,-36.7,12.));
#794 = LINE('',#795,#796);
#795 = CARTESIAN_POINT('',(-25.9,-36.7,3.));
#796 = VECTOR('',#797,1.);
#797 = DIRECTION('',(0.,0.,1.));
#798 = ORIENTED_EDGE('',*,*,#799,.F.);
#799 = EDGE_CURVE('',#800,#792,#802,.T.);
#800 = VERTEX_POINT('',#801);
#801 = CARTESIAN_POINT('',(-25.9,-26.7,12.));
#802 = LINE('',#803,#804);
#803 = CARTESIAN_POINT('',(-25.9,-26.7,12.));
#804 = VECTOR('',#805,1.);
#805 = DIRECTION('',(-0.,-1.,-0.));
#806 = ORIENTED_EDGE('',*,*,#807,.F.);
#807 = EDGE_CURVE('',#456,#800,#808,.T.);
#808 = LINE('',#809,#810);
#809 = CARTESIAN_POINT('',(-25.9,-26.7,3.));
#810 = VECTOR('',#811,1.);
#811 = DIRECTION('',(0.,0.,1.));
#812 = ORIENTED_EDGE('',*,*,#455,.T.);
#813 = ORIENTED_EDGE('',*,*,#814,.F.);
#814 = EDGE_CURVE('',#234,#448,#815,.T.);
#815 = LINE('',#816,#817);
#816 = CARTESIAN_POINT('',(-25.9,-17.2,0.));
#817 = VECTOR('',#818,1.);
#818 = DIRECTION('',(0.,0.,1.));
#819 = ORIENTED_EDGE('',*,*,#231,.F.);
#820 = FACE_BOUND('',#821,.F.);
#821 = EDGE_LOOP('',(#822));
#822 = ORIENTED_EDGE('',*,*,#823,.F.);
#823 = EDGE_CURVE('',#824,#824,#826,.T.);
#824 = VERTEX_POINT('',#825);
#825 = CARTESIAN_POINT('',(-25.9,-33.1,7.5));
#826 = CIRCLE('',#827,1.4);
#827 = AXIS2_PLACEMENT_3D('',#828,#829,#830);
#828 = CARTESIAN_POINT('',(-25.9,-31.7,7.5));
#829 = DIRECTION('',(-1.,0.,0.));
#830 = DIRECTION('',(-0.,-1.,-0.));
#831 = PLANE('',#832);
#832 = AXIS2_PLACEMENT_3D('',#833,#834,#835);
#833 = CARTESIAN_POINT('',(-25.9,-28.465625,4.59375));
#834 = DIRECTION('',(1.,0.,-5.4E-16));
#835 = DIRECTION('',(-5.4E-16,-0.,-1.));
#836 = ADVANCED_FACE('',(#837),#848,.T.);
#837 = FACE_BOUND('',#838,.F.);
#838 = EDGE_LOOP('',(#839,#845,#846,#847));
#839 = ORIENTED_EDGE('',*,*,#840,.T.);
#840 = EDGE_CURVE('',#242,#416,#841,.T.);
#841 = LINE('',#842,#843);
#842 = CARTESIAN_POINT('',(-10.9,-37.2,0.));
#843 = VECTOR('',#844,1.);
#844 = DIRECTION('',(0.,0.,1.));
#845 = ORIENTED_EDGE('',*,*,#415,.T.);
#846 = ORIENTED_EDGE('',*,*,#784,.F.);
#847 = ORIENTED_EDGE('',*,*,#241,.F.);
#848 = PLANE('',#849);
#849 = AXIS2_PLACEMENT_3D('',#850,#851,#852);
#850 = CARTESIAN_POINT('',(-10.9,-37.2,0.));
#851 = DIRECTION('',(0.,1.,0.));
#852 = DIRECTION('',(1.,0.,0.));
#853 = ADVANCED_FACE('',(#854),#865,.T.);
#854 = FACE_BOUND('',#855,.F.);
#855 = EDGE_LOOP('',(#856,#857,#858,#864));
#856 = ORIENTED_EDGE('',*,*,#814,.T.);
#857 = ORIENTED_EDGE('',*,*,#447,.T.);
#858 = ORIENTED_EDGE('',*,*,#859,.F.);
#859 = EDGE_CURVE('',#266,#440,#860,.T.);
#860 = LINE('',#861,#862);
#861 = CARTESIAN_POINT('',(-18.,-11.2,0.));
#862 = VECTOR('',#863,1.);
#863 = DIRECTION('',(0.,0.,1.));
#864 = ORIENTED_EDGE('',*,*,#273,.F.);
#865 = PLANE('',#866);
#866 = AXIS2_PLACEMENT_3D('',#867,#868,#869);
#867 = CARTESIAN_POINT('',(-25.9,-17.2,0.));
#868 = DIRECTION('',(0.604827646578,-0.796356401327,0.));
#869 = DIRECTION('',(-0.796356401327,-0.604827646578,-0.));
#870 = ADVANCED_FACE('',(#871),#882,.T.);
#871 = FACE_BOUND('',#872,.F.);
#872 = EDGE_LOOP('',(#873,#879,#880,#881));
#873 = ORIENTED_EDGE('',*,*,#874,.T.);
#874 = EDGE_CURVE('',#250,#424,#875,.T.);
#875 = LINE('',#876,#877);
#876 = CARTESIAN_POINT('',(-3.,-31.2,0.));
#877 = VECTOR('',#878,1.);
#878 = DIRECTION('',(0.,0.,1.));
#879 = ORIENTED_EDGE('',*,*,#423,.T.);
#880 = ORIENTED_EDGE('',*,*,#840,.F.);
#881 = ORIENTED_EDGE('',*,*,#249,.F.);
#882 = PLANE('',#883);
#883 = AXIS2_PLACEMENT_3D('',#884,#885,#886);
#884 = CARTESIAN_POINT('',(-3.,-31.2,0.));
#885 = DIRECTION('',(-0.604827646578,0.796356401327,0.));
#886 = DIRECTION('',(0.796356401327,0.604827646578,0.));
#887 = ADVANCED_FACE('',(#888),#899,.T.);
#888 = FACE_BOUND('',#889,.F.);
#889 = EDGE_LOOP('',(#890,#891,#892,#898));
#890 = ORIENTED_EDGE('',*,*,#859,.T.);
#891 = ORIENTED_EDGE('',*,*,#439,.T.);
#892 = ORIENTED_EDGE('',*,*,#893,.F.);
#893 = EDGE_CURVE('',#258,#432,#894,.T.);
#894 = LINE('',#895,#896);
#895 = CARTESIAN_POINT('',(-3.,-11.2,0.));
#896 = VECTOR('',#897,1.);
#897 = DIRECTION('',(0.,0.,1.));
#898 = ORIENTED_EDGE('',*,*,#265,.F.);
#899 = PLANE('',#900);
#900 = AXIS2_PLACEMENT_3D('',#901,#902,#903);
#901 = CARTESIAN_POINT('',(-18.,-11.2,0.));
#902 = DIRECTION('',(-0.,-1.,-0.));
#903 = DIRECTION('',(-1.,-0.,-0.));
#904 = ADVANCED_FACE('',(#905),#911,.T.);
#905 = FACE_BOUND('',#906,.F.);
#906 = EDGE_LOOP('',(#907,#908,#909,#910));
#907 = ORIENTED_EDGE('',*,*,#893,.T.);
#908 = ORIENTED_EDGE('',*,*,#431,.T.);
#909 = ORIENTED_EDGE('',*,*,#874,.F.);
#910 = ORIENTED_EDGE('',*,*,#257,.F.);
#911 = PLANE('',#912);
#912 = AXIS2_PLACEMENT_3D('',#913,#914,#915);
#913 = CARTESIAN_POINT('',(-3.,-11.2,0.));
#914 = DIRECTION('',(-1.,-0.,-0.));
#915 = DIRECTION('',(0.,1.,0.));
#916 = ADVANCED_FACE('',(#917),#933,.T.);
#917 = FACE_BOUND('',#918,.F.);
#918 = EDGE_LOOP('',(#919,#925,#926,#932));
#919 = ORIENTED_EDGE('',*,*,#920,.T.);
#920 = EDGE_CURVE('',#282,#488,#921,.T.);
#921 = LINE('',#922,#923);
#922 = CARTESIAN_POINT('',(3.,-37.2,0.));
#923 = VECTOR('',#924,1.);
#924 = DIRECTION('',(0.,0.,1.));
#925 = ORIENTED_EDGE('',*,*,#487,.T.);
#926 = ORIENTED_EDGE('',*,*,#927,.F.);
#927 = EDGE_CURVE('',#284,#490,#928,.T.);
#928 = LINE('',#929,#930);
#929 = CARTESIAN_POINT('',(3.,-17.2,0.));
#930 = VECTOR('',#931,1.);
#931 = DIRECTION('',(0.,0.,1.));
#932 = ORIENTED_EDGE('',*,*,#281,.F.);
#933 = PLANE('',#934);
#934 = AXIS2_PLACEMENT_3D('',#935,#936,#937);
#935 = CARTESIAN_POINT('',(3.,-37.2,0.));
#936 = DIRECTION('',(1.,0.,0.));
#937 = DIRECTION('',(-0.,-1.,-0.));
#938 = ADVANCED_FACE('',(#939),#950,.T.);
#939 = FACE_BOUND('',#940,.F.);
#940 = EDGE_LOOP('',(#941,#947,#948,#949));
#941 = ORIENTED_EDGE('',*,*,#942,.T.);
#942 = EDGE_CURVE('',#292,#498,#943,.T.);
#943 = LINE('',#944,#945);
#944 = CARTESIAN_POINT('',(18.,-37.2,0.));
#945 = VECTOR('',#946,1.);
#946 = DIRECTION('',(0.,0.,1.));
#947 = ORIENTED_EDGE('',*,*,#497,.T.);
#948 = ORIENTED_EDGE('',*,*,#920,.F.);
#949 = ORIENTED_EDGE('',*,*,#291,.F.);
#950 = PLANE('',#951);
#951 = AXIS2_PLACEMENT_3D('',#952,#953,#954);
#952 = CARTESIAN_POINT('',(18.,-37.2,0.));
#953 = DIRECTION('',(0.,1.,0.));
#954 = DIRECTION('',(1.,0.,0.));
#955 = ADVANCED_FACE('',(#956),#967,.T.);
#956 = FACE_BOUND('',#957,.F.);
#957 = EDGE_LOOP('',(#958,#959,#960,#966));
#958 = ORIENTED_EDGE('',*,*,#927,.T.);
#959 = ORIENTED_EDGE('',*,*,#561,.T.);
#960 = ORIENTED_EDGE('',*,*,#961,.F.);
#961 = EDGE_CURVE('',#316,#554,#962,.T.);
#962 = LINE('',#963,#964);
#963 = CARTESIAN_POINT('',(10.9,-11.2,0.));
#964 = VECTOR('',#965,1.);
#965 = DIRECTION('',(0.,0.,1.));
#966 = ORIENTED_EDGE('',*,*,#323,.F.);
#967 = PLANE('',#968);
#968 = AXIS2_PLACEMENT_3D('',#969,#970,#971);
#969 = CARTESIAN_POINT('',(3.,-17.2,0.));
#970 = DIRECTION('',(0.604827646578,-0.796356401327,0.));
#971 = DIRECTION('',(-0.796356401327,-0.604827646578,-0.));
#972 = ADVANCED_FACE('',(#973),#984,.T.);
#973 = FACE_BOUND('',#974,.F.);
#974 = EDGE_LOOP('',(#975,#981,#982,#983));
#975 = ORIENTED_EDGE('',*,*,#976,.T.);
#976 = EDGE_CURVE('',#300,#506,#977,.T.);
#977 = LINE('',#978,#979);
#978 = CARTESIAN_POINT('',(25.9,-31.2,0.));
#979 = VECTOR('',#980,1.);
#980 = DIRECTION('',(0.,0.,1.));
#981 = ORIENTED_EDGE('',*,*,#505,.T.);
#982 = ORIENTED_EDGE('',*,*,#942,.F.);
#983 = ORIENTED_EDGE('',*,*,#299,.F.);
#984 = PLANE('',#985);
#985 = AXIS2_PLACEMENT_3D('',#986,#987,#988);
#986 = CARTESIAN_POINT('',(25.9,-31.2,0.));
#987 = DIRECTION('',(-0.604827646578,0.796356401327,0.));
#988 = DIRECTION('',(0.796356401327,0.604827646578,0.));
#989 = ADVANCED_FACE('',(#990),#1001,.T.);
#990 = FACE_BOUND('',#991,.F.);
#991 = EDGE_LOOP('',(#992,#993,#994,#1000));
#992 = ORIENTED_EDGE('',*,*,#961,.T.);
#993 = ORIENTED_EDGE('',*,*,#553,.T.);
#994 = ORIENTED_EDGE('',*,*,#995,.F.);
#995 = EDGE_CURVE('',#308,#546,#996,.T.);
#996 = LINE('',#997,#998);
#997 = CARTESIAN_POINT('',(25.9,-11.2,0.));
#998 = VECTOR('',#999,1.);
#999 = DIRECTION('',(0.,0.,1.));
#1000 = ORIENTED_EDGE('',*,*,#315,.F.);
#1001 = PLANE('',#1002);
#1002 = AXIS2_PLACEMENT_3D('',#1003,#1004,#1005);
#1003 = CARTESIAN_POINT('',(10.9,-11.2,0.));
#1004 = DIRECTION('',(-0.,-1.,-0.));
#1005 = DIRECTION('',(-1.,-0.,-0.));
#1006 = ADVANCED_FACE('',(#1007,#1036),#1047,.T.);
#1007 = FACE_BOUND('',#1008,.F.);
#1008 = EDGE_LOOP('',(#1009,#1010,#1011,#1019,#1027,#1033,#1034,#1035));
#1009 = ORIENTED_EDGE('',*,*,#995,.T.);
#1010 = ORIENTED_EDGE('',*,*,#545,.T.);
#1011 = ORIENTED_EDGE('',*,*,#1012,.T.);
#1012 = EDGE_CURVE('',#538,#1013,#1015,.T.);
#1013 = VERTEX_POINT('',#1014);
#1014 = CARTESIAN_POINT('',(25.9,-26.7,12.));
#1015 = LINE('',#1016,#1017);
#1016 = CARTESIAN_POINT('',(25.9,-26.7,3.));
#1017 = VECTOR('',#1018,1.);
#1018 = DIRECTION('',(0.,0.,1.));
#1019 = ORIENTED_EDGE('',*,*,#1020,.F.);
#1020 = EDGE_CURVE('',#1021,#1013,#1023,.T.);
#1021 = VERTEX_POINT('',#1022);
#1022 = CARTESIAN_POINT('',(25.9,-36.7,12.));
#1023 = LINE('',#1024,#1025);
#1024 = CARTESIAN_POINT('',(25.9,-36.7,12.));
#1025 = VECTOR('',#1026,1.);
#1026 = DIRECTION('',(0.,1.,0.));
#1027 = ORIENTED_EDGE('',*,*,#1028,.F.);
#1028 = EDGE_CURVE('',#514,#1021,#1029,.T.);
#1029 = LINE('',#1030,#1031);
#1030 = CARTESIAN_POINT('',(25.9,-36.7,3.));
#1031 = VECTOR('',#1032,1.);
#1032 = DIRECTION('',(0.,0.,1.));
#1033 = ORIENTED_EDGE('',*,*,#513,.T.);
#1034 = ORIENTED_EDGE('',*,*,#976,.F.);
#1035 = ORIENTED_EDGE('',*,*,#307,.F.);
#1036 = FACE_BOUND('',#1037,.F.);
#1037 = EDGE_LOOP('',(#1038));
#1038 = ORIENTED_EDGE('',*,*,#1039,.T.);
#1039 = EDGE_CURVE('',#1040,#1040,#1042,.T.);
#1040 = VERTEX_POINT('',#1041);
#1041 = CARTESIAN_POINT('',(25.9,-33.1,7.5));
#1042 = CIRCLE('',#1043,1.4);
#1043 = AXIS2_PLACEMENT_3D('',#1044,#1045,#1046);
#1044 = CARTESIAN_POINT('',(25.9,-31.7,7.5));
#1045 = DIRECTION('',(-1.,0.,0.));
#1046 = DIRECTION('',(-0.,-1.,-0.));
#1047 = PLANE('',#1048);
#1048 = AXIS2_PLACEMENT_3D('',#1049,#1050,#1051);
#1049 = CARTESIAN_POINT('',(25.9,-25.59,4.36));
#1050 = DIRECTION('',(-1.,0.,-4.4E-16));
#1051 = DIRECTION('',(-4.4E-16,0.,1.));
#1052 = ADVANCED_FACE('',(#1053,#1059),#1062,.F.);
#1053 = FACE_BOUND('',#1054,.T.);
#1054 = EDGE_LOOP('',(#1055,#1056,#1057,#1058));
#1055 = ORIENTED_EDGE('',*,*,#644,.T.);
#1056 = ORIENTED_EDGE('',*,*,#677,.T.);
#1057 = ORIENTED_EDGE('',*,*,#700,.F.);
#1058 = ORIENTED_EDGE('',*,*,#378,.F.);
#1059 = FACE_BOUND('',#1060,.T.);
#1060 = EDGE_LOOP('',(#1061));
#1061 = ORIENTED_EDGE('',*,*,#726,.F.);
#1062 = PLANE('',#1063);
#1063 = AXIS2_PLACEMENT_3D('',#1064,#1065,#1066);
#1064 = CARTESIAN_POINT('',(-23.,-41.69999999998,3.));
#1065 = DIRECTION('',(-0.,-1.,-0.));
#1066 = DIRECTION('',(-1.,-0.,-0.));
#1067 = ADVANCED_FACE('',(#1068,#1074),#1077,.F.);
#1068 = FACE_BOUND('',#1069,.T.);
#1069 = EDGE_LOOP('',(#1070,#1071,#1072,#1073));
#1070 = ORIENTED_EDGE('',*,*,#661,.T.);
#1071 = ORIENTED_EDGE('',*,*,#619,.T.);
#1072 = ORIENTED_EDGE('',*,*,#587,.F.);
#1073 = ORIENTED_EDGE('',*,*,#355,.F.);
#1074 = FACE_BOUND('',#1075,.T.);
#1075 = EDGE_LOOP('',(#1076));
#1076 = ORIENTED_EDGE('',*,*,#751,.F.);
#1077 = PLANE('',#1078);
#1078 = AXIS2_PLACEMENT_3D('',#1079,#1080,#1081);
#1079 = CARTESIAN_POINT('',(15.,-41.69999999998,3.));
#1080 = DIRECTION('',(-0.,-1.,-0.));
#1081 = DIRECTION('',(-1.,-0.,-0.));
#1082 = ADVANCED_FACE('',(#1083),#1101,.F.);
#1083 = FACE_BOUND('',#1084,.T.);
#1084 = EDGE_LOOP('',(#1085,#1086,#1094,#1100));
#1085 = ORIENTED_EDGE('',*,*,#791,.T.);
#1086 = ORIENTED_EDGE('',*,*,#1087,.T.);
#1087 = EDGE_CURVE('',#792,#1088,#1090,.T.);
#1088 = VERTEX_POINT('',#1089);
#1089 = CARTESIAN_POINT('',(-28.9,-36.7,12.));
#1090 = LINE('',#1091,#1092);
#1091 = CARTESIAN_POINT('',(-25.9,-36.7,12.));
#1092 = VECTOR('',#1093,1.);
#1093 = DIRECTION('',(-1.,-0.,-0.));
#1094 = ORIENTED_EDGE('',*,*,#1095,.F.);
#1095 = EDGE_CURVE('',#472,#1088,#1096,.T.);
#1096 = LINE('',#1097,#1098);
#1097 = CARTESIAN_POINT('',(-28.9,-36.7,3.));
#1098 = VECTOR('',#1099,1.);
#1099 = DIRECTION('',(0.,0.,1.));
#1100 = ORIENTED_EDGE('',*,*,#479,.F.);
#1101 = PLANE('',#1102);
#1102 = AXIS2_PLACEMENT_3D('',#1103,#1104,#1105);
#1103 = CARTESIAN_POINT('',(-25.9,-36.7,3.));
#1104 = DIRECTION('',(0.,1.,0.));
#1105 = DIRECTION('',(1.,0.,0.));
#1106 = ADVANCED_FACE('',(#1107,#1125),#1136,.F.);
#1107 = FACE_BOUND('',#1108,.T.);
#1108 = EDGE_LOOP('',(#1109,#1110,#1118,#1124));
#1109 = ORIENTED_EDGE('',*,*,#1095,.T.);
#1110 = ORIENTED_EDGE('',*,*,#1111,.T.);
#1111 = EDGE_CURVE('',#1088,#1112,#1114,.T.);
#1112 = VERTEX_POINT('',#1113);
#1113 = CARTESIAN_POINT('',(-28.9,-26.7,12.));
#1114 = LINE('',#1115,#1116);
#1115 = CARTESIAN_POINT('',(-28.9,-36.7,12.));
#1116 = VECTOR('',#1117,1.);
#1117 = DIRECTION('',(0.,1.,0.));
#1118 = ORIENTED_EDGE('',*,*,#1119,.F.);
#1119 = EDGE_CURVE('',#464,#1112,#1120,.T.);
#1120 = LINE('',#1121,#1122);
#1121 = CARTESIAN_POINT('',(-28.9,-26.7,3.));
#1122 = VECTOR('',#1123,1.);
#1123 = DIRECTION('',(0.,0.,1.));
#1124 = ORIENTED_EDGE('',*,*,#471,.F.);
#1125 = FACE_BOUND('',#1126,.T.);
#1126 = EDGE_LOOP('',(#1127));
#1127 = ORIENTED_EDGE('',*,*,#1128,.F.);
#1128 = EDGE_CURVE('',#1129,#1129,#1131,.T.);
#1129 = VERTEX_POINT('',#1130);
#1130 = CARTESIAN_POINT('',(-28.9,-33.1,7.5));
#1131 = CIRCLE('',#1132,1.4);
#1132 = AXIS2_PLACEMENT_3D('',#1133,#1134,#1135);
#1133 = CARTESIAN_POINT('',(-28.9,-31.7,7.5));
#1134 = DIRECTION('',(-1.,0.,0.));
#1135 = DIRECTION('',(-0.,-1.,-0.));
#1136 = PLANE('',#1137);
#1137 = AXIS2_PLACEMENT_3D('',#1138,#1139,#1140);
#1138 = CARTESIAN_POINT('',(-28.9,-36.7,3.));
#1139 = DIRECTION('',(1.,0.,0.));
#1140 = DIRECTION('',(-0.,-1.,-0.));
#1141 = ADVANCED_FACE('',(#1142),#1153,.F.);
#1142 = FACE_BOUND('',#1143,.T.);
#1143 = EDGE_LOOP('',(#1144,#1145,#1151,#1152));
#1144 = ORIENTED_EDGE('',*,*,#1119,.T.);
#1145 = ORIENTED_EDGE('',*,*,#1146,.T.);
#1146 = EDGE_CURVE('',#1112,#800,#1147,.T.);
#1147 = LINE('',#1148,#1149);
#1148 = CARTESIAN_POINT('',(-28.9,-26.7,12.));
#1149 = VECTOR('',#1150,1.);
#1150 = DIRECTION('',(1.,0.,0.));
#1151 = ORIENTED_EDGE('',*,*,#807,.F.);
#1152 = ORIENTED_EDGE('',*,*,#463,.F.);
#1153 = PLANE('',#1154);
#1154 = AXIS2_PLACEMENT_3D('',#1155,#1156,#1157);
#1155 = CARTESIAN_POINT('',(-28.9,-26.7,3.));
#1156 = DIRECTION('',(-0.,-1.,-0.));
#1157 = DIRECTION('',(-1.,-0.,-0.));
#1158 = ADVANCED_FACE('',(#1159),#1177,.F.);
#1159 = FACE_BOUND('',#1160,.T.);
#1160 = EDGE_LOOP('',(#1161,#1169,#1175,#1176));
#1161 = ORIENTED_EDGE('',*,*,#1162,.T.);
#1162 = EDGE_CURVE('',#522,#1163,#1165,.T.);
#1163 = VERTEX_POINT('',#1164);
#1164 = CARTESIAN_POINT('',(28.900000000071,-36.7,12.));
#1165 = LINE('',#1166,#1167);
#1166 = CARTESIAN_POINT('',(28.900000000071,-36.7,3.));
#1167 = VECTOR('',#1168,1.);
#1168 = DIRECTION('',(0.,0.,1.));
#1169 = ORIENTED_EDGE('',*,*,#1170,.T.);
#1170 = EDGE_CURVE('',#1163,#1021,#1171,.T.);
#1171 = LINE('',#1172,#1173);
#1172 = CARTESIAN_POINT('',(28.900000000071,-36.7,12.));
#1173 = VECTOR('',#1174,1.);
#1174 = DIRECTION('',(-1.,-0.,-0.));
#1175 = ORIENTED_EDGE('',*,*,#1028,.F.);
#1176 = ORIENTED_EDGE('',*,*,#521,.F.);
#1177 = PLANE('',#1178);
#1178 = AXIS2_PLACEMENT_3D('',#1179,#1180,#1181);
#1179 = CARTESIAN_POINT('',(28.900000000071,-36.7,3.));
#1180 = DIRECTION('',(0.,1.,0.));
#1181 = DIRECTION('',(1.,0.,0.));
#1182 = ADVANCED_FACE('',(#1183),#1201,.F.);
#1183 = FACE_BOUND('',#1184,.T.);
#1184 = EDGE_LOOP('',(#1185,#1186,#1194,#1200));
#1185 = ORIENTED_EDGE('',*,*,#1012,.T.);
#1186 = ORIENTED_EDGE('',*,*,#1187,.T.);
#1187 = EDGE_CURVE('',#1013,#1188,#1190,.T.);
#1188 = VERTEX_POINT('',#1189);
#1189 = CARTESIAN_POINT('',(28.900000000071,-26.7,12.));
#1190 = LINE('',#1191,#1192);
#1191 = CARTESIAN_POINT('',(25.9,-26.7,12.));
#1192 = VECTOR('',#1193,1.);
#1193 = DIRECTION('',(1.,0.,0.));
#1194 = ORIENTED_EDGE('',*,*,#1195,.F.);
#1195 = EDGE_CURVE('',#530,#1188,#1196,.T.);
#1196 = LINE('',#1197,#1198);
#1197 = CARTESIAN_POINT('',(28.900000000071,-26.7,3.));
#1198 = VECTOR('',#1199,1.);
#1199 = DIRECTION('',(0.,0.,1.));
#1200 = ORIENTED_EDGE('',*,*,#537,.F.);
#1201 = PLANE('',#1202);
#1202 = AXIS2_PLACEMENT_3D('',#1203,#1204,#1205);
#1203 = CARTESIAN_POINT('',(25.9,-26.7,3.));
#1204 = DIRECTION('',(-0.,-1.,-0.));
#1205 = DIRECTION('',(-1.,-0.,-0.));
#1206 = ADVANCED_FACE('',(#1207,#1218),#1229,.F.);
#1207 = FACE_BOUND('',#1208,.T.);
#1208 = EDGE_LOOP('',(#1209,#1210,#1216,#1217));
#1209 = ORIENTED_EDGE('',*,*,#1195,.T.);
#1210 = ORIENTED_EDGE('',*,*,#1211,.T.);
#1211 = EDGE_CURVE('',#1188,#1163,#1212,.T.);
#1212 = LINE('',#1213,#1214);
#1213 = CARTESIAN_POINT('',(28.900000000071,-26.7,12.));
#1214 = VECTOR('',#1215,1.);
#1215 = DIRECTION('',(-0.,-1.,-0.));
#1216 = ORIENTED_EDGE('',*,*,#1162,.F.);
#1217 = ORIENTED_EDGE('',*,*,#529,.F.);
#1218 = FACE_BOUND('',#1219,.T.);
#1219 = EDGE_LOOP('',(#1220));
#1220 = ORIENTED_EDGE('',*,*,#1221,.T.);
#1221 = EDGE_CURVE('',#1222,#1222,#1224,.T.);
#1222 = VERTEX_POINT('',#1223);
#1223 = CARTESIAN_POINT('',(28.900000000071,-33.1,7.5));
#1224 = CIRCLE('',#1225,1.4);
#1225 = AXIS2_PLACEMENT_3D('',#1226,#1227,#1228);
#1226 = CARTESIAN_POINT('',(28.900000000071,-31.7,7.5));
#1227 = DIRECTION('',(-1.,0.,0.));
#1228 = DIRECTION('',(-0.,-1.,-0.));
#1229 = PLANE('',#1230);
#1230 = AXIS2_PLACEMENT_3D('',#1231,#1232,#1233);
#1231 = CARTESIAN_POINT('',(28.900000000071,-26.7,3.));
#1232 = DIRECTION('',(-1.,-0.,-0.));
#1233 = DIRECTION('',(0.,1.,0.));
#1234 = ADVANCED_FACE('',(#1235),#1241,.T.);
#1235 = FACE_BOUND('',#1236,.F.);
#1236 = EDGE_LOOP('',(#1237,#1238,#1239,#1240));
#1237 = ORIENTED_EDGE('',*,*,#1111,.T.);
#1238 = ORIENTED_EDGE('',*,*,#1146,.T.);
#1239 = ORIENTED_EDGE('',*,*,#799,.T.);
#1240 = ORIENTED_EDGE('',*,*,#1087,.T.);
#1241 = PLANE('',#1242);
#1242 = AXIS2_PLACEMENT_3D('',#1243,#1244,#1245);
#1243 = CARTESIAN_POINT('',(4.983036E-11,-36.97083333332,12.));
#1244 = DIRECTION('',(0.,0.,1.));
#1245 = DIRECTION('',(-1.,-0.,-0.));
#1246 = ADVANCED_FACE('',(#1247),#1258,.F.);
#1247 = FACE_BOUND('',#1248,.T.);
#1248 = EDGE_LOOP('',(#1249,#1250,#1256,#1257));
#1249 = ORIENTED_EDGE('',*,*,#823,.F.);
#1250 = ORIENTED_EDGE('',*,*,#1251,.T.);
#1251 = EDGE_CURVE('',#824,#1129,#1252,.T.);
#1252 = LINE('',#1253,#1254);
#1253 = CARTESIAN_POINT('',(28.900000000071,-33.1,7.5));
#1254 = VECTOR('',#1255,1.);
#1255 = DIRECTION('',(-1.,0.,0.));
#1256 = ORIENTED_EDGE('',*,*,#1128,.T.);
#1257 = ORIENTED_EDGE('',*,*,#1251,.F.);
#1258 = CYLINDRICAL_SURFACE('',#1259,1.4);
#1259 = AXIS2_PLACEMENT_3D('',#1260,#1261,#1262);
#1260 = CARTESIAN_POINT('',(28.900000000071,-31.7,7.5));
#1261 = DIRECTION('',(1.,0.,0.));
#1262 = DIRECTION('',(-0.,-1.,-0.));
#1263 = ADVANCED_FACE('',(#1264),#1270,.T.);
#1264 = FACE_BOUND('',#1265,.F.);
#1265 = EDGE_LOOP('',(#1266,#1267,#1268,#1269));
#1266 = ORIENTED_EDGE('',*,*,#1020,.T.);
#1267 = ORIENTED_EDGE('',*,*,#1187,.T.);
#1268 = ORIENTED_EDGE('',*,*,#1211,.T.);
#1269 = ORIENTED_EDGE('',*,*,#1170,.T.);
#1270 = PLANE('',#1271);
#1271 = AXIS2_PLACEMENT_3D('',#1272,#1273,#1274);
#1272 = CARTESIAN_POINT('',(4.983036E-11,-36.97083333332,12.));
#1273 = DIRECTION('',(0.,0.,1.));
#1274 = DIRECTION('',(-1.,-0.,-0.));
#1275 = ADVANCED_FACE('',(#1276),#1287,.F.);
#1276 = FACE_BOUND('',#1277,.T.);
#1277 = EDGE_LOOP('',(#1278,#1279,#1285,#1286));
#1278 = ORIENTED_EDGE('',*,*,#1221,.F.);
#1279 = ORIENTED_EDGE('',*,*,#1280,.T.);
#1280 = EDGE_CURVE('',#1222,#1040,#1281,.T.);
#1281 = LINE('',#1282,#1283);
#1282 = CARTESIAN_POINT('',(28.900000000071,-33.1,7.5));
#1283 = VECTOR('',#1284,1.);
#1284 = DIRECTION('',(-1.,0.,0.));
#1285 = ORIENTED_EDGE('',*,*,#1039,.T.);
#1286 = ORIENTED_EDGE('',*,*,#1280,.F.);
#1287 = CYLINDRICAL_SURFACE('',#1288,1.4);
#1288 = AXIS2_PLACEMENT_3D('',#1289,#1290,#1291);
#1289 = CARTESIAN_POINT('',(28.900000000071,-31.7,7.5));
#1290 = DIRECTION('',(1.,0.,0.));
#1291 = DIRECTION('',(-0.,-1.,-0.));
#1292 = ( GEOMETRIC_REPRESENTATION_CONTEXT(3) 
GLOBAL_UNCERTAINTY_ASSIGNED_CONTEXT((#1296)) 
GLOBAL_UNIT_ASSIGNED_CONTEXT((#1293,#1294,#1295)) REPRESENTATION_CONTEXT
('Context #1','3D Context with UNIT and UNCERTAINTY') );
#1293 = ( LENGTH_UNIT() NAMED_UNIT(*) SI_UNIT(.MILLI.,.METRE.) );
#1294 = ( NAMED_UNIT(*) PLANE_ANGLE_UNIT() SI_UNIT($,.RADIAN.) );
#1295 = ( NAMED_UNIT(*) SI_UNIT($,.STERADIAN.) SOLID_ANGLE_UNIT() );
#1296 = UNCERTAINTY_MEASURE_WITH_UNIT(LENGTH_MEASURE(1.E-07),#1293,
  'distance_accuracy_value','confusion accuracy');
#1297 = PRODUCT_RELATED_PRODUCT_CATEGORY('part',$,(#7));
#1298 = MECHANICAL_DESIGN_GEOMETRIC_PRESENTATION_REPRESENTATION('',(
    #1299),#1292);
#1299 = STYLED_ITEM('color',(#1300),#15);
#1300 = PRESENTATION_STYLE_ASSIGNMENT((#1301,#1307));
#1301 = SURFACE_STYLE_USAGE(.BOTH.,#1302);
#1302 = SURFACE_SIDE_STYLE('',(#1303));
#1303 = SURFACE_STYLE_FILL_AREA(#1304);
#1304 = FILL_AREA_STYLE('',(#1305));
#1305 = FILL_AREA_STYLE_COLOUR('',#1306);
#1306 = COLOUR_RGB('',0.447058818107,0.474509808674,0.501960817233);
#1307 = CURVE_STYLE('',#1308,POSITIVE_LENGTH_MEASURE(0.1),#1309);
#1308 = DRAUGHTING_PRE_DEFINED_CURVE_FONT('continuous');
#1309 = COLOUR_RGB('',9.803921802644E-02,9.803921802644E-02,
  9.803921802644E-02);
ENDSEC;
END-ISO-10303-21;
