ISO-10303-21;
HEADER;
FILE_DESCRIPTION(('FreeCAD Model'),'2;1');
FILE_NAME('Open CASCADE Shape Model','2026-02-22T22:51:52',(''),(''),
  'Open CASCADE STEP processor 7.8','FreeCAD','Unknown');
FILE_SCHEMA(('AUTOMOTIVE_DESIGN { 1 0 10303 214 1 1 1 1 }'));
ENDSEC;
DATA;
#1 = APPLICATION_PROTOCOL_DEFINITION('international standard',
  'automotive_design',2000,#2);
#2 = APPLICATION_CONTEXT(
  'core data for automotive mechanical design processes');
#3 = SHAPE_DEFINITION_REPRESENTATION(#4,#10);
#4 = PRODUCT_DEFINITION_SHAPE('','',#5);
#5 = PRODUCT_DEFINITION('design','',#6,#9);
#6 = PRODUCT_DEFINITION_FORMATION('','',#7);
#7 = PRODUCT('Windshield','Windshield','',(#8));
#8 = PRODUCT_CONTEXT('',#2,'mechanical');
#9 = PRODUCT_DEFINITION_CONTEXT('part definition',#2,'design');
#10 = ADVANCED_BREP_SHAPE_REPRESENTATION('',(#11,#15),#659);
#11 = AXIS2_PLACEMENT_3D('',#12,#13,#14);
#12 = CARTESIAN_POINT('',(0.,0.,0.));
#13 = DIRECTION('',(0.,0.,1.));
#14 = DIRECTION('',(1.,0.,-0.));
#15 = MANIFOLD_SOLID_BREP('',#16);
#16 = CLOSED_SHELL('',(#17,#73,#104,#128,#264,#400,#424,#441,#455,#472,
    #494,#511,#528,#540,#557,#579,#596,#613,#625,#642));
#17 = ADVANCED_FACE('',(#18),#68,.F.);
#18 = FACE_BOUND('',#19,.F.);
#19 = EDGE_LOOP('',(#20,#30,#38,#46,#54,#62));
#20 = ORIENTED_EDGE('',*,*,#21,.T.);
#21 = EDGE_CURVE('',#22,#24,#26,.T.);
#22 = VERTEX_POINT('',#23);
#23 = CARTESIAN_POINT('',(50.,53.732608552046,32.197318464479));
#24 = VERTEX_POINT('',#25);
#25 = CARTESIAN_POINT('',(50.,53.732695154587,32.197268464479));
#26 = LINE('',#27,#28);
#27 = CARTESIAN_POINT('',(50.,51.134618943233,33.697268464479));
#28 = VECTOR('',#29,1.);
#29 = DIRECTION('',(1.060575238725E-16,0.866025403784,-0.5));
#30 = ORIENTED_EDGE('',*,*,#31,.T.);
#31 = EDGE_CURVE('',#24,#32,#34,.T.);
#32 = VERTEX_POINT('',#33);
#33 = CARTESIAN_POINT('',(50.,36.834505250935,2.928744995407));
#34 = LINE('',#35,#36);
#35 = CARTESIAN_POINT('',(50.,53.732695154587,32.197268464479));
#36 = VECTOR('',#37,1.);
#37 = DIRECTION('',(6.123233995737E-17,-0.5,-0.866025403784));
#38 = ORIENTED_EDGE('',*,*,#39,.F.);
#39 = EDGE_CURVE('',#40,#32,#42,.T.);
#40 = VERTEX_POINT('',#41);
#41 = CARTESIAN_POINT('',(50.,33.884705545774,3.819342033916));
#42 = LINE('',#43,#44);
#43 = CARTESIAN_POINT('',(50.,38.39304063982,2.458195418999));
#44 = VECTOR('',#45,1.);
#45 = DIRECTION('',(8.927290962505E-17,0.957319497532,-0.289031796944));
#46 = ORIENTED_EDGE('',*,*,#47,.F.);
#47 = EDGE_CURVE('',#48,#40,#50,.T.);
#48 = VERTEX_POINT('',#49);
#49 = CARTESIAN_POINT('',(50.,33.884618943233,3.819392033916));
#50 = LINE('',#51,#52);
#51 = CARTESIAN_POINT('',(50.,33.884618943233,3.819392033916));
#52 = VECTOR('',#53,1.);
#53 = DIRECTION('',(1.060575238725E-16,0.866025403784,-0.5));
#54 = ORIENTED_EDGE('',*,*,#55,.F.);
#55 = EDGE_CURVE('',#56,#48,#58,.T.);
#56 = VERTEX_POINT('',#57);
#57 = CARTESIAN_POINT('',(50.,50.782808846885,33.087915502988));
#58 = LINE('',#59,#60);
#59 = CARTESIAN_POINT('',(50.,51.134618943233,33.697268464479));
#60 = VECTOR('',#61,1.);
#61 = DIRECTION('',(6.123233995737E-17,-0.5,-0.866025403784));
#62 = ORIENTED_EDGE('',*,*,#63,.F.);
#63 = EDGE_CURVE('',#22,#56,#64,.T.);
#64 = LINE('',#65,#66);
#65 = CARTESIAN_POINT('',(50.,51.5971661279,32.842046543991));
#66 = VECTOR('',#67,1.);
#67 = DIRECTION('',(-8.927290962505E-17,-0.957319497532,0.289031796944)
  );
#68 = PLANE('',#69);
#69 = AXIS2_PLACEMENT_3D('',#70,#71,#72);
#70 = CARTESIAN_POINT('',(50.,51.134618943233,33.697268464479));
#71 = DIRECTION('',(-1.,6.123233995737E-17,-1.060575238725E-16));
#72 = DIRECTION('',(6.123233995737E-17,-0.5,-0.866025403784));
#73 = ADVANCED_FACE('',(#74),#99,.F.);
#74 = FACE_BOUND('',#75,.F.);
#75 = EDGE_LOOP('',(#76,#86,#92,#93));
#76 = ORIENTED_EDGE('',*,*,#77,.T.);
#77 = EDGE_CURVE('',#78,#80,#82,.T.);
#78 = VERTEX_POINT('',#79);
#79 = CARTESIAN_POINT('',(-50.,53.732608552046,32.197318464479));
#80 = VERTEX_POINT('',#81);
#81 = CARTESIAN_POINT('',(-50.,53.732695154587,32.197268464479));
#82 = LINE('',#83,#84);
#83 = CARTESIAN_POINT('',(-50.,51.134618943233,33.697268464479));
#84 = VECTOR('',#85,1.);
#85 = DIRECTION('',(1.060575238725E-16,0.866025403784,-0.5));
#86 = ORIENTED_EDGE('',*,*,#87,.T.);
#87 = EDGE_CURVE('',#80,#24,#88,.T.);
#88 = LINE('',#89,#90);
#89 = CARTESIAN_POINT('',(-50.,53.732695154587,32.197268464479));
#90 = VECTOR('',#91,1.);
#91 = DIRECTION('',(1.,-6.123233995737E-17,1.060575238725E-16));
#92 = ORIENTED_EDGE('',*,*,#21,.F.);
#93 = ORIENTED_EDGE('',*,*,#94,.F.);
#94 = EDGE_CURVE('',#78,#22,#95,.T.);
#95 = LINE('',#96,#97);
#96 = CARTESIAN_POINT('',(-50.,53.732608552046,32.197318464479));
#97 = VECTOR('',#98,1.);
#98 = DIRECTION('',(1.,-6.123233995737E-17,1.060575238725E-16));
#99 = PLANE('',#100);
#100 = AXIS2_PLACEMENT_3D('',#101,#102,#103);
#101 = CARTESIAN_POINT('',(-50.,51.134618943233,33.697268464479));
#102 = DIRECTION('',(6.123233995737E-17,-0.5,-0.866025403784));
#103 = DIRECTION('',(1.,-6.123233995737E-17,1.060575238725E-16));
#104 = ADVANCED_FACE('',(#105),#123,.T.);
#105 = FACE_BOUND('',#106,.F.);
#106 = EDGE_LOOP('',(#107,#115,#116,#117));
#107 = ORIENTED_EDGE('',*,*,#108,.F.);
#108 = EDGE_CURVE('',#78,#109,#111,.T.);
#109 = VERTEX_POINT('',#110);
#110 = CARTESIAN_POINT('',(-50.,50.782808846885,33.087915502988));
#111 = LINE('',#112,#113);
#112 = CARTESIAN_POINT('',(-50.,47.82623435884,33.980557969044));
#113 = VECTOR('',#114,1.);
#114 = DIRECTION('',(-8.927290962505E-17,-0.957319497532,0.289031796944)
  );
#115 = ORIENTED_EDGE('',*,*,#94,.T.);
#116 = ORIENTED_EDGE('',*,*,#63,.T.);
#117 = ORIENTED_EDGE('',*,*,#118,.F.);
#118 = EDGE_CURVE('',#109,#56,#119,.T.);
#119 = LINE('',#120,#121);
#120 = CARTESIAN_POINT('',(-50.,50.782808846885,33.087915502988));
#121 = VECTOR('',#122,1.);
#122 = DIRECTION('',(1.,-6.123233995737E-17,1.060575238725E-16));
#123 = PLANE('',#124);
#124 = AXIS2_PLACEMENT_3D('',#125,#126,#127);
#125 = CARTESIAN_POINT('',(-50.,52.257708699466,32.642616983734));
#126 = DIRECTION('',(-9.383284221412E-17,0.289031796944,0.957319497532)
  );
#127 = DIRECTION('',(-1.,5.615597458557E-17,-1.149707122246E-16));
#128 = ADVANCED_FACE('',(#129,#147,#158,#192,#203,#237,#248),#259,.T.);
#129 = FACE_BOUND('',#130,.T.);
#130 = EDGE_LOOP('',(#131,#132,#140,#146));
#131 = ORIENTED_EDGE('',*,*,#31,.T.);
#132 = ORIENTED_EDGE('',*,*,#133,.T.);
#133 = EDGE_CURVE('',#32,#134,#136,.T.);
#134 = VERTEX_POINT('',#135);
#135 = CARTESIAN_POINT('',(-50.,36.834505250935,2.928744995407));
#136 = LINE('',#137,#138);
#137 = CARTESIAN_POINT('',(50.,36.834505250935,2.928744995407));
#138 = VECTOR('',#139,1.);
#139 = DIRECTION('',(-1.,6.123233995737E-17,-1.060575238725E-16));
#140 = ORIENTED_EDGE('',*,*,#141,.T.);
#141 = EDGE_CURVE('',#134,#80,#142,.T.);
#142 = LINE('',#143,#144);
#143 = CARTESIAN_POINT('',(-50.,36.482695154587,2.319392033916));
#144 = VECTOR('',#145,1.);
#145 = DIRECTION('',(-6.123233995737E-17,0.5,0.866025403784));
#146 = ORIENTED_EDGE('',*,*,#87,.T.);
#147 = FACE_BOUND('',#148,.T.);
#148 = EDGE_LOOP('',(#149));
#149 = ORIENTED_EDGE('',*,*,#150,.F.);
#150 = EDGE_CURVE('',#151,#151,#153,.T.);
#151 = VERTEX_POINT('',#152);
#152 = CARTESIAN_POINT('',(41.1,39.982695154587,8.381569860407));
#153 = CIRCLE('',#154,1.4);
#154 = AXIS2_PLACEMENT_3D('',#155,#156,#157);
#155 = CARTESIAN_POINT('',(42.5,39.982695154587,8.381569860407));
#156 = DIRECTION('',(1.060575238725E-16,0.866025403784,-0.5));
#157 = DIRECTION('',(-1.,6.123233995737E-17,-1.060575238725E-16));
#158 = FACE_BOUND('',#159,.T.);
#159 = EDGE_LOOP('',(#160,#170,#178,#186));
#160 = ORIENTED_EDGE('',*,*,#161,.F.);
#161 = EDGE_CURVE('',#162,#164,#166,.T.);
#162 = VERTEX_POINT('',#163);
#163 = CARTESIAN_POINT('',(37.5,51.232695154587,27.867141445557));
#164 = VERTEX_POINT('',#165);
#165 = CARTESIAN_POINT('',(37.5,38.982695154587,6.649519052838));
#166 = LINE('',#167,#168);
#167 = CARTESIAN_POINT('',(37.5,51.232695154587,27.867141445557));
#168 = VECTOR('',#169,1.);
#169 = DIRECTION('',(6.123233995737E-17,-0.5,-0.866025403784));
#170 = ORIENTED_EDGE('',*,*,#171,.F.);
#171 = EDGE_CURVE('',#172,#162,#174,.T.);
#172 = VERTEX_POINT('',#173);
#173 = CARTESIAN_POINT('',(2.5,51.232695154587,27.867141445557));
#174 = LINE('',#175,#176);
#175 = CARTESIAN_POINT('',(2.5,51.232695154587,27.867141445557));
#176 = VECTOR('',#177,1.);
#177 = DIRECTION('',(1.,-6.123233995737E-17,1.060575238725E-16));
#178 = ORIENTED_EDGE('',*,*,#179,.F.);
#179 = EDGE_CURVE('',#180,#172,#182,.T.);
#180 = VERTEX_POINT('',#181);
#181 = CARTESIAN_POINT('',(2.5,38.982695154587,6.649519052838));
#182 = LINE('',#183,#184);
#183 = CARTESIAN_POINT('',(2.5,38.982695154587,6.649519052838));
#184 = VECTOR('',#185,1.);
#185 = DIRECTION('',(-6.123233995737E-17,0.5,0.866025403784));
#186 = ORIENTED_EDGE('',*,*,#187,.F.);
#187 = EDGE_CURVE('',#164,#180,#188,.T.);
#188 = LINE('',#189,#190);
#189 = CARTESIAN_POINT('',(37.5,38.982695154587,6.649519052838));
#190 = VECTOR('',#191,1.);
#191 = DIRECTION('',(-1.,6.123233995737E-17,-1.060575238725E-16));
#192 = FACE_BOUND('',#193,.T.);
#193 = EDGE_LOOP('',(#194));
#194 = ORIENTED_EDGE('',*,*,#195,.F.);
#195 = EDGE_CURVE('',#196,#196,#198,.T.);
#196 = VERTEX_POINT('',#197);
#197 = CARTESIAN_POINT('',(-43.9,39.982695154587,8.381569860407));
#198 = CIRCLE('',#199,1.4);
#199 = AXIS2_PLACEMENT_3D('',#200,#201,#202);
#200 = CARTESIAN_POINT('',(-42.5,39.982695154587,8.381569860407));
#201 = DIRECTION('',(1.060575238725E-16,0.866025403784,-0.5));
#202 = DIRECTION('',(-1.,6.123233995737E-17,-1.060575238725E-16));
#203 = FACE_BOUND('',#204,.T.);
#204 = EDGE_LOOP('',(#205,#215,#223,#231));
#205 = ORIENTED_EDGE('',*,*,#206,.F.);
#206 = EDGE_CURVE('',#207,#209,#211,.T.);
#207 = VERTEX_POINT('',#208);
#208 = CARTESIAN_POINT('',(-2.5,51.232695154587,27.867141445557));
#209 = VERTEX_POINT('',#210);
#210 = CARTESIAN_POINT('',(-2.5,38.982695154587,6.649519052838));
#211 = LINE('',#212,#213);
#212 = CARTESIAN_POINT('',(-2.5,51.232695154587,27.867141445557));
#213 = VECTOR('',#214,1.);
#214 = DIRECTION('',(6.123233995737E-17,-0.5,-0.866025403784));
#215 = ORIENTED_EDGE('',*,*,#216,.F.);
#216 = EDGE_CURVE('',#217,#207,#219,.T.);
#217 = VERTEX_POINT('',#218);
#218 = CARTESIAN_POINT('',(-37.5,51.232695154587,27.867141445557));
#219 = LINE('',#220,#221);
#220 = CARTESIAN_POINT('',(-37.5,51.232695154587,27.867141445557));
#221 = VECTOR('',#222,1.);
#222 = DIRECTION('',(1.,-6.123233995737E-17,1.060575238725E-16));
#223 = ORIENTED_EDGE('',*,*,#224,.F.);
#224 = EDGE_CURVE('',#225,#217,#227,.T.);
#225 = VERTEX_POINT('',#226);
#226 = CARTESIAN_POINT('',(-37.5,38.982695154587,6.649519052838));
#227 = LINE('',#228,#229);
#228 = CARTESIAN_POINT('',(-37.5,38.982695154587,6.649519052838));
#229 = VECTOR('',#230,1.);
#230 = DIRECTION('',(-6.123233995737E-17,0.5,0.866025403784));
#231 = ORIENTED_EDGE('',*,*,#232,.F.);
#232 = EDGE_CURVE('',#209,#225,#233,.T.);
#233 = LINE('',#234,#235);
#234 = CARTESIAN_POINT('',(-2.5,38.982695154587,6.649519052838));
#235 = VECTOR('',#236,1.);
#236 = DIRECTION('',(-1.,6.123233995737E-17,-1.060575238725E-16));
#237 = FACE_BOUND('',#238,.T.);
#238 = EDGE_LOOP('',(#239));
#239 = ORIENTED_EDGE('',*,*,#240,.F.);
#240 = EDGE_CURVE('',#241,#241,#243,.T.);
#241 = VERTEX_POINT('',#242);
#242 = CARTESIAN_POINT('',(41.1,49.732695154587,25.269065234204));
#243 = CIRCLE('',#244,1.4);
#244 = AXIS2_PLACEMENT_3D('',#245,#246,#247);
#245 = CARTESIAN_POINT('',(42.5,49.732695154587,25.269065234204));
#246 = DIRECTION('',(1.060575238725E-16,0.866025403784,-0.5));
#247 = DIRECTION('',(-1.,6.123233995737E-17,-1.060575238725E-16));
#248 = FACE_BOUND('',#249,.T.);
#249 = EDGE_LOOP('',(#250));
#250 = ORIENTED_EDGE('',*,*,#251,.F.);
#251 = EDGE_CURVE('',#252,#252,#254,.T.);
#252 = VERTEX_POINT('',#253);
#253 = CARTESIAN_POINT('',(-43.9,49.732695154587,25.269065234204));
#254 = CIRCLE('',#255,1.4);
#255 = AXIS2_PLACEMENT_3D('',#256,#257,#258);
#256 = CARTESIAN_POINT('',(-42.5,49.732695154587,25.269065234204));
#257 = DIRECTION('',(1.060575238725E-16,0.866025403784,-0.5));
#258 = DIRECTION('',(-1.,6.123233995737E-17,-1.060575238725E-16));
#259 = PLANE('',#260);
#260 = AXIS2_PLACEMENT_3D('',#261,#262,#263);
#261 = CARTESIAN_POINT('',(2.211611251972E-16,45.083291762671,
    17.216062334523));
#262 = DIRECTION('',(1.060575238725E-16,0.866025403784,-0.5));
#263 = DIRECTION('',(-1.,6.123233995737E-17,-1.060575238725E-16));
#264 = ADVANCED_FACE('',(#265,#283,#294,#305,#339,#350,#384),#395,.F.);
#265 = FACE_BOUND('',#266,.F.);
#266 = EDGE_LOOP('',(#267,#268,#276,#282));
#267 = ORIENTED_EDGE('',*,*,#55,.T.);
#268 = ORIENTED_EDGE('',*,*,#269,.T.);
#269 = EDGE_CURVE('',#48,#270,#272,.T.);
#270 = VERTEX_POINT('',#271);
#271 = CARTESIAN_POINT('',(-50.,33.884618943233,3.819392033916));
#272 = LINE('',#273,#274);
#273 = CARTESIAN_POINT('',(50.,33.884618943233,3.819392033916));
#274 = VECTOR('',#275,1.);
#275 = DIRECTION('',(-1.,6.123233995737E-17,-1.060575238725E-16));
#276 = ORIENTED_EDGE('',*,*,#277,.T.);
#277 = EDGE_CURVE('',#270,#109,#278,.T.);
#278 = LINE('',#279,#280);
#279 = CARTESIAN_POINT('',(-50.,33.884618943233,3.819392033916));
#280 = VECTOR('',#281,1.);
#281 = DIRECTION('',(-6.123233995737E-17,0.5,0.866025403784));
#282 = ORIENTED_EDGE('',*,*,#118,.T.);
#283 = FACE_BOUND('',#284,.F.);
#284 = EDGE_LOOP('',(#285));
#285 = ORIENTED_EDGE('',*,*,#286,.F.);
#286 = EDGE_CURVE('',#287,#287,#289,.T.);
#287 = VERTEX_POINT('',#288);
#288 = CARTESIAN_POINT('',(41.1,37.384618943233,9.881569860407));
#289 = CIRCLE('',#290,1.4);
#290 = AXIS2_PLACEMENT_3D('',#291,#292,#293);
#291 = CARTESIAN_POINT('',(42.5,37.384618943233,9.881569860407));
#292 = DIRECTION('',(1.060575238725E-16,0.866025403784,-0.5));
#293 = DIRECTION('',(-1.,6.123233995737E-17,-1.060575238725E-16));
#294 = FACE_BOUND('',#295,.F.);
#295 = EDGE_LOOP('',(#296));
#296 = ORIENTED_EDGE('',*,*,#297,.F.);
#297 = EDGE_CURVE('',#298,#298,#300,.T.);
#298 = VERTEX_POINT('',#299);
#299 = CARTESIAN_POINT('',(-43.9,37.384618943233,9.881569860407));
#300 = CIRCLE('',#301,1.4);
#301 = AXIS2_PLACEMENT_3D('',#302,#303,#304);
#302 = CARTESIAN_POINT('',(-42.5,37.384618943233,9.881569860407));
#303 = DIRECTION('',(1.060575238725E-16,0.866025403784,-0.5));
#304 = DIRECTION('',(-1.,6.123233995737E-17,-1.060575238725E-16));
#305 = FACE_BOUND('',#306,.F.);
#306 = EDGE_LOOP('',(#307,#317,#325,#333));
#307 = ORIENTED_EDGE('',*,*,#308,.F.);
#308 = EDGE_CURVE('',#309,#311,#313,.T.);
#309 = VERTEX_POINT('',#310);
#310 = CARTESIAN_POINT('',(37.5,48.282797119491,28.757768171624));
#311 = VERTEX_POINT('',#312);
#312 = CARTESIAN_POINT('',(37.5,36.032797119491,7.540145778905));
#313 = LINE('',#314,#315);
#314 = CARTESIAN_POINT('',(37.5,45.559917247276,24.04160189004));
#315 = VECTOR('',#316,1.);
#316 = DIRECTION('',(6.123233995737E-17,-0.5,-0.866025403784));
#317 = ORIENTED_EDGE('',*,*,#318,.F.);
#318 = EDGE_CURVE('',#319,#309,#321,.T.);
#319 = VERTEX_POINT('',#320);
#320 = CARTESIAN_POINT('',(2.5,48.282797119491,28.757768171624));
#321 = LINE('',#322,#323);
#322 = CARTESIAN_POINT('',(1.25,48.282797119491,28.757768171624));
#323 = VECTOR('',#324,1.);
#324 = DIRECTION('',(1.,-6.123233995737E-17,1.060575238725E-16));
#325 = ORIENTED_EDGE('',*,*,#326,.F.);
#326 = EDGE_CURVE('',#327,#319,#329,.T.);
#327 = VERTEX_POINT('',#328);
#328 = CARTESIAN_POINT('',(2.5,36.032797119491,7.540145778905));
#329 = LINE('',#330,#331);
#330 = CARTESIAN_POINT('',(2.5,39.434917247276,13.432790693681));
#331 = VECTOR('',#332,1.);
#332 = DIRECTION('',(-6.123233995737E-17,0.5,0.866025403784));
#333 = ORIENTED_EDGE('',*,*,#334,.F.);
#334 = EDGE_CURVE('',#311,#327,#335,.T.);
#335 = LINE('',#336,#337);
#336 = CARTESIAN_POINT('',(18.75,36.032797119491,7.540145778905));
#337 = VECTOR('',#338,1.);
#338 = DIRECTION('',(-1.,6.123233995737E-17,-1.060575238725E-16));
#339 = FACE_BOUND('',#340,.F.);
#340 = EDGE_LOOP('',(#341));
#341 = ORIENTED_EDGE('',*,*,#342,.F.);
#342 = EDGE_CURVE('',#343,#343,#345,.T.);
#343 = VERTEX_POINT('',#344);
#344 = CARTESIAN_POINT('',(41.1,47.134618943233,26.769065234204));
#345 = CIRCLE('',#346,1.4);
#346 = AXIS2_PLACEMENT_3D('',#347,#348,#349);
#347 = CARTESIAN_POINT('',(42.5,47.134618943233,26.769065234204));
#348 = DIRECTION('',(1.060575238725E-16,0.866025403784,-0.5));
#349 = DIRECTION('',(-1.,6.123233995737E-17,-1.060575238725E-16));
#350 = FACE_BOUND('',#351,.F.);
#351 = EDGE_LOOP('',(#352,#362,#370,#378));
#352 = ORIENTED_EDGE('',*,*,#353,.F.);
#353 = EDGE_CURVE('',#354,#356,#358,.T.);
#354 = VERTEX_POINT('',#355);
#355 = CARTESIAN_POINT('',(-2.5,48.282797119491,28.757768171624));
#356 = VERTEX_POINT('',#357);
#357 = CARTESIAN_POINT('',(-2.5,36.032797119491,7.540145778905));
#358 = LINE('',#359,#360);
#359 = CARTESIAN_POINT('',(-2.5,45.559917247276,24.04160189004));
#360 = VECTOR('',#361,1.);
#361 = DIRECTION('',(6.123233995737E-17,-0.5,-0.866025403784));
#362 = ORIENTED_EDGE('',*,*,#363,.F.);
#363 = EDGE_CURVE('',#364,#354,#366,.T.);
#364 = VERTEX_POINT('',#365);
#365 = CARTESIAN_POINT('',(-37.5,48.282797119491,28.757768171624));
#366 = LINE('',#367,#368);
#367 = CARTESIAN_POINT('',(-18.75,48.282797119491,28.757768171624));
#368 = VECTOR('',#369,1.);
#369 = DIRECTION('',(1.,-6.123233995737E-17,1.060575238725E-16));
#370 = ORIENTED_EDGE('',*,*,#371,.F.);
#371 = EDGE_CURVE('',#372,#364,#374,.T.);
#372 = VERTEX_POINT('',#373);
#373 = CARTESIAN_POINT('',(-37.5,36.032797119491,7.540145778905));
#374 = LINE('',#375,#376);
#375 = CARTESIAN_POINT('',(-37.5,39.434917247276,13.432790693681));
#376 = VECTOR('',#377,1.);
#377 = DIRECTION('',(-6.123233995737E-17,0.5,0.866025403784));
#378 = ORIENTED_EDGE('',*,*,#379,.F.);
#379 = EDGE_CURVE('',#356,#372,#380,.T.);
#380 = LINE('',#381,#382);
#381 = CARTESIAN_POINT('',(-1.25,36.032797119491,7.540145778905));
#382 = VECTOR('',#383,1.);
#383 = DIRECTION('',(-1.,6.123233995737E-17,-1.060575238725E-16));
#384 = FACE_BOUND('',#385,.F.);
#385 = EDGE_LOOP('',(#386));
#386 = ORIENTED_EDGE('',*,*,#387,.F.);
#387 = EDGE_CURVE('',#388,#388,#390,.T.);
#388 = VERTEX_POINT('',#389);
#389 = CARTESIAN_POINT('',(-43.9,47.134618943233,26.769065234204));
#390 = CIRCLE('',#391,1.4);
#391 = AXIS2_PLACEMENT_3D('',#392,#393,#394);
#392 = CARTESIAN_POINT('',(-42.5,47.134618943233,26.769065234204));
#393 = DIRECTION('',(1.060575238725E-16,0.866025403784,-0.5));
#394 = DIRECTION('',(-1.,6.123233995737E-17,-1.060575238725E-16));
#395 = PLANE('',#396);
#396 = AXIS2_PLACEMENT_3D('',#397,#398,#399);
#397 = CARTESIAN_POINT('',(-9.701144642024E-17,42.485215551318,
    18.716062334523));
#398 = DIRECTION('',(1.060575238725E-16,0.866025403784,-0.5));
#399 = DIRECTION('',(-1.,6.123233995737E-17,-1.060575238725E-16));
#400 = ADVANCED_FACE('',(#401),#419,.F.);
#401 = FACE_BOUND('',#402,.T.);
#402 = EDGE_LOOP('',(#403,#404,#412,#418));
#403 = ORIENTED_EDGE('',*,*,#39,.F.);
#404 = ORIENTED_EDGE('',*,*,#405,.T.);
#405 = EDGE_CURVE('',#40,#406,#408,.T.);
#406 = VERTEX_POINT('',#407);
#407 = CARTESIAN_POINT('',(-50.,33.884705545774,3.819342033916));
#408 = LINE('',#409,#410);
#409 = CARTESIAN_POINT('',(50.,33.884705545774,3.819342033916));
#410 = VECTOR('',#411,1.);
#411 = DIRECTION('',(-1.,6.123233995737E-17,-1.060575238725E-16));
#412 = ORIENTED_EDGE('',*,*,#413,.T.);
#413 = EDGE_CURVE('',#406,#134,#414,.T.);
#414 = LINE('',#415,#416);
#415 = CARTESIAN_POINT('',(-50.,34.622108870761,3.596706844052));
#416 = VECTOR('',#417,1.);
#417 = DIRECTION('',(8.927290962505E-17,0.957319497532,-0.289031796944)
  );
#418 = ORIENTED_EDGE('',*,*,#133,.F.);
#419 = PLANE('',#420);
#420 = AXIS2_PLACEMENT_3D('',#421,#422,#423);
#421 = CARTESIAN_POINT('',(50.,35.359605398354,3.374043514662));
#422 = DIRECTION('',(-9.383284221412E-17,0.289031796944,0.957319497532)
  );
#423 = DIRECTION('',(1.,-5.615597458557E-17,1.149707122246E-16));
#424 = ADVANCED_FACE('',(#425),#436,.F.);
#425 = FACE_BOUND('',#426,.F.);
#426 = EDGE_LOOP('',(#427,#428,#429,#435));
#427 = ORIENTED_EDGE('',*,*,#47,.T.);
#428 = ORIENTED_EDGE('',*,*,#405,.T.);
#429 = ORIENTED_EDGE('',*,*,#430,.F.);
#430 = EDGE_CURVE('',#270,#406,#431,.T.);
#431 = LINE('',#432,#433);
#432 = CARTESIAN_POINT('',(-50.,33.884618943233,3.819392033916));
#433 = VECTOR('',#434,1.);
#434 = DIRECTION('',(1.060575238725E-16,0.866025403784,-0.5));
#435 = ORIENTED_EDGE('',*,*,#269,.F.);
#436 = PLANE('',#437);
#437 = AXIS2_PLACEMENT_3D('',#438,#439,#440);
#438 = CARTESIAN_POINT('',(50.,33.884618943233,3.819392033916));
#439 = DIRECTION('',(-6.123233995737E-17,0.5,0.866025403784));
#440 = DIRECTION('',(-1.,6.123233995737E-17,-1.060575238725E-16));
#441 = ADVANCED_FACE('',(#442),#450,.F.);
#442 = FACE_BOUND('',#443,.F.);
#443 = EDGE_LOOP('',(#444,#445,#446,#447,#448,#449));
#444 = ORIENTED_EDGE('',*,*,#430,.T.);
#445 = ORIENTED_EDGE('',*,*,#413,.T.);
#446 = ORIENTED_EDGE('',*,*,#141,.T.);
#447 = ORIENTED_EDGE('',*,*,#77,.F.);
#448 = ORIENTED_EDGE('',*,*,#108,.T.);
#449 = ORIENTED_EDGE('',*,*,#277,.F.);
#450 = PLANE('',#451);
#451 = AXIS2_PLACEMENT_3D('',#452,#453,#454);
#452 = CARTESIAN_POINT('',(-50.,33.884618943233,3.819392033916));
#453 = DIRECTION('',(1.,-6.123233995737E-17,1.060575238725E-16));
#454 = DIRECTION('',(-6.123233995737E-17,0.5,0.866025403784));
#455 = ADVANCED_FACE('',(#456),#467,.F.);
#456 = FACE_BOUND('',#457,.T.);
#457 = EDGE_LOOP('',(#458,#464,#465,#466));
#458 = ORIENTED_EDGE('',*,*,#459,.T.);
#459 = EDGE_CURVE('',#287,#151,#460,.T.);
#460 = LINE('',#461,#462);
#461 = CARTESIAN_POINT('',(41.1,37.384618943233,9.881569860407));
#462 = VECTOR('',#463,1.);
#463 = DIRECTION('',(1.060575238725E-16,0.866025403784,-0.5));
#464 = ORIENTED_EDGE('',*,*,#150,.T.);
#465 = ORIENTED_EDGE('',*,*,#459,.F.);
#466 = ORIENTED_EDGE('',*,*,#286,.F.);
#467 = CYLINDRICAL_SURFACE('',#468,1.4);
#468 = AXIS2_PLACEMENT_3D('',#469,#470,#471);
#469 = CARTESIAN_POINT('',(42.5,37.384618943233,9.881569860407));
#470 = DIRECTION('',(-1.060575238725E-16,-0.866025403784,0.5));
#471 = DIRECTION('',(-1.,6.123233995737E-17,-1.060575238725E-16));
#472 = ADVANCED_FACE('',(#473),#489,.F.);
#473 = FACE_BOUND('',#474,.F.);
#474 = EDGE_LOOP('',(#475,#476,#482,#483));
#475 = ORIENTED_EDGE('',*,*,#161,.F.);
#476 = ORIENTED_EDGE('',*,*,#477,.T.);
#477 = EDGE_CURVE('',#162,#309,#478,.T.);
#478 = LINE('',#479,#480);
#479 = CARTESIAN_POINT('',(37.5,51.232695154587,27.867141445557));
#480 = VECTOR('',#481,1.);
#481 = DIRECTION('',(-8.927290962505E-17,-0.957319497532,0.289031796944)
  );
#482 = ORIENTED_EDGE('',*,*,#308,.T.);
#483 = ORIENTED_EDGE('',*,*,#484,.F.);
#484 = EDGE_CURVE('',#164,#311,#485,.T.);
#485 = LINE('',#486,#487);
#486 = CARTESIAN_POINT('',(37.5,38.982695154587,6.649519052838));
#487 = VECTOR('',#488,1.);
#488 = DIRECTION('',(-8.927290962505E-17,-0.957319497532,0.289031796944)
  );
#489 = PLANE('',#490);
#490 = AXIS2_PLACEMENT_3D('',#491,#492,#493);
#491 = CARTESIAN_POINT('',(37.5,51.232695154587,27.867141445557));
#492 = DIRECTION('',(1.,-6.123233995737E-17,1.060575238725E-16));
#493 = DIRECTION('',(6.123233995737E-17,-0.5,-0.866025403784));
#494 = ADVANCED_FACE('',(#495),#506,.F.);
#495 = FACE_BOUND('',#496,.F.);
#496 = EDGE_LOOP('',(#497,#498,#499,#500));
#497 = ORIENTED_EDGE('',*,*,#187,.F.);
#498 = ORIENTED_EDGE('',*,*,#484,.T.);
#499 = ORIENTED_EDGE('',*,*,#334,.T.);
#500 = ORIENTED_EDGE('',*,*,#501,.F.);
#501 = EDGE_CURVE('',#180,#327,#502,.T.);
#502 = LINE('',#503,#504);
#503 = CARTESIAN_POINT('',(2.5,38.982695154587,6.649519052838));
#504 = VECTOR('',#505,1.);
#505 = DIRECTION('',(-8.927290962505E-17,-0.957319497532,0.289031796944)
  );
#506 = PLANE('',#507);
#507 = AXIS2_PLACEMENT_3D('',#508,#509,#510);
#508 = CARTESIAN_POINT('',(37.5,38.982695154587,6.649519052838));
#509 = DIRECTION('',(8.383284221412E-17,-0.289031796944,-0.957319497532)
  );
#510 = DIRECTION('',(-1.,6.123233995737E-17,-1.060575238725E-16));
#511 = ADVANCED_FACE('',(#512),#523,.F.);
#512 = FACE_BOUND('',#513,.F.);
#513 = EDGE_LOOP('',(#514,#515,#516,#517));
#514 = ORIENTED_EDGE('',*,*,#179,.F.);
#515 = ORIENTED_EDGE('',*,*,#501,.T.);
#516 = ORIENTED_EDGE('',*,*,#326,.T.);
#517 = ORIENTED_EDGE('',*,*,#518,.F.);
#518 = EDGE_CURVE('',#172,#319,#519,.T.);
#519 = LINE('',#520,#521);
#520 = CARTESIAN_POINT('',(2.5,51.232695154587,27.867141445557));
#521 = VECTOR('',#522,1.);
#522 = DIRECTION('',(-8.927290962505E-17,-0.957319497532,0.289031796944)
  );
#523 = PLANE('',#524);
#524 = AXIS2_PLACEMENT_3D('',#525,#526,#527);
#525 = CARTESIAN_POINT('',(2.5,38.982695154587,6.649519052838));
#526 = DIRECTION('',(-1.,6.123233995737E-17,-1.060575238725E-16));
#527 = DIRECTION('',(-6.123233995737E-17,0.5,0.866025403784));
#528 = ADVANCED_FACE('',(#529),#535,.F.);
#529 = FACE_BOUND('',#530,.F.);
#530 = EDGE_LOOP('',(#531,#532,#533,#534));
#531 = ORIENTED_EDGE('',*,*,#171,.F.);
#532 = ORIENTED_EDGE('',*,*,#518,.T.);
#533 = ORIENTED_EDGE('',*,*,#318,.T.);
#534 = ORIENTED_EDGE('',*,*,#477,.F.);
#535 = PLANE('',#536);
#536 = AXIS2_PLACEMENT_3D('',#537,#538,#539);
#537 = CARTESIAN_POINT('',(2.5,51.232695154587,27.867141445557));
#538 = DIRECTION('',(-8.383284221412E-17,0.289031796944,0.957319497532)
  );
#539 = DIRECTION('',(1.,-6.123233995737E-17,1.060575238725E-16));
#540 = ADVANCED_FACE('',(#541),#552,.F.);
#541 = FACE_BOUND('',#542,.T.);
#542 = EDGE_LOOP('',(#543,#549,#550,#551));
#543 = ORIENTED_EDGE('',*,*,#544,.T.);
#544 = EDGE_CURVE('',#298,#196,#545,.T.);
#545 = LINE('',#546,#547);
#546 = CARTESIAN_POINT('',(-43.9,37.384618943233,9.881569860407));
#547 = VECTOR('',#548,1.);
#548 = DIRECTION('',(1.060575238725E-16,0.866025403784,-0.5));
#549 = ORIENTED_EDGE('',*,*,#195,.T.);
#550 = ORIENTED_EDGE('',*,*,#544,.F.);
#551 = ORIENTED_EDGE('',*,*,#297,.F.);
#552 = CYLINDRICAL_SURFACE('',#553,1.4);
#553 = AXIS2_PLACEMENT_3D('',#554,#555,#556);
#554 = CARTESIAN_POINT('',(-42.5,37.384618943233,9.881569860407));
#555 = DIRECTION('',(-1.060575238725E-16,-0.866025403784,0.5));
#556 = DIRECTION('',(-1.,6.123233995737E-17,-1.060575238725E-16));
#557 = ADVANCED_FACE('',(#558),#574,.F.);
#558 = FACE_BOUND('',#559,.F.);
#559 = EDGE_LOOP('',(#560,#561,#567,#568));
#560 = ORIENTED_EDGE('',*,*,#206,.F.);
#561 = ORIENTED_EDGE('',*,*,#562,.T.);
#562 = EDGE_CURVE('',#207,#354,#563,.T.);
#563 = LINE('',#564,#565);
#564 = CARTESIAN_POINT('',(-2.5,51.232695154587,27.867141445557));
#565 = VECTOR('',#566,1.);
#566 = DIRECTION('',(-8.927290962505E-17,-0.957319497532,0.289031796944)
  );
#567 = ORIENTED_EDGE('',*,*,#353,.T.);
#568 = ORIENTED_EDGE('',*,*,#569,.F.);
#569 = EDGE_CURVE('',#209,#356,#570,.T.);
#570 = LINE('',#571,#572);
#571 = CARTESIAN_POINT('',(-2.5,38.982695154587,6.649519052838));
#572 = VECTOR('',#573,1.);
#573 = DIRECTION('',(-8.927290962505E-17,-0.957319497532,0.289031796944)
  );
#574 = PLANE('',#575);
#575 = AXIS2_PLACEMENT_3D('',#576,#577,#578);
#576 = CARTESIAN_POINT('',(-2.5,51.232695154587,27.867141445557));
#577 = DIRECTION('',(1.,-6.123233995737E-17,1.060575238725E-16));
#578 = DIRECTION('',(6.123233995737E-17,-0.5,-0.866025403784));
#579 = ADVANCED_FACE('',(#580),#591,.F.);
#580 = FACE_BOUND('',#581,.F.);
#581 = EDGE_LOOP('',(#582,#583,#584,#585));
#582 = ORIENTED_EDGE('',*,*,#232,.F.);
#583 = ORIENTED_EDGE('',*,*,#569,.T.);
#584 = ORIENTED_EDGE('',*,*,#379,.T.);
#585 = ORIENTED_EDGE('',*,*,#586,.F.);
#586 = EDGE_CURVE('',#225,#372,#587,.T.);
#587 = LINE('',#588,#589);
#588 = CARTESIAN_POINT('',(-37.5,38.982695154587,6.649519052838));
#589 = VECTOR('',#590,1.);
#590 = DIRECTION('',(-8.927290962505E-17,-0.957319497532,0.289031796944)
  );
#591 = PLANE('',#592);
#592 = AXIS2_PLACEMENT_3D('',#593,#594,#595);
#593 = CARTESIAN_POINT('',(-2.5,38.982695154587,6.649519052838));
#594 = DIRECTION('',(8.383284221412E-17,-0.289031796944,-0.957319497532)
  );
#595 = DIRECTION('',(-1.,6.123233995737E-17,-1.060575238725E-16));
#596 = ADVANCED_FACE('',(#597),#608,.F.);
#597 = FACE_BOUND('',#598,.F.);
#598 = EDGE_LOOP('',(#599,#600,#601,#602));
#599 = ORIENTED_EDGE('',*,*,#224,.F.);
#600 = ORIENTED_EDGE('',*,*,#586,.T.);
#601 = ORIENTED_EDGE('',*,*,#371,.T.);
#602 = ORIENTED_EDGE('',*,*,#603,.F.);
#603 = EDGE_CURVE('',#217,#364,#604,.T.);
#604 = LINE('',#605,#606);
#605 = CARTESIAN_POINT('',(-37.5,51.232695154587,27.867141445557));
#606 = VECTOR('',#607,1.);
#607 = DIRECTION('',(-8.927290962505E-17,-0.957319497532,0.289031796944)
  );
#608 = PLANE('',#609);
#609 = AXIS2_PLACEMENT_3D('',#610,#611,#612);
#610 = CARTESIAN_POINT('',(-37.5,38.982695154587,6.649519052838));
#611 = DIRECTION('',(-1.,6.123233995737E-17,-1.060575238725E-16));
#612 = DIRECTION('',(-6.123233995737E-17,0.5,0.866025403784));
#613 = ADVANCED_FACE('',(#614),#620,.F.);
#614 = FACE_BOUND('',#615,.F.);
#615 = EDGE_LOOP('',(#616,#617,#618,#619));
#616 = ORIENTED_EDGE('',*,*,#216,.F.);
#617 = ORIENTED_EDGE('',*,*,#603,.T.);
#618 = ORIENTED_EDGE('',*,*,#363,.T.);
#619 = ORIENTED_EDGE('',*,*,#562,.F.);
#620 = PLANE('',#621);
#621 = AXIS2_PLACEMENT_3D('',#622,#623,#624);
#622 = CARTESIAN_POINT('',(-37.5,51.232695154587,27.867141445557));
#623 = DIRECTION('',(-8.383284221412E-17,0.289031796944,0.957319497532)
  );
#624 = DIRECTION('',(1.,-6.123233995737E-17,1.060575238725E-16));
#625 = ADVANCED_FACE('',(#626),#637,.F.);
#626 = FACE_BOUND('',#627,.T.);
#627 = EDGE_LOOP('',(#628,#634,#635,#636));
#628 = ORIENTED_EDGE('',*,*,#629,.T.);
#629 = EDGE_CURVE('',#343,#241,#630,.T.);
#630 = LINE('',#631,#632);
#631 = CARTESIAN_POINT('',(41.1,47.134618943233,26.769065234204));
#632 = VECTOR('',#633,1.);
#633 = DIRECTION('',(1.060575238725E-16,0.866025403784,-0.5));
#634 = ORIENTED_EDGE('',*,*,#240,.T.);
#635 = ORIENTED_EDGE('',*,*,#629,.F.);
#636 = ORIENTED_EDGE('',*,*,#342,.F.);
#637 = CYLINDRICAL_SURFACE('',#638,1.4);
#638 = AXIS2_PLACEMENT_3D('',#639,#640,#641);
#639 = CARTESIAN_POINT('',(42.5,47.134618943233,26.769065234204));
#640 = DIRECTION('',(-1.060575238725E-16,-0.866025403784,0.5));
#641 = DIRECTION('',(-1.,6.123233995737E-17,-1.060575238725E-16));
#642 = ADVANCED_FACE('',(#643),#654,.F.);
#643 = FACE_BOUND('',#644,.T.);
#644 = EDGE_LOOP('',(#645,#651,#652,#653));
#645 = ORIENTED_EDGE('',*,*,#646,.T.);
#646 = EDGE_CURVE('',#388,#252,#647,.T.);
#647 = LINE('',#648,#649);
#648 = CARTESIAN_POINT('',(-43.9,47.134618943233,26.769065234204));
#649 = VECTOR('',#650,1.);
#650 = DIRECTION('',(1.060575238725E-16,0.866025403784,-0.5));
#651 = ORIENTED_EDGE('',*,*,#251,.T.);
#652 = ORIENTED_EDGE('',*,*,#646,.F.);
#653 = ORIENTED_EDGE('',*,*,#387,.F.);
#654 = CYLINDRICAL_SURFACE('',#655,1.4);
#655 = AXIS2_PLACEMENT_3D('',#656,#657,#658);
#656 = CARTESIAN_POINT('',(-42.5,47.134618943233,26.769065234204));
#657 = DIRECTION('',(-1.060575238725E-16,-0.866025403784,0.5));
#658 = DIRECTION('',(-1.,6.123233995737E-17,-1.060575238725E-16));
#659 = ( GEOMETRIC_REPRESENTATION_CONTEXT(3) 
GLOBAL_UNCERTAINTY_ASSIGNED_CONTEXT((#663)) GLOBAL_UNIT_ASSIGNED_CONTEXT
((#660,#661,#662)) REPRESENTATION_CONTEXT('Context #1',
  '3D Context with UNIT and UNCERTAINTY') );
#660 = ( LENGTH_UNIT() NAMED_UNIT(*) SI_UNIT(.MILLI.,.METRE.) );
#661 = ( NAMED_UNIT(*) PLANE_ANGLE_UNIT() SI_UNIT($,.RADIAN.) );
#662 = ( NAMED_UNIT(*) SI_UNIT($,.STERADIAN.) SOLID_ANGLE_UNIT() );
#663 = UNCERTAINTY_MEASURE_WITH_UNIT(LENGTH_MEASURE(1.E-05),#660,
  'distance_accuracy_value','confusion accuracy');
#664 = PRODUCT_RELATED_PRODUCT_CATEGORY('part',$,(#7));
#665 = MECHANICAL_DESIGN_GEOMETRIC_PRESENTATION_REPRESENTATION('',(#666)
  ,#659);
#666 = STYLED_ITEM('color',(#667),#15);
#667 = PRESENTATION_STYLE_ASSIGNMENT((#668,#674));
#668 = SURFACE_STYLE_USAGE(.BOTH.,#669);
#669 = SURFACE_SIDE_STYLE('',(#670));
#670 = SURFACE_STYLE_FILL_AREA(#671);
#671 = FILL_AREA_STYLE('',(#672));
#672 = FILL_AREA_STYLE_COLOUR('',#673);
#673 = COLOUR_RGB('',0.447058818107,0.474509808674,0.501960817233);
#674 = CURVE_STYLE('',#675,POSITIVE_LENGTH_MEASURE(0.1),#676);
#675 = DRAUGHTING_PRE_DEFINED_CURVE_FONT('continuous');
#676 = COLOUR_RGB('',9.803921802644E-02,9.803921802644E-02,
  9.803921802644E-02);
ENDSEC;
END-ISO-10303-21;
