ISO-10303-21;
HEADER;
FILE_DESCRIPTION(('FreeCAD Model'),'2;1');
FILE_NAME('Open CASCADE Shape Model','2026-02-22T22:53:38',(''),(''),
  'Open CASCADE STEP processor 7.8','FreeCAD','Unknown');
FILE_SCHEMA(('AUTOMOTIVE_DESIGN { 1 0 10303 214 1 1 1 1 }'));
ENDSEC;
DATA;
#1 = APPLICATION_PROTOCOL_DEFINITION('international standard',
  'automotive_design',2000,#2);
#2 = APPLICATION_CONTEXT(
  'core data for automotive mechanical design processes');
#3 = SHAPE_DEFINITION_REPRESENTATION(#4,#10);
#4 = PRODUCT_DEFINITION_SHAPE('','',#5);
#5 = PRODUCT_DEFINITION('design','',#6,#9);
#6 = PRODUCT_DEFINITION_FORMATION('','',#7);
#7 = PRODUCT('GY-271 Restraint Cap','GY-271 Restraint Cap','',(#8));
#8 = PRODUCT_CONTEXT('',#2,'mechanical');
#9 = PRODUCT_DEFINITION_CONTEXT('part definition',#2,'design');
#10 = ADVANCED_BREP_SHAPE_REPRESENTATION('',(#11,#15),#443);
#11 = AXIS2_PLACEMENT_3D('',#12,#13,#14);
#12 = CARTESIAN_POINT('',(0.,0.,0.));
#13 = DIRECTION('',(0.,0.,1.));
#14 = DIRECTION('',(1.,0.,-0.));
#15 = MANIFOLD_SOLID_BREP('',#16);
#16 = CLOSED_SHELL('',(#17,#91,#122,#146,#170,#187,#218,#242,#266,#283,
    #329,#375,#397,#414,#431));
#17 = ADVANCED_FACE('',(#18,#52),#86,.F.);
#18 = FACE_BOUND('',#19,.F.);
#19 = EDGE_LOOP('',(#20,#30,#38,#46));
#20 = ORIENTED_EDGE('',*,*,#21,.T.);
#21 = EDGE_CURVE('',#22,#24,#26,.T.);
#22 = VERTEX_POINT('',#23);
#23 = CARTESIAN_POINT('',(-11.,32.5,22.));
#24 = VERTEX_POINT('',#25);
#25 = CARTESIAN_POINT('',(-11.,55.5,22.));
#26 = LINE('',#27,#28);
#27 = CARTESIAN_POINT('',(-11.,32.5,22.));
#28 = VECTOR('',#29,1.);
#29 = DIRECTION('',(0.,1.,-1.224646799147E-16));
#30 = ORIENTED_EDGE('',*,*,#31,.T.);
#31 = EDGE_CURVE('',#24,#32,#34,.T.);
#32 = VERTEX_POINT('',#33);
#33 = CARTESIAN_POINT('',(11.,55.5,22.));
#34 = LINE('',#35,#36);
#35 = CARTESIAN_POINT('',(-11.,55.5,22.));
#36 = VECTOR('',#37,1.);
#37 = DIRECTION('',(1.,0.,0.));
#38 = ORIENTED_EDGE('',*,*,#39,.T.);
#39 = EDGE_CURVE('',#32,#40,#42,.T.);
#40 = VERTEX_POINT('',#41);
#41 = CARTESIAN_POINT('',(11.,32.5,22.));
#42 = LINE('',#43,#44);
#43 = CARTESIAN_POINT('',(11.,55.5,22.));
#44 = VECTOR('',#45,1.);
#45 = DIRECTION('',(0.,-1.,1.224646799147E-16));
#46 = ORIENTED_EDGE('',*,*,#47,.T.);
#47 = EDGE_CURVE('',#40,#22,#48,.T.);
#48 = LINE('',#49,#50);
#49 = CARTESIAN_POINT('',(11.,32.5,22.));
#50 = VECTOR('',#51,1.);
#51 = DIRECTION('',(-1.,0.,0.));
#52 = FACE_BOUND('',#53,.F.);
#53 = EDGE_LOOP('',(#54,#64,#72,#80));
#54 = ORIENTED_EDGE('',*,*,#55,.F.);
#55 = EDGE_CURVE('',#56,#58,#60,.T.);
#56 = VERTEX_POINT('',#57);
#57 = CARTESIAN_POINT('',(-3.2,47.3,22.));
#58 = VERTEX_POINT('',#59);
#59 = CARTESIAN_POINT('',(-3.2,51.3,22.));
#60 = LINE('',#61,#62);
#61 = CARTESIAN_POINT('',(-3.2,45.65,22.));
#62 = VECTOR('',#63,1.);
#63 = DIRECTION('',(0.,1.,-1.224646799147E-16));
#64 = ORIENTED_EDGE('',*,*,#65,.F.);
#65 = EDGE_CURVE('',#66,#56,#68,.T.);
#66 = VERTEX_POINT('',#67);
#67 = CARTESIAN_POINT('',(6.8,47.3,22.));
#68 = LINE('',#69,#70);
#69 = CARTESIAN_POINT('',(3.4,47.3,22.));
#70 = VECTOR('',#71,1.);
#71 = DIRECTION('',(-1.,-0.,0.));
#72 = ORIENTED_EDGE('',*,*,#73,.F.);
#73 = EDGE_CURVE('',#74,#66,#76,.T.);
#74 = VERTEX_POINT('',#75);
#75 = CARTESIAN_POINT('',(6.8,51.3,22.));
#76 = LINE('',#77,#78);
#77 = CARTESIAN_POINT('',(6.8,47.65,22.));
#78 = VECTOR('',#79,1.);
#79 = DIRECTION('',(0.,-1.,1.224646799147E-16));
#80 = ORIENTED_EDGE('',*,*,#81,.F.);
#81 = EDGE_CURVE('',#58,#74,#82,.T.);
#82 = LINE('',#83,#84);
#83 = CARTESIAN_POINT('',(-1.6,51.3,22.));
#84 = VECTOR('',#85,1.);
#85 = DIRECTION('',(1.,0.,0.));
#86 = PLANE('',#87);
#87 = AXIS2_PLACEMENT_3D('',#88,#89,#90);
#88 = CARTESIAN_POINT('',(2.0432E-13,44.,22.));
#89 = DIRECTION('',(0.,-1.224646799147E-16,-1.));
#90 = DIRECTION('',(1.,0.,0.));
#91 = ADVANCED_FACE('',(#92),#117,.T.);
#92 = FACE_BOUND('',#93,.T.);
#93 = EDGE_LOOP('',(#94,#95,#103,#111));
#94 = ORIENTED_EDGE('',*,*,#21,.T.);
#95 = ORIENTED_EDGE('',*,*,#96,.T.);
#96 = EDGE_CURVE('',#24,#97,#99,.T.);
#97 = VERTEX_POINT('',#98);
#98 = CARTESIAN_POINT('',(-11.,55.5,15.));
#99 = LINE('',#100,#101);
#100 = CARTESIAN_POINT('',(-11.,55.5,22.));
#101 = VECTOR('',#102,1.);
#102 = DIRECTION('',(0.,-1.224646799147E-16,-1.));
#103 = ORIENTED_EDGE('',*,*,#104,.F.);
#104 = EDGE_CURVE('',#105,#97,#107,.T.);
#105 = VERTEX_POINT('',#106);
#106 = CARTESIAN_POINT('',(-11.,32.5,15.));
#107 = LINE('',#108,#109);
#108 = CARTESIAN_POINT('',(-11.,32.5,15.));
#109 = VECTOR('',#110,1.);
#110 = DIRECTION('',(0.,1.,-1.224646799147E-16));
#111 = ORIENTED_EDGE('',*,*,#112,.F.);
#112 = EDGE_CURVE('',#22,#105,#113,.T.);
#113 = LINE('',#114,#115);
#114 = CARTESIAN_POINT('',(-11.,32.5,20.));
#115 = VECTOR('',#116,1.);
#116 = DIRECTION('',(0.,-1.224646799147E-16,-1.));
#117 = PLANE('',#118);
#118 = AXIS2_PLACEMENT_3D('',#119,#120,#121);
#119 = CARTESIAN_POINT('',(-11.,44.,18.5));
#120 = DIRECTION('',(-1.,3.40451810163E-30,2.78E-14));
#121 = DIRECTION('',(2.78E-14,1.224646799147E-16,1.));
#122 = ADVANCED_FACE('',(#123),#141,.T.);
#123 = FACE_BOUND('',#124,.T.);
#124 = EDGE_LOOP('',(#125,#126,#127,#135));
#125 = ORIENTED_EDGE('',*,*,#47,.T.);
#126 = ORIENTED_EDGE('',*,*,#112,.T.);
#127 = ORIENTED_EDGE('',*,*,#128,.F.);
#128 = EDGE_CURVE('',#129,#105,#131,.T.);
#129 = VERTEX_POINT('',#130);
#130 = CARTESIAN_POINT('',(11.,32.5,15.));
#131 = LINE('',#132,#133);
#132 = CARTESIAN_POINT('',(11.,32.5,15.));
#133 = VECTOR('',#134,1.);
#134 = DIRECTION('',(-1.,0.,0.));
#135 = ORIENTED_EDGE('',*,*,#136,.F.);
#136 = EDGE_CURVE('',#40,#129,#137,.T.);
#137 = LINE('',#138,#139);
#138 = CARTESIAN_POINT('',(11.,32.5,20.));
#139 = VECTOR('',#140,1.);
#140 = DIRECTION('',(0.,-1.224646799147E-16,-1.));
#141 = PLANE('',#142);
#142 = AXIS2_PLACEMENT_3D('',#143,#144,#145);
#143 = CARTESIAN_POINT('',(9.139E-14,32.5,18.5));
#144 = DIRECTION('',(0.,-1.,-4.813753532009E-14));
#145 = DIRECTION('',(0.,4.813753532009E-14,-1.));
#146 = ADVANCED_FACE('',(#147),#165,.T.);
#147 = FACE_BOUND('',#148,.T.);
#148 = EDGE_LOOP('',(#149,#150,#151,#159));
#149 = ORIENTED_EDGE('',*,*,#96,.F.);
#150 = ORIENTED_EDGE('',*,*,#31,.T.);
#151 = ORIENTED_EDGE('',*,*,#152,.T.);
#152 = EDGE_CURVE('',#32,#153,#155,.T.);
#153 = VERTEX_POINT('',#154);
#154 = CARTESIAN_POINT('',(11.,55.5,15.));
#155 = LINE('',#156,#157);
#156 = CARTESIAN_POINT('',(11.,55.5,22.));
#157 = VECTOR('',#158,1.);
#158 = DIRECTION('',(0.,-1.224646799147E-16,-1.));
#159 = ORIENTED_EDGE('',*,*,#160,.F.);
#160 = EDGE_CURVE('',#97,#153,#161,.T.);
#161 = LINE('',#162,#163);
#162 = CARTESIAN_POINT('',(-11.,55.5,15.));
#163 = VECTOR('',#164,1.);
#164 = DIRECTION('',(1.,0.,0.));
#165 = PLANE('',#166);
#166 = AXIS2_PLACEMENT_3D('',#167,#168,#169);
#167 = CARTESIAN_POINT('',(9.139E-14,55.5,18.5));
#168 = DIRECTION('',(0.,1.,4.861753532009E-14));
#169 = DIRECTION('',(0.,-4.861753532009E-14,1.));
#170 = ADVANCED_FACE('',(#171),#182,.T.);
#171 = FACE_BOUND('',#172,.T.);
#172 = EDGE_LOOP('',(#173,#174,#175,#176));
#173 = ORIENTED_EDGE('',*,*,#152,.F.);
#174 = ORIENTED_EDGE('',*,*,#39,.T.);
#175 = ORIENTED_EDGE('',*,*,#136,.T.);
#176 = ORIENTED_EDGE('',*,*,#177,.F.);
#177 = EDGE_CURVE('',#153,#129,#178,.T.);
#178 = LINE('',#179,#180);
#179 = CARTESIAN_POINT('',(11.,55.5,15.));
#180 = VECTOR('',#181,1.);
#181 = DIRECTION('',(0.,-1.,1.224646799147E-16));
#182 = PLANE('',#183);
#183 = AXIS2_PLACEMENT_3D('',#184,#185,#186);
#184 = CARTESIAN_POINT('',(11.,44.,18.5));
#185 = DIRECTION('',(1.,-3.40451810163E-30,-2.78E-14));
#186 = DIRECTION('',(-2.78E-14,-1.224646799147E-16,-1.));
#187 = ADVANCED_FACE('',(#188),#213,.F.);
#188 = FACE_BOUND('',#189,.F.);
#189 = EDGE_LOOP('',(#190,#200,#206,#207));
#190 = ORIENTED_EDGE('',*,*,#191,.F.);
#191 = EDGE_CURVE('',#192,#194,#196,.T.);
#192 = VERTEX_POINT('',#193);
#193 = CARTESIAN_POINT('',(-3.2,47.3,20.));
#194 = VERTEX_POINT('',#195);
#195 = CARTESIAN_POINT('',(-3.2,51.3,20.));
#196 = LINE('',#197,#198);
#197 = CARTESIAN_POINT('',(-3.2,47.3,20.));
#198 = VECTOR('',#199,1.);
#199 = DIRECTION('',(0.,1.,-1.224646799147E-16));
#200 = ORIENTED_EDGE('',*,*,#201,.T.);
#201 = EDGE_CURVE('',#192,#56,#202,.T.);
#202 = LINE('',#203,#204);
#203 = CARTESIAN_POINT('',(-3.2,47.3,20.));
#204 = VECTOR('',#205,1.);
#205 = DIRECTION('',(-0.,1.224646799147E-16,1.));
#206 = ORIENTED_EDGE('',*,*,#55,.T.);
#207 = ORIENTED_EDGE('',*,*,#208,.F.);
#208 = EDGE_CURVE('',#194,#58,#209,.T.);
#209 = LINE('',#210,#211);
#210 = CARTESIAN_POINT('',(-3.2,51.3,20.));
#211 = VECTOR('',#212,1.);
#212 = DIRECTION('',(-0.,1.224646799147E-16,1.));
#213 = PLANE('',#214);
#214 = AXIS2_PLACEMENT_3D('',#215,#216,#217);
#215 = CARTESIAN_POINT('',(-3.2,47.3,20.));
#216 = DIRECTION('',(-1.,-0.,0.));
#217 = DIRECTION('',(0.,1.,-1.224646799147E-16));
#218 = ADVANCED_FACE('',(#219),#237,.F.);
#219 = FACE_BOUND('',#220,.F.);
#220 = EDGE_LOOP('',(#221,#229,#230,#231));
#221 = ORIENTED_EDGE('',*,*,#222,.F.);
#222 = EDGE_CURVE('',#194,#223,#225,.T.);
#223 = VERTEX_POINT('',#224);
#224 = CARTESIAN_POINT('',(6.8,51.3,20.));
#225 = LINE('',#226,#227);
#226 = CARTESIAN_POINT('',(-3.2,51.3,20.));
#227 = VECTOR('',#228,1.);
#228 = DIRECTION('',(1.,0.,0.));
#229 = ORIENTED_EDGE('',*,*,#208,.T.);
#230 = ORIENTED_EDGE('',*,*,#81,.T.);
#231 = ORIENTED_EDGE('',*,*,#232,.F.);
#232 = EDGE_CURVE('',#223,#74,#233,.T.);
#233 = LINE('',#234,#235);
#234 = CARTESIAN_POINT('',(6.8,51.3,20.));
#235 = VECTOR('',#236,1.);
#236 = DIRECTION('',(-0.,1.224646799147E-16,1.));
#237 = PLANE('',#238);
#238 = AXIS2_PLACEMENT_3D('',#239,#240,#241);
#239 = CARTESIAN_POINT('',(-3.2,51.3,20.));
#240 = DIRECTION('',(0.,1.,-1.224646799147E-16));
#241 = DIRECTION('',(1.,0.,0.));
#242 = ADVANCED_FACE('',(#243),#261,.F.);
#243 = FACE_BOUND('',#244,.F.);
#244 = EDGE_LOOP('',(#245,#253,#254,#255));
#245 = ORIENTED_EDGE('',*,*,#246,.F.);
#246 = EDGE_CURVE('',#223,#247,#249,.T.);
#247 = VERTEX_POINT('',#248);
#248 = CARTESIAN_POINT('',(6.8,47.3,20.));
#249 = LINE('',#250,#251);
#250 = CARTESIAN_POINT('',(6.8,51.3,20.));
#251 = VECTOR('',#252,1.);
#252 = DIRECTION('',(0.,-1.,1.224646799147E-16));
#253 = ORIENTED_EDGE('',*,*,#232,.T.);
#254 = ORIENTED_EDGE('',*,*,#73,.T.);
#255 = ORIENTED_EDGE('',*,*,#256,.F.);
#256 = EDGE_CURVE('',#247,#66,#257,.T.);
#257 = LINE('',#258,#259);
#258 = CARTESIAN_POINT('',(6.8,47.3,20.));
#259 = VECTOR('',#260,1.);
#260 = DIRECTION('',(-0.,1.224646799147E-16,1.));
#261 = PLANE('',#262);
#262 = AXIS2_PLACEMENT_3D('',#263,#264,#265);
#263 = CARTESIAN_POINT('',(6.8,51.3,20.));
#264 = DIRECTION('',(1.,0.,0.));
#265 = DIRECTION('',(0.,-1.,1.224646799147E-16));
#266 = ADVANCED_FACE('',(#267),#278,.F.);
#267 = FACE_BOUND('',#268,.F.);
#268 = EDGE_LOOP('',(#269,#275,#276,#277));
#269 = ORIENTED_EDGE('',*,*,#270,.F.);
#270 = EDGE_CURVE('',#247,#192,#271,.T.);
#271 = LINE('',#272,#273);
#272 = CARTESIAN_POINT('',(6.8,47.3,20.));
#273 = VECTOR('',#274,1.);
#274 = DIRECTION('',(-1.,0.,0.));
#275 = ORIENTED_EDGE('',*,*,#256,.T.);
#276 = ORIENTED_EDGE('',*,*,#65,.T.);
#277 = ORIENTED_EDGE('',*,*,#201,.F.);
#278 = PLANE('',#279);
#279 = AXIS2_PLACEMENT_3D('',#280,#281,#282);
#280 = CARTESIAN_POINT('',(6.8,47.3,20.));
#281 = DIRECTION('',(0.,-1.,1.224646799147E-16));
#282 = DIRECTION('',(-1.,-0.,0.));
#283 = ADVANCED_FACE('',(#284,#290),#324,.T.);
#284 = FACE_BOUND('',#285,.T.);
#285 = EDGE_LOOP('',(#286,#287,#288,#289));
#286 = ORIENTED_EDGE('',*,*,#104,.T.);
#287 = ORIENTED_EDGE('',*,*,#160,.T.);
#288 = ORIENTED_EDGE('',*,*,#177,.T.);
#289 = ORIENTED_EDGE('',*,*,#128,.T.);
#290 = FACE_BOUND('',#291,.F.);
#291 = EDGE_LOOP('',(#292,#302,#310,#318));
#292 = ORIENTED_EDGE('',*,*,#293,.T.);
#293 = EDGE_CURVE('',#294,#296,#298,.T.);
#294 = VERTEX_POINT('',#295);
#295 = CARTESIAN_POINT('',(-8.9,34.6,15.));
#296 = VERTEX_POINT('',#297);
#297 = CARTESIAN_POINT('',(-8.9,53.4,15.));
#298 = LINE('',#299,#300);
#299 = CARTESIAN_POINT('',(-8.9,34.6,15.));
#300 = VECTOR('',#301,1.);
#301 = DIRECTION('',(0.,1.,-1.224646799147E-16));
#302 = ORIENTED_EDGE('',*,*,#303,.T.);
#303 = EDGE_CURVE('',#296,#304,#306,.T.);
#304 = VERTEX_POINT('',#305);
#305 = CARTESIAN_POINT('',(8.9,53.4,15.));
#306 = LINE('',#307,#308);
#307 = CARTESIAN_POINT('',(-8.9,53.4,15.));
#308 = VECTOR('',#309,1.);
#309 = DIRECTION('',(1.,0.,0.));
#310 = ORIENTED_EDGE('',*,*,#311,.T.);
#311 = EDGE_CURVE('',#304,#312,#314,.T.);
#312 = VERTEX_POINT('',#313);
#313 = CARTESIAN_POINT('',(8.9,34.6,15.));
#314 = LINE('',#315,#316);
#315 = CARTESIAN_POINT('',(8.9,53.4,15.));
#316 = VECTOR('',#317,1.);
#317 = DIRECTION('',(0.,-1.,1.224646799147E-16));
#318 = ORIENTED_EDGE('',*,*,#319,.T.);
#319 = EDGE_CURVE('',#312,#294,#320,.T.);
#320 = LINE('',#321,#322);
#321 = CARTESIAN_POINT('',(8.9,34.6,15.));
#322 = VECTOR('',#323,1.);
#323 = DIRECTION('',(-1.,0.,0.));
#324 = PLANE('',#325);
#325 = AXIS2_PLACEMENT_3D('',#326,#327,#328);
#326 = CARTESIAN_POINT('',(0.,44.,15.));
#327 = DIRECTION('',(0.,-1.224646799147E-16,-1.));
#328 = DIRECTION('',(1.,0.,0.));
#329 = ADVANCED_FACE('',(#330,#364),#370,.T.);
#330 = FACE_BOUND('',#331,.T.);
#331 = EDGE_LOOP('',(#332,#342,#350,#358));
#332 = ORIENTED_EDGE('',*,*,#333,.T.);
#333 = EDGE_CURVE('',#334,#336,#338,.T.);
#334 = VERTEX_POINT('',#335);
#335 = CARTESIAN_POINT('',(8.9,34.6,20.));
#336 = VERTEX_POINT('',#337);
#337 = CARTESIAN_POINT('',(-8.9,34.6,20.));
#338 = LINE('',#339,#340);
#339 = CARTESIAN_POINT('',(8.9,34.6,20.));
#340 = VECTOR('',#341,1.);
#341 = DIRECTION('',(-1.,0.,0.));
#342 = ORIENTED_EDGE('',*,*,#343,.T.);
#343 = EDGE_CURVE('',#336,#344,#346,.T.);
#344 = VERTEX_POINT('',#345);
#345 = CARTESIAN_POINT('',(-8.9,53.4,20.));
#346 = LINE('',#347,#348);
#347 = CARTESIAN_POINT('',(-8.9,34.6,20.));
#348 = VECTOR('',#349,1.);
#349 = DIRECTION('',(0.,1.,-1.224646799147E-16));
#350 = ORIENTED_EDGE('',*,*,#351,.T.);
#351 = EDGE_CURVE('',#344,#352,#354,.T.);
#352 = VERTEX_POINT('',#353);
#353 = CARTESIAN_POINT('',(8.9,53.4,20.));
#354 = LINE('',#355,#356);
#355 = CARTESIAN_POINT('',(-8.9,53.4,20.));
#356 = VECTOR('',#357,1.);
#357 = DIRECTION('',(1.,0.,0.));
#358 = ORIENTED_EDGE('',*,*,#359,.T.);
#359 = EDGE_CURVE('',#352,#334,#360,.T.);
#360 = LINE('',#361,#362);
#361 = CARTESIAN_POINT('',(8.9,53.4,20.));
#362 = VECTOR('',#363,1.);
#363 = DIRECTION('',(0.,-1.,1.224646799147E-16));
#364 = FACE_BOUND('',#365,.T.);
#365 = EDGE_LOOP('',(#366,#367,#368,#369));
#366 = ORIENTED_EDGE('',*,*,#191,.F.);
#367 = ORIENTED_EDGE('',*,*,#270,.F.);
#368 = ORIENTED_EDGE('',*,*,#246,.F.);
#369 = ORIENTED_EDGE('',*,*,#222,.F.);
#370 = PLANE('',#371);
#371 = AXIS2_PLACEMENT_3D('',#372,#373,#374);
#372 = CARTESIAN_POINT('',(2.0432E-13,44.,20.));
#373 = DIRECTION('',(0.,-1.224646799147E-16,-1.));
#374 = DIRECTION('',(1.,0.,0.));
#375 = ADVANCED_FACE('',(#376),#392,.T.);
#376 = FACE_BOUND('',#377,.T.);
#377 = EDGE_LOOP('',(#378,#384,#385,#391));
#378 = ORIENTED_EDGE('',*,*,#379,.T.);
#379 = EDGE_CURVE('',#336,#294,#380,.T.);
#380 = LINE('',#381,#382);
#381 = CARTESIAN_POINT('',(-8.9,34.6,20.));
#382 = VECTOR('',#383,1.);
#383 = DIRECTION('',(0.,-1.224646799147E-16,-1.));
#384 = ORIENTED_EDGE('',*,*,#293,.T.);
#385 = ORIENTED_EDGE('',*,*,#386,.F.);
#386 = EDGE_CURVE('',#344,#296,#387,.T.);
#387 = LINE('',#388,#389);
#388 = CARTESIAN_POINT('',(-8.9,53.4,20.));
#389 = VECTOR('',#390,1.);
#390 = DIRECTION('',(0.,-1.224646799147E-16,-1.));
#391 = ORIENTED_EDGE('',*,*,#343,.F.);
#392 = PLANE('',#393);
#393 = AXIS2_PLACEMENT_3D('',#394,#395,#396);
#394 = CARTESIAN_POINT('',(-8.9,34.6,20.));
#395 = DIRECTION('',(1.,0.,0.));
#396 = DIRECTION('',(0.,1.,-1.224646799147E-16));
#397 = ADVANCED_FACE('',(#398),#409,.T.);
#398 = FACE_BOUND('',#399,.T.);
#399 = EDGE_LOOP('',(#400,#401,#402,#408));
#400 = ORIENTED_EDGE('',*,*,#386,.T.);
#401 = ORIENTED_EDGE('',*,*,#303,.T.);
#402 = ORIENTED_EDGE('',*,*,#403,.F.);
#403 = EDGE_CURVE('',#352,#304,#404,.T.);
#404 = LINE('',#405,#406);
#405 = CARTESIAN_POINT('',(8.9,53.4,20.));
#406 = VECTOR('',#407,1.);
#407 = DIRECTION('',(0.,-1.224646799147E-16,-1.));
#408 = ORIENTED_EDGE('',*,*,#351,.F.);
#409 = PLANE('',#410);
#410 = AXIS2_PLACEMENT_3D('',#411,#412,#413);
#411 = CARTESIAN_POINT('',(-8.9,53.4,20.));
#412 = DIRECTION('',(0.,-1.,1.224646799147E-16));
#413 = DIRECTION('',(1.,0.,0.));
#414 = ADVANCED_FACE('',(#415),#426,.T.);
#415 = FACE_BOUND('',#416,.T.);
#416 = EDGE_LOOP('',(#417,#418,#419,#425));
#417 = ORIENTED_EDGE('',*,*,#403,.T.);
#418 = ORIENTED_EDGE('',*,*,#311,.T.);
#419 = ORIENTED_EDGE('',*,*,#420,.F.);
#420 = EDGE_CURVE('',#334,#312,#421,.T.);
#421 = LINE('',#422,#423);
#422 = CARTESIAN_POINT('',(8.9,34.6,20.));
#423 = VECTOR('',#424,1.);
#424 = DIRECTION('',(0.,-1.224646799147E-16,-1.));
#425 = ORIENTED_EDGE('',*,*,#359,.F.);
#426 = PLANE('',#427);
#427 = AXIS2_PLACEMENT_3D('',#428,#429,#430);
#428 = CARTESIAN_POINT('',(8.9,53.4,20.));
#429 = DIRECTION('',(-1.,0.,0.));
#430 = DIRECTION('',(0.,-1.,1.224646799147E-16));
#431 = ADVANCED_FACE('',(#432),#438,.T.);
#432 = FACE_BOUND('',#433,.T.);
#433 = EDGE_LOOP('',(#434,#435,#436,#437));
#434 = ORIENTED_EDGE('',*,*,#420,.T.);
#435 = ORIENTED_EDGE('',*,*,#319,.T.);
#436 = ORIENTED_EDGE('',*,*,#379,.F.);
#437 = ORIENTED_EDGE('',*,*,#333,.F.);
#438 = PLANE('',#439);
#439 = AXIS2_PLACEMENT_3D('',#440,#441,#442);
#440 = CARTESIAN_POINT('',(8.9,34.6,20.));
#441 = DIRECTION('',(0.,1.,-1.224646799147E-16));
#442 = DIRECTION('',(-1.,0.,0.));
#443 = ( GEOMETRIC_REPRESENTATION_CONTEXT(3) 
GLOBAL_UNCERTAINTY_ASSIGNED_CONTEXT((#447)) GLOBAL_UNIT_ASSIGNED_CONTEXT
((#444,#445,#446)) REPRESENTATION_CONTEXT('Context #1',
  '3D Context with UNIT and UNCERTAINTY') );
#444 = ( LENGTH_UNIT() NAMED_UNIT(*) SI_UNIT(.MILLI.,.METRE.) );
#445 = ( NAMED_UNIT(*) PLANE_ANGLE_UNIT() SI_UNIT($,.RADIAN.) );
#446 = ( NAMED_UNIT(*) SI_UNIT($,.STERADIAN.) SOLID_ANGLE_UNIT() );
#447 = UNCERTAINTY_MEASURE_WITH_UNIT(LENGTH_MEASURE(2.E-06),#444,
  'distance_accuracy_value','confusion accuracy');
#448 = PRODUCT_RELATED_PRODUCT_CATEGORY('part',$,(#7));
#449 = MECHANICAL_DESIGN_GEOMETRIC_PRESENTATION_REPRESENTATION('',(#450)
  ,#443);
#450 = STYLED_ITEM('color',(#451),#15);
#451 = PRESENTATION_STYLE_ASSIGNMENT((#452,#458));
#452 = SURFACE_STYLE_USAGE(.BOTH.,#453);
#453 = SURFACE_SIDE_STYLE('',(#454));
#454 = SURFACE_STYLE_FILL_AREA(#455);
#455 = FILL_AREA_STYLE('',(#456));
#456 = FILL_AREA_STYLE_COLOUR('',#457);
#457 = COLOUR_RGB('',0.447058818107,0.474509808674,0.501960817233);
#458 = CURVE_STYLE('',#459,POSITIVE_LENGTH_MEASURE(0.1),#460);
#459 = DRAUGHTING_PRE_DEFINED_CURVE_FONT('continuous');
#460 = COLOUR_RGB('',9.803921802644E-02,9.803921802644E-02,
  9.803921802644E-02);
ENDSEC;
END-ISO-10303-21;
