ISO-10303-21;
HEADER;
FILE_DESCRIPTION(('FreeCAD Model'),'2;1');
FILE_NAME('Open CASCADE Shape Model','2026-02-22T22:42:20',(''),(''),
  'Open CASCADE STEP processor 7.8','FreeCAD','Unknown');
FILE_SCHEMA(('AUTOMOTIVE_DESIGN { 1 0 10303 214 1 1 1 1 }'));
ENDSEC;
DATA;
#1 = APPLICATION_PROTOCOL_DEFINITION('international standard',
  'automotive_design',2000,#2);
#2 = APPLICATION_CONTEXT(
  'core data for automotive mechanical design processes');
#3 = SHAPE_DEFINITION_REPRESENTATION(#4,#10);
#4 = PRODUCT_DEFINITION_SHAPE('','',#5);
#5 = PRODUCT_DEFINITION('design','',#6,#9);
#6 = PRODUCT_DEFINITION_FORMATION('','',#7);
#7 = PRODUCT('Body','Body','',(#8));
#8 = PRODUCT_CONTEXT('',#2,'mechanical');
#9 = PRODUCT_DEFINITION_CONTEXT('part definition',#2,'design');
#10 = ADVANCED_BREP_SHAPE_REPRESENTATION('',(#11,#15),#1582);
#11 = AXIS2_PLACEMENT_3D('',#12,#13,#14);
#12 = CARTESIAN_POINT('',(0.,0.,0.));
#13 = DIRECTION('',(0.,0.,1.));
#14 = DIRECTION('',(1.,0.,-0.));
#15 = MANIFOLD_SOLID_BREP('',#16);
#16 = CLOSED_SHELL('',(#17,#66,#97,#164,#188,#309,#344,#451,#476,#546,
    #563,#575,#592,#693,#735,#767,#791,#815,#832,#857,#882,#938,#962,
    #986,#1010,#1027,#1072,#1089,#1106,#1123,#1148,#1179,#1204,#1276,
    #1300,#1324,#1341,#1366,#1391,#1408,#1460,#1472,#1493,#1505,#1529,
    #1553,#1570));
#17 = ADVANCED_FACE('',(#18),#61,.F.);
#18 = FACE_BOUND('',#19,.F.);
#19 = EDGE_LOOP('',(#20,#30,#39,#47,#55));
#20 = ORIENTED_EDGE('',*,*,#21,.T.);
#21 = EDGE_CURVE('',#22,#24,#26,.T.);
#22 = VERTEX_POINT('',#23);
#23 = CARTESIAN_POINT('',(47.,6.,0.));
#24 = VERTEX_POINT('',#25);
#25 = CARTESIAN_POINT('',(47.,6.,7.87));
#26 = LINE('',#27,#28);
#27 = CARTESIAN_POINT('',(47.,6.,0.));
#28 = VECTOR('',#29,1.);
#29 = DIRECTION('',(0.,0.,1.));
#30 = ORIENTED_EDGE('',*,*,#31,.T.);
#31 = EDGE_CURVE('',#24,#32,#34,.T.);
#32 = VERTEX_POINT('',#33);
#33 = CARTESIAN_POINT('',(46.998591501344,6.,8.));
#34 = CIRCLE('',#35,6.);
#35 = AXIS2_PLACEMENT_3D('',#36,#37,#38);
#36 = CARTESIAN_POINT('',(41.,6.,7.87));
#37 = DIRECTION('',(0.,-1.,0.));
#38 = DIRECTION('',(0.,0.,1.));
#39 = ORIENTED_EDGE('',*,*,#40,.T.);
#40 = EDGE_CURVE('',#32,#41,#43,.T.);
#41 = VERTEX_POINT('',#42);
#42 = CARTESIAN_POINT('',(40.498591501344,6.,8.));
#43 = LINE('',#44,#45);
#44 = CARTESIAN_POINT('',(47.,6.,8.));
#45 = VECTOR('',#46,1.);
#46 = DIRECTION('',(-1.,0.,0.));
#47 = ORIENTED_EDGE('',*,*,#48,.T.);
#48 = EDGE_CURVE('',#41,#49,#51,.T.);
#49 = VERTEX_POINT('',#50);
#50 = CARTESIAN_POINT('',(40.498591501344,6.,0.));
#51 = LINE('',#52,#53);
#52 = CARTESIAN_POINT('',(40.498591501344,6.,8.));
#53 = VECTOR('',#54,1.);
#54 = DIRECTION('',(-0.,-0.,-1.));
#55 = ORIENTED_EDGE('',*,*,#56,.F.);
#56 = EDGE_CURVE('',#22,#49,#57,.T.);
#57 = LINE('',#58,#59);
#58 = CARTESIAN_POINT('',(47.,6.,0.));
#59 = VECTOR('',#60,1.);
#60 = DIRECTION('',(-1.,0.,0.));
#61 = PLANE('',#62);
#62 = AXIS2_PLACEMENT_3D('',#63,#64,#65);
#63 = CARTESIAN_POINT('',(47.,6.,0.));
#64 = DIRECTION('',(0.,-1.,0.));
#65 = DIRECTION('',(-1.,0.,0.));
#66 = ADVANCED_FACE('',(#67),#92,.T.);
#67 = FACE_BOUND('',#68,.T.);
#68 = EDGE_LOOP('',(#69,#79,#85,#86));
#69 = ORIENTED_EDGE('',*,*,#70,.F.);
#70 = EDGE_CURVE('',#71,#73,#75,.T.);
#71 = VERTEX_POINT('',#72);
#72 = CARTESIAN_POINT('',(47.,-6.,0.));
#73 = VERTEX_POINT('',#74);
#74 = CARTESIAN_POINT('',(47.,-6.,7.87));
#75 = LINE('',#76,#77);
#76 = CARTESIAN_POINT('',(47.,-6.,0.));
#77 = VECTOR('',#78,1.);
#78 = DIRECTION('',(0.,0.,1.));
#79 = ORIENTED_EDGE('',*,*,#80,.T.);
#80 = EDGE_CURVE('',#71,#22,#81,.T.);
#81 = LINE('',#82,#83);
#82 = CARTESIAN_POINT('',(47.,-6.,0.));
#83 = VECTOR('',#84,1.);
#84 = DIRECTION('',(0.,1.,0.));
#85 = ORIENTED_EDGE('',*,*,#21,.T.);
#86 = ORIENTED_EDGE('',*,*,#87,.F.);
#87 = EDGE_CURVE('',#73,#24,#88,.T.);
#88 = LINE('',#89,#90);
#89 = CARTESIAN_POINT('',(47.,-6.,7.87));
#90 = VECTOR('',#91,1.);
#91 = DIRECTION('',(0.,1.,0.));
#92 = PLANE('',#93);
#93 = AXIS2_PLACEMENT_3D('',#94,#95,#96);
#94 = CARTESIAN_POINT('',(47.,-0.907614998067,6.027385001933));
#95 = DIRECTION('',(1.,0.,0.));
#96 = DIRECTION('',(0.,0.,1.));
#97 = ADVANCED_FACE('',(#98,#148),#159,.F.);
#98 = FACE_BOUND('',#99,.F.);
#99 = EDGE_LOOP('',(#100,#101,#102,#110,#118,#126,#134,#142));
#100 = ORIENTED_EDGE('',*,*,#80,.T.);
#101 = ORIENTED_EDGE('',*,*,#56,.T.);
#102 = ORIENTED_EDGE('',*,*,#103,.F.);
#103 = EDGE_CURVE('',#104,#49,#106,.T.);
#104 = VERTEX_POINT('',#105);
#105 = CARTESIAN_POINT('',(40.498591501344,3.500000000022,0.));
#106 = LINE('',#107,#108);
#107 = CARTESIAN_POINT('',(40.498591501344,3.500000000022,0.));
#108 = VECTOR('',#109,1.);
#109 = DIRECTION('',(0.,1.,0.));
#110 = ORIENTED_EDGE('',*,*,#111,.F.);
#111 = EDGE_CURVE('',#112,#104,#114,.T.);
#112 = VERTEX_POINT('',#113);
#113 = CARTESIAN_POINT('',(35.498591501344,3.500000000022,0.));
#114 = LINE('',#115,#116);
#115 = CARTESIAN_POINT('',(35.498591501344,3.500000000022,0.));
#116 = VECTOR('',#117,1.);
#117 = DIRECTION('',(1.,0.,0.));
#118 = ORIENTED_EDGE('',*,*,#119,.F.);
#119 = EDGE_CURVE('',#120,#112,#122,.T.);
#120 = VERTEX_POINT('',#121);
#121 = CARTESIAN_POINT('',(35.498591501344,6.,0.));
#122 = LINE('',#123,#124);
#123 = CARTESIAN_POINT('',(35.498591501344,6.,0.));
#124 = VECTOR('',#125,1.);
#125 = DIRECTION('',(0.,-1.,0.));
#126 = ORIENTED_EDGE('',*,*,#127,.T.);
#127 = EDGE_CURVE('',#120,#128,#130,.T.);
#128 = VERTEX_POINT('',#129);
#129 = CARTESIAN_POINT('',(12.5,6.,-3.E-15));
#130 = LINE('',#131,#132);
#131 = CARTESIAN_POINT('',(47.,6.,0.));
#132 = VECTOR('',#133,1.);
#133 = DIRECTION('',(-1.,0.,0.));
#134 = ORIENTED_EDGE('',*,*,#135,.F.);
#135 = EDGE_CURVE('',#136,#128,#138,.T.);
#136 = VERTEX_POINT('',#137);
#137 = CARTESIAN_POINT('',(12.5,-6.,0.));
#138 = LINE('',#139,#140);
#139 = CARTESIAN_POINT('',(12.5,-6.,0.));
#140 = VECTOR('',#141,1.);
#141 = DIRECTION('',(0.,1.,-2.2E-16));
#142 = ORIENTED_EDGE('',*,*,#143,.T.);
#143 = EDGE_CURVE('',#136,#71,#144,.T.);
#144 = LINE('',#145,#146);
#145 = CARTESIAN_POINT('',(-47.,-6.,0.));
#146 = VECTOR('',#147,1.);
#147 = DIRECTION('',(1.,0.,0.));
#148 = FACE_BOUND('',#149,.F.);
#149 = EDGE_LOOP('',(#150));
#150 = ORIENTED_EDGE('',*,*,#151,.F.);
#151 = EDGE_CURVE('',#152,#152,#154,.T.);
#152 = VERTEX_POINT('',#153);
#153 = CARTESIAN_POINT('',(32.9,1.5,0.));
#154 = CIRCLE('',#155,1.4);
#155 = AXIS2_PLACEMENT_3D('',#156,#157,#158);
#156 = CARTESIAN_POINT('',(31.5,1.5,0.));
#157 = DIRECTION('',(0.,0.,1.));
#158 = DIRECTION('',(1.,0.,0.));
#159 = PLANE('',#160);
#160 = AXIS2_PLACEMENT_3D('',#161,#162,#163);
#161 = CARTESIAN_POINT('',(-7.6E-16,0.140001807508,0.));
#162 = DIRECTION('',(0.,0.,1.));
#163 = DIRECTION('',(1.,0.,0.));
#164 = ADVANCED_FACE('',(#165),#183,.F.);
#165 = FACE_BOUND('',#166,.F.);
#166 = EDGE_LOOP('',(#167,#175,#176,#177));
#167 = ORIENTED_EDGE('',*,*,#168,.T.);
#168 = EDGE_CURVE('',#169,#104,#171,.T.);
#169 = VERTEX_POINT('',#170);
#170 = CARTESIAN_POINT('',(40.498591501344,3.500000000022,8.));
#171 = LINE('',#172,#173);
#172 = CARTESIAN_POINT('',(40.498591501344,3.500000000022,8.));
#173 = VECTOR('',#174,1.);
#174 = DIRECTION('',(-0.,-0.,-1.));
#175 = ORIENTED_EDGE('',*,*,#103,.T.);
#176 = ORIENTED_EDGE('',*,*,#48,.F.);
#177 = ORIENTED_EDGE('',*,*,#178,.F.);
#178 = EDGE_CURVE('',#169,#41,#179,.T.);
#179 = LINE('',#180,#181);
#180 = CARTESIAN_POINT('',(40.498591501344,3.500000000022,8.));
#181 = VECTOR('',#182,1.);
#182 = DIRECTION('',(0.,1.,0.));
#183 = PLANE('',#184);
#184 = AXIS2_PLACEMENT_3D('',#185,#186,#187);
#185 = CARTESIAN_POINT('',(40.498591501344,3.500000000022,8.));
#186 = DIRECTION('',(1.,0.,0.));
#187 = DIRECTION('',(0.,1.,0.));
#188 = ADVANCED_FACE('',(#189,#271,#282,#293),#304,.T.);
#189 = FACE_BOUND('',#190,.T.);
#190 = EDGE_LOOP('',(#191,#199,#200,#201,#209,#217,#225,#233,#241,#249,
    #257,#265));
#191 = ORIENTED_EDGE('',*,*,#192,.F.);
#192 = EDGE_CURVE('',#32,#193,#195,.T.);
#193 = VERTEX_POINT('',#194);
#194 = CARTESIAN_POINT('',(46.998591501344,-2.,8.));
#195 = LINE('',#196,#197);
#196 = CARTESIAN_POINT('',(46.998591501344,-6.,8.));
#197 = VECTOR('',#198,1.);
#198 = DIRECTION('',(-0.,-1.,-0.));
#199 = ORIENTED_EDGE('',*,*,#40,.T.);
#200 = ORIENTED_EDGE('',*,*,#178,.F.);
#201 = ORIENTED_EDGE('',*,*,#202,.F.);
#202 = EDGE_CURVE('',#203,#169,#205,.T.);
#203 = VERTEX_POINT('',#204);
#204 = CARTESIAN_POINT('',(35.498591501344,3.500000000022,8.));
#205 = LINE('',#206,#207);
#206 = CARTESIAN_POINT('',(35.498591501344,3.500000000022,8.));
#207 = VECTOR('',#208,1.);
#208 = DIRECTION('',(1.,0.,0.));
#209 = ORIENTED_EDGE('',*,*,#210,.F.);
#210 = EDGE_CURVE('',#211,#203,#213,.T.);
#211 = VERTEX_POINT('',#212);
#212 = CARTESIAN_POINT('',(35.498591501344,6.,8.));
#213 = LINE('',#214,#215);
#214 = CARTESIAN_POINT('',(35.498591501344,6.,8.));
#215 = VECTOR('',#216,1.);
#216 = DIRECTION('',(0.,-1.,0.));
#217 = ORIENTED_EDGE('',*,*,#218,.T.);
#218 = EDGE_CURVE('',#211,#219,#221,.T.);
#219 = VERTEX_POINT('',#220);
#220 = CARTESIAN_POINT('',(-35.49859150134,6.,8.));
#221 = LINE('',#222,#223);
#222 = CARTESIAN_POINT('',(47.,6.,8.));
#223 = VECTOR('',#224,1.);
#224 = DIRECTION('',(-1.,0.,0.));
#225 = ORIENTED_EDGE('',*,*,#226,.F.);
#226 = EDGE_CURVE('',#227,#219,#229,.T.);
#227 = VERTEX_POINT('',#228);
#228 = CARTESIAN_POINT('',(-35.49859150134,3.5,8.));
#229 = LINE('',#230,#231);
#230 = CARTESIAN_POINT('',(-35.49859150134,3.5,8.));
#231 = VECTOR('',#232,1.);
#232 = DIRECTION('',(0.,1.,0.));
#233 = ORIENTED_EDGE('',*,*,#234,.F.);
#234 = EDGE_CURVE('',#235,#227,#237,.T.);
#235 = VERTEX_POINT('',#236);
#236 = CARTESIAN_POINT('',(-40.49859150134,3.5,8.));
#237 = LINE('',#238,#239);
#238 = CARTESIAN_POINT('',(-40.49859150134,3.5,8.));
#239 = VECTOR('',#240,1.);
#240 = DIRECTION('',(1.,0.,0.));
#241 = ORIENTED_EDGE('',*,*,#242,.F.);
#242 = EDGE_CURVE('',#243,#235,#245,.T.);
#243 = VERTEX_POINT('',#244);
#244 = CARTESIAN_POINT('',(-40.49859150134,6.,8.));
#245 = LINE('',#246,#247);
#246 = CARTESIAN_POINT('',(-40.49859150134,6.,8.));
#247 = VECTOR('',#248,1.);
#248 = DIRECTION('',(0.,-1.,0.));
#249 = ORIENTED_EDGE('',*,*,#250,.T.);
#250 = EDGE_CURVE('',#243,#251,#253,.T.);
#251 = VERTEX_POINT('',#252);
#252 = CARTESIAN_POINT('',(-46.99859150134,6.,8.));
#253 = LINE('',#254,#255);
#254 = CARTESIAN_POINT('',(47.,6.,8.));
#255 = VECTOR('',#256,1.);
#256 = DIRECTION('',(-1.,0.,0.));
#257 = ORIENTED_EDGE('',*,*,#258,.T.);
#258 = EDGE_CURVE('',#251,#259,#261,.T.);
#259 = VERTEX_POINT('',#260);
#260 = CARTESIAN_POINT('',(-46.99859150134,-2.,8.));
#261 = LINE('',#262,#263);
#262 = CARTESIAN_POINT('',(-46.99859150134,-2.,8.));
#263 = VECTOR('',#264,1.);
#264 = DIRECTION('',(0.,-1.,0.));
#265 = ORIENTED_EDGE('',*,*,#266,.F.);
#266 = EDGE_CURVE('',#193,#259,#267,.T.);
#267 = LINE('',#268,#269);
#268 = CARTESIAN_POINT('',(47.,-2.,8.));
#269 = VECTOR('',#270,1.);
#270 = DIRECTION('',(-1.,0.,0.));
#271 = FACE_BOUND('',#272,.T.);
#272 = EDGE_LOOP('',(#273));
#273 = ORIENTED_EDGE('',*,*,#274,.F.);
#274 = EDGE_CURVE('',#275,#275,#277,.T.);
#275 = VERTEX_POINT('',#276);
#276 = CARTESIAN_POINT('',(-30.1,1.5,8.));
#277 = CIRCLE('',#278,1.4);
#278 = AXIS2_PLACEMENT_3D('',#279,#280,#281);
#279 = CARTESIAN_POINT('',(-31.5,1.5,8.));
#280 = DIRECTION('',(0.,0.,1.));
#281 = DIRECTION('',(1.,0.,0.));
#282 = FACE_BOUND('',#283,.T.);
#283 = EDGE_LOOP('',(#284));
#284 = ORIENTED_EDGE('',*,*,#285,.F.);
#285 = EDGE_CURVE('',#286,#286,#288,.T.);
#286 = VERTEX_POINT('',#287);
#287 = CARTESIAN_POINT('',(1.4,1.5,8.));
#288 = CIRCLE('',#289,1.4);
#289 = AXIS2_PLACEMENT_3D('',#290,#291,#292);
#290 = CARTESIAN_POINT('',(0.,1.5,8.));
#291 = DIRECTION('',(0.,0.,1.));
#292 = DIRECTION('',(1.,0.,0.));
#293 = FACE_BOUND('',#294,.T.);
#294 = EDGE_LOOP('',(#295));
#295 = ORIENTED_EDGE('',*,*,#296,.F.);
#296 = EDGE_CURVE('',#297,#297,#299,.T.);
#297 = VERTEX_POINT('',#298);
#298 = CARTESIAN_POINT('',(32.9,1.5,8.));
#299 = CIRCLE('',#300,1.4);
#300 = AXIS2_PLACEMENT_3D('',#301,#302,#303);
#301 = CARTESIAN_POINT('',(31.5,1.5,8.));
#302 = DIRECTION('',(0.,0.,1.));
#303 = DIRECTION('',(1.,0.,0.));
#304 = PLANE('',#305);
#305 = AXIS2_PLACEMENT_3D('',#306,#307,#308);
#306 = CARTESIAN_POINT('',(-7.6E-16,0.140001807508,8.));
#307 = DIRECTION('',(0.,0.,1.));
#308 = DIRECTION('',(1.,0.,0.));
#309 = ADVANCED_FACE('',(#310),#339,.T.);
#310 = FACE_BOUND('',#311,.F.);
#311 = EDGE_LOOP('',(#312,#313,#314,#323,#331,#338));
#312 = ORIENTED_EDGE('',*,*,#31,.F.);
#313 = ORIENTED_EDGE('',*,*,#87,.F.);
#314 = ORIENTED_EDGE('',*,*,#315,.T.);
#315 = EDGE_CURVE('',#73,#316,#318,.T.);
#316 = VERTEX_POINT('',#317);
#317 = CARTESIAN_POINT('',(41.,-6.,13.87));
#318 = CIRCLE('',#319,6.);
#319 = AXIS2_PLACEMENT_3D('',#320,#321,#322);
#320 = CARTESIAN_POINT('',(41.,-6.,7.87));
#321 = DIRECTION('',(0.,-1.,0.));
#322 = DIRECTION('',(0.,0.,1.));
#323 = ORIENTED_EDGE('',*,*,#324,.T.);
#324 = EDGE_CURVE('',#316,#325,#327,.T.);
#325 = VERTEX_POINT('',#326);
#326 = CARTESIAN_POINT('',(41.,-2.,13.87));
#327 = LINE('',#328,#329);
#328 = CARTESIAN_POINT('',(41.,-6.,13.87));
#329 = VECTOR('',#330,1.);
#330 = DIRECTION('',(0.,1.,0.));
#331 = ORIENTED_EDGE('',*,*,#332,.F.);
#332 = EDGE_CURVE('',#193,#325,#333,.T.);
#333 = CIRCLE('',#334,6.);
#334 = AXIS2_PLACEMENT_3D('',#335,#336,#337);
#335 = CARTESIAN_POINT('',(41.,-2.,7.87));
#336 = DIRECTION('',(0.,-1.,0.));
#337 = DIRECTION('',(0.,0.,1.));
#338 = ORIENTED_EDGE('',*,*,#192,.F.);
#339 = CYLINDRICAL_SURFACE('',#340,6.);
#340 = AXIS2_PLACEMENT_3D('',#341,#342,#343);
#341 = CARTESIAN_POINT('',(41.,-6.,7.87));
#342 = DIRECTION('',(0.,1.,0.));
#343 = DIRECTION('',(1.,0.,0.));
#344 = ADVANCED_FACE('',(#345,#413,#424,#435),#446,.T.);
#345 = FACE_BOUND('',#346,.T.);
#346 = EDGE_LOOP('',(#347,#357,#365,#372,#373,#374,#375,#383,#391,#399,
    #407));
#347 = ORIENTED_EDGE('',*,*,#348,.F.);
#348 = EDGE_CURVE('',#349,#351,#353,.T.);
#349 = VERTEX_POINT('',#350);
#350 = CARTESIAN_POINT('',(3.5,-6.,0.));
#351 = VERTEX_POINT('',#352);
#352 = CARTESIAN_POINT('',(3.5,-6.,13.87));
#353 = LINE('',#354,#355);
#354 = CARTESIAN_POINT('',(3.5,-6.,0.));
#355 = VECTOR('',#356,1.);
#356 = DIRECTION('',(0.,0.,1.));
#357 = ORIENTED_EDGE('',*,*,#358,.T.);
#358 = EDGE_CURVE('',#349,#359,#361,.T.);
#359 = VERTEX_POINT('',#360);
#360 = CARTESIAN_POINT('',(5.5,-6.,0.));
#361 = LINE('',#362,#363);
#362 = CARTESIAN_POINT('',(-47.,-6.,0.));
#363 = VECTOR('',#364,1.);
#364 = DIRECTION('',(1.,0.,0.));
#365 = ORIENTED_EDGE('',*,*,#366,.F.);
#366 = EDGE_CURVE('',#136,#359,#367,.T.);
#367 = CIRCLE('',#368,3.5);
#368 = AXIS2_PLACEMENT_3D('',#369,#370,#371);
#369 = CARTESIAN_POINT('',(9.,-6.,0.));
#370 = DIRECTION('',(0.,-1.,0.));
#371 = DIRECTION('',(1.,0.,0.));
#372 = ORIENTED_EDGE('',*,*,#143,.T.);
#373 = ORIENTED_EDGE('',*,*,#70,.T.);
#374 = ORIENTED_EDGE('',*,*,#315,.T.);
#375 = ORIENTED_EDGE('',*,*,#376,.F.);
#376 = EDGE_CURVE('',#377,#316,#379,.T.);
#377 = VERTEX_POINT('',#378);
#378 = CARTESIAN_POINT('',(26.25,-6.,13.87));
#379 = LINE('',#380,#381);
#380 = CARTESIAN_POINT('',(-47.,-6.,13.87));
#381 = VECTOR('',#382,1.);
#382 = DIRECTION('',(1.,-1.E-17,0.));
#383 = ORIENTED_EDGE('',*,*,#384,.F.);
#384 = EDGE_CURVE('',#385,#377,#387,.T.);
#385 = VERTEX_POINT('',#386);
#386 = CARTESIAN_POINT('',(26.25,-6.,8.119999999999));
#387 = LINE('',#388,#389);
#388 = CARTESIAN_POINT('',(26.25,-6.,8.119999999999));
#389 = VECTOR('',#390,1.);
#390 = DIRECTION('',(0.,0.,1.));
#391 = ORIENTED_EDGE('',*,*,#392,.F.);
#392 = EDGE_CURVE('',#393,#385,#395,.T.);
#393 = VERTEX_POINT('',#394);
#394 = CARTESIAN_POINT('',(12.75,-6.,8.119999999999));
#395 = LINE('',#396,#397);
#396 = CARTESIAN_POINT('',(12.75,-6.,8.119999999999));
#397 = VECTOR('',#398,1.);
#398 = DIRECTION('',(1.,0.,0.));
#399 = ORIENTED_EDGE('',*,*,#400,.F.);
#400 = EDGE_CURVE('',#401,#393,#403,.T.);
#401 = VERTEX_POINT('',#402);
#402 = CARTESIAN_POINT('',(12.75,-6.,13.87));
#403 = LINE('',#404,#405);
#404 = CARTESIAN_POINT('',(12.75,-6.,13.87));
#405 = VECTOR('',#406,1.);
#406 = DIRECTION('',(0.,0.,-1.));
#407 = ORIENTED_EDGE('',*,*,#408,.F.);
#408 = EDGE_CURVE('',#351,#401,#409,.T.);
#409 = LINE('',#410,#411);
#410 = CARTESIAN_POINT('',(-47.,-6.,13.87));
#411 = VECTOR('',#412,1.);
#412 = DIRECTION('',(1.,-1.E-17,0.));
#413 = FACE_BOUND('',#414,.T.);
#414 = EDGE_LOOP('',(#415));
#415 = ORIENTED_EDGE('',*,*,#416,.F.);
#416 = EDGE_CURVE('',#417,#417,#419,.T.);
#417 = VERTEX_POINT('',#418);
#418 = CARTESIAN_POINT('',(10.6,-6.,10.87));
#419 = CIRCLE('',#420,1.6);
#420 = AXIS2_PLACEMENT_3D('',#421,#422,#423);
#421 = CARTESIAN_POINT('',(9.,-6.,10.87));
#422 = DIRECTION('',(0.,-1.,0.));
#423 = DIRECTION('',(1.,0.,0.));
#424 = FACE_BOUND('',#425,.T.);
#425 = EDGE_LOOP('',(#426));
#426 = ORIENTED_EDGE('',*,*,#427,.F.);
#427 = EDGE_CURVE('',#428,#428,#430,.T.);
#428 = VERTEX_POINT('',#429);
#429 = CARTESIAN_POINT('',(31.6,-6.,10.87));
#430 = CIRCLE('',#431,1.6);
#431 = AXIS2_PLACEMENT_3D('',#432,#433,#434);
#432 = CARTESIAN_POINT('',(30.,-6.,10.87));
#433 = DIRECTION('',(0.,-1.,0.));
#434 = DIRECTION('',(1.,0.,0.));
#435 = FACE_BOUND('',#436,.T.);
#436 = EDGE_LOOP('',(#437));
#437 = ORIENTED_EDGE('',*,*,#438,.F.);
#438 = EDGE_CURVE('',#439,#439,#441,.T.);
#439 = VERTEX_POINT('',#440);
#440 = CARTESIAN_POINT('',(20.9,-6.,4.));
#441 = CIRCLE('',#442,1.4);
#442 = AXIS2_PLACEMENT_3D('',#443,#444,#445);
#443 = CARTESIAN_POINT('',(19.5,-6.,4.));
#444 = DIRECTION('',(0.,-1.,0.));
#445 = DIRECTION('',(1.,0.,0.));
#446 = PLANE('',#447);
#447 = AXIS2_PLACEMENT_3D('',#448,#449,#450);
#448 = CARTESIAN_POINT('',(2.6E-16,-6.,6.935));
#449 = DIRECTION('',(-0.,-1.,-0.));
#450 = DIRECTION('',(0.,0.,-1.));
#451 = ADVANCED_FACE('',(#452),#471,.F.);
#452 = FACE_BOUND('',#453,.F.);
#453 = EDGE_LOOP('',(#454,#455,#464,#470));
#454 = ORIENTED_EDGE('',*,*,#135,.T.);
#455 = ORIENTED_EDGE('',*,*,#456,.T.);
#456 = EDGE_CURVE('',#128,#457,#459,.T.);
#457 = VERTEX_POINT('',#458);
#458 = CARTESIAN_POINT('',(5.5,6.,-2.E-15));
#459 = CIRCLE('',#460,3.5);
#460 = AXIS2_PLACEMENT_3D('',#461,#462,#463);
#461 = CARTESIAN_POINT('',(9.,6.,-3.E-15));
#462 = DIRECTION('',(0.,-1.,0.));
#463 = DIRECTION('',(1.,0.,0.));
#464 = ORIENTED_EDGE('',*,*,#465,.F.);
#465 = EDGE_CURVE('',#359,#457,#466,.T.);
#466 = LINE('',#467,#468);
#467 = CARTESIAN_POINT('',(5.5,-6.,4.3E-16));
#468 = VECTOR('',#469,1.);
#469 = DIRECTION('',(0.,1.,-2.2E-16));
#470 = ORIENTED_EDGE('',*,*,#366,.F.);
#471 = CYLINDRICAL_SURFACE('',#472,3.5);
#472 = AXIS2_PLACEMENT_3D('',#473,#474,#475);
#473 = CARTESIAN_POINT('',(9.,-6.,0.));
#474 = DIRECTION('',(0.,-1.,2.2E-16));
#475 = DIRECTION('',(1.,0.,0.));
#476 = ADVANCED_FACE('',(#477,#519,#530),#541,.F.);
#477 = FACE_BOUND('',#478,.F.);
#478 = EDGE_LOOP('',(#479,#480,#486,#487,#495,#503,#512,#518));
#479 = ORIENTED_EDGE('',*,*,#127,.F.);
#480 = ORIENTED_EDGE('',*,*,#481,.F.);
#481 = EDGE_CURVE('',#211,#120,#482,.T.);
#482 = LINE('',#483,#484);
#483 = CARTESIAN_POINT('',(35.498591501344,6.,8.));
#484 = VECTOR('',#485,1.);
#485 = DIRECTION('',(-0.,-0.,-1.));
#486 = ORIENTED_EDGE('',*,*,#218,.T.);
#487 = ORIENTED_EDGE('',*,*,#488,.T.);
#488 = EDGE_CURVE('',#219,#489,#491,.T.);
#489 = VERTEX_POINT('',#490);
#490 = CARTESIAN_POINT('',(-35.49859150134,6.,0.));
#491 = LINE('',#492,#493);
#492 = CARTESIAN_POINT('',(-35.49859150134,6.,8.));
#493 = VECTOR('',#494,1.);
#494 = DIRECTION('',(-0.,-0.,-1.));
#495 = ORIENTED_EDGE('',*,*,#496,.F.);
#496 = EDGE_CURVE('',#497,#489,#499,.T.);
#497 = VERTEX_POINT('',#498);
#498 = CARTESIAN_POINT('',(-12.5,6.,-2.E-15));
#499 = LINE('',#500,#501);
#500 = CARTESIAN_POINT('',(47.,6.,0.));
#501 = VECTOR('',#502,1.);
#502 = DIRECTION('',(-1.,0.,0.));
#503 = ORIENTED_EDGE('',*,*,#504,.F.);
#504 = EDGE_CURVE('',#505,#497,#507,.T.);
#505 = VERTEX_POINT('',#506);
#506 = CARTESIAN_POINT('',(-5.5,6.,-3.E-15));
#507 = CIRCLE('',#508,3.5);
#508 = AXIS2_PLACEMENT_3D('',#509,#510,#511);
#509 = CARTESIAN_POINT('',(-9.,6.,-3.E-15));
#510 = DIRECTION('',(0.,-1.,0.));
#511 = DIRECTION('',(1.,0.,0.));
#512 = ORIENTED_EDGE('',*,*,#513,.F.);
#513 = EDGE_CURVE('',#457,#505,#514,.T.);
#514 = LINE('',#515,#516);
#515 = CARTESIAN_POINT('',(47.,6.,0.));
#516 = VECTOR('',#517,1.);
#517 = DIRECTION('',(-1.,0.,0.));
#518 = ORIENTED_EDGE('',*,*,#456,.F.);
#519 = FACE_BOUND('',#520,.F.);
#520 = EDGE_LOOP('',(#521));
#521 = ORIENTED_EDGE('',*,*,#522,.F.);
#522 = EDGE_CURVE('',#523,#523,#525,.T.);
#523 = VERTEX_POINT('',#524);
#524 = CARTESIAN_POINT('',(20.9,6.,4.));
#525 = CIRCLE('',#526,1.4);
#526 = AXIS2_PLACEMENT_3D('',#527,#528,#529);
#527 = CARTESIAN_POINT('',(19.5,6.,4.));
#528 = DIRECTION('',(0.,-1.,0.));
#529 = DIRECTION('',(1.,0.,0.));
#530 = FACE_BOUND('',#531,.F.);
#531 = EDGE_LOOP('',(#532));
#532 = ORIENTED_EDGE('',*,*,#533,.F.);
#533 = EDGE_CURVE('',#534,#534,#536,.T.);
#534 = VERTEX_POINT('',#535);
#535 = CARTESIAN_POINT('',(-18.1,6.,4.));
#536 = CIRCLE('',#537,1.4);
#537 = AXIS2_PLACEMENT_3D('',#538,#539,#540);
#538 = CARTESIAN_POINT('',(-19.5,6.,4.));
#539 = DIRECTION('',(0.,-1.,0.));
#540 = DIRECTION('',(1.,0.,0.));
#541 = PLANE('',#542);
#542 = AXIS2_PLACEMENT_3D('',#543,#544,#545);
#543 = CARTESIAN_POINT('',(47.,6.,0.));
#544 = DIRECTION('',(0.,-1.,0.));
#545 = DIRECTION('',(-1.,0.,0.));
#546 = ADVANCED_FACE('',(#547),#558,.F.);
#547 = FACE_BOUND('',#548,.F.);
#548 = EDGE_LOOP('',(#549,#550,#551,#557));
#549 = ORIENTED_EDGE('',*,*,#481,.T.);
#550 = ORIENTED_EDGE('',*,*,#119,.T.);
#551 = ORIENTED_EDGE('',*,*,#552,.F.);
#552 = EDGE_CURVE('',#203,#112,#553,.T.);
#553 = LINE('',#554,#555);
#554 = CARTESIAN_POINT('',(35.498591501344,3.500000000022,8.));
#555 = VECTOR('',#556,1.);
#556 = DIRECTION('',(-0.,-0.,-1.));
#557 = ORIENTED_EDGE('',*,*,#210,.F.);
#558 = PLANE('',#559);
#559 = AXIS2_PLACEMENT_3D('',#560,#561,#562);
#560 = CARTESIAN_POINT('',(35.498591501344,6.,8.));
#561 = DIRECTION('',(-1.,0.,0.));
#562 = DIRECTION('',(0.,-1.,0.));
#563 = ADVANCED_FACE('',(#564),#570,.F.);
#564 = FACE_BOUND('',#565,.F.);
#565 = EDGE_LOOP('',(#566,#567,#568,#569));
#566 = ORIENTED_EDGE('',*,*,#552,.T.);
#567 = ORIENTED_EDGE('',*,*,#111,.T.);
#568 = ORIENTED_EDGE('',*,*,#168,.F.);
#569 = ORIENTED_EDGE('',*,*,#202,.F.);
#570 = PLANE('',#571);
#571 = AXIS2_PLACEMENT_3D('',#572,#573,#574);
#572 = CARTESIAN_POINT('',(35.498591501344,3.500000000022,8.));
#573 = DIRECTION('',(0.,-1.,0.));
#574 = DIRECTION('',(1.,0.,0.));
#575 = ADVANCED_FACE('',(#576),#587,.F.);
#576 = FACE_BOUND('',#577,.T.);
#577 = EDGE_LOOP('',(#578,#584,#585,#586));
#578 = ORIENTED_EDGE('',*,*,#579,.T.);
#579 = EDGE_CURVE('',#152,#297,#580,.T.);
#580 = LINE('',#581,#582);
#581 = CARTESIAN_POINT('',(32.9,1.5,0.));
#582 = VECTOR('',#583,1.);
#583 = DIRECTION('',(0.,0.,1.));
#584 = ORIENTED_EDGE('',*,*,#296,.T.);
#585 = ORIENTED_EDGE('',*,*,#579,.F.);
#586 = ORIENTED_EDGE('',*,*,#151,.F.);
#587 = CYLINDRICAL_SURFACE('',#588,1.4);
#588 = AXIS2_PLACEMENT_3D('',#589,#590,#591);
#589 = CARTESIAN_POINT('',(31.5,1.5,0.));
#590 = DIRECTION('',(-0.,-0.,-1.));
#591 = DIRECTION('',(1.,0.,0.));
#592 = ADVANCED_FACE('',(#593,#644,#655,#666,#677),#688,.F.);
#593 = FACE_BOUND('',#594,.F.);
#594 = EDGE_LOOP('',(#595,#596,#597,#605,#613,#621,#629,#637));
#595 = ORIENTED_EDGE('',*,*,#266,.F.);
#596 = ORIENTED_EDGE('',*,*,#332,.T.);
#597 = ORIENTED_EDGE('',*,*,#598,.T.);
#598 = EDGE_CURVE('',#325,#599,#601,.T.);
#599 = VERTEX_POINT('',#600);
#600 = CARTESIAN_POINT('',(1.25,-2.,13.87));
#601 = LINE('',#602,#603);
#602 = CARTESIAN_POINT('',(47.,-2.,13.87));
#603 = VECTOR('',#604,1.);
#604 = DIRECTION('',(-1.,0.,0.));
#605 = ORIENTED_EDGE('',*,*,#606,.T.);
#606 = EDGE_CURVE('',#599,#607,#609,.T.);
#607 = VERTEX_POINT('',#608);
#608 = CARTESIAN_POINT('',(1.25,-2.,8.87));
#609 = LINE('',#610,#611);
#610 = CARTESIAN_POINT('',(1.25,-2.,13.87));
#611 = VECTOR('',#612,1.);
#612 = DIRECTION('',(-0.,-0.,-1.));
#613 = ORIENTED_EDGE('',*,*,#614,.T.);
#614 = EDGE_CURVE('',#607,#615,#617,.T.);
#615 = VERTEX_POINT('',#616);
#616 = CARTESIAN_POINT('',(-1.25,-2.,8.87));
#617 = LINE('',#618,#619);
#618 = CARTESIAN_POINT('',(1.25,-2.,8.87));
#619 = VECTOR('',#620,1.);
#620 = DIRECTION('',(-1.,-2.7E-16,0.));
#621 = ORIENTED_EDGE('',*,*,#622,.F.);
#622 = EDGE_CURVE('',#623,#615,#625,.T.);
#623 = VERTEX_POINT('',#624);
#624 = CARTESIAN_POINT('',(-1.25,-2.,13.87));
#625 = LINE('',#626,#627);
#626 = CARTESIAN_POINT('',(-1.25,-2.,13.87));
#627 = VECTOR('',#628,1.);
#628 = DIRECTION('',(-0.,-0.,-1.));
#629 = ORIENTED_EDGE('',*,*,#630,.T.);
#630 = EDGE_CURVE('',#623,#631,#633,.T.);
#631 = VERTEX_POINT('',#632);
#632 = CARTESIAN_POINT('',(-41.,-2.,13.87));
#633 = LINE('',#634,#635);
#634 = CARTESIAN_POINT('',(47.,-2.,13.87));
#635 = VECTOR('',#636,1.);
#636 = DIRECTION('',(-1.,0.,0.));
#637 = ORIENTED_EDGE('',*,*,#638,.F.);
#638 = EDGE_CURVE('',#259,#631,#639,.T.);
#639 = CIRCLE('',#640,6.);
#640 = AXIS2_PLACEMENT_3D('',#641,#642,#643);
#641 = CARTESIAN_POINT('',(-41.,-2.,7.87));
#642 = DIRECTION('',(0.,1.,0.));
#643 = DIRECTION('',(0.,0.,-1.));
#644 = FACE_BOUND('',#645,.F.);
#645 = EDGE_LOOP('',(#646));
#646 = ORIENTED_EDGE('',*,*,#647,.F.);
#647 = EDGE_CURVE('',#648,#648,#650,.T.);
#648 = VERTEX_POINT('',#649);
#649 = CARTESIAN_POINT('',(31.6,-2.,10.87));
#650 = CIRCLE('',#651,1.6);
#651 = AXIS2_PLACEMENT_3D('',#652,#653,#654);
#652 = CARTESIAN_POINT('',(30.,-2.,10.87));
#653 = DIRECTION('',(0.,-1.,2.2E-16));
#654 = DIRECTION('',(1.,0.,0.));
#655 = FACE_BOUND('',#656,.F.);
#656 = EDGE_LOOP('',(#657));
#657 = ORIENTED_EDGE('',*,*,#658,.F.);
#658 = EDGE_CURVE('',#659,#659,#661,.T.);
#659 = VERTEX_POINT('',#660);
#660 = CARTESIAN_POINT('',(10.6,-2.,10.87));
#661 = CIRCLE('',#662,1.6);
#662 = AXIS2_PLACEMENT_3D('',#663,#664,#665);
#663 = CARTESIAN_POINT('',(9.,-2.,10.87));
#664 = DIRECTION('',(0.,-1.,2.2E-16));
#665 = DIRECTION('',(1.,0.,0.));
#666 = FACE_BOUND('',#667,.F.);
#667 = EDGE_LOOP('',(#668));
#668 = ORIENTED_EDGE('',*,*,#669,.F.);
#669 = EDGE_CURVE('',#670,#670,#672,.T.);
#670 = VERTEX_POINT('',#671);
#671 = CARTESIAN_POINT('',(-7.4,-2.,10.87));
#672 = CIRCLE('',#673,1.6);
#673 = AXIS2_PLACEMENT_3D('',#674,#675,#676);
#674 = CARTESIAN_POINT('',(-9.,-2.,10.87));
#675 = DIRECTION('',(0.,-1.,2.2E-16));
#676 = DIRECTION('',(1.,0.,0.));
#677 = FACE_BOUND('',#678,.F.);
#678 = EDGE_LOOP('',(#679));
#679 = ORIENTED_EDGE('',*,*,#680,.F.);
#680 = EDGE_CURVE('',#681,#681,#683,.T.);
#681 = VERTEX_POINT('',#682);
#682 = CARTESIAN_POINT('',(-28.4,-2.,10.87));
#683 = CIRCLE('',#684,1.6);
#684 = AXIS2_PLACEMENT_3D('',#685,#686,#687);
#685 = CARTESIAN_POINT('',(-30.,-2.,10.87));
#686 = DIRECTION('',(0.,-1.,2.2E-16));
#687 = DIRECTION('',(1.,0.,0.));
#688 = PLANE('',#689);
#689 = AXIS2_PLACEMENT_3D('',#690,#691,#692);
#690 = CARTESIAN_POINT('',(47.,-2.,8.));
#691 = DIRECTION('',(0.,-1.,0.));
#692 = DIRECTION('',(-1.,0.,0.));
#693 = ADVANCED_FACE('',(#694),#730,.T.);
#694 = FACE_BOUND('',#695,.F.);
#695 = EDGE_LOOP('',(#696,#705,#706,#707,#715,#724));
#696 = ORIENTED_EDGE('',*,*,#697,.T.);
#697 = EDGE_CURVE('',#698,#251,#700,.T.);
#698 = VERTEX_POINT('',#699);
#699 = CARTESIAN_POINT('',(-47.,6.,7.87));
#700 = CIRCLE('',#701,6.);
#701 = AXIS2_PLACEMENT_3D('',#702,#703,#704);
#702 = CARTESIAN_POINT('',(-41.,6.,7.87));
#703 = DIRECTION('',(0.,1.,0.));
#704 = DIRECTION('',(0.,0.,-1.));
#705 = ORIENTED_EDGE('',*,*,#258,.T.);
#706 = ORIENTED_EDGE('',*,*,#638,.T.);
#707 = ORIENTED_EDGE('',*,*,#708,.T.);
#708 = EDGE_CURVE('',#631,#709,#711,.T.);
#709 = VERTEX_POINT('',#710);
#710 = CARTESIAN_POINT('',(-41.,-6.,13.87));
#711 = LINE('',#712,#713);
#712 = CARTESIAN_POINT('',(-41.,-2.,13.87));
#713 = VECTOR('',#714,1.);
#714 = DIRECTION('',(0.,-1.,0.));
#715 = ORIENTED_EDGE('',*,*,#716,.F.);
#716 = EDGE_CURVE('',#717,#709,#719,.T.);
#717 = VERTEX_POINT('',#718);
#718 = CARTESIAN_POINT('',(-47.,-6.,7.87));
#719 = CIRCLE('',#720,6.);
#720 = AXIS2_PLACEMENT_3D('',#721,#722,#723);
#721 = CARTESIAN_POINT('',(-41.,-6.,7.87));
#722 = DIRECTION('',(0.,1.,0.));
#723 = DIRECTION('',(0.,0.,-1.));
#724 = ORIENTED_EDGE('',*,*,#725,.F.);
#725 = EDGE_CURVE('',#698,#717,#726,.T.);
#726 = LINE('',#727,#728);
#727 = CARTESIAN_POINT('',(-47.,-2.,7.87));
#728 = VECTOR('',#729,1.);
#729 = DIRECTION('',(0.,-1.,0.));
#730 = CYLINDRICAL_SURFACE('',#731,6.);
#731 = AXIS2_PLACEMENT_3D('',#732,#733,#734);
#732 = CARTESIAN_POINT('',(-41.,-2.,7.87));
#733 = DIRECTION('',(0.,-1.,0.));
#734 = DIRECTION('',(-1.,0.,0.));
#735 = ADVANCED_FACE('',(#736),#762,.F.);
#736 = FACE_BOUND('',#737,.F.);
#737 = EDGE_LOOP('',(#738,#746,#747,#748,#756));
#738 = ORIENTED_EDGE('',*,*,#739,.F.);
#739 = EDGE_CURVE('',#243,#740,#742,.T.);
#740 = VERTEX_POINT('',#741);
#741 = CARTESIAN_POINT('',(-40.49859150134,6.,0.));
#742 = LINE('',#743,#744);
#743 = CARTESIAN_POINT('',(-40.49859150134,6.,8.));
#744 = VECTOR('',#745,1.);
#745 = DIRECTION('',(-0.,-0.,-1.));
#746 = ORIENTED_EDGE('',*,*,#250,.T.);
#747 = ORIENTED_EDGE('',*,*,#697,.F.);
#748 = ORIENTED_EDGE('',*,*,#749,.F.);
#749 = EDGE_CURVE('',#750,#698,#752,.T.);
#750 = VERTEX_POINT('',#751);
#751 = CARTESIAN_POINT('',(-47.,6.,0.));
#752 = LINE('',#753,#754);
#753 = CARTESIAN_POINT('',(-47.,6.,0.));
#754 = VECTOR('',#755,1.);
#755 = DIRECTION('',(0.,0.,1.));
#756 = ORIENTED_EDGE('',*,*,#757,.F.);
#757 = EDGE_CURVE('',#740,#750,#758,.T.);
#758 = LINE('',#759,#760);
#759 = CARTESIAN_POINT('',(47.,6.,0.));
#760 = VECTOR('',#761,1.);
#761 = DIRECTION('',(-1.,0.,0.));
#762 = PLANE('',#763);
#763 = AXIS2_PLACEMENT_3D('',#764,#765,#766);
#764 = CARTESIAN_POINT('',(47.,6.,0.));
#765 = DIRECTION('',(0.,-1.,0.));
#766 = DIRECTION('',(-1.,0.,0.));
#767 = ADVANCED_FACE('',(#768),#786,.F.);
#768 = FACE_BOUND('',#769,.F.);
#769 = EDGE_LOOP('',(#770,#771,#779,#785));
#770 = ORIENTED_EDGE('',*,*,#739,.T.);
#771 = ORIENTED_EDGE('',*,*,#772,.T.);
#772 = EDGE_CURVE('',#740,#773,#775,.T.);
#773 = VERTEX_POINT('',#774);
#774 = CARTESIAN_POINT('',(-40.49859150134,3.5,0.));
#775 = LINE('',#776,#777);
#776 = CARTESIAN_POINT('',(-40.49859150134,6.,0.));
#777 = VECTOR('',#778,1.);
#778 = DIRECTION('',(0.,-1.,0.));
#779 = ORIENTED_EDGE('',*,*,#780,.F.);
#780 = EDGE_CURVE('',#235,#773,#781,.T.);
#781 = LINE('',#782,#783);
#782 = CARTESIAN_POINT('',(-40.49859150134,3.5,8.));
#783 = VECTOR('',#784,1.);
#784 = DIRECTION('',(-0.,-0.,-1.));
#785 = ORIENTED_EDGE('',*,*,#242,.F.);
#786 = PLANE('',#787);
#787 = AXIS2_PLACEMENT_3D('',#788,#789,#790);
#788 = CARTESIAN_POINT('',(-40.49859150134,6.,8.));
#789 = DIRECTION('',(-1.,0.,0.));
#790 = DIRECTION('',(0.,-1.,0.));
#791 = ADVANCED_FACE('',(#792),#810,.F.);
#792 = FACE_BOUND('',#793,.F.);
#793 = EDGE_LOOP('',(#794,#795,#803,#809));
#794 = ORIENTED_EDGE('',*,*,#780,.T.);
#795 = ORIENTED_EDGE('',*,*,#796,.T.);
#796 = EDGE_CURVE('',#773,#797,#799,.T.);
#797 = VERTEX_POINT('',#798);
#798 = CARTESIAN_POINT('',(-35.49859150134,3.5,0.));
#799 = LINE('',#800,#801);
#800 = CARTESIAN_POINT('',(-40.49859150134,3.5,0.));
#801 = VECTOR('',#802,1.);
#802 = DIRECTION('',(1.,0.,0.));
#803 = ORIENTED_EDGE('',*,*,#804,.F.);
#804 = EDGE_CURVE('',#227,#797,#805,.T.);
#805 = LINE('',#806,#807);
#806 = CARTESIAN_POINT('',(-35.49859150134,3.5,8.));
#807 = VECTOR('',#808,1.);
#808 = DIRECTION('',(-0.,-0.,-1.));
#809 = ORIENTED_EDGE('',*,*,#234,.F.);
#810 = PLANE('',#811);
#811 = AXIS2_PLACEMENT_3D('',#812,#813,#814);
#812 = CARTESIAN_POINT('',(-40.49859150134,3.5,8.));
#813 = DIRECTION('',(0.,-1.,0.));
#814 = DIRECTION('',(1.,0.,0.));
#815 = ADVANCED_FACE('',(#816),#827,.F.);
#816 = FACE_BOUND('',#817,.F.);
#817 = EDGE_LOOP('',(#818,#819,#825,#826));
#818 = ORIENTED_EDGE('',*,*,#804,.T.);
#819 = ORIENTED_EDGE('',*,*,#820,.T.);
#820 = EDGE_CURVE('',#797,#489,#821,.T.);
#821 = LINE('',#822,#823);
#822 = CARTESIAN_POINT('',(-35.49859150134,3.5,0.));
#823 = VECTOR('',#824,1.);
#824 = DIRECTION('',(0.,1.,0.));
#825 = ORIENTED_EDGE('',*,*,#488,.F.);
#826 = ORIENTED_EDGE('',*,*,#226,.F.);
#827 = PLANE('',#828);
#828 = AXIS2_PLACEMENT_3D('',#829,#830,#831);
#829 = CARTESIAN_POINT('',(-35.49859150134,3.5,8.));
#830 = DIRECTION('',(1.,0.,0.));
#831 = DIRECTION('',(0.,1.,0.));
#832 = ADVANCED_FACE('',(#833),#852,.F.);
#833 = FACE_BOUND('',#834,.T.);
#834 = EDGE_LOOP('',(#835,#843,#844,#845));
#835 = ORIENTED_EDGE('',*,*,#836,.T.);
#836 = EDGE_CURVE('',#837,#275,#839,.T.);
#837 = VERTEX_POINT('',#838);
#838 = CARTESIAN_POINT('',(-30.1,1.5,0.));
#839 = LINE('',#840,#841);
#840 = CARTESIAN_POINT('',(-30.1,1.5,0.));
#841 = VECTOR('',#842,1.);
#842 = DIRECTION('',(0.,0.,1.));
#843 = ORIENTED_EDGE('',*,*,#274,.T.);
#844 = ORIENTED_EDGE('',*,*,#836,.F.);
#845 = ORIENTED_EDGE('',*,*,#846,.F.);
#846 = EDGE_CURVE('',#837,#837,#847,.T.);
#847 = CIRCLE('',#848,1.4);
#848 = AXIS2_PLACEMENT_3D('',#849,#850,#851);
#849 = CARTESIAN_POINT('',(-31.5,1.5,0.));
#850 = DIRECTION('',(0.,0.,1.));
#851 = DIRECTION('',(1.,0.,0.));
#852 = CYLINDRICAL_SURFACE('',#853,1.4);
#853 = AXIS2_PLACEMENT_3D('',#854,#855,#856);
#854 = CARTESIAN_POINT('',(-31.5,1.5,0.));
#855 = DIRECTION('',(-0.,-0.,-1.));
#856 = DIRECTION('',(1.,0.,0.));
#857 = ADVANCED_FACE('',(#858),#877,.F.);
#858 = FACE_BOUND('',#859,.T.);
#859 = EDGE_LOOP('',(#860,#868,#869,#870));
#860 = ORIENTED_EDGE('',*,*,#861,.T.);
#861 = EDGE_CURVE('',#862,#286,#864,.T.);
#862 = VERTEX_POINT('',#863);
#863 = CARTESIAN_POINT('',(1.4,1.5,0.));
#864 = LINE('',#865,#866);
#865 = CARTESIAN_POINT('',(1.4,1.5,0.));
#866 = VECTOR('',#867,1.);
#867 = DIRECTION('',(0.,0.,1.));
#868 = ORIENTED_EDGE('',*,*,#285,.T.);
#869 = ORIENTED_EDGE('',*,*,#861,.F.);
#870 = ORIENTED_EDGE('',*,*,#871,.F.);
#871 = EDGE_CURVE('',#862,#862,#872,.T.);
#872 = CIRCLE('',#873,1.4);
#873 = AXIS2_PLACEMENT_3D('',#874,#875,#876);
#874 = CARTESIAN_POINT('',(0.,1.5,0.));
#875 = DIRECTION('',(0.,0.,1.));
#876 = DIRECTION('',(1.,0.,0.));
#877 = CYLINDRICAL_SURFACE('',#878,1.4);
#878 = AXIS2_PLACEMENT_3D('',#879,#880,#881);
#879 = CARTESIAN_POINT('',(0.,1.5,0.));
#880 = DIRECTION('',(-0.,-0.,-1.));
#881 = DIRECTION('',(1.,0.,0.));
#882 = ADVANCED_FACE('',(#883),#933,.T.);
#883 = FACE_BOUND('',#884,.T.);
#884 = EDGE_LOOP('',(#885,#886,#887,#895,#903,#909,#910,#918,#926,#932)
  );
#885 = ORIENTED_EDGE('',*,*,#324,.T.);
#886 = ORIENTED_EDGE('',*,*,#598,.T.);
#887 = ORIENTED_EDGE('',*,*,#888,.F.);
#888 = EDGE_CURVE('',#889,#599,#891,.T.);
#889 = VERTEX_POINT('',#890);
#890 = CARTESIAN_POINT('',(1.25,-13.,13.87));
#891 = LINE('',#892,#893);
#892 = CARTESIAN_POINT('',(1.25,-13.,13.87));
#893 = VECTOR('',#894,1.);
#894 = DIRECTION('',(0.,1.,0.));
#895 = ORIENTED_EDGE('',*,*,#896,.F.);
#896 = EDGE_CURVE('',#897,#889,#899,.T.);
#897 = VERTEX_POINT('',#898);
#898 = CARTESIAN_POINT('',(3.5,-13.,13.87));
#899 = LINE('',#900,#901);
#900 = CARTESIAN_POINT('',(3.5,-13.,13.87));
#901 = VECTOR('',#902,1.);
#902 = DIRECTION('',(-1.,0.,0.));
#903 = ORIENTED_EDGE('',*,*,#904,.F.);
#904 = EDGE_CURVE('',#351,#897,#905,.T.);
#905 = LINE('',#906,#907);
#906 = CARTESIAN_POINT('',(3.5,-6.,13.87));
#907 = VECTOR('',#908,1.);
#908 = DIRECTION('',(0.,-1.,2.2E-16));
#909 = ORIENTED_EDGE('',*,*,#408,.T.);
#910 = ORIENTED_EDGE('',*,*,#911,.T.);
#911 = EDGE_CURVE('',#401,#912,#914,.T.);
#912 = VERTEX_POINT('',#913);
#913 = CARTESIAN_POINT('',(12.75,-3.7,13.87));
#914 = LINE('',#915,#916);
#915 = CARTESIAN_POINT('',(12.75,-6.,13.87));
#916 = VECTOR('',#917,1.);
#917 = DIRECTION('',(0.,1.,-2.2E-16));
#918 = ORIENTED_EDGE('',*,*,#919,.F.);
#919 = EDGE_CURVE('',#920,#912,#922,.T.);
#920 = VERTEX_POINT('',#921);
#921 = CARTESIAN_POINT('',(26.25,-3.7,13.87));
#922 = LINE('',#923,#924);
#923 = CARTESIAN_POINT('',(26.25,-3.7,13.87));
#924 = VECTOR('',#925,1.);
#925 = DIRECTION('',(-1.,0.,0.));
#926 = ORIENTED_EDGE('',*,*,#927,.F.);
#927 = EDGE_CURVE('',#377,#920,#928,.T.);
#928 = LINE('',#929,#930);
#929 = CARTESIAN_POINT('',(26.25,-6.,13.87));
#930 = VECTOR('',#931,1.);
#931 = DIRECTION('',(0.,1.,-2.2E-16));
#932 = ORIENTED_EDGE('',*,*,#376,.T.);
#933 = PLANE('',#934);
#934 = AXIS2_PLACEMENT_3D('',#935,#936,#937);
#935 = CARTESIAN_POINT('',(4.37E-15,-4.367418032787,13.87));
#936 = DIRECTION('',(0.,0.,1.));
#937 = DIRECTION('',(1.,0.,0.));
#938 = ADVANCED_FACE('',(#939),#957,.F.);
#939 = FACE_BOUND('',#940,.F.);
#940 = EDGE_LOOP('',(#941,#949,#955,#956));
#941 = ORIENTED_EDGE('',*,*,#942,.T.);
#942 = EDGE_CURVE('',#349,#943,#945,.T.);
#943 = VERTEX_POINT('',#944);
#944 = CARTESIAN_POINT('',(3.5,-13.,2.E-15));
#945 = LINE('',#946,#947);
#946 = CARTESIAN_POINT('',(3.5,-6.,0.));
#947 = VECTOR('',#948,1.);
#948 = DIRECTION('',(0.,-1.,2.2E-16));
#949 = ORIENTED_EDGE('',*,*,#950,.T.);
#950 = EDGE_CURVE('',#943,#897,#951,.T.);
#951 = LINE('',#952,#953);
#952 = CARTESIAN_POINT('',(3.5,-13.,2.E-15));
#953 = VECTOR('',#954,1.);
#954 = DIRECTION('',(0.,0.,1.));
#955 = ORIENTED_EDGE('',*,*,#904,.F.);
#956 = ORIENTED_EDGE('',*,*,#348,.F.);
#957 = PLANE('',#958);
#958 = AXIS2_PLACEMENT_3D('',#959,#960,#961);
#959 = CARTESIAN_POINT('',(3.5,-6.,0.));
#960 = DIRECTION('',(-1.,0.,0.));
#961 = DIRECTION('',(0.,2.2E-16,1.));
#962 = ADVANCED_FACE('',(#963),#981,.F.);
#963 = FACE_BOUND('',#964,.F.);
#964 = EDGE_LOOP('',(#965,#966,#974,#980));
#965 = ORIENTED_EDGE('',*,*,#911,.T.);
#966 = ORIENTED_EDGE('',*,*,#967,.T.);
#967 = EDGE_CURVE('',#912,#968,#970,.T.);
#968 = VERTEX_POINT('',#969);
#969 = CARTESIAN_POINT('',(12.75,-3.7,8.119999999999));
#970 = LINE('',#971,#972);
#971 = CARTESIAN_POINT('',(12.75,-3.7,13.87));
#972 = VECTOR('',#973,1.);
#973 = DIRECTION('',(0.,0.,-1.));
#974 = ORIENTED_EDGE('',*,*,#975,.F.);
#975 = EDGE_CURVE('',#393,#968,#976,.T.);
#976 = LINE('',#977,#978);
#977 = CARTESIAN_POINT('',(12.75,-6.,8.119999999999));
#978 = VECTOR('',#979,1.);
#979 = DIRECTION('',(0.,1.,-2.2E-16));
#980 = ORIENTED_EDGE('',*,*,#400,.F.);
#981 = PLANE('',#982);
#982 = AXIS2_PLACEMENT_3D('',#983,#984,#985);
#983 = CARTESIAN_POINT('',(12.75,-6.,13.87));
#984 = DIRECTION('',(-1.,0.,0.));
#985 = DIRECTION('',(-0.,-2.2E-16,-1.));
#986 = ADVANCED_FACE('',(#987),#1005,.F.);
#987 = FACE_BOUND('',#988,.F.);
#988 = EDGE_LOOP('',(#989,#990,#998,#1004));
#989 = ORIENTED_EDGE('',*,*,#975,.T.);
#990 = ORIENTED_EDGE('',*,*,#991,.T.);
#991 = EDGE_CURVE('',#968,#992,#994,.T.);
#992 = VERTEX_POINT('',#993);
#993 = CARTESIAN_POINT('',(26.25,-3.7,8.119999999999));
#994 = LINE('',#995,#996);
#995 = CARTESIAN_POINT('',(12.75,-3.7,8.119999999999));
#996 = VECTOR('',#997,1.);
#997 = DIRECTION('',(1.,0.,0.));
#998 = ORIENTED_EDGE('',*,*,#999,.F.);
#999 = EDGE_CURVE('',#385,#992,#1000,.T.);
#1000 = LINE('',#1001,#1002);
#1001 = CARTESIAN_POINT('',(26.25,-6.,8.119999999999));
#1002 = VECTOR('',#1003,1.);
#1003 = DIRECTION('',(0.,1.,-2.2E-16));
#1004 = ORIENTED_EDGE('',*,*,#392,.F.);
#1005 = PLANE('',#1006);
#1006 = AXIS2_PLACEMENT_3D('',#1007,#1008,#1009);
#1007 = CARTESIAN_POINT('',(12.75,-6.,8.119999999999));
#1008 = DIRECTION('',(0.,-2.2E-16,-1.));
#1009 = DIRECTION('',(1.,0.,0.));
#1010 = ADVANCED_FACE('',(#1011),#1022,.F.);
#1011 = FACE_BOUND('',#1012,.F.);
#1012 = EDGE_LOOP('',(#1013,#1014,#1020,#1021));
#1013 = ORIENTED_EDGE('',*,*,#999,.T.);
#1014 = ORIENTED_EDGE('',*,*,#1015,.T.);
#1015 = EDGE_CURVE('',#992,#920,#1016,.T.);
#1016 = LINE('',#1017,#1018);
#1017 = CARTESIAN_POINT('',(26.25,-3.7,8.119999999999));
#1018 = VECTOR('',#1019,1.);
#1019 = DIRECTION('',(0.,0.,1.));
#1020 = ORIENTED_EDGE('',*,*,#927,.F.);
#1021 = ORIENTED_EDGE('',*,*,#384,.F.);
#1022 = PLANE('',#1023);
#1023 = AXIS2_PLACEMENT_3D('',#1024,#1025,#1026);
#1024 = CARTESIAN_POINT('',(26.25,-6.,8.119999999999));
#1025 = DIRECTION('',(1.,0.,0.));
#1026 = DIRECTION('',(0.,2.2E-16,1.));
#1027 = ADVANCED_FACE('',(#1028,#1064),#1067,.T.);
#1028 = FACE_BOUND('',#1029,.T.);
#1029 = EDGE_LOOP('',(#1030,#1031,#1032,#1033,#1034,#1042,#1050,#1058));
#1030 = ORIENTED_EDGE('',*,*,#513,.F.);
#1031 = ORIENTED_EDGE('',*,*,#465,.F.);
#1032 = ORIENTED_EDGE('',*,*,#358,.F.);
#1033 = ORIENTED_EDGE('',*,*,#942,.T.);
#1034 = ORIENTED_EDGE('',*,*,#1035,.F.);
#1035 = EDGE_CURVE('',#1036,#943,#1038,.T.);
#1036 = VERTEX_POINT('',#1037);
#1037 = CARTESIAN_POINT('',(-3.5,-13.,2.E-15));
#1038 = LINE('',#1039,#1040);
#1039 = CARTESIAN_POINT('',(-3.5,-13.,2.E-15));
#1040 = VECTOR('',#1041,1.);
#1041 = DIRECTION('',(1.,0.,0.));
#1042 = ORIENTED_EDGE('',*,*,#1043,.F.);
#1043 = EDGE_CURVE('',#1044,#1036,#1046,.T.);
#1044 = VERTEX_POINT('',#1045);
#1045 = CARTESIAN_POINT('',(-3.5,-6.,0.));
#1046 = LINE('',#1047,#1048);
#1047 = CARTESIAN_POINT('',(-3.5,-6.,0.));
#1048 = VECTOR('',#1049,1.);
#1049 = DIRECTION('',(0.,-1.,2.2E-16));
#1050 = ORIENTED_EDGE('',*,*,#1051,.F.);
#1051 = EDGE_CURVE('',#1052,#1044,#1054,.T.);
#1052 = VERTEX_POINT('',#1053);
#1053 = CARTESIAN_POINT('',(-5.5,-6.,-0.));
#1054 = LINE('',#1055,#1056);
#1055 = CARTESIAN_POINT('',(-47.,-6.,0.));
#1056 = VECTOR('',#1057,1.);
#1057 = DIRECTION('',(1.,0.,0.));
#1058 = ORIENTED_EDGE('',*,*,#1059,.T.);
#1059 = EDGE_CURVE('',#1052,#505,#1060,.T.);
#1060 = LINE('',#1061,#1062);
#1061 = CARTESIAN_POINT('',(-5.5,-6.,0.));
#1062 = VECTOR('',#1063,1.);
#1063 = DIRECTION('',(0.,1.,-2.2E-16));
#1064 = FACE_BOUND('',#1065,.T.);
#1065 = EDGE_LOOP('',(#1066));
#1066 = ORIENTED_EDGE('',*,*,#871,.T.);
#1067 = PLANE('',#1068);
#1068 = AXIS2_PLACEMENT_3D('',#1069,#1070,#1071);
#1069 = CARTESIAN_POINT('',(0.,-3.033333333333,-8.E-17));
#1070 = DIRECTION('',(-0.,-0.,-1.));
#1071 = DIRECTION('',(-1.,0.,0.));
#1072 = ADVANCED_FACE('',(#1073),#1084,.F.);
#1073 = FACE_BOUND('',#1074,.F.);
#1074 = EDGE_LOOP('',(#1075,#1076,#1082,#1083));
#1075 = ORIENTED_EDGE('',*,*,#416,.F.);
#1076 = ORIENTED_EDGE('',*,*,#1077,.T.);
#1077 = EDGE_CURVE('',#417,#659,#1078,.T.);
#1078 = LINE('',#1079,#1080);
#1079 = CARTESIAN_POINT('',(10.6,-6.,10.87));
#1080 = VECTOR('',#1081,1.);
#1081 = DIRECTION('',(0.,1.,-2.2E-16));
#1082 = ORIENTED_EDGE('',*,*,#658,.T.);
#1083 = ORIENTED_EDGE('',*,*,#1077,.F.);
#1084 = CYLINDRICAL_SURFACE('',#1085,1.6);
#1085 = AXIS2_PLACEMENT_3D('',#1086,#1087,#1088);
#1086 = CARTESIAN_POINT('',(9.,-6.,10.87));
#1087 = DIRECTION('',(0.,-1.,2.2E-16));
#1088 = DIRECTION('',(1.,0.,0.));
#1089 = ADVANCED_FACE('',(#1090),#1101,.F.);
#1090 = FACE_BOUND('',#1091,.F.);
#1091 = EDGE_LOOP('',(#1092,#1093,#1099,#1100));
#1092 = ORIENTED_EDGE('',*,*,#427,.F.);
#1093 = ORIENTED_EDGE('',*,*,#1094,.T.);
#1094 = EDGE_CURVE('',#428,#648,#1095,.T.);
#1095 = LINE('',#1096,#1097);
#1096 = CARTESIAN_POINT('',(31.6,-6.,10.87));
#1097 = VECTOR('',#1098,1.);
#1098 = DIRECTION('',(0.,1.,-2.2E-16));
#1099 = ORIENTED_EDGE('',*,*,#647,.T.);
#1100 = ORIENTED_EDGE('',*,*,#1094,.F.);
#1101 = CYLINDRICAL_SURFACE('',#1102,1.6);
#1102 = AXIS2_PLACEMENT_3D('',#1103,#1104,#1105);
#1103 = CARTESIAN_POINT('',(30.,-6.,10.87));
#1104 = DIRECTION('',(0.,-1.,2.2E-16));
#1105 = DIRECTION('',(1.,0.,0.));
#1106 = ADVANCED_FACE('',(#1107),#1118,.F.);
#1107 = FACE_BOUND('',#1108,.F.);
#1108 = EDGE_LOOP('',(#1109,#1115,#1116,#1117));
#1109 = ORIENTED_EDGE('',*,*,#1110,.T.);
#1110 = EDGE_CURVE('',#439,#523,#1111,.T.);
#1111 = LINE('',#1112,#1113);
#1112 = CARTESIAN_POINT('',(20.9,-6.,4.));
#1113 = VECTOR('',#1114,1.);
#1114 = DIRECTION('',(0.,1.,-2.2E-16));
#1115 = ORIENTED_EDGE('',*,*,#522,.T.);
#1116 = ORIENTED_EDGE('',*,*,#1110,.F.);
#1117 = ORIENTED_EDGE('',*,*,#438,.F.);
#1118 = CYLINDRICAL_SURFACE('',#1119,1.4);
#1119 = AXIS2_PLACEMENT_3D('',#1120,#1121,#1122);
#1120 = CARTESIAN_POINT('',(19.5,-6.,4.));
#1121 = DIRECTION('',(0.,-1.,2.2E-16));
#1122 = DIRECTION('',(1.,0.,0.));
#1123 = ADVANCED_FACE('',(#1124),#1143,.F.);
#1124 = FACE_BOUND('',#1125,.F.);
#1125 = EDGE_LOOP('',(#1126,#1127,#1128,#1136));
#1126 = ORIENTED_EDGE('',*,*,#1059,.T.);
#1127 = ORIENTED_EDGE('',*,*,#504,.T.);
#1128 = ORIENTED_EDGE('',*,*,#1129,.F.);
#1129 = EDGE_CURVE('',#1130,#497,#1132,.T.);
#1130 = VERTEX_POINT('',#1131);
#1131 = CARTESIAN_POINT('',(-12.5,-6.,0.));
#1132 = LINE('',#1133,#1134);
#1133 = CARTESIAN_POINT('',(-12.5,-6.,4.3E-16));
#1134 = VECTOR('',#1135,1.);
#1135 = DIRECTION('',(0.,1.,-2.2E-16));
#1136 = ORIENTED_EDGE('',*,*,#1137,.F.);
#1137 = EDGE_CURVE('',#1052,#1130,#1138,.T.);
#1138 = CIRCLE('',#1139,3.5);
#1139 = AXIS2_PLACEMENT_3D('',#1140,#1141,#1142);
#1140 = CARTESIAN_POINT('',(-9.,-6.,0.));
#1141 = DIRECTION('',(0.,-1.,0.));
#1142 = DIRECTION('',(1.,0.,0.));
#1143 = CYLINDRICAL_SURFACE('',#1144,3.5);
#1144 = AXIS2_PLACEMENT_3D('',#1145,#1146,#1147);
#1145 = CARTESIAN_POINT('',(-9.,-6.,0.));
#1146 = DIRECTION('',(0.,-1.,2.2E-16));
#1147 = DIRECTION('',(1.,0.,0.));
#1148 = ADVANCED_FACE('',(#1149,#1171),#1174,.F.);
#1149 = FACE_BOUND('',#1150,.F.);
#1150 = EDGE_LOOP('',(#1151,#1152,#1153,#1154,#1155,#1156,#1157,#1165));
#1151 = ORIENTED_EDGE('',*,*,#1129,.T.);
#1152 = ORIENTED_EDGE('',*,*,#496,.T.);
#1153 = ORIENTED_EDGE('',*,*,#820,.F.);
#1154 = ORIENTED_EDGE('',*,*,#796,.F.);
#1155 = ORIENTED_EDGE('',*,*,#772,.F.);
#1156 = ORIENTED_EDGE('',*,*,#757,.T.);
#1157 = ORIENTED_EDGE('',*,*,#1158,.T.);
#1158 = EDGE_CURVE('',#750,#1159,#1161,.T.);
#1159 = VERTEX_POINT('',#1160);
#1160 = CARTESIAN_POINT('',(-47.,-6.,0.));
#1161 = LINE('',#1162,#1163);
#1162 = CARTESIAN_POINT('',(-47.,6.,0.));
#1163 = VECTOR('',#1164,1.);
#1164 = DIRECTION('',(0.,-1.,0.));
#1165 = ORIENTED_EDGE('',*,*,#1166,.T.);
#1166 = EDGE_CURVE('',#1159,#1130,#1167,.T.);
#1167 = LINE('',#1168,#1169);
#1168 = CARTESIAN_POINT('',(-47.,-6.,0.));
#1169 = VECTOR('',#1170,1.);
#1170 = DIRECTION('',(1.,0.,0.));
#1171 = FACE_BOUND('',#1172,.F.);
#1172 = EDGE_LOOP('',(#1173));
#1173 = ORIENTED_EDGE('',*,*,#846,.F.);
#1174 = PLANE('',#1175);
#1175 = AXIS2_PLACEMENT_3D('',#1176,#1177,#1178);
#1176 = CARTESIAN_POINT('',(-7.6E-16,0.140001807508,0.));
#1177 = DIRECTION('',(0.,0.,1.));
#1178 = DIRECTION('',(1.,0.,0.));
#1179 = ADVANCED_FACE('',(#1180),#1199,.F.);
#1180 = FACE_BOUND('',#1181,.F.);
#1181 = EDGE_LOOP('',(#1182,#1190,#1191,#1192));
#1182 = ORIENTED_EDGE('',*,*,#1183,.T.);
#1183 = EDGE_CURVE('',#1184,#534,#1186,.T.);
#1184 = VERTEX_POINT('',#1185);
#1185 = CARTESIAN_POINT('',(-18.1,-6.,4.));
#1186 = LINE('',#1187,#1188);
#1187 = CARTESIAN_POINT('',(-18.1,-6.,4.));
#1188 = VECTOR('',#1189,1.);
#1189 = DIRECTION('',(0.,1.,-2.2E-16));
#1190 = ORIENTED_EDGE('',*,*,#533,.T.);
#1191 = ORIENTED_EDGE('',*,*,#1183,.F.);
#1192 = ORIENTED_EDGE('',*,*,#1193,.F.);
#1193 = EDGE_CURVE('',#1184,#1184,#1194,.T.);
#1194 = CIRCLE('',#1195,1.4);
#1195 = AXIS2_PLACEMENT_3D('',#1196,#1197,#1198);
#1196 = CARTESIAN_POINT('',(-19.5,-6.,4.));
#1197 = DIRECTION('',(0.,-1.,0.));
#1198 = DIRECTION('',(1.,0.,0.));
#1199 = CYLINDRICAL_SURFACE('',#1200,1.4);
#1200 = AXIS2_PLACEMENT_3D('',#1201,#1202,#1203);
#1201 = CARTESIAN_POINT('',(-19.5,-6.,4.));
#1202 = DIRECTION('',(0.,-1.,2.2E-16));
#1203 = DIRECTION('',(1.,0.,0.));
#1204 = ADVANCED_FACE('',(#1205),#1271,.T.);
#1205 = FACE_BOUND('',#1206,.T.);
#1206 = EDGE_LOOP('',(#1207,#1215,#1216,#1217,#1225,#1233,#1241,#1249,
    #1257,#1265));
#1207 = ORIENTED_EDGE('',*,*,#1208,.F.);
#1208 = EDGE_CURVE('',#623,#1209,#1211,.T.);
#1209 = VERTEX_POINT('',#1210);
#1210 = CARTESIAN_POINT('',(-1.25,-13.,13.87));
#1211 = LINE('',#1212,#1213);
#1212 = CARTESIAN_POINT('',(-1.25,-2.,13.87));
#1213 = VECTOR('',#1214,1.);
#1214 = DIRECTION('',(0.,-1.,0.));
#1215 = ORIENTED_EDGE('',*,*,#630,.T.);
#1216 = ORIENTED_EDGE('',*,*,#708,.T.);
#1217 = ORIENTED_EDGE('',*,*,#1218,.T.);
#1218 = EDGE_CURVE('',#709,#1219,#1221,.T.);
#1219 = VERTEX_POINT('',#1220);
#1220 = CARTESIAN_POINT('',(-26.25,-6.,13.87));
#1221 = LINE('',#1222,#1223);
#1222 = CARTESIAN_POINT('',(-47.,-6.,13.87));
#1223 = VECTOR('',#1224,1.);
#1224 = DIRECTION('',(1.,-1.E-17,0.));
#1225 = ORIENTED_EDGE('',*,*,#1226,.T.);
#1226 = EDGE_CURVE('',#1219,#1227,#1229,.T.);
#1227 = VERTEX_POINT('',#1228);
#1228 = CARTESIAN_POINT('',(-26.25,-3.7,13.87));
#1229 = LINE('',#1230,#1231);
#1230 = CARTESIAN_POINT('',(-26.25,-6.,13.87));
#1231 = VECTOR('',#1232,1.);
#1232 = DIRECTION('',(0.,1.,-2.2E-16));
#1233 = ORIENTED_EDGE('',*,*,#1234,.F.);
#1234 = EDGE_CURVE('',#1235,#1227,#1237,.T.);
#1235 = VERTEX_POINT('',#1236);
#1236 = CARTESIAN_POINT('',(-12.75,-3.7,13.87));
#1237 = LINE('',#1238,#1239);
#1238 = CARTESIAN_POINT('',(-12.75,-3.7,13.87));
#1239 = VECTOR('',#1240,1.);
#1240 = DIRECTION('',(-1.,0.,0.));
#1241 = ORIENTED_EDGE('',*,*,#1242,.F.);
#1242 = EDGE_CURVE('',#1243,#1235,#1245,.T.);
#1243 = VERTEX_POINT('',#1244);
#1244 = CARTESIAN_POINT('',(-12.75,-6.,13.87));
#1245 = LINE('',#1246,#1247);
#1246 = CARTESIAN_POINT('',(-12.75,-6.,13.87));
#1247 = VECTOR('',#1248,1.);
#1248 = DIRECTION('',(0.,1.,-2.2E-16));
#1249 = ORIENTED_EDGE('',*,*,#1250,.T.);
#1250 = EDGE_CURVE('',#1243,#1251,#1253,.T.);
#1251 = VERTEX_POINT('',#1252);
#1252 = CARTESIAN_POINT('',(-3.5,-6.,13.87));
#1253 = LINE('',#1254,#1255);
#1254 = CARTESIAN_POINT('',(-47.,-6.,13.87));
#1255 = VECTOR('',#1256,1.);
#1256 = DIRECTION('',(1.,-1.E-17,0.));
#1257 = ORIENTED_EDGE('',*,*,#1258,.T.);
#1258 = EDGE_CURVE('',#1251,#1259,#1261,.T.);
#1259 = VERTEX_POINT('',#1260);
#1260 = CARTESIAN_POINT('',(-3.5,-13.,13.87));
#1261 = LINE('',#1262,#1263);
#1262 = CARTESIAN_POINT('',(-3.5,-6.,13.87));
#1263 = VECTOR('',#1264,1.);
#1264 = DIRECTION('',(0.,-1.,2.2E-16));
#1265 = ORIENTED_EDGE('',*,*,#1266,.F.);
#1266 = EDGE_CURVE('',#1209,#1259,#1267,.T.);
#1267 = LINE('',#1268,#1269);
#1268 = CARTESIAN_POINT('',(3.5,-13.,13.87));
#1269 = VECTOR('',#1270,1.);
#1270 = DIRECTION('',(-1.,0.,0.));
#1271 = PLANE('',#1272);
#1272 = AXIS2_PLACEMENT_3D('',#1273,#1274,#1275);
#1273 = CARTESIAN_POINT('',(4.37E-15,-4.367418032787,13.87));
#1274 = DIRECTION('',(0.,0.,1.));
#1275 = DIRECTION('',(1.,0.,0.));
#1276 = ADVANCED_FACE('',(#1277),#1295,.F.);
#1277 = FACE_BOUND('',#1278,.F.);
#1278 = EDGE_LOOP('',(#1279,#1280,#1288,#1294));
#1279 = ORIENTED_EDGE('',*,*,#622,.T.);
#1280 = ORIENTED_EDGE('',*,*,#1281,.T.);
#1281 = EDGE_CURVE('',#615,#1282,#1284,.T.);
#1282 = VERTEX_POINT('',#1283);
#1283 = CARTESIAN_POINT('',(-1.25,-13.,8.87));
#1284 = LINE('',#1285,#1286);
#1285 = CARTESIAN_POINT('',(-1.25,-2.,8.87));
#1286 = VECTOR('',#1287,1.);
#1287 = DIRECTION('',(0.,-1.,0.));
#1288 = ORIENTED_EDGE('',*,*,#1289,.F.);
#1289 = EDGE_CURVE('',#1209,#1282,#1290,.T.);
#1290 = LINE('',#1291,#1292);
#1291 = CARTESIAN_POINT('',(-1.25,-13.,13.87));
#1292 = VECTOR('',#1293,1.);
#1293 = DIRECTION('',(-0.,-0.,-1.));
#1294 = ORIENTED_EDGE('',*,*,#1208,.F.);
#1295 = PLANE('',#1296);
#1296 = AXIS2_PLACEMENT_3D('',#1297,#1298,#1299);
#1297 = CARTESIAN_POINT('',(-1.25,-2.,13.87));
#1298 = DIRECTION('',(-1.,0.,0.));
#1299 = DIRECTION('',(0.,-1.,0.));
#1300 = ADVANCED_FACE('',(#1301),#1319,.T.);
#1301 = FACE_BOUND('',#1302,.T.);
#1302 = EDGE_LOOP('',(#1303,#1304,#1312,#1318));
#1303 = ORIENTED_EDGE('',*,*,#1281,.T.);
#1304 = ORIENTED_EDGE('',*,*,#1305,.T.);
#1305 = EDGE_CURVE('',#1282,#1306,#1308,.T.);
#1306 = VERTEX_POINT('',#1307);
#1307 = CARTESIAN_POINT('',(1.25,-13.,8.87));
#1308 = LINE('',#1309,#1310);
#1309 = CARTESIAN_POINT('',(-1.25,-13.,8.87));
#1310 = VECTOR('',#1311,1.);
#1311 = DIRECTION('',(1.,0.,0.));
#1312 = ORIENTED_EDGE('',*,*,#1313,.T.);
#1313 = EDGE_CURVE('',#1306,#607,#1314,.T.);
#1314 = LINE('',#1315,#1316);
#1315 = CARTESIAN_POINT('',(1.25,-13.,8.87));
#1316 = VECTOR('',#1317,1.);
#1317 = DIRECTION('',(0.,1.,0.));
#1318 = ORIENTED_EDGE('',*,*,#614,.T.);
#1319 = PLANE('',#1320);
#1320 = AXIS2_PLACEMENT_3D('',#1321,#1322,#1323);
#1321 = CARTESIAN_POINT('',(0.,-7.5,8.87));
#1322 = DIRECTION('',(0.,0.,1.));
#1323 = DIRECTION('',(1.,0.,0.));
#1324 = ADVANCED_FACE('',(#1325),#1336,.F.);
#1325 = FACE_BOUND('',#1326,.F.);
#1326 = EDGE_LOOP('',(#1327,#1333,#1334,#1335));
#1327 = ORIENTED_EDGE('',*,*,#1328,.T.);
#1328 = EDGE_CURVE('',#889,#1306,#1329,.T.);
#1329 = LINE('',#1330,#1331);
#1330 = CARTESIAN_POINT('',(1.25,-13.,13.87));
#1331 = VECTOR('',#1332,1.);
#1332 = DIRECTION('',(-0.,-0.,-1.));
#1333 = ORIENTED_EDGE('',*,*,#1313,.T.);
#1334 = ORIENTED_EDGE('',*,*,#606,.F.);
#1335 = ORIENTED_EDGE('',*,*,#888,.F.);
#1336 = PLANE('',#1337);
#1337 = AXIS2_PLACEMENT_3D('',#1338,#1339,#1340);
#1338 = CARTESIAN_POINT('',(1.25,-13.,13.87));
#1339 = DIRECTION('',(1.,0.,0.));
#1340 = DIRECTION('',(-0.,1.,0.));
#1341 = ADVANCED_FACE('',(#1342),#1361,.F.);
#1342 = FACE_BOUND('',#1343,.F.);
#1343 = EDGE_LOOP('',(#1344,#1353,#1359,#1360));
#1344 = ORIENTED_EDGE('',*,*,#1345,.F.);
#1345 = EDGE_CURVE('',#1346,#1346,#1348,.T.);
#1346 = VERTEX_POINT('',#1347);
#1347 = CARTESIAN_POINT('',(-7.4,-6.,10.87));
#1348 = CIRCLE('',#1349,1.6);
#1349 = AXIS2_PLACEMENT_3D('',#1350,#1351,#1352);
#1350 = CARTESIAN_POINT('',(-9.,-6.,10.87));
#1351 = DIRECTION('',(0.,-1.,0.));
#1352 = DIRECTION('',(1.,0.,0.));
#1353 = ORIENTED_EDGE('',*,*,#1354,.T.);
#1354 = EDGE_CURVE('',#1346,#670,#1355,.T.);
#1355 = LINE('',#1356,#1357);
#1356 = CARTESIAN_POINT('',(-7.4,-6.,10.87));
#1357 = VECTOR('',#1358,1.);
#1358 = DIRECTION('',(0.,1.,-2.2E-16));
#1359 = ORIENTED_EDGE('',*,*,#669,.T.);
#1360 = ORIENTED_EDGE('',*,*,#1354,.F.);
#1361 = CYLINDRICAL_SURFACE('',#1362,1.6);
#1362 = AXIS2_PLACEMENT_3D('',#1363,#1364,#1365);
#1363 = CARTESIAN_POINT('',(-9.,-6.,10.87));
#1364 = DIRECTION('',(0.,-1.,2.2E-16));
#1365 = DIRECTION('',(1.,0.,0.));
#1366 = ADVANCED_FACE('',(#1367),#1386,.F.);
#1367 = FACE_BOUND('',#1368,.F.);
#1368 = EDGE_LOOP('',(#1369,#1378,#1384,#1385));
#1369 = ORIENTED_EDGE('',*,*,#1370,.F.);
#1370 = EDGE_CURVE('',#1371,#1371,#1373,.T.);
#1371 = VERTEX_POINT('',#1372);
#1372 = CARTESIAN_POINT('',(-28.4,-6.,10.87));
#1373 = CIRCLE('',#1374,1.6);
#1374 = AXIS2_PLACEMENT_3D('',#1375,#1376,#1377);
#1375 = CARTESIAN_POINT('',(-30.,-6.,10.87));
#1376 = DIRECTION('',(0.,-1.,0.));
#1377 = DIRECTION('',(1.,0.,0.));
#1378 = ORIENTED_EDGE('',*,*,#1379,.T.);
#1379 = EDGE_CURVE('',#1371,#681,#1380,.T.);
#1380 = LINE('',#1381,#1382);
#1381 = CARTESIAN_POINT('',(-28.4,-6.,10.87));
#1382 = VECTOR('',#1383,1.);
#1383 = DIRECTION('',(0.,1.,-2.2E-16));
#1384 = ORIENTED_EDGE('',*,*,#680,.T.);
#1385 = ORIENTED_EDGE('',*,*,#1379,.F.);
#1386 = CYLINDRICAL_SURFACE('',#1387,1.6);
#1387 = AXIS2_PLACEMENT_3D('',#1388,#1389,#1390);
#1388 = CARTESIAN_POINT('',(-30.,-6.,10.87));
#1389 = DIRECTION('',(0.,-1.,2.2E-16));
#1390 = DIRECTION('',(1.,0.,0.));
#1391 = ADVANCED_FACE('',(#1392),#1403,.T.);
#1392 = FACE_BOUND('',#1393,.T.);
#1393 = EDGE_LOOP('',(#1394,#1395,#1396,#1402));
#1394 = ORIENTED_EDGE('',*,*,#749,.F.);
#1395 = ORIENTED_EDGE('',*,*,#1158,.T.);
#1396 = ORIENTED_EDGE('',*,*,#1397,.T.);
#1397 = EDGE_CURVE('',#1159,#717,#1398,.T.);
#1398 = LINE('',#1399,#1400);
#1399 = CARTESIAN_POINT('',(-47.,-6.,0.));
#1400 = VECTOR('',#1401,1.);
#1401 = DIRECTION('',(0.,0.,1.));
#1402 = ORIENTED_EDGE('',*,*,#725,.F.);
#1403 = PLANE('',#1404);
#1404 = AXIS2_PLACEMENT_3D('',#1405,#1406,#1407);
#1405 = CARTESIAN_POINT('',(-47.,-0.907614998067,6.027385001933));
#1406 = DIRECTION('',(-1.,-0.,-0.));
#1407 = DIRECTION('',(0.,0.,-1.));
#1408 = ADVANCED_FACE('',(#1409,#1446,#1449,#1452),#1455,.T.);
#1409 = FACE_BOUND('',#1410,.T.);
#1410 = EDGE_LOOP('',(#1411,#1412,#1413,#1414,#1415,#1416,#1422,#1423,
    #1431,#1439,#1445));
#1411 = ORIENTED_EDGE('',*,*,#716,.F.);
#1412 = ORIENTED_EDGE('',*,*,#1397,.F.);
#1413 = ORIENTED_EDGE('',*,*,#1166,.T.);
#1414 = ORIENTED_EDGE('',*,*,#1137,.F.);
#1415 = ORIENTED_EDGE('',*,*,#1051,.T.);
#1416 = ORIENTED_EDGE('',*,*,#1417,.F.);
#1417 = EDGE_CURVE('',#1251,#1044,#1418,.T.);
#1418 = LINE('',#1419,#1420);
#1419 = CARTESIAN_POINT('',(-3.5,-6.,13.87));
#1420 = VECTOR('',#1421,1.);
#1421 = DIRECTION('',(0.,0.,-1.));
#1422 = ORIENTED_EDGE('',*,*,#1250,.F.);
#1423 = ORIENTED_EDGE('',*,*,#1424,.F.);
#1424 = EDGE_CURVE('',#1425,#1243,#1427,.T.);
#1425 = VERTEX_POINT('',#1426);
#1426 = CARTESIAN_POINT('',(-12.75,-6.,8.12));
#1427 = LINE('',#1428,#1429);
#1428 = CARTESIAN_POINT('',(-12.75,-6.,8.12));
#1429 = VECTOR('',#1430,1.);
#1430 = DIRECTION('',(0.,0.,1.));
#1431 = ORIENTED_EDGE('',*,*,#1432,.F.);
#1432 = EDGE_CURVE('',#1433,#1425,#1435,.T.);
#1433 = VERTEX_POINT('',#1434);
#1434 = CARTESIAN_POINT('',(-26.25,-6.,8.12));
#1435 = LINE('',#1436,#1437);
#1436 = CARTESIAN_POINT('',(-26.25,-6.,8.12));
#1437 = VECTOR('',#1438,1.);
#1438 = DIRECTION('',(1.,0.,0.));
#1439 = ORIENTED_EDGE('',*,*,#1440,.F.);
#1440 = EDGE_CURVE('',#1219,#1433,#1441,.T.);
#1441 = LINE('',#1442,#1443);
#1442 = CARTESIAN_POINT('',(-26.25,-6.,13.87));
#1443 = VECTOR('',#1444,1.);
#1444 = DIRECTION('',(0.,0.,-1.));
#1445 = ORIENTED_EDGE('',*,*,#1218,.F.);
#1446 = FACE_BOUND('',#1447,.T.);
#1447 = EDGE_LOOP('',(#1448));
#1448 = ORIENTED_EDGE('',*,*,#1370,.F.);
#1449 = FACE_BOUND('',#1450,.T.);
#1450 = EDGE_LOOP('',(#1451));
#1451 = ORIENTED_EDGE('',*,*,#1345,.F.);
#1452 = FACE_BOUND('',#1453,.T.);
#1453 = EDGE_LOOP('',(#1454));
#1454 = ORIENTED_EDGE('',*,*,#1193,.F.);
#1455 = PLANE('',#1456);
#1456 = AXIS2_PLACEMENT_3D('',#1457,#1458,#1459);
#1457 = CARTESIAN_POINT('',(2.6E-16,-6.,6.935));
#1458 = DIRECTION('',(-0.,-1.,-0.));
#1459 = DIRECTION('',(0.,0.,-1.));
#1460 = ADVANCED_FACE('',(#1461),#1467,.F.);
#1461 = FACE_BOUND('',#1462,.T.);
#1462 = EDGE_LOOP('',(#1463,#1464,#1465,#1466));
#1463 = ORIENTED_EDGE('',*,*,#967,.T.);
#1464 = ORIENTED_EDGE('',*,*,#991,.T.);
#1465 = ORIENTED_EDGE('',*,*,#1015,.T.);
#1466 = ORIENTED_EDGE('',*,*,#919,.T.);
#1467 = PLANE('',#1468);
#1468 = AXIS2_PLACEMENT_3D('',#1469,#1470,#1471);
#1469 = CARTESIAN_POINT('',(5.1381E-13,-3.7,10.995));
#1470 = DIRECTION('',(0.,1.,0.));
#1471 = DIRECTION('',(0.,0.,1.));
#1472 = ADVANCED_FACE('',(#1473),#1488,.F.);
#1473 = FACE_BOUND('',#1474,.F.);
#1474 = EDGE_LOOP('',(#1475,#1481,#1482,#1483,#1484,#1485,#1486,#1487));
#1475 = ORIENTED_EDGE('',*,*,#1476,.F.);
#1476 = EDGE_CURVE('',#1259,#1036,#1477,.T.);
#1477 = LINE('',#1478,#1479);
#1478 = CARTESIAN_POINT('',(-3.5,-13.,13.87));
#1479 = VECTOR('',#1480,1.);
#1480 = DIRECTION('',(0.,0.,-1.));
#1481 = ORIENTED_EDGE('',*,*,#1266,.F.);
#1482 = ORIENTED_EDGE('',*,*,#1289,.T.);
#1483 = ORIENTED_EDGE('',*,*,#1305,.T.);
#1484 = ORIENTED_EDGE('',*,*,#1328,.F.);
#1485 = ORIENTED_EDGE('',*,*,#896,.F.);
#1486 = ORIENTED_EDGE('',*,*,#950,.F.);
#1487 = ORIENTED_EDGE('',*,*,#1035,.F.);
#1488 = PLANE('',#1489);
#1489 = AXIS2_PLACEMENT_3D('',#1490,#1491,#1492);
#1490 = CARTESIAN_POINT('',(0.,-13.,6.935));
#1491 = DIRECTION('',(0.,1.,0.));
#1492 = DIRECTION('',(0.,0.,1.));
#1493 = ADVANCED_FACE('',(#1494),#1500,.F.);
#1494 = FACE_BOUND('',#1495,.F.);
#1495 = EDGE_LOOP('',(#1496,#1497,#1498,#1499));
#1496 = ORIENTED_EDGE('',*,*,#1258,.T.);
#1497 = ORIENTED_EDGE('',*,*,#1476,.T.);
#1498 = ORIENTED_EDGE('',*,*,#1043,.F.);
#1499 = ORIENTED_EDGE('',*,*,#1417,.F.);
#1500 = PLANE('',#1501);
#1501 = AXIS2_PLACEMENT_3D('',#1502,#1503,#1504);
#1502 = CARTESIAN_POINT('',(-3.5,-6.,13.87));
#1503 = DIRECTION('',(1.,0.,0.));
#1504 = DIRECTION('',(0.,-2.2E-16,-1.));
#1505 = ADVANCED_FACE('',(#1506),#1524,.F.);
#1506 = FACE_BOUND('',#1507,.F.);
#1507 = EDGE_LOOP('',(#1508,#1516,#1522,#1523));
#1508 = ORIENTED_EDGE('',*,*,#1509,.T.);
#1509 = EDGE_CURVE('',#1425,#1510,#1512,.T.);
#1510 = VERTEX_POINT('',#1511);
#1511 = CARTESIAN_POINT('',(-12.75,-3.7,8.12));
#1512 = LINE('',#1513,#1514);
#1513 = CARTESIAN_POINT('',(-12.75,-6.,8.12));
#1514 = VECTOR('',#1515,1.);
#1515 = DIRECTION('',(0.,1.,-2.2E-16));
#1516 = ORIENTED_EDGE('',*,*,#1517,.T.);
#1517 = EDGE_CURVE('',#1510,#1235,#1518,.T.);
#1518 = LINE('',#1519,#1520);
#1519 = CARTESIAN_POINT('',(-12.75,-3.7,8.12));
#1520 = VECTOR('',#1521,1.);
#1521 = DIRECTION('',(0.,0.,1.));
#1522 = ORIENTED_EDGE('',*,*,#1242,.F.);
#1523 = ORIENTED_EDGE('',*,*,#1424,.F.);
#1524 = PLANE('',#1525);
#1525 = AXIS2_PLACEMENT_3D('',#1526,#1527,#1528);
#1526 = CARTESIAN_POINT('',(-12.75,-6.,8.12));
#1527 = DIRECTION('',(1.,0.,0.));
#1528 = DIRECTION('',(0.,2.2E-16,1.));
#1529 = ADVANCED_FACE('',(#1530),#1548,.F.);
#1530 = FACE_BOUND('',#1531,.T.);
#1531 = EDGE_LOOP('',(#1532,#1540,#1546,#1547));
#1532 = ORIENTED_EDGE('',*,*,#1533,.T.);
#1533 = EDGE_CURVE('',#1227,#1534,#1536,.T.);
#1534 = VERTEX_POINT('',#1535);
#1535 = CARTESIAN_POINT('',(-26.25,-3.7,8.12));
#1536 = LINE('',#1537,#1538);
#1537 = CARTESIAN_POINT('',(-26.25,-3.7,13.87));
#1538 = VECTOR('',#1539,1.);
#1539 = DIRECTION('',(0.,0.,-1.));
#1540 = ORIENTED_EDGE('',*,*,#1541,.T.);
#1541 = EDGE_CURVE('',#1534,#1510,#1542,.T.);
#1542 = LINE('',#1543,#1544);
#1543 = CARTESIAN_POINT('',(-26.25,-3.7,8.12));
#1544 = VECTOR('',#1545,1.);
#1545 = DIRECTION('',(1.,0.,0.));
#1546 = ORIENTED_EDGE('',*,*,#1517,.T.);
#1547 = ORIENTED_EDGE('',*,*,#1234,.T.);
#1548 = PLANE('',#1549);
#1549 = AXIS2_PLACEMENT_3D('',#1550,#1551,#1552);
#1550 = CARTESIAN_POINT('',(5.1381E-13,-3.7,10.995));
#1551 = DIRECTION('',(0.,1.,0.));
#1552 = DIRECTION('',(0.,0.,1.));
#1553 = ADVANCED_FACE('',(#1554),#1565,.F.);
#1554 = FACE_BOUND('',#1555,.F.);
#1555 = EDGE_LOOP('',(#1556,#1557,#1558,#1564));
#1556 = ORIENTED_EDGE('',*,*,#1226,.T.);
#1557 = ORIENTED_EDGE('',*,*,#1533,.T.);
#1558 = ORIENTED_EDGE('',*,*,#1559,.F.);
#1559 = EDGE_CURVE('',#1433,#1534,#1560,.T.);
#1560 = LINE('',#1561,#1562);
#1561 = CARTESIAN_POINT('',(-26.25,-6.,8.12));
#1562 = VECTOR('',#1563,1.);
#1563 = DIRECTION('',(0.,1.,-2.2E-16));
#1564 = ORIENTED_EDGE('',*,*,#1440,.F.);
#1565 = PLANE('',#1566);
#1566 = AXIS2_PLACEMENT_3D('',#1567,#1568,#1569);
#1567 = CARTESIAN_POINT('',(-26.25,-6.,13.87));
#1568 = DIRECTION('',(-1.,0.,0.));
#1569 = DIRECTION('',(-0.,-2.2E-16,-1.));
#1570 = ADVANCED_FACE('',(#1571),#1577,.F.);
#1571 = FACE_BOUND('',#1572,.F.);
#1572 = EDGE_LOOP('',(#1573,#1574,#1575,#1576));
#1573 = ORIENTED_EDGE('',*,*,#1559,.T.);
#1574 = ORIENTED_EDGE('',*,*,#1541,.T.);
#1575 = ORIENTED_EDGE('',*,*,#1509,.F.);
#1576 = ORIENTED_EDGE('',*,*,#1432,.F.);
#1577 = PLANE('',#1578);
#1578 = AXIS2_PLACEMENT_3D('',#1579,#1580,#1581);
#1579 = CARTESIAN_POINT('',(-26.25,-6.,8.12));
#1580 = DIRECTION('',(0.,-2.2E-16,-1.));
#1581 = DIRECTION('',(1.,0.,0.));
#1582 = ( GEOMETRIC_REPRESENTATION_CONTEXT(3) 
GLOBAL_UNCERTAINTY_ASSIGNED_CONTEXT((#1586)) 
GLOBAL_UNIT_ASSIGNED_CONTEXT((#1583,#1584,#1585)) REPRESENTATION_CONTEXT
('Context #1','3D Context with UNIT and UNCERTAINTY') );
#1583 = ( LENGTH_UNIT() NAMED_UNIT(*) SI_UNIT(.MILLI.,.METRE.) );
#1584 = ( NAMED_UNIT(*) PLANE_ANGLE_UNIT() SI_UNIT($,.RADIAN.) );
#1585 = ( NAMED_UNIT(*) SI_UNIT($,.STERADIAN.) SOLID_ANGLE_UNIT() );
#1586 = UNCERTAINTY_MEASURE_WITH_UNIT(LENGTH_MEASURE(1.E-07),#1583,
  'distance_accuracy_value','confusion accuracy');
#1587 = PRODUCT_RELATED_PRODUCT_CATEGORY('part',$,(#7));
#1588 = MECHANICAL_DESIGN_GEOMETRIC_PRESENTATION_REPRESENTATION('',(
    #1589),#1582);
#1589 = STYLED_ITEM('color',(#1590),#15);
#1590 = PRESENTATION_STYLE_ASSIGNMENT((#1591,#1597));
#1591 = SURFACE_STYLE_USAGE(.BOTH.,#1592);
#1592 = SURFACE_SIDE_STYLE('',(#1593));
#1593 = SURFACE_STYLE_FILL_AREA(#1594);
#1594 = FILL_AREA_STYLE('',(#1595));
#1595 = FILL_AREA_STYLE_COLOUR('',#1596);
#1596 = COLOUR_RGB('',0.447058818107,0.474509808674,0.501960817233);
#1597 = CURVE_STYLE('',#1598,POSITIVE_LENGTH_MEASURE(0.1),#1599);
#1598 = DRAUGHTING_PRE_DEFINED_CURVE_FONT('continuous');
#1599 = COLOUR_RGB('',9.803921802644E-02,9.803921802644E-02,
  9.803921802644E-02);
ENDSEC;
END-ISO-10303-21;
