ISO-10303-21;
HEADER;
FILE_DESCRIPTION(('FreeCAD Model'),'2;1');
FILE_NAME('Open CASCADE Shape Model','2026-02-22T22:44:28',(''),(''),
  'Open CASCADE STEP processor 7.8','FreeCAD','Unknown');
FILE_SCHEMA(('AUTOMOTIVE_DESIGN { 1 0 10303 214 1 1 1 1 }'));
ENDSEC;
DATA;
#1 = APPLICATION_PROTOCOL_DEFINITION('international standard',
  'automotive_design',2000,#2);
#2 = APPLICATION_CONTEXT(
  'core data for automotive mechanical design processes');
#3 = SHAPE_DEFINITION_REPRESENTATION(#4,#10);
#4 = PRODUCT_DEFINITION_SHAPE('','',#5);
#5 = PRODUCT_DEFINITION('design','',#6,#9);
#6 = PRODUCT_DEFINITION_FORMATION('','',#7);
#7 = PRODUCT('Body','Body','',(#8));
#8 = PRODUCT_CONTEXT('',#2,'mechanical');
#9 = PRODUCT_DEFINITION_CONTEXT('part definition',#2,'design');
#10 = ADVANCED_BREP_SHAPE_REPRESENTATION('',(#11,#15),#2449);
#11 = AXIS2_PLACEMENT_3D('',#12,#13,#14);
#12 = CARTESIAN_POINT('',(0.,0.,0.));
#13 = DIRECTION('',(0.,0.,1.));
#14 = DIRECTION('',(1.,0.,-0.));
#15 = MANIFOLD_SOLID_BREP('',#16);
#16 = CLOSED_SHELL('',(#17,#543,#574,#608,#632,#656,#680,#714,#738,#762,
    #786,#810,#834,#858,#882,#906,#930,#954,#978,#1002,#1026,#1050,#1074
    ,#1098,#1122,#1146,#1170,#1194,#1218,#1242,#1266,#1290,#1314,#1338,
    #1402,#1426,#1450,#1474,#1538,#1555,#1586,#1610,#1627,#1658,#1682,
    #1699,#1730,#1754,#1771,#1802,#1826,#1843,#1874,#1898,#1915,#1946,
    #1970,#1987,#2018,#2042,#2066,#2083,#2108,#2133,#2158,#2184,#2290,
    #2308,#2330,#2342,#2359,#2376,#2393,#2405,#2421,#2438));
#17 = ADVANCED_FACE('',(#18,#326,#352,#378,#404,#430,#456,#482,#516,#527
    ),#538,.T.);
#18 = FACE_BOUND('',#19,.T.);
#19 = EDGE_LOOP('',(#20,#30,#39,#47,#56,#64,#72,#80,#88,#96,#104,#112,
    #120,#128,#136,#144,#152,#160,#168,#176,#184,#192,#200,#208,#216,
    #224,#232,#240,#248,#256,#264,#272,#280,#288,#296,#304,#312,#320));
#20 = ORIENTED_EDGE('',*,*,#21,.T.);
#21 = EDGE_CURVE('',#22,#24,#26,.T.);
#22 = VERTEX_POINT('',#23);
#23 = CARTESIAN_POINT('',(42.2,32.,0.));
#24 = VERTEX_POINT('',#25);
#25 = CARTESIAN_POINT('',(49.,32.,0.));
#26 = LINE('',#27,#28);
#27 = CARTESIAN_POINT('',(42.2,32.,0.));
#28 = VECTOR('',#29,1.);
#29 = DIRECTION('',(1.,0.,0.));
#30 = ORIENTED_EDGE('',*,*,#31,.T.);
#31 = EDGE_CURVE('',#24,#32,#34,.T.);
#32 = VERTEX_POINT('',#33);
#33 = CARTESIAN_POINT('',(52.,29.,0.));
#34 = CIRCLE('',#35,3.);
#35 = AXIS2_PLACEMENT_3D('',#36,#37,#38);
#36 = CARTESIAN_POINT('',(49.,29.,-0.));
#37 = DIRECTION('',(-0.,-0.,-1.));
#38 = DIRECTION('',(0.,-1.,0.));
#39 = ORIENTED_EDGE('',*,*,#40,.T.);
#40 = EDGE_CURVE('',#32,#41,#43,.T.);
#41 = VERTEX_POINT('',#42);
#42 = CARTESIAN_POINT('',(52.,-29.,0.));
#43 = LINE('',#44,#45);
#44 = CARTESIAN_POINT('',(52.,32.,0.));
#45 = VECTOR('',#46,1.);
#46 = DIRECTION('',(0.,-1.,0.));
#47 = ORIENTED_EDGE('',*,*,#48,.T.);
#48 = EDGE_CURVE('',#41,#49,#51,.T.);
#49 = VERTEX_POINT('',#50);
#50 = CARTESIAN_POINT('',(49.,-32.,0.));
#51 = CIRCLE('',#52,3.);
#52 = AXIS2_PLACEMENT_3D('',#53,#54,#55);
#53 = CARTESIAN_POINT('',(49.,-29.,-0.));
#54 = DIRECTION('',(-0.,-0.,-1.));
#55 = DIRECTION('',(0.,-1.,0.));
#56 = ORIENTED_EDGE('',*,*,#57,.F.);
#57 = EDGE_CURVE('',#58,#49,#60,.T.);
#58 = VERTEX_POINT('',#59);
#59 = CARTESIAN_POINT('',(42.2,-32.,0.));
#60 = LINE('',#61,#62);
#61 = CARTESIAN_POINT('',(42.2,-32.,0.));
#62 = VECTOR('',#63,1.);
#63 = DIRECTION('',(1.,0.,0.));
#64 = ORIENTED_EDGE('',*,*,#65,.F.);
#65 = EDGE_CURVE('',#66,#58,#68,.T.);
#66 = VERTEX_POINT('',#67);
#67 = CARTESIAN_POINT('',(42.2,-29.,0.));
#68 = LINE('',#69,#70);
#69 = CARTESIAN_POINT('',(42.2,-29.,0.));
#70 = VECTOR('',#71,1.);
#71 = DIRECTION('',(-0.,-1.,-0.));
#72 = ORIENTED_EDGE('',*,*,#73,.F.);
#73 = EDGE_CURVE('',#74,#66,#76,.T.);
#74 = VERTEX_POINT('',#75);
#75 = CARTESIAN_POINT('',(32.,-29.,0.));
#76 = LINE('',#77,#78);
#77 = CARTESIAN_POINT('',(32.,-29.,0.));
#78 = VECTOR('',#79,1.);
#79 = DIRECTION('',(1.,0.,0.));
#80 = ORIENTED_EDGE('',*,*,#81,.F.);
#81 = EDGE_CURVE('',#82,#74,#84,.T.);
#82 = VERTEX_POINT('',#83);
#83 = CARTESIAN_POINT('',(32.,-32.,0.));
#84 = LINE('',#85,#86);
#85 = CARTESIAN_POINT('',(32.,-32.,0.));
#86 = VECTOR('',#87,1.);
#87 = DIRECTION('',(0.,1.,0.));
#88 = ORIENTED_EDGE('',*,*,#89,.F.);
#89 = EDGE_CURVE('',#90,#82,#92,.T.);
#90 = VERTEX_POINT('',#91);
#91 = CARTESIAN_POINT('',(22.,-32.,0.));
#92 = LINE('',#93,#94);
#93 = CARTESIAN_POINT('',(22.,-32.,0.));
#94 = VECTOR('',#95,1.);
#95 = DIRECTION('',(1.,0.,0.));
#96 = ORIENTED_EDGE('',*,*,#97,.F.);
#97 = EDGE_CURVE('',#98,#90,#100,.T.);
#98 = VERTEX_POINT('',#99);
#99 = CARTESIAN_POINT('',(22.,-29.,0.));
#100 = LINE('',#101,#102);
#101 = CARTESIAN_POINT('',(22.,-29.,0.));
#102 = VECTOR('',#103,1.);
#103 = DIRECTION('',(-0.,-1.,-0.));
#104 = ORIENTED_EDGE('',*,*,#105,.F.);
#105 = EDGE_CURVE('',#106,#98,#108,.T.);
#106 = VERTEX_POINT('',#107);
#107 = CARTESIAN_POINT('',(0.,-29.,0.));
#108 = LINE('',#109,#110);
#109 = CARTESIAN_POINT('',(0.,-29.,0.));
#110 = VECTOR('',#111,1.);
#111 = DIRECTION('',(1.,0.,0.));
#112 = ORIENTED_EDGE('',*,*,#113,.F.);
#113 = EDGE_CURVE('',#114,#106,#116,.T.);
#114 = VERTEX_POINT('',#115);
#115 = CARTESIAN_POINT('',(0.,-32.,0.));
#116 = LINE('',#117,#118);
#117 = CARTESIAN_POINT('',(0.,-32.,0.));
#118 = VECTOR('',#119,1.);
#119 = DIRECTION('',(0.,1.,0.));
#120 = ORIENTED_EDGE('',*,*,#121,.F.);
#121 = EDGE_CURVE('',#122,#114,#124,.T.);
#122 = VERTEX_POINT('',#123);
#123 = CARTESIAN_POINT('',(-10.,-32.,0.));
#124 = LINE('',#125,#126);
#125 = CARTESIAN_POINT('',(-10.,-32.,0.));
#126 = VECTOR('',#127,1.);
#127 = DIRECTION('',(1.,0.,0.));
#128 = ORIENTED_EDGE('',*,*,#129,.F.);
#129 = EDGE_CURVE('',#130,#122,#132,.T.);
#130 = VERTEX_POINT('',#131);
#131 = CARTESIAN_POINT('',(-10.,-29.,0.));
#132 = LINE('',#133,#134);
#133 = CARTESIAN_POINT('',(-10.,-29.,0.));
#134 = VECTOR('',#135,1.);
#135 = DIRECTION('',(-0.,-1.,-0.));
#136 = ORIENTED_EDGE('',*,*,#137,.F.);
#137 = EDGE_CURVE('',#138,#130,#140,.T.);
#138 = VERTEX_POINT('',#139);
#139 = CARTESIAN_POINT('',(-32.,-29.,0.));
#140 = LINE('',#141,#142);
#141 = CARTESIAN_POINT('',(-32.,-29.,0.));
#142 = VECTOR('',#143,1.);
#143 = DIRECTION('',(1.,0.,0.));
#144 = ORIENTED_EDGE('',*,*,#145,.F.);
#145 = EDGE_CURVE('',#146,#138,#148,.T.);
#146 = VERTEX_POINT('',#147);
#147 = CARTESIAN_POINT('',(-32.,-32.,0.));
#148 = LINE('',#149,#150);
#149 = CARTESIAN_POINT('',(-32.,-32.,0.));
#150 = VECTOR('',#151,1.);
#151 = DIRECTION('',(0.,1.,0.));
#152 = ORIENTED_EDGE('',*,*,#153,.F.);
#153 = EDGE_CURVE('',#154,#146,#156,.T.);
#154 = VERTEX_POINT('',#155);
#155 = CARTESIAN_POINT('',(-42.,-32.,0.));
#156 = LINE('',#157,#158);
#157 = CARTESIAN_POINT('',(-42.,-32.,0.));
#158 = VECTOR('',#159,1.);
#159 = DIRECTION('',(1.,0.,0.));
#160 = ORIENTED_EDGE('',*,*,#161,.F.);
#161 = EDGE_CURVE('',#162,#154,#164,.T.);
#162 = VERTEX_POINT('',#163);
#163 = CARTESIAN_POINT('',(-42.,-29.,0.));
#164 = LINE('',#165,#166);
#165 = CARTESIAN_POINT('',(-42.,-29.,0.));
#166 = VECTOR('',#167,1.);
#167 = DIRECTION('',(-0.,-1.,-0.));
#168 = ORIENTED_EDGE('',*,*,#169,.F.);
#169 = EDGE_CURVE('',#170,#162,#172,.T.);
#170 = VERTEX_POINT('',#171);
#171 = CARTESIAN_POINT('',(-52.,-29.,0.));
#172 = LINE('',#173,#174);
#173 = CARTESIAN_POINT('',(-52.,-29.,0.));
#174 = VECTOR('',#175,1.);
#175 = DIRECTION('',(1.,0.,0.));
#176 = ORIENTED_EDGE('',*,*,#177,.T.);
#177 = EDGE_CURVE('',#170,#178,#180,.T.);
#178 = VERTEX_POINT('',#179);
#179 = CARTESIAN_POINT('',(-52.,-5.,-0.));
#180 = LINE('',#181,#182);
#181 = CARTESIAN_POINT('',(-52.,0.,0.));
#182 = VECTOR('',#183,1.);
#183 = DIRECTION('',(0.,1.,0.));
#184 = ORIENTED_EDGE('',*,*,#185,.T.);
#185 = EDGE_CURVE('',#178,#186,#188,.T.);
#186 = VERTEX_POINT('',#187);
#187 = CARTESIAN_POINT('',(-62.,-5.,-0.));
#188 = LINE('',#189,#190);
#189 = CARTESIAN_POINT('',(-52.,-5.,0.));
#190 = VECTOR('',#191,1.);
#191 = DIRECTION('',(-1.,0.,0.));
#192 = ORIENTED_EDGE('',*,*,#193,.F.);
#193 = EDGE_CURVE('',#194,#186,#196,.T.);
#194 = VERTEX_POINT('',#195);
#195 = CARTESIAN_POINT('',(-62.,5.,0.));
#196 = LINE('',#197,#198);
#197 = CARTESIAN_POINT('',(-62.,5.,0.));
#198 = VECTOR('',#199,1.);
#199 = DIRECTION('',(0.,-1.,0.));
#200 = ORIENTED_EDGE('',*,*,#201,.F.);
#201 = EDGE_CURVE('',#202,#194,#204,.T.);
#202 = VERTEX_POINT('',#203);
#203 = CARTESIAN_POINT('',(-52.,5.,0.));
#204 = LINE('',#205,#206);
#205 = CARTESIAN_POINT('',(-52.,5.,0.));
#206 = VECTOR('',#207,1.);
#207 = DIRECTION('',(-1.,0.,0.));
#208 = ORIENTED_EDGE('',*,*,#209,.T.);
#209 = EDGE_CURVE('',#202,#210,#212,.T.);
#210 = VERTEX_POINT('',#211);
#211 = CARTESIAN_POINT('',(-52.,29.,0.));
#212 = LINE('',#213,#214);
#213 = CARTESIAN_POINT('',(-52.,0.,0.));
#214 = VECTOR('',#215,1.);
#215 = DIRECTION('',(0.,1.,0.));
#216 = ORIENTED_EDGE('',*,*,#217,.T.);
#217 = EDGE_CURVE('',#210,#218,#220,.T.);
#218 = VERTEX_POINT('',#219);
#219 = CARTESIAN_POINT('',(-42.,29.,0.));
#220 = LINE('',#221,#222);
#221 = CARTESIAN_POINT('',(-52.,29.,0.));
#222 = VECTOR('',#223,1.);
#223 = DIRECTION('',(1.,0.,0.));
#224 = ORIENTED_EDGE('',*,*,#225,.T.);
#225 = EDGE_CURVE('',#218,#226,#228,.T.);
#226 = VERTEX_POINT('',#227);
#227 = CARTESIAN_POINT('',(-42.,32.,0.));
#228 = LINE('',#229,#230);
#229 = CARTESIAN_POINT('',(-42.,29.,0.));
#230 = VECTOR('',#231,1.);
#231 = DIRECTION('',(0.,1.,0.));
#232 = ORIENTED_EDGE('',*,*,#233,.T.);
#233 = EDGE_CURVE('',#226,#234,#236,.T.);
#234 = VERTEX_POINT('',#235);
#235 = CARTESIAN_POINT('',(-32.,32.,0.));
#236 = LINE('',#237,#238);
#237 = CARTESIAN_POINT('',(-42.,32.,0.));
#238 = VECTOR('',#239,1.);
#239 = DIRECTION('',(1.,0.,0.));
#240 = ORIENTED_EDGE('',*,*,#241,.T.);
#241 = EDGE_CURVE('',#234,#242,#244,.T.);
#242 = VERTEX_POINT('',#243);
#243 = CARTESIAN_POINT('',(-32.,29.,0.));
#244 = LINE('',#245,#246);
#245 = CARTESIAN_POINT('',(-32.,32.,0.));
#246 = VECTOR('',#247,1.);
#247 = DIRECTION('',(0.,-1.,0.));
#248 = ORIENTED_EDGE('',*,*,#249,.T.);
#249 = EDGE_CURVE('',#242,#250,#252,.T.);
#250 = VERTEX_POINT('',#251);
#251 = CARTESIAN_POINT('',(-10.,29.,0.));
#252 = LINE('',#253,#254);
#253 = CARTESIAN_POINT('',(-32.,29.,0.));
#254 = VECTOR('',#255,1.);
#255 = DIRECTION('',(1.,0.,0.));
#256 = ORIENTED_EDGE('',*,*,#257,.T.);
#257 = EDGE_CURVE('',#250,#258,#260,.T.);
#258 = VERTEX_POINT('',#259);
#259 = CARTESIAN_POINT('',(-10.,32.,0.));
#260 = LINE('',#261,#262);
#261 = CARTESIAN_POINT('',(-10.,29.,0.));
#262 = VECTOR('',#263,1.);
#263 = DIRECTION('',(0.,1.,0.));
#264 = ORIENTED_EDGE('',*,*,#265,.T.);
#265 = EDGE_CURVE('',#258,#266,#268,.T.);
#266 = VERTEX_POINT('',#267);
#267 = CARTESIAN_POINT('',(0.,32.,0.));
#268 = LINE('',#269,#270);
#269 = CARTESIAN_POINT('',(-10.,32.,0.));
#270 = VECTOR('',#271,1.);
#271 = DIRECTION('',(1.,0.,0.));
#272 = ORIENTED_EDGE('',*,*,#273,.T.);
#273 = EDGE_CURVE('',#266,#274,#276,.T.);
#274 = VERTEX_POINT('',#275);
#275 = CARTESIAN_POINT('',(0.,29.,0.));
#276 = LINE('',#277,#278);
#277 = CARTESIAN_POINT('',(0.,32.,0.));
#278 = VECTOR('',#279,1.);
#279 = DIRECTION('',(0.,-1.,0.));
#280 = ORIENTED_EDGE('',*,*,#281,.T.);
#281 = EDGE_CURVE('',#274,#282,#284,.T.);
#282 = VERTEX_POINT('',#283);
#283 = CARTESIAN_POINT('',(22.,29.,0.));
#284 = LINE('',#285,#286);
#285 = CARTESIAN_POINT('',(0.,29.,0.));
#286 = VECTOR('',#287,1.);
#287 = DIRECTION('',(1.,0.,0.));
#288 = ORIENTED_EDGE('',*,*,#289,.T.);
#289 = EDGE_CURVE('',#282,#290,#292,.T.);
#290 = VERTEX_POINT('',#291);
#291 = CARTESIAN_POINT('',(22.,32.,0.));
#292 = LINE('',#293,#294);
#293 = CARTESIAN_POINT('',(22.,29.,0.));
#294 = VECTOR('',#295,1.);
#295 = DIRECTION('',(0.,1.,0.));
#296 = ORIENTED_EDGE('',*,*,#297,.T.);
#297 = EDGE_CURVE('',#290,#298,#300,.T.);
#298 = VERTEX_POINT('',#299);
#299 = CARTESIAN_POINT('',(32.,32.,0.));
#300 = LINE('',#301,#302);
#301 = CARTESIAN_POINT('',(22.,32.,0.));
#302 = VECTOR('',#303,1.);
#303 = DIRECTION('',(1.,0.,0.));
#304 = ORIENTED_EDGE('',*,*,#305,.T.);
#305 = EDGE_CURVE('',#298,#306,#308,.T.);
#306 = VERTEX_POINT('',#307);
#307 = CARTESIAN_POINT('',(32.,29.,0.));
#308 = LINE('',#309,#310);
#309 = CARTESIAN_POINT('',(32.,32.,0.));
#310 = VECTOR('',#311,1.);
#311 = DIRECTION('',(0.,-1.,0.));
#312 = ORIENTED_EDGE('',*,*,#313,.T.);
#313 = EDGE_CURVE('',#306,#314,#316,.T.);
#314 = VERTEX_POINT('',#315);
#315 = CARTESIAN_POINT('',(42.2,29.,0.));
#316 = LINE('',#317,#318);
#317 = CARTESIAN_POINT('',(32.,29.,0.));
#318 = VECTOR('',#319,1.);
#319 = DIRECTION('',(1.,0.,0.));
#320 = ORIENTED_EDGE('',*,*,#321,.T.);
#321 = EDGE_CURVE('',#314,#22,#322,.T.);
#322 = LINE('',#323,#324);
#323 = CARTESIAN_POINT('',(42.2,29.,0.));
#324 = VECTOR('',#325,1.);
#325 = DIRECTION('',(0.,1.,0.));
#326 = FACE_BOUND('',#327,.T.);
#327 = EDGE_LOOP('',(#328,#338,#346));
#328 = ORIENTED_EDGE('',*,*,#329,.T.);
#329 = EDGE_CURVE('',#330,#332,#334,.T.);
#330 = VERTEX_POINT('',#331);
#331 = CARTESIAN_POINT('',(-10.4,-24.,0.));
#332 = VERTEX_POINT('',#333);
#333 = CARTESIAN_POINT('',(2.9,24.,0.));
#334 = LINE('',#335,#336);
#335 = CARTESIAN_POINT('',(-0.254395047355,12.615717122328,0.));
#336 = VECTOR('',#337,1.);
#337 = DIRECTION('',(0.267022517843,0.963690289961,0.));
#338 = ORIENTED_EDGE('',*,*,#339,.T.);
#339 = EDGE_CURVE('',#332,#340,#342,.T.);
#340 = VERTEX_POINT('',#341);
#341 = CARTESIAN_POINT('',(-23.7,24.,0.));
#342 = LINE('',#343,#344);
#343 = CARTESIAN_POINT('',(-11.33225806451,24.,0.));
#344 = VECTOR('',#345,1.);
#345 = DIRECTION('',(-1.,0.,0.));
#346 = ORIENTED_EDGE('',*,*,#347,.T.);
#347 = EDGE_CURVE('',#340,#330,#348,.T.);
#348 = LINE('',#349,#350);
#349 = CARTESIAN_POINT('',(-13.08024323087,-14.32694172317,0.));
#350 = VECTOR('',#351,1.);
#351 = DIRECTION('',(0.267022517843,-0.963690289961,0.));
#352 = FACE_BOUND('',#353,.T.);
#353 = EDGE_LOOP('',(#354,#364,#372));
#354 = ORIENTED_EDGE('',*,*,#355,.T.);
#355 = EDGE_CURVE('',#356,#358,#360,.T.);
#356 = VERTEX_POINT('',#357);
#357 = CARTESIAN_POINT('',(21.2,-24.,0.));
#358 = VERTEX_POINT('',#359);
#359 = CARTESIAN_POINT('',(7.9,24.,0.));
#360 = LINE('',#361,#362);
#361 = CARTESIAN_POINT('',(10.743200573571,13.738824997637,0.));
#362 = VECTOR('',#363,1.);
#363 = DIRECTION('',(-0.267022517843,0.963690289961,0.));
#364 = ORIENTED_EDGE('',*,*,#365,.T.);
#365 = EDGE_CURVE('',#358,#366,#368,.T.);
#366 = VERTEX_POINT('',#367);
#367 = CARTESIAN_POINT('',(-5.4,-24.,0.));
#368 = LINE('',#369,#370);
#369 = CARTESIAN_POINT('',(-2.082647609943,-12.02760039678,0.));
#370 = VECTOR('',#371,1.);
#371 = DIRECTION('',(-0.267022517843,-0.963690289961,0.));
#372 = ORIENTED_EDGE('',*,*,#373,.T.);
#373 = EDGE_CURVE('',#366,#356,#374,.T.);
#374 = LINE('',#375,#376);
#375 = CARTESIAN_POINT('',(11.117741935484,-24.,0.));
#376 = VECTOR('',#377,1.);
#377 = DIRECTION('',(1.,0.,0.));
#378 = FACE_BOUND('',#379,.T.);
#379 = EDGE_LOOP('',(#380,#390,#398));
#380 = ORIENTED_EDGE('',*,*,#381,.T.);
#381 = EDGE_CURVE('',#382,#384,#386,.T.);
#382 = VERTEX_POINT('',#383);
#383 = CARTESIAN_POINT('',(26.2,-24.,0.));
#384 = VERTEX_POINT('',#385);
#385 = CARTESIAN_POINT('',(39.5,24.,0.));
#386 = LINE('',#387,#388);
#387 = CARTESIAN_POINT('',(35.040796194498,7.906632882398,0.));
#388 = VECTOR('',#389,1.);
#389 = DIRECTION('',(0.267022517843,0.963690289961,0.));
#390 = ORIENTED_EDGE('',*,*,#391,.T.);
#391 = EDGE_CURVE('',#384,#392,#394,.T.);
#392 = VERTEX_POINT('',#393);
#393 = CARTESIAN_POINT('',(12.9,24.,0.));
#394 = LINE('',#395,#396);
#395 = CARTESIAN_POINT('',(6.967741935484,24.,0.));
#396 = VECTOR('',#397,1.);
#397 = DIRECTION('',(-1.,0.,0.));
#398 = ORIENTED_EDGE('',*,*,#399,.T.);
#399 = EDGE_CURVE('',#392,#382,#400,.T.);
#400 = LINE('',#401,#402);
#401 = CARTESIAN_POINT('',(22.214948010983,-9.617857483247,0.));
#402 = VECTOR('',#403,1.);
#403 = DIRECTION('',(0.267022517843,-0.963690289961,0.));
#404 = FACE_BOUND('',#405,.T.);
#405 = EDGE_LOOP('',(#406,#416,#424));
#406 = ORIENTED_EDGE('',*,*,#407,.F.);
#407 = EDGE_CURVE('',#408,#410,#412,.T.);
#408 = VERTEX_POINT('',#409);
#409 = CARTESIAN_POINT('',(31.2,-24.,0.));
#410 = VERTEX_POINT('',#411);
#411 = CARTESIAN_POINT('',(44.5,24.,0.));
#412 = LINE('',#413,#414);
#413 = CARTESIAN_POINT('',(39.862543631909,7.263315363282,0.));
#414 = VECTOR('',#415,1.);
#415 = DIRECTION('',(0.267022517843,0.963690289961,0.));
#416 = ORIENTED_EDGE('',*,*,#417,.T.);
#417 = EDGE_CURVE('',#408,#418,#420,.T.);
#418 = VERTEX_POINT('',#419);
#419 = CARTESIAN_POINT('',(44.5,-24.,0.));
#420 = LINE('',#421,#422);
#421 = CARTESIAN_POINT('',(22.767741935484,-24.,0.));
#422 = VECTOR('',#423,1.);
#423 = DIRECTION('',(1.,0.,0.));
#424 = ORIENTED_EDGE('',*,*,#425,.T.);
#425 = EDGE_CURVE('',#418,#410,#426,.T.);
#426 = LINE('',#427,#428);
#427 = CARTESIAN_POINT('',(44.5,12.,0.));
#428 = VECTOR('',#429,1.);
#429 = DIRECTION('',(0.,1.,0.));
#430 = FACE_BOUND('',#431,.T.);
#431 = EDGE_LOOP('',(#432,#442,#450));
#432 = ORIENTED_EDGE('',*,*,#433,.F.);
#433 = EDGE_CURVE('',#434,#436,#438,.T.);
#434 = VERTEX_POINT('',#435);
#435 = CARTESIAN_POINT('',(-47.,-24.,0.));
#436 = VERTEX_POINT('',#437);
#437 = CARTESIAN_POINT('',(-47.,24.,0.));
#438 = LINE('',#439,#440);
#439 = CARTESIAN_POINT('',(-47.,12.,0.));
#440 = VECTOR('',#441,1.);
#441 = DIRECTION('',(0.,1.,0.));
#442 = ORIENTED_EDGE('',*,*,#443,.F.);
#443 = EDGE_CURVE('',#444,#434,#446,.T.);
#444 = VERTEX_POINT('',#445);
#445 = CARTESIAN_POINT('',(-33.7,24.,0.));
#446 = LINE('',#447,#448);
#447 = CARTESIAN_POINT('',(-42.1995862892,-6.675198637742,-2.2E-16));
#448 = VECTOR('',#449,1.);
#449 = DIRECTION('',(-0.267022517843,-0.963690289961,0.));
#450 = ORIENTED_EDGE('',*,*,#451,.F.);
#451 = EDGE_CURVE('',#436,#444,#452,.T.);
#452 = LINE('',#453,#454);
#453 = CARTESIAN_POINT('',(-16.33225806451,24.,0.));
#454 = VECTOR('',#455,1.);
#455 = DIRECTION('',(1.,0.,0.));
#456 = FACE_BOUND('',#457,.T.);
#457 = EDGE_LOOP('',(#458,#468,#476));
#458 = ORIENTED_EDGE('',*,*,#459,.T.);
#459 = EDGE_CURVE('',#460,#462,#464,.T.);
#460 = VERTEX_POINT('',#461);
#461 = CARTESIAN_POINT('',(-18.725,-12.,0.));
#462 = VERTEX_POINT('',#463);
#463 = CARTESIAN_POINT('',(-28.7,24.,0.));
#464 = LINE('',#465,#466);
#465 = CARTESIAN_POINT('',(-24.55199066828,9.029740757707,0.));
#466 = VECTOR('',#467,1.);
#467 = DIRECTION('',(-0.267022517843,0.963690289961,0.));
#468 = ORIENTED_EDGE('',*,*,#469,.T.);
#469 = EDGE_CURVE('',#462,#470,#472,.T.);
#470 = VERTEX_POINT('',#471);
#471 = CARTESIAN_POINT('',(-38.675,-12.,0.));
#472 = LINE('',#473,#474);
#473 = CARTESIAN_POINT('',(-35.71533885179,-1.318516156858,-2.2E-16));
#474 = VECTOR('',#475,1.);
#475 = DIRECTION('',(-0.267022517843,-0.963690289961,0.));
#476 = ORIENTED_EDGE('',*,*,#477,.T.);
#477 = EDGE_CURVE('',#470,#460,#478,.T.);
#478 = LINE('',#479,#480);
#479 = CARTESIAN_POINT('',(-8.844758064516,-12.,0.));
#480 = VECTOR('',#481,1.);
#481 = DIRECTION('',(1.,0.,0.));
#482 = FACE_BOUND('',#483,.T.);
#483 = EDGE_LOOP('',(#484,#494,#502,#510));
#484 = ORIENTED_EDGE('',*,*,#485,.T.);
#485 = EDGE_CURVE('',#486,#488,#490,.T.);
#486 = VERTEX_POINT('',#487);
#487 = CARTESIAN_POINT('',(-16.78541666666,-19.,0.));
#488 = VERTEX_POINT('',#489);
#489 = CARTESIAN_POINT('',(-40.61458333333,-19.,0.));
#490 = LINE('',#491,#492);
#491 = CARTESIAN_POINT('',(-19.78954973118,-19.,0.));
#492 = VECTOR('',#493,1.);
#493 = DIRECTION('',(-1.,0.,0.));
#494 = ORIENTED_EDGE('',*,*,#495,.T.);
#495 = EDGE_CURVE('',#488,#496,#498,.T.);
#496 = VERTEX_POINT('',#497);
#497 = CARTESIAN_POINT('',(-42.,-24.,0.));
#498 = LINE('',#499,#500);
#499 = CARTESIAN_POINT('',(-37.37783885179,-7.318516156858,0.));
#500 = VECTOR('',#501,1.);
#501 = DIRECTION('',(-0.267022517843,-0.963690289961,0.));
#502 = ORIENTED_EDGE('',*,*,#503,.T.);
#503 = EDGE_CURVE('',#496,#504,#506,.T.);
#504 = VERTEX_POINT('',#505);
#505 = CARTESIAN_POINT('',(-15.4,-24.,0.));
#506 = LINE('',#507,#508);
#507 = CARTESIAN_POINT('',(-7.182258064516,-24.,0.));
#508 = VECTOR('',#509,1.);
#509 = DIRECTION('',(1.,0.,0.));
#510 = ORIENTED_EDGE('',*,*,#511,.T.);
#511 = EDGE_CURVE('',#504,#486,#512,.T.);
#512 = LINE('',#513,#514);
#513 = CARTESIAN_POINT('',(-18.59469900161,-12.47025924229,0.));
#514 = VECTOR('',#515,1.);
#515 = DIRECTION('',(-0.267022517843,0.963690289961,0.));
#516 = FACE_BOUND('',#517,.T.);
#517 = EDGE_LOOP('',(#518));
#518 = ORIENTED_EDGE('',*,*,#519,.T.);
#519 = EDGE_CURVE('',#520,#520,#522,.T.);
#520 = VERTEX_POINT('',#521);
#521 = CARTESIAN_POINT('',(-19.8,-15.5,0.));
#522 = CIRCLE('',#523,1.4);
#523 = AXIS2_PLACEMENT_3D('',#524,#525,#526);
#524 = CARTESIAN_POINT('',(-21.2,-15.5,0.));
#525 = DIRECTION('',(0.,0.,1.));
#526 = DIRECTION('',(1.,0.,0.));
#527 = FACE_BOUND('',#528,.T.);
#528 = EDGE_LOOP('',(#529));
#529 = ORIENTED_EDGE('',*,*,#530,.T.);
#530 = EDGE_CURVE('',#531,#531,#533,.T.);
#531 = VERTEX_POINT('',#532);
#532 = CARTESIAN_POINT('',(-34.8,-15.5,0.));
#533 = CIRCLE('',#534,1.4);
#534 = AXIS2_PLACEMENT_3D('',#535,#536,#537);
#535 = CARTESIAN_POINT('',(-36.2,-15.5,0.));
#536 = DIRECTION('',(0.,0.,1.));
#537 = DIRECTION('',(1.,0.,0.));
#538 = PLANE('',#539);
#539 = AXIS2_PLACEMENT_3D('',#540,#541,#542);
#540 = CARTESIAN_POINT('',(-2.180612244898,0.,0.));
#541 = DIRECTION('',(-0.,-0.,-1.));
#542 = DIRECTION('',(-1.,0.,0.));
#543 = ADVANCED_FACE('',(#544),#569,.T.);
#544 = FACE_BOUND('',#545,.T.);
#545 = EDGE_LOOP('',(#546,#556,#562,#563));
#546 = ORIENTED_EDGE('',*,*,#547,.F.);
#547 = EDGE_CURVE('',#548,#550,#552,.T.);
#548 = VERTEX_POINT('',#549);
#549 = CARTESIAN_POINT('',(49.,32.,7.657534246575));
#550 = VERTEX_POINT('',#551);
#551 = CARTESIAN_POINT('',(42.2,32.,3.));
#552 = LINE('',#553,#554);
#553 = CARTESIAN_POINT('',(45.925759994891,32.,5.551890407459));
#554 = VECTOR('',#555,1.);
#555 = DIRECTION('',(-0.825029948326,0.,-0.565089005702));
#556 = ORIENTED_EDGE('',*,*,#557,.F.);
#557 = EDGE_CURVE('',#24,#548,#558,.T.);
#558 = LINE('',#559,#560);
#559 = CARTESIAN_POINT('',(49.,32.,0.));
#560 = VECTOR('',#561,1.);
#561 = DIRECTION('',(0.,0.,1.));
#562 = ORIENTED_EDGE('',*,*,#21,.F.);
#563 = ORIENTED_EDGE('',*,*,#564,.T.);
#564 = EDGE_CURVE('',#22,#550,#565,.T.);
#565 = LINE('',#566,#567);
#566 = CARTESIAN_POINT('',(42.2,32.,0.));
#567 = VECTOR('',#568,1.);
#568 = DIRECTION('',(0.,0.,1.));
#569 = PLANE('',#570);
#570 = AXIS2_PLACEMENT_3D('',#571,#572,#573);
#571 = CARTESIAN_POINT('',(47.1,32.,4.));
#572 = DIRECTION('',(0.,1.,0.));
#573 = DIRECTION('',(0.,0.,1.));
#574 = ADVANCED_FACE('',(#575),#603,.T.);
#575 = FACE_BOUND('',#576,.F.);
#576 = EDGE_LOOP('',(#577,#586,#587,#588,#596));
#577 = ORIENTED_EDGE('',*,*,#578,.F.);
#578 = EDGE_CURVE('',#548,#579,#581,.T.);
#579 = VERTEX_POINT('',#580);
#580 = CARTESIAN_POINT('',(49.5,31.95803989155,8.));
#581 = ELLIPSE('',#582,3.636231637516,3.);
#582 = AXIS2_PLACEMENT_3D('',#583,#584,#585);
#583 = CARTESIAN_POINT('',(49.,29.,7.657534246575));
#584 = DIRECTION('',(0.565089005702,0.,-0.825029948326));
#585 = DIRECTION('',(0.825029948326,0.,0.565089005702));
#586 = ORIENTED_EDGE('',*,*,#557,.F.);
#587 = ORIENTED_EDGE('',*,*,#31,.T.);
#588 = ORIENTED_EDGE('',*,*,#589,.T.);
#589 = EDGE_CURVE('',#32,#590,#592,.T.);
#590 = VERTEX_POINT('',#591);
#591 = CARTESIAN_POINT('',(52.,29.,8.));
#592 = LINE('',#593,#594);
#593 = CARTESIAN_POINT('',(52.,29.,0.));
#594 = VECTOR('',#595,1.);
#595 = DIRECTION('',(0.,0.,1.));
#596 = ORIENTED_EDGE('',*,*,#597,.F.);
#597 = EDGE_CURVE('',#579,#590,#598,.T.);
#598 = CIRCLE('',#599,3.);
#599 = AXIS2_PLACEMENT_3D('',#600,#601,#602);
#600 = CARTESIAN_POINT('',(49.,29.,8.));
#601 = DIRECTION('',(-0.,-0.,-1.));
#602 = DIRECTION('',(0.,-1.,0.));
#603 = CYLINDRICAL_SURFACE('',#604,3.);
#604 = AXIS2_PLACEMENT_3D('',#605,#606,#607);
#605 = CARTESIAN_POINT('',(49.,29.,0.));
#606 = DIRECTION('',(0.,0.,1.));
#607 = DIRECTION('',(0.,1.,0.));
#608 = ADVANCED_FACE('',(#609),#627,.T.);
#609 = FACE_BOUND('',#610,.T.);
#610 = EDGE_LOOP('',(#611,#612,#613,#621));
#611 = ORIENTED_EDGE('',*,*,#564,.F.);
#612 = ORIENTED_EDGE('',*,*,#321,.F.);
#613 = ORIENTED_EDGE('',*,*,#614,.T.);
#614 = EDGE_CURVE('',#314,#615,#617,.T.);
#615 = VERTEX_POINT('',#616);
#616 = CARTESIAN_POINT('',(42.2,29.,3.));
#617 = LINE('',#618,#619);
#618 = CARTESIAN_POINT('',(42.2,29.,0.));
#619 = VECTOR('',#620,1.);
#620 = DIRECTION('',(0.,0.,1.));
#621 = ORIENTED_EDGE('',*,*,#622,.T.);
#622 = EDGE_CURVE('',#615,#550,#623,.T.);
#623 = LINE('',#624,#625);
#624 = CARTESIAN_POINT('',(42.2,29.,3.));
#625 = VECTOR('',#626,1.);
#626 = DIRECTION('',(0.,1.,0.));
#627 = PLANE('',#628);
#628 = AXIS2_PLACEMENT_3D('',#629,#630,#631);
#629 = CARTESIAN_POINT('',(42.2,30.5,4.));
#630 = DIRECTION('',(-1.,-0.,-0.));
#631 = DIRECTION('',(0.,0.,-1.));
#632 = ADVANCED_FACE('',(#633),#651,.T.);
#633 = FACE_BOUND('',#634,.T.);
#634 = EDGE_LOOP('',(#635,#643,#649,#650));
#635 = ORIENTED_EDGE('',*,*,#636,.T.);
#636 = EDGE_CURVE('',#590,#637,#639,.T.);
#637 = VERTEX_POINT('',#638);
#638 = CARTESIAN_POINT('',(52.,-29.,8.));
#639 = LINE('',#640,#641);
#640 = CARTESIAN_POINT('',(52.,32.,8.));
#641 = VECTOR('',#642,1.);
#642 = DIRECTION('',(0.,-1.,0.));
#643 = ORIENTED_EDGE('',*,*,#644,.F.);
#644 = EDGE_CURVE('',#41,#637,#645,.T.);
#645 = LINE('',#646,#647);
#646 = CARTESIAN_POINT('',(52.,-29.,0.));
#647 = VECTOR('',#648,1.);
#648 = DIRECTION('',(0.,0.,1.));
#649 = ORIENTED_EDGE('',*,*,#40,.F.);
#650 = ORIENTED_EDGE('',*,*,#589,.T.);
#651 = PLANE('',#652);
#652 = AXIS2_PLACEMENT_3D('',#653,#654,#655);
#653 = CARTESIAN_POINT('',(52.,0.,4.));
#654 = DIRECTION('',(1.,0.,0.));
#655 = DIRECTION('',(0.,0.,1.));
#656 = ADVANCED_FACE('',(#657),#675,.T.);
#657 = FACE_BOUND('',#658,.T.);
#658 = EDGE_LOOP('',(#659,#667,#673,#674));
#659 = ORIENTED_EDGE('',*,*,#660,.T.);
#660 = EDGE_CURVE('',#306,#661,#663,.T.);
#661 = VERTEX_POINT('',#662);
#662 = CARTESIAN_POINT('',(32.,29.,3.));
#663 = LINE('',#664,#665);
#664 = CARTESIAN_POINT('',(32.,29.,0.));
#665 = VECTOR('',#666,1.);
#666 = DIRECTION('',(0.,0.,1.));
#667 = ORIENTED_EDGE('',*,*,#668,.T.);
#668 = EDGE_CURVE('',#661,#615,#669,.T.);
#669 = LINE('',#670,#671);
#670 = CARTESIAN_POINT('',(32.,29.,3.));
#671 = VECTOR('',#672,1.);
#672 = DIRECTION('',(1.,0.,0.));
#673 = ORIENTED_EDGE('',*,*,#614,.F.);
#674 = ORIENTED_EDGE('',*,*,#313,.F.);
#675 = PLANE('',#676);
#676 = AXIS2_PLACEMENT_3D('',#677,#678,#679);
#677 = CARTESIAN_POINT('',(32.,29.,0.));
#678 = DIRECTION('',(0.,1.,0.));
#679 = DIRECTION('',(1.,0.,0.));
#680 = ADVANCED_FACE('',(#681),#709,.T.);
#681 = FACE_BOUND('',#682,.F.);
#682 = EDGE_LOOP('',(#683,#692,#693,#694,#702));
#683 = ORIENTED_EDGE('',*,*,#684,.F.);
#684 = EDGE_CURVE('',#637,#685,#687,.T.);
#685 = VERTEX_POINT('',#686);
#686 = CARTESIAN_POINT('',(49.5,-31.95803989155,8.));
#687 = CIRCLE('',#688,3.);
#688 = AXIS2_PLACEMENT_3D('',#689,#690,#691);
#689 = CARTESIAN_POINT('',(49.,-29.,8.));
#690 = DIRECTION('',(-0.,-0.,-1.));
#691 = DIRECTION('',(0.,-1.,0.));
#692 = ORIENTED_EDGE('',*,*,#644,.F.);
#693 = ORIENTED_EDGE('',*,*,#48,.T.);
#694 = ORIENTED_EDGE('',*,*,#695,.T.);
#695 = EDGE_CURVE('',#49,#696,#698,.T.);
#696 = VERTEX_POINT('',#697);
#697 = CARTESIAN_POINT('',(49.,-32.,7.657534246575));
#698 = LINE('',#699,#700);
#699 = CARTESIAN_POINT('',(49.,-32.,0.));
#700 = VECTOR('',#701,1.);
#701 = DIRECTION('',(0.,0.,1.));
#702 = ORIENTED_EDGE('',*,*,#703,.F.);
#703 = EDGE_CURVE('',#685,#696,#704,.T.);
#704 = ELLIPSE('',#705,3.636231637516,3.);
#705 = AXIS2_PLACEMENT_3D('',#706,#707,#708);
#706 = CARTESIAN_POINT('',(49.,-29.,7.657534246575));
#707 = DIRECTION('',(0.565089005702,0.,-0.825029948326));
#708 = DIRECTION('',(0.825029948326,0.,0.565089005702));
#709 = CYLINDRICAL_SURFACE('',#710,3.);
#710 = AXIS2_PLACEMENT_3D('',#711,#712,#713);
#711 = CARTESIAN_POINT('',(49.,-29.,0.));
#712 = DIRECTION('',(0.,0.,1.));
#713 = DIRECTION('',(1.,0.,-0.));
#714 = ADVANCED_FACE('',(#715),#733,.T.);
#715 = FACE_BOUND('',#716,.T.);
#716 = EDGE_LOOP('',(#717,#725,#731,#732));
#717 = ORIENTED_EDGE('',*,*,#718,.T.);
#718 = EDGE_CURVE('',#298,#719,#721,.T.);
#719 = VERTEX_POINT('',#720);
#720 = CARTESIAN_POINT('',(32.,32.,3.));
#721 = LINE('',#722,#723);
#722 = CARTESIAN_POINT('',(32.,32.,0.));
#723 = VECTOR('',#724,1.);
#724 = DIRECTION('',(0.,0.,1.));
#725 = ORIENTED_EDGE('',*,*,#726,.T.);
#726 = EDGE_CURVE('',#719,#661,#727,.T.);
#727 = LINE('',#728,#729);
#728 = CARTESIAN_POINT('',(32.,32.,3.));
#729 = VECTOR('',#730,1.);
#730 = DIRECTION('',(0.,-1.,0.));
#731 = ORIENTED_EDGE('',*,*,#660,.F.);
#732 = ORIENTED_EDGE('',*,*,#305,.F.);
#733 = PLANE('',#734);
#734 = AXIS2_PLACEMENT_3D('',#735,#736,#737);
#735 = CARTESIAN_POINT('',(32.,32.,0.));
#736 = DIRECTION('',(1.,0.,0.));
#737 = DIRECTION('',(0.,-1.,0.));
#738 = ADVANCED_FACE('',(#739),#757,.T.);
#739 = FACE_BOUND('',#740,.T.);
#740 = EDGE_LOOP('',(#741,#749,#755,#756));
#741 = ORIENTED_EDGE('',*,*,#742,.T.);
#742 = EDGE_CURVE('',#696,#743,#745,.T.);
#743 = VERTEX_POINT('',#744);
#744 = CARTESIAN_POINT('',(42.2,-32.,3.));
#745 = LINE('',#746,#747);
#746 = CARTESIAN_POINT('',(45.925759994891,-32.,5.551890407459));
#747 = VECTOR('',#748,1.);
#748 = DIRECTION('',(-0.825029948326,0.,-0.565089005702));
#749 = ORIENTED_EDGE('',*,*,#750,.F.);
#750 = EDGE_CURVE('',#58,#743,#751,.T.);
#751 = LINE('',#752,#753);
#752 = CARTESIAN_POINT('',(42.2,-32.,0.));
#753 = VECTOR('',#754,1.);
#754 = DIRECTION('',(0.,0.,1.));
#755 = ORIENTED_EDGE('',*,*,#57,.T.);
#756 = ORIENTED_EDGE('',*,*,#695,.T.);
#757 = PLANE('',#758);
#758 = AXIS2_PLACEMENT_3D('',#759,#760,#761);
#759 = CARTESIAN_POINT('',(47.1,-32.,4.));
#760 = DIRECTION('',(-0.,-1.,-0.));
#761 = DIRECTION('',(0.,0.,-1.));
#762 = ADVANCED_FACE('',(#763),#781,.T.);
#763 = FACE_BOUND('',#764,.T.);
#764 = EDGE_LOOP('',(#765,#773,#779,#780));
#765 = ORIENTED_EDGE('',*,*,#766,.T.);
#766 = EDGE_CURVE('',#290,#767,#769,.T.);
#767 = VERTEX_POINT('',#768);
#768 = CARTESIAN_POINT('',(22.,32.,3.));
#769 = LINE('',#770,#771);
#770 = CARTESIAN_POINT('',(22.,32.,0.));
#771 = VECTOR('',#772,1.);
#772 = DIRECTION('',(0.,0.,1.));
#773 = ORIENTED_EDGE('',*,*,#774,.T.);
#774 = EDGE_CURVE('',#767,#719,#775,.T.);
#775 = LINE('',#776,#777);
#776 = CARTESIAN_POINT('',(22.,32.,3.));
#777 = VECTOR('',#778,1.);
#778 = DIRECTION('',(1.,0.,0.));
#779 = ORIENTED_EDGE('',*,*,#718,.F.);
#780 = ORIENTED_EDGE('',*,*,#297,.F.);
#781 = PLANE('',#782);
#782 = AXIS2_PLACEMENT_3D('',#783,#784,#785);
#783 = CARTESIAN_POINT('',(22.,32.,0.));
#784 = DIRECTION('',(0.,1.,0.));
#785 = DIRECTION('',(1.,0.,0.));
#786 = ADVANCED_FACE('',(#787),#805,.T.);
#787 = FACE_BOUND('',#788,.T.);
#788 = EDGE_LOOP('',(#789,#790,#798,#804));
#789 = ORIENTED_EDGE('',*,*,#750,.T.);
#790 = ORIENTED_EDGE('',*,*,#791,.T.);
#791 = EDGE_CURVE('',#743,#792,#794,.T.);
#792 = VERTEX_POINT('',#793);
#793 = CARTESIAN_POINT('',(42.2,-29.,3.));
#794 = LINE('',#795,#796);
#795 = CARTESIAN_POINT('',(42.2,-32.,3.));
#796 = VECTOR('',#797,1.);
#797 = DIRECTION('',(0.,1.,0.));
#798 = ORIENTED_EDGE('',*,*,#799,.F.);
#799 = EDGE_CURVE('',#66,#792,#800,.T.);
#800 = LINE('',#801,#802);
#801 = CARTESIAN_POINT('',(42.2,-29.,0.));
#802 = VECTOR('',#803,1.);
#803 = DIRECTION('',(0.,0.,1.));
#804 = ORIENTED_EDGE('',*,*,#65,.T.);
#805 = PLANE('',#806);
#806 = AXIS2_PLACEMENT_3D('',#807,#808,#809);
#807 = CARTESIAN_POINT('',(42.2,-30.5,4.));
#808 = DIRECTION('',(-1.,-0.,-0.));
#809 = DIRECTION('',(0.,0.,-1.));
#810 = ADVANCED_FACE('',(#811),#829,.T.);
#811 = FACE_BOUND('',#812,.T.);
#812 = EDGE_LOOP('',(#813,#821,#827,#828));
#813 = ORIENTED_EDGE('',*,*,#814,.T.);
#814 = EDGE_CURVE('',#282,#815,#817,.T.);
#815 = VERTEX_POINT('',#816);
#816 = CARTESIAN_POINT('',(22.,29.,3.));
#817 = LINE('',#818,#819);
#818 = CARTESIAN_POINT('',(22.,29.,0.));
#819 = VECTOR('',#820,1.);
#820 = DIRECTION('',(0.,0.,1.));
#821 = ORIENTED_EDGE('',*,*,#822,.T.);
#822 = EDGE_CURVE('',#815,#767,#823,.T.);
#823 = LINE('',#824,#825);
#824 = CARTESIAN_POINT('',(22.,29.,3.));
#825 = VECTOR('',#826,1.);
#826 = DIRECTION('',(0.,1.,0.));
#827 = ORIENTED_EDGE('',*,*,#766,.F.);
#828 = ORIENTED_EDGE('',*,*,#289,.F.);
#829 = PLANE('',#830);
#830 = AXIS2_PLACEMENT_3D('',#831,#832,#833);
#831 = CARTESIAN_POINT('',(22.,29.,0.));
#832 = DIRECTION('',(-1.,0.,0.));
#833 = DIRECTION('',(0.,1.,0.));
#834 = ADVANCED_FACE('',(#835),#853,.T.);
#835 = FACE_BOUND('',#836,.F.);
#836 = EDGE_LOOP('',(#837,#845,#851,#852));
#837 = ORIENTED_EDGE('',*,*,#838,.T.);
#838 = EDGE_CURVE('',#74,#839,#841,.T.);
#839 = VERTEX_POINT('',#840);
#840 = CARTESIAN_POINT('',(32.,-29.,3.));
#841 = LINE('',#842,#843);
#842 = CARTESIAN_POINT('',(32.,-29.,0.));
#843 = VECTOR('',#844,1.);
#844 = DIRECTION('',(0.,0.,1.));
#845 = ORIENTED_EDGE('',*,*,#846,.T.);
#846 = EDGE_CURVE('',#839,#792,#847,.T.);
#847 = LINE('',#848,#849);
#848 = CARTESIAN_POINT('',(32.,-29.,3.));
#849 = VECTOR('',#850,1.);
#850 = DIRECTION('',(1.,0.,0.));
#851 = ORIENTED_EDGE('',*,*,#799,.F.);
#852 = ORIENTED_EDGE('',*,*,#73,.F.);
#853 = PLANE('',#854);
#854 = AXIS2_PLACEMENT_3D('',#855,#856,#857);
#855 = CARTESIAN_POINT('',(32.,-29.,0.));
#856 = DIRECTION('',(-0.,-1.,-0.));
#857 = DIRECTION('',(-1.,0.,0.));
#858 = ADVANCED_FACE('',(#859),#877,.T.);
#859 = FACE_BOUND('',#860,.T.);
#860 = EDGE_LOOP('',(#861,#869,#875,#876));
#861 = ORIENTED_EDGE('',*,*,#862,.T.);
#862 = EDGE_CURVE('',#274,#863,#865,.T.);
#863 = VERTEX_POINT('',#864);
#864 = CARTESIAN_POINT('',(0.,29.,3.));
#865 = LINE('',#866,#867);
#866 = CARTESIAN_POINT('',(0.,29.,0.));
#867 = VECTOR('',#868,1.);
#868 = DIRECTION('',(0.,0.,1.));
#869 = ORIENTED_EDGE('',*,*,#870,.T.);
#870 = EDGE_CURVE('',#863,#815,#871,.T.);
#871 = LINE('',#872,#873);
#872 = CARTESIAN_POINT('',(0.,29.,3.));
#873 = VECTOR('',#874,1.);
#874 = DIRECTION('',(1.,0.,0.));
#875 = ORIENTED_EDGE('',*,*,#814,.F.);
#876 = ORIENTED_EDGE('',*,*,#281,.F.);
#877 = PLANE('',#878);
#878 = AXIS2_PLACEMENT_3D('',#879,#880,#881);
#879 = CARTESIAN_POINT('',(0.,29.,0.));
#880 = DIRECTION('',(0.,1.,0.));
#881 = DIRECTION('',(1.,0.,0.));
#882 = ADVANCED_FACE('',(#883),#901,.T.);
#883 = FACE_BOUND('',#884,.F.);
#884 = EDGE_LOOP('',(#885,#893,#899,#900));
#885 = ORIENTED_EDGE('',*,*,#886,.T.);
#886 = EDGE_CURVE('',#82,#887,#889,.T.);
#887 = VERTEX_POINT('',#888);
#888 = CARTESIAN_POINT('',(32.,-32.,3.));
#889 = LINE('',#890,#891);
#890 = CARTESIAN_POINT('',(32.,-32.,0.));
#891 = VECTOR('',#892,1.);
#892 = DIRECTION('',(0.,0.,1.));
#893 = ORIENTED_EDGE('',*,*,#894,.T.);
#894 = EDGE_CURVE('',#887,#839,#895,.T.);
#895 = LINE('',#896,#897);
#896 = CARTESIAN_POINT('',(32.,-32.,3.));
#897 = VECTOR('',#898,1.);
#898 = DIRECTION('',(0.,1.,0.));
#899 = ORIENTED_EDGE('',*,*,#838,.F.);
#900 = ORIENTED_EDGE('',*,*,#81,.F.);
#901 = PLANE('',#902);
#902 = AXIS2_PLACEMENT_3D('',#903,#904,#905);
#903 = CARTESIAN_POINT('',(32.,-32.,0.));
#904 = DIRECTION('',(1.,0.,0.));
#905 = DIRECTION('',(0.,-1.,0.));
#906 = ADVANCED_FACE('',(#907),#925,.T.);
#907 = FACE_BOUND('',#908,.T.);
#908 = EDGE_LOOP('',(#909,#917,#923,#924));
#909 = ORIENTED_EDGE('',*,*,#910,.T.);
#910 = EDGE_CURVE('',#266,#911,#913,.T.);
#911 = VERTEX_POINT('',#912);
#912 = CARTESIAN_POINT('',(0.,32.,3.));
#913 = LINE('',#914,#915);
#914 = CARTESIAN_POINT('',(0.,32.,0.));
#915 = VECTOR('',#916,1.);
#916 = DIRECTION('',(0.,0.,1.));
#917 = ORIENTED_EDGE('',*,*,#918,.T.);
#918 = EDGE_CURVE('',#911,#863,#919,.T.);
#919 = LINE('',#920,#921);
#920 = CARTESIAN_POINT('',(0.,32.,3.));
#921 = VECTOR('',#922,1.);
#922 = DIRECTION('',(0.,-1.,0.));
#923 = ORIENTED_EDGE('',*,*,#862,.F.);
#924 = ORIENTED_EDGE('',*,*,#273,.F.);
#925 = PLANE('',#926);
#926 = AXIS2_PLACEMENT_3D('',#927,#928,#929);
#927 = CARTESIAN_POINT('',(0.,32.,0.));
#928 = DIRECTION('',(1.,0.,0.));
#929 = DIRECTION('',(0.,-1.,0.));
#930 = ADVANCED_FACE('',(#931),#949,.T.);
#931 = FACE_BOUND('',#932,.F.);
#932 = EDGE_LOOP('',(#933,#941,#947,#948));
#933 = ORIENTED_EDGE('',*,*,#934,.T.);
#934 = EDGE_CURVE('',#90,#935,#937,.T.);
#935 = VERTEX_POINT('',#936);
#936 = CARTESIAN_POINT('',(22.,-32.,3.));
#937 = LINE('',#938,#939);
#938 = CARTESIAN_POINT('',(22.,-32.,0.));
#939 = VECTOR('',#940,1.);
#940 = DIRECTION('',(0.,0.,1.));
#941 = ORIENTED_EDGE('',*,*,#942,.T.);
#942 = EDGE_CURVE('',#935,#887,#943,.T.);
#943 = LINE('',#944,#945);
#944 = CARTESIAN_POINT('',(22.,-32.,3.));
#945 = VECTOR('',#946,1.);
#946 = DIRECTION('',(1.,0.,0.));
#947 = ORIENTED_EDGE('',*,*,#886,.F.);
#948 = ORIENTED_EDGE('',*,*,#89,.F.);
#949 = PLANE('',#950);
#950 = AXIS2_PLACEMENT_3D('',#951,#952,#953);
#951 = CARTESIAN_POINT('',(22.,-32.,0.));
#952 = DIRECTION('',(-0.,-1.,-0.));
#953 = DIRECTION('',(-1.,0.,0.));
#954 = ADVANCED_FACE('',(#955),#973,.T.);
#955 = FACE_BOUND('',#956,.T.);
#956 = EDGE_LOOP('',(#957,#965,#971,#972));
#957 = ORIENTED_EDGE('',*,*,#958,.T.);
#958 = EDGE_CURVE('',#258,#959,#961,.T.);
#959 = VERTEX_POINT('',#960);
#960 = CARTESIAN_POINT('',(-10.,32.,3.));
#961 = LINE('',#962,#963);
#962 = CARTESIAN_POINT('',(-10.,32.,0.));
#963 = VECTOR('',#964,1.);
#964 = DIRECTION('',(0.,0.,1.));
#965 = ORIENTED_EDGE('',*,*,#966,.T.);
#966 = EDGE_CURVE('',#959,#911,#967,.T.);
#967 = LINE('',#968,#969);
#968 = CARTESIAN_POINT('',(-10.,32.,3.));
#969 = VECTOR('',#970,1.);
#970 = DIRECTION('',(1.,0.,0.));
#971 = ORIENTED_EDGE('',*,*,#910,.F.);
#972 = ORIENTED_EDGE('',*,*,#265,.F.);
#973 = PLANE('',#974);
#974 = AXIS2_PLACEMENT_3D('',#975,#976,#977);
#975 = CARTESIAN_POINT('',(-10.,32.,0.));
#976 = DIRECTION('',(0.,1.,0.));
#977 = DIRECTION('',(1.,0.,0.));
#978 = ADVANCED_FACE('',(#979),#997,.T.);
#979 = FACE_BOUND('',#980,.F.);
#980 = EDGE_LOOP('',(#981,#989,#995,#996));
#981 = ORIENTED_EDGE('',*,*,#982,.T.);
#982 = EDGE_CURVE('',#98,#983,#985,.T.);
#983 = VERTEX_POINT('',#984);
#984 = CARTESIAN_POINT('',(22.,-29.,3.));
#985 = LINE('',#986,#987);
#986 = CARTESIAN_POINT('',(22.,-29.,0.));
#987 = VECTOR('',#988,1.);
#988 = DIRECTION('',(0.,0.,1.));
#989 = ORIENTED_EDGE('',*,*,#990,.T.);
#990 = EDGE_CURVE('',#983,#935,#991,.T.);
#991 = LINE('',#992,#993);
#992 = CARTESIAN_POINT('',(22.,-29.,3.));
#993 = VECTOR('',#994,1.);
#994 = DIRECTION('',(-0.,-1.,-0.));
#995 = ORIENTED_EDGE('',*,*,#934,.F.);
#996 = ORIENTED_EDGE('',*,*,#97,.F.);
#997 = PLANE('',#998);
#998 = AXIS2_PLACEMENT_3D('',#999,#1000,#1001);
#999 = CARTESIAN_POINT('',(22.,-29.,0.));
#1000 = DIRECTION('',(-1.,-0.,-0.));
#1001 = DIRECTION('',(0.,1.,0.));
#1002 = ADVANCED_FACE('',(#1003),#1021,.T.);
#1003 = FACE_BOUND('',#1004,.T.);
#1004 = EDGE_LOOP('',(#1005,#1013,#1019,#1020));
#1005 = ORIENTED_EDGE('',*,*,#1006,.T.);
#1006 = EDGE_CURVE('',#250,#1007,#1009,.T.);
#1007 = VERTEX_POINT('',#1008);
#1008 = CARTESIAN_POINT('',(-10.,29.,3.));
#1009 = LINE('',#1010,#1011);
#1010 = CARTESIAN_POINT('',(-10.,29.,0.));
#1011 = VECTOR('',#1012,1.);
#1012 = DIRECTION('',(0.,0.,1.));
#1013 = ORIENTED_EDGE('',*,*,#1014,.T.);
#1014 = EDGE_CURVE('',#1007,#959,#1015,.T.);
#1015 = LINE('',#1016,#1017);
#1016 = CARTESIAN_POINT('',(-10.,29.,3.));
#1017 = VECTOR('',#1018,1.);
#1018 = DIRECTION('',(0.,1.,0.));
#1019 = ORIENTED_EDGE('',*,*,#958,.F.);
#1020 = ORIENTED_EDGE('',*,*,#257,.F.);
#1021 = PLANE('',#1022);
#1022 = AXIS2_PLACEMENT_3D('',#1023,#1024,#1025);
#1023 = CARTESIAN_POINT('',(-10.,29.,0.));
#1024 = DIRECTION('',(-1.,0.,0.));
#1025 = DIRECTION('',(0.,1.,0.));
#1026 = ADVANCED_FACE('',(#1027),#1045,.T.);
#1027 = FACE_BOUND('',#1028,.F.);
#1028 = EDGE_LOOP('',(#1029,#1037,#1043,#1044));
#1029 = ORIENTED_EDGE('',*,*,#1030,.T.);
#1030 = EDGE_CURVE('',#106,#1031,#1033,.T.);
#1031 = VERTEX_POINT('',#1032);
#1032 = CARTESIAN_POINT('',(0.,-29.,3.));
#1033 = LINE('',#1034,#1035);
#1034 = CARTESIAN_POINT('',(0.,-29.,0.));
#1035 = VECTOR('',#1036,1.);
#1036 = DIRECTION('',(0.,0.,1.));
#1037 = ORIENTED_EDGE('',*,*,#1038,.T.);
#1038 = EDGE_CURVE('',#1031,#983,#1039,.T.);
#1039 = LINE('',#1040,#1041);
#1040 = CARTESIAN_POINT('',(0.,-29.,3.));
#1041 = VECTOR('',#1042,1.);
#1042 = DIRECTION('',(1.,0.,0.));
#1043 = ORIENTED_EDGE('',*,*,#982,.F.);
#1044 = ORIENTED_EDGE('',*,*,#105,.F.);
#1045 = PLANE('',#1046);
#1046 = AXIS2_PLACEMENT_3D('',#1047,#1048,#1049);
#1047 = CARTESIAN_POINT('',(0.,-29.,0.));
#1048 = DIRECTION('',(-0.,-1.,-0.));
#1049 = DIRECTION('',(-1.,0.,0.));
#1050 = ADVANCED_FACE('',(#1051),#1069,.T.);
#1051 = FACE_BOUND('',#1052,.T.);
#1052 = EDGE_LOOP('',(#1053,#1061,#1067,#1068));
#1053 = ORIENTED_EDGE('',*,*,#1054,.T.);
#1054 = EDGE_CURVE('',#242,#1055,#1057,.T.);
#1055 = VERTEX_POINT('',#1056);
#1056 = CARTESIAN_POINT('',(-32.,29.,3.));
#1057 = LINE('',#1058,#1059);
#1058 = CARTESIAN_POINT('',(-32.,29.,0.));
#1059 = VECTOR('',#1060,1.);
#1060 = DIRECTION('',(0.,0.,1.));
#1061 = ORIENTED_EDGE('',*,*,#1062,.T.);
#1062 = EDGE_CURVE('',#1055,#1007,#1063,.T.);
#1063 = LINE('',#1064,#1065);
#1064 = CARTESIAN_POINT('',(-32.,29.,3.));
#1065 = VECTOR('',#1066,1.);
#1066 = DIRECTION('',(1.,0.,0.));
#1067 = ORIENTED_EDGE('',*,*,#1006,.F.);
#1068 = ORIENTED_EDGE('',*,*,#249,.F.);
#1069 = PLANE('',#1070);
#1070 = AXIS2_PLACEMENT_3D('',#1071,#1072,#1073);
#1071 = CARTESIAN_POINT('',(-32.,29.,0.));
#1072 = DIRECTION('',(0.,1.,0.));
#1073 = DIRECTION('',(1.,0.,0.));
#1074 = ADVANCED_FACE('',(#1075),#1093,.T.);
#1075 = FACE_BOUND('',#1076,.F.);
#1076 = EDGE_LOOP('',(#1077,#1085,#1091,#1092));
#1077 = ORIENTED_EDGE('',*,*,#1078,.T.);
#1078 = EDGE_CURVE('',#114,#1079,#1081,.T.);
#1079 = VERTEX_POINT('',#1080);
#1080 = CARTESIAN_POINT('',(0.,-32.,3.));
#1081 = LINE('',#1082,#1083);
#1082 = CARTESIAN_POINT('',(0.,-32.,0.));
#1083 = VECTOR('',#1084,1.);
#1084 = DIRECTION('',(0.,0.,1.));
#1085 = ORIENTED_EDGE('',*,*,#1086,.T.);
#1086 = EDGE_CURVE('',#1079,#1031,#1087,.T.);
#1087 = LINE('',#1088,#1089);
#1088 = CARTESIAN_POINT('',(0.,-32.,3.));
#1089 = VECTOR('',#1090,1.);
#1090 = DIRECTION('',(0.,1.,0.));
#1091 = ORIENTED_EDGE('',*,*,#1030,.F.);
#1092 = ORIENTED_EDGE('',*,*,#113,.F.);
#1093 = PLANE('',#1094);
#1094 = AXIS2_PLACEMENT_3D('',#1095,#1096,#1097);
#1095 = CARTESIAN_POINT('',(0.,-32.,0.));
#1096 = DIRECTION('',(1.,0.,0.));
#1097 = DIRECTION('',(0.,-1.,0.));
#1098 = ADVANCED_FACE('',(#1099),#1117,.T.);
#1099 = FACE_BOUND('',#1100,.T.);
#1100 = EDGE_LOOP('',(#1101,#1109,#1115,#1116));
#1101 = ORIENTED_EDGE('',*,*,#1102,.T.);
#1102 = EDGE_CURVE('',#234,#1103,#1105,.T.);
#1103 = VERTEX_POINT('',#1104);
#1104 = CARTESIAN_POINT('',(-32.,32.,3.));
#1105 = LINE('',#1106,#1107);
#1106 = CARTESIAN_POINT('',(-32.,32.,0.));
#1107 = VECTOR('',#1108,1.);
#1108 = DIRECTION('',(0.,0.,1.));
#1109 = ORIENTED_EDGE('',*,*,#1110,.T.);
#1110 = EDGE_CURVE('',#1103,#1055,#1111,.T.);
#1111 = LINE('',#1112,#1113);
#1112 = CARTESIAN_POINT('',(-32.,32.,3.));
#1113 = VECTOR('',#1114,1.);
#1114 = DIRECTION('',(0.,-1.,0.));
#1115 = ORIENTED_EDGE('',*,*,#1054,.F.);
#1116 = ORIENTED_EDGE('',*,*,#241,.F.);
#1117 = PLANE('',#1118);
#1118 = AXIS2_PLACEMENT_3D('',#1119,#1120,#1121);
#1119 = CARTESIAN_POINT('',(-32.,32.,0.));
#1120 = DIRECTION('',(1.,0.,0.));
#1121 = DIRECTION('',(0.,-1.,0.));
#1122 = ADVANCED_FACE('',(#1123),#1141,.T.);
#1123 = FACE_BOUND('',#1124,.F.);
#1124 = EDGE_LOOP('',(#1125,#1133,#1139,#1140));
#1125 = ORIENTED_EDGE('',*,*,#1126,.T.);
#1126 = EDGE_CURVE('',#122,#1127,#1129,.T.);
#1127 = VERTEX_POINT('',#1128);
#1128 = CARTESIAN_POINT('',(-10.,-32.,3.));
#1129 = LINE('',#1130,#1131);
#1130 = CARTESIAN_POINT('',(-10.,-32.,0.));
#1131 = VECTOR('',#1132,1.);
#1132 = DIRECTION('',(0.,0.,1.));
#1133 = ORIENTED_EDGE('',*,*,#1134,.T.);
#1134 = EDGE_CURVE('',#1127,#1079,#1135,.T.);
#1135 = LINE('',#1136,#1137);
#1136 = CARTESIAN_POINT('',(-10.,-32.,3.));
#1137 = VECTOR('',#1138,1.);
#1138 = DIRECTION('',(1.,0.,0.));
#1139 = ORIENTED_EDGE('',*,*,#1078,.F.);
#1140 = ORIENTED_EDGE('',*,*,#121,.F.);
#1141 = PLANE('',#1142);
#1142 = AXIS2_PLACEMENT_3D('',#1143,#1144,#1145);
#1143 = CARTESIAN_POINT('',(-10.,-32.,0.));
#1144 = DIRECTION('',(-0.,-1.,-0.));
#1145 = DIRECTION('',(-1.,0.,0.));
#1146 = ADVANCED_FACE('',(#1147),#1165,.T.);
#1147 = FACE_BOUND('',#1148,.T.);
#1148 = EDGE_LOOP('',(#1149,#1157,#1163,#1164));
#1149 = ORIENTED_EDGE('',*,*,#1150,.T.);
#1150 = EDGE_CURVE('',#226,#1151,#1153,.T.);
#1151 = VERTEX_POINT('',#1152);
#1152 = CARTESIAN_POINT('',(-42.,32.,3.));
#1153 = LINE('',#1154,#1155);
#1154 = CARTESIAN_POINT('',(-42.,32.,0.));
#1155 = VECTOR('',#1156,1.);
#1156 = DIRECTION('',(0.,0.,1.));
#1157 = ORIENTED_EDGE('',*,*,#1158,.T.);
#1158 = EDGE_CURVE('',#1151,#1103,#1159,.T.);
#1159 = LINE('',#1160,#1161);
#1160 = CARTESIAN_POINT('',(-42.,32.,3.));
#1161 = VECTOR('',#1162,1.);
#1162 = DIRECTION('',(1.,0.,0.));
#1163 = ORIENTED_EDGE('',*,*,#1102,.F.);
#1164 = ORIENTED_EDGE('',*,*,#233,.F.);
#1165 = PLANE('',#1166);
#1166 = AXIS2_PLACEMENT_3D('',#1167,#1168,#1169);
#1167 = CARTESIAN_POINT('',(-42.,32.,0.));
#1168 = DIRECTION('',(0.,1.,0.));
#1169 = DIRECTION('',(1.,0.,0.));
#1170 = ADVANCED_FACE('',(#1171),#1189,.T.);
#1171 = FACE_BOUND('',#1172,.F.);
#1172 = EDGE_LOOP('',(#1173,#1181,#1187,#1188));
#1173 = ORIENTED_EDGE('',*,*,#1174,.T.);
#1174 = EDGE_CURVE('',#130,#1175,#1177,.T.);
#1175 = VERTEX_POINT('',#1176);
#1176 = CARTESIAN_POINT('',(-10.,-29.,3.));
#1177 = LINE('',#1178,#1179);
#1178 = CARTESIAN_POINT('',(-10.,-29.,0.));
#1179 = VECTOR('',#1180,1.);
#1180 = DIRECTION('',(0.,0.,1.));
#1181 = ORIENTED_EDGE('',*,*,#1182,.T.);
#1182 = EDGE_CURVE('',#1175,#1127,#1183,.T.);
#1183 = LINE('',#1184,#1185);
#1184 = CARTESIAN_POINT('',(-10.,-29.,3.));
#1185 = VECTOR('',#1186,1.);
#1186 = DIRECTION('',(-0.,-1.,-0.));
#1187 = ORIENTED_EDGE('',*,*,#1126,.F.);
#1188 = ORIENTED_EDGE('',*,*,#129,.F.);
#1189 = PLANE('',#1190);
#1190 = AXIS2_PLACEMENT_3D('',#1191,#1192,#1193);
#1191 = CARTESIAN_POINT('',(-10.,-29.,0.));
#1192 = DIRECTION('',(-1.,-0.,-0.));
#1193 = DIRECTION('',(0.,1.,0.));
#1194 = ADVANCED_FACE('',(#1195),#1213,.T.);
#1195 = FACE_BOUND('',#1196,.T.);
#1196 = EDGE_LOOP('',(#1197,#1205,#1211,#1212));
#1197 = ORIENTED_EDGE('',*,*,#1198,.T.);
#1198 = EDGE_CURVE('',#218,#1199,#1201,.T.);
#1199 = VERTEX_POINT('',#1200);
#1200 = CARTESIAN_POINT('',(-42.,29.,3.));
#1201 = LINE('',#1202,#1203);
#1202 = CARTESIAN_POINT('',(-42.,29.,0.));
#1203 = VECTOR('',#1204,1.);
#1204 = DIRECTION('',(0.,0.,1.));
#1205 = ORIENTED_EDGE('',*,*,#1206,.T.);
#1206 = EDGE_CURVE('',#1199,#1151,#1207,.T.);
#1207 = LINE('',#1208,#1209);
#1208 = CARTESIAN_POINT('',(-42.,29.,3.));
#1209 = VECTOR('',#1210,1.);
#1210 = DIRECTION('',(0.,1.,0.));
#1211 = ORIENTED_EDGE('',*,*,#1150,.F.);
#1212 = ORIENTED_EDGE('',*,*,#225,.F.);
#1213 = PLANE('',#1214);
#1214 = AXIS2_PLACEMENT_3D('',#1215,#1216,#1217);
#1215 = CARTESIAN_POINT('',(-42.,29.,0.));
#1216 = DIRECTION('',(-1.,0.,0.));
#1217 = DIRECTION('',(0.,1.,0.));
#1218 = ADVANCED_FACE('',(#1219),#1237,.T.);
#1219 = FACE_BOUND('',#1220,.F.);
#1220 = EDGE_LOOP('',(#1221,#1229,#1235,#1236));
#1221 = ORIENTED_EDGE('',*,*,#1222,.T.);
#1222 = EDGE_CURVE('',#138,#1223,#1225,.T.);
#1223 = VERTEX_POINT('',#1224);
#1224 = CARTESIAN_POINT('',(-32.,-29.,3.));
#1225 = LINE('',#1226,#1227);
#1226 = CARTESIAN_POINT('',(-32.,-29.,0.));
#1227 = VECTOR('',#1228,1.);
#1228 = DIRECTION('',(0.,0.,1.));
#1229 = ORIENTED_EDGE('',*,*,#1230,.T.);
#1230 = EDGE_CURVE('',#1223,#1175,#1231,.T.);
#1231 = LINE('',#1232,#1233);
#1232 = CARTESIAN_POINT('',(-32.,-29.,3.));
#1233 = VECTOR('',#1234,1.);
#1234 = DIRECTION('',(1.,0.,0.));
#1235 = ORIENTED_EDGE('',*,*,#1174,.F.);
#1236 = ORIENTED_EDGE('',*,*,#137,.F.);
#1237 = PLANE('',#1238);
#1238 = AXIS2_PLACEMENT_3D('',#1239,#1240,#1241);
#1239 = CARTESIAN_POINT('',(-32.,-29.,0.));
#1240 = DIRECTION('',(-0.,-1.,-0.));
#1241 = DIRECTION('',(-1.,0.,0.));
#1242 = ADVANCED_FACE('',(#1243),#1261,.T.);
#1243 = FACE_BOUND('',#1244,.T.);
#1244 = EDGE_LOOP('',(#1245,#1253,#1259,#1260));
#1245 = ORIENTED_EDGE('',*,*,#1246,.T.);
#1246 = EDGE_CURVE('',#210,#1247,#1249,.T.);
#1247 = VERTEX_POINT('',#1248);
#1248 = CARTESIAN_POINT('',(-52.,29.,3.));
#1249 = LINE('',#1250,#1251);
#1250 = CARTESIAN_POINT('',(-52.,29.,0.));
#1251 = VECTOR('',#1252,1.);
#1252 = DIRECTION('',(0.,0.,1.));
#1253 = ORIENTED_EDGE('',*,*,#1254,.T.);
#1254 = EDGE_CURVE('',#1247,#1199,#1255,.T.);
#1255 = LINE('',#1256,#1257);
#1256 = CARTESIAN_POINT('',(-52.,29.,3.));
#1257 = VECTOR('',#1258,1.);
#1258 = DIRECTION('',(1.,0.,0.));
#1259 = ORIENTED_EDGE('',*,*,#1198,.F.);
#1260 = ORIENTED_EDGE('',*,*,#217,.F.);
#1261 = PLANE('',#1262);
#1262 = AXIS2_PLACEMENT_3D('',#1263,#1264,#1265);
#1263 = CARTESIAN_POINT('',(-52.,29.,0.));
#1264 = DIRECTION('',(0.,1.,0.));
#1265 = DIRECTION('',(1.,0.,0.));
#1266 = ADVANCED_FACE('',(#1267),#1285,.T.);
#1267 = FACE_BOUND('',#1268,.F.);
#1268 = EDGE_LOOP('',(#1269,#1277,#1283,#1284));
#1269 = ORIENTED_EDGE('',*,*,#1270,.T.);
#1270 = EDGE_CURVE('',#146,#1271,#1273,.T.);
#1271 = VERTEX_POINT('',#1272);
#1272 = CARTESIAN_POINT('',(-32.,-32.,3.));
#1273 = LINE('',#1274,#1275);
#1274 = CARTESIAN_POINT('',(-32.,-32.,0.));
#1275 = VECTOR('',#1276,1.);
#1276 = DIRECTION('',(0.,0.,1.));
#1277 = ORIENTED_EDGE('',*,*,#1278,.T.);
#1278 = EDGE_CURVE('',#1271,#1223,#1279,.T.);
#1279 = LINE('',#1280,#1281);
#1280 = CARTESIAN_POINT('',(-32.,-32.,3.));
#1281 = VECTOR('',#1282,1.);
#1282 = DIRECTION('',(0.,1.,0.));
#1283 = ORIENTED_EDGE('',*,*,#1222,.F.);
#1284 = ORIENTED_EDGE('',*,*,#145,.F.);
#1285 = PLANE('',#1286);
#1286 = AXIS2_PLACEMENT_3D('',#1287,#1288,#1289);
#1287 = CARTESIAN_POINT('',(-32.,-32.,0.));
#1288 = DIRECTION('',(1.,0.,0.));
#1289 = DIRECTION('',(0.,-1.,0.));
#1290 = ADVANCED_FACE('',(#1291),#1309,.T.);
#1291 = FACE_BOUND('',#1292,.T.);
#1292 = EDGE_LOOP('',(#1293,#1294,#1295,#1303));
#1293 = ORIENTED_EDGE('',*,*,#1246,.F.);
#1294 = ORIENTED_EDGE('',*,*,#209,.F.);
#1295 = ORIENTED_EDGE('',*,*,#1296,.F.);
#1296 = EDGE_CURVE('',#1297,#202,#1299,.T.);
#1297 = VERTEX_POINT('',#1298);
#1298 = CARTESIAN_POINT('',(-52.,5.,3.));
#1299 = LINE('',#1300,#1301);
#1300 = CARTESIAN_POINT('',(-52.,5.,1.5));
#1301 = VECTOR('',#1302,1.);
#1302 = DIRECTION('',(0.,0.,-1.));
#1303 = ORIENTED_EDGE('',*,*,#1304,.F.);
#1304 = EDGE_CURVE('',#1247,#1297,#1305,.T.);
#1305 = LINE('',#1306,#1307);
#1306 = CARTESIAN_POINT('',(-52.,0.,3.));
#1307 = VECTOR('',#1308,1.);
#1308 = DIRECTION('',(-0.,-1.,-0.));
#1309 = PLANE('',#1310);
#1310 = AXIS2_PLACEMENT_3D('',#1311,#1312,#1313);
#1311 = CARTESIAN_POINT('',(-52.,0.,1.5));
#1312 = DIRECTION('',(-1.,-0.,-0.));
#1313 = DIRECTION('',(0.,0.,-1.));
#1314 = ADVANCED_FACE('',(#1315),#1333,.T.);
#1315 = FACE_BOUND('',#1316,.F.);
#1316 = EDGE_LOOP('',(#1317,#1325,#1331,#1332));
#1317 = ORIENTED_EDGE('',*,*,#1318,.T.);
#1318 = EDGE_CURVE('',#154,#1319,#1321,.T.);
#1319 = VERTEX_POINT('',#1320);
#1320 = CARTESIAN_POINT('',(-42.,-32.,3.));
#1321 = LINE('',#1322,#1323);
#1322 = CARTESIAN_POINT('',(-42.,-32.,0.));
#1323 = VECTOR('',#1324,1.);
#1324 = DIRECTION('',(0.,0.,1.));
#1325 = ORIENTED_EDGE('',*,*,#1326,.T.);
#1326 = EDGE_CURVE('',#1319,#1271,#1327,.T.);
#1327 = LINE('',#1328,#1329);
#1328 = CARTESIAN_POINT('',(-42.,-32.,3.));
#1329 = VECTOR('',#1330,1.);
#1330 = DIRECTION('',(1.,0.,0.));
#1331 = ORIENTED_EDGE('',*,*,#1270,.F.);
#1332 = ORIENTED_EDGE('',*,*,#153,.F.);
#1333 = PLANE('',#1334);
#1334 = AXIS2_PLACEMENT_3D('',#1335,#1336,#1337);
#1335 = CARTESIAN_POINT('',(-42.,-32.,0.));
#1336 = DIRECTION('',(-0.,-1.,-0.));
#1337 = DIRECTION('',(-1.,0.,0.));
#1338 = ADVANCED_FACE('',(#1339),#1397,.T.);
#1339 = FACE_BOUND('',#1340,.T.);
#1340 = EDGE_LOOP('',(#1341,#1351,#1357,#1358,#1359,#1367,#1375,#1383,
    #1391));
#1341 = ORIENTED_EDGE('',*,*,#1342,.T.);
#1342 = EDGE_CURVE('',#1343,#1345,#1347,.T.);
#1343 = VERTEX_POINT('',#1344);
#1344 = CARTESIAN_POINT('',(-53.,5.,1.5));
#1345 = VERTEX_POINT('',#1346);
#1346 = CARTESIAN_POINT('',(-53.,5.,1.6));
#1347 = LINE('',#1348,#1349);
#1348 = CARTESIAN_POINT('',(-53.,5.,1.5));
#1349 = VECTOR('',#1350,1.);
#1350 = DIRECTION('',(0.,0.,1.));
#1351 = ORIENTED_EDGE('',*,*,#1352,.T.);
#1352 = EDGE_CURVE('',#1345,#1297,#1353,.T.);
#1353 = LINE('',#1354,#1355);
#1354 = CARTESIAN_POINT('',(-53.40092984591,5.,1.038698215725));
#1355 = VECTOR('',#1356,1.);
#1356 = DIRECTION('',(0.581238193719,0.,0.813733471207));
#1357 = ORIENTED_EDGE('',*,*,#1296,.T.);
#1358 = ORIENTED_EDGE('',*,*,#201,.T.);
#1359 = ORIENTED_EDGE('',*,*,#1360,.F.);
#1360 = EDGE_CURVE('',#1361,#194,#1363,.T.);
#1361 = VERTEX_POINT('',#1362);
#1362 = CARTESIAN_POINT('',(-62.,5.,4.1));
#1363 = LINE('',#1364,#1365);
#1364 = CARTESIAN_POINT('',(-62.,5.,1.5));
#1365 = VECTOR('',#1366,1.);
#1366 = DIRECTION('',(0.,0.,-1.));
#1367 = ORIENTED_EDGE('',*,*,#1368,.F.);
#1368 = EDGE_CURVE('',#1369,#1361,#1371,.T.);
#1369 = VERTEX_POINT('',#1370);
#1370 = CARTESIAN_POINT('',(-59.6,5.,6.5));
#1371 = LINE('',#1372,#1373);
#1372 = CARTESIAN_POINT('',(-60.90795454545,5.,5.192045454545));
#1373 = VECTOR('',#1374,1.);
#1374 = DIRECTION('',(-0.707106781187,0.,-0.707106781187));
#1375 = ORIENTED_EDGE('',*,*,#1376,.F.);
#1376 = EDGE_CURVE('',#1377,#1369,#1379,.T.);
#1377 = VERTEX_POINT('',#1378);
#1378 = CARTESIAN_POINT('',(-59.2,5.,6.5));
#1379 = LINE('',#1380,#1381);
#1380 = CARTESIAN_POINT('',(-59.2,5.,6.5));
#1381 = VECTOR('',#1382,1.);
#1382 = DIRECTION('',(-1.,0.,0.));
#1383 = ORIENTED_EDGE('',*,*,#1384,.F.);
#1384 = EDGE_CURVE('',#1385,#1377,#1387,.T.);
#1385 = VERTEX_POINT('',#1386);
#1386 = CARTESIAN_POINT('',(-59.2,5.,1.5));
#1387 = LINE('',#1388,#1389);
#1388 = CARTESIAN_POINT('',(-59.2,5.,1.5));
#1389 = VECTOR('',#1390,1.);
#1390 = DIRECTION('',(0.,0.,1.));
#1391 = ORIENTED_EDGE('',*,*,#1392,.F.);
#1392 = EDGE_CURVE('',#1343,#1385,#1393,.T.);
#1393 = LINE('',#1394,#1395);
#1394 = CARTESIAN_POINT('',(-52.,5.,1.5));
#1395 = VECTOR('',#1396,1.);
#1396 = DIRECTION('',(-1.,0.,0.));
#1397 = PLANE('',#1398);
#1398 = AXIS2_PLACEMENT_3D('',#1399,#1400,#1401);
#1399 = CARTESIAN_POINT('',(-57.41271842624,5.,1.99943838461));
#1400 = DIRECTION('',(0.,1.,0.));
#1401 = DIRECTION('',(0.,0.,1.));
#1402 = ADVANCED_FACE('',(#1403),#1421,.T.);
#1403 = FACE_BOUND('',#1404,.F.);
#1404 = EDGE_LOOP('',(#1405,#1413,#1419,#1420));
#1405 = ORIENTED_EDGE('',*,*,#1406,.T.);
#1406 = EDGE_CURVE('',#162,#1407,#1409,.T.);
#1407 = VERTEX_POINT('',#1408);
#1408 = CARTESIAN_POINT('',(-42.,-29.,3.));
#1409 = LINE('',#1410,#1411);
#1410 = CARTESIAN_POINT('',(-42.,-29.,0.));
#1411 = VECTOR('',#1412,1.);
#1412 = DIRECTION('',(0.,0.,1.));
#1413 = ORIENTED_EDGE('',*,*,#1414,.T.);
#1414 = EDGE_CURVE('',#1407,#1319,#1415,.T.);
#1415 = LINE('',#1416,#1417);
#1416 = CARTESIAN_POINT('',(-42.,-29.,3.));
#1417 = VECTOR('',#1418,1.);
#1418 = DIRECTION('',(-0.,-1.,-0.));
#1419 = ORIENTED_EDGE('',*,*,#1318,.F.);
#1420 = ORIENTED_EDGE('',*,*,#161,.F.);
#1421 = PLANE('',#1422);
#1422 = AXIS2_PLACEMENT_3D('',#1423,#1424,#1425);
#1423 = CARTESIAN_POINT('',(-42.,-29.,0.));
#1424 = DIRECTION('',(-1.,-0.,-0.));
#1425 = DIRECTION('',(0.,1.,0.));
#1426 = ADVANCED_FACE('',(#1427),#1445,.T.);
#1427 = FACE_BOUND('',#1428,.T.);
#1428 = EDGE_LOOP('',(#1429,#1437,#1443,#1444));
#1429 = ORIENTED_EDGE('',*,*,#1430,.T.);
#1430 = EDGE_CURVE('',#186,#1431,#1433,.T.);
#1431 = VERTEX_POINT('',#1432);
#1432 = CARTESIAN_POINT('',(-62.,-5.,4.1));
#1433 = LINE('',#1434,#1435);
#1434 = CARTESIAN_POINT('',(-62.,-5.,1.5));
#1435 = VECTOR('',#1436,1.);
#1436 = DIRECTION('',(0.,0.,1.));
#1437 = ORIENTED_EDGE('',*,*,#1438,.F.);
#1438 = EDGE_CURVE('',#1361,#1431,#1439,.T.);
#1439 = LINE('',#1440,#1441);
#1440 = CARTESIAN_POINT('',(-62.,5.,4.1));
#1441 = VECTOR('',#1442,1.);
#1442 = DIRECTION('',(0.,-1.,0.));
#1443 = ORIENTED_EDGE('',*,*,#1360,.T.);
#1444 = ORIENTED_EDGE('',*,*,#193,.T.);
#1445 = PLANE('',#1446);
#1446 = AXIS2_PLACEMENT_3D('',#1447,#1448,#1449);
#1447 = CARTESIAN_POINT('',(-62.,0.,3.25));
#1448 = DIRECTION('',(-1.,-0.,-0.));
#1449 = DIRECTION('',(0.,0.,-1.));
#1450 = ADVANCED_FACE('',(#1451),#1469,.T.);
#1451 = FACE_BOUND('',#1452,.F.);
#1452 = EDGE_LOOP('',(#1453,#1461,#1467,#1468));
#1453 = ORIENTED_EDGE('',*,*,#1454,.T.);
#1454 = EDGE_CURVE('',#170,#1455,#1457,.T.);
#1455 = VERTEX_POINT('',#1456);
#1456 = CARTESIAN_POINT('',(-52.,-29.,3.));
#1457 = LINE('',#1458,#1459);
#1458 = CARTESIAN_POINT('',(-52.,-29.,0.));
#1459 = VECTOR('',#1460,1.);
#1460 = DIRECTION('',(0.,0.,1.));
#1461 = ORIENTED_EDGE('',*,*,#1462,.T.);
#1462 = EDGE_CURVE('',#1455,#1407,#1463,.T.);
#1463 = LINE('',#1464,#1465);
#1464 = CARTESIAN_POINT('',(-52.,-29.,3.));
#1465 = VECTOR('',#1466,1.);
#1466 = DIRECTION('',(1.,0.,0.));
#1467 = ORIENTED_EDGE('',*,*,#1406,.F.);
#1468 = ORIENTED_EDGE('',*,*,#169,.F.);
#1469 = PLANE('',#1470);
#1470 = AXIS2_PLACEMENT_3D('',#1471,#1472,#1473);
#1471 = CARTESIAN_POINT('',(-52.,-29.,0.));
#1472 = DIRECTION('',(-0.,-1.,-0.));
#1473 = DIRECTION('',(-1.,0.,0.));
#1474 = ADVANCED_FACE('',(#1475),#1533,.T.);
#1475 = FACE_BOUND('',#1476,.T.);
#1476 = EDGE_LOOP('',(#1477,#1487,#1495,#1503,#1511,#1517,#1518,#1519,
    #1527));
#1477 = ORIENTED_EDGE('',*,*,#1478,.F.);
#1478 = EDGE_CURVE('',#1479,#1481,#1483,.T.);
#1479 = VERTEX_POINT('',#1480);
#1480 = CARTESIAN_POINT('',(-53.,-5.,1.5));
#1481 = VERTEX_POINT('',#1482);
#1482 = CARTESIAN_POINT('',(-53.,-5.,1.6));
#1483 = LINE('',#1484,#1485);
#1484 = CARTESIAN_POINT('',(-53.,-5.,1.5));
#1485 = VECTOR('',#1486,1.);
#1486 = DIRECTION('',(0.,0.,1.));
#1487 = ORIENTED_EDGE('',*,*,#1488,.T.);
#1488 = EDGE_CURVE('',#1479,#1489,#1491,.T.);
#1489 = VERTEX_POINT('',#1490);
#1490 = CARTESIAN_POINT('',(-59.2,-5.,1.5));
#1491 = LINE('',#1492,#1493);
#1492 = CARTESIAN_POINT('',(-52.,-5.,1.5));
#1493 = VECTOR('',#1494,1.);
#1494 = DIRECTION('',(-1.,0.,0.));
#1495 = ORIENTED_EDGE('',*,*,#1496,.T.);
#1496 = EDGE_CURVE('',#1489,#1497,#1499,.T.);
#1497 = VERTEX_POINT('',#1498);
#1498 = CARTESIAN_POINT('',(-59.2,-5.,6.5));
#1499 = LINE('',#1500,#1501);
#1500 = CARTESIAN_POINT('',(-59.2,-5.,1.5));
#1501 = VECTOR('',#1502,1.);
#1502 = DIRECTION('',(0.,0.,1.));
#1503 = ORIENTED_EDGE('',*,*,#1504,.F.);
#1504 = EDGE_CURVE('',#1505,#1497,#1507,.T.);
#1505 = VERTEX_POINT('',#1506);
#1506 = CARTESIAN_POINT('',(-59.6,-5.,6.5));
#1507 = LINE('',#1508,#1509);
#1508 = CARTESIAN_POINT('',(-62.,-5.,6.5));
#1509 = VECTOR('',#1510,1.);
#1510 = DIRECTION('',(1.,0.,0.));
#1511 = ORIENTED_EDGE('',*,*,#1512,.T.);
#1512 = EDGE_CURVE('',#1505,#1431,#1513,.T.);
#1513 = LINE('',#1514,#1515);
#1514 = CARTESIAN_POINT('',(-60.90795454545,-5.,5.192045454545));
#1515 = VECTOR('',#1516,1.);
#1516 = DIRECTION('',(-0.707106781187,0.,-0.707106781187));
#1517 = ORIENTED_EDGE('',*,*,#1430,.F.);
#1518 = ORIENTED_EDGE('',*,*,#185,.F.);
#1519 = ORIENTED_EDGE('',*,*,#1520,.T.);
#1520 = EDGE_CURVE('',#178,#1521,#1523,.T.);
#1521 = VERTEX_POINT('',#1522);
#1522 = CARTESIAN_POINT('',(-52.,-5.,3.));
#1523 = LINE('',#1524,#1525);
#1524 = CARTESIAN_POINT('',(-52.,-5.,1.5));
#1525 = VECTOR('',#1526,1.);
#1526 = DIRECTION('',(0.,0.,1.));
#1527 = ORIENTED_EDGE('',*,*,#1528,.F.);
#1528 = EDGE_CURVE('',#1481,#1521,#1529,.T.);
#1529 = LINE('',#1530,#1531);
#1530 = CARTESIAN_POINT('',(-53.40092984591,-5.,1.038698215725));
#1531 = VECTOR('',#1532,1.);
#1532 = DIRECTION('',(0.581238193719,0.,0.813733471207));
#1533 = PLANE('',#1534);
#1534 = AXIS2_PLACEMENT_3D('',#1535,#1536,#1537);
#1535 = CARTESIAN_POINT('',(-57.41271842624,-5.,1.99943838461));
#1536 = DIRECTION('',(-0.,-1.,-0.));
#1537 = DIRECTION('',(0.,0.,-1.));
#1538 = ADVANCED_FACE('',(#1539),#1550,.T.);
#1539 = FACE_BOUND('',#1540,.T.);
#1540 = EDGE_LOOP('',(#1541,#1547,#1548,#1549));
#1541 = ORIENTED_EDGE('',*,*,#1542,.F.);
#1542 = EDGE_CURVE('',#1521,#1455,#1543,.T.);
#1543 = LINE('',#1544,#1545);
#1544 = CARTESIAN_POINT('',(-52.,0.,3.));
#1545 = VECTOR('',#1546,1.);
#1546 = DIRECTION('',(-0.,-1.,-0.));
#1547 = ORIENTED_EDGE('',*,*,#1520,.F.);
#1548 = ORIENTED_EDGE('',*,*,#177,.F.);
#1549 = ORIENTED_EDGE('',*,*,#1454,.T.);
#1550 = PLANE('',#1551);
#1551 = AXIS2_PLACEMENT_3D('',#1552,#1553,#1554);
#1552 = CARTESIAN_POINT('',(-52.,0.,1.5));
#1553 = DIRECTION('',(-1.,-0.,-0.));
#1554 = DIRECTION('',(0.,0.,-1.));
#1555 = ADVANCED_FACE('',(#1556),#1581,.T.);
#1556 = FACE_BOUND('',#1557,.T.);
#1557 = EDGE_LOOP('',(#1558,#1568,#1574,#1575));
#1558 = ORIENTED_EDGE('',*,*,#1559,.F.);
#1559 = EDGE_CURVE('',#1560,#1562,#1564,.T.);
#1560 = VERTEX_POINT('',#1561);
#1561 = CARTESIAN_POINT('',(2.9,24.,3.));
#1562 = VERTEX_POINT('',#1563);
#1563 = CARTESIAN_POINT('',(-10.4,-24.,3.));
#1564 = LINE('',#1565,#1566);
#1565 = CARTESIAN_POINT('',(2.9,24.,3.));
#1566 = VECTOR('',#1567,1.);
#1567 = DIRECTION('',(-0.267022517843,-0.963690289961,0.));
#1568 = ORIENTED_EDGE('',*,*,#1569,.T.);
#1569 = EDGE_CURVE('',#1560,#332,#1570,.T.);
#1570 = LINE('',#1571,#1572);
#1571 = CARTESIAN_POINT('',(2.9,24.,3.));
#1572 = VECTOR('',#1573,1.);
#1573 = DIRECTION('',(-0.,-0.,-1.));
#1574 = ORIENTED_EDGE('',*,*,#329,.F.);
#1575 = ORIENTED_EDGE('',*,*,#1576,.F.);
#1576 = EDGE_CURVE('',#1562,#330,#1577,.T.);
#1577 = LINE('',#1578,#1579);
#1578 = CARTESIAN_POINT('',(-10.4,-24.,3.));
#1579 = VECTOR('',#1580,1.);
#1580 = DIRECTION('',(-0.,-0.,-1.));
#1581 = PLANE('',#1582);
#1582 = AXIS2_PLACEMENT_3D('',#1583,#1584,#1585);
#1583 = CARTESIAN_POINT('',(2.9,24.,3.));
#1584 = DIRECTION('',(-0.963690289961,0.267022517843,0.));
#1585 = DIRECTION('',(-0.267022517843,-0.963690289961,0.));
#1586 = ADVANCED_FACE('',(#1587),#1605,.T.);
#1587 = FACE_BOUND('',#1588,.T.);
#1588 = EDGE_LOOP('',(#1589,#1597,#1603,#1604));
#1589 = ORIENTED_EDGE('',*,*,#1590,.F.);
#1590 = EDGE_CURVE('',#1591,#1560,#1593,.T.);
#1591 = VERTEX_POINT('',#1592);
#1592 = CARTESIAN_POINT('',(-23.7,24.,3.));
#1593 = LINE('',#1594,#1595);
#1594 = CARTESIAN_POINT('',(-23.7,24.,3.));
#1595 = VECTOR('',#1596,1.);
#1596 = DIRECTION('',(1.,0.,0.));
#1597 = ORIENTED_EDGE('',*,*,#1598,.T.);
#1598 = EDGE_CURVE('',#1591,#340,#1599,.T.);
#1599 = LINE('',#1600,#1601);
#1600 = CARTESIAN_POINT('',(-23.7,24.,3.));
#1601 = VECTOR('',#1602,1.);
#1602 = DIRECTION('',(-0.,-0.,-1.));
#1603 = ORIENTED_EDGE('',*,*,#339,.F.);
#1604 = ORIENTED_EDGE('',*,*,#1569,.F.);
#1605 = PLANE('',#1606);
#1606 = AXIS2_PLACEMENT_3D('',#1607,#1608,#1609);
#1607 = CARTESIAN_POINT('',(-23.7,24.,3.));
#1608 = DIRECTION('',(0.,-1.,0.));
#1609 = DIRECTION('',(1.,0.,0.));
#1610 = ADVANCED_FACE('',(#1611),#1622,.T.);
#1611 = FACE_BOUND('',#1612,.T.);
#1612 = EDGE_LOOP('',(#1613,#1619,#1620,#1621));
#1613 = ORIENTED_EDGE('',*,*,#1614,.F.);
#1614 = EDGE_CURVE('',#1562,#1591,#1615,.T.);
#1615 = LINE('',#1616,#1617);
#1616 = CARTESIAN_POINT('',(-10.4,-24.,3.));
#1617 = VECTOR('',#1618,1.);
#1618 = DIRECTION('',(-0.267022517843,0.963690289961,0.));
#1619 = ORIENTED_EDGE('',*,*,#1576,.T.);
#1620 = ORIENTED_EDGE('',*,*,#347,.F.);
#1621 = ORIENTED_EDGE('',*,*,#1598,.F.);
#1622 = PLANE('',#1623);
#1623 = AXIS2_PLACEMENT_3D('',#1624,#1625,#1626);
#1624 = CARTESIAN_POINT('',(-10.4,-24.,3.));
#1625 = DIRECTION('',(0.963690289961,0.267022517843,0.));
#1626 = DIRECTION('',(-0.267022517843,0.963690289961,0.));
#1627 = ADVANCED_FACE('',(#1628),#1653,.T.);
#1628 = FACE_BOUND('',#1629,.T.);
#1629 = EDGE_LOOP('',(#1630,#1640,#1646,#1647));
#1630 = ORIENTED_EDGE('',*,*,#1631,.F.);
#1631 = EDGE_CURVE('',#1632,#1634,#1636,.T.);
#1632 = VERTEX_POINT('',#1633);
#1633 = CARTESIAN_POINT('',(7.9,24.,3.));
#1634 = VERTEX_POINT('',#1635);
#1635 = CARTESIAN_POINT('',(21.2,-24.,3.));
#1636 = LINE('',#1637,#1638);
#1637 = CARTESIAN_POINT('',(7.9,24.,3.));
#1638 = VECTOR('',#1639,1.);
#1639 = DIRECTION('',(0.267022517843,-0.963690289961,0.));
#1640 = ORIENTED_EDGE('',*,*,#1641,.T.);
#1641 = EDGE_CURVE('',#1632,#358,#1642,.T.);
#1642 = LINE('',#1643,#1644);
#1643 = CARTESIAN_POINT('',(7.9,24.,3.));
#1644 = VECTOR('',#1645,1.);
#1645 = DIRECTION('',(-0.,-0.,-1.));
#1646 = ORIENTED_EDGE('',*,*,#355,.F.);
#1647 = ORIENTED_EDGE('',*,*,#1648,.F.);
#1648 = EDGE_CURVE('',#1634,#356,#1649,.T.);
#1649 = LINE('',#1650,#1651);
#1650 = CARTESIAN_POINT('',(21.2,-24.,3.));
#1651 = VECTOR('',#1652,1.);
#1652 = DIRECTION('',(-0.,-0.,-1.));
#1653 = PLANE('',#1654);
#1654 = AXIS2_PLACEMENT_3D('',#1655,#1656,#1657);
#1655 = CARTESIAN_POINT('',(7.9,24.,3.));
#1656 = DIRECTION('',(-0.963690289961,-0.267022517843,0.));
#1657 = DIRECTION('',(0.267022517843,-0.963690289961,0.));
#1658 = ADVANCED_FACE('',(#1659),#1677,.T.);
#1659 = FACE_BOUND('',#1660,.T.);
#1660 = EDGE_LOOP('',(#1661,#1669,#1675,#1676));
#1661 = ORIENTED_EDGE('',*,*,#1662,.F.);
#1662 = EDGE_CURVE('',#1663,#1632,#1665,.T.);
#1663 = VERTEX_POINT('',#1664);
#1664 = CARTESIAN_POINT('',(-5.4,-24.,3.));
#1665 = LINE('',#1666,#1667);
#1666 = CARTESIAN_POINT('',(-5.4,-24.,3.));
#1667 = VECTOR('',#1668,1.);
#1668 = DIRECTION('',(0.267022517843,0.963690289961,0.));
#1669 = ORIENTED_EDGE('',*,*,#1670,.T.);
#1670 = EDGE_CURVE('',#1663,#366,#1671,.T.);
#1671 = LINE('',#1672,#1673);
#1672 = CARTESIAN_POINT('',(-5.4,-24.,3.));
#1673 = VECTOR('',#1674,1.);
#1674 = DIRECTION('',(-0.,-0.,-1.));
#1675 = ORIENTED_EDGE('',*,*,#365,.F.);
#1676 = ORIENTED_EDGE('',*,*,#1641,.F.);
#1677 = PLANE('',#1678);
#1678 = AXIS2_PLACEMENT_3D('',#1679,#1680,#1681);
#1679 = CARTESIAN_POINT('',(-5.4,-24.,3.));
#1680 = DIRECTION('',(0.963690289961,-0.267022517843,0.));
#1681 = DIRECTION('',(0.267022517843,0.963690289961,0.));
#1682 = ADVANCED_FACE('',(#1683),#1694,.T.);
#1683 = FACE_BOUND('',#1684,.T.);
#1684 = EDGE_LOOP('',(#1685,#1691,#1692,#1693));
#1685 = ORIENTED_EDGE('',*,*,#1686,.F.);
#1686 = EDGE_CURVE('',#1634,#1663,#1687,.T.);
#1687 = LINE('',#1688,#1689);
#1688 = CARTESIAN_POINT('',(21.2,-24.,3.));
#1689 = VECTOR('',#1690,1.);
#1690 = DIRECTION('',(-1.,0.,0.));
#1691 = ORIENTED_EDGE('',*,*,#1648,.T.);
#1692 = ORIENTED_EDGE('',*,*,#373,.F.);
#1693 = ORIENTED_EDGE('',*,*,#1670,.F.);
#1694 = PLANE('',#1695);
#1695 = AXIS2_PLACEMENT_3D('',#1696,#1697,#1698);
#1696 = CARTESIAN_POINT('',(21.2,-24.,3.));
#1697 = DIRECTION('',(0.,1.,0.));
#1698 = DIRECTION('',(-1.,0.,0.));
#1699 = ADVANCED_FACE('',(#1700),#1725,.T.);
#1700 = FACE_BOUND('',#1701,.T.);
#1701 = EDGE_LOOP('',(#1702,#1712,#1718,#1719));
#1702 = ORIENTED_EDGE('',*,*,#1703,.F.);
#1703 = EDGE_CURVE('',#1704,#1706,#1708,.T.);
#1704 = VERTEX_POINT('',#1705);
#1705 = CARTESIAN_POINT('',(39.5,24.,3.));
#1706 = VERTEX_POINT('',#1707);
#1707 = CARTESIAN_POINT('',(26.2,-24.,3.));
#1708 = LINE('',#1709,#1710);
#1709 = CARTESIAN_POINT('',(39.5,24.,3.));
#1710 = VECTOR('',#1711,1.);
#1711 = DIRECTION('',(-0.267022517843,-0.963690289961,0.));
#1712 = ORIENTED_EDGE('',*,*,#1713,.T.);
#1713 = EDGE_CURVE('',#1704,#384,#1714,.T.);
#1714 = LINE('',#1715,#1716);
#1715 = CARTESIAN_POINT('',(39.5,24.,3.));
#1716 = VECTOR('',#1717,1.);
#1717 = DIRECTION('',(-0.,-0.,-1.));
#1718 = ORIENTED_EDGE('',*,*,#381,.F.);
#1719 = ORIENTED_EDGE('',*,*,#1720,.F.);
#1720 = EDGE_CURVE('',#1706,#382,#1721,.T.);
#1721 = LINE('',#1722,#1723);
#1722 = CARTESIAN_POINT('',(26.2,-24.,3.));
#1723 = VECTOR('',#1724,1.);
#1724 = DIRECTION('',(-0.,-0.,-1.));
#1725 = PLANE('',#1726);
#1726 = AXIS2_PLACEMENT_3D('',#1727,#1728,#1729);
#1727 = CARTESIAN_POINT('',(39.5,24.,3.));
#1728 = DIRECTION('',(-0.963690289961,0.267022517843,0.));
#1729 = DIRECTION('',(-0.267022517843,-0.963690289961,0.));
#1730 = ADVANCED_FACE('',(#1731),#1749,.T.);
#1731 = FACE_BOUND('',#1732,.T.);
#1732 = EDGE_LOOP('',(#1733,#1741,#1747,#1748));
#1733 = ORIENTED_EDGE('',*,*,#1734,.F.);
#1734 = EDGE_CURVE('',#1735,#1704,#1737,.T.);
#1735 = VERTEX_POINT('',#1736);
#1736 = CARTESIAN_POINT('',(12.9,24.,3.));
#1737 = LINE('',#1738,#1739);
#1738 = CARTESIAN_POINT('',(12.9,24.,3.));
#1739 = VECTOR('',#1740,1.);
#1740 = DIRECTION('',(1.,0.,0.));
#1741 = ORIENTED_EDGE('',*,*,#1742,.T.);
#1742 = EDGE_CURVE('',#1735,#392,#1743,.T.);
#1743 = LINE('',#1744,#1745);
#1744 = CARTESIAN_POINT('',(12.9,24.,3.));
#1745 = VECTOR('',#1746,1.);
#1746 = DIRECTION('',(-0.,-0.,-1.));
#1747 = ORIENTED_EDGE('',*,*,#391,.F.);
#1748 = ORIENTED_EDGE('',*,*,#1713,.F.);
#1749 = PLANE('',#1750);
#1750 = AXIS2_PLACEMENT_3D('',#1751,#1752,#1753);
#1751 = CARTESIAN_POINT('',(12.9,24.,3.));
#1752 = DIRECTION('',(0.,-1.,0.));
#1753 = DIRECTION('',(1.,0.,0.));
#1754 = ADVANCED_FACE('',(#1755),#1766,.T.);
#1755 = FACE_BOUND('',#1756,.T.);
#1756 = EDGE_LOOP('',(#1757,#1763,#1764,#1765));
#1757 = ORIENTED_EDGE('',*,*,#1758,.F.);
#1758 = EDGE_CURVE('',#1706,#1735,#1759,.T.);
#1759 = LINE('',#1760,#1761);
#1760 = CARTESIAN_POINT('',(26.2,-24.,3.));
#1761 = VECTOR('',#1762,1.);
#1762 = DIRECTION('',(-0.267022517843,0.963690289961,0.));
#1763 = ORIENTED_EDGE('',*,*,#1720,.T.);
#1764 = ORIENTED_EDGE('',*,*,#399,.F.);
#1765 = ORIENTED_EDGE('',*,*,#1742,.F.);
#1766 = PLANE('',#1767);
#1767 = AXIS2_PLACEMENT_3D('',#1768,#1769,#1770);
#1768 = CARTESIAN_POINT('',(26.2,-24.,3.));
#1769 = DIRECTION('',(0.963690289961,0.267022517843,0.));
#1770 = DIRECTION('',(-0.267022517843,0.963690289961,0.));
#1771 = ADVANCED_FACE('',(#1772),#1797,.F.);
#1772 = FACE_BOUND('',#1773,.F.);
#1773 = EDGE_LOOP('',(#1774,#1784,#1790,#1791));
#1774 = ORIENTED_EDGE('',*,*,#1775,.F.);
#1775 = EDGE_CURVE('',#1776,#1778,#1780,.T.);
#1776 = VERTEX_POINT('',#1777);
#1777 = CARTESIAN_POINT('',(44.5,24.,3.));
#1778 = VERTEX_POINT('',#1779);
#1779 = CARTESIAN_POINT('',(31.2,-24.,3.));
#1780 = LINE('',#1781,#1782);
#1781 = CARTESIAN_POINT('',(44.5,24.,3.));
#1782 = VECTOR('',#1783,1.);
#1783 = DIRECTION('',(-0.267022517843,-0.963690289961,0.));
#1784 = ORIENTED_EDGE('',*,*,#1785,.T.);
#1785 = EDGE_CURVE('',#1776,#410,#1786,.T.);
#1786 = LINE('',#1787,#1788);
#1787 = CARTESIAN_POINT('',(44.5,24.,3.));
#1788 = VECTOR('',#1789,1.);
#1789 = DIRECTION('',(-0.,-0.,-1.));
#1790 = ORIENTED_EDGE('',*,*,#407,.F.);
#1791 = ORIENTED_EDGE('',*,*,#1792,.F.);
#1792 = EDGE_CURVE('',#1778,#408,#1793,.T.);
#1793 = LINE('',#1794,#1795);
#1794 = CARTESIAN_POINT('',(31.2,-24.,3.));
#1795 = VECTOR('',#1796,1.);
#1796 = DIRECTION('',(-0.,-0.,-1.));
#1797 = PLANE('',#1798);
#1798 = AXIS2_PLACEMENT_3D('',#1799,#1800,#1801);
#1799 = CARTESIAN_POINT('',(44.5,24.,3.));
#1800 = DIRECTION('',(-0.963690289961,0.267022517843,0.));
#1801 = DIRECTION('',(-0.267022517843,-0.963690289961,0.));
#1802 = ADVANCED_FACE('',(#1803),#1821,.T.);
#1803 = FACE_BOUND('',#1804,.T.);
#1804 = EDGE_LOOP('',(#1805,#1813,#1819,#1820));
#1805 = ORIENTED_EDGE('',*,*,#1806,.F.);
#1806 = EDGE_CURVE('',#1807,#1778,#1809,.T.);
#1807 = VERTEX_POINT('',#1808);
#1808 = CARTESIAN_POINT('',(44.5,-24.,3.));
#1809 = LINE('',#1810,#1811);
#1810 = CARTESIAN_POINT('',(44.5,-24.,3.));
#1811 = VECTOR('',#1812,1.);
#1812 = DIRECTION('',(-1.,0.,0.));
#1813 = ORIENTED_EDGE('',*,*,#1814,.T.);
#1814 = EDGE_CURVE('',#1807,#418,#1815,.T.);
#1815 = LINE('',#1816,#1817);
#1816 = CARTESIAN_POINT('',(44.5,-24.,3.));
#1817 = VECTOR('',#1818,1.);
#1818 = DIRECTION('',(-0.,-0.,-1.));
#1819 = ORIENTED_EDGE('',*,*,#417,.F.);
#1820 = ORIENTED_EDGE('',*,*,#1792,.F.);
#1821 = PLANE('',#1822);
#1822 = AXIS2_PLACEMENT_3D('',#1823,#1824,#1825);
#1823 = CARTESIAN_POINT('',(44.5,-24.,3.));
#1824 = DIRECTION('',(0.,1.,0.));
#1825 = DIRECTION('',(-1.,0.,0.));
#1826 = ADVANCED_FACE('',(#1827),#1838,.T.);
#1827 = FACE_BOUND('',#1828,.T.);
#1828 = EDGE_LOOP('',(#1829,#1835,#1836,#1837));
#1829 = ORIENTED_EDGE('',*,*,#1830,.F.);
#1830 = EDGE_CURVE('',#1776,#1807,#1831,.T.);
#1831 = LINE('',#1832,#1833);
#1832 = CARTESIAN_POINT('',(44.5,24.,3.));
#1833 = VECTOR('',#1834,1.);
#1834 = DIRECTION('',(0.,-1.,0.));
#1835 = ORIENTED_EDGE('',*,*,#1785,.T.);
#1836 = ORIENTED_EDGE('',*,*,#425,.F.);
#1837 = ORIENTED_EDGE('',*,*,#1814,.F.);
#1838 = PLANE('',#1839);
#1839 = AXIS2_PLACEMENT_3D('',#1840,#1841,#1842);
#1840 = CARTESIAN_POINT('',(44.5,24.,3.));
#1841 = DIRECTION('',(-1.,0.,0.));
#1842 = DIRECTION('',(0.,-1.,0.));
#1843 = ADVANCED_FACE('',(#1844),#1869,.F.);
#1844 = FACE_BOUND('',#1845,.F.);
#1845 = EDGE_LOOP('',(#1846,#1856,#1862,#1863));
#1846 = ORIENTED_EDGE('',*,*,#1847,.F.);
#1847 = EDGE_CURVE('',#1848,#1850,#1852,.T.);
#1848 = VERTEX_POINT('',#1849);
#1849 = CARTESIAN_POINT('',(-47.,24.,3.));
#1850 = VERTEX_POINT('',#1851);
#1851 = CARTESIAN_POINT('',(-47.,-24.,3.));
#1852 = LINE('',#1853,#1854);
#1853 = CARTESIAN_POINT('',(-47.,24.,3.));
#1854 = VECTOR('',#1855,1.);
#1855 = DIRECTION('',(0.,-1.,0.));
#1856 = ORIENTED_EDGE('',*,*,#1857,.T.);
#1857 = EDGE_CURVE('',#1848,#436,#1858,.T.);
#1858 = LINE('',#1859,#1860);
#1859 = CARTESIAN_POINT('',(-47.,24.,3.));
#1860 = VECTOR('',#1861,1.);
#1861 = DIRECTION('',(-0.,-0.,-1.));
#1862 = ORIENTED_EDGE('',*,*,#433,.F.);
#1863 = ORIENTED_EDGE('',*,*,#1864,.F.);
#1864 = EDGE_CURVE('',#1850,#434,#1865,.T.);
#1865 = LINE('',#1866,#1867);
#1866 = CARTESIAN_POINT('',(-47.,-24.,3.));
#1867 = VECTOR('',#1868,1.);
#1868 = DIRECTION('',(-0.,-0.,-1.));
#1869 = PLANE('',#1870);
#1870 = AXIS2_PLACEMENT_3D('',#1871,#1872,#1873);
#1871 = CARTESIAN_POINT('',(-47.,24.,3.));
#1872 = DIRECTION('',(-1.,0.,0.));
#1873 = DIRECTION('',(0.,-1.,0.));
#1874 = ADVANCED_FACE('',(#1875),#1893,.F.);
#1875 = FACE_BOUND('',#1876,.F.);
#1876 = EDGE_LOOP('',(#1877,#1885,#1886,#1887));
#1877 = ORIENTED_EDGE('',*,*,#1878,.F.);
#1878 = EDGE_CURVE('',#1850,#1879,#1881,.T.);
#1879 = VERTEX_POINT('',#1880);
#1880 = CARTESIAN_POINT('',(-33.7,24.,3.));
#1881 = LINE('',#1882,#1883);
#1882 = CARTESIAN_POINT('',(-47.,-24.,3.));
#1883 = VECTOR('',#1884,1.);
#1884 = DIRECTION('',(0.267022517843,0.963690289961,0.));
#1885 = ORIENTED_EDGE('',*,*,#1864,.T.);
#1886 = ORIENTED_EDGE('',*,*,#443,.F.);
#1887 = ORIENTED_EDGE('',*,*,#1888,.F.);
#1888 = EDGE_CURVE('',#1879,#444,#1889,.T.);
#1889 = LINE('',#1890,#1891);
#1890 = CARTESIAN_POINT('',(-33.7,24.,3.));
#1891 = VECTOR('',#1892,1.);
#1892 = DIRECTION('',(-0.,-0.,-1.));
#1893 = PLANE('',#1894);
#1894 = AXIS2_PLACEMENT_3D('',#1895,#1896,#1897);
#1895 = CARTESIAN_POINT('',(-47.,-24.,3.));
#1896 = DIRECTION('',(0.963690289961,-0.267022517843,0.));
#1897 = DIRECTION('',(0.267022517843,0.963690289961,0.));
#1898 = ADVANCED_FACE('',(#1899),#1910,.F.);
#1899 = FACE_BOUND('',#1900,.F.);
#1900 = EDGE_LOOP('',(#1901,#1907,#1908,#1909));
#1901 = ORIENTED_EDGE('',*,*,#1902,.F.);
#1902 = EDGE_CURVE('',#1879,#1848,#1903,.T.);
#1903 = LINE('',#1904,#1905);
#1904 = CARTESIAN_POINT('',(-33.7,24.,3.));
#1905 = VECTOR('',#1906,1.);
#1906 = DIRECTION('',(-1.,0.,0.));
#1907 = ORIENTED_EDGE('',*,*,#1888,.T.);
#1908 = ORIENTED_EDGE('',*,*,#451,.F.);
#1909 = ORIENTED_EDGE('',*,*,#1857,.F.);
#1910 = PLANE('',#1911);
#1911 = AXIS2_PLACEMENT_3D('',#1912,#1913,#1914);
#1912 = CARTESIAN_POINT('',(-33.7,24.,3.));
#1913 = DIRECTION('',(0.,1.,0.));
#1914 = DIRECTION('',(-1.,0.,0.));
#1915 = ADVANCED_FACE('',(#1916),#1941,.T.);
#1916 = FACE_BOUND('',#1917,.T.);
#1917 = EDGE_LOOP('',(#1918,#1928,#1934,#1935));
#1918 = ORIENTED_EDGE('',*,*,#1919,.F.);
#1919 = EDGE_CURVE('',#1920,#1922,#1924,.T.);
#1920 = VERTEX_POINT('',#1921);
#1921 = CARTESIAN_POINT('',(-28.7,24.,3.));
#1922 = VERTEX_POINT('',#1923);
#1923 = CARTESIAN_POINT('',(-18.725,-12.,3.));
#1924 = LINE('',#1925,#1926);
#1925 = CARTESIAN_POINT('',(-28.7,24.,3.));
#1926 = VECTOR('',#1927,1.);
#1927 = DIRECTION('',(0.267022517843,-0.963690289961,0.));
#1928 = ORIENTED_EDGE('',*,*,#1929,.T.);
#1929 = EDGE_CURVE('',#1920,#462,#1930,.T.);
#1930 = LINE('',#1931,#1932);
#1931 = CARTESIAN_POINT('',(-28.7,24.,3.));
#1932 = VECTOR('',#1933,1.);
#1933 = DIRECTION('',(-0.,-0.,-1.));
#1934 = ORIENTED_EDGE('',*,*,#459,.F.);
#1935 = ORIENTED_EDGE('',*,*,#1936,.F.);
#1936 = EDGE_CURVE('',#1922,#460,#1937,.T.);
#1937 = LINE('',#1938,#1939);
#1938 = CARTESIAN_POINT('',(-18.725,-12.,3.));
#1939 = VECTOR('',#1940,1.);
#1940 = DIRECTION('',(-0.,-0.,-1.));
#1941 = PLANE('',#1942);
#1942 = AXIS2_PLACEMENT_3D('',#1943,#1944,#1945);
#1943 = CARTESIAN_POINT('',(-28.7,24.,3.));
#1944 = DIRECTION('',(-0.963690289961,-0.267022517843,0.));
#1945 = DIRECTION('',(0.267022517843,-0.963690289961,0.));
#1946 = ADVANCED_FACE('',(#1947),#1965,.T.);
#1947 = FACE_BOUND('',#1948,.T.);
#1948 = EDGE_LOOP('',(#1949,#1957,#1963,#1964));
#1949 = ORIENTED_EDGE('',*,*,#1950,.F.);
#1950 = EDGE_CURVE('',#1951,#1920,#1953,.T.);
#1951 = VERTEX_POINT('',#1952);
#1952 = CARTESIAN_POINT('',(-38.675,-12.,3.));
#1953 = LINE('',#1954,#1955);
#1954 = CARTESIAN_POINT('',(-38.675,-12.,3.));
#1955 = VECTOR('',#1956,1.);
#1956 = DIRECTION('',(0.267022517843,0.963690289961,0.));
#1957 = ORIENTED_EDGE('',*,*,#1958,.T.);
#1958 = EDGE_CURVE('',#1951,#470,#1959,.T.);
#1959 = LINE('',#1960,#1961);
#1960 = CARTESIAN_POINT('',(-38.675,-12.,3.));
#1961 = VECTOR('',#1962,1.);
#1962 = DIRECTION('',(-0.,-0.,-1.));
#1963 = ORIENTED_EDGE('',*,*,#469,.F.);
#1964 = ORIENTED_EDGE('',*,*,#1929,.F.);
#1965 = PLANE('',#1966);
#1966 = AXIS2_PLACEMENT_3D('',#1967,#1968,#1969);
#1967 = CARTESIAN_POINT('',(-38.675,-12.,3.));
#1968 = DIRECTION('',(0.963690289961,-0.267022517843,0.));
#1969 = DIRECTION('',(0.267022517843,0.963690289961,0.));
#1970 = ADVANCED_FACE('',(#1971),#1982,.T.);
#1971 = FACE_BOUND('',#1972,.T.);
#1972 = EDGE_LOOP('',(#1973,#1979,#1980,#1981));
#1973 = ORIENTED_EDGE('',*,*,#1974,.F.);
#1974 = EDGE_CURVE('',#1922,#1951,#1975,.T.);
#1975 = LINE('',#1976,#1977);
#1976 = CARTESIAN_POINT('',(-18.725,-12.,3.));
#1977 = VECTOR('',#1978,1.);
#1978 = DIRECTION('',(-1.,0.,0.));
#1979 = ORIENTED_EDGE('',*,*,#1936,.T.);
#1980 = ORIENTED_EDGE('',*,*,#477,.F.);
#1981 = ORIENTED_EDGE('',*,*,#1958,.F.);
#1982 = PLANE('',#1983);
#1983 = AXIS2_PLACEMENT_3D('',#1984,#1985,#1986);
#1984 = CARTESIAN_POINT('',(-18.725,-12.,3.));
#1985 = DIRECTION('',(0.,1.,0.));
#1986 = DIRECTION('',(-1.,0.,0.));
#1987 = ADVANCED_FACE('',(#1988),#2013,.T.);
#1988 = FACE_BOUND('',#1989,.T.);
#1989 = EDGE_LOOP('',(#1990,#2000,#2006,#2007));
#1990 = ORIENTED_EDGE('',*,*,#1991,.F.);
#1991 = EDGE_CURVE('',#1992,#1994,#1996,.T.);
#1992 = VERTEX_POINT('',#1993);
#1993 = CARTESIAN_POINT('',(-40.61458333333,-19.,3.));
#1994 = VERTEX_POINT('',#1995);
#1995 = CARTESIAN_POINT('',(-16.78541666666,-19.,3.));
#1996 = LINE('',#1997,#1998);
#1997 = CARTESIAN_POINT('',(-40.61458333333,-19.,3.));
#1998 = VECTOR('',#1999,1.);
#1999 = DIRECTION('',(1.,0.,0.));
#2000 = ORIENTED_EDGE('',*,*,#2001,.T.);
#2001 = EDGE_CURVE('',#1992,#488,#2002,.T.);
#2002 = LINE('',#2003,#2004);
#2003 = CARTESIAN_POINT('',(-40.61458333333,-19.,3.));
#2004 = VECTOR('',#2005,1.);
#2005 = DIRECTION('',(-0.,-0.,-1.));
#2006 = ORIENTED_EDGE('',*,*,#485,.F.);
#2007 = ORIENTED_EDGE('',*,*,#2008,.F.);
#2008 = EDGE_CURVE('',#1994,#486,#2009,.T.);
#2009 = LINE('',#2010,#2011);
#2010 = CARTESIAN_POINT('',(-16.78541666666,-19.,3.));
#2011 = VECTOR('',#2012,1.);
#2012 = DIRECTION('',(-0.,-0.,-1.));
#2013 = PLANE('',#2014);
#2014 = AXIS2_PLACEMENT_3D('',#2015,#2016,#2017);
#2015 = CARTESIAN_POINT('',(-40.61458333333,-19.,3.));
#2016 = DIRECTION('',(0.,-1.,0.));
#2017 = DIRECTION('',(1.,0.,0.));
#2018 = ADVANCED_FACE('',(#2019),#2037,.T.);
#2019 = FACE_BOUND('',#2020,.T.);
#2020 = EDGE_LOOP('',(#2021,#2029,#2035,#2036));
#2021 = ORIENTED_EDGE('',*,*,#2022,.F.);
#2022 = EDGE_CURVE('',#2023,#1992,#2025,.T.);
#2023 = VERTEX_POINT('',#2024);
#2024 = CARTESIAN_POINT('',(-42.,-24.,3.));
#2025 = LINE('',#2026,#2027);
#2026 = CARTESIAN_POINT('',(-42.,-24.,3.));
#2027 = VECTOR('',#2028,1.);
#2028 = DIRECTION('',(0.267022517843,0.963690289961,0.));
#2029 = ORIENTED_EDGE('',*,*,#2030,.T.);
#2030 = EDGE_CURVE('',#2023,#496,#2031,.T.);
#2031 = LINE('',#2032,#2033);
#2032 = CARTESIAN_POINT('',(-42.,-24.,3.));
#2033 = VECTOR('',#2034,1.);
#2034 = DIRECTION('',(-0.,-0.,-1.));
#2035 = ORIENTED_EDGE('',*,*,#495,.F.);
#2036 = ORIENTED_EDGE('',*,*,#2001,.F.);
#2037 = PLANE('',#2038);
#2038 = AXIS2_PLACEMENT_3D('',#2039,#2040,#2041);
#2039 = CARTESIAN_POINT('',(-42.,-24.,3.));
#2040 = DIRECTION('',(0.963690289961,-0.267022517843,0.));
#2041 = DIRECTION('',(0.267022517843,0.963690289961,0.));
#2042 = ADVANCED_FACE('',(#2043),#2061,.T.);
#2043 = FACE_BOUND('',#2044,.T.);
#2044 = EDGE_LOOP('',(#2045,#2053,#2059,#2060));
#2045 = ORIENTED_EDGE('',*,*,#2046,.F.);
#2046 = EDGE_CURVE('',#2047,#2023,#2049,.T.);
#2047 = VERTEX_POINT('',#2048);
#2048 = CARTESIAN_POINT('',(-15.4,-24.,3.));
#2049 = LINE('',#2050,#2051);
#2050 = CARTESIAN_POINT('',(-15.4,-24.,3.));
#2051 = VECTOR('',#2052,1.);
#2052 = DIRECTION('',(-1.,0.,0.));
#2053 = ORIENTED_EDGE('',*,*,#2054,.T.);
#2054 = EDGE_CURVE('',#2047,#504,#2055,.T.);
#2055 = LINE('',#2056,#2057);
#2056 = CARTESIAN_POINT('',(-15.4,-24.,3.));
#2057 = VECTOR('',#2058,1.);
#2058 = DIRECTION('',(-0.,-0.,-1.));
#2059 = ORIENTED_EDGE('',*,*,#503,.F.);
#2060 = ORIENTED_EDGE('',*,*,#2030,.F.);
#2061 = PLANE('',#2062);
#2062 = AXIS2_PLACEMENT_3D('',#2063,#2064,#2065);
#2063 = CARTESIAN_POINT('',(-15.4,-24.,3.));
#2064 = DIRECTION('',(0.,1.,0.));
#2065 = DIRECTION('',(-1.,0.,0.));
#2066 = ADVANCED_FACE('',(#2067),#2078,.T.);
#2067 = FACE_BOUND('',#2068,.T.);
#2068 = EDGE_LOOP('',(#2069,#2075,#2076,#2077));
#2069 = ORIENTED_EDGE('',*,*,#2070,.F.);
#2070 = EDGE_CURVE('',#1994,#2047,#2071,.T.);
#2071 = LINE('',#2072,#2073);
#2072 = CARTESIAN_POINT('',(-16.78541666666,-19.,3.));
#2073 = VECTOR('',#2074,1.);
#2074 = DIRECTION('',(0.267022517843,-0.963690289961,0.));
#2075 = ORIENTED_EDGE('',*,*,#2008,.T.);
#2076 = ORIENTED_EDGE('',*,*,#511,.F.);
#2077 = ORIENTED_EDGE('',*,*,#2054,.F.);
#2078 = PLANE('',#2079);
#2079 = AXIS2_PLACEMENT_3D('',#2080,#2081,#2082);
#2080 = CARTESIAN_POINT('',(-16.78541666666,-19.,3.));
#2081 = DIRECTION('',(-0.963690289961,-0.267022517843,0.));
#2082 = DIRECTION('',(0.267022517843,-0.963690289961,0.));
#2083 = ADVANCED_FACE('',(#2084),#2103,.F.);
#2084 = FACE_BOUND('',#2085,.F.);
#2085 = EDGE_LOOP('',(#2086,#2095,#2101,#2102));
#2086 = ORIENTED_EDGE('',*,*,#2087,.F.);
#2087 = EDGE_CURVE('',#2088,#2088,#2090,.T.);
#2088 = VERTEX_POINT('',#2089);
#2089 = CARTESIAN_POINT('',(-19.8,-15.5,3.));
#2090 = CIRCLE('',#2091,1.4);
#2091 = AXIS2_PLACEMENT_3D('',#2092,#2093,#2094);
#2092 = CARTESIAN_POINT('',(-21.2,-15.5,3.));
#2093 = DIRECTION('',(0.,0.,1.));
#2094 = DIRECTION('',(1.,0.,0.));
#2095 = ORIENTED_EDGE('',*,*,#2096,.T.);
#2096 = EDGE_CURVE('',#2088,#520,#2097,.T.);
#2097 = LINE('',#2098,#2099);
#2098 = CARTESIAN_POINT('',(-19.8,-15.5,3.));
#2099 = VECTOR('',#2100,1.);
#2100 = DIRECTION('',(-0.,-0.,-1.));
#2101 = ORIENTED_EDGE('',*,*,#519,.T.);
#2102 = ORIENTED_EDGE('',*,*,#2096,.F.);
#2103 = CYLINDRICAL_SURFACE('',#2104,1.4);
#2104 = AXIS2_PLACEMENT_3D('',#2105,#2106,#2107);
#2105 = CARTESIAN_POINT('',(-21.2,-15.5,3.));
#2106 = DIRECTION('',(0.,0.,1.));
#2107 = DIRECTION('',(1.,0.,0.));
#2108 = ADVANCED_FACE('',(#2109),#2128,.F.);
#2109 = FACE_BOUND('',#2110,.F.);
#2110 = EDGE_LOOP('',(#2111,#2120,#2126,#2127));
#2111 = ORIENTED_EDGE('',*,*,#2112,.F.);
#2112 = EDGE_CURVE('',#2113,#2113,#2115,.T.);
#2113 = VERTEX_POINT('',#2114);
#2114 = CARTESIAN_POINT('',(-34.8,-15.5,3.));
#2115 = CIRCLE('',#2116,1.4);
#2116 = AXIS2_PLACEMENT_3D('',#2117,#2118,#2119);
#2117 = CARTESIAN_POINT('',(-36.2,-15.5,3.));
#2118 = DIRECTION('',(0.,0.,1.));
#2119 = DIRECTION('',(1.,0.,0.));
#2120 = ORIENTED_EDGE('',*,*,#2121,.T.);
#2121 = EDGE_CURVE('',#2113,#531,#2122,.T.);
#2122 = LINE('',#2123,#2124);
#2123 = CARTESIAN_POINT('',(-34.8,-15.5,3.));
#2124 = VECTOR('',#2125,1.);
#2125 = DIRECTION('',(-0.,-0.,-1.));
#2126 = ORIENTED_EDGE('',*,*,#530,.T.);
#2127 = ORIENTED_EDGE('',*,*,#2121,.F.);
#2128 = CYLINDRICAL_SURFACE('',#2129,1.4);
#2129 = AXIS2_PLACEMENT_3D('',#2130,#2131,#2132);
#2130 = CARTESIAN_POINT('',(-36.2,-15.5,3.));
#2131 = DIRECTION('',(0.,0.,1.));
#2132 = DIRECTION('',(1.,0.,0.));
#2133 = ADVANCED_FACE('',(#2134),#2153,.T.);
#2134 = FACE_BOUND('',#2135,.T.);
#2135 = EDGE_LOOP('',(#2136,#2144,#2145,#2146,#2147));
#2136 = ORIENTED_EDGE('',*,*,#2137,.T.);
#2137 = EDGE_CURVE('',#2138,#579,#2140,.T.);
#2138 = VERTEX_POINT('',#2139);
#2139 = CARTESIAN_POINT('',(49.5,29.,8.));
#2140 = LINE('',#2141,#2142);
#2141 = CARTESIAN_POINT('',(49.5,29.,8.));
#2142 = VECTOR('',#2143,1.);
#2143 = DIRECTION('',(0.,1.,0.));
#2144 = ORIENTED_EDGE('',*,*,#578,.F.);
#2145 = ORIENTED_EDGE('',*,*,#547,.T.);
#2146 = ORIENTED_EDGE('',*,*,#622,.F.);
#2147 = ORIENTED_EDGE('',*,*,#2148,.F.);
#2148 = EDGE_CURVE('',#2138,#615,#2149,.T.);
#2149 = LINE('',#2150,#2151);
#2150 = CARTESIAN_POINT('',(46.509461617065,29.,5.951686039085));
#2151 = VECTOR('',#2152,1.);
#2152 = DIRECTION('',(-0.825029948326,-0.,-0.565089005702));
#2153 = PLANE('',#2154);
#2154 = AXIS2_PLACEMENT_3D('',#2155,#2156,#2157);
#2155 = CARTESIAN_POINT('',(45.85,29.,5.5));
#2156 = DIRECTION('',(-0.565089005702,0.,0.825029948326));
#2157 = DIRECTION('',(0.,1.,0.));
#2158 = ADVANCED_FACE('',(#2159),#2179,.T.);
#2159 = FACE_BOUND('',#2160,.T.);
#2160 = EDGE_LOOP('',(#2161,#2162,#2170,#2176,#2177,#2178));
#2161 = ORIENTED_EDGE('',*,*,#2137,.F.);
#2162 = ORIENTED_EDGE('',*,*,#2163,.F.);
#2163 = EDGE_CURVE('',#2164,#2138,#2166,.T.);
#2164 = VERTEX_POINT('',#2165);
#2165 = CARTESIAN_POINT('',(49.5,-29.,8.));
#2166 = LINE('',#2167,#2168);
#2167 = CARTESIAN_POINT('',(49.5,-29.,8.));
#2168 = VECTOR('',#2169,1.);
#2169 = DIRECTION('',(0.,1.,0.));
#2170 = ORIENTED_EDGE('',*,*,#2171,.F.);
#2171 = EDGE_CURVE('',#685,#2164,#2172,.T.);
#2172 = LINE('',#2173,#2174);
#2173 = CARTESIAN_POINT('',(49.5,-32.,8.));
#2174 = VECTOR('',#2175,1.);
#2175 = DIRECTION('',(0.,1.,0.));
#2176 = ORIENTED_EDGE('',*,*,#684,.F.);
#2177 = ORIENTED_EDGE('',*,*,#636,.F.);
#2178 = ORIENTED_EDGE('',*,*,#597,.F.);
#2179 = PLANE('',#2180);
#2180 = AXIS2_PLACEMENT_3D('',#2181,#2182,#2183);
#2181 = CARTESIAN_POINT('',(49.59784217016,-7.E-16,8.));
#2182 = DIRECTION('',(0.,0.,1.));
#2183 = DIRECTION('',(1.,0.,0.));
#2184 = ADVANCED_FACE('',(#2185,#2243,#2248,#2253,#2258,#2263,#2268,
    #2273,#2279,#2282),#2285,.T.);
#2185 = FACE_BOUND('',#2186,.T.);
#2186 = EDGE_LOOP('',(#2187,#2193,#2194,#2195,#2196,#2197,#2198,#2199,
    #2200,#2201,#2202,#2203,#2204,#2205,#2206,#2207,#2215,#2223,#2229,
    #2230,#2231,#2232,#2233,#2234,#2235,#2236,#2237,#2238,#2239,#2240,
    #2241,#2242));
#2187 = ORIENTED_EDGE('',*,*,#2188,.T.);
#2188 = EDGE_CURVE('',#1297,#1521,#2189,.T.);
#2189 = LINE('',#2190,#2191);
#2190 = CARTESIAN_POINT('',(-52.,5.,3.));
#2191 = VECTOR('',#2192,1.);
#2192 = DIRECTION('',(0.,-1.,0.));
#2193 = ORIENTED_EDGE('',*,*,#1542,.T.);
#2194 = ORIENTED_EDGE('',*,*,#1462,.T.);
#2195 = ORIENTED_EDGE('',*,*,#1414,.T.);
#2196 = ORIENTED_EDGE('',*,*,#1326,.T.);
#2197 = ORIENTED_EDGE('',*,*,#1278,.T.);
#2198 = ORIENTED_EDGE('',*,*,#1230,.T.);
#2199 = ORIENTED_EDGE('',*,*,#1182,.T.);
#2200 = ORIENTED_EDGE('',*,*,#1134,.T.);
#2201 = ORIENTED_EDGE('',*,*,#1086,.T.);
#2202 = ORIENTED_EDGE('',*,*,#1038,.T.);
#2203 = ORIENTED_EDGE('',*,*,#990,.T.);
#2204 = ORIENTED_EDGE('',*,*,#942,.T.);
#2205 = ORIENTED_EDGE('',*,*,#894,.T.);
#2206 = ORIENTED_EDGE('',*,*,#846,.T.);
#2207 = ORIENTED_EDGE('',*,*,#2208,.T.);
#2208 = EDGE_CURVE('',#792,#2209,#2211,.T.);
#2209 = VERTEX_POINT('',#2210);
#2210 = CARTESIAN_POINT('',(49.5,-29.,3.));
#2211 = LINE('',#2212,#2213);
#2212 = CARTESIAN_POINT('',(42.2,-29.,3.));
#2213 = VECTOR('',#2214,1.);
#2214 = DIRECTION('',(1.,0.,0.));
#2215 = ORIENTED_EDGE('',*,*,#2216,.T.);
#2216 = EDGE_CURVE('',#2209,#2217,#2219,.T.);
#2217 = VERTEX_POINT('',#2218);
#2218 = CARTESIAN_POINT('',(49.5,29.,3.));
#2219 = LINE('',#2220,#2221);
#2220 = CARTESIAN_POINT('',(49.5,-29.,3.));
#2221 = VECTOR('',#2222,1.);
#2222 = DIRECTION('',(0.,1.,0.));
#2223 = ORIENTED_EDGE('',*,*,#2224,.T.);
#2224 = EDGE_CURVE('',#2217,#615,#2225,.T.);
#2225 = LINE('',#2226,#2227);
#2226 = CARTESIAN_POINT('',(49.5,29.,3.));
#2227 = VECTOR('',#2228,1.);
#2228 = DIRECTION('',(-1.,0.,0.));
#2229 = ORIENTED_EDGE('',*,*,#668,.F.);
#2230 = ORIENTED_EDGE('',*,*,#726,.F.);
#2231 = ORIENTED_EDGE('',*,*,#774,.F.);
#2232 = ORIENTED_EDGE('',*,*,#822,.F.);
#2233 = ORIENTED_EDGE('',*,*,#870,.F.);
#2234 = ORIENTED_EDGE('',*,*,#918,.F.);
#2235 = ORIENTED_EDGE('',*,*,#966,.F.);
#2236 = ORIENTED_EDGE('',*,*,#1014,.F.);
#2237 = ORIENTED_EDGE('',*,*,#1062,.F.);
#2238 = ORIENTED_EDGE('',*,*,#1110,.F.);
#2239 = ORIENTED_EDGE('',*,*,#1158,.F.);
#2240 = ORIENTED_EDGE('',*,*,#1206,.F.);
#2241 = ORIENTED_EDGE('',*,*,#1254,.F.);
#2242 = ORIENTED_EDGE('',*,*,#1304,.T.);
#2243 = FACE_BOUND('',#2244,.T.);
#2244 = EDGE_LOOP('',(#2245,#2246,#2247));
#2245 = ORIENTED_EDGE('',*,*,#1614,.T.);
#2246 = ORIENTED_EDGE('',*,*,#1590,.T.);
#2247 = ORIENTED_EDGE('',*,*,#1559,.T.);
#2248 = FACE_BOUND('',#2249,.T.);
#2249 = EDGE_LOOP('',(#2250,#2251,#2252));
#2250 = ORIENTED_EDGE('',*,*,#1686,.T.);
#2251 = ORIENTED_EDGE('',*,*,#1662,.T.);
#2252 = ORIENTED_EDGE('',*,*,#1631,.T.);
#2253 = FACE_BOUND('',#2254,.T.);
#2254 = EDGE_LOOP('',(#2255,#2256,#2257));
#2255 = ORIENTED_EDGE('',*,*,#1758,.T.);
#2256 = ORIENTED_EDGE('',*,*,#1734,.T.);
#2257 = ORIENTED_EDGE('',*,*,#1703,.T.);
#2258 = FACE_BOUND('',#2259,.T.);
#2259 = EDGE_LOOP('',(#2260,#2261,#2262));
#2260 = ORIENTED_EDGE('',*,*,#1775,.F.);
#2261 = ORIENTED_EDGE('',*,*,#1830,.T.);
#2262 = ORIENTED_EDGE('',*,*,#1806,.T.);
#2263 = FACE_BOUND('',#2264,.T.);
#2264 = EDGE_LOOP('',(#2265,#2266,#2267));
#2265 = ORIENTED_EDGE('',*,*,#1847,.F.);
#2266 = ORIENTED_EDGE('',*,*,#1902,.F.);
#2267 = ORIENTED_EDGE('',*,*,#1878,.F.);
#2268 = FACE_BOUND('',#2269,.T.);
#2269 = EDGE_LOOP('',(#2270,#2271,#2272));
#2270 = ORIENTED_EDGE('',*,*,#1974,.T.);
#2271 = ORIENTED_EDGE('',*,*,#1950,.T.);
#2272 = ORIENTED_EDGE('',*,*,#1919,.T.);
#2273 = FACE_BOUND('',#2274,.T.);
#2274 = EDGE_LOOP('',(#2275,#2276,#2277,#2278));
#2275 = ORIENTED_EDGE('',*,*,#2046,.T.);
#2276 = ORIENTED_EDGE('',*,*,#2022,.T.);
#2277 = ORIENTED_EDGE('',*,*,#1991,.T.);
#2278 = ORIENTED_EDGE('',*,*,#2070,.T.);
#2279 = FACE_BOUND('',#2280,.T.);
#2280 = EDGE_LOOP('',(#2281));
#2281 = ORIENTED_EDGE('',*,*,#2087,.F.);
#2282 = FACE_BOUND('',#2283,.T.);
#2283 = EDGE_LOOP('',(#2284));
#2284 = ORIENTED_EDGE('',*,*,#2112,.F.);
#2285 = PLANE('',#2286);
#2286 = AXIS2_PLACEMENT_3D('',#2287,#2288,#2289);
#2287 = CARTESIAN_POINT('',(-1.943277310924,0.,3.));
#2288 = DIRECTION('',(0.,0.,1.));
#2289 = DIRECTION('',(1.,0.,0.));
#2290 = ADVANCED_FACE('',(#2291),#2303,.T.);
#2291 = FACE_BOUND('',#2292,.T.);
#2292 = EDGE_LOOP('',(#2293,#2294,#2295,#2296,#2302));
#2293 = ORIENTED_EDGE('',*,*,#742,.F.);
#2294 = ORIENTED_EDGE('',*,*,#703,.F.);
#2295 = ORIENTED_EDGE('',*,*,#2171,.T.);
#2296 = ORIENTED_EDGE('',*,*,#2297,.T.);
#2297 = EDGE_CURVE('',#2164,#792,#2298,.T.);
#2298 = LINE('',#2299,#2300);
#2299 = CARTESIAN_POINT('',(44.025,-29.,4.25));
#2300 = VECTOR('',#2301,1.);
#2301 = DIRECTION('',(-0.825029948326,0.,-0.565089005702));
#2302 = ORIENTED_EDGE('',*,*,#791,.F.);
#2303 = PLANE('',#2304);
#2304 = AXIS2_PLACEMENT_3D('',#2305,#2306,#2307);
#2305 = CARTESIAN_POINT('',(45.85,-32.,5.5));
#2306 = DIRECTION('',(-0.565089005702,0.,0.825029948326));
#2307 = DIRECTION('',(0.,1.,0.));
#2308 = ADVANCED_FACE('',(#2309),#2325,.F.);
#2309 = FACE_BOUND('',#2310,.F.);
#2310 = EDGE_LOOP('',(#2311,#2312,#2318,#2319));
#2311 = ORIENTED_EDGE('',*,*,#1342,.T.);
#2312 = ORIENTED_EDGE('',*,*,#2313,.T.);
#2313 = EDGE_CURVE('',#1345,#1481,#2314,.T.);
#2314 = LINE('',#2315,#2316);
#2315 = CARTESIAN_POINT('',(-53.,5.,1.6));
#2316 = VECTOR('',#2317,1.);
#2317 = DIRECTION('',(0.,-1.,0.));
#2318 = ORIENTED_EDGE('',*,*,#1478,.F.);
#2319 = ORIENTED_EDGE('',*,*,#2320,.F.);
#2320 = EDGE_CURVE('',#1343,#1479,#2321,.T.);
#2321 = LINE('',#2322,#2323);
#2322 = CARTESIAN_POINT('',(-53.,5.,1.5));
#2323 = VECTOR('',#2324,1.);
#2324 = DIRECTION('',(0.,-1.,0.));
#2325 = PLANE('',#2326);
#2326 = AXIS2_PLACEMENT_3D('',#2327,#2328,#2329);
#2327 = CARTESIAN_POINT('',(-53.,5.,1.5));
#2328 = DIRECTION('',(1.,0.,0.));
#2329 = DIRECTION('',(0.,-1.,0.));
#2330 = ADVANCED_FACE('',(#2331),#2337,.F.);
#2331 = FACE_BOUND('',#2332,.T.);
#2332 = EDGE_LOOP('',(#2333,#2334,#2335,#2336));
#2333 = ORIENTED_EDGE('',*,*,#1352,.F.);
#2334 = ORIENTED_EDGE('',*,*,#2313,.T.);
#2335 = ORIENTED_EDGE('',*,*,#1528,.T.);
#2336 = ORIENTED_EDGE('',*,*,#2188,.F.);
#2337 = PLANE('',#2338);
#2338 = AXIS2_PLACEMENT_3D('',#2339,#2340,#2341);
#2339 = CARTESIAN_POINT('',(-52.5,5.,2.3));
#2340 = DIRECTION('',(0.813733471207,0.,-0.581238193719));
#2341 = DIRECTION('',(0.,1.,0.));
#2342 = ADVANCED_FACE('',(#2343),#2354,.F.);
#2343 = FACE_BOUND('',#2344,.F.);
#2344 = EDGE_LOOP('',(#2345,#2346,#2347,#2353));
#2345 = ORIENTED_EDGE('',*,*,#2320,.T.);
#2346 = ORIENTED_EDGE('',*,*,#1488,.T.);
#2347 = ORIENTED_EDGE('',*,*,#2348,.T.);
#2348 = EDGE_CURVE('',#1489,#1385,#2349,.T.);
#2349 = LINE('',#2350,#2351);
#2350 = CARTESIAN_POINT('',(-59.2,-5.,1.5));
#2351 = VECTOR('',#2352,1.);
#2352 = DIRECTION('',(0.,1.,0.));
#2353 = ORIENTED_EDGE('',*,*,#1392,.F.);
#2354 = PLANE('',#2355);
#2355 = AXIS2_PLACEMENT_3D('',#2356,#2357,#2358);
#2356 = CARTESIAN_POINT('',(-52.,-5.,1.5));
#2357 = DIRECTION('',(0.,0.,-1.));
#2358 = DIRECTION('',(0.,1.,0.));
#2359 = ADVANCED_FACE('',(#2360),#2371,.F.);
#2360 = FACE_BOUND('',#2361,.F.);
#2361 = EDGE_LOOP('',(#2362,#2363,#2369,#2370));
#2362 = ORIENTED_EDGE('',*,*,#1496,.T.);
#2363 = ORIENTED_EDGE('',*,*,#2364,.T.);
#2364 = EDGE_CURVE('',#1497,#1377,#2365,.T.);
#2365 = LINE('',#2366,#2367);
#2366 = CARTESIAN_POINT('',(-59.2,-5.,6.5));
#2367 = VECTOR('',#2368,1.);
#2368 = DIRECTION('',(0.,1.,0.));
#2369 = ORIENTED_EDGE('',*,*,#1384,.F.);
#2370 = ORIENTED_EDGE('',*,*,#2348,.F.);
#2371 = PLANE('',#2372);
#2372 = AXIS2_PLACEMENT_3D('',#2373,#2374,#2375);
#2373 = CARTESIAN_POINT('',(-59.2,-5.,1.5));
#2374 = DIRECTION('',(-1.,0.,0.));
#2375 = DIRECTION('',(0.,1.,0.));
#2376 = ADVANCED_FACE('',(#2377),#2388,.T.);
#2377 = FACE_BOUND('',#2378,.T.);
#2378 = EDGE_LOOP('',(#2379,#2380,#2381,#2382));
#2379 = ORIENTED_EDGE('',*,*,#1504,.T.);
#2380 = ORIENTED_EDGE('',*,*,#2364,.T.);
#2381 = ORIENTED_EDGE('',*,*,#1376,.T.);
#2382 = ORIENTED_EDGE('',*,*,#2383,.T.);
#2383 = EDGE_CURVE('',#1369,#1505,#2384,.T.);
#2384 = LINE('',#2385,#2386);
#2385 = CARTESIAN_POINT('',(-59.6,5.,6.5));
#2386 = VECTOR('',#2387,1.);
#2387 = DIRECTION('',(0.,-1.,0.));
#2388 = PLANE('',#2389);
#2389 = AXIS2_PLACEMENT_3D('',#2390,#2391,#2392);
#2390 = CARTESIAN_POINT('',(-60.6,0.,6.5));
#2391 = DIRECTION('',(0.,0.,1.));
#2392 = DIRECTION('',(1.,0.,0.));
#2393 = ADVANCED_FACE('',(#2394),#2400,.T.);
#2394 = FACE_BOUND('',#2395,.F.);
#2395 = EDGE_LOOP('',(#2396,#2397,#2398,#2399));
#2396 = ORIENTED_EDGE('',*,*,#1368,.F.);
#2397 = ORIENTED_EDGE('',*,*,#2383,.T.);
#2398 = ORIENTED_EDGE('',*,*,#1512,.T.);
#2399 = ORIENTED_EDGE('',*,*,#1438,.F.);
#2400 = PLANE('',#2401);
#2401 = AXIS2_PLACEMENT_3D('',#2402,#2403,#2404);
#2402 = CARTESIAN_POINT('',(-60.8,5.,5.3));
#2403 = DIRECTION('',(-0.707106781187,0.,0.707106781187));
#2404 = DIRECTION('',(0.,1.,0.));
#2405 = ADVANCED_FACE('',(#2406),#2416,.T.);
#2406 = FACE_BOUND('',#2407,.T.);
#2407 = EDGE_LOOP('',(#2408,#2409,#2410));
#2408 = ORIENTED_EDGE('',*,*,#2148,.T.);
#2409 = ORIENTED_EDGE('',*,*,#2224,.F.);
#2410 = ORIENTED_EDGE('',*,*,#2411,.T.);
#2411 = EDGE_CURVE('',#2217,#2138,#2412,.T.);
#2412 = LINE('',#2413,#2414);
#2413 = CARTESIAN_POINT('',(49.5,29.,3.));
#2414 = VECTOR('',#2415,1.);
#2415 = DIRECTION('',(0.,0.,1.));
#2416 = PLANE('',#2417);
#2417 = AXIS2_PLACEMENT_3D('',#2418,#2419,#2420);
#2418 = CARTESIAN_POINT('',(49.5,29.,3.));
#2419 = DIRECTION('',(0.,-1.,0.));
#2420 = DIRECTION('',(-1.,0.,0.));
#2421 = ADVANCED_FACE('',(#2422),#2433,.T.);
#2422 = FACE_BOUND('',#2423,.T.);
#2423 = EDGE_LOOP('',(#2424,#2430,#2431,#2432));
#2424 = ORIENTED_EDGE('',*,*,#2425,.T.);
#2425 = EDGE_CURVE('',#2209,#2164,#2426,.T.);
#2426 = LINE('',#2427,#2428);
#2427 = CARTESIAN_POINT('',(49.5,-29.,3.));
#2428 = VECTOR('',#2429,1.);
#2429 = DIRECTION('',(0.,0.,1.));
#2430 = ORIENTED_EDGE('',*,*,#2163,.T.);
#2431 = ORIENTED_EDGE('',*,*,#2411,.F.);
#2432 = ORIENTED_EDGE('',*,*,#2216,.F.);
#2433 = PLANE('',#2434);
#2434 = AXIS2_PLACEMENT_3D('',#2435,#2436,#2437);
#2435 = CARTESIAN_POINT('',(49.5,-29.,3.));
#2436 = DIRECTION('',(-1.,0.,0.));
#2437 = DIRECTION('',(0.,1.,0.));
#2438 = ADVANCED_FACE('',(#2439),#2444,.T.);
#2439 = FACE_BOUND('',#2440,.T.);
#2440 = EDGE_LOOP('',(#2441,#2442,#2443));
#2441 = ORIENTED_EDGE('',*,*,#2297,.F.);
#2442 = ORIENTED_EDGE('',*,*,#2425,.F.);
#2443 = ORIENTED_EDGE('',*,*,#2208,.F.);
#2444 = PLANE('',#2445);
#2445 = AXIS2_PLACEMENT_3D('',#2446,#2447,#2448);
#2446 = CARTESIAN_POINT('',(42.2,-29.,3.));
#2447 = DIRECTION('',(0.,1.,0.));
#2448 = DIRECTION('',(1.,0.,0.));
#2449 = ( GEOMETRIC_REPRESENTATION_CONTEXT(3) 
GLOBAL_UNCERTAINTY_ASSIGNED_CONTEXT((#2453)) 
GLOBAL_UNIT_ASSIGNED_CONTEXT((#2450,#2451,#2452)) REPRESENTATION_CONTEXT
('Context #1','3D Context with UNIT and UNCERTAINTY') );
#2450 = ( LENGTH_UNIT() NAMED_UNIT(*) SI_UNIT(.MILLI.,.METRE.) );
#2451 = ( NAMED_UNIT(*) PLANE_ANGLE_UNIT() SI_UNIT($,.RADIAN.) );
#2452 = ( NAMED_UNIT(*) SI_UNIT($,.STERADIAN.) SOLID_ANGLE_UNIT() );
#2453 = UNCERTAINTY_MEASURE_WITH_UNIT(LENGTH_MEASURE(1.E-05),#2450,
  'distance_accuracy_value','confusion accuracy');
#2454 = PRODUCT_RELATED_PRODUCT_CATEGORY('part',$,(#7));
#2455 = MECHANICAL_DESIGN_GEOMETRIC_PRESENTATION_REPRESENTATION('',(
    #2456),#2449);
#2456 = STYLED_ITEM('color',(#2457),#15);
#2457 = PRESENTATION_STYLE_ASSIGNMENT((#2458,#2464));
#2458 = SURFACE_STYLE_USAGE(.BOTH.,#2459);
#2459 = SURFACE_SIDE_STYLE('',(#2460));
#2460 = SURFACE_STYLE_FILL_AREA(#2461);
#2461 = FILL_AREA_STYLE('',(#2462));
#2462 = FILL_AREA_STYLE_COLOUR('',#2463);
#2463 = COLOUR_RGB('',0.447058818107,0.474509808674,0.501960817233);
#2464 = CURVE_STYLE('',#2465,POSITIVE_LENGTH_MEASURE(0.1),#2466);
#2465 = DRAUGHTING_PRE_DEFINED_CURVE_FONT('continuous');
#2466 = COLOUR_RGB('',9.803921802644E-02,9.803921802644E-02,
  9.803921802644E-02);
ENDSEC;
END-ISO-10303-21;
