ISO-10303-21;
HEADER;
FILE_DESCRIPTION(('FreeCAD Model'),'2;1');
FILE_NAME('Open CASCADE Shape Model','2026-02-22T22:45:19',(''),(''),
  'Open CASCADE STEP processor 7.8','FreeCAD','Unknown');
FILE_SCHEMA(('AUTOMOTIVE_DESIGN { 1 0 10303 214 1 1 1 1 }'));
ENDSEC;
DATA;
#1 = APPLICATION_PROTOCOL_DEFINITION('international standard',
  'automotive_design',2000,#2);
#2 = APPLICATION_CONTEXT(
  'core data for automotive mechanical design processes');
#3 = SHAPE_DEFINITION_REPRESENTATION(#4,#10);
#4 = PRODUCT_DEFINITION_SHAPE('','',#5);
#5 = PRODUCT_DEFINITION('design','',#6,#9);
#6 = PRODUCT_DEFINITION_FORMATION('','',#7);
#7 = PRODUCT('Body','Body','',(#8));
#8 = PRODUCT_CONTEXT('',#2,'mechanical');
#9 = PRODUCT_DEFINITION_CONTEXT('part definition',#2,'design');
#10 = ADVANCED_BREP_SHAPE_REPRESENTATION('',(#11,#15),#1621);
#11 = AXIS2_PLACEMENT_3D('',#12,#13,#14);
#12 = CARTESIAN_POINT('',(0.,0.,0.));
#13 = DIRECTION('',(0.,0.,1.));
#14 = DIRECTION('',(1.,0.,-0.));
#15 = MANIFOLD_SOLID_BREP('',#16);
#16 = CLOSED_SHELL('',(#17,#57,#115,#173,#279,#471,#731,#771,#788,#813,
    #837,#870,#895,#912,#978,#995,#1012,#1029,#1046,#1063,#1080,#1100,
    #1128,#1140,#1164,#1224,#1241,#1258,#1286,#1301,#1335,#1367,#1384,
    #1401,#1543,#1560,#1577,#1587,#1604));
#17 = ADVANCED_FACE('',(#18),#52,.T.);
#18 = FACE_BOUND('',#19,.T.);
#19 = EDGE_LOOP('',(#20,#30,#38,#46));
#20 = ORIENTED_EDGE('',*,*,#21,.T.);
#21 = EDGE_CURVE('',#22,#24,#26,.T.);
#22 = VERTEX_POINT('',#23);
#23 = CARTESIAN_POINT('',(36.,47.,0.));
#24 = VERTEX_POINT('',#25);
#25 = CARTESIAN_POINT('',(36.,47.,3.));
#26 = LINE('',#27,#28);
#27 = CARTESIAN_POINT('',(36.,47.,0.));
#28 = VECTOR('',#29,1.);
#29 = DIRECTION('',(0.,0.,1.));
#30 = ORIENTED_EDGE('',*,*,#31,.T.);
#31 = EDGE_CURVE('',#24,#32,#34,.T.);
#32 = VERTEX_POINT('',#33);
#33 = CARTESIAN_POINT('',(36.,-47.,3.));
#34 = LINE('',#35,#36);
#35 = CARTESIAN_POINT('',(36.,47.,3.));
#36 = VECTOR('',#37,1.);
#37 = DIRECTION('',(0.,-1.,0.));
#38 = ORIENTED_EDGE('',*,*,#39,.F.);
#39 = EDGE_CURVE('',#40,#32,#42,.T.);
#40 = VERTEX_POINT('',#41);
#41 = CARTESIAN_POINT('',(36.,-47.,0.));
#42 = LINE('',#43,#44);
#43 = CARTESIAN_POINT('',(36.,-47.,0.));
#44 = VECTOR('',#45,1.);
#45 = DIRECTION('',(0.,0.,1.));
#46 = ORIENTED_EDGE('',*,*,#47,.F.);
#47 = EDGE_CURVE('',#22,#40,#48,.T.);
#48 = LINE('',#49,#50);
#49 = CARTESIAN_POINT('',(36.,47.,0.));
#50 = VECTOR('',#51,1.);
#51 = DIRECTION('',(0.,-1.,0.));
#52 = PLANE('',#53);
#53 = AXIS2_PLACEMENT_3D('',#54,#55,#56);
#54 = CARTESIAN_POINT('',(36.,47.,0.));
#55 = DIRECTION('',(1.,0.,0.));
#56 = DIRECTION('',(0.,-1.,0.));
#57 = ADVANCED_FACE('',(#58,#99),#110,.T.);
#58 = FACE_BOUND('',#59,.T.);
#59 = EDGE_LOOP('',(#60,#70,#78,#86,#92,#93));
#60 = ORIENTED_EDGE('',*,*,#61,.T.);
#61 = EDGE_CURVE('',#62,#64,#66,.T.);
#62 = VERTEX_POINT('',#63);
#63 = CARTESIAN_POINT('',(-35.99999999999,46.999999999999,0.));
#64 = VERTEX_POINT('',#65);
#65 = CARTESIAN_POINT('',(-35.99999999999,46.999999999999,8.));
#66 = LINE('',#67,#68);
#67 = CARTESIAN_POINT('',(-35.99999999999,46.999999999999,0.));
#68 = VECTOR('',#69,1.);
#69 = DIRECTION('',(0.,0.,1.));
#70 = ORIENTED_EDGE('',*,*,#71,.T.);
#71 = EDGE_CURVE('',#64,#72,#74,.T.);
#72 = VERTEX_POINT('',#73);
#73 = CARTESIAN_POINT('',(-25.99999999999,46.999999999999,8.));
#74 = LINE('',#75,#76);
#75 = CARTESIAN_POINT('',(-35.99999999999,46.999999999999,8.));
#76 = VECTOR('',#77,1.);
#77 = DIRECTION('',(1.,1.634E-14,0.));
#78 = ORIENTED_EDGE('',*,*,#79,.F.);
#79 = EDGE_CURVE('',#80,#72,#82,.T.);
#80 = VERTEX_POINT('',#81);
#81 = CARTESIAN_POINT('',(-25.99999999999,46.999999999999,3.));
#82 = LINE('',#83,#84);
#83 = CARTESIAN_POINT('',(-25.99999999999,46.999999999999,3.));
#84 = VECTOR('',#85,1.);
#85 = DIRECTION('',(0.,0.,1.));
#86 = ORIENTED_EDGE('',*,*,#87,.T.);
#87 = EDGE_CURVE('',#80,#24,#88,.T.);
#88 = LINE('',#89,#90);
#89 = CARTESIAN_POINT('',(-36.,46.999999999999,3.));
#90 = VECTOR('',#91,1.);
#91 = DIRECTION('',(1.,1.628E-14,0.));
#92 = ORIENTED_EDGE('',*,*,#21,.F.);
#93 = ORIENTED_EDGE('',*,*,#94,.F.);
#94 = EDGE_CURVE('',#62,#22,#95,.T.);
#95 = LINE('',#96,#97);
#96 = CARTESIAN_POINT('',(-36.,46.999999999999,0.));
#97 = VECTOR('',#98,1.);
#98 = DIRECTION('',(1.,1.628E-14,0.));
#99 = FACE_BOUND('',#100,.T.);
#100 = EDGE_LOOP('',(#101));
#101 = ORIENTED_EDGE('',*,*,#102,.F.);
#102 = EDGE_CURVE('',#103,#103,#105,.T.);
#103 = VERTEX_POINT('',#104);
#104 = CARTESIAN_POINT('',(-32.39999999999,46.999999999999,5.));
#105 = CIRCLE('',#106,1.4);
#106 = AXIS2_PLACEMENT_3D('',#107,#108,#109);
#107 = CARTESIAN_POINT('',(-30.99999999999,46.999999999999,5.));
#108 = DIRECTION('',(-1.6E-14,1.,0.));
#109 = DIRECTION('',(-1.,-1.6E-14,0.));
#110 = PLANE('',#111);
#111 = AXIS2_PLACEMENT_3D('',#112,#113,#114);
#112 = CARTESIAN_POINT('',(-1.9375,46.999999999999,2.0625));
#113 = DIRECTION('',(-1.629E-14,1.,0.));
#114 = DIRECTION('',(1.,1.629E-14,0.));
#115 = ADVANCED_FACE('',(#116,#157),#168,.T.);
#116 = FACE_BOUND('',#117,.T.);
#117 = EDGE_LOOP('',(#118,#119,#127,#135,#143,#151));
#118 = ORIENTED_EDGE('',*,*,#39,.T.);
#119 = ORIENTED_EDGE('',*,*,#120,.T.);
#120 = EDGE_CURVE('',#32,#121,#123,.T.);
#121 = VERTEX_POINT('',#122);
#122 = CARTESIAN_POINT('',(-26.,-47.,3.));
#123 = LINE('',#124,#125);
#124 = CARTESIAN_POINT('',(36.,-47.,3.));
#125 = VECTOR('',#126,1.);
#126 = DIRECTION('',(-1.,0.,0.));
#127 = ORIENTED_EDGE('',*,*,#128,.T.);
#128 = EDGE_CURVE('',#121,#129,#131,.T.);
#129 = VERTEX_POINT('',#130);
#130 = CARTESIAN_POINT('',(-26.,-47.,8.));
#131 = LINE('',#132,#133);
#132 = CARTESIAN_POINT('',(-26.,-47.,3.));
#133 = VECTOR('',#134,1.);
#134 = DIRECTION('',(0.,0.,1.));
#135 = ORIENTED_EDGE('',*,*,#136,.T.);
#136 = EDGE_CURVE('',#129,#137,#139,.T.);
#137 = VERTEX_POINT('',#138);
#138 = CARTESIAN_POINT('',(-36.,-47.,8.));
#139 = LINE('',#140,#141);
#140 = CARTESIAN_POINT('',(-26.,-47.,8.));
#141 = VECTOR('',#142,1.);
#142 = DIRECTION('',(-1.,0.,0.));
#143 = ORIENTED_EDGE('',*,*,#144,.F.);
#144 = EDGE_CURVE('',#145,#137,#147,.T.);
#145 = VERTEX_POINT('',#146);
#146 = CARTESIAN_POINT('',(-36.,-47.,0.));
#147 = LINE('',#148,#149);
#148 = CARTESIAN_POINT('',(-36.,-47.,3.));
#149 = VECTOR('',#150,1.);
#150 = DIRECTION('',(0.,0.,1.));
#151 = ORIENTED_EDGE('',*,*,#152,.F.);
#152 = EDGE_CURVE('',#40,#145,#153,.T.);
#153 = LINE('',#154,#155);
#154 = CARTESIAN_POINT('',(36.,-47.,0.));
#155 = VECTOR('',#156,1.);
#156 = DIRECTION('',(-1.,0.,0.));
#157 = FACE_BOUND('',#158,.T.);
#158 = EDGE_LOOP('',(#159));
#159 = ORIENTED_EDGE('',*,*,#160,.F.);
#160 = EDGE_CURVE('',#161,#161,#163,.T.);
#161 = VERTEX_POINT('',#162);
#162 = CARTESIAN_POINT('',(-29.6,-47.,5.));
#163 = CIRCLE('',#164,1.4);
#164 = AXIS2_PLACEMENT_3D('',#165,#166,#167);
#165 = CARTESIAN_POINT('',(-31.,-47.,5.));
#166 = DIRECTION('',(0.,-1.,1.E-15));
#167 = DIRECTION('',(1.,0.,0.));
#168 = PLANE('',#169);
#169 = AXIS2_PLACEMENT_3D('',#170,#171,#172);
#170 = CARTESIAN_POINT('',(-1.9375,-47.,2.0625));
#171 = DIRECTION('',(0.,-1.,1.37E-15));
#172 = DIRECTION('',(0.,-1.37E-15,-1.));
#173 = ADVANCED_FACE('',(#174,#186,#197,#208,#219,#230,#241,#252,#263),
  #274,.F.);
#174 = FACE_BOUND('',#175,.F.);
#175 = EDGE_LOOP('',(#176,#177,#184,#185));
#176 = ORIENTED_EDGE('',*,*,#94,.F.);
#177 = ORIENTED_EDGE('',*,*,#178,.T.);
#178 = EDGE_CURVE('',#62,#145,#179,.T.);
#179 = CIRCLE('',#180,302.);
#180 = AXIS2_PLACEMENT_3D('',#181,#182,#183);
#181 = CARTESIAN_POINT('',(262.32029766678,-5.98338E-12,0.));
#182 = DIRECTION('',(0.,0.,1.));
#183 = DIRECTION('',(1.,0.,0.));
#184 = ORIENTED_EDGE('',*,*,#152,.F.);
#185 = ORIENTED_EDGE('',*,*,#47,.F.);
#186 = FACE_BOUND('',#187,.F.);
#187 = EDGE_LOOP('',(#188));
#188 = ORIENTED_EDGE('',*,*,#189,.T.);
#189 = EDGE_CURVE('',#190,#190,#192,.T.);
#190 = VERTEX_POINT('',#191);
#191 = CARTESIAN_POINT('',(-16.6,-27.,0.));
#192 = CIRCLE('',#193,1.4);
#193 = AXIS2_PLACEMENT_3D('',#194,#195,#196);
#194 = CARTESIAN_POINT('',(-18.,-27.,0.));
#195 = DIRECTION('',(0.,0.,-1.));
#196 = DIRECTION('',(1.,0.,0.));
#197 = FACE_BOUND('',#198,.F.);
#198 = EDGE_LOOP('',(#199));
#199 = ORIENTED_EDGE('',*,*,#200,.T.);
#200 = EDGE_CURVE('',#201,#201,#203,.T.);
#201 = VERTEX_POINT('',#202);
#202 = CARTESIAN_POINT('',(-22.6,-1.,0.));
#203 = CIRCLE('',#204,1.4);
#204 = AXIS2_PLACEMENT_3D('',#205,#206,#207);
#205 = CARTESIAN_POINT('',(-24.,-1.,0.));
#206 = DIRECTION('',(0.,0.,-1.));
#207 = DIRECTION('',(1.,0.,0.));
#208 = FACE_BOUND('',#209,.F.);
#209 = EDGE_LOOP('',(#210));
#210 = ORIENTED_EDGE('',*,*,#211,.T.);
#211 = EDGE_CURVE('',#212,#212,#214,.T.);
#212 = VERTEX_POINT('',#213);
#213 = CARTESIAN_POINT('',(24.4,-27.,0.));
#214 = CIRCLE('',#215,1.4);
#215 = AXIS2_PLACEMENT_3D('',#216,#217,#218);
#216 = CARTESIAN_POINT('',(23.,-27.,0.));
#217 = DIRECTION('',(0.,0.,-1.));
#218 = DIRECTION('',(1.,0.,0.));
#219 = FACE_BOUND('',#220,.F.);
#220 = EDGE_LOOP('',(#221));
#221 = ORIENTED_EDGE('',*,*,#222,.T.);
#222 = EDGE_CURVE('',#223,#223,#225,.T.);
#223 = VERTEX_POINT('',#224);
#224 = CARTESIAN_POINT('',(-24.6,23.5,0.));
#225 = CIRCLE('',#226,1.4);
#226 = AXIS2_PLACEMENT_3D('',#227,#228,#229);
#227 = CARTESIAN_POINT('',(-26.,23.5,0.));
#228 = DIRECTION('',(0.,0.,-1.));
#229 = DIRECTION('',(1.,0.,0.));
#230 = FACE_BOUND('',#231,.F.);
#231 = EDGE_LOOP('',(#232));
#232 = ORIENTED_EDGE('',*,*,#233,.T.);
#233 = EDGE_CURVE('',#234,#234,#236,.T.);
#234 = VERTEX_POINT('',#235);
#235 = CARTESIAN_POINT('',(32.4,14.,0.));
#236 = CIRCLE('',#237,1.4);
#237 = AXIS2_PLACEMENT_3D('',#238,#239,#240);
#238 = CARTESIAN_POINT('',(31.,14.,0.));
#239 = DIRECTION('',(0.,0.,-1.));
#240 = DIRECTION('',(1.,0.,0.));
#241 = FACE_BOUND('',#242,.F.);
#242 = EDGE_LOOP('',(#243));
#243 = ORIENTED_EDGE('',*,*,#244,.T.);
#244 = EDGE_CURVE('',#245,#245,#247,.T.);
#245 = VERTEX_POINT('',#246);
#246 = CARTESIAN_POINT('',(5.4,41.,0.));
#247 = CIRCLE('',#248,1.4);
#248 = AXIS2_PLACEMENT_3D('',#249,#250,#251);
#249 = CARTESIAN_POINT('',(4.,41.,0.));
#250 = DIRECTION('',(0.,0.,-1.));
#251 = DIRECTION('',(1.,0.,0.));
#252 = FACE_BOUND('',#253,.F.);
#253 = EDGE_LOOP('',(#254));
#254 = ORIENTED_EDGE('',*,*,#255,.T.);
#255 = EDGE_CURVE('',#256,#256,#258,.T.);
#256 = VERTEX_POINT('',#257);
#257 = CARTESIAN_POINT('',(32.4,25.,0.));
#258 = CIRCLE('',#259,1.4);
#259 = AXIS2_PLACEMENT_3D('',#260,#261,#262);
#260 = CARTESIAN_POINT('',(31.,25.,0.));
#261 = DIRECTION('',(0.,0.,-1.));
#262 = DIRECTION('',(1.,0.,0.));
#263 = FACE_BOUND('',#264,.F.);
#264 = EDGE_LOOP('',(#265));
#265 = ORIENTED_EDGE('',*,*,#266,.T.);
#266 = EDGE_CURVE('',#267,#267,#269,.T.);
#267 = VERTEX_POINT('',#268);
#268 = CARTESIAN_POINT('',(32.4,40.,0.));
#269 = CIRCLE('',#270,1.4);
#270 = AXIS2_PLACEMENT_3D('',#271,#272,#273);
#271 = CARTESIAN_POINT('',(31.,40.,0.));
#272 = DIRECTION('',(0.,0.,-1.));
#273 = DIRECTION('',(1.,0.,0.));
#274 = PLANE('',#275);
#275 = AXIS2_PLACEMENT_3D('',#276,#277,#278);
#276 = CARTESIAN_POINT('',(-0.655787714287,-2.7845E-13,0.));
#277 = DIRECTION('',(0.,0.,1.));
#278 = DIRECTION('',(1.,0.,0.));
#279 = ADVANCED_FACE('',(#280,#389,#400,#411,#422,#433,#444,#455),#466,
  .T.);
#280 = FACE_BOUND('',#281,.T.);
#281 = EDGE_LOOP('',(#282,#283,#291,#299,#307,#315,#324,#332,#340,#348,
    #357,#365,#373,#381,#387,#388));
#282 = ORIENTED_EDGE('',*,*,#87,.F.);
#283 = ORIENTED_EDGE('',*,*,#284,.F.);
#284 = EDGE_CURVE('',#285,#80,#287,.T.);
#285 = VERTEX_POINT('',#286);
#286 = CARTESIAN_POINT('',(-25.99999999999,43.999999999999,3.));
#287 = LINE('',#288,#289);
#288 = CARTESIAN_POINT('',(-25.99999999999,43.999999999999,3.));
#289 = VECTOR('',#290,1.);
#290 = DIRECTION('',(0.,1.,0.));
#291 = ORIENTED_EDGE('',*,*,#292,.F.);
#292 = EDGE_CURVE('',#293,#285,#295,.T.);
#293 = VERTEX_POINT('',#294);
#294 = CARTESIAN_POINT('',(-33.49999999999,43.999999999999,3.));
#295 = LINE('',#296,#297);
#296 = CARTESIAN_POINT('',(-33.49999999999,43.999999999999,3.));
#297 = VECTOR('',#298,1.);
#298 = DIRECTION('',(1.,0.,0.));
#299 = ORIENTED_EDGE('',*,*,#300,.F.);
#300 = EDGE_CURVE('',#301,#293,#303,.T.);
#301 = VERTEX_POINT('',#302);
#302 = CARTESIAN_POINT('',(-34.97955248302,31.999999999999,3.));
#303 = LINE('',#304,#305);
#304 = CARTESIAN_POINT('',(-34.97955248302,31.999999999999,3.));
#305 = VECTOR('',#306,1.);
#306 = DIRECTION('',(0.122369423854,0.992484621597,0.));
#307 = ORIENTED_EDGE('',*,*,#308,.F.);
#308 = EDGE_CURVE('',#309,#301,#311,.T.);
#309 = VERTEX_POINT('',#310);
#310 = CARTESIAN_POINT('',(-37.97955248302,31.999999999999,3.));
#311 = LINE('',#312,#313);
#312 = CARTESIAN_POINT('',(-37.97955248302,31.999999999999,3.));
#313 = VECTOR('',#314,1.);
#314 = DIRECTION('',(1.,0.,0.));
#315 = ORIENTED_EDGE('',*,*,#316,.T.);
#316 = EDGE_CURVE('',#309,#317,#319,.T.);
#317 = VERTEX_POINT('',#318);
#318 = CARTESIAN_POINT('',(-39.4411975575,12.,3.));
#319 = CIRCLE('',#320,302.);
#320 = AXIS2_PLACEMENT_3D('',#321,#322,#323);
#321 = CARTESIAN_POINT('',(262.32029766678,-5.98338E-12,3.));
#322 = DIRECTION('',(0.,0.,1.));
#323 = DIRECTION('',(1.,0.,0.));
#324 = ORIENTED_EDGE('',*,*,#325,.T.);
#325 = EDGE_CURVE('',#317,#326,#328,.T.);
#326 = VERTEX_POINT('',#327);
#327 = CARTESIAN_POINT('',(30.558802442494,12.,3.));
#328 = LINE('',#329,#330);
#329 = CARTESIAN_POINT('',(-39.4411975575,12.,3.));
#330 = VECTOR('',#331,1.);
#331 = DIRECTION('',(1.,0.,0.));
#332 = ORIENTED_EDGE('',*,*,#333,.T.);
#333 = EDGE_CURVE('',#326,#334,#336,.T.);
#334 = VERTEX_POINT('',#335);
#335 = CARTESIAN_POINT('',(30.558802442494,-11.99999999999,3.));
#336 = LINE('',#337,#338);
#337 = CARTESIAN_POINT('',(30.558802442494,12.,3.));
#338 = VECTOR('',#339,1.);
#339 = DIRECTION('',(-1.5E-16,-1.,0.));
#340 = ORIENTED_EDGE('',*,*,#341,.T.);
#341 = EDGE_CURVE('',#334,#342,#344,.T.);
#342 = VERTEX_POINT('',#343);
#343 = CARTESIAN_POINT('',(-39.4411975575,-11.99999999999,3.));
#344 = LINE('',#345,#346);
#345 = CARTESIAN_POINT('',(30.558802442494,-11.99999999999,3.));
#346 = VECTOR('',#347,1.);
#347 = DIRECTION('',(-1.,0.,0.));
#348 = ORIENTED_EDGE('',*,*,#349,.T.);
#349 = EDGE_CURVE('',#342,#350,#352,.T.);
#350 = VERTEX_POINT('',#351);
#351 = CARTESIAN_POINT('',(-37.97955248302,-32.,3.));
#352 = CIRCLE('',#353,302.);
#353 = AXIS2_PLACEMENT_3D('',#354,#355,#356);
#354 = CARTESIAN_POINT('',(262.32029766678,-5.98338E-12,3.));
#355 = DIRECTION('',(0.,0.,1.));
#356 = DIRECTION('',(1.,0.,0.));
#357 = ORIENTED_EDGE('',*,*,#358,.T.);
#358 = EDGE_CURVE('',#350,#359,#361,.T.);
#359 = VERTEX_POINT('',#360);
#360 = CARTESIAN_POINT('',(-34.97955248302,-32.,3.));
#361 = LINE('',#362,#363);
#362 = CARTESIAN_POINT('',(-37.97955248302,-32.,3.));
#363 = VECTOR('',#364,1.);
#364 = DIRECTION('',(1.,0.,0.));
#365 = ORIENTED_EDGE('',*,*,#366,.T.);
#366 = EDGE_CURVE('',#359,#367,#369,.T.);
#367 = VERTEX_POINT('',#368);
#368 = CARTESIAN_POINT('',(-33.5,-44.,3.));
#369 = LINE('',#370,#371);
#370 = CARTESIAN_POINT('',(-34.97955248302,-32.,3.));
#371 = VECTOR('',#372,1.);
#372 = DIRECTION('',(0.122369423854,-0.992484621597,0.));
#373 = ORIENTED_EDGE('',*,*,#374,.T.);
#374 = EDGE_CURVE('',#367,#375,#377,.T.);
#375 = VERTEX_POINT('',#376);
#376 = CARTESIAN_POINT('',(-26.,-44.,3.));
#377 = LINE('',#378,#379);
#378 = CARTESIAN_POINT('',(-33.5,-44.,3.));
#379 = VECTOR('',#380,1.);
#380 = DIRECTION('',(1.,0.,0.));
#381 = ORIENTED_EDGE('',*,*,#382,.T.);
#382 = EDGE_CURVE('',#375,#121,#383,.T.);
#383 = LINE('',#384,#385);
#384 = CARTESIAN_POINT('',(-26.,-44.,3.));
#385 = VECTOR('',#386,1.);
#386 = DIRECTION('',(0.,-1.,0.));
#387 = ORIENTED_EDGE('',*,*,#120,.F.);
#388 = ORIENTED_EDGE('',*,*,#31,.F.);
#389 = FACE_BOUND('',#390,.T.);
#390 = EDGE_LOOP('',(#391));
#391 = ORIENTED_EDGE('',*,*,#392,.T.);
#392 = EDGE_CURVE('',#393,#393,#395,.T.);
#393 = VERTEX_POINT('',#394);
#394 = CARTESIAN_POINT('',(-16.6,-27.,3.));
#395 = CIRCLE('',#396,1.4);
#396 = AXIS2_PLACEMENT_3D('',#397,#398,#399);
#397 = CARTESIAN_POINT('',(-18.,-27.,3.));
#398 = DIRECTION('',(0.,0.,-1.));
#399 = DIRECTION('',(1.,0.,0.));
#400 = FACE_BOUND('',#401,.T.);
#401 = EDGE_LOOP('',(#402));
#402 = ORIENTED_EDGE('',*,*,#403,.T.);
#403 = EDGE_CURVE('',#404,#404,#406,.T.);
#404 = VERTEX_POINT('',#405);
#405 = CARTESIAN_POINT('',(24.4,-27.,3.));
#406 = CIRCLE('',#407,1.4);
#407 = AXIS2_PLACEMENT_3D('',#408,#409,#410);
#408 = CARTESIAN_POINT('',(23.,-27.,3.));
#409 = DIRECTION('',(0.,0.,-1.));
#410 = DIRECTION('',(1.,0.,0.));
#411 = FACE_BOUND('',#412,.T.);
#412 = EDGE_LOOP('',(#413));
#413 = ORIENTED_EDGE('',*,*,#414,.T.);
#414 = EDGE_CURVE('',#415,#415,#417,.T.);
#415 = VERTEX_POINT('',#416);
#416 = CARTESIAN_POINT('',(-24.6,23.5,3.));
#417 = CIRCLE('',#418,1.4);
#418 = AXIS2_PLACEMENT_3D('',#419,#420,#421);
#419 = CARTESIAN_POINT('',(-26.,23.5,3.));
#420 = DIRECTION('',(0.,0.,-1.));
#421 = DIRECTION('',(1.,0.,0.));
#422 = FACE_BOUND('',#423,.T.);
#423 = EDGE_LOOP('',(#424));
#424 = ORIENTED_EDGE('',*,*,#425,.T.);
#425 = EDGE_CURVE('',#426,#426,#428,.T.);
#426 = VERTEX_POINT('',#427);
#427 = CARTESIAN_POINT('',(32.4,14.,3.));
#428 = CIRCLE('',#429,1.4);
#429 = AXIS2_PLACEMENT_3D('',#430,#431,#432);
#430 = CARTESIAN_POINT('',(31.,14.,3.));
#431 = DIRECTION('',(0.,0.,-1.));
#432 = DIRECTION('',(1.,0.,0.));
#433 = FACE_BOUND('',#434,.T.);
#434 = EDGE_LOOP('',(#435));
#435 = ORIENTED_EDGE('',*,*,#436,.T.);
#436 = EDGE_CURVE('',#437,#437,#439,.T.);
#437 = VERTEX_POINT('',#438);
#438 = CARTESIAN_POINT('',(5.4,41.,3.));
#439 = CIRCLE('',#440,1.4);
#440 = AXIS2_PLACEMENT_3D('',#441,#442,#443);
#441 = CARTESIAN_POINT('',(4.,41.,3.));
#442 = DIRECTION('',(0.,0.,-1.));
#443 = DIRECTION('',(1.,0.,0.));
#444 = FACE_BOUND('',#445,.T.);
#445 = EDGE_LOOP('',(#446));
#446 = ORIENTED_EDGE('',*,*,#447,.T.);
#447 = EDGE_CURVE('',#448,#448,#450,.T.);
#448 = VERTEX_POINT('',#449);
#449 = CARTESIAN_POINT('',(32.4,25.,3.));
#450 = CIRCLE('',#451,1.4);
#451 = AXIS2_PLACEMENT_3D('',#452,#453,#454);
#452 = CARTESIAN_POINT('',(31.,25.,3.));
#453 = DIRECTION('',(0.,0.,-1.));
#454 = DIRECTION('',(1.,0.,0.));
#455 = FACE_BOUND('',#456,.T.);
#456 = EDGE_LOOP('',(#457));
#457 = ORIENTED_EDGE('',*,*,#458,.T.);
#458 = EDGE_CURVE('',#459,#459,#461,.T.);
#459 = VERTEX_POINT('',#460);
#460 = CARTESIAN_POINT('',(32.4,40.,3.));
#461 = CIRCLE('',#462,1.4);
#462 = AXIS2_PLACEMENT_3D('',#463,#464,#465);
#463 = CARTESIAN_POINT('',(31.,40.,3.));
#464 = DIRECTION('',(0.,0.,-1.));
#465 = DIRECTION('',(1.,0.,0.));
#466 = PLANE('',#467);
#467 = AXIS2_PLACEMENT_3D('',#468,#469,#470);
#468 = CARTESIAN_POINT('',(-0.655787714287,-2.7845E-13,3.));
#469 = DIRECTION('',(0.,0.,1.));
#470 = DIRECTION('',(1.,0.,0.));
#471 = ADVANCED_FACE('',(#472,#532,#624,#675),#726,.T.);
#472 = FACE_BOUND('',#473,.F.);
#473 = EDGE_LOOP('',(#474,#482,#483,#491,#500,#506,#507,#515,#522,#523,
    #524,#525));
#474 = ORIENTED_EDGE('',*,*,#475,.F.);
#475 = EDGE_CURVE('',#309,#476,#478,.T.);
#476 = VERTEX_POINT('',#477);
#477 = CARTESIAN_POINT('',(-37.97955248302,31.999999999999,8.));
#478 = LINE('',#479,#480);
#479 = CARTESIAN_POINT('',(-37.97955248302,31.999999999999,3.));
#480 = VECTOR('',#481,1.);
#481 = DIRECTION('',(0.,0.,1.));
#482 = ORIENTED_EDGE('',*,*,#316,.T.);
#483 = ORIENTED_EDGE('',*,*,#484,.T.);
#484 = EDGE_CURVE('',#317,#485,#487,.T.);
#485 = VERTEX_POINT('',#486);
#486 = CARTESIAN_POINT('',(-39.4411975575,12.,30.));
#487 = LINE('',#488,#489);
#488 = CARTESIAN_POINT('',(-39.4411975575,12.,3.));
#489 = VECTOR('',#490,1.);
#490 = DIRECTION('',(0.,0.,1.));
#491 = ORIENTED_EDGE('',*,*,#492,.T.);
#492 = EDGE_CURVE('',#485,#493,#495,.T.);
#493 = VERTEX_POINT('',#494);
#494 = CARTESIAN_POINT('',(-39.4411975575,-11.99999999999,30.));
#495 = CIRCLE('',#496,301.99999999999);
#496 = AXIS2_PLACEMENT_3D('',#497,#498,#499);
#497 = CARTESIAN_POINT('',(262.32029766678,-5.68655E-12,30.));
#498 = DIRECTION('',(0.,0.,1.));
#499 = DIRECTION('',(1.,0.,0.));
#500 = ORIENTED_EDGE('',*,*,#501,.F.);
#501 = EDGE_CURVE('',#342,#493,#502,.T.);
#502 = LINE('',#503,#504);
#503 = CARTESIAN_POINT('',(-39.4411975575,-11.99999999999,3.));
#504 = VECTOR('',#505,1.);
#505 = DIRECTION('',(0.,0.,1.));
#506 = ORIENTED_EDGE('',*,*,#349,.T.);
#507 = ORIENTED_EDGE('',*,*,#508,.T.);
#508 = EDGE_CURVE('',#350,#509,#511,.T.);
#509 = VERTEX_POINT('',#510);
#510 = CARTESIAN_POINT('',(-37.97955248302,-32.,8.));
#511 = LINE('',#512,#513);
#512 = CARTESIAN_POINT('',(-37.97955248302,-32.,3.));
#513 = VECTOR('',#514,1.);
#514 = DIRECTION('',(0.,0.,1.));
#515 = ORIENTED_EDGE('',*,*,#516,.T.);
#516 = EDGE_CURVE('',#509,#137,#517,.T.);
#517 = CIRCLE('',#518,301.99999999995);
#518 = AXIS2_PLACEMENT_3D('',#519,#520,#521);
#519 = CARTESIAN_POINT('',(262.32029766674,-1.265551E-11,8.));
#520 = DIRECTION('',(0.,0.,1.));
#521 = DIRECTION('',(1.,0.,0.));
#522 = ORIENTED_EDGE('',*,*,#144,.F.);
#523 = ORIENTED_EDGE('',*,*,#178,.F.);
#524 = ORIENTED_EDGE('',*,*,#61,.T.);
#525 = ORIENTED_EDGE('',*,*,#526,.T.);
#526 = EDGE_CURVE('',#64,#476,#527,.T.);
#527 = CIRCLE('',#528,302.00000000001);
#528 = AXIS2_PLACEMENT_3D('',#529,#530,#531);
#529 = CARTESIAN_POINT('',(262.32029766679,-7.79145E-12,8.));
#530 = DIRECTION('',(0.,0.,1.));
#531 = DIRECTION('',(1.,0.,0.));
#532 = FACE_BOUND('',#533,.F.);
#533 = EDGE_LOOP('',(#534,#573,#581,#618));
#534 = ORIENTED_EDGE('',*,*,#535,.F.);
#535 = EDGE_CURVE('',#536,#538,#540,.T.);
#536 = VERTEX_POINT('',#537);
#537 = CARTESIAN_POINT('',(-39.60757451463,-6.6,11.5));
#538 = VERTEX_POINT('',#539);
#539 = CARTESIAN_POINT('',(-39.60757451463,6.6,11.5));
#540 = B_SPLINE_CURVE_WITH_KNOTS('',7,(#541,#542,#543,#544,#545,#546,
    #547,#548,#549,#550,#551,#552,#553,#554,#555,#556,#557,#558,#559,
    #560,#561,#562,#563,#564,#565,#566,#567,#568,#569,#570,#571,#572),
  .UNSPECIFIED.,.F.,.F.,(8,6,6,6,6,8),(0.,0.259391484576,0.43603380731,
    0.594438329442,0.740967358184,1.),.UNSPECIFIED.);
#541 = CARTESIAN_POINT('',(-39.60757451463,-6.6,11.5));
#542 = CARTESIAN_POINT('',(-39.60757451463,-6.6,10.839330279356));
#543 = CARTESIAN_POINT('',(-39.60926109427,-6.522843444079,
    10.179586389548));
#544 = CARTESIAN_POINT('',(-39.61262588451,-6.368921414162,
    9.525259855422));
#545 = CARTESIAN_POINT('',(-39.61759114705,-6.136078692028,
    8.881256315477));
#546 = CARTESIAN_POINT('',(-39.62400107233,-5.820281505881,
    8.254501517067));
#547 = CARTESIAN_POINT('',(-39.63154379451,-5.416070080987,
    7.654946742102));
#548 = CARTESIAN_POINT('',(-39.64518587725,-4.57842017526,6.719105364208
    ));
#549 = CARTESIAN_POINT('',(-39.65101961133,-4.192896956455,
    6.357005529062));
#550 = CARTESIAN_POINT('',(-39.65695388995,-3.760467866433,
    6.019917139075));
#551 = CARTESIAN_POINT('',(-39.6627139316,-3.281599845507,5.716183636374
    ));
#552 = CARTESIAN_POINT('',(-39.66796471831,-2.75796164381,5.454499242947
    ));
#553 = CARTESIAN_POINT('',(-39.67234318409,-2.192615059979,
    5.244004849611));
#554 = CARTESIAN_POINT('',(-39.67835871167,-1.050336906368,
    4.960395632902));
#555 = CARTESIAN_POINT('',(-39.6802102918,-0.484807888102,4.87637799166)
  );
#556 = CARTESIAN_POINT('',(-39.68081526488,9.435766561514E-02,
    4.849994834828));
#557 = CARTESIAN_POINT('',(-39.68004800783,0.673974497116,4.884124991982
    ));
#558 = CARTESIAN_POINT('',(-39.67798100435,1.240700004885,4.977015921053
    ));
#559 = CARTESIAN_POINT('',(-39.67486741305,1.782128883171,5.122332964177
    ));
#560 = CARTESIAN_POINT('',(-39.66749302046,2.755555554653,5.48206082443)
  );
#561 = CARTESIAN_POINT('',(-39.66332498643,3.194151925352,5.691006977626
    ));
#562 = CARTESIAN_POINT('',(-39.65873415999,3.602035854911,5.930445739853
    ));
#563 = CARTESIAN_POINT('',(-39.65391498142,3.978389155942,6.195326145697
    ));
#564 = CARTESIAN_POINT('',(-39.64903952646,4.322946188834,6.48102976491)
  );
#565 = CARTESIAN_POINT('',(-39.64425006076,4.635881092752,6.783301997948
    ));
#566 = CARTESIAN_POINT('',(-39.63154383009,5.416067896524,7.654944301569
    ));
#567 = CARTESIAN_POINT('',(-39.62400107421,5.82028188523,8.254500648185)
  );
#568 = CARTESIAN_POINT('',(-39.61759111804,6.13607993115,8.881258262234)
  );
#569 = CARTESIAN_POINT('',(-39.61262586585,6.368922309714,9.525262838029
    ));
#570 = CARTESIAN_POINT('',(-39.60926109539,6.522843382488,
    10.179588473396));
#571 = CARTESIAN_POINT('',(-39.60757451463,6.6,10.839330002209));
#572 = CARTESIAN_POINT('',(-39.60757451463,6.6,11.5));
#573 = ORIENTED_EDGE('',*,*,#574,.F.);
#574 = EDGE_CURVE('',#575,#536,#577,.T.);
#575 = VERTEX_POINT('',#576);
#576 = CARTESIAN_POINT('',(-39.60757451463,-6.6,19.));
#577 = LINE('',#578,#579);
#578 = CARTESIAN_POINT('',(-39.60757451463,-6.6,0.));
#579 = VECTOR('',#580,1.);
#580 = DIRECTION('',(-0.,-0.,-1.));
#581 = ORIENTED_EDGE('',*,*,#582,.F.);
#582 = EDGE_CURVE('',#583,#575,#585,.T.);
#583 = VERTEX_POINT('',#584);
#584 = CARTESIAN_POINT('',(-39.60757451463,6.6,19.));
#585 = B_SPLINE_CURVE_WITH_KNOTS('',7,(#586,#587,#588,#589,#590,#591,
    #592,#593,#594,#595,#596,#597,#598,#599,#600,#601,#602,#603,#604,
    #605,#606,#607,#608,#609,#610,#611,#612,#613,#614,#615,#616,#617),
  .UNSPECIFIED.,.F.,.F.,(8,6,6,6,6,8),(0.,0.259392789893,0.436036001399,
    0.594446593738,0.74097702636,1.),.UNSPECIFIED.);
#586 = CARTESIAN_POINT('',(-39.60757451463,6.6,19.));
#587 = CARTESIAN_POINT('',(-39.60757451463,6.6,19.660669720643));
#588 = CARTESIAN_POINT('',(-39.60926109427,6.52284344408,20.320413610452
    ));
#589 = CARTESIAN_POINT('',(-39.61262588451,6.36892141416,20.974740144579
    ));
#590 = CARTESIAN_POINT('',(-39.61759114705,6.136078692031,
    21.618743684521));
#591 = CARTESIAN_POINT('',(-39.62400107233,5.820281505879,
    22.245498482934));
#592 = CARTESIAN_POINT('',(-39.63154379451,5.416070080988,
    22.845053257898));
#593 = CARTESIAN_POINT('',(-39.64518587725,4.578420175513,23.78089463551
    ));
#594 = CARTESIAN_POINT('',(-39.65101961133,4.19289695651,24.14299447098)
  );
#595 = CARTESIAN_POINT('',(-39.65695388995,3.760467866191,
    24.480082861143));
#596 = CARTESIAN_POINT('',(-39.6627139316,3.281599845234,24.783816363724
    ));
#597 = CARTESIAN_POINT('',(-39.66796471831,2.757961643849,
    25.045500756959));
#598 = CARTESIAN_POINT('',(-39.67234318409,2.19261506034,25.2559951503)
  );
#599 = CARTESIAN_POINT('',(-39.67835880635,1.050318928175,
    25.539608830793));
#600 = CARTESIAN_POINT('',(-39.68021037285,0.484778213952,
    25.623625625286));
#601 = CARTESIAN_POINT('',(-39.68081522931,-9.438696581989E-02,
    25.650003671747));
#602 = CARTESIAN_POINT('',(-39.68004789872,-0.673990552546,
    25.615869977795));
#603 = CARTESIAN_POINT('',(-39.67798096797,-1.240696767426,
    25.522982103518));
#604 = CARTESIAN_POINT('',(-39.67486752315,-1.782114350408,
    25.377672406377));
#605 = CARTESIAN_POINT('',(-39.66749302046,-2.755555554664,
    25.017939175565));
#606 = CARTESIAN_POINT('',(-39.66332498643,-3.194151925362,
    24.808993022368));
#607 = CARTESIAN_POINT('',(-39.65873415999,-3.60203585492,
    24.569554260141));
#608 = CARTESIAN_POINT('',(-39.65391498142,-3.978389155952,
    24.304673854296));
#609 = CARTESIAN_POINT('',(-39.64903952646,-4.322946188843,
    24.018970235082));
#610 = CARTESIAN_POINT('',(-39.64425006076,-4.63588109276,
    23.716698002043));
#611 = CARTESIAN_POINT('',(-39.63154421074,-5.416044523677,
    22.845081811101));
#612 = CARTESIAN_POINT('',(-39.6240011861,-5.820280478472,
    22.245514803981));
#613 = CARTESIAN_POINT('',(-39.61759084841,-6.136092109284,
    21.618727667457));
#614 = CARTESIAN_POINT('',(-39.61262569949,-6.36892983762,
    20.974709062694));
#615 = CARTESIAN_POINT('',(-39.60926112207,-6.522842215174,
    20.320395070729));
#616 = CARTESIAN_POINT('',(-39.60757451463,-6.6,19.660675106522));
#617 = CARTESIAN_POINT('',(-39.60757451463,-6.6,19.));
#618 = ORIENTED_EDGE('',*,*,#619,.T.);
#619 = EDGE_CURVE('',#583,#538,#620,.T.);
#620 = LINE('',#621,#622);
#621 = CARTESIAN_POINT('',(-39.60757451463,6.6,0.));
#622 = VECTOR('',#623,1.);
#623 = DIRECTION('',(-0.,-0.,-1.));
#624 = FACE_BOUND('',#625,.F.);
#625 = EDGE_LOOP('',(#626));
#626 = ORIENTED_EDGE('',*,*,#627,.F.);
#627 = EDGE_CURVE('',#628,#628,#630,.T.);
#628 = VERTEX_POINT('',#629);
#629 = CARTESIAN_POINT('',(-37.04532749082,39.80229232079,5.));
#630 = B_SPLINE_CURVE_WITH_KNOTS('',7,(#631,#632,#633,#634,#635,#636,
    #637,#638,#639,#640,#641,#642,#643,#644,#645,#646,#647,#648,#649,
    #650,#651,#652,#653,#654,#655,#656,#657,#658,#659,#660,#661,#662,
    #663,#664,#665,#666,#667,#668,#669,#670,#671,#672,#673,#674),
  .UNSPECIFIED.,.T.,.F.,(8,6,6,6,6,6,6,8),(0.,0.151743387389,
    0.286305455142,0.423074318122,0.587176413099,0.713598256996,
    0.838641964005,1.),.UNSPECIFIED.);
#631 = CARTESIAN_POINT('',(-37.04532749082,39.802292320789,5.));
#632 = CARTESIAN_POINT('',(-37.04532749082,39.802292320789,
    5.167807246521));
#633 = CARTESIAN_POINT('',(-37.04842025501,39.779030624751,
    5.335639001561));
#634 = CARTESIAN_POINT('',(-37.05460812693,39.732489884157,
    5.501258726143));
#635 = CARTESIAN_POINT('',(-37.06395811468,39.662077990377,5.66216220046
    ));
#636 = CARTESIAN_POINT('',(-37.07656509375,39.566908847891,
    5.815178348907));
#637 = CARTESIAN_POINT('',(-37.0925150466,39.446033548193,5.956074855735
    ));
#638 = CARTESIAN_POINT('',(-37.12891535079,39.16868784149,6.187475751783
    ));
#639 = CARTESIAN_POINT('',(-37.14915056375,39.013995807305,6.28505122289
    ));
#640 = CARTESIAN_POINT('',(-37.1720578619,38.838088110427,6.360997194714
    ));
#641 = CARTESIAN_POINT('',(-37.19676460402,38.647239308417,
    6.408113668872));
#642 = CARTESIAN_POINT('',(-37.22216564525,38.449688651754,
    6.422555753041));
#643 = CARTESIAN_POINT('',(-37.2471410482,38.254210745699,6.404035738793
    ));
#644 = CARTESIAN_POINT('',(-37.29467842793,37.880103411566,
    6.307209603726));
#645 = CARTESIAN_POINT('',(-37.31645448507,37.707623847168,
    6.229435524601));
#646 = CARTESIAN_POINT('',(-37.33567079656,37.554522230192,
    6.128721676839));
#647 = CARTESIAN_POINT('',(-37.35215853327,37.422539085009,
    6.010357195825));
#648 = CARTESIAN_POINT('',(-37.3658596205,37.312476978973,5.879198148735
    ));
#649 = CARTESIAN_POINT('',(-37.37680744541,37.224316733561,5.7397350116)
  );
#650 = CARTESIAN_POINT('',(-37.39510259876,37.07675041388,5.42373977724)
  );
#651 = CARTESIAN_POINT('',(-37.40153434215,37.024666289672,
    5.241204200827));
#652 = CARTESIAN_POINT('',(-37.40443184457,37.001144743186,
    5.052795782307));
#653 = CARTESIAN_POINT('',(-37.40376202877,37.006578527582,4.86251250771
    ));
#654 = CARTESIAN_POINT('',(-37.39948915843,37.041246929339,
    4.674652463624));
#655 = CARTESIAN_POINT('',(-37.39161166228,37.104985884109,4.49394797983
    ));
#656 = CARTESIAN_POINT('',(-37.37142398525,37.267640925483,
    4.195809563098));
#657 = CARTESIAN_POINT('',(-37.36035645431,37.35665406711,4.070562235228
    ));
#658 = CARTESIAN_POINT('',(-37.34692241303,37.464427060276,
    3.953371182742));
#659 = CARTESIAN_POINT('',(-37.33111701476,37.59078633536,3.848013127709
    ));
#660 = CARTESIAN_POINT('',(-37.31301355386,37.734871983821,
    3.758460317556));
#661 = CARTESIAN_POINT('',(-37.29277610015,37.895074257237,3.68891565501
    ));
#662 = CARTESIAN_POINT('',(-37.24889721854,38.240390122713,
    3.599541302836));
#663 = CARTESIAN_POINT('',(-37.22580489977,38.421202511299,
    3.580215835898));
#664 = CARTESIAN_POINT('',(-37.20223971789,38.604643931416,
    3.589152532109));
#665 = CARTESIAN_POINT('',(-37.17912981555,38.783422189377,
    3.626474924834));
#666 = CARTESIAN_POINT('',(-37.15739833329,38.950599884367,
    3.689420536549));
#667 = CARTESIAN_POINT('',(-37.13781438448,39.100590734343,3.77245709229
    ));
#668 = CARTESIAN_POINT('',(-37.09894283903,39.397294802857,3.98986107685
    ));
#669 = CARTESIAN_POINT('',(-37.08080034863,39.534929931786,
    4.135447098606));
#670 = CARTESIAN_POINT('',(-37.06646664054,39.643185459035,
    4.296138386493));
#671 = CARTESIAN_POINT('',(-37.05584946618,39.723153525813,
    4.466531419198));
#672 = CARTESIAN_POINT('',(-37.04883260372,39.775929184668,
    4.642631741738));
#673 = CARTESIAN_POINT('',(-37.04532749082,39.802292320789,
    4.821354936155));
#674 = CARTESIAN_POINT('',(-37.04532749082,39.802292320789,5.));
#675 = FACE_BOUND('',#676,.F.);
#676 = EDGE_LOOP('',(#677));
#677 = ORIENTED_EDGE('',*,*,#678,.F.);
#678 = EDGE_CURVE('',#679,#679,#681,.T.);
#679 = VERTEX_POINT('',#680);
#680 = CARTESIAN_POINT('',(-37.40148856251,-37.025003167,5.));
#681 = B_SPLINE_CURVE_WITH_KNOTS('',7,(#682,#683,#684,#685,#686,#687,
    #688,#689,#690,#691,#692,#693,#694,#695,#696,#697,#698,#699,#700,
    #701,#702,#703,#704,#705,#706,#707,#708,#709,#710,#711,#712,#713,
    #714,#715,#716,#717,#718,#719,#720,#721,#722,#723,#724,#725),
  .UNSPECIFIED.,.T.,.F.,(8,6,6,6,6,6,6,8),(0.,0.151742806257,
    0.286304229653,0.423075891443,0.587177019727,0.713600944368,
    0.838643531868,1.),.UNSPECIFIED.);
#682 = CARTESIAN_POINT('',(-37.40148856251,-37.025003167,5.));
#683 = CARTESIAN_POINT('',(-37.40148856251,-37.025003167,5.167806051717)
  );
#684 = CARTESIAN_POINT('',(-37.39861176355,-37.04829115373,
    5.335636591516));
#685 = CARTESIAN_POINT('',(-37.39285605694,-37.09488449614,
    5.501255492373));
#686 = CARTESIAN_POINT('',(-37.38413683238,-37.16537340622,
    5.662158848376));
#687 = CARTESIAN_POINT('',(-37.37232223191,-37.26063986535,
    5.815175670651));
#688 = CARTESIAN_POINT('',(-37.35725591921,-37.38162457108,
    5.956073461979));
#689 = CARTESIAN_POINT('',(-37.32249596653,-37.65917560246,
    6.187476883446));
#690 = CARTESIAN_POINT('',(-37.30304296364,-37.81396621517,
    6.285053452843));
#691 = CARTESIAN_POINT('',(-37.28082212216,-37.98996089437,
    6.360999584818));
#692 = CARTESIAN_POINT('',(-37.256572335,-38.18086768466,6.408115089055)
  );
#693 = CARTESIAN_POINT('',(-37.23130330051,-38.37843458942,
    6.422555567621));
#694 = CARTESIAN_POINT('',(-37.20614552904,-38.57388758481,
    6.404034451219));
#695 = CARTESIAN_POINT('',(-37.15774581252,-38.94788324434,
    6.307209679956));
#696 = CARTESIAN_POINT('',(-37.13529486977,-39.1202790973,6.229435831721
    ));
#697 = CARTESIAN_POINT('',(-37.115256581,-39.27327883194,6.128722461881)
  );
#698 = CARTESIAN_POINT('',(-37.09790680013,-39.40515540335,
    6.010358624906));
#699 = CARTESIAN_POINT('',(-37.08339187361,-39.51511734517,5.87920005425
    ));
#700 = CARTESIAN_POINT('',(-37.07173930781,-39.60319135614,
    5.739736670498));
#701 = CARTESIAN_POINT('',(-37.05220609976,-39.75060460524,
    5.423742329019));
#702 = CARTESIAN_POINT('',(-37.04528680604,-39.80262969439,
    5.241206578272));
#703 = CARTESIAN_POINT('',(-37.04215507321,-39.82612311022,
    5.052796138866));
#704 = CARTESIAN_POINT('',(-37.04287812537,-39.82069555242,
    4.862510724992));
#705 = CARTESIAN_POINT('',(-37.04749178976,-39.78606823099,
    4.674649715847));
#706 = CARTESIAN_POINT('',(-37.05595297671,-39.72240076137,
    4.493945921838));
#707 = CARTESIAN_POINT('',(-37.07746231217,-39.55990908732,
    4.195808249038));
#708 = CARTESIAN_POINT('',(-37.08921422247,-39.47097983294,
    4.070560797548));
#709 = CARTESIAN_POINT('',(-37.10340988639,-39.36330070237,
    3.953370184488));
#710 = CARTESIAN_POINT('',(-37.12000079077,-39.23703861769,
    3.848012655205));
#711 = CARTESIAN_POINT('',(-37.13884085946,-39.09304428253,
    3.758460187736));
#712 = CARTESIAN_POINT('',(-37.15968264606,-38.93291688941,
    3.688915638998));
#713 = CARTESIAN_POINT('',(-37.20435754744,-38.58770372677,
    3.599542448007));
#714 = CARTESIAN_POINT('',(-37.2276369207,-38.40691668032,3.5802161461)
  );
#715 = CARTESIAN_POINT('',(-37.25112220882,-38.22346567047,
    3.589151488831));
#716 = CARTESIAN_POINT('',(-37.27387139685,-38.04464169305,
    3.626472943098));
#717 = CARTESIAN_POINT('',(-37.29502718061,-37.87739099794,
    3.689418501218));
#718 = CARTESIAN_POINT('',(-37.31392417016,-37.72731335228,
    3.772455885261));
#719 = CARTESIAN_POINT('',(-37.35117765706,-37.43040607933,
    3.989862540869));
#720 = CARTESIAN_POINT('',(-37.3683513718,-37.29265092257,4.135450050441
    ));
#721 = CARTESIAN_POINT('',(-37.38179715856,-37.18428634739,
    4.296142187416));
#722 = CARTESIAN_POINT('',(-37.39170145454,-37.104231297,4.466535161035)
  );
#723 = CARTESIAN_POINT('',(-37.39822820659,-37.05139605497,
    4.642634571346));
#724 = CARTESIAN_POINT('',(-37.40148856251,-37.025003167,4.821356353618)
  );
#725 = CARTESIAN_POINT('',(-37.40148856251,-37.025003167,5.));
#726 = CYLINDRICAL_SURFACE('',#727,302.);
#727 = AXIS2_PLACEMENT_3D('',#728,#729,#730);
#728 = CARTESIAN_POINT('',(262.32029766678,-5.98338E-12,0.));
#729 = DIRECTION('',(-0.,-0.,-1.));
#730 = DIRECTION('',(1.,0.,0.));
#731 = ADVANCED_FACE('',(#732),#766,.T.);
#732 = FACE_BOUND('',#733,.T.);
#733 = EDGE_LOOP('',(#734,#735,#743,#751,#759,#765));
#734 = ORIENTED_EDGE('',*,*,#526,.T.);
#735 = ORIENTED_EDGE('',*,*,#736,.T.);
#736 = EDGE_CURVE('',#476,#737,#739,.T.);
#737 = VERTEX_POINT('',#738);
#738 = CARTESIAN_POINT('',(-34.97955248302,31.999999999999,8.));
#739 = LINE('',#740,#741);
#740 = CARTESIAN_POINT('',(-37.97955248302,31.999999999999,8.));
#741 = VECTOR('',#742,1.);
#742 = DIRECTION('',(1.,0.,0.));
#743 = ORIENTED_EDGE('',*,*,#744,.T.);
#744 = EDGE_CURVE('',#737,#745,#747,.T.);
#745 = VERTEX_POINT('',#746);
#746 = CARTESIAN_POINT('',(-33.49999999999,43.999999999999,8.));
#747 = LINE('',#748,#749);
#748 = CARTESIAN_POINT('',(-34.97955248302,31.999999999999,8.));
#749 = VECTOR('',#750,1.);
#750 = DIRECTION('',(0.122369423854,0.992484621597,0.));
#751 = ORIENTED_EDGE('',*,*,#752,.T.);
#752 = EDGE_CURVE('',#745,#753,#755,.T.);
#753 = VERTEX_POINT('',#754);
#754 = CARTESIAN_POINT('',(-25.99999999999,43.999999999999,8.));
#755 = LINE('',#756,#757);
#756 = CARTESIAN_POINT('',(-33.49999999999,43.999999999999,8.));
#757 = VECTOR('',#758,1.);
#758 = DIRECTION('',(1.,0.,0.));
#759 = ORIENTED_EDGE('',*,*,#760,.T.);
#760 = EDGE_CURVE('',#753,#72,#761,.T.);
#761 = LINE('',#762,#763);
#762 = CARTESIAN_POINT('',(-25.99999999999,43.999999999999,8.));
#763 = VECTOR('',#764,1.);
#764 = DIRECTION('',(0.,1.,0.));
#765 = ORIENTED_EDGE('',*,*,#71,.F.);
#766 = PLANE('',#767);
#767 = AXIS2_PLACEMENT_3D('',#768,#769,#770);
#768 = CARTESIAN_POINT('',(-33.41928712936,-3.7235E-13,8.));
#769 = DIRECTION('',(0.,0.,1.));
#770 = DIRECTION('',(1.,0.,0.));
#771 = ADVANCED_FACE('',(#772),#783,.F.);
#772 = FACE_BOUND('',#773,.F.);
#773 = EDGE_LOOP('',(#774,#780,#781,#782));
#774 = ORIENTED_EDGE('',*,*,#775,.T.);
#775 = EDGE_CURVE('',#285,#753,#776,.T.);
#776 = LINE('',#777,#778);
#777 = CARTESIAN_POINT('',(-25.99999999999,43.999999999999,3.));
#778 = VECTOR('',#779,1.);
#779 = DIRECTION('',(0.,0.,1.));
#780 = ORIENTED_EDGE('',*,*,#760,.T.);
#781 = ORIENTED_EDGE('',*,*,#79,.F.);
#782 = ORIENTED_EDGE('',*,*,#284,.F.);
#783 = PLANE('',#784);
#784 = AXIS2_PLACEMENT_3D('',#785,#786,#787);
#785 = CARTESIAN_POINT('',(-25.99999999999,43.999999999999,3.));
#786 = DIRECTION('',(-1.,0.,0.));
#787 = DIRECTION('',(0.,1.,0.));
#788 = ADVANCED_FACE('',(#789),#808,.F.);
#789 = FACE_BOUND('',#790,.F.);
#790 = EDGE_LOOP('',(#791,#792,#800,#807));
#791 = ORIENTED_EDGE('',*,*,#102,.F.);
#792 = ORIENTED_EDGE('',*,*,#793,.T.);
#793 = EDGE_CURVE('',#103,#794,#796,.T.);
#794 = VERTEX_POINT('',#795);
#795 = CARTESIAN_POINT('',(-32.39999999999,43.999999999999,5.));
#796 = LINE('',#797,#798);
#797 = CARTESIAN_POINT('',(-32.39999999999,46.999999999999,5.));
#798 = VECTOR('',#799,1.);
#799 = DIRECTION('',(1.629E-14,-1.,2.2E-16));
#800 = ORIENTED_EDGE('',*,*,#801,.T.);
#801 = EDGE_CURVE('',#794,#794,#802,.T.);
#802 = CIRCLE('',#803,1.4);
#803 = AXIS2_PLACEMENT_3D('',#804,#805,#806);
#804 = CARTESIAN_POINT('',(-30.99999999999,43.999999999999,5.));
#805 = DIRECTION('',(-1.629E-14,1.,-2.2E-16));
#806 = DIRECTION('',(-1.,-1.629E-14,0.));
#807 = ORIENTED_EDGE('',*,*,#793,.F.);
#808 = CYLINDRICAL_SURFACE('',#809,1.4);
#809 = AXIS2_PLACEMENT_3D('',#810,#811,#812);
#810 = CARTESIAN_POINT('',(-30.99999999999,46.999999999999,5.));
#811 = DIRECTION('',(-1.629E-14,1.,-2.2E-16));
#812 = DIRECTION('',(-1.,-1.629E-14,0.));
#813 = ADVANCED_FACE('',(#814),#832,.T.);
#814 = FACE_BOUND('',#815,.T.);
#815 = EDGE_LOOP('',(#816,#824,#830,#831));
#816 = ORIENTED_EDGE('',*,*,#817,.T.);
#817 = EDGE_CURVE('',#375,#818,#820,.T.);
#818 = VERTEX_POINT('',#819);
#819 = CARTESIAN_POINT('',(-26.,-44.,8.));
#820 = LINE('',#821,#822);
#821 = CARTESIAN_POINT('',(-26.,-44.,3.));
#822 = VECTOR('',#823,1.);
#823 = DIRECTION('',(0.,0.,1.));
#824 = ORIENTED_EDGE('',*,*,#825,.T.);
#825 = EDGE_CURVE('',#818,#129,#826,.T.);
#826 = LINE('',#827,#828);
#827 = CARTESIAN_POINT('',(-26.,-44.,8.));
#828 = VECTOR('',#829,1.);
#829 = DIRECTION('',(0.,-1.,0.));
#830 = ORIENTED_EDGE('',*,*,#128,.F.);
#831 = ORIENTED_EDGE('',*,*,#382,.F.);
#832 = PLANE('',#833);
#833 = AXIS2_PLACEMENT_3D('',#834,#835,#836);
#834 = CARTESIAN_POINT('',(-26.,-44.,3.));
#835 = DIRECTION('',(1.,0.,0.));
#836 = DIRECTION('',(0.,-1.,0.));
#837 = ADVANCED_FACE('',(#838),#865,.T.);
#838 = FACE_BOUND('',#839,.T.);
#839 = EDGE_LOOP('',(#840,#841,#842,#843,#851,#859));
#840 = ORIENTED_EDGE('',*,*,#516,.T.);
#841 = ORIENTED_EDGE('',*,*,#136,.F.);
#842 = ORIENTED_EDGE('',*,*,#825,.F.);
#843 = ORIENTED_EDGE('',*,*,#844,.F.);
#844 = EDGE_CURVE('',#845,#818,#847,.T.);
#845 = VERTEX_POINT('',#846);
#846 = CARTESIAN_POINT('',(-33.5,-44.,8.));
#847 = LINE('',#848,#849);
#848 = CARTESIAN_POINT('',(-33.5,-44.,8.));
#849 = VECTOR('',#850,1.);
#850 = DIRECTION('',(1.,0.,0.));
#851 = ORIENTED_EDGE('',*,*,#852,.F.);
#852 = EDGE_CURVE('',#853,#845,#855,.T.);
#853 = VERTEX_POINT('',#854);
#854 = CARTESIAN_POINT('',(-34.97955248302,-32.,8.));
#855 = LINE('',#856,#857);
#856 = CARTESIAN_POINT('',(-34.97955248302,-32.,8.));
#857 = VECTOR('',#858,1.);
#858 = DIRECTION('',(0.122369423854,-0.992484621597,0.));
#859 = ORIENTED_EDGE('',*,*,#860,.F.);
#860 = EDGE_CURVE('',#509,#853,#861,.T.);
#861 = LINE('',#862,#863);
#862 = CARTESIAN_POINT('',(-37.97955248302,-32.,8.));
#863 = VECTOR('',#864,1.);
#864 = DIRECTION('',(1.,0.,0.));
#865 = PLANE('',#866);
#866 = AXIS2_PLACEMENT_3D('',#867,#868,#869);
#867 = CARTESIAN_POINT('',(-33.41928712936,-3.7235E-13,8.));
#868 = DIRECTION('',(0.,0.,1.));
#869 = DIRECTION('',(1.,0.,0.));
#870 = ADVANCED_FACE('',(#871),#890,.F.);
#871 = FACE_BOUND('',#872,.F.);
#872 = EDGE_LOOP('',(#873,#874,#882,#889));
#873 = ORIENTED_EDGE('',*,*,#160,.F.);
#874 = ORIENTED_EDGE('',*,*,#875,.T.);
#875 = EDGE_CURVE('',#161,#876,#878,.T.);
#876 = VERTEX_POINT('',#877);
#877 = CARTESIAN_POINT('',(-29.6,-44.,5.));
#878 = LINE('',#879,#880);
#879 = CARTESIAN_POINT('',(-29.6,-47.,5.));
#880 = VECTOR('',#881,1.);
#881 = DIRECTION('',(0.,1.,-1.39E-15));
#882 = ORIENTED_EDGE('',*,*,#883,.T.);
#883 = EDGE_CURVE('',#876,#876,#884,.T.);
#884 = CIRCLE('',#885,1.4);
#885 = AXIS2_PLACEMENT_3D('',#886,#887,#888);
#886 = CARTESIAN_POINT('',(-31.,-44.,5.));
#887 = DIRECTION('',(0.,-1.,1.44E-15));
#888 = DIRECTION('',(1.,0.,0.));
#889 = ORIENTED_EDGE('',*,*,#875,.F.);
#890 = CYLINDRICAL_SURFACE('',#891,1.4);
#891 = AXIS2_PLACEMENT_3D('',#892,#893,#894);
#892 = CARTESIAN_POINT('',(-31.,-47.,5.));
#893 = DIRECTION('',(0.,-1.,1.44E-15));
#894 = DIRECTION('',(1.,0.,0.));
#895 = ADVANCED_FACE('',(#896),#907,.F.);
#896 = FACE_BOUND('',#897,.F.);
#897 = EDGE_LOOP('',(#898,#899,#905,#906));
#898 = ORIENTED_EDGE('',*,*,#189,.F.);
#899 = ORIENTED_EDGE('',*,*,#900,.T.);
#900 = EDGE_CURVE('',#190,#393,#901,.T.);
#901 = LINE('',#902,#903);
#902 = CARTESIAN_POINT('',(-16.6,-27.,0.));
#903 = VECTOR('',#904,1.);
#904 = DIRECTION('',(0.,0.,1.));
#905 = ORIENTED_EDGE('',*,*,#392,.T.);
#906 = ORIENTED_EDGE('',*,*,#900,.F.);
#907 = CYLINDRICAL_SURFACE('',#908,1.4);
#908 = AXIS2_PLACEMENT_3D('',#909,#910,#911);
#909 = CARTESIAN_POINT('',(-18.,-27.,0.));
#910 = DIRECTION('',(0.,0.,-1.));
#911 = DIRECTION('',(1.,0.,0.));
#912 = ADVANCED_FACE('',(#913),#973,.F.);
#913 = FACE_BOUND('',#914,.F.);
#914 = EDGE_LOOP('',(#915,#916,#924,#934,#943,#972));
#915 = ORIENTED_EDGE('',*,*,#200,.F.);
#916 = ORIENTED_EDGE('',*,*,#917,.T.);
#917 = EDGE_CURVE('',#201,#918,#920,.T.);
#918 = VERTEX_POINT('',#919);
#919 = CARTESIAN_POINT('',(-22.6,-1.,4.97619742788));
#920 = LINE('',#921,#922);
#921 = CARTESIAN_POINT('',(-22.6,-1.,0.));
#922 = VECTOR('',#923,1.);
#923 = DIRECTION('',(0.,0.,1.));
#924 = ORIENTED_EDGE('',*,*,#925,.T.);
#925 = EDGE_CURVE('',#918,#926,#928,.T.);
#926 = VERTEX_POINT('',#927);
#927 = CARTESIAN_POINT('',(-22.60748262903,-1.144552314226,5.));
#928 = B_SPLINE_CURVE_WITH_KNOTS('',4,(#929,#930,#931,#932,#933),
  .UNSPECIFIED.,.F.,.F.,(5,5),(0.,1.),.PIECEWISE_BEZIER_KNOTS.);
#929 = CARTESIAN_POINT('',(-22.6,-1.,4.97619742788));
#930 = CARTESIAN_POINT('',(-22.6,-1.036682766298,4.981820339655));
#931 = CARTESIAN_POINT('',(-22.60128162759,-1.073310525408,
    4.987716322571));
#932 = CARTESIAN_POINT('',(-22.60383574845,-1.109771660767,
    4.993867691094));
#933 = CARTESIAN_POINT('',(-22.60763011486,-1.145966102159,
    5.000249105335));
#934 = ORIENTED_EDGE('',*,*,#935,.T.);
#935 = EDGE_CURVE('',#926,#936,#938,.T.);
#936 = VERTEX_POINT('',#937);
#937 = CARTESIAN_POINT('',(-25.39251737097,-1.144552314226,5.));
#938 = CIRCLE('',#939,1.4);
#939 = AXIS2_PLACEMENT_3D('',#940,#941,#942);
#940 = CARTESIAN_POINT('',(-24.,-1.,5.));
#941 = DIRECTION('',(0.,0.,-1.));
#942 = DIRECTION('',(1.,0.,0.));
#943 = ORIENTED_EDGE('',*,*,#944,.T.);
#944 = EDGE_CURVE('',#936,#918,#945,.T.);
#945 = B_SPLINE_CURVE_WITH_KNOTS('',7,(#946,#947,#948,#949,#950,#951,
    #952,#953,#954,#955,#956,#957,#958,#959,#960,#961,#962,#963,#964,
    #965,#966,#967,#968,#969,#970,#971),.UNSPECIFIED.,.F.,.F.,(8,6,6,6,8
    ),(0.,0.213324739614,0.513999482733,0.814674225852,1.),
  .UNSPECIFIED.);
#946 = CARTESIAN_POINT('',(-25.39236988513,-1.145966102159,
    5.000249105335));
#947 = CARTESIAN_POINT('',(-25.40869517823,-0.990239216595,4.97279301741
    ));
#948 = CARTESIAN_POINT('',(-25.40479020611,-0.831528423929,
    4.949299247508));
#949 = CARTESIAN_POINT('',(-25.37978813449,-0.674234088208,
    4.930772007756));
#950 = CARTESIAN_POINT('',(-25.33443271707,-0.522880157328,
    4.917500805616));
#951 = CARTESIAN_POINT('',(-25.27096379496,-0.381661237644,
    4.908903842898));
#952 = CARTESIAN_POINT('',(-25.19313152929,-0.253979638546,
    4.903936382549));
#953 = CARTESIAN_POINT('',(-24.98371365176,1.600026236068E-02,
    4.898129239489));
#954 = CARTESIAN_POINT('',(-24.84060538935,0.146180111216,4.899741385558
    ));
#955 = CARTESIAN_POINT('',(-24.68379309188,0.248792130601,4.903556376808
    ));
#956 = CARTESIAN_POINT('',(-24.5180532055,0.324738474449,4.907561893193)
  );
#957 = CARTESIAN_POINT('',(-24.34699053456,0.374927687916,4.910610215592
    ));
#958 = CARTESIAN_POINT('',(-24.17345846151,0.4,4.9121323632));
#959 = CARTESIAN_POINT('',(-23.82654153848,0.4,4.9121323632));
#960 = CARTESIAN_POINT('',(-23.65300946543,0.374927687916,4.910610215592
    ));
#961 = CARTESIAN_POINT('',(-23.4819467945,0.324738474449,4.907561893193)
  );
#962 = CARTESIAN_POINT('',(-23.31620690811,0.2487921306,4.903556376808)
  );
#963 = CARTESIAN_POINT('',(-23.15939461064,0.146180111217,4.899741385558
    ));
#964 = CARTESIAN_POINT('',(-23.01628634823,1.600026236049E-02,
    4.898129239489));
#965 = CARTESIAN_POINT('',(-22.81827603845,-0.239273090824,
    4.903620051495));
#966 = CARTESIAN_POINT('',(-22.74989804106,-0.348060541761,4.90763622824
    ));
#967 = CARTESIAN_POINT('',(-22.69182141278,-0.467021856465,
    4.914258686429));
#968 = CARTESIAN_POINT('',(-22.64647594519,-0.594209568715,
    4.924157631634));
#969 = CARTESIAN_POINT('',(-22.61555128008,-0.727219630601,
    4.937800094594));
#970 = CARTESIAN_POINT('',(-22.6,-0.863392704658,4.955257601171));
#971 = CARTESIAN_POINT('',(-22.6,-1.,4.97619742788));
#972 = ORIENTED_EDGE('',*,*,#917,.F.);
#973 = CYLINDRICAL_SURFACE('',#974,1.4);
#974 = AXIS2_PLACEMENT_3D('',#975,#976,#977);
#975 = CARTESIAN_POINT('',(-24.,-1.,0.));
#976 = DIRECTION('',(0.,0.,-1.));
#977 = DIRECTION('',(1.,0.,0.));
#978 = ADVANCED_FACE('',(#979),#990,.F.);
#979 = FACE_BOUND('',#980,.F.);
#980 = EDGE_LOOP('',(#981,#982,#988,#989));
#981 = ORIENTED_EDGE('',*,*,#211,.F.);
#982 = ORIENTED_EDGE('',*,*,#983,.T.);
#983 = EDGE_CURVE('',#212,#404,#984,.T.);
#984 = LINE('',#985,#986);
#985 = CARTESIAN_POINT('',(24.4,-27.,0.));
#986 = VECTOR('',#987,1.);
#987 = DIRECTION('',(0.,0.,1.));
#988 = ORIENTED_EDGE('',*,*,#403,.T.);
#989 = ORIENTED_EDGE('',*,*,#983,.F.);
#990 = CYLINDRICAL_SURFACE('',#991,1.4);
#991 = AXIS2_PLACEMENT_3D('',#992,#993,#994);
#992 = CARTESIAN_POINT('',(23.,-27.,0.));
#993 = DIRECTION('',(0.,0.,-1.));
#994 = DIRECTION('',(1.,0.,0.));
#995 = ADVANCED_FACE('',(#996),#1007,.F.);
#996 = FACE_BOUND('',#997,.F.);
#997 = EDGE_LOOP('',(#998,#999,#1005,#1006));
#998 = ORIENTED_EDGE('',*,*,#222,.F.);
#999 = ORIENTED_EDGE('',*,*,#1000,.T.);
#1000 = EDGE_CURVE('',#223,#415,#1001,.T.);
#1001 = LINE('',#1002,#1003);
#1002 = CARTESIAN_POINT('',(-24.6,23.5,0.));
#1003 = VECTOR('',#1004,1.);
#1004 = DIRECTION('',(0.,0.,1.));
#1005 = ORIENTED_EDGE('',*,*,#414,.T.);
#1006 = ORIENTED_EDGE('',*,*,#1000,.F.);
#1007 = CYLINDRICAL_SURFACE('',#1008,1.4);
#1008 = AXIS2_PLACEMENT_3D('',#1009,#1010,#1011);
#1009 = CARTESIAN_POINT('',(-26.,23.5,0.));
#1010 = DIRECTION('',(0.,0.,-1.));
#1011 = DIRECTION('',(1.,0.,0.));
#1012 = ADVANCED_FACE('',(#1013),#1024,.F.);
#1013 = FACE_BOUND('',#1014,.F.);
#1014 = EDGE_LOOP('',(#1015,#1016,#1022,#1023));
#1015 = ORIENTED_EDGE('',*,*,#233,.F.);
#1016 = ORIENTED_EDGE('',*,*,#1017,.T.);
#1017 = EDGE_CURVE('',#234,#426,#1018,.T.);
#1018 = LINE('',#1019,#1020);
#1019 = CARTESIAN_POINT('',(32.4,14.,0.));
#1020 = VECTOR('',#1021,1.);
#1021 = DIRECTION('',(0.,0.,1.));
#1022 = ORIENTED_EDGE('',*,*,#425,.T.);
#1023 = ORIENTED_EDGE('',*,*,#1017,.F.);
#1024 = CYLINDRICAL_SURFACE('',#1025,1.4);
#1025 = AXIS2_PLACEMENT_3D('',#1026,#1027,#1028);
#1026 = CARTESIAN_POINT('',(31.,14.,0.));
#1027 = DIRECTION('',(0.,0.,-1.));
#1028 = DIRECTION('',(1.,0.,0.));
#1029 = ADVANCED_FACE('',(#1030),#1041,.F.);
#1030 = FACE_BOUND('',#1031,.F.);
#1031 = EDGE_LOOP('',(#1032,#1033,#1039,#1040));
#1032 = ORIENTED_EDGE('',*,*,#244,.F.);
#1033 = ORIENTED_EDGE('',*,*,#1034,.T.);
#1034 = EDGE_CURVE('',#245,#437,#1035,.T.);
#1035 = LINE('',#1036,#1037);
#1036 = CARTESIAN_POINT('',(5.4,41.,0.));
#1037 = VECTOR('',#1038,1.);
#1038 = DIRECTION('',(0.,0.,1.));
#1039 = ORIENTED_EDGE('',*,*,#436,.T.);
#1040 = ORIENTED_EDGE('',*,*,#1034,.F.);
#1041 = CYLINDRICAL_SURFACE('',#1042,1.4);
#1042 = AXIS2_PLACEMENT_3D('',#1043,#1044,#1045);
#1043 = CARTESIAN_POINT('',(4.,41.,0.));
#1044 = DIRECTION('',(0.,0.,-1.));
#1045 = DIRECTION('',(1.,0.,0.));
#1046 = ADVANCED_FACE('',(#1047),#1058,.F.);
#1047 = FACE_BOUND('',#1048,.F.);
#1048 = EDGE_LOOP('',(#1049,#1050,#1056,#1057));
#1049 = ORIENTED_EDGE('',*,*,#255,.F.);
#1050 = ORIENTED_EDGE('',*,*,#1051,.T.);
#1051 = EDGE_CURVE('',#256,#448,#1052,.T.);
#1052 = LINE('',#1053,#1054);
#1053 = CARTESIAN_POINT('',(32.4,25.,0.));
#1054 = VECTOR('',#1055,1.);
#1055 = DIRECTION('',(0.,0.,1.));
#1056 = ORIENTED_EDGE('',*,*,#447,.T.);
#1057 = ORIENTED_EDGE('',*,*,#1051,.F.);
#1058 = CYLINDRICAL_SURFACE('',#1059,1.4);
#1059 = AXIS2_PLACEMENT_3D('',#1060,#1061,#1062);
#1060 = CARTESIAN_POINT('',(31.,25.,0.));
#1061 = DIRECTION('',(0.,0.,-1.));
#1062 = DIRECTION('',(1.,0.,0.));
#1063 = ADVANCED_FACE('',(#1064),#1075,.F.);
#1064 = FACE_BOUND('',#1065,.F.);
#1065 = EDGE_LOOP('',(#1066,#1067,#1073,#1074));
#1066 = ORIENTED_EDGE('',*,*,#266,.F.);
#1067 = ORIENTED_EDGE('',*,*,#1068,.T.);
#1068 = EDGE_CURVE('',#267,#459,#1069,.T.);
#1069 = LINE('',#1070,#1071);
#1070 = CARTESIAN_POINT('',(32.4,40.,0.));
#1071 = VECTOR('',#1072,1.);
#1072 = DIRECTION('',(0.,0.,1.));
#1073 = ORIENTED_EDGE('',*,*,#458,.T.);
#1074 = ORIENTED_EDGE('',*,*,#1068,.F.);
#1075 = CYLINDRICAL_SURFACE('',#1076,1.4);
#1076 = AXIS2_PLACEMENT_3D('',#1077,#1078,#1079);
#1077 = CARTESIAN_POINT('',(31.,40.,0.));
#1078 = DIRECTION('',(0.,0.,-1.));
#1079 = DIRECTION('',(1.,0.,0.));
#1080 = ADVANCED_FACE('',(#1081,#1092),#1095,.T.);
#1081 = FACE_BOUND('',#1082,.T.);
#1082 = EDGE_LOOP('',(#1083,#1089,#1090,#1091));
#1083 = ORIENTED_EDGE('',*,*,#1084,.T.);
#1084 = EDGE_CURVE('',#367,#845,#1085,.T.);
#1085 = LINE('',#1086,#1087);
#1086 = CARTESIAN_POINT('',(-33.5,-44.,3.));
#1087 = VECTOR('',#1088,1.);
#1088 = DIRECTION('',(0.,0.,1.));
#1089 = ORIENTED_EDGE('',*,*,#844,.T.);
#1090 = ORIENTED_EDGE('',*,*,#817,.F.);
#1091 = ORIENTED_EDGE('',*,*,#374,.F.);
#1092 = FACE_BOUND('',#1093,.T.);
#1093 = EDGE_LOOP('',(#1094));
#1094 = ORIENTED_EDGE('',*,*,#883,.T.);
#1095 = PLANE('',#1096);
#1096 = AXIS2_PLACEMENT_3D('',#1097,#1098,#1099);
#1097 = CARTESIAN_POINT('',(-33.5,-44.,3.));
#1098 = DIRECTION('',(0.,1.,0.));
#1099 = DIRECTION('',(1.,0.,0.));
#1100 = ADVANCED_FACE('',(#1101,#1112),#1123,.T.);
#1101 = FACE_BOUND('',#1102,.T.);
#1102 = EDGE_LOOP('',(#1103,#1109,#1110,#1111));
#1103 = ORIENTED_EDGE('',*,*,#1104,.T.);
#1104 = EDGE_CURVE('',#359,#853,#1105,.T.);
#1105 = LINE('',#1106,#1107);
#1106 = CARTESIAN_POINT('',(-34.97955248302,-32.,3.));
#1107 = VECTOR('',#1108,1.);
#1108 = DIRECTION('',(0.,0.,1.));
#1109 = ORIENTED_EDGE('',*,*,#852,.T.);
#1110 = ORIENTED_EDGE('',*,*,#1084,.F.);
#1111 = ORIENTED_EDGE('',*,*,#366,.F.);
#1112 = FACE_BOUND('',#1113,.T.);
#1113 = EDGE_LOOP('',(#1114));
#1114 = ORIENTED_EDGE('',*,*,#1115,.F.);
#1115 = EDGE_CURVE('',#1116,#1116,#1118,.T.);
#1116 = VERTEX_POINT('',#1117);
#1117 = CARTESIAN_POINT('',(-34.40553373652,-36.65561380018,5.));
#1118 = CIRCLE('',#1119,1.4);
#1119 = AXIS2_PLACEMENT_3D('',#1120,#1121,#1122);
#1120 = CARTESIAN_POINT('',(-34.23421654312,-38.04509227042,5.));
#1121 = DIRECTION('',(0.992484621597,0.122369423854,-0.));
#1122 = DIRECTION('',(-0.122369423854,0.992484621597,0.));
#1123 = PLANE('',#1124);
#1124 = AXIS2_PLACEMENT_3D('',#1125,#1126,#1127);
#1125 = CARTESIAN_POINT('',(-34.97955248302,-32.,3.));
#1126 = DIRECTION('',(0.992484621597,0.122369423854,0.));
#1127 = DIRECTION('',(0.122369423854,-0.992484621597,0.));
#1128 = ADVANCED_FACE('',(#1129),#1135,.T.);
#1129 = FACE_BOUND('',#1130,.T.);
#1130 = EDGE_LOOP('',(#1131,#1132,#1133,#1134));
#1131 = ORIENTED_EDGE('',*,*,#508,.T.);
#1132 = ORIENTED_EDGE('',*,*,#860,.T.);
#1133 = ORIENTED_EDGE('',*,*,#1104,.F.);
#1134 = ORIENTED_EDGE('',*,*,#358,.F.);
#1135 = PLANE('',#1136);
#1136 = AXIS2_PLACEMENT_3D('',#1137,#1138,#1139);
#1137 = CARTESIAN_POINT('',(-37.97955248302,-32.,3.));
#1138 = DIRECTION('',(0.,1.,0.));
#1139 = DIRECTION('',(1.,0.,0.));
#1140 = ADVANCED_FACE('',(#1141),#1159,.T.);
#1141 = FACE_BOUND('',#1142,.T.);
#1142 = EDGE_LOOP('',(#1143,#1151,#1157,#1158));
#1143 = ORIENTED_EDGE('',*,*,#1144,.T.);
#1144 = EDGE_CURVE('',#334,#1145,#1147,.T.);
#1145 = VERTEX_POINT('',#1146);
#1146 = CARTESIAN_POINT('',(30.558802442494,-11.99999999999,30.));
#1147 = LINE('',#1148,#1149);
#1148 = CARTESIAN_POINT('',(30.558802442494,-11.99999999999,3.));
#1149 = VECTOR('',#1150,1.);
#1150 = DIRECTION('',(0.,0.,1.));
#1151 = ORIENTED_EDGE('',*,*,#1152,.T.);
#1152 = EDGE_CURVE('',#1145,#493,#1153,.T.);
#1153 = LINE('',#1154,#1155);
#1154 = CARTESIAN_POINT('',(30.558802442494,-11.99999999999,30.));
#1155 = VECTOR('',#1156,1.);
#1156 = DIRECTION('',(-1.,0.,0.));
#1157 = ORIENTED_EDGE('',*,*,#501,.F.);
#1158 = ORIENTED_EDGE('',*,*,#341,.F.);
#1159 = PLANE('',#1160);
#1160 = AXIS2_PLACEMENT_3D('',#1161,#1162,#1163);
#1161 = CARTESIAN_POINT('',(30.558802442494,-11.99999999999,3.));
#1162 = DIRECTION('',(0.,-1.,0.));
#1163 = DIRECTION('',(-1.,0.,0.));
#1164 = ADVANCED_FACE('',(#1165,#1183),#1219,.T.);
#1165 = FACE_BOUND('',#1166,.T.);
#1166 = EDGE_LOOP('',(#1167,#1175,#1181,#1182));
#1167 = ORIENTED_EDGE('',*,*,#1168,.T.);
#1168 = EDGE_CURVE('',#326,#1169,#1171,.T.);
#1169 = VERTEX_POINT('',#1170);
#1170 = CARTESIAN_POINT('',(30.558802442494,12.,30.));
#1171 = LINE('',#1172,#1173);
#1172 = CARTESIAN_POINT('',(30.558802442494,12.,3.));
#1173 = VECTOR('',#1174,1.);
#1174 = DIRECTION('',(0.,0.,1.));
#1175 = ORIENTED_EDGE('',*,*,#1176,.T.);
#1176 = EDGE_CURVE('',#1169,#1145,#1177,.T.);
#1177 = LINE('',#1178,#1179);
#1178 = CARTESIAN_POINT('',(30.558802442494,12.,30.));
#1179 = VECTOR('',#1180,1.);
#1180 = DIRECTION('',(-1.5E-16,-1.,0.));
#1181 = ORIENTED_EDGE('',*,*,#1144,.F.);
#1182 = ORIENTED_EDGE('',*,*,#333,.F.);
#1183 = FACE_BOUND('',#1184,.T.);
#1184 = EDGE_LOOP('',(#1185,#1196,#1204,#1213));
#1185 = ORIENTED_EDGE('',*,*,#1186,.F.);
#1186 = EDGE_CURVE('',#1187,#1189,#1191,.T.);
#1187 = VERTEX_POINT('',#1188);
#1188 = CARTESIAN_POINT('',(30.558802442494,6.6,19.));
#1189 = VERTEX_POINT('',#1190);
#1190 = CARTESIAN_POINT('',(30.558802442494,-6.6,19.));
#1191 = CIRCLE('',#1192,6.6);
#1192 = AXIS2_PLACEMENT_3D('',#1193,#1194,#1195);
#1193 = CARTESIAN_POINT('',(30.558802442494,-5.E-15,19.));
#1194 = DIRECTION('',(1.,0.,0.));
#1195 = DIRECTION('',(0.,1.,0.));
#1196 = ORIENTED_EDGE('',*,*,#1197,.T.);
#1197 = EDGE_CURVE('',#1187,#1198,#1200,.T.);
#1198 = VERTEX_POINT('',#1199);
#1199 = CARTESIAN_POINT('',(30.558802442494,6.6,11.5));
#1200 = LINE('',#1201,#1202);
#1201 = CARTESIAN_POINT('',(30.558802442494,6.6,19.));
#1202 = VECTOR('',#1203,1.);
#1203 = DIRECTION('',(0.,0.,-1.));
#1204 = ORIENTED_EDGE('',*,*,#1205,.F.);
#1205 = EDGE_CURVE('',#1206,#1198,#1208,.T.);
#1206 = VERTEX_POINT('',#1207);
#1207 = CARTESIAN_POINT('',(30.558802442494,-6.6,11.5));
#1208 = CIRCLE('',#1209,6.6);
#1209 = AXIS2_PLACEMENT_3D('',#1210,#1211,#1212);
#1210 = CARTESIAN_POINT('',(30.558802442494,-5.03E-15,11.5));
#1211 = DIRECTION('',(1.,0.,0.));
#1212 = DIRECTION('',(0.,1.,0.));
#1213 = ORIENTED_EDGE('',*,*,#1214,.F.);
#1214 = EDGE_CURVE('',#1189,#1206,#1215,.T.);
#1215 = LINE('',#1216,#1217);
#1216 = CARTESIAN_POINT('',(30.558802442494,-6.6,19.));
#1217 = VECTOR('',#1218,1.);
#1218 = DIRECTION('',(0.,0.,-1.));
#1219 = PLANE('',#1220);
#1220 = AXIS2_PLACEMENT_3D('',#1221,#1222,#1223);
#1221 = CARTESIAN_POINT('',(30.558802442494,12.,3.));
#1222 = DIRECTION('',(1.,-1.5E-16,0.));
#1223 = DIRECTION('',(-1.5E-16,-1.,0.));
#1224 = ADVANCED_FACE('',(#1225),#1236,.T.);
#1225 = FACE_BOUND('',#1226,.T.);
#1226 = EDGE_LOOP('',(#1227,#1228,#1234,#1235));
#1227 = ORIENTED_EDGE('',*,*,#484,.T.);
#1228 = ORIENTED_EDGE('',*,*,#1229,.T.);
#1229 = EDGE_CURVE('',#485,#1169,#1230,.T.);
#1230 = LINE('',#1231,#1232);
#1231 = CARTESIAN_POINT('',(-39.4411975575,12.,30.));
#1232 = VECTOR('',#1233,1.);
#1233 = DIRECTION('',(1.,0.,0.));
#1234 = ORIENTED_EDGE('',*,*,#1168,.F.);
#1235 = ORIENTED_EDGE('',*,*,#325,.F.);
#1236 = PLANE('',#1237);
#1237 = AXIS2_PLACEMENT_3D('',#1238,#1239,#1240);
#1238 = CARTESIAN_POINT('',(-39.4411975575,12.,3.));
#1239 = DIRECTION('',(0.,1.,0.));
#1240 = DIRECTION('',(1.,0.,0.));
#1241 = ADVANCED_FACE('',(#1242),#1253,.F.);
#1242 = FACE_BOUND('',#1243,.F.);
#1243 = EDGE_LOOP('',(#1244,#1245,#1246,#1252));
#1244 = ORIENTED_EDGE('',*,*,#475,.T.);
#1245 = ORIENTED_EDGE('',*,*,#736,.T.);
#1246 = ORIENTED_EDGE('',*,*,#1247,.F.);
#1247 = EDGE_CURVE('',#301,#737,#1248,.T.);
#1248 = LINE('',#1249,#1250);
#1249 = CARTESIAN_POINT('',(-34.97955248302,31.999999999999,3.));
#1250 = VECTOR('',#1251,1.);
#1251 = DIRECTION('',(0.,0.,1.));
#1252 = ORIENTED_EDGE('',*,*,#308,.F.);
#1253 = PLANE('',#1254);
#1254 = AXIS2_PLACEMENT_3D('',#1255,#1256,#1257);
#1255 = CARTESIAN_POINT('',(-37.97955248302,31.999999999999,3.));
#1256 = DIRECTION('',(0.,1.,0.));
#1257 = DIRECTION('',(1.,0.,0.));
#1258 = ADVANCED_FACE('',(#1259,#1270),#1281,.F.);
#1259 = FACE_BOUND('',#1260,.F.);
#1260 = EDGE_LOOP('',(#1261,#1262,#1263,#1269));
#1261 = ORIENTED_EDGE('',*,*,#1247,.T.);
#1262 = ORIENTED_EDGE('',*,*,#744,.T.);
#1263 = ORIENTED_EDGE('',*,*,#1264,.F.);
#1264 = EDGE_CURVE('',#293,#745,#1265,.T.);
#1265 = LINE('',#1266,#1267);
#1266 = CARTESIAN_POINT('',(-33.49999999999,43.999999999999,3.));
#1267 = VECTOR('',#1268,1.);
#1268 = DIRECTION('',(0.,0.,1.));
#1269 = ORIENTED_EDGE('',*,*,#300,.F.);
#1270 = FACE_BOUND('',#1271,.F.);
#1271 = EDGE_LOOP('',(#1272));
#1272 = ORIENTED_EDGE('',*,*,#1273,.T.);
#1273 = EDGE_CURVE('',#1274,#1274,#1276,.T.);
#1274 = VERTEX_POINT('',#1275);
#1275 = CARTESIAN_POINT('',(-34.06289934972,39.434570740655,5.));
#1276 = CIRCLE('',#1277,1.4);
#1277 = AXIS2_PLACEMENT_3D('',#1278,#1279,#1280);
#1278 = CARTESIAN_POINT('',(-34.23421654312,38.04509227042,5.));
#1279 = DIRECTION('',(0.992484621597,-0.122369423854,0.));
#1280 = DIRECTION('',(0.122369423854,0.992484621597,0.));
#1281 = PLANE('',#1282);
#1282 = AXIS2_PLACEMENT_3D('',#1283,#1284,#1285);
#1283 = CARTESIAN_POINT('',(-34.97955248302,31.999999999999,3.));
#1284 = DIRECTION('',(-0.992484621597,0.122369423854,0.));
#1285 = DIRECTION('',(0.122369423854,0.992484621597,0.));
#1286 = ADVANCED_FACE('',(#1287,#1293),#1296,.F.);
#1287 = FACE_BOUND('',#1288,.F.);
#1288 = EDGE_LOOP('',(#1289,#1290,#1291,#1292));
#1289 = ORIENTED_EDGE('',*,*,#1264,.T.);
#1290 = ORIENTED_EDGE('',*,*,#752,.T.);
#1291 = ORIENTED_EDGE('',*,*,#775,.F.);
#1292 = ORIENTED_EDGE('',*,*,#292,.F.);
#1293 = FACE_BOUND('',#1294,.F.);
#1294 = EDGE_LOOP('',(#1295));
#1295 = ORIENTED_EDGE('',*,*,#801,.F.);
#1296 = PLANE('',#1297);
#1297 = AXIS2_PLACEMENT_3D('',#1298,#1299,#1300);
#1298 = CARTESIAN_POINT('',(-33.49999999999,43.999999999999,3.));
#1299 = DIRECTION('',(0.,1.,0.));
#1300 = DIRECTION('',(1.,0.,0.));
#1301 = ADVANCED_FACE('',(#1302,#1308,#1319),#1330,.T.);
#1302 = FACE_BOUND('',#1303,.T.);
#1303 = EDGE_LOOP('',(#1304,#1305,#1306,#1307));
#1304 = ORIENTED_EDGE('',*,*,#1229,.F.);
#1305 = ORIENTED_EDGE('',*,*,#492,.T.);
#1306 = ORIENTED_EDGE('',*,*,#1152,.F.);
#1307 = ORIENTED_EDGE('',*,*,#1176,.F.);
#1308 = FACE_BOUND('',#1309,.T.);
#1309 = EDGE_LOOP('',(#1310));
#1310 = ORIENTED_EDGE('',*,*,#1311,.F.);
#1311 = EDGE_CURVE('',#1312,#1312,#1314,.T.);
#1312 = VERTEX_POINT('',#1313);
#1313 = CARTESIAN_POINT('',(-25.27970233321,0.,30.));
#1314 = CIRCLE('',#1315,1.4);
#1315 = AXIS2_PLACEMENT_3D('',#1316,#1317,#1318);
#1316 = CARTESIAN_POINT('',(-26.67970233321,0.,30.));
#1317 = DIRECTION('',(0.,0.,1.));
#1318 = DIRECTION('',(1.,0.,0.));
#1319 = FACE_BOUND('',#1320,.T.);
#1320 = EDGE_LOOP('',(#1321));
#1321 = ORIENTED_EDGE('',*,*,#1322,.F.);
#1322 = EDGE_CURVE('',#1323,#1323,#1325,.T.);
#1323 = VERTEX_POINT('',#1324);
#1324 = CARTESIAN_POINT('',(21.720297666788,0.,30.));
#1325 = CIRCLE('',#1326,1.4);
#1326 = AXIS2_PLACEMENT_3D('',#1327,#1328,#1329);
#1327 = CARTESIAN_POINT('',(20.320297666788,0.,30.));
#1328 = DIRECTION('',(0.,0.,1.));
#1329 = DIRECTION('',(1.,0.,0.));
#1330 = PLANE('',#1331);
#1331 = AXIS2_PLACEMENT_3D('',#1332,#1333,#1334);
#1332 = CARTESIAN_POINT('',(-4.460289715167,4.7182E-13,30.));
#1333 = DIRECTION('',(0.,0.,1.));
#1334 = DIRECTION('',(1.,0.,0.));
#1335 = ADVANCED_FACE('',(#1336,#1352),#1362,.F.);
#1336 = FACE_BOUND('',#1337,.F.);
#1337 = EDGE_LOOP('',(#1338,#1339,#1345,#1346));
#1338 = ORIENTED_EDGE('',*,*,#1205,.F.);
#1339 = ORIENTED_EDGE('',*,*,#1340,.T.);
#1340 = EDGE_CURVE('',#1206,#536,#1341,.T.);
#1341 = LINE('',#1342,#1343);
#1342 = CARTESIAN_POINT('',(30.558802442494,-6.6,11.5));
#1343 = VECTOR('',#1344,1.);
#1344 = DIRECTION('',(-1.,-0.,-0.));
#1345 = ORIENTED_EDGE('',*,*,#535,.T.);
#1346 = ORIENTED_EDGE('',*,*,#1347,.F.);
#1347 = EDGE_CURVE('',#1198,#538,#1348,.T.);
#1348 = LINE('',#1349,#1350);
#1349 = CARTESIAN_POINT('',(30.558802442494,6.6,11.5));
#1350 = VECTOR('',#1351,1.);
#1351 = DIRECTION('',(-1.,-0.,-0.));
#1352 = FACE_BOUND('',#1353,.F.);
#1353 = EDGE_LOOP('',(#1354,#1355,#1361));
#1354 = ORIENTED_EDGE('',*,*,#944,.F.);
#1355 = ORIENTED_EDGE('',*,*,#1356,.T.);
#1356 = EDGE_CURVE('',#936,#926,#1357,.T.);
#1357 = LINE('',#1358,#1359);
#1358 = CARTESIAN_POINT('',(30.558802442494,-1.144552314226,5.));
#1359 = VECTOR('',#1360,1.);
#1360 = DIRECTION('',(1.,0.,0.));
#1361 = ORIENTED_EDGE('',*,*,#925,.F.);
#1362 = CYLINDRICAL_SURFACE('',#1363,6.6);
#1363 = AXIS2_PLACEMENT_3D('',#1364,#1365,#1366);
#1364 = CARTESIAN_POINT('',(30.558802442494,-4.55E-15,11.5));
#1365 = DIRECTION('',(1.,0.,0.));
#1366 = DIRECTION('',(0.,1.,0.));
#1367 = ADVANCED_FACE('',(#1368),#1379,.F.);
#1368 = FACE_BOUND('',#1369,.F.);
#1369 = EDGE_LOOP('',(#1370,#1371,#1377,#1378));
#1370 = ORIENTED_EDGE('',*,*,#1214,.F.);
#1371 = ORIENTED_EDGE('',*,*,#1372,.T.);
#1372 = EDGE_CURVE('',#1189,#575,#1373,.T.);
#1373 = LINE('',#1374,#1375);
#1374 = CARTESIAN_POINT('',(30.558802442494,-6.6,19.));
#1375 = VECTOR('',#1376,1.);
#1376 = DIRECTION('',(-1.,-0.,-0.));
#1377 = ORIENTED_EDGE('',*,*,#574,.T.);
#1378 = ORIENTED_EDGE('',*,*,#1340,.F.);
#1379 = PLANE('',#1380);
#1380 = AXIS2_PLACEMENT_3D('',#1381,#1382,#1383);
#1381 = CARTESIAN_POINT('',(30.558802442494,-6.6,19.));
#1382 = DIRECTION('',(0.,-1.,0.));
#1383 = DIRECTION('',(0.,0.,-1.));
#1384 = ADVANCED_FACE('',(#1385),#1396,.T.);
#1385 = FACE_BOUND('',#1386,.T.);
#1386 = EDGE_LOOP('',(#1387,#1388,#1394,#1395));
#1387 = ORIENTED_EDGE('',*,*,#1197,.F.);
#1388 = ORIENTED_EDGE('',*,*,#1389,.T.);
#1389 = EDGE_CURVE('',#1187,#583,#1390,.T.);
#1390 = LINE('',#1391,#1392);
#1391 = CARTESIAN_POINT('',(30.558802442494,6.6,19.));
#1392 = VECTOR('',#1393,1.);
#1393 = DIRECTION('',(-1.,-0.,-0.));
#1394 = ORIENTED_EDGE('',*,*,#619,.T.);
#1395 = ORIENTED_EDGE('',*,*,#1347,.F.);
#1396 = PLANE('',#1397);
#1397 = AXIS2_PLACEMENT_3D('',#1398,#1399,#1400);
#1398 = CARTESIAN_POINT('',(30.558802442494,6.6,19.));
#1399 = DIRECTION('',(0.,-1.,0.));
#1400 = DIRECTION('',(0.,0.,-1.));
#1401 = ADVANCED_FACE('',(#1402,#1408,#1473),#1538,.F.);
#1402 = FACE_BOUND('',#1403,.F.);
#1403 = EDGE_LOOP('',(#1404,#1405,#1406,#1407));
#1404 = ORIENTED_EDGE('',*,*,#1186,.F.);
#1405 = ORIENTED_EDGE('',*,*,#1389,.T.);
#1406 = ORIENTED_EDGE('',*,*,#582,.T.);
#1407 = ORIENTED_EDGE('',*,*,#1372,.F.);
#1408 = FACE_BOUND('',#1409,.F.);
#1409 = EDGE_LOOP('',(#1410));
#1410 = ORIENTED_EDGE('',*,*,#1411,.F.);
#1411 = EDGE_CURVE('',#1412,#1412,#1414,.T.);
#1412 = VERTEX_POINT('',#1413);
#1413 = CARTESIAN_POINT('',(-25.27970233321,0.,25.6));
#1414 = B_SPLINE_CURVE_WITH_KNOTS('',8,(#1415,#1416,#1417,#1418,#1419,
    #1420,#1421,#1422,#1423,#1424,#1425,#1426,#1427,#1428,#1429,#1430,
    #1431,#1432,#1433,#1434,#1435,#1436,#1437,#1438,#1439,#1440,#1441,
    #1442,#1443,#1444,#1445,#1446,#1447,#1448,#1449,#1450,#1451,#1452,
    #1453,#1454,#1455,#1456,#1457,#1458,#1459,#1460,#1461,#1462,#1463,
    #1464,#1465,#1466,#1467,#1468,#1469,#1470,#1471,#1472),
  .UNSPECIFIED.,.T.,.F.,(9,7,7,7,7,7,7,7,9),(0.,0.13700389174,
    0.274496426188,0.439654769758,0.586613026814,0.682130111804,
    0.787188910897,0.893804338379,1.),.UNSPECIFIED.);
#1415 = CARTESIAN_POINT('',(-25.27970233321,0.,25.6));
#1416 = CARTESIAN_POINT('',(-25.27970233321,0.160267258105,25.6));
#1417 = CARTESIAN_POINT('',(-25.30067000899,0.317482981934,
    25.595552081286));
#1418 = CARTESIAN_POINT('',(-25.34120895618,0.468515712921,
    25.586953846831));
#1419 = CARTESIAN_POINT('',(-25.39942119687,0.610578389018,
    25.574960477053));
#1420 = CARTESIAN_POINT('',(-25.47291483189,0.741293156452,
    25.560678314034));
#1421 = CARTESIAN_POINT('',(-25.55880711209,0.858795657285,
    25.545355356687));
#1422 = CARTESIAN_POINT('',(-25.65373255351,0.961876234647,
    25.530144697236));
#1423 = CARTESIAN_POINT('',(-25.85435602834,1.138749620119,
    25.501638416367));
#1424 = CARTESIAN_POINT('',(-25.96205030024,1.214163581724,
    25.488071690497));
#1425 = CARTESIAN_POINT('',(-26.07520291728,1.276547477311,
    25.475915697619));
#1426 = CARTESIAN_POINT('',(-26.19238550058,1.32612062985,25.46570492672
    ));
#1427 = CARTESIAN_POINT('',(-26.31240216303,1.363108572175,
    25.457813894385));
#1428 = CARTESIAN_POINT('',(-26.43422588372,1.387698423461,
    25.452476383567));
#1429 = CARTESIAN_POINT('',(-26.55694419032,1.4,25.449806198639));
#1430 = CARTESIAN_POINT('',(-26.82716147796,1.4,25.449806198639));
#1431 = CARTESIAN_POINT('',(-26.97459530284,1.382250071868,
    25.453658897311));
#1432 = CARTESIAN_POINT('',(-27.12047966778,1.346758275831,
    25.461363228699));
#1433 = CARTESIAN_POINT('',(-27.263192148,1.293309100861,25.472677804317
    ));
#1434 = CARTESIAN_POINT('',(-27.40088067186,1.22154414736,
    25.487110365247));
#1435 = CARTESIAN_POINT('',(-27.53132340123,1.131028750372,
    25.503864578252));
#1436 = CARTESIAN_POINT('',(-27.65172830464,1.02136274624,25.52179123662
    ));
#1437 = CARTESIAN_POINT('',(-27.85335615497,0.777636543134,
    25.555051169044));
#1438 = CARTESIAN_POINT('',(-27.94015505979,0.644307694283,25.570901367)
  );
#1439 = CARTESIAN_POINT('',(-28.0120751852,0.494461718094,
    25.585356138578));
#1440 = CARTESIAN_POINT('',(-28.06415987677,0.331722381008,
    25.596573562146));
#1441 = CARTESIAN_POINT('',(-28.09319029618,0.160819590843,
    25.60297134381));
#1442 = CARTESIAN_POINT('',(-28.09765475198,-1.298015990213E-02,
    25.603847333052));
#1443 = CARTESIAN_POINT('',(-28.07779409413,-0.184293230333,
    25.599467037348));
#1444 = CARTESIAN_POINT('',(-28.00837144628,-0.454676592039,
    25.58518377833));
#1445 = CARTESIAN_POINT('',(-27.97146531829,-0.558721905007,
    25.577714869243));
#1446 = CARTESIAN_POINT('',(-27.92526165237,-0.659303049707,
    25.568609285306));
#1447 = CARTESIAN_POINT('',(-27.87014076667,-0.755462562086,
    25.558167196952));
#1448 = CARTESIAN_POINT('',(-27.80660014153,-0.846290891362,
    25.546767897768));
#1449 = CARTESIAN_POINT('',(-27.73525051607,-0.930939010412,
    25.534846064472));
#1450 = CARTESIAN_POINT('',(-27.65680995974,-1.00863699043,
    25.522859621877));
#1451 = CARTESIAN_POINT('',(-27.4789193379,-1.155800911331,
    25.49847897775));
#1452 = CARTESIAN_POINT('',(-27.37809565419,-1.223715643141,
    25.486156346443));
#1453 = CARTESIAN_POINT('',(-27.27071967962,-1.281539129588,
    25.474870518886));
#1454 = CARTESIAN_POINT('',(-27.15798801078,-1.328540491909,
    25.465187592697));
#1455 = CARTESIAN_POINT('',(-27.04117683903,-1.364170034183,
    25.457583927951));
#1456 = CARTESIAN_POINT('',(-26.92161783845,-1.3880546243,
    25.452398779761));
#1457 = CARTESIAN_POINT('',(-26.80067213161,-1.4,25.449806198639));
#1458 = CARTESIAN_POINT('',(-26.55694015735,-1.4,25.449806198639));
#1459 = CARTESIAN_POINT('',(-26.43422314067,-1.387697626146,
    25.452476555697));
#1460 = CARTESIAN_POINT('',(-26.31240353732,-1.363107998448,
    25.457814020714));
#1461 = CARTESIAN_POINT('',(-26.19239148462,-1.326121786138,
    25.465704656985));
#1462 = CARTESIAN_POINT('',(-26.0752119827,-1.276551254372,
    25.475914889541));
#1463 = CARTESIAN_POINT('',(-25.96205950039,-1.214169384956,
    25.488070589071));
#1464 = CARTESIAN_POINT('',(-25.85436194347,-1.138754835007,
    25.501637575895));
#1465 = CARTESIAN_POINT('',(-25.65376517339,-0.961904992936,
    25.530140062328));
#1466 = CARTESIAN_POINT('',(-25.55882817259,-0.858826874966,
    25.545351236022));
#1467 = CARTESIAN_POINT('',(-25.47291041996,-0.741302393275,
    25.560678369063));
#1468 = CARTESIAN_POINT('',(-25.39939719222,-0.61055122203,
    25.574964994167));
#1469 = CARTESIAN_POINT('',(-25.34118093464,-0.468452809625,
    25.586959799481));
#1470 = CARTESIAN_POINT('',(-25.30065341314,-0.317402442227,
    25.595555600263));
#1471 = CARTESIAN_POINT('',(-25.27970233321,-0.160203826886,25.6));
#1472 = CARTESIAN_POINT('',(-25.27970233321,0.,25.6));
#1473 = FACE_BOUND('',#1474,.F.);
#1474 = EDGE_LOOP('',(#1475));
#1475 = ORIENTED_EDGE('',*,*,#1476,.F.);
#1476 = EDGE_CURVE('',#1477,#1477,#1479,.T.);
#1477 = VERTEX_POINT('',#1478);
#1478 = CARTESIAN_POINT('',(21.720297666788,0.,25.6));
#1479 = B_SPLINE_CURVE_WITH_KNOTS('',8,(#1480,#1481,#1482,#1483,#1484,
    #1485,#1486,#1487,#1488,#1489,#1490,#1491,#1492,#1493,#1494,#1495,
    #1496,#1497,#1498,#1499,#1500,#1501,#1502,#1503,#1504,#1505,#1506,
    #1507,#1508,#1509,#1510,#1511,#1512,#1513,#1514,#1515,#1516,#1517,
    #1518,#1519,#1520,#1521,#1522,#1523,#1524,#1525,#1526,#1527,#1528,
    #1529,#1530,#1531,#1532,#1533,#1534,#1535,#1536,#1537),
  .UNSPECIFIED.,.T.,.F.,(9,7,7,7,7,7,7,7,9),(0.,0.137003892226,
    0.274496427162,0.439654771317,0.586613028895,0.682130114224,
    0.78718891369,0.893804340407,1.),.UNSPECIFIED.);
#1480 = CARTESIAN_POINT('',(21.720297666788,0.,25.6));
#1481 = CARTESIAN_POINT('',(21.720297666788,0.160267258105,25.6));
#1482 = CARTESIAN_POINT('',(21.699329991009,0.317482981934,
    25.595552081286));
#1483 = CARTESIAN_POINT('',(21.658791043819,0.468515712921,
    25.586953846831));
#1484 = CARTESIAN_POINT('',(21.600578803129,0.610578389018,
    25.574960477053));
#1485 = CARTESIAN_POINT('',(21.527085168102,0.741293156452,
    25.560678314034));
#1486 = CARTESIAN_POINT('',(21.441192887908,0.858795657285,
    25.545355356687));
#1487 = CARTESIAN_POINT('',(21.346267446484,0.961876234647,
    25.530144697236));
#1488 = CARTESIAN_POINT('',(21.145643971657,1.138749620119,
    25.501638416367));
#1489 = CARTESIAN_POINT('',(21.037949699754,1.214163581724,
    25.488071690497));
#1490 = CARTESIAN_POINT('',(20.924797082718,1.276547477311,
    25.475915697619));
#1491 = CARTESIAN_POINT('',(20.807614499415,1.32612062985,25.46570492672
    ));
#1492 = CARTESIAN_POINT('',(20.687597836966,1.363108572175,
    25.457813894385));
#1493 = CARTESIAN_POINT('',(20.565774116278,1.387698423461,
    25.452476383567));
#1494 = CARTESIAN_POINT('',(20.44305580968,1.4,25.449806198639));
#1495 = CARTESIAN_POINT('',(20.172838522033,1.4,25.449806198639));
#1496 = CARTESIAN_POINT('',(20.025404697155,1.382250071868,
    25.453658897311));
#1497 = CARTESIAN_POINT('',(19.879520332221,1.346758275831,
    25.461363228699));
#1498 = CARTESIAN_POINT('',(19.736807851995,1.293309100861,
    25.472677804317));
#1499 = CARTESIAN_POINT('',(19.599119328137,1.22154414736,
    25.487110365247));
#1500 = CARTESIAN_POINT('',(19.468676598767,1.131028750372,
    25.503864578252));
#1501 = CARTESIAN_POINT('',(19.348271695355,1.02136274624,25.52179123662
    ));
#1502 = CARTESIAN_POINT('',(19.146643845027,0.777636543134,
    25.555051169044));
#1503 = CARTESIAN_POINT('',(19.05984494021,0.644307694283,25.570901367)
  );
#1504 = CARTESIAN_POINT('',(18.987924814797,0.494461718095,
    25.585356138578));
#1505 = CARTESIAN_POINT('',(18.935840123229,0.331722381007,
    25.596573562146));
#1506 = CARTESIAN_POINT('',(18.906809703816,0.160819590845,
    25.60297134381));
#1507 = CARTESIAN_POINT('',(18.902345248021,-1.298015990264E-02,
    25.603847333052));
#1508 = CARTESIAN_POINT('',(18.922205905864,-0.184293230333,
    25.599467037348));
#1509 = CARTESIAN_POINT('',(18.99162855372,-0.454676592039,
    25.58518377833));
#1510 = CARTESIAN_POINT('',(19.028534681709,-0.558721905008,
    25.577714869243));
#1511 = CARTESIAN_POINT('',(19.074738347622,-0.659303049707,
    25.568609285306));
#1512 = CARTESIAN_POINT('',(19.129859233322,-0.755462562086,
    25.558167196952));
#1513 = CARTESIAN_POINT('',(19.193399858467,-0.846290891362,
    25.546767897767));
#1514 = CARTESIAN_POINT('',(19.264749483929,-0.930939010412,
    25.534846064472));
#1515 = CARTESIAN_POINT('',(19.343190040252,-1.00863699043,
    25.522859621877));
#1516 = CARTESIAN_POINT('',(19.521080662093,-1.155800911331,
    25.49847897775));
#1517 = CARTESIAN_POINT('',(19.621904345808,-1.223715643141,
    25.486156346443));
#1518 = CARTESIAN_POINT('',(19.729280320373,-1.281539129588,
    25.474870518886));
#1519 = CARTESIAN_POINT('',(19.842011989213,-1.328540491909,
    25.465187592697));
#1520 = CARTESIAN_POINT('',(19.958823160967,-1.364170034183,
    25.457583927951));
#1521 = CARTESIAN_POINT('',(20.07838216155,-1.3880546243,25.452398779761
    ));
#1522 = CARTESIAN_POINT('',(20.199327868381,-1.4,25.449806198639));
#1523 = CARTESIAN_POINT('',(20.443059841328,-1.4,25.449806198639));
#1524 = CARTESIAN_POINT('',(20.565776861769,-1.387697626425,
    25.45247655566));
#1525 = CARTESIAN_POINT('',(20.687596462328,-1.36310799746,
    25.457814020867));
#1526 = CARTESIAN_POINT('',(20.807608513341,-1.326121786961,
    25.465704656845));
#1527 = CARTESIAN_POINT('',(20.924788017634,-1.276551255351,
    25.475914889386));
#1528 = CARTESIAN_POINT('',(21.037940501525,-1.214169382903,
    25.488070589407));
#1529 = CARTESIAN_POINT('',(21.145638055328,-1.138754836065,
    25.501637575725));
#1530 = CARTESIAN_POINT('',(21.346234826608,-0.961904992936,
    25.530140062328));
#1531 = CARTESIAN_POINT('',(21.441171827408,-0.858826874966,
    25.545351236022));
#1532 = CARTESIAN_POINT('',(21.527089580036,-0.741302393275,
    25.560678369063));
#1533 = CARTESIAN_POINT('',(21.60060280778,-0.61055122203,
    25.574964994167));
#1534 = CARTESIAN_POINT('',(21.658819065354,-0.468452809625,
    25.586959799481));
#1535 = CARTESIAN_POINT('',(21.699346586853,-0.317402442227,
    25.595555600263));
#1536 = CARTESIAN_POINT('',(21.720297666788,-0.160203826886,25.6));
#1537 = CARTESIAN_POINT('',(21.720297666788,0.,25.6));
#1538 = CYLINDRICAL_SURFACE('',#1539,6.6);
#1539 = AXIS2_PLACEMENT_3D('',#1540,#1541,#1542);
#1540 = CARTESIAN_POINT('',(30.558802442494,-4.52E-15,19.));
#1541 = DIRECTION('',(1.,0.,0.));
#1542 = DIRECTION('',(0.,1.,0.));
#1543 = ADVANCED_FACE('',(#1544),#1555,.F.);
#1544 = FACE_BOUND('',#1545,.F.);
#1545 = EDGE_LOOP('',(#1546,#1547,#1553,#1554));
#1546 = ORIENTED_EDGE('',*,*,#1273,.F.);
#1547 = ORIENTED_EDGE('',*,*,#1548,.T.);
#1548 = EDGE_CURVE('',#1274,#628,#1549,.T.);
#1549 = LINE('',#1550,#1551);
#1550 = CARTESIAN_POINT('',(-34.06289934972,39.434570740655,5.));
#1551 = VECTOR('',#1552,1.);
#1552 = DIRECTION('',(-0.992484621597,0.122369423854,0.));
#1553 = ORIENTED_EDGE('',*,*,#627,.T.);
#1554 = ORIENTED_EDGE('',*,*,#1548,.F.);
#1555 = CYLINDRICAL_SURFACE('',#1556,1.4);
#1556 = AXIS2_PLACEMENT_3D('',#1557,#1558,#1559);
#1557 = CARTESIAN_POINT('',(-34.23421654312,38.04509227042,5.));
#1558 = DIRECTION('',(0.992484621597,-0.122369423854,-3.E-17));
#1559 = DIRECTION('',(0.122369423854,0.992484621597,0.));
#1560 = ADVANCED_FACE('',(#1561),#1572,.F.);
#1561 = FACE_BOUND('',#1562,.F.);
#1562 = EDGE_LOOP('',(#1563,#1564,#1570,#1571));
#1563 = ORIENTED_EDGE('',*,*,#1115,.F.);
#1564 = ORIENTED_EDGE('',*,*,#1565,.T.);
#1565 = EDGE_CURVE('',#1116,#679,#1566,.T.);
#1566 = LINE('',#1567,#1568);
#1567 = CARTESIAN_POINT('',(-34.40553373652,-36.65561380018,5.));
#1568 = VECTOR('',#1569,1.);
#1569 = DIRECTION('',(-0.992484621597,-0.122369423854,1.1E-16));
#1570 = ORIENTED_EDGE('',*,*,#678,.T.);
#1571 = ORIENTED_EDGE('',*,*,#1565,.F.);
#1572 = CYLINDRICAL_SURFACE('',#1573,1.4);
#1573 = AXIS2_PLACEMENT_3D('',#1574,#1575,#1576);
#1574 = CARTESIAN_POINT('',(-34.23421654312,-38.04509227042,5.));
#1575 = DIRECTION('',(0.992484621597,0.122369423854,-1.1E-16));
#1576 = DIRECTION('',(-0.122369423854,0.992484621597,-1.1E-16));
#1577 = ADVANCED_FACE('',(#1578),#1582,.F.);
#1578 = FACE_BOUND('',#1579,.F.);
#1579 = EDGE_LOOP('',(#1580,#1581));
#1580 = ORIENTED_EDGE('',*,*,#935,.F.);
#1581 = ORIENTED_EDGE('',*,*,#1356,.F.);
#1582 = PLANE('',#1583);
#1583 = AXIS2_PLACEMENT_3D('',#1584,#1585,#1586);
#1584 = CARTESIAN_POINT('',(3.5,6.5,5.));
#1585 = DIRECTION('',(0.,0.,1.));
#1586 = DIRECTION('',(1.,0.,0.));
#1587 = ADVANCED_FACE('',(#1588),#1599,.F.);
#1588 = FACE_BOUND('',#1589,.F.);
#1589 = EDGE_LOOP('',(#1590,#1591,#1597,#1598));
#1590 = ORIENTED_EDGE('',*,*,#1311,.F.);
#1591 = ORIENTED_EDGE('',*,*,#1592,.T.);
#1592 = EDGE_CURVE('',#1312,#1412,#1593,.T.);
#1593 = LINE('',#1594,#1595);
#1594 = CARTESIAN_POINT('',(-25.27970233321,0.,30.));
#1595 = VECTOR('',#1596,1.);
#1596 = DIRECTION('',(-0.,-0.,-1.));
#1597 = ORIENTED_EDGE('',*,*,#1411,.T.);
#1598 = ORIENTED_EDGE('',*,*,#1592,.F.);
#1599 = CYLINDRICAL_SURFACE('',#1600,1.4);
#1600 = AXIS2_PLACEMENT_3D('',#1601,#1602,#1603);
#1601 = CARTESIAN_POINT('',(-26.67970233321,0.,30.));
#1602 = DIRECTION('',(0.,0.,1.));
#1603 = DIRECTION('',(1.,0.,0.));
#1604 = ADVANCED_FACE('',(#1605),#1616,.F.);
#1605 = FACE_BOUND('',#1606,.F.);
#1606 = EDGE_LOOP('',(#1607,#1608,#1614,#1615));
#1607 = ORIENTED_EDGE('',*,*,#1322,.F.);
#1608 = ORIENTED_EDGE('',*,*,#1609,.T.);
#1609 = EDGE_CURVE('',#1323,#1477,#1610,.T.);
#1610 = LINE('',#1611,#1612);
#1611 = CARTESIAN_POINT('',(21.720297666788,0.,30.));
#1612 = VECTOR('',#1613,1.);
#1613 = DIRECTION('',(-0.,-0.,-1.));
#1614 = ORIENTED_EDGE('',*,*,#1476,.T.);
#1615 = ORIENTED_EDGE('',*,*,#1609,.F.);
#1616 = CYLINDRICAL_SURFACE('',#1617,1.4);
#1617 = AXIS2_PLACEMENT_3D('',#1618,#1619,#1620);
#1618 = CARTESIAN_POINT('',(20.320297666788,0.,30.));
#1619 = DIRECTION('',(0.,0.,1.));
#1620 = DIRECTION('',(1.,0.,0.));
#1621 = ( GEOMETRIC_REPRESENTATION_CONTEXT(3) 
GLOBAL_UNCERTAINTY_ASSIGNED_CONTEXT((#1625)) 
GLOBAL_UNIT_ASSIGNED_CONTEXT((#1622,#1623,#1624)) REPRESENTATION_CONTEXT
('Context #1','3D Context with UNIT and UNCERTAINTY') );
#1622 = ( LENGTH_UNIT() NAMED_UNIT(*) SI_UNIT(.MILLI.,.METRE.) );
#1623 = ( NAMED_UNIT(*) PLANE_ANGLE_UNIT() SI_UNIT($,.RADIAN.) );
#1624 = ( NAMED_UNIT(*) SI_UNIT($,.STERADIAN.) SOLID_ANGLE_UNIT() );
#1625 = UNCERTAINTY_MEASURE_WITH_UNIT(LENGTH_MEASURE(1.E-07),#1622,
  'distance_accuracy_value','confusion accuracy');
#1626 = PRODUCT_RELATED_PRODUCT_CATEGORY('part',$,(#7));
#1627 = MECHANICAL_DESIGN_GEOMETRIC_PRESENTATION_REPRESENTATION('',(
    #1628),#1621);
#1628 = STYLED_ITEM('color',(#1629),#15);
#1629 = PRESENTATION_STYLE_ASSIGNMENT((#1630,#1636));
#1630 = SURFACE_STYLE_USAGE(.BOTH.,#1631);
#1631 = SURFACE_SIDE_STYLE('',(#1632));
#1632 = SURFACE_STYLE_FILL_AREA(#1633);
#1633 = FILL_AREA_STYLE('',(#1634));
#1634 = FILL_AREA_STYLE_COLOUR('',#1635);
#1635 = COLOUR_RGB('',0.447058818107,0.474509808674,0.501960817233);
#1636 = CURVE_STYLE('',#1637,POSITIVE_LENGTH_MEASURE(0.1),#1638);
#1637 = DRAUGHTING_PRE_DEFINED_CURVE_FONT('continuous');
#1638 = COLOUR_RGB('',9.803921802644E-02,9.803921802644E-02,
  9.803921802644E-02);
ENDSEC;
END-ISO-10303-21;
