ISO-10303-21;
HEADER;
FILE_DESCRIPTION(('FreeCAD Model'),'2;1');
FILE_NAME('Open CASCADE Shape Model','2026-02-22T22:46:14',(''),(''),
  'Open CASCADE STEP processor 7.8','FreeCAD','Unknown');
FILE_SCHEMA(('AUTOMOTIVE_DESIGN { 1 0 10303 214 1 1 1 1 }'));
ENDSEC;
DATA;
#1 = APPLICATION_PROTOCOL_DEFINITION('international standard',
  'automotive_design',2000,#2);
#2 = APPLICATION_CONTEXT(
  'core data for automotive mechanical design processes');
#3 = SHAPE_DEFINITION_REPRESENTATION(#4,#10);
#4 = PRODUCT_DEFINITION_SHAPE('','',#5);
#5 = PRODUCT_DEFINITION('design','',#6,#9);
#6 = PRODUCT_DEFINITION_FORMATION('','',#7);
#7 = PRODUCT('Switch Adapter Housing','Switch Adapter Housing','',(#8));
#8 = PRODUCT_CONTEXT('',#2,'mechanical');
#9 = PRODUCT_DEFINITION_CONTEXT('part definition',#2,'design');
#10 = ADVANCED_BREP_SHAPE_REPRESENTATION('',(#11,#15),#801);
#11 = AXIS2_PLACEMENT_3D('',#12,#13,#14);
#12 = CARTESIAN_POINT('',(0.,0.,0.));
#13 = DIRECTION('',(0.,0.,1.));
#14 = DIRECTION('',(1.,0.,-0.));
#15 = MANIFOLD_SOLID_BREP('',#16);
#16 = CLOSED_SHELL('',(#17,#59,#90,#121,#237,#291,#303,#345,#369,#393,
    #417,#441,#465,#489,#513,#537,#561,#585,#602,#692,#716,#741,#758,
    #784));
#17 = ADVANCED_FACE('',(#18),#54,.T.);
#18 = FACE_BOUND('',#19,.F.);
#19 = EDGE_LOOP('',(#20,#30,#39,#47));
#20 = ORIENTED_EDGE('',*,*,#21,.T.);
#21 = EDGE_CURVE('',#22,#24,#26,.T.);
#22 = VERTEX_POINT('',#23);
#23 = CARTESIAN_POINT('',(50.,-24.25,0.));
#24 = VERTEX_POINT('',#25);
#25 = CARTESIAN_POINT('',(50.,-24.25,2.));
#26 = LINE('',#27,#28);
#27 = CARTESIAN_POINT('',(50.,-24.25,0.));
#28 = VECTOR('',#29,1.);
#29 = DIRECTION('',(0.,0.,1.));
#30 = ORIENTED_EDGE('',*,*,#31,.T.);
#31 = EDGE_CURVE('',#24,#32,#34,.T.);
#32 = VERTEX_POINT('',#33);
#33 = CARTESIAN_POINT('',(32.,-24.25,2.));
#34 = CIRCLE('',#35,9.);
#35 = AXIS2_PLACEMENT_3D('',#36,#37,#38);
#36 = CARTESIAN_POINT('',(41.,-24.25,2.));
#37 = DIRECTION('',(0.,0.,1.));
#38 = DIRECTION('',(1.,0.,0.));
#39 = ORIENTED_EDGE('',*,*,#40,.F.);
#40 = EDGE_CURVE('',#41,#32,#43,.T.);
#41 = VERTEX_POINT('',#42);
#42 = CARTESIAN_POINT('',(32.,-24.25,0.));
#43 = LINE('',#44,#45);
#44 = CARTESIAN_POINT('',(32.,-24.25,0.));
#45 = VECTOR('',#46,1.);
#46 = DIRECTION('',(0.,0.,1.));
#47 = ORIENTED_EDGE('',*,*,#48,.F.);
#48 = EDGE_CURVE('',#22,#41,#49,.T.);
#49 = CIRCLE('',#50,9.);
#50 = AXIS2_PLACEMENT_3D('',#51,#52,#53);
#51 = CARTESIAN_POINT('',(41.,-24.25,0.));
#52 = DIRECTION('',(0.,0.,1.));
#53 = DIRECTION('',(1.,0.,0.));
#54 = CYLINDRICAL_SURFACE('',#55,9.);
#55 = AXIS2_PLACEMENT_3D('',#56,#57,#58);
#56 = CARTESIAN_POINT('',(41.,-24.25,0.));
#57 = DIRECTION('',(-0.,-0.,-1.));
#58 = DIRECTION('',(1.,0.,0.));
#59 = ADVANCED_FACE('',(#60),#85,.T.);
#60 = FACE_BOUND('',#61,.T.);
#61 = EDGE_LOOP('',(#62,#63,#71,#79));
#62 = ORIENTED_EDGE('',*,*,#21,.T.);
#63 = ORIENTED_EDGE('',*,*,#64,.T.);
#64 = EDGE_CURVE('',#24,#65,#67,.T.);
#65 = VERTEX_POINT('',#66);
#66 = CARTESIAN_POINT('',(50.,-31.75,2.));
#67 = LINE('',#68,#69);
#68 = CARTESIAN_POINT('',(50.,-24.25,2.));
#69 = VECTOR('',#70,1.);
#70 = DIRECTION('',(0.,-1.,0.));
#71 = ORIENTED_EDGE('',*,*,#72,.F.);
#72 = EDGE_CURVE('',#73,#65,#75,.T.);
#73 = VERTEX_POINT('',#74);
#74 = CARTESIAN_POINT('',(50.,-31.75,0.));
#75 = LINE('',#76,#77);
#76 = CARTESIAN_POINT('',(50.,-31.75,0.));
#77 = VECTOR('',#78,1.);
#78 = DIRECTION('',(0.,0.,1.));
#79 = ORIENTED_EDGE('',*,*,#80,.F.);
#80 = EDGE_CURVE('',#22,#73,#81,.T.);
#81 = LINE('',#82,#83);
#82 = CARTESIAN_POINT('',(50.,-24.25,0.));
#83 = VECTOR('',#84,1.);
#84 = DIRECTION('',(0.,-1.,0.));
#85 = PLANE('',#86);
#86 = AXIS2_PLACEMENT_3D('',#87,#88,#89);
#87 = CARTESIAN_POINT('',(50.,-24.25,0.));
#88 = DIRECTION('',(1.,0.,0.));
#89 = DIRECTION('',(0.,-1.,0.));
#90 = ADVANCED_FACE('',(#91),#116,.F.);
#91 = FACE_BOUND('',#92,.F.);
#92 = EDGE_LOOP('',(#93,#94,#102,#110));
#93 = ORIENTED_EDGE('',*,*,#40,.T.);
#94 = ORIENTED_EDGE('',*,*,#95,.T.);
#95 = EDGE_CURVE('',#32,#96,#98,.T.);
#96 = VERTEX_POINT('',#97);
#97 = CARTESIAN_POINT('',(32.,-31.75,2.));
#98 = LINE('',#99,#100);
#99 = CARTESIAN_POINT('',(32.,-24.25,2.));
#100 = VECTOR('',#101,1.);
#101 = DIRECTION('',(0.,-1.,0.));
#102 = ORIENTED_EDGE('',*,*,#103,.F.);
#103 = EDGE_CURVE('',#104,#96,#106,.T.);
#104 = VERTEX_POINT('',#105);
#105 = CARTESIAN_POINT('',(32.,-31.75,0.));
#106 = LINE('',#107,#108);
#107 = CARTESIAN_POINT('',(32.,-31.75,0.));
#108 = VECTOR('',#109,1.);
#109 = DIRECTION('',(0.,0.,1.));
#110 = ORIENTED_EDGE('',*,*,#111,.F.);
#111 = EDGE_CURVE('',#41,#104,#112,.T.);
#112 = LINE('',#113,#114);
#113 = CARTESIAN_POINT('',(32.,-24.25,0.));
#114 = VECTOR('',#115,1.);
#115 = DIRECTION('',(0.,-1.,0.));
#116 = PLANE('',#117);
#117 = AXIS2_PLACEMENT_3D('',#118,#119,#120);
#118 = CARTESIAN_POINT('',(32.,-24.25,0.));
#119 = DIRECTION('',(1.,0.,0.));
#120 = DIRECTION('',(0.,-1.,0.));
#121 = ADVANCED_FACE('',(#122,#134),#232,.F.);
#122 = FACE_BOUND('',#123,.F.);
#123 = EDGE_LOOP('',(#124,#125,#126,#133));
#124 = ORIENTED_EDGE('',*,*,#48,.T.);
#125 = ORIENTED_EDGE('',*,*,#111,.T.);
#126 = ORIENTED_EDGE('',*,*,#127,.T.);
#127 = EDGE_CURVE('',#104,#73,#128,.T.);
#128 = CIRCLE('',#129,9.);
#129 = AXIS2_PLACEMENT_3D('',#130,#131,#132);
#130 = CARTESIAN_POINT('',(41.,-31.75,0.));
#131 = DIRECTION('',(0.,0.,1.));
#132 = DIRECTION('',(1.,0.,0.));
#133 = ORIENTED_EDGE('',*,*,#80,.F.);
#134 = FACE_BOUND('',#135,.F.);
#135 = EDGE_LOOP('',(#136,#146,#154,#162,#170,#178,#186,#194,#202,#210,
    #218,#226));
#136 = ORIENTED_EDGE('',*,*,#137,.T.);
#137 = EDGE_CURVE('',#138,#140,#142,.T.);
#138 = VERTEX_POINT('',#139);
#139 = CARTESIAN_POINT('',(39.,-20.25,0.));
#140 = VERTEX_POINT('',#141);
#141 = CARTESIAN_POINT('',(43.,-20.25,0.));
#142 = LINE('',#143,#144);
#143 = CARTESIAN_POINT('',(39.,-20.25,0.));
#144 = VECTOR('',#145,1.);
#145 = DIRECTION('',(1.,0.,0.));
#146 = ORIENTED_EDGE('',*,*,#147,.T.);
#147 = EDGE_CURVE('',#140,#148,#150,.T.);
#148 = VERTEX_POINT('',#149);
#149 = CARTESIAN_POINT('',(43.,-21.25,0.));
#150 = LINE('',#151,#152);
#151 = CARTESIAN_POINT('',(43.,-20.25,0.));
#152 = VECTOR('',#153,1.);
#153 = DIRECTION('',(0.,-1.,0.));
#154 = ORIENTED_EDGE('',*,*,#155,.T.);
#155 = EDGE_CURVE('',#148,#156,#158,.T.);
#156 = VERTEX_POINT('',#157);
#157 = CARTESIAN_POINT('',(45.499999999984,-21.25,0.));
#158 = LINE('',#159,#160);
#159 = CARTESIAN_POINT('',(43.,-21.25,0.));
#160 = VECTOR('',#161,1.);
#161 = DIRECTION('',(1.,0.,0.));
#162 = ORIENTED_EDGE('',*,*,#163,.T.);
#163 = EDGE_CURVE('',#156,#164,#166,.T.);
#164 = VERTEX_POINT('',#165);
#165 = CARTESIAN_POINT('',(45.499999999984,-34.75,0.));
#166 = LINE('',#167,#168);
#167 = CARTESIAN_POINT('',(45.499999999984,-21.25,0.));
#168 = VECTOR('',#169,1.);
#169 = DIRECTION('',(0.,-1.,0.));
#170 = ORIENTED_EDGE('',*,*,#171,.T.);
#171 = EDGE_CURVE('',#164,#172,#174,.T.);
#172 = VERTEX_POINT('',#173);
#173 = CARTESIAN_POINT('',(43.,-34.75,0.));
#174 = LINE('',#175,#176);
#175 = CARTESIAN_POINT('',(45.499999999984,-34.75,0.));
#176 = VECTOR('',#177,1.);
#177 = DIRECTION('',(-1.,0.,0.));
#178 = ORIENTED_EDGE('',*,*,#179,.T.);
#179 = EDGE_CURVE('',#172,#180,#182,.T.);
#180 = VERTEX_POINT('',#181);
#181 = CARTESIAN_POINT('',(43.,-35.75,0.));
#182 = LINE('',#183,#184);
#183 = CARTESIAN_POINT('',(43.,-34.75,0.));
#184 = VECTOR('',#185,1.);
#185 = DIRECTION('',(0.,-1.,0.));
#186 = ORIENTED_EDGE('',*,*,#187,.T.);
#187 = EDGE_CURVE('',#180,#188,#190,.T.);
#188 = VERTEX_POINT('',#189);
#189 = CARTESIAN_POINT('',(39.,-35.75,0.));
#190 = LINE('',#191,#192);
#191 = CARTESIAN_POINT('',(43.,-35.75,0.));
#192 = VECTOR('',#193,1.);
#193 = DIRECTION('',(-1.,0.,0.));
#194 = ORIENTED_EDGE('',*,*,#195,.T.);
#195 = EDGE_CURVE('',#188,#196,#198,.T.);
#196 = VERTEX_POINT('',#197);
#197 = CARTESIAN_POINT('',(39.,-34.75,0.));
#198 = LINE('',#199,#200);
#199 = CARTESIAN_POINT('',(39.,-35.75,0.));
#200 = VECTOR('',#201,1.);
#201 = DIRECTION('',(0.,1.,0.));
#202 = ORIENTED_EDGE('',*,*,#203,.T.);
#203 = EDGE_CURVE('',#196,#204,#206,.T.);
#204 = VERTEX_POINT('',#205);
#205 = CARTESIAN_POINT('',(36.499999999984,-34.75,0.));
#206 = LINE('',#207,#208);
#207 = CARTESIAN_POINT('',(39.,-34.75,0.));
#208 = VECTOR('',#209,1.);
#209 = DIRECTION('',(-1.,0.,0.));
#210 = ORIENTED_EDGE('',*,*,#211,.T.);
#211 = EDGE_CURVE('',#204,#212,#214,.T.);
#212 = VERTEX_POINT('',#213);
#213 = CARTESIAN_POINT('',(36.499999999984,-21.25,0.));
#214 = LINE('',#215,#216);
#215 = CARTESIAN_POINT('',(36.499999999984,-34.75,0.));
#216 = VECTOR('',#217,1.);
#217 = DIRECTION('',(0.,1.,0.));
#218 = ORIENTED_EDGE('',*,*,#219,.T.);
#219 = EDGE_CURVE('',#212,#220,#222,.T.);
#220 = VERTEX_POINT('',#221);
#221 = CARTESIAN_POINT('',(39.,-21.25,0.));
#222 = LINE('',#223,#224);
#223 = CARTESIAN_POINT('',(36.499999999984,-21.25,0.));
#224 = VECTOR('',#225,1.);
#225 = DIRECTION('',(1.,0.,0.));
#226 = ORIENTED_EDGE('',*,*,#227,.T.);
#227 = EDGE_CURVE('',#220,#138,#228,.T.);
#228 = LINE('',#229,#230);
#229 = CARTESIAN_POINT('',(39.,-21.25,0.));
#230 = VECTOR('',#231,1.);
#231 = DIRECTION('',(0.,1.,0.));
#232 = PLANE('',#233);
#233 = AXIS2_PLACEMENT_3D('',#234,#235,#236);
#234 = CARTESIAN_POINT('',(40.999999999994,-28.,0.));
#235 = DIRECTION('',(0.,0.,1.));
#236 = DIRECTION('',(1.,0.,0.));
#237 = ADVANCED_FACE('',(#238,#250),#286,.T.);
#238 = FACE_BOUND('',#239,.T.);
#239 = EDGE_LOOP('',(#240,#241,#242,#249));
#240 = ORIENTED_EDGE('',*,*,#31,.T.);
#241 = ORIENTED_EDGE('',*,*,#95,.T.);
#242 = ORIENTED_EDGE('',*,*,#243,.T.);
#243 = EDGE_CURVE('',#96,#65,#244,.T.);
#244 = CIRCLE('',#245,9.);
#245 = AXIS2_PLACEMENT_3D('',#246,#247,#248);
#246 = CARTESIAN_POINT('',(41.,-31.75,2.));
#247 = DIRECTION('',(0.,0.,1.));
#248 = DIRECTION('',(1.,0.,0.));
#249 = ORIENTED_EDGE('',*,*,#64,.F.);
#250 = FACE_BOUND('',#251,.T.);
#251 = EDGE_LOOP('',(#252,#263,#271,#280));
#252 = ORIENTED_EDGE('',*,*,#253,.F.);
#253 = EDGE_CURVE('',#254,#256,#258,.T.);
#254 = VERTEX_POINT('',#255);
#255 = CARTESIAN_POINT('',(47.35,-24.25,2.));
#256 = VERTEX_POINT('',#257);
#257 = CARTESIAN_POINT('',(34.65,-24.25,2.));
#258 = CIRCLE('',#259,6.35);
#259 = AXIS2_PLACEMENT_3D('',#260,#261,#262);
#260 = CARTESIAN_POINT('',(41.,-24.25,2.));
#261 = DIRECTION('',(0.,0.,1.));
#262 = DIRECTION('',(1.,0.,0.));
#263 = ORIENTED_EDGE('',*,*,#264,.T.);
#264 = EDGE_CURVE('',#254,#265,#267,.T.);
#265 = VERTEX_POINT('',#266);
#266 = CARTESIAN_POINT('',(47.35,-31.75,2.));
#267 = LINE('',#268,#269);
#268 = CARTESIAN_POINT('',(47.35,-24.25,2.));
#269 = VECTOR('',#270,1.);
#270 = DIRECTION('',(0.,-1.,0.));
#271 = ORIENTED_EDGE('',*,*,#272,.F.);
#272 = EDGE_CURVE('',#273,#265,#275,.T.);
#273 = VERTEX_POINT('',#274);
#274 = CARTESIAN_POINT('',(34.65,-31.75,2.));
#275 = CIRCLE('',#276,6.35);
#276 = AXIS2_PLACEMENT_3D('',#277,#278,#279);
#277 = CARTESIAN_POINT('',(41.,-31.75,2.));
#278 = DIRECTION('',(0.,0.,1.));
#279 = DIRECTION('',(1.,0.,0.));
#280 = ORIENTED_EDGE('',*,*,#281,.F.);
#281 = EDGE_CURVE('',#256,#273,#282,.T.);
#282 = LINE('',#283,#284);
#283 = CARTESIAN_POINT('',(34.65,-24.25,2.));
#284 = VECTOR('',#285,1.);
#285 = DIRECTION('',(0.,-1.,0.));
#286 = PLANE('',#287);
#287 = AXIS2_PLACEMENT_3D('',#288,#289,#290);
#288 = CARTESIAN_POINT('',(40.999999999994,-28.,2.));
#289 = DIRECTION('',(0.,0.,1.));
#290 = DIRECTION('',(1.,0.,0.));
#291 = ADVANCED_FACE('',(#292),#298,.T.);
#292 = FACE_BOUND('',#293,.F.);
#293 = EDGE_LOOP('',(#294,#295,#296,#297));
#294 = ORIENTED_EDGE('',*,*,#103,.T.);
#295 = ORIENTED_EDGE('',*,*,#243,.T.);
#296 = ORIENTED_EDGE('',*,*,#72,.F.);
#297 = ORIENTED_EDGE('',*,*,#127,.F.);
#298 = CYLINDRICAL_SURFACE('',#299,9.);
#299 = AXIS2_PLACEMENT_3D('',#300,#301,#302);
#300 = CARTESIAN_POINT('',(41.,-31.75,0.));
#301 = DIRECTION('',(-0.,-0.,-1.));
#302 = DIRECTION('',(1.,0.,0.));
#303 = ADVANCED_FACE('',(#304,#329),#340,.T.);
#304 = FACE_BOUND('',#305,.T.);
#305 = EDGE_LOOP('',(#306,#307,#315,#323));
#306 = ORIENTED_EDGE('',*,*,#137,.T.);
#307 = ORIENTED_EDGE('',*,*,#308,.T.);
#308 = EDGE_CURVE('',#140,#309,#311,.T.);
#309 = VERTEX_POINT('',#310);
#310 = CARTESIAN_POINT('',(43.,-20.25,22.));
#311 = LINE('',#312,#313);
#312 = CARTESIAN_POINT('',(43.,-20.25,0.));
#313 = VECTOR('',#314,1.);
#314 = DIRECTION('',(0.,0.,1.));
#315 = ORIENTED_EDGE('',*,*,#316,.F.);
#316 = EDGE_CURVE('',#317,#309,#319,.T.);
#317 = VERTEX_POINT('',#318);
#318 = CARTESIAN_POINT('',(39.,-20.25,22.));
#319 = LINE('',#320,#321);
#320 = CARTESIAN_POINT('',(39.,-20.25,22.));
#321 = VECTOR('',#322,1.);
#322 = DIRECTION('',(1.,0.,0.));
#323 = ORIENTED_EDGE('',*,*,#324,.F.);
#324 = EDGE_CURVE('',#138,#317,#325,.T.);
#325 = LINE('',#326,#327);
#326 = CARTESIAN_POINT('',(39.,-20.25,2.));
#327 = VECTOR('',#328,1.);
#328 = DIRECTION('',(0.,0.,1.));
#329 = FACE_BOUND('',#330,.T.);
#330 = EDGE_LOOP('',(#331));
#331 = ORIENTED_EDGE('',*,*,#332,.F.);
#332 = EDGE_CURVE('',#333,#333,#335,.T.);
#333 = VERTEX_POINT('',#334);
#334 = CARTESIAN_POINT('',(42.4,-20.25,15.));
#335 = CIRCLE('',#336,1.4);
#336 = AXIS2_PLACEMENT_3D('',#337,#338,#339);
#337 = CARTESIAN_POINT('',(41.,-20.25,15.));
#338 = DIRECTION('',(0.,-1.,0.));
#339 = DIRECTION('',(1.,0.,0.));
#340 = PLANE('',#341);
#341 = AXIS2_PLACEMENT_3D('',#342,#343,#344);
#342 = CARTESIAN_POINT('',(41.,-20.25,11.));
#343 = DIRECTION('',(-0.,-1.,-0.));
#344 = DIRECTION('',(0.,0.,-1.));
#345 = ADVANCED_FACE('',(#346),#364,.T.);
#346 = FACE_BOUND('',#347,.T.);
#347 = EDGE_LOOP('',(#348,#349,#350,#358));
#348 = ORIENTED_EDGE('',*,*,#308,.F.);
#349 = ORIENTED_EDGE('',*,*,#147,.T.);
#350 = ORIENTED_EDGE('',*,*,#351,.T.);
#351 = EDGE_CURVE('',#148,#352,#354,.T.);
#352 = VERTEX_POINT('',#353);
#353 = CARTESIAN_POINT('',(43.,-21.25,22.));
#354 = LINE('',#355,#356);
#355 = CARTESIAN_POINT('',(43.,-21.25,0.));
#356 = VECTOR('',#357,1.);
#357 = DIRECTION('',(0.,0.,1.));
#358 = ORIENTED_EDGE('',*,*,#359,.F.);
#359 = EDGE_CURVE('',#309,#352,#360,.T.);
#360 = LINE('',#361,#362);
#361 = CARTESIAN_POINT('',(43.,-20.25,22.));
#362 = VECTOR('',#363,1.);
#363 = DIRECTION('',(0.,-1.,0.));
#364 = PLANE('',#365);
#365 = AXIS2_PLACEMENT_3D('',#366,#367,#368);
#366 = CARTESIAN_POINT('',(43.,-20.75,11.));
#367 = DIRECTION('',(-1.,-0.,-0.));
#368 = DIRECTION('',(0.,0.,-1.));
#369 = ADVANCED_FACE('',(#370),#388,.T.);
#370 = FACE_BOUND('',#371,.T.);
#371 = EDGE_LOOP('',(#372,#373,#374,#382));
#372 = ORIENTED_EDGE('',*,*,#351,.F.);
#373 = ORIENTED_EDGE('',*,*,#155,.T.);
#374 = ORIENTED_EDGE('',*,*,#375,.T.);
#375 = EDGE_CURVE('',#156,#376,#378,.T.);
#376 = VERTEX_POINT('',#377);
#377 = CARTESIAN_POINT('',(45.5,-21.25,22.));
#378 = LINE('',#379,#380);
#379 = CARTESIAN_POINT('',(45.499999999984,-21.25,0.));
#380 = VECTOR('',#381,1.);
#381 = DIRECTION('',(0.,0.,1.));
#382 = ORIENTED_EDGE('',*,*,#383,.F.);
#383 = EDGE_CURVE('',#352,#376,#384,.T.);
#384 = LINE('',#385,#386);
#385 = CARTESIAN_POINT('',(43.,-21.25,22.));
#386 = VECTOR('',#387,1.);
#387 = DIRECTION('',(1.,0.,0.));
#388 = PLANE('',#389);
#389 = AXIS2_PLACEMENT_3D('',#390,#391,#392);
#390 = CARTESIAN_POINT('',(44.249999999999,-21.25,11.000000000004));
#391 = DIRECTION('',(-0.,-1.,-0.));
#392 = DIRECTION('',(0.,0.,-1.));
#393 = ADVANCED_FACE('',(#394),#412,.T.);
#394 = FACE_BOUND('',#395,.T.);
#395 = EDGE_LOOP('',(#396,#397,#398,#406));
#396 = ORIENTED_EDGE('',*,*,#375,.F.);
#397 = ORIENTED_EDGE('',*,*,#163,.T.);
#398 = ORIENTED_EDGE('',*,*,#399,.T.);
#399 = EDGE_CURVE('',#164,#400,#402,.T.);
#400 = VERTEX_POINT('',#401);
#401 = CARTESIAN_POINT('',(45.5,-34.75,22.));
#402 = LINE('',#403,#404);
#403 = CARTESIAN_POINT('',(45.499999999984,-34.75,0.));
#404 = VECTOR('',#405,1.);
#405 = DIRECTION('',(0.,0.,1.));
#406 = ORIENTED_EDGE('',*,*,#407,.F.);
#407 = EDGE_CURVE('',#376,#400,#408,.T.);
#408 = LINE('',#409,#410);
#409 = CARTESIAN_POINT('',(45.5,-21.25,22.));
#410 = VECTOR('',#411,1.);
#411 = DIRECTION('',(0.,-1.,0.));
#412 = PLANE('',#413);
#413 = AXIS2_PLACEMENT_3D('',#414,#415,#416);
#414 = CARTESIAN_POINT('',(45.499999999996,-28.,11.));
#415 = DIRECTION('',(-1.,0.,3.97E-13));
#416 = DIRECTION('',(-3.97E-13,0.,-1.));
#417 = ADVANCED_FACE('',(#418),#436,.T.);
#418 = FACE_BOUND('',#419,.T.);
#419 = EDGE_LOOP('',(#420,#421,#422,#430));
#420 = ORIENTED_EDGE('',*,*,#399,.F.);
#421 = ORIENTED_EDGE('',*,*,#171,.T.);
#422 = ORIENTED_EDGE('',*,*,#423,.T.);
#423 = EDGE_CURVE('',#172,#424,#426,.T.);
#424 = VERTEX_POINT('',#425);
#425 = CARTESIAN_POINT('',(43.,-34.75,22.));
#426 = LINE('',#427,#428);
#427 = CARTESIAN_POINT('',(43.,-34.75,2.));
#428 = VECTOR('',#429,1.);
#429 = DIRECTION('',(0.,0.,1.));
#430 = ORIENTED_EDGE('',*,*,#431,.F.);
#431 = EDGE_CURVE('',#400,#424,#432,.T.);
#432 = LINE('',#433,#434);
#433 = CARTESIAN_POINT('',(45.5,-34.75,22.));
#434 = VECTOR('',#435,1.);
#435 = DIRECTION('',(-1.,0.,0.));
#436 = PLANE('',#437);
#437 = AXIS2_PLACEMENT_3D('',#438,#439,#440);
#438 = CARTESIAN_POINT('',(44.249999999999,-34.75,11.000000000004));
#439 = DIRECTION('',(0.,1.,0.));
#440 = DIRECTION('',(0.,0.,1.));
#441 = ADVANCED_FACE('',(#442),#460,.T.);
#442 = FACE_BOUND('',#443,.T.);
#443 = EDGE_LOOP('',(#444,#445,#453,#459));
#444 = ORIENTED_EDGE('',*,*,#179,.T.);
#445 = ORIENTED_EDGE('',*,*,#446,.T.);
#446 = EDGE_CURVE('',#180,#447,#449,.T.);
#447 = VERTEX_POINT('',#448);
#448 = CARTESIAN_POINT('',(43.,-35.75,22.));
#449 = LINE('',#450,#451);
#450 = CARTESIAN_POINT('',(43.,-35.75,0.));
#451 = VECTOR('',#452,1.);
#452 = DIRECTION('',(0.,0.,1.));
#453 = ORIENTED_EDGE('',*,*,#454,.F.);
#454 = EDGE_CURVE('',#424,#447,#455,.T.);
#455 = LINE('',#456,#457);
#456 = CARTESIAN_POINT('',(43.,-34.75,22.));
#457 = VECTOR('',#458,1.);
#458 = DIRECTION('',(0.,-1.,0.));
#459 = ORIENTED_EDGE('',*,*,#423,.F.);
#460 = PLANE('',#461);
#461 = AXIS2_PLACEMENT_3D('',#462,#463,#464);
#462 = CARTESIAN_POINT('',(43.,-35.25,11.));
#463 = DIRECTION('',(-1.,-0.,-0.));
#464 = DIRECTION('',(0.,0.,-1.));
#465 = ADVANCED_FACE('',(#466),#484,.T.);
#466 = FACE_BOUND('',#467,.T.);
#467 = EDGE_LOOP('',(#468,#469,#470,#478));
#468 = ORIENTED_EDGE('',*,*,#446,.F.);
#469 = ORIENTED_EDGE('',*,*,#187,.T.);
#470 = ORIENTED_EDGE('',*,*,#471,.T.);
#471 = EDGE_CURVE('',#188,#472,#474,.T.);
#472 = VERTEX_POINT('',#473);
#473 = CARTESIAN_POINT('',(39.,-35.75,22.));
#474 = LINE('',#475,#476);
#475 = CARTESIAN_POINT('',(39.,-35.75,0.));
#476 = VECTOR('',#477,1.);
#477 = DIRECTION('',(0.,0.,1.));
#478 = ORIENTED_EDGE('',*,*,#479,.F.);
#479 = EDGE_CURVE('',#447,#472,#480,.T.);
#480 = LINE('',#481,#482);
#481 = CARTESIAN_POINT('',(43.,-35.75,22.));
#482 = VECTOR('',#483,1.);
#483 = DIRECTION('',(-1.,0.,0.));
#484 = PLANE('',#485);
#485 = AXIS2_PLACEMENT_3D('',#486,#487,#488);
#486 = CARTESIAN_POINT('',(41.,-35.75,11.));
#487 = DIRECTION('',(0.,1.,0.));
#488 = DIRECTION('',(0.,0.,1.));
#489 = ADVANCED_FACE('',(#490),#508,.T.);
#490 = FACE_BOUND('',#491,.T.);
#491 = EDGE_LOOP('',(#492,#493,#494,#502));
#492 = ORIENTED_EDGE('',*,*,#471,.F.);
#493 = ORIENTED_EDGE('',*,*,#195,.T.);
#494 = ORIENTED_EDGE('',*,*,#495,.T.);
#495 = EDGE_CURVE('',#196,#496,#498,.T.);
#496 = VERTEX_POINT('',#497);
#497 = CARTESIAN_POINT('',(39.,-34.75,22.));
#498 = LINE('',#499,#500);
#499 = CARTESIAN_POINT('',(39.,-34.75,2.));
#500 = VECTOR('',#501,1.);
#501 = DIRECTION('',(0.,0.,1.));
#502 = ORIENTED_EDGE('',*,*,#503,.F.);
#503 = EDGE_CURVE('',#472,#496,#504,.T.);
#504 = LINE('',#505,#506);
#505 = CARTESIAN_POINT('',(39.,-35.75,22.));
#506 = VECTOR('',#507,1.);
#507 = DIRECTION('',(0.,1.,0.));
#508 = PLANE('',#509);
#509 = AXIS2_PLACEMENT_3D('',#510,#511,#512);
#510 = CARTESIAN_POINT('',(39.,-35.25,11.));
#511 = DIRECTION('',(1.,0.,0.));
#512 = DIRECTION('',(0.,0.,1.));
#513 = ADVANCED_FACE('',(#514),#532,.T.);
#514 = FACE_BOUND('',#515,.T.);
#515 = EDGE_LOOP('',(#516,#517,#525,#531));
#516 = ORIENTED_EDGE('',*,*,#203,.T.);
#517 = ORIENTED_EDGE('',*,*,#518,.T.);
#518 = EDGE_CURVE('',#204,#519,#521,.T.);
#519 = VERTEX_POINT('',#520);
#520 = CARTESIAN_POINT('',(36.5,-34.75,22.));
#521 = LINE('',#522,#523);
#522 = CARTESIAN_POINT('',(36.499999999984,-34.75,0.));
#523 = VECTOR('',#524,1.);
#524 = DIRECTION('',(0.,0.,1.));
#525 = ORIENTED_EDGE('',*,*,#526,.F.);
#526 = EDGE_CURVE('',#496,#519,#527,.T.);
#527 = LINE('',#528,#529);
#528 = CARTESIAN_POINT('',(39.,-34.75,22.));
#529 = VECTOR('',#530,1.);
#530 = DIRECTION('',(-1.,0.,0.));
#531 = ORIENTED_EDGE('',*,*,#495,.F.);
#532 = PLANE('',#533);
#533 = AXIS2_PLACEMENT_3D('',#534,#535,#536);
#534 = CARTESIAN_POINT('',(37.749999999999,-34.75,10.999999999996));
#535 = DIRECTION('',(0.,1.,0.));
#536 = DIRECTION('',(0.,0.,1.));
#537 = ADVANCED_FACE('',(#538),#556,.T.);
#538 = FACE_BOUND('',#539,.T.);
#539 = EDGE_LOOP('',(#540,#541,#542,#550));
#540 = ORIENTED_EDGE('',*,*,#518,.F.);
#541 = ORIENTED_EDGE('',*,*,#211,.T.);
#542 = ORIENTED_EDGE('',*,*,#543,.T.);
#543 = EDGE_CURVE('',#212,#544,#546,.T.);
#544 = VERTEX_POINT('',#545);
#545 = CARTESIAN_POINT('',(36.5,-21.25,22.));
#546 = LINE('',#547,#548);
#547 = CARTESIAN_POINT('',(36.5,-21.25,2.));
#548 = VECTOR('',#549,1.);
#549 = DIRECTION('',(0.,0.,1.));
#550 = ORIENTED_EDGE('',*,*,#551,.F.);
#551 = EDGE_CURVE('',#519,#544,#552,.T.);
#552 = LINE('',#553,#554);
#553 = CARTESIAN_POINT('',(36.5,-34.75,22.));
#554 = VECTOR('',#555,1.);
#555 = DIRECTION('',(0.,1.,0.));
#556 = PLANE('',#557);
#557 = AXIS2_PLACEMENT_3D('',#558,#559,#560);
#558 = CARTESIAN_POINT('',(36.499999999996,-28.,11.));
#559 = DIRECTION('',(1.,0.,-3.97E-13));
#560 = DIRECTION('',(3.97E-13,0.,1.));
#561 = ADVANCED_FACE('',(#562),#580,.T.);
#562 = FACE_BOUND('',#563,.T.);
#563 = EDGE_LOOP('',(#564,#565,#573,#579));
#564 = ORIENTED_EDGE('',*,*,#219,.T.);
#565 = ORIENTED_EDGE('',*,*,#566,.T.);
#566 = EDGE_CURVE('',#220,#567,#569,.T.);
#567 = VERTEX_POINT('',#568);
#568 = CARTESIAN_POINT('',(39.,-21.25,22.));
#569 = LINE('',#570,#571);
#570 = CARTESIAN_POINT('',(39.,-21.25,0.));
#571 = VECTOR('',#572,1.);
#572 = DIRECTION('',(0.,0.,1.));
#573 = ORIENTED_EDGE('',*,*,#574,.F.);
#574 = EDGE_CURVE('',#544,#567,#575,.T.);
#575 = LINE('',#576,#577);
#576 = CARTESIAN_POINT('',(36.5,-21.25,22.));
#577 = VECTOR('',#578,1.);
#578 = DIRECTION('',(1.,0.,0.));
#579 = ORIENTED_EDGE('',*,*,#543,.F.);
#580 = PLANE('',#581);
#581 = AXIS2_PLACEMENT_3D('',#582,#583,#584);
#582 = CARTESIAN_POINT('',(37.749999999999,-21.25,10.999999999996));
#583 = DIRECTION('',(-0.,-1.,-0.));
#584 = DIRECTION('',(0.,0.,-1.));
#585 = ADVANCED_FACE('',(#586),#597,.T.);
#586 = FACE_BOUND('',#587,.T.);
#587 = EDGE_LOOP('',(#588,#589,#590,#591));
#588 = ORIENTED_EDGE('',*,*,#566,.F.);
#589 = ORIENTED_EDGE('',*,*,#227,.T.);
#590 = ORIENTED_EDGE('',*,*,#324,.T.);
#591 = ORIENTED_EDGE('',*,*,#592,.F.);
#592 = EDGE_CURVE('',#567,#317,#593,.T.);
#593 = LINE('',#594,#595);
#594 = CARTESIAN_POINT('',(39.,-21.25,22.));
#595 = VECTOR('',#596,1.);
#596 = DIRECTION('',(0.,1.,0.));
#597 = PLANE('',#598);
#598 = AXIS2_PLACEMENT_3D('',#599,#600,#601);
#599 = CARTESIAN_POINT('',(39.,-20.75,11.));
#600 = DIRECTION('',(1.,0.,0.));
#601 = DIRECTION('',(0.,0.,1.));
#602 = ADVANCED_FACE('',(#603,#629),#687,.T.);
#603 = FACE_BOUND('',#604,.F.);
#604 = EDGE_LOOP('',(#605,#613,#622,#628));
#605 = ORIENTED_EDGE('',*,*,#606,.T.);
#606 = EDGE_CURVE('',#254,#607,#609,.T.);
#607 = VERTEX_POINT('',#608);
#608 = CARTESIAN_POINT('',(47.35,-24.25,22.));
#609 = LINE('',#610,#611);
#610 = CARTESIAN_POINT('',(47.35,-24.25,2.));
#611 = VECTOR('',#612,1.);
#612 = DIRECTION('',(0.,0.,1.));
#613 = ORIENTED_EDGE('',*,*,#614,.T.);
#614 = EDGE_CURVE('',#607,#615,#617,.T.);
#615 = VERTEX_POINT('',#616);
#616 = CARTESIAN_POINT('',(34.65,-24.25,22.));
#617 = CIRCLE('',#618,6.35);
#618 = AXIS2_PLACEMENT_3D('',#619,#620,#621);
#619 = CARTESIAN_POINT('',(41.,-24.25,22.));
#620 = DIRECTION('',(0.,0.,1.));
#621 = DIRECTION('',(1.,0.,0.));
#622 = ORIENTED_EDGE('',*,*,#623,.F.);
#623 = EDGE_CURVE('',#256,#615,#624,.T.);
#624 = LINE('',#625,#626);
#625 = CARTESIAN_POINT('',(34.65,-24.25,2.));
#626 = VECTOR('',#627,1.);
#627 = DIRECTION('',(0.,0.,1.));
#628 = ORIENTED_EDGE('',*,*,#253,.F.);
#629 = FACE_BOUND('',#630,.F.);
#630 = EDGE_LOOP('',(#631));
#631 = ORIENTED_EDGE('',*,*,#632,.F.);
#632 = EDGE_CURVE('',#633,#633,#635,.T.);
#633 = VERTEX_POINT('',#634);
#634 = CARTESIAN_POINT('',(42.4,-18.05625315338,15.));
#635 = B_SPLINE_CURVE_WITH_KNOTS('',8,(#636,#637,#638,#639,#640,#641,
    #642,#643,#644,#645,#646,#647,#648,#649,#650,#651,#652,#653,#654,
    #655,#656,#657,#658,#659,#660,#661,#662,#663,#664,#665,#666,#667,
    #668,#669,#670,#671,#672,#673,#674,#675,#676,#677,#678,#679,#680,
    #681,#682,#683,#684,#685,#686),.UNSPECIFIED.,.T.,.F.,(9,7,7,7,7,7,7,
    9),(0.,0.151882167157,0.287064340016,0.424164702061,0.576762462206,
    0.705172552572,0.829644854788,1.),.UNSPECIFIED.);
#636 = CARTESIAN_POINT('',(42.4,-18.05625315338,15.));
#637 = CARTESIAN_POINT('',(42.4,-18.05625315338,15.147506711605));
#638 = CARTESIAN_POINT('',(42.382238610151,-18.05223858402,
    15.294989714169));
#639 = CARTESIAN_POINT('',(42.346723266485,-18.04421043382,
    15.440910635228));
#640 = CARTESIAN_POINT('',(42.293245937284,-18.03242322988,
    15.583637259444));
#641 = CARTESIAN_POINT('',(42.221459583314,-18.01739530692,
    15.721313836895));
#642 = CARTESIAN_POINT('',(42.130941517349,-17.99996067801,
    15.851721341796));
#643 = CARTESIAN_POINT('',(42.021301647095,-17.98131632346,
    15.972076517042));
#644 = CARTESIAN_POINT('',(41.777659432379,-17.94673299329,
    16.17363488613));
#645 = CARTESIAN_POINT('',(41.644340314825,-17.9302505116,
    16.260435124044));
#646 = CARTESIAN_POINT('',(41.494496834374,-17.91522188797,
    16.332360144307));
#647 = CARTESIAN_POINT('',(41.331757931866,-17.90356262296,
    16.384449206186));
#648 = CARTESIAN_POINT('',(41.160854403456,-17.89691294381,
    16.413484753221));
#649 = CARTESIAN_POINT('',(40.98704981369,-17.89600073318,
    16.417954708742));
#650 = CARTESIAN_POINT('',(40.815725114633,-17.90055246463,
    16.39809647111));
#651 = CARTESIAN_POINT('',(40.485617644214,-17.91867928245,
    16.313339278475));
#652 = CARTESIAN_POINT('',(40.331702678225,-17.93212617367,
    16.24900109798));
#653 = CARTESIAN_POINT('',(40.19204547757,-17.94851880697,
    16.166805663053));
#654 = CARTESIAN_POINT('',(40.067837298678,-17.96633988281,
    16.07011234451));
#655 = CARTESIAN_POINT('',(39.959753226576,-17.98417786378,
    15.961976864124));
#656 = CARTESIAN_POINT('',(39.868069354095,-18.00086334718,
    15.845220438921));
#657 = CARTESIAN_POINT('',(39.792704438881,-18.01552971488,
    15.722454854126));
#658 = CARTESIAN_POINT('',(39.667058379548,-18.04110891804,
    15.455443386512));
#659 = CARTESIAN_POINT('',(39.619278848077,-18.05167374637,
    15.307582047292));
#660 = CARTESIAN_POINT('',(39.59042023195,-18.05841661213,
    15.154969953658));
#661 = CARTESIAN_POINT('',(39.580770004367,-18.0607343311,15.));
#662 = CARTESIAN_POINT('',(39.590420231949,-18.05841661213,
    14.845030046342));
#663 = CARTESIAN_POINT('',(39.619278848077,-18.05167374637,
    14.692417952707));
#664 = CARTESIAN_POINT('',(39.667058379548,-18.04110891804,
    14.544556613487));
#665 = CARTESIAN_POINT('',(39.788935348551,-18.01629703165,
    14.28555487054));
#666 = CARTESIAN_POINT('',(39.858465694971,-18.00273536537,
    14.170598258721));
#667 = CARTESIAN_POINT('',(39.942139946155,-17.98739858811,
    14.060861258813));
#668 = CARTESIAN_POINT('',(40.040071033034,-17.97096624072,
    13.95835012903));
#669 = CARTESIAN_POINT('',(40.152145774727,-17.95434170883,
    13.865271634447));
#670 = CARTESIAN_POINT('',(40.277979598384,-17.93862501503,
    13.784060791983));
#671 = CARTESIAN_POINT('',(40.416821962862,-17.92503552113,
    13.717438916743));
#672 = CARTESIAN_POINT('',(40.713313598245,-17.90478858139,
    13.621102944639));
#673 = CARTESIAN_POINT('',(40.868419593086,-17.89805739853,
    13.590916519526));
#674 = CARTESIAN_POINT('',(41.028668635657,-17.89565527034,
    13.580834362563));
#675 = CARTESIAN_POINT('',(41.189468350001,-17.89821294635,
    13.592038818645));
#676 = CARTESIAN_POINT('',(41.346087430561,-17.90554368259,
    13.624122764548));
#677 = CARTESIAN_POINT('',(41.494070869451,-17.91666962538,
    13.675117815354));
#678 = CARTESIAN_POINT('',(41.629650334733,-17.93012911749,
    13.741464723495));
#679 = CARTESIAN_POINT('',(41.915085914569,-17.96408684924,
    13.922607650665));
#680 = CARTESIAN_POINT('',(42.05577010897,-17.98582436356,
    14.048779356167));
#681 = CARTESIAN_POINT('',(42.171852292389,-18.00712121383,
    14.190317643338));
#682 = CARTESIAN_POINT('',(42.263749000847,-18.02594449507,
    14.342735652461));
#683 = CARTESIAN_POINT('',(42.332064118636,-18.04089591557,
    14.50253368443));
#684 = CARTESIAN_POINT('',(42.377351989661,-18.05113441611,14.6668847531
    ));
#685 = CARTESIAN_POINT('',(42.4,-18.05625315338,14.833437009465));
#686 = CARTESIAN_POINT('',(42.4,-18.05625315338,15.));
#687 = CYLINDRICAL_SURFACE('',#688,6.35);
#688 = AXIS2_PLACEMENT_3D('',#689,#690,#691);
#689 = CARTESIAN_POINT('',(41.,-24.25,2.));
#690 = DIRECTION('',(-0.,-0.,-1.));
#691 = DIRECTION('',(1.,0.,0.));
#692 = ADVANCED_FACE('',(#693),#711,.F.);
#693 = FACE_BOUND('',#694,.F.);
#694 = EDGE_LOOP('',(#695,#696,#704,#710));
#695 = ORIENTED_EDGE('',*,*,#623,.T.);
#696 = ORIENTED_EDGE('',*,*,#697,.T.);
#697 = EDGE_CURVE('',#615,#698,#700,.T.);
#698 = VERTEX_POINT('',#699);
#699 = CARTESIAN_POINT('',(34.65,-31.75,22.));
#700 = LINE('',#701,#702);
#701 = CARTESIAN_POINT('',(34.65,-24.25,22.));
#702 = VECTOR('',#703,1.);
#703 = DIRECTION('',(0.,-1.,0.));
#704 = ORIENTED_EDGE('',*,*,#705,.F.);
#705 = EDGE_CURVE('',#273,#698,#706,.T.);
#706 = LINE('',#707,#708);
#707 = CARTESIAN_POINT('',(34.65,-31.75,2.));
#708 = VECTOR('',#709,1.);
#709 = DIRECTION('',(0.,0.,1.));
#710 = ORIENTED_EDGE('',*,*,#281,.F.);
#711 = PLANE('',#712);
#712 = AXIS2_PLACEMENT_3D('',#713,#714,#715);
#713 = CARTESIAN_POINT('',(34.65,-24.25,2.));
#714 = DIRECTION('',(1.,0.,0.));
#715 = DIRECTION('',(0.,-1.,0.));
#716 = ADVANCED_FACE('',(#717),#736,.T.);
#717 = FACE_BOUND('',#718,.F.);
#718 = EDGE_LOOP('',(#719,#720,#729,#735));
#719 = ORIENTED_EDGE('',*,*,#705,.T.);
#720 = ORIENTED_EDGE('',*,*,#721,.T.);
#721 = EDGE_CURVE('',#698,#722,#724,.T.);
#722 = VERTEX_POINT('',#723);
#723 = CARTESIAN_POINT('',(47.35,-31.75,22.));
#724 = CIRCLE('',#725,6.35);
#725 = AXIS2_PLACEMENT_3D('',#726,#727,#728);
#726 = CARTESIAN_POINT('',(41.,-31.75,22.));
#727 = DIRECTION('',(0.,0.,1.));
#728 = DIRECTION('',(1.,0.,0.));
#729 = ORIENTED_EDGE('',*,*,#730,.F.);
#730 = EDGE_CURVE('',#265,#722,#731,.T.);
#731 = LINE('',#732,#733);
#732 = CARTESIAN_POINT('',(47.35,-31.75,2.));
#733 = VECTOR('',#734,1.);
#734 = DIRECTION('',(0.,0.,1.));
#735 = ORIENTED_EDGE('',*,*,#272,.F.);
#736 = CYLINDRICAL_SURFACE('',#737,6.35);
#737 = AXIS2_PLACEMENT_3D('',#738,#739,#740);
#738 = CARTESIAN_POINT('',(41.,-31.75,2.));
#739 = DIRECTION('',(-0.,-0.,-1.));
#740 = DIRECTION('',(1.,0.,0.));
#741 = ADVANCED_FACE('',(#742),#753,.T.);
#742 = FACE_BOUND('',#743,.T.);
#743 = EDGE_LOOP('',(#744,#745,#751,#752));
#744 = ORIENTED_EDGE('',*,*,#606,.T.);
#745 = ORIENTED_EDGE('',*,*,#746,.T.);
#746 = EDGE_CURVE('',#607,#722,#747,.T.);
#747 = LINE('',#748,#749);
#748 = CARTESIAN_POINT('',(47.35,-24.25,22.));
#749 = VECTOR('',#750,1.);
#750 = DIRECTION('',(0.,-1.,0.));
#751 = ORIENTED_EDGE('',*,*,#730,.F.);
#752 = ORIENTED_EDGE('',*,*,#264,.F.);
#753 = PLANE('',#754);
#754 = AXIS2_PLACEMENT_3D('',#755,#756,#757);
#755 = CARTESIAN_POINT('',(47.35,-24.25,2.));
#756 = DIRECTION('',(1.,0.,0.));
#757 = DIRECTION('',(0.,-1.,0.));
#758 = ADVANCED_FACE('',(#759,#765),#779,.T.);
#759 = FACE_BOUND('',#760,.T.);
#760 = EDGE_LOOP('',(#761,#762,#763,#764));
#761 = ORIENTED_EDGE('',*,*,#614,.T.);
#762 = ORIENTED_EDGE('',*,*,#697,.T.);
#763 = ORIENTED_EDGE('',*,*,#721,.T.);
#764 = ORIENTED_EDGE('',*,*,#746,.F.);
#765 = FACE_BOUND('',#766,.T.);
#766 = EDGE_LOOP('',(#767,#768,#769,#770,#771,#772,#773,#774,#775,#776,
    #777,#778));
#767 = ORIENTED_EDGE('',*,*,#592,.T.);
#768 = ORIENTED_EDGE('',*,*,#316,.T.);
#769 = ORIENTED_EDGE('',*,*,#359,.T.);
#770 = ORIENTED_EDGE('',*,*,#383,.T.);
#771 = ORIENTED_EDGE('',*,*,#407,.T.);
#772 = ORIENTED_EDGE('',*,*,#431,.T.);
#773 = ORIENTED_EDGE('',*,*,#454,.T.);
#774 = ORIENTED_EDGE('',*,*,#479,.T.);
#775 = ORIENTED_EDGE('',*,*,#503,.T.);
#776 = ORIENTED_EDGE('',*,*,#526,.T.);
#777 = ORIENTED_EDGE('',*,*,#551,.T.);
#778 = ORIENTED_EDGE('',*,*,#574,.T.);
#779 = PLANE('',#780);
#780 = AXIS2_PLACEMENT_3D('',#781,#782,#783);
#781 = CARTESIAN_POINT('',(41.,-28.,22.));
#782 = DIRECTION('',(0.,0.,1.));
#783 = DIRECTION('',(1.,0.,0.));
#784 = ADVANCED_FACE('',(#785),#796,.F.);
#785 = FACE_BOUND('',#786,.F.);
#786 = EDGE_LOOP('',(#787,#788,#794,#795));
#787 = ORIENTED_EDGE('',*,*,#332,.F.);
#788 = ORIENTED_EDGE('',*,*,#789,.T.);
#789 = EDGE_CURVE('',#333,#633,#790,.T.);
#790 = LINE('',#791,#792);
#791 = CARTESIAN_POINT('',(42.4,-20.25,15.));
#792 = VECTOR('',#793,1.);
#793 = DIRECTION('',(0.,1.,-2.2E-16));
#794 = ORIENTED_EDGE('',*,*,#632,.T.);
#795 = ORIENTED_EDGE('',*,*,#789,.F.);
#796 = CYLINDRICAL_SURFACE('',#797,1.4);
#797 = AXIS2_PLACEMENT_3D('',#798,#799,#800);
#798 = CARTESIAN_POINT('',(41.,-20.25,15.));
#799 = DIRECTION('',(0.,-1.,2.2E-16));
#800 = DIRECTION('',(1.,0.,0.));
#801 = ( GEOMETRIC_REPRESENTATION_CONTEXT(3) 
GLOBAL_UNCERTAINTY_ASSIGNED_CONTEXT((#805)) GLOBAL_UNIT_ASSIGNED_CONTEXT
((#802,#803,#804)) REPRESENTATION_CONTEXT('Context #1',
  '3D Context with UNIT and UNCERTAINTY') );
#802 = ( LENGTH_UNIT() NAMED_UNIT(*) SI_UNIT(.MILLI.,.METRE.) );
#803 = ( NAMED_UNIT(*) PLANE_ANGLE_UNIT() SI_UNIT($,.RADIAN.) );
#804 = ( NAMED_UNIT(*) SI_UNIT($,.STERADIAN.) SOLID_ANGLE_UNIT() );
#805 = UNCERTAINTY_MEASURE_WITH_UNIT(LENGTH_MEASURE(1.E-07),#802,
  'distance_accuracy_value','confusion accuracy');
#806 = PRODUCT_RELATED_PRODUCT_CATEGORY('part',$,(#7));
#807 = MECHANICAL_DESIGN_GEOMETRIC_PRESENTATION_REPRESENTATION('',(#808)
  ,#801);
#808 = STYLED_ITEM('color',(#809),#15);
#809 = PRESENTATION_STYLE_ASSIGNMENT((#810,#816));
#810 = SURFACE_STYLE_USAGE(.BOTH.,#811);
#811 = SURFACE_SIDE_STYLE('',(#812));
#812 = SURFACE_STYLE_FILL_AREA(#813);
#813 = FILL_AREA_STYLE('',(#814));
#814 = FILL_AREA_STYLE_COLOUR('',#815);
#815 = COLOUR_RGB('',0.447058818107,0.474509808674,0.501960817233);
#816 = CURVE_STYLE('',#817,POSITIVE_LENGTH_MEASURE(0.1),#818);
#817 = DRAUGHTING_PRE_DEFINED_CURVE_FONT('continuous');
#818 = COLOUR_RGB('',9.803921802644E-02,9.803921802644E-02,
  9.803921802644E-02);
ENDSEC;
END-ISO-10303-21;
