ISO-10303-21;
HEADER;
FILE_DESCRIPTION(('FreeCAD Model'),'2;1');
FILE_NAME('Open CASCADE Shape Model','2026-02-22T22:46:37',(''),(''),
  'Open CASCADE STEP processor 7.8','FreeCAD','Unknown');
FILE_SCHEMA(('AUTOMOTIVE_DESIGN { 1 0 10303 214 1 1 1 1 }'));
ENDSEC;
DATA;
#1 = APPLICATION_PROTOCOL_DEFINITION('international standard',
  'automotive_design',2000,#2);
#2 = APPLICATION_CONTEXT(
  'core data for automotive mechanical design processes');
#3 = SHAPE_DEFINITION_REPRESENTATION(#4,#10);
#4 = PRODUCT_DEFINITION_SHAPE('','',#5);
#5 = PRODUCT_DEFINITION('design','',#6,#9);
#6 = PRODUCT_DEFINITION_FORMATION('','',#7);
#7 = PRODUCT('XT60 Retention Cradle','XT60 Retention Cradle','',(#8));
#8 = PRODUCT_CONTEXT('',#2,'mechanical');
#9 = PRODUCT_DEFINITION_CONTEXT('part definition',#2,'design');
#10 = ADVANCED_BREP_SHAPE_REPRESENTATION('',(#11,#15),#495);
#11 = AXIS2_PLACEMENT_3D('',#12,#13,#14);
#12 = CARTESIAN_POINT('',(0.,0.,0.));
#13 = DIRECTION('',(0.,0.,1.));
#14 = DIRECTION('',(1.,0.,-0.));
#15 = MANIFOLD_SOLID_BREP('',#16);
#16 = CLOSED_SHELL('',(#17,#66,#115,#148,#179,#203,#252,#276,#300,#331,
    #357,#398,#437,#449,#461,#478));
#17 = ADVANCED_FACE('',(#18),#61,.T.);
#18 = FACE_BOUND('',#19,.T.);
#19 = EDGE_LOOP('',(#20,#30,#39,#47,#55));
#20 = ORIENTED_EDGE('',*,*,#21,.T.);
#21 = EDGE_CURVE('',#22,#24,#26,.T.);
#22 = VERTEX_POINT('',#23);
#23 = CARTESIAN_POINT('',(-27.,2.25,23.));
#24 = VERTEX_POINT('',#25);
#25 = CARTESIAN_POINT('',(-28.82842712474,2.25,23.));
#26 = LINE('',#27,#28);
#27 = CARTESIAN_POINT('',(-27.,2.25,23.));
#28 = VECTOR('',#29,1.);
#29 = DIRECTION('',(-1.,0.,0.));
#30 = ORIENTED_EDGE('',*,*,#31,.F.);
#31 = EDGE_CURVE('',#32,#24,#34,.T.);
#32 = VERTEX_POINT('',#33);
#33 = CARTESIAN_POINT('',(-29.,1.25,22.));
#34 = ELLIPSE('',#35,4.242640687119,3.);
#35 = AXIS2_PLACEMENT_3D('',#36,#37,#38);
#36 = CARTESIAN_POINT('',(-26.,1.25,22.));
#37 = DIRECTION('',(0.,0.707106781187,-0.707106781187));
#38 = DIRECTION('',(0.,0.707106781187,0.707106781187));
#39 = ORIENTED_EDGE('',*,*,#40,.T.);
#40 = EDGE_CURVE('',#32,#41,#43,.T.);
#41 = VERTEX_POINT('',#42);
#42 = CARTESIAN_POINT('',(-29.,-8.25,12.5));
#43 = LINE('',#44,#45);
#44 = CARTESIAN_POINT('',(-29.,-4.3125,16.4375));
#45 = VECTOR('',#46,1.);
#46 = DIRECTION('',(0.,-0.707106781187,-0.707106781187));
#47 = ORIENTED_EDGE('',*,*,#48,.F.);
#48 = EDGE_CURVE('',#49,#41,#51,.T.);
#49 = VERTEX_POINT('',#50);
#50 = CARTESIAN_POINT('',(-27.,-8.25,12.5));
#51 = LINE('',#52,#53);
#52 = CARTESIAN_POINT('',(-27.,-8.25,12.5));
#53 = VECTOR('',#54,1.);
#54 = DIRECTION('',(-1.,0.,0.));
#55 = ORIENTED_EDGE('',*,*,#56,.F.);
#56 = EDGE_CURVE('',#22,#49,#57,.T.);
#57 = LINE('',#58,#59);
#58 = CARTESIAN_POINT('',(-27.,-5.375,15.375));
#59 = VECTOR('',#60,1.);
#60 = DIRECTION('',(0.,-0.707106781187,-0.707106781187));
#61 = PLANE('',#62);
#62 = AXIS2_PLACEMENT_3D('',#63,#64,#65);
#63 = CARTESIAN_POINT('',(-27.,-3.,17.75));
#64 = DIRECTION('',(0.,-0.707106781187,0.707106781187));
#65 = DIRECTION('',(-1.,0.,0.));
#66 = ADVANCED_FACE('',(#67),#110,.T.);
#67 = FACE_BOUND('',#68,.T.);
#68 = EDGE_LOOP('',(#69,#70,#78,#86,#95,#103));
#69 = ORIENTED_EDGE('',*,*,#21,.F.);
#70 = ORIENTED_EDGE('',*,*,#71,.F.);
#71 = EDGE_CURVE('',#72,#22,#74,.T.);
#72 = VERTEX_POINT('',#73);
#73 = CARTESIAN_POINT('',(27.,2.25,23.));
#74 = LINE('',#75,#76);
#75 = CARTESIAN_POINT('',(27.,2.25,23.));
#76 = VECTOR('',#77,1.);
#77 = DIRECTION('',(-1.,0.,0.));
#78 = ORIENTED_EDGE('',*,*,#79,.F.);
#79 = EDGE_CURVE('',#80,#72,#82,.T.);
#80 = VERTEX_POINT('',#81);
#81 = CARTESIAN_POINT('',(28.828427124746,2.25,23.));
#82 = LINE('',#83,#84);
#83 = CARTESIAN_POINT('',(29.,2.25,23.));
#84 = VECTOR('',#85,1.);
#85 = DIRECTION('',(-1.,0.,0.));
#86 = ORIENTED_EDGE('',*,*,#87,.T.);
#87 = EDGE_CURVE('',#80,#88,#90,.T.);
#88 = VERTEX_POINT('',#89);
#89 = CARTESIAN_POINT('',(26.,4.25,23.));
#90 = CIRCLE('',#91,3.);
#91 = AXIS2_PLACEMENT_3D('',#92,#93,#94);
#92 = CARTESIAN_POINT('',(26.,1.25,23.));
#93 = DIRECTION('',(-0.,0.,1.));
#94 = DIRECTION('',(0.,-1.,0.));
#95 = ORIENTED_EDGE('',*,*,#96,.F.);
#96 = EDGE_CURVE('',#97,#88,#99,.T.);
#97 = VERTEX_POINT('',#98);
#98 = CARTESIAN_POINT('',(-26.,4.25,23.));
#99 = LINE('',#100,#101);
#100 = CARTESIAN_POINT('',(-29.,4.25,23.));
#101 = VECTOR('',#102,1.);
#102 = DIRECTION('',(1.,0.,0.));
#103 = ORIENTED_EDGE('',*,*,#104,.F.);
#104 = EDGE_CURVE('',#24,#97,#105,.T.);
#105 = CIRCLE('',#106,3.);
#106 = AXIS2_PLACEMENT_3D('',#107,#108,#109);
#107 = CARTESIAN_POINT('',(-26.,1.25,23.));
#108 = DIRECTION('',(-0.,-0.,-1.));
#109 = DIRECTION('',(0.,-1.,0.));
#110 = PLANE('',#111);
#111 = AXIS2_PLACEMENT_3D('',#112,#113,#114);
#112 = CARTESIAN_POINT('',(0.,1.37037037037,23.));
#113 = DIRECTION('',(0.,0.,1.));
#114 = DIRECTION('',(1.,0.,0.));
#115 = ADVANCED_FACE('',(#116),#143,.T.);
#116 = FACE_BOUND('',#117,.F.);
#117 = EDGE_LOOP('',(#118,#119,#127,#136,#142));
#118 = ORIENTED_EDGE('',*,*,#31,.F.);
#119 = ORIENTED_EDGE('',*,*,#120,.F.);
#120 = EDGE_CURVE('',#121,#32,#123,.T.);
#121 = VERTEX_POINT('',#122);
#122 = CARTESIAN_POINT('',(-29.,1.25,0.));
#123 = LINE('',#124,#125);
#124 = CARTESIAN_POINT('',(-29.,1.25,0.));
#125 = VECTOR('',#126,1.);
#126 = DIRECTION('',(0.,0.,1.));
#127 = ORIENTED_EDGE('',*,*,#128,.T.);
#128 = EDGE_CURVE('',#121,#129,#131,.T.);
#129 = VERTEX_POINT('',#130);
#130 = CARTESIAN_POINT('',(-26.,4.25,0.));
#131 = CIRCLE('',#132,3.);
#132 = AXIS2_PLACEMENT_3D('',#133,#134,#135);
#133 = CARTESIAN_POINT('',(-26.,1.25,0.));
#134 = DIRECTION('',(-0.,-0.,-1.));
#135 = DIRECTION('',(0.,-1.,0.));
#136 = ORIENTED_EDGE('',*,*,#137,.T.);
#137 = EDGE_CURVE('',#129,#97,#138,.T.);
#138 = LINE('',#139,#140);
#139 = CARTESIAN_POINT('',(-26.,4.25,0.));
#140 = VECTOR('',#141,1.);
#141 = DIRECTION('',(0.,0.,1.));
#142 = ORIENTED_EDGE('',*,*,#104,.F.);
#143 = CYLINDRICAL_SURFACE('',#144,3.);
#144 = AXIS2_PLACEMENT_3D('',#145,#146,#147);
#145 = CARTESIAN_POINT('',(-26.,1.25,0.));
#146 = DIRECTION('',(0.,0.,1.));
#147 = DIRECTION('',(-1.,0.,0.));
#148 = ADVANCED_FACE('',(#149),#174,.T.);
#149 = FACE_BOUND('',#150,.T.);
#150 = EDGE_LOOP('',(#151,#159,#167,#173));
#151 = ORIENTED_EDGE('',*,*,#152,.F.);
#152 = EDGE_CURVE('',#153,#49,#155,.T.);
#153 = VERTEX_POINT('',#154);
#154 = CARTESIAN_POINT('',(-27.,-8.25,3.));
#155 = LINE('',#156,#157);
#156 = CARTESIAN_POINT('',(-27.,-8.25,3.));
#157 = VECTOR('',#158,1.);
#158 = DIRECTION('',(0.,0.,1.));
#159 = ORIENTED_EDGE('',*,*,#160,.F.);
#160 = EDGE_CURVE('',#161,#153,#163,.T.);
#161 = VERTEX_POINT('',#162);
#162 = CARTESIAN_POINT('',(-27.,2.25,3.));
#163 = LINE('',#164,#165);
#164 = CARTESIAN_POINT('',(-27.,2.25,3.));
#165 = VECTOR('',#166,1.);
#166 = DIRECTION('',(0.,-1.,0.));
#167 = ORIENTED_EDGE('',*,*,#168,.T.);
#168 = EDGE_CURVE('',#161,#22,#169,.T.);
#169 = LINE('',#170,#171);
#170 = CARTESIAN_POINT('',(-27.,2.25,3.));
#171 = VECTOR('',#172,1.);
#172 = DIRECTION('',(0.,0.,1.));
#173 = ORIENTED_EDGE('',*,*,#56,.T.);
#174 = PLANE('',#175);
#175 = AXIS2_PLACEMENT_3D('',#176,#177,#178);
#176 = CARTESIAN_POINT('',(-27.,2.25,3.));
#177 = DIRECTION('',(1.,0.,0.));
#178 = DIRECTION('',(0.,-1.,0.));
#179 = ADVANCED_FACE('',(#180),#198,.T.);
#180 = FACE_BOUND('',#181,.T.);
#181 = EDGE_LOOP('',(#182,#183,#184,#192));
#182 = ORIENTED_EDGE('',*,*,#40,.F.);
#183 = ORIENTED_EDGE('',*,*,#120,.F.);
#184 = ORIENTED_EDGE('',*,*,#185,.T.);
#185 = EDGE_CURVE('',#121,#186,#188,.T.);
#186 = VERTEX_POINT('',#187);
#187 = CARTESIAN_POINT('',(-29.,-8.25,0.));
#188 = LINE('',#189,#190);
#189 = CARTESIAN_POINT('',(-29.,4.25,0.));
#190 = VECTOR('',#191,1.);
#191 = DIRECTION('',(0.,-1.,0.));
#192 = ORIENTED_EDGE('',*,*,#193,.T.);
#193 = EDGE_CURVE('',#186,#41,#194,.T.);
#194 = LINE('',#195,#196);
#195 = CARTESIAN_POINT('',(-29.,-8.25,0.));
#196 = VECTOR('',#197,1.);
#197 = DIRECTION('',(0.,0.,1.));
#198 = PLANE('',#199);
#199 = AXIS2_PLACEMENT_3D('',#200,#201,#202);
#200 = CARTESIAN_POINT('',(-29.,-2.,11.5));
#201 = DIRECTION('',(-1.,-0.,-0.));
#202 = DIRECTION('',(0.,0.,-1.));
#203 = ADVANCED_FACE('',(#204),#247,.T.);
#204 = FACE_BOUND('',#205,.T.);
#205 = EDGE_LOOP('',(#206,#207,#215,#223,#231,#239,#245,#246));
#206 = ORIENTED_EDGE('',*,*,#193,.F.);
#207 = ORIENTED_EDGE('',*,*,#208,.T.);
#208 = EDGE_CURVE('',#186,#209,#211,.T.);
#209 = VERTEX_POINT('',#210);
#210 = CARTESIAN_POINT('',(29.,-8.25,0.));
#211 = LINE('',#212,#213);
#212 = CARTESIAN_POINT('',(-29.,-8.25,0.));
#213 = VECTOR('',#214,1.);
#214 = DIRECTION('',(1.,0.,0.));
#215 = ORIENTED_EDGE('',*,*,#216,.T.);
#216 = EDGE_CURVE('',#209,#217,#219,.T.);
#217 = VERTEX_POINT('',#218);
#218 = CARTESIAN_POINT('',(29.,-8.25,12.5));
#219 = LINE('',#220,#221);
#220 = CARTESIAN_POINT('',(29.,-8.25,0.));
#221 = VECTOR('',#222,1.);
#222 = DIRECTION('',(0.,0.,1.));
#223 = ORIENTED_EDGE('',*,*,#224,.T.);
#224 = EDGE_CURVE('',#217,#225,#227,.T.);
#225 = VERTEX_POINT('',#226);
#226 = CARTESIAN_POINT('',(27.,-8.25,12.5));
#227 = LINE('',#228,#229);
#228 = CARTESIAN_POINT('',(29.,-8.25,12.5));
#229 = VECTOR('',#230,1.);
#230 = DIRECTION('',(-1.,0.,0.));
#231 = ORIENTED_EDGE('',*,*,#232,.F.);
#232 = EDGE_CURVE('',#233,#225,#235,.T.);
#233 = VERTEX_POINT('',#234);
#234 = CARTESIAN_POINT('',(27.,-8.25,3.));
#235 = LINE('',#236,#237);
#236 = CARTESIAN_POINT('',(27.,-8.25,3.));
#237 = VECTOR('',#238,1.);
#238 = DIRECTION('',(0.,0.,1.));
#239 = ORIENTED_EDGE('',*,*,#240,.F.);
#240 = EDGE_CURVE('',#153,#233,#241,.T.);
#241 = LINE('',#242,#243);
#242 = CARTESIAN_POINT('',(-29.,-8.25,3.));
#243 = VECTOR('',#244,1.);
#244 = DIRECTION('',(1.,0.,0.));
#245 = ORIENTED_EDGE('',*,*,#152,.T.);
#246 = ORIENTED_EDGE('',*,*,#48,.T.);
#247 = PLANE('',#248);
#248 = AXIS2_PLACEMENT_3D('',#249,#250,#251);
#249 = CARTESIAN_POINT('',(0.,-8.25,6.450495049505));
#250 = DIRECTION('',(-0.,-1.,-0.));
#251 = DIRECTION('',(0.,0.,-1.));
#252 = ADVANCED_FACE('',(#253),#271,.T.);
#253 = FACE_BOUND('',#254,.T.);
#254 = EDGE_LOOP('',(#255,#263,#264,#265));
#255 = ORIENTED_EDGE('',*,*,#256,.T.);
#256 = EDGE_CURVE('',#257,#72,#259,.T.);
#257 = VERTEX_POINT('',#258);
#258 = CARTESIAN_POINT('',(27.,2.25,3.));
#259 = LINE('',#260,#261);
#260 = CARTESIAN_POINT('',(27.,2.25,3.));
#261 = VECTOR('',#262,1.);
#262 = DIRECTION('',(0.,0.,1.));
#263 = ORIENTED_EDGE('',*,*,#71,.T.);
#264 = ORIENTED_EDGE('',*,*,#168,.F.);
#265 = ORIENTED_EDGE('',*,*,#266,.F.);
#266 = EDGE_CURVE('',#257,#161,#267,.T.);
#267 = LINE('',#268,#269);
#268 = CARTESIAN_POINT('',(27.,2.25,3.));
#269 = VECTOR('',#270,1.);
#270 = DIRECTION('',(-1.,0.,0.));
#271 = PLANE('',#272);
#272 = AXIS2_PLACEMENT_3D('',#273,#274,#275);
#273 = CARTESIAN_POINT('',(27.,2.25,3.));
#274 = DIRECTION('',(0.,-1.,0.));
#275 = DIRECTION('',(-1.,0.,0.));
#276 = ADVANCED_FACE('',(#277),#295,.T.);
#277 = FACE_BOUND('',#278,.T.);
#278 = EDGE_LOOP('',(#279,#287,#288,#289));
#279 = ORIENTED_EDGE('',*,*,#280,.T.);
#280 = EDGE_CURVE('',#281,#129,#283,.T.);
#281 = VERTEX_POINT('',#282);
#282 = CARTESIAN_POINT('',(26.,4.25,0.));
#283 = LINE('',#284,#285);
#284 = CARTESIAN_POINT('',(29.,4.25,0.));
#285 = VECTOR('',#286,1.);
#286 = DIRECTION('',(-1.,0.,0.));
#287 = ORIENTED_EDGE('',*,*,#137,.T.);
#288 = ORIENTED_EDGE('',*,*,#96,.T.);
#289 = ORIENTED_EDGE('',*,*,#290,.F.);
#290 = EDGE_CURVE('',#281,#88,#291,.T.);
#291 = LINE('',#292,#293);
#292 = CARTESIAN_POINT('',(26.,4.25,0.));
#293 = VECTOR('',#294,1.);
#294 = DIRECTION('',(0.,0.,1.));
#295 = PLANE('',#296);
#296 = AXIS2_PLACEMENT_3D('',#297,#298,#299);
#297 = CARTESIAN_POINT('',(0.,4.25,11.5));
#298 = DIRECTION('',(0.,1.,0.));
#299 = DIRECTION('',(0.,0.,1.));
#300 = ADVANCED_FACE('',(#301),#326,.T.);
#301 = FACE_BOUND('',#302,.T.);
#302 = EDGE_LOOP('',(#303,#311,#318,#319,#325));
#303 = ORIENTED_EDGE('',*,*,#304,.F.);
#304 = EDGE_CURVE('',#305,#217,#307,.T.);
#305 = VERTEX_POINT('',#306);
#306 = CARTESIAN_POINT('',(29.,1.25,22.));
#307 = LINE('',#308,#309);
#308 = CARTESIAN_POINT('',(29.,-4.3125,16.4375));
#309 = VECTOR('',#310,1.);
#310 = DIRECTION('',(0.,-0.707106781187,-0.707106781187));
#311 = ORIENTED_EDGE('',*,*,#312,.T.);
#312 = EDGE_CURVE('',#305,#80,#313,.T.);
#313 = ELLIPSE('',#314,4.242640687119,3.);
#314 = AXIS2_PLACEMENT_3D('',#315,#316,#317);
#315 = CARTESIAN_POINT('',(26.,1.25,22.));
#316 = DIRECTION('',(0.,-0.707106781187,0.707106781187));
#317 = DIRECTION('',(0.,0.707106781187,0.707106781187));
#318 = ORIENTED_EDGE('',*,*,#79,.T.);
#319 = ORIENTED_EDGE('',*,*,#320,.T.);
#320 = EDGE_CURVE('',#72,#225,#321,.T.);
#321 = LINE('',#322,#323);
#322 = CARTESIAN_POINT('',(27.,-8.,12.75));
#323 = VECTOR('',#324,1.);
#324 = DIRECTION('',(-0.,-0.707106781187,-0.707106781187));
#325 = ORIENTED_EDGE('',*,*,#224,.F.);
#326 = PLANE('',#327);
#327 = AXIS2_PLACEMENT_3D('',#328,#329,#330);
#328 = CARTESIAN_POINT('',(29.,-3.,17.75));
#329 = DIRECTION('',(0.,-0.707106781187,0.707106781187));
#330 = DIRECTION('',(-1.,0.,0.));
#331 = ADVANCED_FACE('',(#332),#352,.T.);
#332 = FACE_BOUND('',#333,.T.);
#333 = EDGE_LOOP('',(#334,#335,#343,#350,#351));
#334 = ORIENTED_EDGE('',*,*,#312,.F.);
#335 = ORIENTED_EDGE('',*,*,#336,.F.);
#336 = EDGE_CURVE('',#337,#305,#339,.T.);
#337 = VERTEX_POINT('',#338);
#338 = CARTESIAN_POINT('',(29.,1.25,0.));
#339 = LINE('',#340,#341);
#340 = CARTESIAN_POINT('',(29.,1.25,0.));
#341 = VECTOR('',#342,1.);
#342 = DIRECTION('',(0.,0.,1.));
#343 = ORIENTED_EDGE('',*,*,#344,.T.);
#344 = EDGE_CURVE('',#337,#281,#345,.T.);
#345 = CIRCLE('',#346,3.);
#346 = AXIS2_PLACEMENT_3D('',#347,#348,#349);
#347 = CARTESIAN_POINT('',(26.,1.25,0.));
#348 = DIRECTION('',(-0.,0.,1.));
#349 = DIRECTION('',(0.,-1.,0.));
#350 = ORIENTED_EDGE('',*,*,#290,.T.);
#351 = ORIENTED_EDGE('',*,*,#87,.F.);
#352 = CYLINDRICAL_SURFACE('',#353,3.);
#353 = AXIS2_PLACEMENT_3D('',#354,#355,#356);
#354 = CARTESIAN_POINT('',(26.,1.25,0.));
#355 = DIRECTION('',(0.,0.,1.));
#356 = DIRECTION('',(1.,0.,0.));
#357 = ADVANCED_FACE('',(#358,#371,#382),#393,.F.);
#358 = FACE_BOUND('',#359,.F.);
#359 = EDGE_LOOP('',(#360,#361,#362,#368,#369,#370));
#360 = ORIENTED_EDGE('',*,*,#185,.T.);
#361 = ORIENTED_EDGE('',*,*,#208,.T.);
#362 = ORIENTED_EDGE('',*,*,#363,.T.);
#363 = EDGE_CURVE('',#209,#337,#364,.T.);
#364 = LINE('',#365,#366);
#365 = CARTESIAN_POINT('',(29.,-8.25,0.));
#366 = VECTOR('',#367,1.);
#367 = DIRECTION('',(0.,1.,0.));
#368 = ORIENTED_EDGE('',*,*,#344,.T.);
#369 = ORIENTED_EDGE('',*,*,#280,.T.);
#370 = ORIENTED_EDGE('',*,*,#128,.F.);
#371 = FACE_BOUND('',#372,.T.);
#372 = EDGE_LOOP('',(#373));
#373 = ORIENTED_EDGE('',*,*,#374,.T.);
#374 = EDGE_CURVE('',#375,#375,#377,.T.);
#375 = VERTEX_POINT('',#376);
#376 = CARTESIAN_POINT('',(18.4,-2.,0.));
#377 = CIRCLE('',#378,1.4);
#378 = AXIS2_PLACEMENT_3D('',#379,#380,#381);
#379 = CARTESIAN_POINT('',(17.,-2.,0.));
#380 = DIRECTION('',(0.,0.,1.));
#381 = DIRECTION('',(1.,0.,0.));
#382 = FACE_BOUND('',#383,.T.);
#383 = EDGE_LOOP('',(#384));
#384 = ORIENTED_EDGE('',*,*,#385,.T.);
#385 = EDGE_CURVE('',#386,#386,#388,.T.);
#386 = VERTEX_POINT('',#387);
#387 = CARTESIAN_POINT('',(-15.6,-2.,0.));
#388 = CIRCLE('',#389,1.4);
#389 = AXIS2_PLACEMENT_3D('',#390,#391,#392);
#390 = CARTESIAN_POINT('',(-17.,-2.,0.));
#391 = DIRECTION('',(0.,0.,1.));
#392 = DIRECTION('',(1.,0.,0.));
#393 = PLANE('',#394);
#394 = AXIS2_PLACEMENT_3D('',#395,#396,#397);
#395 = CARTESIAN_POINT('',(-2.7E-16,-2.,0.));
#396 = DIRECTION('',(0.,0.,1.));
#397 = DIRECTION('',(1.,0.,0.));
#398 = ADVANCED_FACE('',(#399,#410,#421),#432,.T.);
#399 = FACE_BOUND('',#400,.T.);
#400 = EDGE_LOOP('',(#401,#402,#403,#409));
#401 = ORIENTED_EDGE('',*,*,#160,.T.);
#402 = ORIENTED_EDGE('',*,*,#240,.T.);
#403 = ORIENTED_EDGE('',*,*,#404,.T.);
#404 = EDGE_CURVE('',#233,#257,#405,.T.);
#405 = LINE('',#406,#407);
#406 = CARTESIAN_POINT('',(27.,-8.25,3.));
#407 = VECTOR('',#408,1.);
#408 = DIRECTION('',(0.,1.,0.));
#409 = ORIENTED_EDGE('',*,*,#266,.T.);
#410 = FACE_BOUND('',#411,.T.);
#411 = EDGE_LOOP('',(#412));
#412 = ORIENTED_EDGE('',*,*,#413,.F.);
#413 = EDGE_CURVE('',#414,#414,#416,.T.);
#414 = VERTEX_POINT('',#415);
#415 = CARTESIAN_POINT('',(-15.6,-2.,3.));
#416 = CIRCLE('',#417,1.4);
#417 = AXIS2_PLACEMENT_3D('',#418,#419,#420);
#418 = CARTESIAN_POINT('',(-17.,-2.,3.));
#419 = DIRECTION('',(0.,0.,1.));
#420 = DIRECTION('',(1.,0.,0.));
#421 = FACE_BOUND('',#422,.T.);
#422 = EDGE_LOOP('',(#423));
#423 = ORIENTED_EDGE('',*,*,#424,.F.);
#424 = EDGE_CURVE('',#425,#425,#427,.T.);
#425 = VERTEX_POINT('',#426);
#426 = CARTESIAN_POINT('',(18.4,-2.,3.));
#427 = CIRCLE('',#428,1.4);
#428 = AXIS2_PLACEMENT_3D('',#429,#430,#431);
#429 = CARTESIAN_POINT('',(17.,-2.,3.));
#430 = DIRECTION('',(0.,0.,1.));
#431 = DIRECTION('',(1.,0.,0.));
#432 = PLANE('',#433);
#433 = AXIS2_PLACEMENT_3D('',#434,#435,#436);
#434 = CARTESIAN_POINT('',(-2.7E-16,-2.,3.));
#435 = DIRECTION('',(0.,0.,1.));
#436 = DIRECTION('',(1.,0.,0.));
#437 = ADVANCED_FACE('',(#438),#444,.T.);
#438 = FACE_BOUND('',#439,.T.);
#439 = EDGE_LOOP('',(#440,#441,#442,#443));
#440 = ORIENTED_EDGE('',*,*,#304,.T.);
#441 = ORIENTED_EDGE('',*,*,#216,.F.);
#442 = ORIENTED_EDGE('',*,*,#363,.T.);
#443 = ORIENTED_EDGE('',*,*,#336,.T.);
#444 = PLANE('',#445);
#445 = AXIS2_PLACEMENT_3D('',#446,#447,#448);
#446 = CARTESIAN_POINT('',(29.,-2.,11.5));
#447 = DIRECTION('',(1.,0.,0.));
#448 = DIRECTION('',(0.,0.,1.));
#449 = ADVANCED_FACE('',(#450),#456,.T.);
#450 = FACE_BOUND('',#451,.T.);
#451 = EDGE_LOOP('',(#452,#453,#454,#455));
#452 = ORIENTED_EDGE('',*,*,#232,.T.);
#453 = ORIENTED_EDGE('',*,*,#320,.F.);
#454 = ORIENTED_EDGE('',*,*,#256,.F.);
#455 = ORIENTED_EDGE('',*,*,#404,.F.);
#456 = PLANE('',#457);
#457 = AXIS2_PLACEMENT_3D('',#458,#459,#460);
#458 = CARTESIAN_POINT('',(27.,-8.25,3.));
#459 = DIRECTION('',(-1.,0.,0.));
#460 = DIRECTION('',(0.,1.,0.));
#461 = ADVANCED_FACE('',(#462),#473,.F.);
#462 = FACE_BOUND('',#463,.T.);
#463 = EDGE_LOOP('',(#464,#470,#471,#472));
#464 = ORIENTED_EDGE('',*,*,#465,.T.);
#465 = EDGE_CURVE('',#375,#425,#466,.T.);
#466 = LINE('',#467,#468);
#467 = CARTESIAN_POINT('',(18.4,-2.,0.));
#468 = VECTOR('',#469,1.);
#469 = DIRECTION('',(0.,0.,1.));
#470 = ORIENTED_EDGE('',*,*,#424,.T.);
#471 = ORIENTED_EDGE('',*,*,#465,.F.);
#472 = ORIENTED_EDGE('',*,*,#374,.F.);
#473 = CYLINDRICAL_SURFACE('',#474,1.4);
#474 = AXIS2_PLACEMENT_3D('',#475,#476,#477);
#475 = CARTESIAN_POINT('',(17.,-2.,0.));
#476 = DIRECTION('',(-0.,-0.,-1.));
#477 = DIRECTION('',(1.,0.,0.));
#478 = ADVANCED_FACE('',(#479),#490,.F.);
#479 = FACE_BOUND('',#480,.T.);
#480 = EDGE_LOOP('',(#481,#487,#488,#489));
#481 = ORIENTED_EDGE('',*,*,#482,.T.);
#482 = EDGE_CURVE('',#386,#414,#483,.T.);
#483 = LINE('',#484,#485);
#484 = CARTESIAN_POINT('',(-15.6,-2.,0.));
#485 = VECTOR('',#486,1.);
#486 = DIRECTION('',(0.,0.,1.));
#487 = ORIENTED_EDGE('',*,*,#413,.T.);
#488 = ORIENTED_EDGE('',*,*,#482,.F.);
#489 = ORIENTED_EDGE('',*,*,#385,.F.);
#490 = CYLINDRICAL_SURFACE('',#491,1.4);
#491 = AXIS2_PLACEMENT_3D('',#492,#493,#494);
#492 = CARTESIAN_POINT('',(-17.,-2.,0.));
#493 = DIRECTION('',(-0.,-0.,-1.));
#494 = DIRECTION('',(1.,0.,0.));
#495 = ( GEOMETRIC_REPRESENTATION_CONTEXT(3) 
GLOBAL_UNCERTAINTY_ASSIGNED_CONTEXT((#499)) GLOBAL_UNIT_ASSIGNED_CONTEXT
((#496,#497,#498)) REPRESENTATION_CONTEXT('Context #1',
  '3D Context with UNIT and UNCERTAINTY') );
#496 = ( LENGTH_UNIT() NAMED_UNIT(*) SI_UNIT(.MILLI.,.METRE.) );
#497 = ( NAMED_UNIT(*) PLANE_ANGLE_UNIT() SI_UNIT($,.RADIAN.) );
#498 = ( NAMED_UNIT(*) SI_UNIT($,.STERADIAN.) SOLID_ANGLE_UNIT() );
#499 = UNCERTAINTY_MEASURE_WITH_UNIT(LENGTH_MEASURE(1.E-07),#496,
  'distance_accuracy_value','confusion accuracy');
#500 = PRODUCT_RELATED_PRODUCT_CATEGORY('part',$,(#7));
#501 = MECHANICAL_DESIGN_GEOMETRIC_PRESENTATION_REPRESENTATION('',(#502)
  ,#495);
#502 = STYLED_ITEM('color',(#503),#15);
#503 = PRESENTATION_STYLE_ASSIGNMENT((#504,#510));
#504 = SURFACE_STYLE_USAGE(.BOTH.,#505);
#505 = SURFACE_SIDE_STYLE('',(#506));
#506 = SURFACE_STYLE_FILL_AREA(#507);
#507 = FILL_AREA_STYLE('',(#508));
#508 = FILL_AREA_STYLE_COLOUR('',#509);
#509 = COLOUR_RGB('',0.447058818107,0.474509808674,0.501960817233);
#510 = CURVE_STYLE('',#511,POSITIVE_LENGTH_MEASURE(0.1),#512);
#511 = DRAUGHTING_PRE_DEFINED_CURVE_FONT('continuous');
#512 = COLOUR_RGB('',9.803921802644E-02,9.803921802644E-02,
  9.803921802644E-02);
ENDSEC;
END-ISO-10303-21;
