ISO-10303-21;
HEADER;
FILE_DESCRIPTION(('FreeCAD Model'),'2;1');
FILE_NAME('Open CASCADE Shape Model','2026-02-22T22:46:57',(''),(''),
  'Open CASCADE STEP processor 7.8','FreeCAD','Unknown');
FILE_SCHEMA(('AUTOMOTIVE_DESIGN { 1 0 10303 214 1 1 1 1 }'));
ENDSEC;
DATA;
#1 = APPLICATION_PROTOCOL_DEFINITION('international standard',
  'automotive_design',2000,#2);
#2 = APPLICATION_CONTEXT(
  'core data for automotive mechanical design processes');
#3 = SHAPE_DEFINITION_REPRESENTATION(#4,#10);
#4 = PRODUCT_DEFINITION_SHAPE('','',#5);
#5 = PRODUCT_DEFINITION('design','',#6,#9);
#6 = PRODUCT_DEFINITION_FORMATION('','',#7);
#7 = PRODUCT('Ultrasonic Sensor Bezel','Ultrasonic Sensor Bezel','',(#8)
  );
#8 = PRODUCT_CONTEXT('',#2,'mechanical');
#9 = PRODUCT_DEFINITION_CONTEXT('part definition',#2,'design');
#10 = ADVANCED_BREP_SHAPE_REPRESENTATION('',(#11,#15),#937);
#11 = AXIS2_PLACEMENT_3D('',#12,#13,#14);
#12 = CARTESIAN_POINT('',(0.,0.,0.));
#13 = DIRECTION('',(0.,0.,1.));
#14 = DIRECTION('',(1.,0.,-0.));
#15 = MANIFOLD_SOLID_BREP('',#16);
#16 = CLOSED_SHELL('',(#17,#89,#178,#218,#355,#379,#403,#420,#453,#515,
    #532,#549,#581,#605,#630,#647,#671,#699,#734,#751,#763,#775,#807,
    #831,#855,#873,#885,#902,#919));
#17 = ADVANCED_FACE('',(#18),#84,.F.);
#18 = FACE_BOUND('',#19,.F.);
#19 = EDGE_LOOP('',(#20,#30,#38,#46,#54,#62,#70,#78));
#20 = ORIENTED_EDGE('',*,*,#21,.F.);
#21 = EDGE_CURVE('',#22,#24,#26,.T.);
#22 = VERTEX_POINT('',#23);
#23 = CARTESIAN_POINT('',(71.578838324886,-16.5,30.));
#24 = VERTEX_POINT('',#25);
#25 = CARTESIAN_POINT('',(30.009618943233,7.5,30.));
#26 = LINE('',#27,#28);
#27 = CARTESIAN_POINT('',(71.578838324886,-16.5,30.));
#28 = VECTOR('',#29,1.);
#29 = DIRECTION('',(-0.866025403784,0.5,-1.665334536938E-16));
#30 = ORIENTED_EDGE('',*,*,#31,.T.);
#31 = EDGE_CURVE('',#22,#32,#34,.T.);
#32 = VERTEX_POINT('',#33);
#33 = CARTESIAN_POINT('',(70.078838324886,-19.09807621135,30.));
#34 = LINE('',#35,#36);
#35 = CARTESIAN_POINT('',(71.578838324886,-16.5,30.));
#36 = VECTOR('',#37,1.);
#37 = DIRECTION('',(-0.5,-0.866025403784,1.645406930227E-16));
#38 = ORIENTED_EDGE('',*,*,#39,.T.);
#39 = EDGE_CURVE('',#32,#40,#42,.T.);
#40 = VERTEX_POINT('',#41);
#41 = CARTESIAN_POINT('',(53.624355652982,-9.598076211353,30.));
#42 = LINE('',#43,#44);
#43 = CARTESIAN_POINT('',(70.078838324886,-19.09807621135,30.));
#44 = VECTOR('',#45,1.);
#45 = DIRECTION('',(-0.866025403784,0.5,-1.665334536938E-16));
#46 = ORIENTED_EDGE('',*,*,#47,.T.);
#47 = EDGE_CURVE('',#40,#48,#50,.T.);
#48 = VERTEX_POINT('',#49);
#49 = CARTESIAN_POINT('',(54.474355652982,-8.12583302492,30.));
#50 = LINE('',#51,#52);
#51 = CARTESIAN_POINT('',(53.624355652982,-9.598076211353,30.));
#52 = VECTOR('',#53,1.);
#53 = DIRECTION('',(0.5,0.866025403784,-1.645406930227E-16));
#54 = ORIENTED_EDGE('',*,*,#55,.T.);
#55 = EDGE_CURVE('',#48,#56,#58,.T.);
#56 = VERTEX_POINT('',#57);
#57 = CARTESIAN_POINT('',(45.814101615138,-3.12583302492,30.));
#58 = LINE('',#59,#60);
#59 = CARTESIAN_POINT('',(54.474355652982,-8.12583302492,30.));
#60 = VECTOR('',#61,1.);
#61 = DIRECTION('',(-0.866025403784,0.5,-1.665334536938E-16));
#62 = ORIENTED_EDGE('',*,*,#63,.F.);
#63 = EDGE_CURVE('',#64,#56,#66,.T.);
#64 = VERTEX_POINT('',#65);
#65 = CARTESIAN_POINT('',(44.964101615138,-4.598076211353,30.));
#66 = LINE('',#67,#68);
#67 = CARTESIAN_POINT('',(44.964101615138,-4.598076211353,30.));
#68 = VECTOR('',#69,1.);
#69 = DIRECTION('',(0.5,0.866025403784,-1.645406930227E-16));
#70 = ORIENTED_EDGE('',*,*,#71,.T.);
#71 = EDGE_CURVE('',#64,#72,#74,.T.);
#72 = VERTEX_POINT('',#73);
#73 = CARTESIAN_POINT('',(28.509618943233,4.901923788647,30.));
#74 = LINE('',#75,#76);
#75 = CARTESIAN_POINT('',(70.078838324886,-19.09807621135,30.));
#76 = VECTOR('',#77,1.);
#77 = DIRECTION('',(-0.866025403784,0.5,-1.665334536938E-16));
#78 = ORIENTED_EDGE('',*,*,#79,.F.);
#79 = EDGE_CURVE('',#24,#72,#80,.T.);
#80 = LINE('',#81,#82);
#81 = CARTESIAN_POINT('',(30.009618943233,7.5,30.));
#82 = VECTOR('',#83,1.);
#83 = DIRECTION('',(-0.5,-0.866025403784,1.645406930227E-16));
#84 = PLANE('',#85);
#85 = AXIS2_PLACEMENT_3D('',#86,#87,#88);
#86 = CARTESIAN_POINT('',(71.578838324886,-16.5,30.));
#87 = DIRECTION('',(6.19518549674E-17,-2.257631469609E-16,-1.));
#88 = DIRECTION('',(-0.866025403784,0.5,-1.665334536938E-16));
#89 = ADVANCED_FACE('',(#90,#115,#126,#137),#173,.F.);
#90 = FACE_BOUND('',#91,.F.);
#91 = EDGE_LOOP('',(#92,#100,#108,#114));
#92 = ORIENTED_EDGE('',*,*,#93,.T.);
#93 = EDGE_CURVE('',#24,#94,#96,.T.);
#94 = VERTEX_POINT('',#95);
#95 = CARTESIAN_POINT('',(30.009618943233,7.5,-1.7763568394E-15));
#96 = LINE('',#97,#98);
#97 = CARTESIAN_POINT('',(30.009618943233,7.5,30.));
#98 = VECTOR('',#99,1.);
#99 = DIRECTION('',(6.19518549674E-17,-2.257631469609E-16,-1.));
#100 = ORIENTED_EDGE('',*,*,#101,.T.);
#101 = EDGE_CURVE('',#94,#102,#104,.T.);
#102 = VERTEX_POINT('',#103);
#103 = CARTESIAN_POINT('',(71.578838324886,-16.5,5.329070518201E-15));
#104 = LINE('',#105,#106);
#105 = CARTESIAN_POINT('',(30.009618943233,7.5,-1.7763568394E-15));
#106 = VECTOR('',#107,1.);
#107 = DIRECTION('',(0.866025403784,-0.5,1.665334536938E-16));
#108 = ORIENTED_EDGE('',*,*,#109,.T.);
#109 = EDGE_CURVE('',#102,#22,#110,.T.);
#110 = LINE('',#111,#112);
#111 = CARTESIAN_POINT('',(71.578838324886,-16.5,5.329070518201E-15));
#112 = VECTOR('',#113,1.);
#113 = DIRECTION('',(-6.19518549674E-17,2.257631469609E-16,1.));
#114 = ORIENTED_EDGE('',*,*,#21,.T.);
#115 = FACE_BOUND('',#116,.T.);
#116 = EDGE_LOOP('',(#117));
#117 = ORIENTED_EDGE('',*,*,#118,.T.);
#118 = EDGE_CURVE('',#119,#119,#121,.T.);
#119 = VERTEX_POINT('',#120);
#120 = CARTESIAN_POINT('',(69.15396719429,-15.1,19.5));
#121 = CIRCLE('',#122,8.2);
#122 = AXIS2_PLACEMENT_3D('',#123,#124,#125);
#123 = CARTESIAN_POINT('',(62.052558883258,-11.,19.5));
#124 = DIRECTION('',(-0.5,-0.866025403784,1.645406930227E-16));
#125 = DIRECTION('',(0.866025403784,-0.5,1.665334536938E-16));
#126 = FACE_BOUND('',#127,.T.);
#127 = EDGE_LOOP('',(#128));
#128 = ORIENTED_EDGE('',*,*,#129,.T.);
#129 = EDGE_CURVE('',#130,#130,#132,.T.);
#130 = VERTEX_POINT('',#131);
#131 = CARTESIAN_POINT('',(46.637306695895,-2.1,19.5));
#132 = CIRCLE('',#133,8.2);
#133 = AXIS2_PLACEMENT_3D('',#134,#135,#136);
#134 = CARTESIAN_POINT('',(39.535898384862,2.,19.5));
#135 = DIRECTION('',(-0.5,-0.866025403784,1.645406930227E-16));
#136 = DIRECTION('',(0.866025403784,-0.5,1.665334536938E-16));
#137 = FACE_BOUND('',#138,.T.);
#138 = EDGE_LOOP('',(#139,#150,#158,#167));
#139 = ORIENTED_EDGE('',*,*,#140,.T.);
#140 = EDGE_CURVE('',#141,#143,#145,.T.);
#141 = VERTEX_POINT('',#142);
#142 = CARTESIAN_POINT('',(53.56550992617,-6.1,10.5));
#143 = VERTEX_POINT('',#144);
#144 = CARTESIAN_POINT('',(53.56550992617,-6.1,14.5));
#145 = CIRCLE('',#146,2.);
#146 = AXIS2_PLACEMENT_3D('',#147,#148,#149);
#147 = CARTESIAN_POINT('',(53.56550992617,-6.1,12.5));
#148 = DIRECTION('',(-0.5,-0.866025403784,1.645406930227E-16));
#149 = DIRECTION('',(0.866025403784,-0.5,1.665334536938E-16));
#150 = ORIENTED_EDGE('',*,*,#151,.T.);
#151 = EDGE_CURVE('',#143,#152,#154,.T.);
#152 = VERTEX_POINT('',#153);
#153 = CARTESIAN_POINT('',(48.02294734195,-2.9,14.5));
#154 = LINE('',#155,#156);
#155 = CARTESIAN_POINT('',(53.56550992617,-6.1,14.5));
#156 = VECTOR('',#157,1.);
#157 = DIRECTION('',(-0.866025403784,0.5,-1.665334536938E-16));
#158 = ORIENTED_EDGE('',*,*,#159,.T.);
#159 = EDGE_CURVE('',#152,#160,#162,.T.);
#160 = VERTEX_POINT('',#161);
#161 = CARTESIAN_POINT('',(48.02294734195,-2.9,10.5));
#162 = CIRCLE('',#163,2.);
#163 = AXIS2_PLACEMENT_3D('',#164,#165,#166);
#164 = CARTESIAN_POINT('',(48.02294734195,-2.9,12.5));
#165 = DIRECTION('',(-0.5,-0.866025403784,1.645406930227E-16));
#166 = DIRECTION('',(0.866025403784,-0.5,1.665334536938E-16));
#167 = ORIENTED_EDGE('',*,*,#168,.F.);
#168 = EDGE_CURVE('',#141,#160,#169,.T.);
#169 = LINE('',#170,#171);
#170 = CARTESIAN_POINT('',(53.56550992617,-6.1,10.5));
#171 = VECTOR('',#172,1.);
#172 = DIRECTION('',(-0.866025403784,0.5,-1.665334536938E-16));
#173 = PLANE('',#174);
#174 = AXIS2_PLACEMENT_3D('',#175,#176,#177);
#175 = CARTESIAN_POINT('',(50.79422863406,-4.5,16.20847979628));
#176 = DIRECTION('',(-0.5,-0.866025403784,1.645406930227E-16));
#177 = DIRECTION('',(0.866025403784,-0.5,1.665334536938E-16));
#178 = ADVANCED_FACE('',(#179),#213,.T.);
#179 = FACE_BOUND('',#180,.T.);
#180 = EDGE_LOOP('',(#181,#182,#183,#191,#199,#207));
#181 = ORIENTED_EDGE('',*,*,#79,.F.);
#182 = ORIENTED_EDGE('',*,*,#93,.T.);
#183 = ORIENTED_EDGE('',*,*,#184,.T.);
#184 = EDGE_CURVE('',#94,#185,#187,.T.);
#185 = VERTEX_POINT('',#186);
#186 = CARTESIAN_POINT('',(25.009618943233,-1.160254037844,0.));
#187 = LINE('',#188,#189);
#188 = CARTESIAN_POINT('',(30.009618943233,7.5,-1.7763568394E-15));
#189 = VECTOR('',#190,1.);
#190 = DIRECTION('',(-0.5,-0.866025403784,1.645406930227E-16));
#191 = ORIENTED_EDGE('',*,*,#192,.F.);
#192 = EDGE_CURVE('',#193,#185,#195,.T.);
#193 = VERTEX_POINT('',#194);
#194 = CARTESIAN_POINT('',(25.009618943233,-1.160254037844,9.));
#195 = LINE('',#196,#197);
#196 = CARTESIAN_POINT('',(25.009618943233,-1.160254037844,9.));
#197 = VECTOR('',#198,1.);
#198 = DIRECTION('',(6.19518549674E-17,-2.257631469609E-16,-1.));
#199 = ORIENTED_EDGE('',*,*,#200,.F.);
#200 = EDGE_CURVE('',#201,#193,#203,.T.);
#201 = VERTEX_POINT('',#202);
#202 = CARTESIAN_POINT('',(28.509618943233,4.901923788647,9.));
#203 = LINE('',#204,#205);
#204 = CARTESIAN_POINT('',(28.509618943233,4.901923788647,9.));
#205 = VECTOR('',#206,1.);
#206 = DIRECTION('',(-0.5,-0.866025403784,1.645406930227E-16));
#207 = ORIENTED_EDGE('',*,*,#208,.F.);
#208 = EDGE_CURVE('',#72,#201,#209,.T.);
#209 = LINE('',#210,#211);
#210 = CARTESIAN_POINT('',(28.509618943233,4.901923788647,30.));
#211 = VECTOR('',#212,1.);
#212 = DIRECTION('',(6.19518549674E-17,-2.257631469609E-16,-1.));
#213 = PLANE('',#214);
#214 = AXIS2_PLACEMENT_3D('',#215,#216,#217);
#215 = CARTESIAN_POINT('',(28.428368943233,4.761194660532,13.1625));
#216 = DIRECTION('',(-0.866025403784,0.5,-1.665334536938E-16));
#217 = DIRECTION('',(0.5,0.866025403784,-1.645406930227E-16));
#218 = ADVANCED_FACE('',(#219,#292,#328,#339),#350,.T.);
#219 = FACE_BOUND('',#220,.T.);
#220 = EDGE_LOOP('',(#221,#229,#230,#238,#246,#252,#253,#254,#262,#270,
    #278,#286));
#221 = ORIENTED_EDGE('',*,*,#222,.T.);
#222 = EDGE_CURVE('',#223,#32,#225,.T.);
#223 = VERTEX_POINT('',#224);
#224 = CARTESIAN_POINT('',(70.078838324886,-19.09807621135,9.));
#225 = LINE('',#226,#227);
#226 = CARTESIAN_POINT('',(70.078838324886,-19.09807621135,
    5.329070518201E-15));
#227 = VECTOR('',#228,1.);
#228 = DIRECTION('',(-6.19518549674E-17,2.257631469609E-16,1.));
#229 = ORIENTED_EDGE('',*,*,#39,.T.);
#230 = ORIENTED_EDGE('',*,*,#231,.F.);
#231 = EDGE_CURVE('',#232,#40,#234,.T.);
#232 = VERTEX_POINT('',#233);
#233 = CARTESIAN_POINT('',(53.624355652982,-9.598076211353,27.));
#234 = LINE('',#235,#236);
#235 = CARTESIAN_POINT('',(53.624355652982,-9.598076211353,27.));
#236 = VECTOR('',#237,1.);
#237 = DIRECTION('',(-6.19518549674E-17,2.257631469609E-16,1.));
#238 = ORIENTED_EDGE('',*,*,#239,.F.);
#239 = EDGE_CURVE('',#240,#232,#242,.T.);
#240 = VERTEX_POINT('',#241);
#241 = CARTESIAN_POINT('',(44.964101615138,-4.598076211353,27.));
#242 = LINE('',#243,#244);
#243 = CARTESIAN_POINT('',(44.964101615138,-4.598076211353,27.));
#244 = VECTOR('',#245,1.);
#245 = DIRECTION('',(0.866025403784,-0.5,1.665334536938E-16));
#246 = ORIENTED_EDGE('',*,*,#247,.F.);
#247 = EDGE_CURVE('',#64,#240,#248,.T.);
#248 = LINE('',#249,#250);
#249 = CARTESIAN_POINT('',(44.964101615138,-4.598076211353,30.));
#250 = VECTOR('',#251,1.);
#251 = DIRECTION('',(6.19518549674E-17,-2.257631469609E-16,-1.));
#252 = ORIENTED_EDGE('',*,*,#71,.T.);
#253 = ORIENTED_EDGE('',*,*,#208,.T.);
#254 = ORIENTED_EDGE('',*,*,#255,.F.);
#255 = EDGE_CURVE('',#256,#201,#258,.T.);
#256 = VERTEX_POINT('',#257);
#257 = CARTESIAN_POINT('',(38.468911086754,-0.848076211353,9.));
#258 = LINE('',#259,#260);
#259 = CARTESIAN_POINT('',(38.468911086754,-0.848076211353,9.));
#260 = VECTOR('',#261,1.);
#261 = DIRECTION('',(-0.866025403784,0.5,-1.665334536938E-16));
#262 = ORIENTED_EDGE('',*,*,#263,.F.);
#263 = EDGE_CURVE('',#264,#256,#266,.T.);
#264 = VERTEX_POINT('',#265);
#265 = CARTESIAN_POINT('',(38.468911086754,-0.848076211353,0.));
#266 = LINE('',#267,#268);
#267 = CARTESIAN_POINT('',(38.468911086754,-0.848076211353,0.));
#268 = VECTOR('',#269,1.);
#269 = DIRECTION('',(-6.19518549674E-17,2.257631469609E-16,1.));
#270 = ORIENTED_EDGE('',*,*,#271,.T.);
#271 = EDGE_CURVE('',#264,#272,#274,.T.);
#272 = VERTEX_POINT('',#273);
#273 = CARTESIAN_POINT('',(60.119546181365,-13.34807621135,
    3.552713678801E-15));
#274 = LINE('',#275,#276);
#275 = CARTESIAN_POINT('',(28.509618943233,4.901923788647,
    -1.7763568394E-15));
#276 = VECTOR('',#277,1.);
#277 = DIRECTION('',(0.866025403784,-0.5,1.665334536938E-16));
#278 = ORIENTED_EDGE('',*,*,#279,.F.);
#279 = EDGE_CURVE('',#280,#272,#282,.T.);
#280 = VERTEX_POINT('',#281);
#281 = CARTESIAN_POINT('',(60.119546181365,-13.34807621135,9.));
#282 = LINE('',#283,#284);
#283 = CARTESIAN_POINT('',(60.119546181365,-13.34807621135,9.));
#284 = VECTOR('',#285,1.);
#285 = DIRECTION('',(6.19518549674E-17,-2.257631469609E-16,-1.));
#286 = ORIENTED_EDGE('',*,*,#287,.F.);
#287 = EDGE_CURVE('',#223,#280,#288,.T.);
#288 = LINE('',#289,#290);
#289 = CARTESIAN_POINT('',(70.078838324886,-19.09807621135,9.));
#290 = VECTOR('',#291,1.);
#291 = DIRECTION('',(-0.866025403784,0.5,-1.665334536938E-16));
#292 = FACE_BOUND('',#293,.T.);
#293 = EDGE_LOOP('',(#294,#305,#313,#322));
#294 = ORIENTED_EDGE('',*,*,#295,.F.);
#295 = EDGE_CURVE('',#296,#298,#300,.T.);
#296 = VERTEX_POINT('',#297);
#297 = CARTESIAN_POINT('',(46.52294734195,-5.498076211353,15.25));
#298 = VERTEX_POINT('',#299);
#299 = CARTESIAN_POINT('',(46.52294734195,-5.498076211353,9.75));
#300 = CIRCLE('',#301,2.75);
#301 = AXIS2_PLACEMENT_3D('',#302,#303,#304);
#302 = CARTESIAN_POINT('',(46.52294734195,-5.498076211353,12.5));
#303 = DIRECTION('',(-0.5,-0.866025403784,1.645406930227E-16));
#304 = DIRECTION('',(0.866025403784,-0.5,1.665334536938E-16));
#305 = ORIENTED_EDGE('',*,*,#306,.T.);
#306 = EDGE_CURVE('',#296,#307,#309,.T.);
#307 = VERTEX_POINT('',#308);
#308 = CARTESIAN_POINT('',(52.06550992617,-8.698076211353,15.25));
#309 = LINE('',#310,#311);
#310 = CARTESIAN_POINT('',(46.52294734195,-5.498076211353,15.25));
#311 = VECTOR('',#312,1.);
#312 = DIRECTION('',(0.866025403784,-0.5,1.565334536938E-16));
#313 = ORIENTED_EDGE('',*,*,#314,.F.);
#314 = EDGE_CURVE('',#315,#307,#317,.T.);
#315 = VERTEX_POINT('',#316);
#316 = CARTESIAN_POINT('',(52.06550992617,-8.698076211353,9.75));
#317 = CIRCLE('',#318,2.75);
#318 = AXIS2_PLACEMENT_3D('',#319,#320,#321);
#319 = CARTESIAN_POINT('',(52.06550992617,-8.698076211353,12.5));
#320 = DIRECTION('',(-0.5,-0.866025403784,1.645406930227E-16));
#321 = DIRECTION('',(0.866025403784,-0.5,1.665334536938E-16));
#322 = ORIENTED_EDGE('',*,*,#323,.F.);
#323 = EDGE_CURVE('',#298,#315,#324,.T.);
#324 = LINE('',#325,#326);
#325 = CARTESIAN_POINT('',(46.52294734195,-5.498076211353,9.75));
#326 = VECTOR('',#327,1.);
#327 = DIRECTION('',(0.866025403784,-0.5,1.665334536938E-16));
#328 = FACE_BOUND('',#329,.T.);
#329 = EDGE_LOOP('',(#330));
#330 = ORIENTED_EDGE('',*,*,#331,.F.);
#331 = EDGE_CURVE('',#332,#332,#334,.T.);
#332 = VERTEX_POINT('',#333);
#333 = CARTESIAN_POINT('',(45.137306695895,-4.698076211353,19.5));
#334 = CIRCLE('',#335,8.2);
#335 = AXIS2_PLACEMENT_3D('',#336,#337,#338);
#336 = CARTESIAN_POINT('',(38.035898384862,-0.598076211353,19.5));
#337 = DIRECTION('',(-0.5,-0.866025403784,1.645406930227E-16));
#338 = DIRECTION('',(0.866025403784,-0.5,1.665334536938E-16));
#339 = FACE_BOUND('',#340,.T.);
#340 = EDGE_LOOP('',(#341));
#341 = ORIENTED_EDGE('',*,*,#342,.F.);
#342 = EDGE_CURVE('',#343,#343,#345,.T.);
#343 = VERTEX_POINT('',#344);
#344 = CARTESIAN_POINT('',(67.65396719429,-17.69807621135,19.5));
#345 = CIRCLE('',#346,8.2);
#346 = AXIS2_PLACEMENT_3D('',#347,#348,#349);
#347 = CARTESIAN_POINT('',(60.552558883258,-13.59807621135,19.5));
#348 = DIRECTION('',(-0.5,-0.866025403784,1.645406930227E-16));
#349 = DIRECTION('',(0.866025403784,-0.5,1.665334536938E-16));
#350 = PLANE('',#351);
#351 = AXIS2_PLACEMENT_3D('',#352,#353,#354);
#352 = CARTESIAN_POINT('',(49.29422863406,-7.098076211353,16.20847979628
    ));
#353 = DIRECTION('',(-0.5,-0.866025403784,1.645406930227E-16));
#354 = DIRECTION('',(0.866025403784,-0.5,1.665334536938E-16));
#355 = ADVANCED_FACE('',(#356),#374,.F.);
#356 = FACE_BOUND('',#357,.F.);
#357 = EDGE_LOOP('',(#358,#359,#367,#373));
#358 = ORIENTED_EDGE('',*,*,#63,.T.);
#359 = ORIENTED_EDGE('',*,*,#360,.T.);
#360 = EDGE_CURVE('',#56,#361,#363,.T.);
#361 = VERTEX_POINT('',#362);
#362 = CARTESIAN_POINT('',(45.814101615138,-3.12583302492,27.));
#363 = LINE('',#364,#365);
#364 = CARTESIAN_POINT('',(45.814101615138,-3.12583302492,30.));
#365 = VECTOR('',#366,1.);
#366 = DIRECTION('',(6.19518549674E-17,-2.257631469609E-16,-1.));
#367 = ORIENTED_EDGE('',*,*,#368,.F.);
#368 = EDGE_CURVE('',#240,#361,#369,.T.);
#369 = LINE('',#370,#371);
#370 = CARTESIAN_POINT('',(44.964101615138,-4.598076211353,27.));
#371 = VECTOR('',#372,1.);
#372 = DIRECTION('',(0.5,0.866025403784,-1.645406930227E-16));
#373 = ORIENTED_EDGE('',*,*,#247,.F.);
#374 = PLANE('',#375);
#375 = AXIS2_PLACEMENT_3D('',#376,#377,#378);
#376 = CARTESIAN_POINT('',(44.964101615138,-4.598076211353,30.));
#377 = DIRECTION('',(-0.866025403784,0.5,-1.665334536938E-16));
#378 = DIRECTION('',(6.19518549674E-17,-2.257631469609E-16,-1.));
#379 = ADVANCED_FACE('',(#380),#398,.T.);
#380 = FACE_BOUND('',#381,.T.);
#381 = EDGE_LOOP('',(#382,#383,#391,#397));
#382 = ORIENTED_EDGE('',*,*,#360,.T.);
#383 = ORIENTED_EDGE('',*,*,#384,.T.);
#384 = EDGE_CURVE('',#361,#385,#387,.T.);
#385 = VERTEX_POINT('',#386);
#386 = CARTESIAN_POINT('',(54.474355652982,-8.12583302492,27.));
#387 = LINE('',#388,#389);
#388 = CARTESIAN_POINT('',(45.814101615138,-3.12583302492,27.));
#389 = VECTOR('',#390,1.);
#390 = DIRECTION('',(0.866025403784,-0.5,1.665334536938E-16));
#391 = ORIENTED_EDGE('',*,*,#392,.T.);
#392 = EDGE_CURVE('',#385,#48,#393,.T.);
#393 = LINE('',#394,#395);
#394 = CARTESIAN_POINT('',(54.474355652982,-8.12583302492,27.));
#395 = VECTOR('',#396,1.);
#396 = DIRECTION('',(-6.19518549674E-17,2.257631469609E-16,1.));
#397 = ORIENTED_EDGE('',*,*,#55,.T.);
#398 = PLANE('',#399);
#399 = AXIS2_PLACEMENT_3D('',#400,#401,#402);
#400 = CARTESIAN_POINT('',(50.14422863406,-5.62583302492,28.5));
#401 = DIRECTION('',(-0.5,-0.866025403784,1.645406930227E-16));
#402 = DIRECTION('',(0.866025403784,-0.5,1.665334536938E-16));
#403 = ADVANCED_FACE('',(#404),#415,.F.);
#404 = FACE_BOUND('',#405,.F.);
#405 = EDGE_LOOP('',(#406,#412,#413,#414));
#406 = ORIENTED_EDGE('',*,*,#407,.T.);
#407 = EDGE_CURVE('',#232,#385,#408,.T.);
#408 = LINE('',#409,#410);
#409 = CARTESIAN_POINT('',(53.624355652982,-9.598076211353,27.));
#410 = VECTOR('',#411,1.);
#411 = DIRECTION('',(0.5,0.866025403784,-1.645406930227E-16));
#412 = ORIENTED_EDGE('',*,*,#392,.T.);
#413 = ORIENTED_EDGE('',*,*,#47,.F.);
#414 = ORIENTED_EDGE('',*,*,#231,.F.);
#415 = PLANE('',#416);
#416 = AXIS2_PLACEMENT_3D('',#417,#418,#419);
#417 = CARTESIAN_POINT('',(53.624355652982,-9.598076211353,27.));
#418 = DIRECTION('',(0.866025403784,-0.5,1.665334536938E-16));
#419 = DIRECTION('',(-6.19518549674E-17,2.257631469609E-16,1.));
#420 = ADVANCED_FACE('',(#421),#448,.T.);
#421 = FACE_BOUND('',#422,.T.);
#422 = EDGE_LOOP('',(#423,#431,#432,#433,#434,#442));
#423 = ORIENTED_EDGE('',*,*,#424,.F.);
#424 = EDGE_CURVE('',#102,#425,#427,.T.);
#425 = VERTEX_POINT('',#426);
#426 = CARTESIAN_POINT('',(66.578838324886,-25.16025403784,
    7.105427357601E-15));
#427 = LINE('',#428,#429);
#428 = CARTESIAN_POINT('',(71.578838324886,-16.5,5.329070518201E-15));
#429 = VECTOR('',#430,1.);
#430 = DIRECTION('',(-0.5,-0.866025403784,1.645406930227E-16));
#431 = ORIENTED_EDGE('',*,*,#109,.T.);
#432 = ORIENTED_EDGE('',*,*,#31,.T.);
#433 = ORIENTED_EDGE('',*,*,#222,.F.);
#434 = ORIENTED_EDGE('',*,*,#435,.T.);
#435 = EDGE_CURVE('',#223,#436,#438,.T.);
#436 = VERTEX_POINT('',#437);
#437 = CARTESIAN_POINT('',(66.578838324886,-25.16025403784,9.));
#438 = LINE('',#439,#440);
#439 = CARTESIAN_POINT('',(70.078838324886,-19.09807621135,9.));
#440 = VECTOR('',#441,1.);
#441 = DIRECTION('',(-0.5,-0.866025403784,1.645406930227E-16));
#442 = ORIENTED_EDGE('',*,*,#443,.F.);
#443 = EDGE_CURVE('',#425,#436,#444,.T.);
#444 = LINE('',#445,#446);
#445 = CARTESIAN_POINT('',(66.578838324886,-25.16025403784,
    7.105427357601E-15));
#446 = VECTOR('',#447,1.);
#447 = DIRECTION('',(-6.19518549674E-17,2.257631469609E-16,1.));
#448 = PLANE('',#449);
#449 = AXIS2_PLACEMENT_3D('',#450,#451,#452);
#450 = CARTESIAN_POINT('',(69.997588324886,-19.23880533946,13.1625));
#451 = DIRECTION('',(0.866025403784,-0.5,1.665334536938E-16));
#452 = DIRECTION('',(-0.5,-0.866025403784,1.645406930227E-16));
#453 = ADVANCED_FACE('',(#454,#488,#499),#510,.T.);
#454 = FACE_BOUND('',#455,.T.);
#455 = EDGE_LOOP('',(#456,#457,#458,#459,#467,#473,#474,#482));
#456 = ORIENTED_EDGE('',*,*,#184,.F.);
#457 = ORIENTED_EDGE('',*,*,#101,.T.);
#458 = ORIENTED_EDGE('',*,*,#424,.T.);
#459 = ORIENTED_EDGE('',*,*,#460,.F.);
#460 = EDGE_CURVE('',#461,#425,#463,.T.);
#461 = VERTEX_POINT('',#462);
#462 = CARTESIAN_POINT('',(56.619546181365,-19.41025403784,
    5.329070518201E-15));
#463 = LINE('',#464,#465);
#464 = CARTESIAN_POINT('',(56.619546181365,-19.41025403784,
    5.329070518201E-15));
#465 = VECTOR('',#466,1.);
#466 = DIRECTION('',(0.866025403784,-0.5,1.665334536938E-16));
#467 = ORIENTED_EDGE('',*,*,#468,.F.);
#468 = EDGE_CURVE('',#272,#461,#469,.T.);
#469 = LINE('',#470,#471);
#470 = CARTESIAN_POINT('',(60.119546181365,-13.34807621135,
    3.552713678801E-15));
#471 = VECTOR('',#472,1.);
#472 = DIRECTION('',(-0.5,-0.866025403784,1.645406930227E-16));
#473 = ORIENTED_EDGE('',*,*,#271,.F.);
#474 = ORIENTED_EDGE('',*,*,#475,.T.);
#475 = EDGE_CURVE('',#264,#476,#478,.T.);
#476 = VERTEX_POINT('',#477);
#477 = CARTESIAN_POINT('',(34.968911086754,-6.910254037844,
    1.7763568394E-15));
#478 = LINE('',#479,#480);
#479 = CARTESIAN_POINT('',(38.468911086754,-0.848076211353,0.));
#480 = VECTOR('',#481,1.);
#481 = DIRECTION('',(-0.5,-0.866025403784,1.645406930227E-16));
#482 = ORIENTED_EDGE('',*,*,#483,.F.);
#483 = EDGE_CURVE('',#185,#476,#484,.T.);
#484 = LINE('',#485,#486);
#485 = CARTESIAN_POINT('',(25.009618943233,-1.160254037844,0.));
#486 = VECTOR('',#487,1.);
#487 = DIRECTION('',(0.866025403784,-0.5,1.665334536938E-16));
#488 = FACE_BOUND('',#489,.T.);
#489 = EDGE_LOOP('',(#490));
#490 = ORIENTED_EDGE('',*,*,#491,.F.);
#491 = EDGE_CURVE('',#492,#492,#494,.T.);
#492 = VERTEX_POINT('',#493);
#493 = CARTESIAN_POINT('',(33.918206931238,-0.530127018922,0.));
#494 = CIRCLE('',#495,1.4);
#495 = AXIS2_PLACEMENT_3D('',#496,#497,#498);
#496 = CARTESIAN_POINT('',(32.70577136594,0.169872981078,
    -3.98541861974E-16));
#497 = DIRECTION('',(6.19518549674E-17,-2.257631469609E-16,-1.));
#498 = DIRECTION('',(0.866025403784,-0.5,1.665334536938E-16));
#499 = FACE_BOUND('',#500,.T.);
#500 = EDGE_LOOP('',(#501));
#501 = ORIENTED_EDGE('',*,*,#502,.F.);
#502 = EDGE_CURVE('',#503,#503,#505,.T.);
#503 = VERTEX_POINT('',#504);
#504 = CARTESIAN_POINT('',(65.095121467478,-18.53012701892,
    7.105427357601E-15));
#505 = CIRCLE('',#506,1.4);
#506 = AXIS2_PLACEMENT_3D('',#507,#508,#509);
#507 = CARTESIAN_POINT('',(63.88268590218,-17.83012701892,
    5.596662471002E-15));
#508 = DIRECTION('',(6.19518549674E-17,-2.257631469609E-16,-1.));
#509 = DIRECTION('',(0.866025403784,-0.5,1.665334536938E-16));
#510 = PLANE('',#511);
#511 = AXIS2_PLACEMENT_3D('',#512,#513,#514);
#512 = CARTESIAN_POINT('',(48.886536326368,-7.804220002131,
    1.7763568394E-15));
#513 = DIRECTION('',(6.19518549674E-17,-2.257631469609E-16,-1.));
#514 = DIRECTION('',(0.5,0.866025403784,-1.645406930227E-16));
#515 = ADVANCED_FACE('',(#516),#527,.F.);
#516 = FACE_BOUND('',#517,.T.);
#517 = EDGE_LOOP('',(#518,#524,#525,#526));
#518 = ORIENTED_EDGE('',*,*,#519,.T.);
#519 = EDGE_CURVE('',#119,#343,#520,.T.);
#520 = LINE('',#521,#522);
#521 = CARTESIAN_POINT('',(69.15396719429,-15.1,19.5));
#522 = VECTOR('',#523,1.);
#523 = DIRECTION('',(-0.5,-0.866025403784,1.645406930227E-16));
#524 = ORIENTED_EDGE('',*,*,#342,.T.);
#525 = ORIENTED_EDGE('',*,*,#519,.F.);
#526 = ORIENTED_EDGE('',*,*,#118,.F.);
#527 = CYLINDRICAL_SURFACE('',#528,8.2);
#528 = AXIS2_PLACEMENT_3D('',#529,#530,#531);
#529 = CARTESIAN_POINT('',(62.052558883258,-11.,19.5));
#530 = DIRECTION('',(0.5,0.866025403784,-1.645406930227E-16));
#531 = DIRECTION('',(0.866025403784,-0.5,1.665334536938E-16));
#532 = ADVANCED_FACE('',(#533),#544,.F.);
#533 = FACE_BOUND('',#534,.T.);
#534 = EDGE_LOOP('',(#535,#541,#542,#543));
#535 = ORIENTED_EDGE('',*,*,#536,.T.);
#536 = EDGE_CURVE('',#130,#332,#537,.T.);
#537 = LINE('',#538,#539);
#538 = CARTESIAN_POINT('',(46.637306695895,-2.1,19.5));
#539 = VECTOR('',#540,1.);
#540 = DIRECTION('',(-0.5,-0.866025403784,1.645406930227E-16));
#541 = ORIENTED_EDGE('',*,*,#331,.T.);
#542 = ORIENTED_EDGE('',*,*,#536,.F.);
#543 = ORIENTED_EDGE('',*,*,#129,.F.);
#544 = CYLINDRICAL_SURFACE('',#545,8.2);
#545 = AXIS2_PLACEMENT_3D('',#546,#547,#548);
#546 = CARTESIAN_POINT('',(39.535898384862,2.,19.5));
#547 = DIRECTION('',(0.5,0.866025403784,-1.645406930227E-16));
#548 = DIRECTION('',(0.866025403784,-0.5,1.665334536938E-16));
#549 = ADVANCED_FACE('',(#550),#576,.F.);
#550 = FACE_BOUND('',#551,.T.);
#551 = EDGE_LOOP('',(#552,#553,#561,#570));
#552 = ORIENTED_EDGE('',*,*,#140,.F.);
#553 = ORIENTED_EDGE('',*,*,#554,.T.);
#554 = EDGE_CURVE('',#141,#555,#557,.T.);
#555 = VERTEX_POINT('',#556);
#556 = CARTESIAN_POINT('',(52.36550992617,-8.178460969083,10.5));
#557 = LINE('',#558,#559);
#558 = CARTESIAN_POINT('',(53.56550992617,-6.1,10.5));
#559 = VECTOR('',#560,1.);
#560 = DIRECTION('',(-0.5,-0.866025403784,1.645406930227E-16));
#561 = ORIENTED_EDGE('',*,*,#562,.F.);
#562 = EDGE_CURVE('',#563,#555,#565,.T.);
#563 = VERTEX_POINT('',#564);
#564 = CARTESIAN_POINT('',(52.36550992617,-8.178460969083,14.5));
#565 = CIRCLE('',#566,2.);
#566 = AXIS2_PLACEMENT_3D('',#567,#568,#569);
#567 = CARTESIAN_POINT('',(52.36550992617,-8.178460969083,12.5));
#568 = DIRECTION('',(0.5,0.866025403784,-1.645406930227E-16));
#569 = DIRECTION('',(0.866025403784,-0.5,1.665334536938E-16));
#570 = ORIENTED_EDGE('',*,*,#571,.F.);
#571 = EDGE_CURVE('',#143,#563,#572,.T.);
#572 = LINE('',#573,#574);
#573 = CARTESIAN_POINT('',(53.56550992617,-6.1,14.5));
#574 = VECTOR('',#575,1.);
#575 = DIRECTION('',(-0.5,-0.866025403784,1.645406930227E-16));
#576 = CYLINDRICAL_SURFACE('',#577,2.);
#577 = AXIS2_PLACEMENT_3D('',#578,#579,#580);
#578 = CARTESIAN_POINT('',(53.56550992617,-6.1,12.5));
#579 = DIRECTION('',(0.5,0.866025403784,-1.645406930227E-16));
#580 = DIRECTION('',(0.866025403784,-0.5,1.665334536938E-16));
#581 = ADVANCED_FACE('',(#582),#600,.T.);
#582 = FACE_BOUND('',#583,.T.);
#583 = EDGE_LOOP('',(#584,#585,#586,#594));
#584 = ORIENTED_EDGE('',*,*,#151,.F.);
#585 = ORIENTED_EDGE('',*,*,#571,.T.);
#586 = ORIENTED_EDGE('',*,*,#587,.T.);
#587 = EDGE_CURVE('',#563,#588,#590,.T.);
#588 = VERTEX_POINT('',#589);
#589 = CARTESIAN_POINT('',(46.82294734195,-4.978460969083,14.5));
#590 = LINE('',#591,#592);
#591 = CARTESIAN_POINT('',(50.979869280115,-7.378460969083,14.5));
#592 = VECTOR('',#593,1.);
#593 = DIRECTION('',(-0.866025403784,0.5,-1.665334536938E-16));
#594 = ORIENTED_EDGE('',*,*,#595,.F.);
#595 = EDGE_CURVE('',#152,#588,#596,.T.);
#596 = LINE('',#597,#598);
#597 = CARTESIAN_POINT('',(48.02294734195,-2.9,14.5));
#598 = VECTOR('',#599,1.);
#599 = DIRECTION('',(-0.5,-0.866025403784,1.645406930227E-16));
#600 = PLANE('',#601);
#601 = AXIS2_PLACEMENT_3D('',#602,#603,#604);
#602 = CARTESIAN_POINT('',(53.56550992617,-6.1,14.5));
#603 = DIRECTION('',(6.19518549674E-17,-2.257631469609E-16,-1.));
#604 = DIRECTION('',(-0.866025403784,0.5,-1.665334536938E-16));
#605 = ADVANCED_FACE('',(#606),#625,.F.);
#606 = FACE_BOUND('',#607,.T.);
#607 = EDGE_LOOP('',(#608,#609,#610,#619));
#608 = ORIENTED_EDGE('',*,*,#159,.F.);
#609 = ORIENTED_EDGE('',*,*,#595,.T.);
#610 = ORIENTED_EDGE('',*,*,#611,.F.);
#611 = EDGE_CURVE('',#612,#588,#614,.T.);
#612 = VERTEX_POINT('',#613);
#613 = CARTESIAN_POINT('',(46.82294734195,-4.978460969083,10.5));
#614 = CIRCLE('',#615,2.);
#615 = AXIS2_PLACEMENT_3D('',#616,#617,#618);
#616 = CARTESIAN_POINT('',(46.82294734195,-4.978460969083,12.5));
#617 = DIRECTION('',(0.5,0.866025403784,-1.645406930227E-16));
#618 = DIRECTION('',(0.866025403784,-0.5,1.665334536938E-16));
#619 = ORIENTED_EDGE('',*,*,#620,.F.);
#620 = EDGE_CURVE('',#160,#612,#621,.T.);
#621 = LINE('',#622,#623);
#622 = CARTESIAN_POINT('',(48.02294734195,-2.9,10.5));
#623 = VECTOR('',#624,1.);
#624 = DIRECTION('',(-0.5,-0.866025403784,1.645406930227E-16));
#625 = CYLINDRICAL_SURFACE('',#626,2.);
#626 = AXIS2_PLACEMENT_3D('',#627,#628,#629);
#627 = CARTESIAN_POINT('',(48.02294734195,-2.9,12.5));
#628 = DIRECTION('',(0.5,0.866025403784,-1.645406930227E-16));
#629 = DIRECTION('',(0.866025403784,-0.5,1.665334536938E-16));
#630 = ADVANCED_FACE('',(#631),#642,.F.);
#631 = FACE_BOUND('',#632,.F.);
#632 = EDGE_LOOP('',(#633,#634,#635,#641));
#633 = ORIENTED_EDGE('',*,*,#168,.F.);
#634 = ORIENTED_EDGE('',*,*,#554,.T.);
#635 = ORIENTED_EDGE('',*,*,#636,.T.);
#636 = EDGE_CURVE('',#555,#612,#637,.T.);
#637 = LINE('',#638,#639);
#638 = CARTESIAN_POINT('',(50.979869280115,-7.378460969083,10.5));
#639 = VECTOR('',#640,1.);
#640 = DIRECTION('',(-0.866025403784,0.5,-1.665334536938E-16));
#641 = ORIENTED_EDGE('',*,*,#620,.F.);
#642 = PLANE('',#643);
#643 = AXIS2_PLACEMENT_3D('',#644,#645,#646);
#644 = CARTESIAN_POINT('',(53.56550992617,-6.1,10.5));
#645 = DIRECTION('',(6.19518549674E-17,-2.257631469609E-16,-1.));
#646 = DIRECTION('',(-0.866025403784,0.5,-1.665334536938E-16));
#647 = ADVANCED_FACE('',(#648),#666,.T.);
#648 = FACE_BOUND('',#649,.T.);
#649 = EDGE_LOOP('',(#650,#651,#659,#665));
#650 = ORIENTED_EDGE('',*,*,#483,.T.);
#651 = ORIENTED_EDGE('',*,*,#652,.T.);
#652 = EDGE_CURVE('',#476,#653,#655,.T.);
#653 = VERTEX_POINT('',#654);
#654 = CARTESIAN_POINT('',(34.968911086754,-6.910254037844,9.));
#655 = LINE('',#656,#657);
#656 = CARTESIAN_POINT('',(34.968911086754,-6.910254037844,
    1.7763568394E-15));
#657 = VECTOR('',#658,1.);
#658 = DIRECTION('',(-6.19518549674E-17,2.257631469609E-16,1.));
#659 = ORIENTED_EDGE('',*,*,#660,.T.);
#660 = EDGE_CURVE('',#653,#193,#661,.T.);
#661 = LINE('',#662,#663);
#662 = CARTESIAN_POINT('',(34.968911086754,-6.910254037844,9.));
#663 = VECTOR('',#664,1.);
#664 = DIRECTION('',(-0.866025403784,0.5,-1.665334536938E-16));
#665 = ORIENTED_EDGE('',*,*,#192,.T.);
#666 = PLANE('',#667);
#667 = AXIS2_PLACEMENT_3D('',#668,#669,#670);
#668 = CARTESIAN_POINT('',(45.79422863406,-13.16025403784,4.5));
#669 = DIRECTION('',(-0.5,-0.866025403784,1.645406930227E-16));
#670 = DIRECTION('',(0.866025403784,-0.5,1.665334536938E-16));
#671 = ADVANCED_FACE('',(#672,#683),#694,.F.);
#672 = FACE_BOUND('',#673,.F.);
#673 = EDGE_LOOP('',(#674,#680,#681,#682));
#674 = ORIENTED_EDGE('',*,*,#675,.T.);
#675 = EDGE_CURVE('',#256,#653,#676,.T.);
#676 = LINE('',#677,#678);
#677 = CARTESIAN_POINT('',(38.468911086754,-0.848076211353,9.));
#678 = VECTOR('',#679,1.);
#679 = DIRECTION('',(-0.5,-0.866025403784,1.645406930227E-16));
#680 = ORIENTED_EDGE('',*,*,#660,.T.);
#681 = ORIENTED_EDGE('',*,*,#200,.F.);
#682 = ORIENTED_EDGE('',*,*,#255,.F.);
#683 = FACE_BOUND('',#684,.F.);
#684 = EDGE_LOOP('',(#685));
#685 = ORIENTED_EDGE('',*,*,#686,.F.);
#686 = EDGE_CURVE('',#687,#687,#689,.T.);
#687 = VERTEX_POINT('',#688);
#688 = CARTESIAN_POINT('',(33.918206931238,-0.530127018922,9.));
#689 = CIRCLE('',#690,1.4);
#690 = AXIS2_PLACEMENT_3D('',#691,#692,#693);
#691 = CARTESIAN_POINT('',(32.70577136594,0.169872981078,9.));
#692 = DIRECTION('',(-4.80481450326E-17,-4.162887357934E-16,-1.));
#693 = DIRECTION('',(0.866025403784,-0.5,1.665334536938E-16));
#694 = PLANE('',#695);
#695 = AXIS2_PLACEMENT_3D('',#696,#697,#698);
#696 = CARTESIAN_POINT('',(38.468911086754,-0.848076211353,9.));
#697 = DIRECTION('',(6.19518549674E-17,-2.257631469609E-16,-1.));
#698 = DIRECTION('',(-0.866025403784,0.5,-1.665334536938E-16));
#699 = ADVANCED_FACE('',(#700,#718),#729,.F.);
#700 = FACE_BOUND('',#701,.F.);
#701 = EDGE_LOOP('',(#702,#703,#711,#717));
#702 = ORIENTED_EDGE('',*,*,#435,.T.);
#703 = ORIENTED_EDGE('',*,*,#704,.T.);
#704 = EDGE_CURVE('',#436,#705,#707,.T.);
#705 = VERTEX_POINT('',#706);
#706 = CARTESIAN_POINT('',(56.619546181365,-19.41025403784,9.));
#707 = LINE('',#708,#709);
#708 = CARTESIAN_POINT('',(66.578838324886,-25.16025403784,9.));
#709 = VECTOR('',#710,1.);
#710 = DIRECTION('',(-0.866025403784,0.5,-1.665334536938E-16));
#711 = ORIENTED_EDGE('',*,*,#712,.F.);
#712 = EDGE_CURVE('',#280,#705,#713,.T.);
#713 = LINE('',#714,#715);
#714 = CARTESIAN_POINT('',(60.119546181365,-13.34807621135,9.));
#715 = VECTOR('',#716,1.);
#716 = DIRECTION('',(-0.5,-0.866025403784,1.645406930227E-16));
#717 = ORIENTED_EDGE('',*,*,#287,.F.);
#718 = FACE_BOUND('',#719,.F.);
#719 = EDGE_LOOP('',(#720));
#720 = ORIENTED_EDGE('',*,*,#721,.F.);
#721 = EDGE_CURVE('',#722,#722,#724,.T.);
#722 = VERTEX_POINT('',#723);
#723 = CARTESIAN_POINT('',(65.095121467478,-18.53012701892,9.));
#724 = CIRCLE('',#725,1.4);
#725 = AXIS2_PLACEMENT_3D('',#726,#727,#728);
#726 = CARTESIAN_POINT('',(63.88268590218,-17.83012701892,9.));
#727 = DIRECTION('',(-4.80481450326E-17,-4.162887357934E-16,-1.));
#728 = DIRECTION('',(0.866025403784,-0.5,1.665334536938E-16));
#729 = PLANE('',#730);
#730 = AXIS2_PLACEMENT_3D('',#731,#732,#733);
#731 = CARTESIAN_POINT('',(70.078838324886,-19.09807621135,9.));
#732 = DIRECTION('',(6.19518549674E-17,-2.257631469609E-16,-1.));
#733 = DIRECTION('',(-0.866025403784,0.5,-1.665334536938E-16));
#734 = ADVANCED_FACE('',(#735),#746,.F.);
#735 = FACE_BOUND('',#736,.F.);
#736 = EDGE_LOOP('',(#737,#738,#744,#745));
#737 = ORIENTED_EDGE('',*,*,#712,.T.);
#738 = ORIENTED_EDGE('',*,*,#739,.T.);
#739 = EDGE_CURVE('',#705,#461,#740,.T.);
#740 = LINE('',#741,#742);
#741 = CARTESIAN_POINT('',(56.619546181365,-19.41025403784,9.));
#742 = VECTOR('',#743,1.);
#743 = DIRECTION('',(6.19518549674E-17,-2.257631469609E-16,-1.));
#744 = ORIENTED_EDGE('',*,*,#468,.F.);
#745 = ORIENTED_EDGE('',*,*,#279,.F.);
#746 = PLANE('',#747);
#747 = AXIS2_PLACEMENT_3D('',#748,#749,#750);
#748 = CARTESIAN_POINT('',(60.119546181365,-13.34807621135,9.));
#749 = DIRECTION('',(0.866025403784,-0.5,1.665334536938E-16));
#750 = DIRECTION('',(6.19518549674E-17,-2.257631469609E-16,-1.));
#751 = ADVANCED_FACE('',(#752),#758,.F.);
#752 = FACE_BOUND('',#753,.F.);
#753 = EDGE_LOOP('',(#754,#755,#756,#757));
#754 = ORIENTED_EDGE('',*,*,#475,.T.);
#755 = ORIENTED_EDGE('',*,*,#652,.T.);
#756 = ORIENTED_EDGE('',*,*,#675,.F.);
#757 = ORIENTED_EDGE('',*,*,#263,.F.);
#758 = PLANE('',#759);
#759 = AXIS2_PLACEMENT_3D('',#760,#761,#762);
#760 = CARTESIAN_POINT('',(38.468911086754,-0.848076211353,0.));
#761 = DIRECTION('',(-0.866025403784,0.5,-1.665334536938E-16));
#762 = DIRECTION('',(-6.19518549674E-17,2.257631469609E-16,1.));
#763 = ADVANCED_FACE('',(#764),#770,.F.);
#764 = FACE_BOUND('',#765,.F.);
#765 = EDGE_LOOP('',(#766,#767,#768,#769));
#766 = ORIENTED_EDGE('',*,*,#368,.T.);
#767 = ORIENTED_EDGE('',*,*,#384,.T.);
#768 = ORIENTED_EDGE('',*,*,#407,.F.);
#769 = ORIENTED_EDGE('',*,*,#239,.F.);
#770 = PLANE('',#771);
#771 = AXIS2_PLACEMENT_3D('',#772,#773,#774);
#772 = CARTESIAN_POINT('',(44.964101615138,-4.598076211353,27.));
#773 = DIRECTION('',(6.19518549674E-17,-2.257631469609E-16,-1.));
#774 = DIRECTION('',(0.866025403784,-0.5,1.665334536938E-16));
#775 = ADVANCED_FACE('',(#776),#802,.F.);
#776 = FACE_BOUND('',#777,.F.);
#777 = EDGE_LOOP('',(#778,#786,#795,#801));
#778 = ORIENTED_EDGE('',*,*,#779,.T.);
#779 = EDGE_CURVE('',#296,#780,#782,.T.);
#780 = VERTEX_POINT('',#781);
#781 = CARTESIAN_POINT('',(46.82294734195,-4.978460969083,15.25));
#782 = LINE('',#783,#784);
#783 = CARTESIAN_POINT('',(46.52294734195,-5.498076211353,15.25));
#784 = VECTOR('',#785,1.);
#785 = DIRECTION('',(0.5,0.866025403784,-1.645406930227E-16));
#786 = ORIENTED_EDGE('',*,*,#787,.T.);
#787 = EDGE_CURVE('',#780,#788,#790,.T.);
#788 = VERTEX_POINT('',#789);
#789 = CARTESIAN_POINT('',(46.82294734195,-4.978460969083,9.75));
#790 = CIRCLE('',#791,2.75);
#791 = AXIS2_PLACEMENT_3D('',#792,#793,#794);
#792 = CARTESIAN_POINT('',(46.82294734195,-4.978460969083,12.5));
#793 = DIRECTION('',(-0.5,-0.866025403784,1.645406930227E-16));
#794 = DIRECTION('',(0.866025403784,-0.5,1.665334536938E-16));
#795 = ORIENTED_EDGE('',*,*,#796,.F.);
#796 = EDGE_CURVE('',#298,#788,#797,.T.);
#797 = LINE('',#798,#799);
#798 = CARTESIAN_POINT('',(46.52294734195,-5.498076211353,9.75));
#799 = VECTOR('',#800,1.);
#800 = DIRECTION('',(0.5,0.866025403784,-1.645406930227E-16));
#801 = ORIENTED_EDGE('',*,*,#295,.F.);
#802 = CYLINDRICAL_SURFACE('',#803,2.75);
#803 = AXIS2_PLACEMENT_3D('',#804,#805,#806);
#804 = CARTESIAN_POINT('',(46.52294734195,-5.498076211353,12.5));
#805 = DIRECTION('',(-0.5,-0.866025403784,1.645406930227E-16));
#806 = DIRECTION('',(0.866025403784,-0.5,1.665334536938E-16));
#807 = ADVANCED_FACE('',(#808),#826,.T.);
#808 = FACE_BOUND('',#809,.T.);
#809 = EDGE_LOOP('',(#810,#811,#819,#825));
#810 = ORIENTED_EDGE('',*,*,#779,.T.);
#811 = ORIENTED_EDGE('',*,*,#812,.T.);
#812 = EDGE_CURVE('',#780,#813,#815,.T.);
#813 = VERTEX_POINT('',#814);
#814 = CARTESIAN_POINT('',(52.36550992617,-8.178460969083,15.25));
#815 = LINE('',#816,#817);
#816 = CARTESIAN_POINT('',(46.82294734195,-4.978460969083,15.25));
#817 = VECTOR('',#818,1.);
#818 = DIRECTION('',(0.866025403784,-0.5,1.565334536938E-16));
#819 = ORIENTED_EDGE('',*,*,#820,.F.);
#820 = EDGE_CURVE('',#307,#813,#821,.T.);
#821 = LINE('',#822,#823);
#822 = CARTESIAN_POINT('',(52.06550992617,-8.698076211353,15.25));
#823 = VECTOR('',#824,1.);
#824 = DIRECTION('',(0.5,0.866025403784,-1.645406930227E-16));
#825 = ORIENTED_EDGE('',*,*,#306,.F.);
#826 = PLANE('',#827);
#827 = AXIS2_PLACEMENT_3D('',#828,#829,#830);
#828 = CARTESIAN_POINT('',(46.52294734195,-5.498076211353,15.25));
#829 = DIRECTION('',(5.329160092956E-17,-2.207631469609E-16,-1.));
#830 = DIRECTION('',(0.866025403784,-0.5,1.565334536938E-16));
#831 = ADVANCED_FACE('',(#832),#850,.F.);
#832 = FACE_BOUND('',#833,.F.);
#833 = EDGE_LOOP('',(#834,#835,#843,#849));
#834 = ORIENTED_EDGE('',*,*,#796,.T.);
#835 = ORIENTED_EDGE('',*,*,#836,.T.);
#836 = EDGE_CURVE('',#788,#837,#839,.T.);
#837 = VERTEX_POINT('',#838);
#838 = CARTESIAN_POINT('',(52.36550992617,-8.178460969083,9.75));
#839 = LINE('',#840,#841);
#840 = CARTESIAN_POINT('',(46.82294734195,-4.978460969083,9.75));
#841 = VECTOR('',#842,1.);
#842 = DIRECTION('',(0.866025403784,-0.5,1.665334536938E-16));
#843 = ORIENTED_EDGE('',*,*,#844,.F.);
#844 = EDGE_CURVE('',#315,#837,#845,.T.);
#845 = LINE('',#846,#847);
#846 = CARTESIAN_POINT('',(52.06550992617,-8.698076211353,9.75));
#847 = VECTOR('',#848,1.);
#848 = DIRECTION('',(0.5,0.866025403784,-1.645406930227E-16));
#849 = ORIENTED_EDGE('',*,*,#323,.F.);
#850 = PLANE('',#851);
#851 = AXIS2_PLACEMENT_3D('',#852,#853,#854);
#852 = CARTESIAN_POINT('',(46.52294734195,-5.498076211353,9.75));
#853 = DIRECTION('',(6.19518549674E-17,-2.257631469609E-16,-1.));
#854 = DIRECTION('',(0.866025403784,-0.5,1.665334536938E-16));
#855 = ADVANCED_FACE('',(#856),#868,.F.);
#856 = FACE_BOUND('',#857,.F.);
#857 = EDGE_LOOP('',(#858,#859,#866,#867));
#858 = ORIENTED_EDGE('',*,*,#844,.T.);
#859 = ORIENTED_EDGE('',*,*,#860,.T.);
#860 = EDGE_CURVE('',#837,#813,#861,.T.);
#861 = CIRCLE('',#862,2.75);
#862 = AXIS2_PLACEMENT_3D('',#863,#864,#865);
#863 = CARTESIAN_POINT('',(52.36550992617,-8.178460969083,12.5));
#864 = DIRECTION('',(-0.5,-0.866025403784,1.645406930227E-16));
#865 = DIRECTION('',(0.866025403784,-0.5,1.665334536938E-16));
#866 = ORIENTED_EDGE('',*,*,#820,.F.);
#867 = ORIENTED_EDGE('',*,*,#314,.F.);
#868 = CYLINDRICAL_SURFACE('',#869,2.75);
#869 = AXIS2_PLACEMENT_3D('',#870,#871,#872);
#870 = CARTESIAN_POINT('',(52.06550992617,-8.698076211353,12.5));
#871 = DIRECTION('',(-0.5,-0.866025403784,1.645406930227E-16));
#872 = DIRECTION('',(0.866025403784,-0.5,1.665334536938E-16));
#873 = ADVANCED_FACE('',(#874),#880,.T.);
#874 = FACE_BOUND('',#875,.T.);
#875 = EDGE_LOOP('',(#876,#877,#878,#879));
#876 = ORIENTED_EDGE('',*,*,#443,.T.);
#877 = ORIENTED_EDGE('',*,*,#704,.T.);
#878 = ORIENTED_EDGE('',*,*,#739,.T.);
#879 = ORIENTED_EDGE('',*,*,#460,.T.);
#880 = PLANE('',#881);
#881 = AXIS2_PLACEMENT_3D('',#882,#883,#884);
#882 = CARTESIAN_POINT('',(45.79422863406,-13.16025403784,4.5));
#883 = DIRECTION('',(-0.5,-0.866025403784,1.645406930227E-16));
#884 = DIRECTION('',(0.866025403784,-0.5,1.665334536938E-16));
#885 = ADVANCED_FACE('',(#886),#897,.F.);
#886 = FACE_BOUND('',#887,.F.);
#887 = EDGE_LOOP('',(#888,#889,#895,#896));
#888 = ORIENTED_EDGE('',*,*,#491,.F.);
#889 = ORIENTED_EDGE('',*,*,#890,.T.);
#890 = EDGE_CURVE('',#492,#687,#891,.T.);
#891 = LINE('',#892,#893);
#892 = CARTESIAN_POINT('',(33.918206931238,-0.530127018922,0.));
#893 = VECTOR('',#894,1.);
#894 = DIRECTION('',(4.80481450326E-17,4.162887357934E-16,1.));
#895 = ORIENTED_EDGE('',*,*,#686,.T.);
#896 = ORIENTED_EDGE('',*,*,#890,.F.);
#897 = CYLINDRICAL_SURFACE('',#898,1.4);
#898 = AXIS2_PLACEMENT_3D('',#899,#900,#901);
#899 = CARTESIAN_POINT('',(32.70577136594,0.169872981078,0.));
#900 = DIRECTION('',(-4.80481450326E-17,-4.162887357934E-16,-1.));
#901 = DIRECTION('',(0.866025403784,-0.5,1.665334536938E-16));
#902 = ADVANCED_FACE('',(#903),#914,.F.);
#903 = FACE_BOUND('',#904,.F.);
#904 = EDGE_LOOP('',(#905,#906,#912,#913));
#905 = ORIENTED_EDGE('',*,*,#502,.F.);
#906 = ORIENTED_EDGE('',*,*,#907,.T.);
#907 = EDGE_CURVE('',#503,#722,#908,.T.);
#908 = LINE('',#909,#910);
#909 = CARTESIAN_POINT('',(65.095121467478,-18.53012701892,
    7.105427357601E-15));
#910 = VECTOR('',#911,1.);
#911 = DIRECTION('',(4.80481450326E-17,4.162887357934E-16,1.));
#912 = ORIENTED_EDGE('',*,*,#721,.T.);
#913 = ORIENTED_EDGE('',*,*,#907,.F.);
#914 = CYLINDRICAL_SURFACE('',#915,1.4);
#915 = AXIS2_PLACEMENT_3D('',#916,#917,#918);
#916 = CARTESIAN_POINT('',(63.88268590218,-17.83012701892,
    7.105427357601E-15));
#917 = DIRECTION('',(-4.80481450326E-17,-4.162887357934E-16,-1.));
#918 = DIRECTION('',(0.866025403784,-0.5,1.665334536938E-16));
#919 = ADVANCED_FACE('',(#920,#926),#932,.T.);
#920 = FACE_BOUND('',#921,.T.);
#921 = EDGE_LOOP('',(#922,#923,#924,#925));
#922 = ORIENTED_EDGE('',*,*,#787,.T.);
#923 = ORIENTED_EDGE('',*,*,#836,.T.);
#924 = ORIENTED_EDGE('',*,*,#860,.T.);
#925 = ORIENTED_EDGE('',*,*,#812,.F.);
#926 = FACE_BOUND('',#927,.T.);
#927 = EDGE_LOOP('',(#928,#929,#930,#931));
#928 = ORIENTED_EDGE('',*,*,#587,.F.);
#929 = ORIENTED_EDGE('',*,*,#562,.T.);
#930 = ORIENTED_EDGE('',*,*,#636,.T.);
#931 = ORIENTED_EDGE('',*,*,#611,.T.);
#932 = PLANE('',#933);
#933 = AXIS2_PLACEMENT_3D('',#934,#935,#936);
#934 = CARTESIAN_POINT('',(49.59422863406,-6.578460969083,12.5));
#935 = DIRECTION('',(-0.5,-0.866025403784,1.645406930227E-16));
#936 = DIRECTION('',(0.866025403784,-0.5,1.665334536938E-16));
#937 = ( GEOMETRIC_REPRESENTATION_CONTEXT(3) 
GLOBAL_UNCERTAINTY_ASSIGNED_CONTEXT((#941)) GLOBAL_UNIT_ASSIGNED_CONTEXT
((#938,#939,#940)) REPRESENTATION_CONTEXT('Context #1',
  '3D Context with UNIT and UNCERTAINTY') );
#938 = ( LENGTH_UNIT() NAMED_UNIT(*) SI_UNIT(.MILLI.,.METRE.) );
#939 = ( NAMED_UNIT(*) PLANE_ANGLE_UNIT() SI_UNIT($,.RADIAN.) );
#940 = ( NAMED_UNIT(*) SI_UNIT($,.STERADIAN.) SOLID_ANGLE_UNIT() );
#941 = UNCERTAINTY_MEASURE_WITH_UNIT(LENGTH_MEASURE(2.E-06),#938,
  'distance_accuracy_value','confusion accuracy');
#942 = PRODUCT_RELATED_PRODUCT_CATEGORY('part',$,(#7));
#943 = MECHANICAL_DESIGN_GEOMETRIC_PRESENTATION_REPRESENTATION('',(#944)
  ,#937);
#944 = STYLED_ITEM('color',(#945),#15);
#945 = PRESENTATION_STYLE_ASSIGNMENT((#946,#952));
#946 = SURFACE_STYLE_USAGE(.BOTH.,#947);
#947 = SURFACE_SIDE_STYLE('',(#948));
#948 = SURFACE_STYLE_FILL_AREA(#949);
#949 = FILL_AREA_STYLE('',(#950));
#950 = FILL_AREA_STYLE_COLOUR('',#951);
#951 = COLOUR_RGB('',0.447058818107,0.474509808674,0.501960817233);
#952 = CURVE_STYLE('',#953,POSITIVE_LENGTH_MEASURE(0.1),#954);
#953 = DRAUGHTING_PRE_DEFINED_CURVE_FONT('continuous');
#954 = COLOUR_RGB('',9.803921802644E-02,9.803921802644E-02,
  9.803921802644E-02);
ENDSEC;
END-ISO-10303-21;
