<?xml version="1.0"?>
<!DOCTYPE svg PUBLIC "-//W3C//DTD SVG 1.1//EN" "http://www.w3.org/Graphics/SVG/1.1/DTD/svg11.dtd">
<svg width="247.29813415942047mm" height="144.84898302273382mm" viewBox="0 0 247.29813415942047 144.84898302273382" xmlns="http://www.w3.org/2000/svg" version="1.1">
<g id="Part__Part2DObjectPython" transform="translate(123.649067,72.424492) scale(1,-1)">
<path id="Part__Part2DObjectPython_w0000"  d="M -10.0 12.5 L -10.0 -12.5 L 10.0 -12.5 L 10.0 12.5 L -10.0 12.5 " stroke="#f1f3f5" stroke-width="0.7 px" style="stroke-width:0.7;stroke-miterlimit:4;stroke-dasharray:none;stroke-linecap:square;fill:none;fill-opacity:1;fill-rule: evenodd"/>
<path id="Part__Part2DObjectPython_w0001"  d="M 0.0 70.0 L -29.0 70.0 L -29.0 47.0 L -95.0 47.0 L -95.0 70.0 L -113.0 70.00000000000003 A 302 302 0 0 1 -113 -70L -95.0 -70.00000000000003 L -95.0 -47.0 L -29.000000000000007 -47.0 L -29.000000000000007 -70.0 L 0.0 -70.0 L 29.000000000000007 -70.0 L 29.000000000000007 -47.0 L 95.0 -47.0 L 95.0 -70.0 L 113.0 -70.0 A 302 302 0 0 1 113 70L 95.0 70.00000000000006 L 95.0 47.0 L 29.0 47.0 L 29.0 70.0 L 0.0 70.0 " stroke="#f1f3f5" stroke-width="0.7 px" style="stroke-width:0.7;stroke-miterlimit:4;stroke-dasharray:none;stroke-linecap:square;fill:none;fill-opacity:1;fill-rule: evenodd"/>
<circle cx="-86.5" cy="25.5" r="1.5" stroke="#f1f3f5" stroke-width="0.7 px" style="stroke-width:0.7;stroke-miterlimit:4;stroke-dasharray:none;stroke-linecap:square;fill:none"/>
<circle cx="-78.5" cy="25.5" r="1.5" stroke="#f1f3f5" stroke-width="0.7 px" style="stroke-width:0.7;stroke-miterlimit:4;stroke-dasharray:none;stroke-linecap:square;fill:none"/>
<circle cx="-86.5" cy="-25.5" r="1.5" stroke="#f1f3f5" stroke-width="0.7 px" style="stroke-width:0.7;stroke-miterlimit:4;stroke-dasharray:none;stroke-linecap:square;fill:none"/>
<circle cx="-78.5" cy="-25.5" r="1.5" stroke="#f1f3f5" stroke-width="0.7 px" style="stroke-width:0.7;stroke-miterlimit:4;stroke-dasharray:none;stroke-linecap:square;fill:none"/>
<circle cx="-17.0" cy="64.0" r="1.5" stroke="#f1f3f5" stroke-width="0.7 px" style="stroke-width:0.7;stroke-miterlimit:4;stroke-dasharray:none;stroke-linecap:square;fill:none"/>
<path id="Part__Part2DObjectPython_w0007"  d="M -72.5 22.0 L -72.5 17.0 L -51.5 17.0 L -51.5 22.0 L -72.5 22.0 " stroke="#f1f3f5" stroke-width="0.7 px" style="stroke-width:0.7;stroke-miterlimit:4;stroke-dasharray:none;stroke-linecap:square;fill:none;fill-opacity:1;fill-rule: evenodd"/>
<path id="Part__Part2DObjectPython_w0008"  d="M -72.5 -17.0 L -72.5 -22.0 L -51.5 -22.0 L -51.5 -17.0 L -72.5 -17.0 " stroke="#f1f3f5" stroke-width="0.7 px" style="stroke-width:0.7;stroke-miterlimit:4;stroke-dasharray:none;stroke-linecap:square;fill:none;fill-opacity:1;fill-rule: evenodd"/>
<circle cx="-36.5" cy="31.5" r="1.5" stroke="#f1f3f5" stroke-width="0.7 px" style="stroke-width:0.7;stroke-miterlimit:4;stroke-dasharray:none;stroke-linecap:square;fill:none"/>
<circle cx="-36.5" cy="0.0" r="1.5" stroke="#f1f3f5" stroke-width="0.7 px" style="stroke-width:0.7;stroke-miterlimit:4;stroke-dasharray:none;stroke-linecap:square;fill:none"/>
<circle cx="-36.5" cy="-31.5" r="1.5" stroke="#f1f3f5" stroke-width="0.7 px" style="stroke-width:0.7;stroke-miterlimit:4;stroke-dasharray:none;stroke-linecap:square;fill:none"/>
<circle cx="86.5" cy="25.5" r="1.5" stroke="#f1f3f5" stroke-width="0.7 px" style="stroke-width:0.7;stroke-miterlimit:4;stroke-dasharray:none;stroke-linecap:square;fill:none"/>
<circle cx="78.5" cy="25.5" r="1.5" stroke="#f1f3f5" stroke-width="0.7 px" style="stroke-width:0.7;stroke-miterlimit:4;stroke-dasharray:none;stroke-linecap:square;fill:none"/>
<circle cx="86.5" cy="-25.5" r="1.5" stroke="#f1f3f5" stroke-width="0.7 px" style="stroke-width:0.7;stroke-miterlimit:4;stroke-dasharray:none;stroke-linecap:square;fill:none"/>
<circle cx="78.5" cy="-25.5" r="1.5" stroke="#f1f3f5" stroke-width="0.7 px" style="stroke-width:0.7;stroke-miterlimit:4;stroke-dasharray:none;stroke-linecap:square;fill:none"/>
<circle cx="17.0" cy="64.0" r="1.5" stroke="#f1f3f5" stroke-width="0.7 px" style="stroke-width:0.7;stroke-miterlimit:4;stroke-dasharray:none;stroke-linecap:square;fill:none"/>
<path id="Part__Part2DObjectPython_w0017"  d="M 72.5 22.0 L 72.5 17.0 L 51.5 17.0 L 51.5 22.0 L 72.5 22.0 " stroke="#f1f3f5" stroke-width="0.7 px" style="stroke-width:0.7;stroke-miterlimit:4;stroke-dasharray:none;stroke-linecap:square;fill:none;fill-opacity:1;fill-rule: evenodd"/>
<path id="Part__Part2DObjectPython_w0018"  d="M 72.5 -17.0 L 72.5 -22.0 L 51.5 -22.0 L 51.5 -17.0 L 72.5 -17.0 " stroke="#f1f3f5" stroke-width="0.7 px" style="stroke-width:0.7;stroke-miterlimit:4;stroke-dasharray:none;stroke-linecap:square;fill:none;fill-opacity:1;fill-rule: evenodd"/>
<circle cx="36.5" cy="31.5" r="1.5" stroke="#f1f3f5" stroke-width="0.7 px" style="stroke-width:0.7;stroke-miterlimit:4;stroke-dasharray:none;stroke-linecap:square;fill:none"/>
<circle cx="36.5" cy="0.0" r="1.5" stroke="#f1f3f5" stroke-width="0.7 px" style="stroke-width:0.7;stroke-miterlimit:4;stroke-dasharray:none;stroke-linecap:square;fill:none"/>
<circle cx="36.5" cy="-31.5" r="1.5" stroke="#f1f3f5" stroke-width="0.7 px" style="stroke-width:0.7;stroke-miterlimit:4;stroke-dasharray:none;stroke-linecap:square;fill:none"/>
<circle cx="-108.22" cy="0.0" r="1.5" stroke="#f1f3f5" stroke-width="0.7 px" style="stroke-width:0.7;stroke-miterlimit:4;stroke-dasharray:none;stroke-linecap:square;fill:none"/>
<circle cx="-61.22" cy="0.0" r="1.5" stroke="#f1f3f5" stroke-width="0.7 px" style="stroke-width:0.7;stroke-miterlimit:4;stroke-dasharray:none;stroke-linecap:square;fill:none"/>
<circle cx="61.5" cy="0.0" r="1.5" stroke="#f1f3f5" stroke-width="0.7 px" style="stroke-width:0.7;stroke-miterlimit:4;stroke-dasharray:none;stroke-linecap:square;fill:none"/>
<circle cx="101.5" cy="0.0" r="1.5" stroke="#f1f3f5" stroke-width="0.7 px" style="stroke-width:0.7;stroke-miterlimit:4;stroke-dasharray:none;stroke-linecap:square;fill:none"/>
<circle cx="112.5" cy="18.0" r="1.5" stroke="#f1f3f5" stroke-width="0.7 px" style="stroke-width:0.7;stroke-miterlimit:4;stroke-dasharray:none;stroke-linecap:square;fill:none"/>
<circle cx="112.5" cy="-18.0" r="1.5" stroke="#f1f3f5" stroke-width="0.7 px" style="stroke-width:0.7;stroke-miterlimit:4;stroke-dasharray:none;stroke-linecap:square;fill:none"/>
<path id="Part__Part2DObjectPython_w0028"  d="M 101.0 26.75 L 101.0 12.25 L 107.5 12.25 L 107.5 26.75 L 101.0 26.75 " stroke="#f1f3f5" stroke-width="0.7 px" style="stroke-width:0.7;stroke-miterlimit:4;stroke-dasharray:none;stroke-linecap:square;fill:none;fill-opacity:1;fill-rule: evenodd"/>
<path id="Part__Part2DObjectPython_w0029"  d="M 101.0 -12.25 L 101.0 -26.749999999994714 L 107.5 -26.749999999994714 L 107.5 -12.25 L 101.0 -12.25 " stroke="#f1f3f5" stroke-width="0.7 px" style="stroke-width:0.7;stroke-miterlimit:4;stroke-dasharray:none;stroke-linecap:square;fill:none;fill-opacity:1;fill-rule: evenodd"/>
<title>b'Part__Part2DObjectPython'</title>
</g>
</svg>